<?xml version="1.0" encoding="utf-8"?>
<!-- Generator: Adobe Illustrator 27.2.0, SVG Export Plug-In . SVG Version: 6.00 Build 0)  -->
<svg version="1.1" id="Layer_1" xmlns="http://www.w3.org/2000/svg" xmlns:xlink="http://www.w3.org/1999/xlink" x="0px" y="0px"
	 viewBox="0 0 100 64.7" style="enable-background:new 0 0 100 64.7;" xml:space="preserve">
<style type="text/css">
	.st0{fill:#FFFFFF;}
	.st1{fill:#003366;}
	.st2{fill:#CF142B;}
</style>
<path class="st0" d="M54.7,21.3V26H100v-4.7H78l22-14V0L66.7,21.3h-7.3L92.7,0h-4l-30,20V0h-4V21.3z M42,26h3.3V0H42v20L11.3,0H0
	l33.3,21.3H26L0,4.7v2.7l22,14H0V26H42z"/>
<path class="st1" d="M42,20V0H11.3L42,20z"/>
<path class="st2" d="M26,21.3h7.3L0,0v4.7L26,21.3z"/>
<path class="st1" d="M0,7.3v14h22L0,7.3z M58.7,20l30-20h-30V20z"/>
<path class="st2" d="M59.3,21.3h7.3L100,0h-7.3L59.3,21.3z"/>
<path class="st1" d="M78,21.3h22v-14L78,21.3z"/>
<path class="st2" d="M42,38.7h3.3v26h9.3v-26H100V26H54.7V0h-9.3v26H0v12.7H42z"/>
<path class="st0" d="M58.7,38.7h-4v26h4V45.3l30,19.3H100L66.7,43.3H74L100,60v-2L78,43.3h22v-4.7H58.7z M33.3,43.3h7.3L7.3,64.7h4
	L42,45.3v19.3h3.3v-26H0v4.7h22L0,58v6.7L33.3,43.3z"/>
<path class="st1" d="M42,45.3L11.3,64.7H42V45.3z"/>
<path class="st2" d="M40.7,43.3h-7.3L0,64.7h7.3L40.7,43.3z"/>
<path class="st1" d="M22,43.3H0V58L22,43.3z M58.7,45.3v19.3h30L58.7,45.3z"/>
<path class="st2" d="M74,43.3h-7.3L100,64.7V60L74,43.3z"/>
<path class="st1" d="M100,58V43.3H78L100,58z"/>
</svg>
