<svg width="160" height="160" viewBox="0 0 160 160" fill="none" xmlns="http://www.w3.org/2000/svg">
  <rect width="160" height="160" rx="28" fill="#111111"/>
  <rect x="22" y="22" width="116" height="116" rx="22" stroke="rgba(255,255,255,0.16)" stroke-width="2"/>
  <path d="M80 48C62.3269 48 48 62.3269 48 80C48 97.6731 62.3269 112 80 112C97.6731 112 112 97.6731 112 80C112 62.3269 97.6731 48 80 48ZM80 58C92.1503 58 102 67.8497 102 80C102 84.7277 100.508 89.107 97.9678 92.6924L67.3076 62.0322C70.893 59.4919 75.2723 58 80 58ZM58 80C58 75.2723 59.4919 70.893 62.0322 67.3076L92.6924 97.9678C89.107 100.508 84.7277 102 80 102C67.8497 102 58 92.1503 58 80Z" fill="rgba(255,255,255,0.75)"/>
  <text x="80" y="133" text-anchor="middle" fill="rgba(255,255,255,0.55)" font-family="Arial, sans-serif" font-size="14" letter-spacing="3">BRAND</text>
</svg>
