<svg xmlns="http://www.w3.org/2000/svg" viewBox="0 0 122.88 66.83">
  <path fill-rule="evenodd" clip-rule="evenodd" d="M61.7 17.72c9.72-2.36 21.24-2.33 30.28-1.54C84.25 29.95 67.62 28.03 61.7 17.72M25.18 57.6l-4.13-4.13v5.72c1.53-.2 2.93-.76 4.13-1.59m-6.88 1.56v-5.68l-4.03 4.03c1.17.84 2.54 1.41 4.03 1.65m-6.02-3.56 4.07-4.07h-5.91c.28 1.51.92 2.9 1.84 4.07m-1.96-6.83h6.03l-4.41-4.41a9.4 9.4 0 0 0-1.62 4.41m3.5-6.43 4.48 4.48v-6.47a9.4 9.4 0 0 0-4.48 1.99m7.24-2.03v6.5l4.58-4.58a9.4 9.4 0 0 0-4.58-1.92m6.49 3.92-4.54 4.54h6.26a9.4 9.4 0 0 0-1.72-4.54m1.6 7.29h-6.14l4.2 4.2a9.4 9.4 0 0 0 1.94-4.2m81.76 6.27-4.31-4.31v5.77a9.4 9.4 0 0 0 4.31-1.46m-7.07 1.28v-5.6L100 57.31a9.4 9.4 0 0 0 3.84 1.76m-5.76-3.74 3.04-3.04-4.38.4c.31.96.77 1.85 1.34 2.64m1.49-12.78 3.91 3.91c.11-.09.23-.18.36-.26v-5.76a9.4 9.4 0 0 0-4.27 2.11m7.03-2.29v5.33c.33.05.65.14.96.27l3.82-3.82a9.4 9.4 0 0 0-4.78-1.78m6.76 3.7-3.79 3.79c.16.32.28.66.34 1.02h5.36a9.4 9.4 0 0 0-1.91-4.81m1.8 7.56h-5.71c-.11.19-.23.36-.37.52l3.93 3.93a9.4 9.4 0 0 0 2.15-4.45M41.6 9.27c1.16.42 1.71 1.57 1.05 2.98-.89 1.89-1.88 1.83-3.69 2.29l-1.15.29c-1.47.4-2.66.39-3.49.11l-1.04.22-1 2.16c4.1 1 7.87-.59 11.39-4.15 5.05-.79 9.93-.31 14.59 1.87.42 4.29 1.72 7.56 3.73 10 6.25 7.56 17.94 6.94 25.7 2.07 3.65-2.29 6.66-5.57 9.07-9.76 5.34-.02 10.62.28 15.8 1.1l1.54 3.51C94.89 22.22 83.5 35.66 78.98 56.6h-33.9c-2.27-13.18-8.66-21.8-17.72-27.47l2.47 1.8-1.69 3.92c5.21 2.93 8.73 8.5 8.73 14.9 0 9.43-7.65 17.08-17.08 17.08S2.71 59.19 2.71 49.75c0-8.35 6-15.31 13.92-16.79-4.53.49-9.71 2.11-15.43 4.66L0 35.32c5.1-4.62 12.93-7.45 24.42-7.88-3.85-2.03-8.11-3.61-12.68-4.85C17.25 11.86 24.28 4.01 33.35 0l1.32 2.19c-3.04 3.46-5.5 7.68-7.35 12.72.8.57 1.59 1.05 2.36 1.43l1.39-2.98c.21-.44.62-.73 1.07-.79l.96-.2c.04-.1.1-.21.16-.32.95-1.68 2.9-2.1 4.77-2.49 1.15-.21 2.44-.7 3.57-.29m68.89 14.43 3.55-.49 8.46 8.9-2.24.78zm-4.69 8.97c9.43 0 17.08 7.65 17.08 17.08 0 9.43-7.65 17.08-17.08 17.08-8.18 0-15.02-5.76-16.69-13.44l-6.08.56c.77-4.4 2.23-8.49 4.22-12.33l3.06.92c2.72-5.83 8.63-9.87 15.49-9.87"/>
</svg>
