<svg xmlns="http://www.w3.org/2000/svg" viewBox="0 0 122.88 35.03">
  <path fill-rule="evenodd" clip-rule="evenodd" d="M99.42 13.57c5.93 0 10.73 4.8 10.73 10.73s-4.8 10.73-10.73 10.73-10.73-4.8-10.73-10.73 4.8-10.73 10.73-10.73M79.05 5c-.59 1.27-1.06 2.69-1.42 4.23-.82 2.57.39 3.11 3.19 2.06L87 7.59c1.05-.74 1.55-1.47 1.38-2.19-.34-1.42-3.08-2.16-5.33-2.6-2.86-.57-2.66-.69-4 2.2M23.86 19.31a4.99 4.99 0 1 1 0 9.98 4.99 4.99 0 0 1 0-9.98m75.56 0a4.99 4.99 0 1 1 0 9.98 4.99 4.99 0 0 1 0-9.98M46.14 12.5c2.77-2.97 5.97-4.9 9.67-6.76 8.1-4.08 13.06-3.58 21.66-3.58l-2.89 7.5c-1.21 1.6-2.58 2.73-4.66 2.84zm-22.28 1.07c5.93 0 10.73 4.8 10.73 10.73s-4.8 10.73-10.73 10.73-10.73-4.8-10.73-10.73 4.8-10.73 10.73-10.73M40.82 10.3a81 81 0 0 1 11.59-5.82c12.91-5.09 22.78-6 36.32-1.9 4.08 1.55 8.16 3.1 12.24 4.06 4.03.96 21.48 1.88 21.91 4.81l-4.31 5.15c1.57 1.36 2.85 3.03 3.32 5.64-.13 1.61-.57 2.96-1.33 4.04-1.29 1.85-5.07 3.76-7.11 2.67-.65-.35-1.02-1.05-1.01-2.24.06-23.9-28.79-21.18-26.62 2.82H35.48C44.8 5.49 5.04 5.4 12.1 28.7 9.62 31.38 3.77 27.34 0 18.75a29 29 0 0 1 3.42-2.89c-.06-.05.06.19-.15-.17s.51-1.87 1.99-2.74c7.76-4.55 26.47-4.43 35.56-2.65"/>
</svg>
