<?xml version="1.0" encoding="UTF-8"?>
<svg id="Layer_1" xmlns="http://www.w3.org/2000/svg" version="1.1" viewBox="0 0 431.073 26.253">
  <!-- Generator: Adobe Illustrator 29.5.0, SVG Export Plug-In . SVG Version: 2.1.0 Build 137)  -->
  <defs>
    <style>
      .st0 {
        fill: #fff;
      }
    </style>
  </defs>
  <polygon class="st0" points="39.681 17.753 32.346 4.363 23.545 4.363 16.211 17.753 8.613 .113 0 .113 11.961 26.14 19.633 26.14 27.908 10.757 27.983 10.757 36.258 26.14 43.931 26.14 55.891 .113 47.241 .113 39.681 17.753"/>
  <rect class="st0" x="60.068" y=".113" width="7.635" height="26.027"/>
  <path class="st0" d="M101.704.113h-27.682v26.027h27.682c9.328,0,14.706-4.664,14.706-12.976v-.038C116.41,4.777,111.032.113,101.704.113ZM109.076,13.164c0,4.024-2.219,6.319-7.372,6.319h-20.047V6.77h20.047c5.153,0,7.372,2.294,7.372,6.357v.038Z"/>
  <polygon class="st0" points="121.225 26.14 158.423 26.14 158.423 19.859 128.56 19.859 128.56 16.21 155.264 16.21 155.264 10.117 128.56 10.117 128.56 6.394 158.423 6.394 158.423 .113 121.225 .113 121.225 26.14"/>
  <path class="st0" d="M191.637,4.752l5.836,5.836h-22.14l5.836-5.836-3.589-3.589-11.963,11.963,11.963,11.963,3.589-3.589-5.836-5.836h22.14l-5.836,5.836,3.589,3.589,8.374-8.374,3.589-3.589-11.963-11.963-3.589,3.589Z"/>
  <polygon class="st0" points="211.078 6.958 226.461 6.958 226.461 26.14 234.096 26.14 234.096 6.958 249.48 6.958 249.48 .113 211.078 .113 211.078 6.958"/>
  <path class="st0" d="M294.051,9.553v-.038c0-5.228-2.858-9.403-12.224-9.403h-27.795v26.027h7.334v-7.447h20.348l4.701,7.447h8.312l-5.792-8.575c3.799-1.542,5.115-4.514,5.115-8.011ZM286.754,9.553c0,2.069-1.316,2.896-4.927,2.896h-20.461v-5.83h20.461c3.611,0,4.927.865,4.927,2.896v.038Z"/>
  <path class="st0" d="M316.543.113l-19.483,26.027h8.237l3.347-4.589h23.094l3.347,4.589h8.237L323.84.113h-7.297ZM313.045,15.609l7.146-9.516,7.146,9.516h-14.292Z"/>
  <path class="st0" d="M358.971,6.657h15.609c3.047,0,5.153.301,6.62,1.881l4.438-5.228c-2.671-2.558-5.793-3.31-11.058-3.31h-15.609c-9.328,0-14.782,4.777-14.782,13.126v.038c0,8.312,5.454,13.089,14.782,13.089h15.609c5.378,0,8.425-.79,11.058-3.31l-4.438-5.228c-1.429,1.542-3.46,1.881-6.62,1.881h-15.609c-4.739,0-7.447-2.219-7.447-6.432v-.038c0-4.25,2.67-6.469,7.447-6.469Z"/>
  <polygon class="st0" points="431.073 .113 422.573 .113 415.991 10.08 397.561 10.08 397.561 .113 389.926 .113 389.926 26.14 397.561 26.14 397.561 16.587 415.954 16.587 422.536 26.14 431.073 26.14 422.009 13.427 431.073 .113"/>
</svg>