<svg xmlns="http://www.w3.org/2000/svg" viewBox="0 0 420 71" fill="none">
  <!-- Brake caliper icon -->
  <g fill="#E85B24">
    <!-- Caliper body -->
    <path d="M3.5 5C1.57 5 0 6.57 0 8.5V62.5C0 64.43 1.57 66 3.5 66H42C44.5 66 46.5 64 46.5 61.5V53.5C46.5 49 43.5 45 39.5 43.5L35 42V29L39.5 27.5C43.5 26 46.5 22 46.5 17.5V9.5C46.5 7 44.5 5 42 5H3.5Z" />
    <!-- Caliper cutouts (transparent/negative space) -->
    <path d="M8 12H20V26H8V12Z" fill="#000" fill-opacity="0"/>
    <path d="M8 45H20V59H8V45Z" fill="#000" fill-opacity="0"/>
  </g>
  <!-- White caliper cutout details -->
  <rect x="8" y="14" width="14" height="13" rx="2" fill="white"/>
  <rect x="8" y="44" width="14" height="13" rx="2" fill="white"/>
  <circle cx="30" cy="35.5" r="4" fill="white"/>
  <circle cx="13" cy="35.5" r="2.5" fill="white"/>
  
  <!-- GiroDisc text - white on transparent -->
  <text x="56" y="48" font-family="Arial Black, Impact, sans-serif" font-weight="900" font-size="42" font-style="italic" fill="white" letter-spacing="-1">
    <tspan>G</tspan><tspan font-size="30">IRO</tspan><tspan>D</tspan><tspan font-size="30">ISC</tspan>
  </text>
  
  <!-- Registered trademark -->
  <text x="398" y="20" font-family="Arial, sans-serif" font-size="10" fill="white">®</text>
  
  <!-- RACING BRAKES AND TECHNOLOGY -->
  <text x="56" y="65" font-family="Arial, Helvetica, sans-serif" font-weight="400" font-size="10" fill="white" letter-spacing="3.5">RACING BRAKES AND TECHNOLOGY</text>
</svg>
