<svg height="36" viewBox="0 0 92.566 36" width="92.566" xmlns="http://www.w3.org/2000/svg">
<g data-name="Gruppe 35" id="Gruppe_35" transform="translate(0 0)">
<path d="M546.277-230.558h9.576v-6.691h-9.576Z" data-name="Pfad 1" id="Pfad_1" transform="translate(-463.287 237.249)"></path>
<path d="M0-201.249H12.491L21.9-215.364h9.767v4.686H58.691a6.441,6.441,0,0,0,3.665-.771,7.393,7.393,0,0,0,2.032-1.852,7.838,7.838,0,0,0,1.806-5.07,11.276,11.276,0,0,0-.846-4.11,8.835,8.835,0,0,0-2.036-3.208A7,7,0,0,0,64.9-228.3a11.078,11.078,0,0,0,.537-2.262h5.243v19.887H81.413v-26.571H23.9Zm55.623-17.775a2.3,2.3,0,0,1-2.476,2.424H42.577v-4.9h10.67a2.347,2.347,0,0,1,2.376,2.474M42.559-230.962h9.057c.859,0,2.3.232,2.3,1.779,0,1.2-.758,1.8-2.253,1.8H42.559Zm-10.893,1.413v7.753H26.651Z" data-name="Pfad 2" id="Pfad_2" transform="translate(0 237.249)"></path>
<path d="M-16.641-1.442a1.991,1.991,0,0,0-1.961,0,1.884,1.884,0,0,0-.752.74,2.041,2.041,0,0,0-.268,1,2.024,2.024,0,0,0,.266.992,1.88,1.88,0,0,0,.741.74,2.038,2.038,0,0,0,.993.263,2.026,2.026,0,0,0,.993-.263,1.877,1.877,0,0,0,.743-.74A2.035,2.035,0,0,0-15.625.3a2.032,2.032,0,0,0-.268-1,1.82,1.82,0,0,0-.749-.74m.322,2.49a1.375,1.375,0,0,1-.557.551,1.5,1.5,0,0,1-.746.2,1.5,1.5,0,0,1-.747-.2,1.377,1.377,0,0,1-.555-.548,1.525,1.525,0,0,1-.2-.747,1.533,1.533,0,0,1,.2-.754,1.393,1.393,0,0,1,.561-.556,1.551,1.551,0,0,1,.739-.2,1.55,1.55,0,0,1,.738.2,1.368,1.368,0,0,1,.56.556,1.523,1.523,0,0,1,.2.754,1.511,1.511,0,0,1-.2.746" data-name="Pfad 3" id="Pfad_3" transform="translate(102.611 24.439)"></path>
<path d="M-6.759-6.473a.644.644,0,0,0,.234-.151h0a.587.587,0,0,0,.169-.415.57.57,0,0,0-.1-.32.539.539,0,0,0-.279-.215,1.588,1.588,0,0,0-.5-.057h-.73v2.046H-7.5v-.8h.1a.306.306,0,0,1,.193.048,1.484,1.484,0,0,1,.294.411l.19.339h.568l-.307-.5a2.543,2.543,0,0,0-.291-.391m-.152-.4a.488.488,0,0,1-.3.062H-7.5v-.4h.264a.815.815,0,0,1,.272.028.2.2,0,0,1,.089.065.181.181,0,0,1,.033.1.172.172,0,0,1-.068.145" data-name="Pfad 4" id="Pfad_4" transform="translate(92.196 31.348)"></path>
</g>
</svg>