<svg xmlns="http://www.w3.org/2000/svg" viewBox="0 0 193.616 35"><g transform="translate(-626.356 355)"><path d="M1051.735,552.362,1056.9,537.5h-5.3l-5.161,14.864Z" transform="translate(-321.769 -872.361)"/><path d="M1232.732,540.608l-.87,2.506H1243.9l-1.08,3.111h-12.039l-1.05,3.025,15.19.043-1.065,3.068h-20.508l5.161-14.864h20.508l-1.08,3.111Z" transform="translate(-451.995 -872.361)"/><path d="M882.9,537.5l-1.95,5.617H869.168l1.95-5.617h-5.3l-5.161,14.864h5.3l2.13-6.136h11.778l-2.13,6.136h5.3L888.2,537.5Z" transform="translate(-185.021 -872.361)"/><path d="M1119.193,540.609l-16.553.013-4.076,11.74h-5.3l4.08-11.753h-7.2l1.08-3.111h36.6l-1.117,3.217-14.331,8.536h11.367l-1.08,3.111H1102.17l.706-2.034Z" transform="translate(-353.943 -872.361)"/><path d="M987.171,557.544" transform="translate(-278.148 -887.163)"/><path d="M1015.9,594.3" transform="translate(-299.296 -914.304)"/><path d="M975.95,552.362l5.161-14.864h-5.3l-3.34,9.619-7.583-9.619h-5.3l-5.161,14.864h5.3l3.34-9.619,7.583,9.619Z" transform="translate(-254.041 -872.361)"/><path d="M1086.525,478.778c-7.076,0-12.133-4.091-11.237-9.092s7.648-9.143,14.724-9.143h19.065l-1.751,5.042h-17.616c-3.192,0-6.134,1.845-6.538,4.1s1.876,4.1,5.068,4.1h16.238l-1.733,4.991Z" transform="translate(-342.934 -815.543)"/><path d="M783.525,537.5A9.173,9.173,0,0,0,775,544.929c-.733,4.088,1.905,7.432,5.862,7.432h14.07l1.08-3.111H783.973a3.471,3.471,0,0,1-3.408-4.321,5.334,5.334,0,0,1,4.957-4.321h13.49l1.08-3.111Z" transform="translate(-121.881 -872.361)"/><path d="M680.72,537.5h20.143l-1.08,3.111H683.37a1.449,1.449,0,0,0-1.244,1.253,1.052,1.052,0,0,0,.976,1.253l11.249.007c2.34,0,3.955,2.079,3.587,4.62a5.341,5.341,0,0,1-4.924,4.62H673.933l1.08-3.111h16.135a1.744,1.744,0,0,0,1.608-1.509,1.232,1.232,0,0,0-1.171-1.509l-12.194-.007c-1.953,0-3.2-1.964-2.768-4.364s2.38-4.364,4.333-4.364" transform="translate(-47.577 -872.361)"/><path d="M951.133,462.006c-3.3,1.9-5.661,4.646-6.2,7.68a7.35,7.35,0,0,0,2.251,6.663l-.752,2.429h-9.646l4.59-13.222h-1.946s-26.46,13.222-26.747,13.222h-12.1c.287,0,36.794-18.235,36.794-18.235h14.051Z" transform="translate(-214.409 -815.543)"/><path d="M1331.185,537.5h-15.3l-5.16,14.864h5.3l2.138-6.159h5.736l4.445,6.159h6.032l-4.494-6.2c2.992-.359,5.7-2.155,6.286-4.3C1336.824,539.461,1334.582,537.5,1331.185,537.5Zm-.092,4.364a2.2,2.2,0,0,1-2.116,1.253h-9.743l.87-2.506h9.558C1330.638,540.608,1331.282,541.172,1331.093,541.861Z" transform="translate(-516.31 -872.361)"/></g></svg>