<svg xmlns="http://www.w3.org/2000/svg" viewBox="0 0 400 112" fill="#ffffff">
  <path d="M85,0l38.5,88.01V0h73.5s8.98,1.06,15.96,2.88c8.96,2.33,15.11,6.76,15.11,6.76l-3.07-9.64h33l31.51,83L322,0h33l-9,23c9.94-.19,20.86-.76,27-9.49,1.86-2.65,5.65-9.35,5.65-9.35h21.35v106.89h-28V43h-33.93l-.06-3.99-20.01,45.99h28v26.04h-30v-21.04l-9.12,21.04h-32.9l-25.97-57.04c2.01,28.26-13.55,54.55-43.47,57.04h-102.05s-3.83-7.8-11.12-21.92h-50.48l-8.02,21.92H0L49,0h36ZM155,90h38.5c4.57.03,8.43-2.47,10.43-3.57,17.55-9.61,17.63-50.03-.23-60.64-1.84-1.09-6.35-3.79-12.77-3.79h-35.94v68ZM84,68l-17.99-42-16.01,42h34Z" />
</svg>
