<svg width="25" height="25" viewBox="0 0 25 25" fill="none" xmlns="http://www.w3.org/2000/svg"><g clip-path="url(#clip0_693_8063)"><path d="M21.4404 10.8672C21.4404 17.8672 12.4404 23.8672 12.4404 23.8672C12.4404 23.8672 3.44043 17.8672 3.44043 10.8672C3.44043 8.48024 4.38864 6.19105 6.07647 4.50323C7.7643 2.8154 10.0535 1.86719 12.4404 1.86719C14.8274 1.86719 17.1166 2.8154 18.8044 4.50323C20.4922 6.19105 21.4404 8.48024 21.4404 10.8672Z" stroke="black" stroke-width="2" stroke-linecap="round" stroke-linejoin="round"></path><path d="M12.4404 13.8672C14.0973 13.8672 15.4404 12.524 15.4404 10.8672C15.4404 9.21033 14.0973 7.86719 12.4404 7.86719C10.7836 7.86719 9.44043 9.21033 9.44043 10.8672C9.44043 12.524 10.7836 13.8672 12.4404 13.8672Z" stroke="black" stroke-width="2" stroke-linecap="round" stroke-linejoin="round"></path></g><defs><clipPath id="clip0_693_8063"><rect width="24" height="24" fill="white" transform="translate(0.44043 0.867188)"></rect></clipPath></defs></svg>