<svg fill="none" xmlns="http://www.w3.org/2000/svg" viewBox="0 0 200 53" aria-hidden="true">
	<g clip-path="url(#header-logo-svg)">
		<path d="M198.31 6.672h-10.468c-1.113 3.683-2.222 7.35-3.329 11.019-1.108 3.675-2.211 7.35-3.321 11.04h-11.698l6.579-21.857c-.042-.076-.05-.1-.067-.119-.016-.016-.038-.033-.06-.035-.169-.015-.34-.038-.509-.038-5.875-.002-11.751-.002-17.704-.002l-1.512 5.012h14.588l-1.812 6.041h-14.591l-3.329 11.018h-11.554c-.011-.593 7.528-26.035 8.283-27.989.519-.14 51.169-.19 52.191-.052.042.534-.976 4.154-1.687 5.962ZM41.844 22.757h2.314l-1.82 6.028h-.853c-9.575 0-19.15-.004-28.726.01-.557 0-.953-.133-1.318-.583a75.061 75.061 0 0 0-2.59-3.004c-.279-.311-.345-.59-.221-.99a799.704 799.704 0 0 0 2.413-8.012c.106-.356.294-.591.594-.794a402.085 402.085 0 0 0 4.852-3.314c.401-.28.802-.404 1.293-.403 4.922.014 9.845.008 14.767.008h.9l1.47-4.888c-.616-.16-7.905-.216-9.285-.082-.202.617-.416 1.262-.636 1.93H13.454c-.017-.088-.057-.164-.04-.223.34-1.174.677-2.35 1.047-3.515.059-.187.244-.363.415-.48A393.216 393.216 0 0 1 20.096.888c.226-.15.54-.223.819-.23.905-.028 1.811-.01 2.717-.01 6.465 0 12.93.005 19.395-.012.538 0 .909.138 1.254.566a48.836 48.836 0 0 0 2.451 2.831c.423.45.495.848.316 1.436-1.653 5.405-3.276 10.818-4.907 16.23-.09.3-.17.603-.297 1.057h-.001Zm-19.57-4.969-1.475 4.92h9.338l1.476-4.92h-9.338ZM70.279 28.755H58.756l-.056-.09c-.012-.021-.03-.045-.028-.067.004-.073.006-.148.026-.217 2.754-9.16 5.51-18.32 8.268-27.479.02-.066.077-.122.162-.254h.75c8.816 0 17.63.006 26.445-.013.573 0 .949.175 1.305.611a77.74 77.74 0 0 0 2.493 2.892c.327.362.43.682.272 1.179a376.436 376.436 0 0 0-2.183 7.236c-.12.407-.33.678-.673.907-1.383.926-2.755 1.87-4.129 2.81-.198.135-.388.282-.642.467.313.369.592.703.876 1.033.64.742 1.274 1.487 1.924 2.22.195.221.276.43.183.73-.792 2.596-1.572 5.198-2.36 7.796-.02.067-.073.125-.133.225h-11.6c.835-3.013 1.81-5.943 2.66-8.97h-9.319l-2.721 8.981.003.003Zm4.555-15.103h9.294c.701-1.81 2.006-6.388 1.975-6.924h-9.18l-2.087 6.924h-.002Z" fill="#000" />
		<path d="m185.742 48.42-1.249 3.856H0a72.715 72.715 0 0 1 1.142-3.856h184.6Z" fill="#D9182B" />
		<path d="M108.535.704h11.645c-1.078 3.72-2.201 7.354-3.293 10.995-1.093 3.648-2.191 7.294-3.318 11.046h11.46c-.619 2.06-1.205 4.012-1.804 5.999-.277.016-.515.04-.752.04-5.681 0-11.363-.003-17.044.01-.476 0-.819-.113-1.135-.5a64.501 64.501 0 0 0-2.545-2.945c-.373-.407-.459-.764-.294-1.303 1.996-6.555 3.963-13.116 5.94-19.677.31-1.03.622-2.062.935-3.092.056-.183.129-.363.205-.573ZM144.463.695l-6.655 22.045h2.332l-1.803 5.999h-14.001c.673-2.48 1.45-4.888 2.171-7.311.724-2.438 1.463-4.872 2.195-7.309.73-2.429 1.459-4.86 2.225-7.405h-2.3c.57-2.104 1.192-4.065 1.787-6.02h14.051-.002ZM63.614.698l-6.659 22.047h2.33l-1.805 6.002H43.469c2.184-7.364 4.407-14.643 6.607-22.048h-2.323l1.798-6h14.063Z" fill="#000" />
		<path d="M190.919 32.563c-1.312 4.028-2.596 7.969-3.89 11.935h-20.615l3.612-11.935h20.893Z" fill="#D9182B" />
		<path d="M108.473 35.136H105.9c-.965 3.102-1.938 6.222-2.932 9.411-1.403.098-2.808.038-4.334.032.98-3.17 1.933-6.26 2.922-9.465a28.464 28.464 0 0 0-2.58.009c-.98 3.146-1.95 6.269-2.932 9.424h-4.302c.078-.292.132-.526.203-.757.919-2.967 1.844-5.931 2.753-8.901.135-.441.339-.785.726-1.052.602-.416 1.118-1.044 1.776-1.27.66-.226 1.45-.08 2.182-.082 1.175-.006 2.35.017 3.525-.01.527-.014.971.04 1.2.59.038.091.09.175.11.215.155-.05.217-.052.246-.083.663-.73 1.519-.75 2.422-.726 1.491.04 2.986.023 4.479.003.384-.004.6.136.848.43.725.858.858 1.678.463 2.795-.946 2.671-1.715 5.406-2.556 8.116-.072.23-.153.46-.242.73h-4.313l2.908-9.41h.001ZM123.004 44.596h-.707c-2.988 0-5.974-.013-8.962.012-.527.005-.808-.208-1.14-.594-.67-.776-.782-1.534-.362-2.463.281-.618.44-1.296.616-1.957.121-.45.351-.78.738-1.042.605-.411 1.131-1.018 1.793-1.248.636-.22 1.402-.07 2.112-.075 1.224-.007 2.448-.008 3.672-.014.047 0 .094-.024.225-.06l.638-2.015h-3.397l-.348.765h-4.248c.247-.852.296-1.7 1.149-2.209.564-.336 1.015-.931 1.61-1.128.622-.204 1.355-.078 2.039-.08 2.007-.004 4.015.01 6.022-.011.441-.005.679.176.964.497.729.818.791 1.615.429 2.658-.926 2.68-1.71 5.41-2.552 8.12-.08.255-.174.506-.291.844Zm-3.51-2.611.656-2.106h-3.435c-.22.679-.473 1.35-.62 2.106h3.399ZM49.278 40.738h-3.43l-1.212 3.849a265 265 0 0 1-4.324 0l3.74-12.062c.258-.015.474-.039.69-.04 3.011-.003 6.024.009 9.035-.013.495-.003.802.144 1.078.56.79 1.186.807 1.174.387 2.517-.16.514-.359 1.019-.473 1.543-.125.566-.432.955-.901 1.273-.463.313-.89.674-1.377 1.049.306.445.572.85.855 1.24.158.218.185.42.099.682-.341 1.047-.657 2.1-1.008 3.238a94.1 94.1 0 0 1-4.324 0l1.165-3.834v-.002Zm.838-2.673.907-2.924h-3.45l-.893 2.924h3.436ZM86.366 44.558l1.142-3.798h-3.425l-1.192 3.78h-4.32c1.25-4.033 2.484-8.012 3.73-12.023.281-.013.52-.034.759-.034 2.985-.001 5.97.01 8.954-.011.49-.003.77.169 1.086.546.663.792.86 1.568.4 2.532-.26.547-.406 1.154-.557 1.745-.105.407-.323.69-.656.929-.513.369-1.005.767-1.556 1.19.291.423.566.79.801 1.182.106.175.225.424.178.595-.318 1.124-.68 2.235-1.032 3.367h-4.312Zm1.992-6.489c.304-.978.6-1.926.908-2.921H85.82c-.287.987-.651 1.906-.86 2.921h3.398ZM75.212 32.484c1.25 0 2.499.017 3.746-.01.446-.01.678.19.963.502.748.817.78 1.627.414 2.657-.767 2.166-1.404 4.378-2.063 6.582-.142.478-.378.826-.782 1.098a8.6 8.6 0 0 0-.99.76c-.442.403-.929.544-1.533.536-2.4-.03-4.8-.025-7.2-.003-.47.005-.72-.186-1.027-.526-.736-.81-.75-1.605-.404-2.604.761-2.194 1.408-4.43 2.087-6.653.126-.414.316-.743.686-.995.607-.411 1.126-1.033 1.787-1.259.662-.225 1.45-.078 2.184-.085.71-.008 1.42 0 2.131 0h.001Zm-2.533 2.648c-.704 2.31-1.446 4.543-2.102 6.838h3.426l2.122-6.838H72.68ZM134.774 35.132h-3.445l-2.93 9.42h-4.266c.044-.225.066-.432.126-.626.95-3.061 1.911-6.12 2.85-9.184.114-.373.292-.65.608-.875.619-.438 1.163-1.066 1.846-1.305.657-.231 1.45-.077 2.185-.078 1.959-.005 3.918.009 5.877-.01.41-.005.669.116.907.462.862 1.251.876 1.242.422 2.707l-2.766 8.928c-1.395.049-2.801.02-4.337.012l2.922-9.453.001.002Z" fill="#000" />
		<path d="m14.94 32.632-3.68 11.862H2.438c-.022-.558 2.796-10.287 3.434-11.856.55-.144 8.283-.163 9.067-.006Z" fill="#D9182B" />
		<path d="M147.92 35.124h-3.431l-2.138 6.875c.662.006 1.212.011 1.762.013h1.665l.83-2.563h4.272c-.05.226-.079.417-.135.601-.213.703-.46 1.395-.645 2.105-.131.5-.374.877-.809 1.165-.589.392-1.096.98-1.737 1.2-.615.212-1.355.071-2.039.072-1.984.005-3.967-.014-5.951.014-.477.006-.718-.2-1.023-.535-.727-.805-.75-1.589-.396-2.596.773-2.19 1.411-4.427 2.087-6.65.126-.417.315-.744.683-.997.604-.416 1.124-1.036 1.785-1.261.662-.225 1.451-.08 2.184-.084 1.959-.006 3.918.01 5.877-.012.442-.004.679.178.963.499.727.82.887 1.648.411 2.66-.289.612-.428 1.297-.646 1.99h-4.312l.74-2.497.003.001ZM18.62 32.483h.757c2.988 0 5.975.012 8.963-.011.498-.005.802.151 1.077.564.785 1.177.8 1.167.38 2.516-.35 1.121-.71 2.238-1.04 3.365-.103.35-.275.607-.569.817-.498.355-.986.726-1.459 1.114-.284.233-.582.315-.943.312-1.543-.015-3.085-.006-4.628-.006h-.875l-1.077 3.39h-4.323l3.737-12.06Zm6.963 2.665h-3.454l-1.018 3.333h3.439l1.033-3.333ZM39.293 44.553H28.03l3.733-12.037h11.214c-.188.89-.476 1.701-.771 2.569H35.31l-.664 2.129h5.996c-.184.939-.493 1.744-.767 2.61h-5.993c-.293.702-.5 1.386-.68 2.18h6.871l-.779 2.549h-.001ZM162.407 42.014l-.775 2.533h-11.249l3.725-12.025h11.248l-.789 2.565h-6.908l-.662 2.114h6.015a28.76 28.76 0 0 1-.809 2.629h-6.017c-.219.695-.427 1.36-.667 2.119.798.12 1.545.045 2.285.059.735.013 1.468.003 2.203.003h2.4v.002ZM60.084 37.235h5.882c.037.569-.248 1.603-.708 2.59h-5.966l-1.492 4.72h-4.323l3.73-12.03h11.245c-.268.884-.516 1.709-.78 2.576h-6.917l-.673 2.145.002-.001ZM189.894 52.363c-1.167.116-2.601-.959-2.613-2.597-.01-1.478 1.175-2.648 2.663-2.635a2.611 2.611 0 0 1 2.615 2.61c.016 1.502-1.323 2.744-2.666 2.622h.001Zm2.268-2.602c.006-1.259-.955-2.25-2.2-2.27-1.283-.02-2.285.968-2.285 2.257 0 1.263.956 2.255 2.198 2.277 1.271.022 2.282-.978 2.288-2.264h-.001Z" fill="#000" />
		<path d="M188.898 48.332c.499 0 .962-.043 1.413.009.799.092 1.018.713.507 1.352-.044.054-.086.111-.146.192.359.327.487.728.34 1.183-.019.06-.193.07-.297.103-.273-1.121-.343-1.175-1.276-1.042-.075.34-.144.684-.235 1.02-.006.024-.173.003-.306.003v-2.82Zm.516.351v1.004c.303-.015.545 0 .778-.047.263-.051.457-.256.388-.517-.044-.17-.24-.365-.41-.424-.215-.073-.472-.017-.756-.017v.001Z" fill="#000" />
	</g>
	<defs>
		<clipPath id="header-logo-svg">
			<path fill="#fff" transform="translate(0 .629)" d="M0 0h200v51.743H0z" />
		</clipPath>
	</defs>
</svg>