<?xml version="1.0" encoding="UTF-8"?><svg enable-background="new 0 120 1000 642" version="1.1" viewBox="0 120 1000 642" xml:space="preserve" xmlns="http://www.w3.org/2000/svg"><style type="text/css">.st0{fill:#FFFFFF;}.st1{fill:#000104;}.st2{fill:#E31B23;}</style><path class="st0" d="m893.2 153.2c6.2 0 12.2 2.1 17.1 6.1 6.8 5.5 10.9 14 10.9 22.8 0 1 0.1 2.1 0.2 3s0.3 2.1 0.2 2.7l-0.1 0.4v0.4l0.3 195.6c0 0.7-0.3 2.1-0.6 3.1-0.2 0.9-0.4 1.7-0.6 2.5-1.8 10-8.7 18.2-18.6 21.9l-1.2 0.5c-15.3 6.1-178.8 71.7-197.4 79.2l-2 0.8-0.5 2.1c-16.5 62.7-60.4 113-120.4 138-24.9 10.4-51.3 15.6-78.4 15.6-38.5 0-76.8-10.8-110.5-31.3l-1.8-1.1-2 0.8-270.6 108.2c-3.6 1.5-7.3 2.3-11 2.3-6.2 0-12.2-2.1-17.1-6.2-6.8-5.5-10.9-14-10.9-22.7 0-1.9 0.2-22.5 0.2-22.6v-147.4c0-13.5 0.1-35.7 0.3-37.7 1.8-10 8.7-18.2 18.6-21.9l1.2-0.5 4.8-1.9c31.8-12.8 181-72.5 197.4-79l1.9-0.8 0.6-2c17.8-60.5 61-108.9 118.4-132.8 25.2-10.5 51.8-15.8 79.1-15.8 36.7 0 73 9.8 105 28.4l1.8 1 1.9-0.8c19-7.6 263.5-105 272.6-108.6 3.7-1.5 7.4-2.3 11.2-2.3"/><path class="st1" d="m100.4 526.3l803-320.7v145.9l-803 322.3v-147.5zm160.2-47.2v113.7l50-20v-114l-50 20.3zm245.3-97.9v114l90-36v-20.9l-40.1 15.7v-93l-49.9 20.2zm102.1-41v113.6l50-20v-114l-50 20.4zm64.8-26.2v114.4l50.1-20.8v-39.4l33.7-13.7v-23.3l-33.7 14.1v-26.7l38.2-16.2v-23.5l-88.3 35.1zm97.2-38.7v23.8l26.7-10.5v89.9l49.9-20v-90l23.5-9.3v-23.6l-100.1 39.7zm-613.5 359.3l5.9-20.6 34.8-12.2 5.8 14 46.1-18.5-35.5-99.5-47.6 18.6-36.4 128.8 26.9-10.6zm21.5-84.5l12 29-19.4 6.9 7.4-35.9zm204.7-43.1l23.3 27.2 50.4-19.8-32-34.1c4.9-7.9 9.6-25.1 5.9-36.5-7.7-23.8-31.4-19.8-54-11.5l-47.4 19.2v113.6l47.2-18.4v-37.7l6.6-2zm-6.7-49.8c12-5 13.7 4.8 13.6 13.1-0.1 8.2-4.2 17.1-13.6 19.9v-33"/><path class="st2" d="m393.3 594.1c52.4 35.8 120.5 45.9 181.7 20.4 60-25 100.4-77.4 112.4-136.6l209.4-84c14.4-4.8 6.7-26.2-7.3-20.4l-785.1 315.1c-12.4 4-4.5 23 7.5 18l281.4-112.5z"/><path class="st2" d="m319.4 398.6c13.2-57.1 52.8-107.4 111-131.6 60-25 126.8-16.1 177.2 17.1l283.3-112.9c11.9-5 19.8 14 7.5 18l-785.1 315.2c-14 5.8-21.7-15.6-7.3-20.4l213.4-85.4z"/><path class="st0" d="m760.9 565.2c12.9 3.1 18.9 9.9 18.9 16.1 0 25.5-44.6 29.6-63.1 29.6-5 0-20.6 0-20.6-7.4 0-2.7 4.5-9.5 6.5-11.4 1.5-1.3 9.1-3.7 11-3.7 0.6 0 1 0.1 1 0.9 0 1.3-1.3 1.9-2.2 2.4-0.8 0.5-1.4 1.2-2.2 1.9v0.3c45.7 1.7 58.2-11.5 58.2-13.6 0-6.5-35.4-11.6-41.6-12.7-6.4-1-13.1-3.1-13.1-10.7 0-4.2 2.1-13.6 4.1-17 4-6.5 27.1-18.7 55.1-18.7 5.4 0 10.8 0.6 16.1 1.8 2.9 0.6 3.3 1.7 3.3 4.2 0 9.5-3.2 11.6-10.7 14.6-5.5 2-6.5 2.7-11.5 6.3-0.9 0.5-2.2 1.3-3.2 1.3-1.3 0-2.1-0.6-2.1-1.9 0-0.3 2.4-4.2 9.3-9l-0.3-0.3c-33 1.2-47.2 13-47.3 16 0.4 1.8-1.2 2.7 34.4 11z"/><path class="st0" d="m822.6 592.3c-5.8 7-17 18.6-26.7 18.6-7.5 0-11-8.7-11-15.2 0-15.6 16-30.8 23.7-30.8 2.2 0 5.6 0.8 5.6 3.6 0 6.4-12.7 17.8-18 21.5-1 5.2 0.9 8.1 6.8 8.1 6.8 0 13.4-6.8 18.6-10.5l1 4.7zm-12.3-35.5c0-5.3 6.1-9.8 11.1-9.8 2.3 0 4.2 1.7 4.2 4 0 5.1-4.7 11.4-10.2 11.4-3-0.1-5.1-2.5-5.1-5.6z"/><path class="st0" d="m882 583.6l1 5.6c-6.8 6-20 21.7-29.3 21.7-4.9 0-7.2-4.1-7.2-8.4 0-7.7 6.9-16.1 11-22l-0.3-0.3c-7.4 5.5-14 12.1-19.7 19.6-1.9 2.4-6.7 8.7-10.1 8.7-5.6 0-7-8.1-7.2-12.4-0.4-8.8 7.7-21.7 15.1-28 1.7-1.4 2.8-1.5 5-1.5 7.7 0.3 7 2.1 7 2.8 0 5-16.1 17.9-16.1 21 0 0.8 0.6 1.4 1.4 1.4 0.9 0 2.1-1.2 2.6-1.8 10.2-13.1 33.8-28.8 37.5-28.8 0.5 0 1.3 0.6 2.1 2.4 0.8 1.9 1.5 4.2 1.9 6.9 0 5-15.7 14.7-15.7 23.6 0 1.1 1 2.3 2.3 2.3 3.1 0 8.7-4.5 11-6.4l7.7-6.4z"/><path class="st0" d="m895 584.9c-2.8 2.1-5.1 4-5.1 7.6 0 2.9 3.1 6.9 9.7 6.9 9.7 0 20.9-9 28.3-14.7l1.5 5c-7.8 8.3-22.1 21-34.3 21-9.9 0-14.6-9.2-14.6-18.7 0-10.8 3.8-14.7 12.1-21 5.8-4.4 18-11.3 25.2-11.3 4 0 5.8 2.1 5.8 5.9 0 7-10.1 16.9-13.6 16.9-2.9 0-4.2-3.2-4.3-5.6l-10.7 8z"/><path class="st0" d="m974.3 589.9c-7.8 9.1-21.9 21.1-34.5 21.1-9.3 0-13.7-8.3-14-16.8-0.5-16.7 18-33.9 34.7-33.8 4.1 0 9.2 1 9.2 6.1 0 6.3-6.3 15.7-30.8 23.8l-0.3 2.8c-0.4 4.9 3.8 6.5 7.9 6.5 9.1 0 19.8-9.3 26.6-14.7l1.2 5zm-15.9-20.6c0-0.9-0.6-1.7-1.5-1.4-6.4 1.7-13.8 7.8-17.3 16.2 11.3-3.8 19-12.6 18.8-14.8z"/><path class="st0" d="m728.6 659.6c-0.5 0.3-2.9 1.3-3.5 1.3-1.4 0-1.2-2.2-1-2.9 0.3-3.7 2.8-4.9 5.9-6.6 4.2-2.4 18.7-11 22.3-11 3.3 0 5.9 6.9 5.9 8.8 0 3.7 0 3.3-20.1 37.5-4.5 7.5-15 25.6-15 34.2 0 1.5 0.4 2.9 0.4 4.5 0 1.2-0.6 1.8-1.8 1.8-0.6 0-2.1-0.8-2.7-1.2-4.9-2.7-10.4-3.6-10.4-10.2 0-6.4 5.5-20.6 9-26.4 9.3-15.5 19.7-29.2 23.4-34l-0.3-0.3-12.1 4.5z"/><path class="st0" d="m815.4 662.5c-1.4 0.9-2.4 1.7-4.1 1.7-0.8 0-1.4-0.8-1.4-1.5 0-0.3-0.6-0.5 6.7-6.6l-0.3-0.3c-30.7 7.8-41.1 19.7-41.1 27.9 0 1.4 0.5 2.1 2 2.1 9.9 0 26.6-9.8 34-16.1 1.9-1.5 6.4-5.4 9.1-5.4 1.5 0 6.9 1.2 6.9 3.2 0 2.1-2.9 5.5-4.2 6.9l-33.6 39.5c-7.5 8.8-11.9 11.5-17.1 12-1.5 0.1-2.8-0.6-2.8-2.3s2.6-5.3 3.3-6.5c2.2-3.4 2.8-5.9 7.3-5.6l24.2-28.8-0.3-0.3c-5.3 3.7-19.6 12.7-25.8 12.7-4.3 0-15.9-8.7-15.9-19.5 0-15.7 30.4-36.1 52.6-35.7 5 0.1 12.5 10 12.5 12.9s-5.1 5.5-7.3 6.8l-4.7 2.9z"/><path class="st0" d="m874.9 703c-1.4 4.9-2.2 6.9-2.2 9.6 0 2.4 1.3 4.3 2.6 6.3-2.9 1.3-12.9 7.2-15.4 7.2-2.7 0-3.1-4.5-3.1-6.4 0-5 1.7-10 2.6-15.6-13.8 0.6-23.3 2.2-25.2-1.4-1.8-3.3-3.8-7.5-3.8-11.4 0-6.7 10.1-17.3 15-21.5 16.3-14.1 47.5-29.3 55.5-29.3 2.2 0 4.9 1 4.9 3.6 0 1.4-1.7 3.1-2.7 4 2.3 1.2 3.1 3.3 2.6 5.8-0.3 2.3-1.4 5-3.3 7.4-6.7 8.2-12.3 16.4-18.2 25.7 3.2 0 6.5-0.6 9.7-0.6 2.4 0 4.7 0.5 4.7 3.2 0 2.8-4.7 9.3-5.8 11.4l-17.9 2zm23.2-52.2l-0.3-0.3c-5.6 2.6-11.4 5.1-16.6 8.2-26.6 15.6-34.3 25.3-35.8 28.9 0 0.6 1.4 1.2 4.7 1.3 3.4 0.3 9 0 17.3-1l30.7-37.1z"/><path class="st0" d="m962 662.5c-1.4 0.9-2.4 1.7-4.1 1.7-0.8 0-1.4-0.8-1.4-1.5 0-0.3-0.6-0.5 6.7-6.6l-0.3-0.3c-30.7 7.8-41.1 19.7-41.1 27.9 0 1.4 0.5 2.1 2 2.1 9.9 0 26.6-9.8 34-16.1 1.9-1.5 6.4-5.4 9.1-5.4 1.5 0 6.9 1.2 6.9 3.2 0 2.1-2.9 5.5-4.2 6.9l-33.6 39.5c-7.5 8.8-11.9 11.5-17.1 12-1.5 0.1-2.8-0.6-2.8-2.3s2.6-5.3 3.3-6.5c2.2-3.4 2.8-5.9 7.3-5.6l24.2-28.8-0.3-0.3c-5.3 3.7-19.6 12.7-25.8 12.7-4.3 0-15.9-8.7-15.9-19.5 0-15.7 30.4-36.1 52.6-35.7 5 0.1 12.5 10 12.5 12.9s-5.1 5.5-7.3 6.8l-4.7 2.9z"/></svg>