<?xml version="1.0" encoding="UTF-8" standalone="no"?><!DOCTYPE svg PUBLIC "-//W3C//DTD SVG 1.1//EN" "http://www.w3.org/Graphics/SVG/1.1/DTD/svg11.dtd"><svg width="100%" height="100%" viewBox="0 0 7332 1582" version="1.1" xmlns="http://www.w3.org/2000/svg" xmlns:xlink="http://www.w3.org/1999/xlink" xml:space="preserve" xmlns:serif="http://www.serif.com/" style="fill-rule:evenodd;clip-rule:evenodd;stroke-linejoin:round;stroke-miterlimit:2;"><path d="M1229.72,122.413c-0,-0 -4.583,-25.429 -27.492,-30.929c-22.912,-5.5 -332.433,-0.229 -332.433,-0.229l-53.842,-0c0,-0 -39.404,-0 -63.692,40.779c-24.283,40.783 -752.262,1275.9 -752.262,1275.9l312.146,-0c-0,-0 37.058,-72.438 37.058,-73.05c0,-0.613 16.346,-35.967 50.675,-34.125c34.329,1.837 202.708,-0 202.708,-0c0,-0 76.83,1.021 76.83,-0c-0,-1.021 278.316,-278.721 278.316,-278.721l-386.208,-0c-0,-0 -47.358,-0.867 -19.333,-54.35c28.029,-53.479 329.75,-575.704 329.75,-575.704c-0,-0 10.208,-17.729 29.212,-16.388c7.188,0.509 12.679,3.075 16.738,6.071c0.025,0.017 0.033,0.033 0.054,0.05c13.121,9.217 15.733,82.9 15.733,82.9l25.013,493.617l158.537,-0l-146.925,148.946l8.3,193.3l311.3,-0l-70.183,-1178.07Z" style="fill:#fff;fill-rule:nonzero;"/><path d="M1358.69,1301.24l275.141,-933.916l279.392,-280.104l126.225,-0.709l-270.883,890.659c-0,-0 -14.184,46.095 36.162,44.675c50.35,-1.417 349.6,-0.709 349.6,-0.709l-278.687,280.104l-516.95,0Z" style="fill:#fff;fill-rule:nonzero;"/><path d="M2272.93,955.557l-284.792,0l175.954,-577.746l826.259,0c-0,0 176.087,-7.671 108.016,200.846c-68.075,208.517 -131.129,410.583 -131.129,410.583c0,0 -76.671,256.525 -239.329,298.8c0,0 -31.154,14.667 -107.183,12.746l-256.504,0l-281.08,280.696l-274.554,0l42.621,-137.854l417.013,-420.083l381.845,-0c0,-0 48.138,-20.796 81.575,-128.721c33.442,-107.921 52.696,-175.309 52.696,-175.309c0,0 15.2,-47.629 -6.587,-60.804c-21.788,-13.171 -1.521,-0.504 -1.521,-0.504c-0,0 -1.013,-8.108 -93.733,-8.108l-307.546,-0c-0,-0 -14.659,-2.842 -18.438,19.379c-3.783,22.217 -83.583,286.079 -83.583,286.079" style="fill:#fff;fill-rule:nonzero;"/><path d="M2968.92,1301.03l281.425,-939.046l274.537,-275.683l114.867,-0l-78.108,256.729c-0,-0 -7.467,33.887 20.1,32.162c27.57,-1.72 493.358,0 493.358,0c0,0 138.417,-2.87 130.95,129.8c-7.467,132.675 -233.596,795.771 -233.596,795.771l-272.642,0c0,0 189.101,-617.812 189.101,-614.429c-0.001,3.388 13.341,-46.108 -26.063,-45.604c-39.408,0.504 -379.921,-0 -379.921,-0c0,-0 -14.65,-1.517 -25.258,39.912c-10.613,41.425 -184.909,621.409 -184.909,621.409l-303.841,-1.021Z" style="fill:#fff;fill-rule:nonzero;"/><path d="M4900.09,958.743l101.341,-309.304l-375.583,0.963c-0,-0 -51.871,-1.442 -76.846,58.112c-24.975,59.554 -91.254,263.196 -91.254,263.196c-0,-0 -12.008,49.471 19.692,51.392c31.7,1.92 408.72,-0 408.72,-0l-277.125,278.083l-375.583,-0c0,-0 -144.083,-23.05 -100.858,-223.329c43.225,-200.279 143.604,-458.675 143.604,-458.675c-0,-0 85.492,-227.175 280.487,-243.025l157.371,-0.571l644.975,-0l-283.333,925.337c-0,0 -287.429,1.025 -287.258,0.513c0.17,-0.513 25.191,-75.763 25.191,-75.763l264.796,-267.108l-178.337,0.179Z" style="fill:#fff;fill-rule:nonzero;"/><path d="M5895.47,713.633l47.229,-163.566l152.625,129.008l-199.854,34.558Zm103.391,-713.633l-570.245,0l213.754,378.354l-156.763,505.775l727.384,-117.433l-766.034,239.325l-93.154,294.612l387.517,0l57.8,-180.191c-0,-0 538.146,-200.413 545.337,-202.729c7.192,-2.321 8.121,1.158 8.121,1.158l785.809,663.083l193.024,0l-1332.55,-1581.95Z" style="fill:#fff;fill-rule:nonzero;"/><path d="M6728.37,578.353c1.925,-1.284 156.467,-487.359 156.467,-487.359l443.112,0l-331.162,1068.55l-243.838,-449.646l387.704,-199.141l-412.283,67.596Z" style="fill:#fff;fill-rule:nonzero;"/></svg>