<svg id="Layer_1" data-name="Layer 1" xmlns="http://www.w3.org/2000/svg" viewBox="0 0 1128.2 256.85"><defs><style>.cls-1{fill:#231f20;}.cls-2{fill:#e52823;}</style></defs><path class="cls-1" d="M295.71,255.58h-7.84l12.3-38.07h15.47a16.84,16.84,0,0,1,6.42,1,6.71,6.71,0,0,1,3.44,3.22,9.24,9.24,0,0,1,.79,5.37,15.77,15.77,0,0,1-1.75,5.61A15.48,15.48,0,0,1,321.3,237a13.57,13.57,0,0,1-3.77,2.48,20.44,20.44,0,0,1-5.18,1.28,58.73,58.73,0,0,1-6.94.26h-5Zm6.7-20.83h2.42q6.21,0,8.37-.78a8,8,0,0,0,3.56-2.49,7.26,7.26,0,0,0,1.62-3.76,3.72,3.72,0,0,0-.35-2.26,3,3,0,0,0-1.57-1.29,17.68,17.68,0,0,0-4.88-.4H306Z"/><polygon class="cls-1" points="360.18 255.58 372.46 217.51 400.68 217.51 398.64 223.87 378.25 223.87 375.45 232.52 395.16 232.52 393.11 238.88 373.4 238.88 369.84 249.22 391.99 249.22 389.92 255.58 360.18 255.58"/><path class="cls-1" d="M442.4,255.58h-7.84l12.3-38.07h16.9a19.34,19.34,0,0,1,6.69.9,6.53,6.53,0,0,1,3.55,3.28,10.12,10.12,0,0,1,.84,5.79,12.8,12.8,0,0,1-3.82,8q-3.27,3.16-9.25,3.91a13,13,0,0,1,2.42,3.56,84,84,0,0,1,4.41,12.62h-8.41q-.65-3.22-2.83-10.05c-.8-2.46-1.75-4.11-2.87-5a6.85,6.85,0,0,0-3.81-.75h-3.19Zm6.93-21.48h4.16q6.31,0,8.46-.75a7.87,7.87,0,0,0,3.5-2.36,6.34,6.34,0,0,0,1.55-3.38,3,3,0,0,0-1.33-3.12c-.65-.41-2.12-.62-4.42-.62h-8.62Z"/><polygon class="cls-1" points="508.73 255.58 521.03 217.51 547.67 217.51 545.6 223.87 526.8 223.87 523.84 233.01 542.27 233.01 540.23 239.38 521.79 239.38 516.57 255.58 508.73 255.58"/><path class="cls-1" d="M581.55,240.65a28.71,28.71,0,0,1,1.82-7.12,29.24,29.24,0,0,1,5-8.7,23.1,23.1,0,0,1,7.5-5.83,21.62,21.62,0,0,1,9.65-2.14q7.05,0,10.91,4.39t3,11.63a28.06,28.06,0,0,1-4.16,11.66,24.92,24.92,0,0,1-8.67,8.68,22.14,22.14,0,0,1-11.33,3,14.41,14.41,0,0,1-8.66-2.41,11.48,11.48,0,0,1-4.43-6A17.3,17.3,0,0,1,581.55,240.65Zm7.75-.16a8.6,8.6,0,0,0,1.65,6.57,7.15,7.15,0,0,0,6,2.65,11.44,11.44,0,0,0,6.33-2.09,18,18,0,0,0,5.55-6.34,22.07,22.07,0,0,0,2.85-8.27q.51-4.48-1.62-7a7.21,7.21,0,0,0-5.86-2.56q-5.74,0-9.94,5.35A22.92,22.92,0,0,0,589.3,240.49Z"/><path class="cls-1" d="M661.24,255.58H653.4l12.3-38.07h16.9a19.34,19.34,0,0,1,6.69.9,6.56,6.56,0,0,1,3.55,3.28,10,10,0,0,1,.83,5.79,12.75,12.75,0,0,1-3.82,8q-3.27,3.16-9.24,3.91A13,13,0,0,1,683,243a84,84,0,0,1,4.41,12.62H679q-.66-3.22-2.83-10.05c-.8-2.46-1.75-4.11-2.87-5a6.89,6.89,0,0,0-3.81-.75h-3.19Zm6.93-21.48h4.16q6.3,0,8.46-.75a7.87,7.87,0,0,0,3.5-2.36,6.34,6.34,0,0,0,1.55-3.38,3.05,3.05,0,0,0-1.33-3.12c-.65-.41-2.12-.62-4.42-.62h-8.63Z"/><polygon class="cls-1" points="749.48 255.58 742.06 255.58 744.3 223.77 734.63 255.58 727.57 255.58 739.84 217.51 751.01 217.51 749.14 244.18 765.16 217.51 776.46 217.51 764.16 255.58 757.01 255.58 768.11 224 749.48 255.58"/><path class="cls-1" d="M839,247.17H823.91l-5.53,8.41h-8l25.86-38.07h8.7l1.85,38.07h-7.43Zm-.25-6.34-.46-15.32-10.94,15.32Z"/><polygon class="cls-1" points="910.51 255.58 903.21 255.58 895.84 230 887.58 255.58 880.28 255.58 892.55 217.51 899.88 217.51 907.29 242.98 915.51 217.51 922.78 217.51 910.51 255.58"/><path class="cls-1" d="M981.23,241.87l7.76,1.19a23.69,23.69,0,0,1-8,9.8,19.57,19.57,0,0,1-11.22,3.39q-7,0-10.44-4.2t-2.54-12.21a29.11,29.11,0,0,1,4-11.88,22.85,22.85,0,0,1,8.25-8.24,20.79,20.79,0,0,1,10.5-2.86q6.18,0,9.63,3.31a12,12,0,0,1,3.46,9l-7.58.73a7.13,7.13,0,0,0-1.86-4.82,6.48,6.48,0,0,0-4.57-1.49,11.4,11.4,0,0,0-6.29,2,15.68,15.68,0,0,0-5.2,6.16,23.91,23.91,0,0,0-2.64,8.38q-.52,4.58,1.39,7.06a6.18,6.18,0,0,0,5.18,2.49,9.78,9.78,0,0,0,5.8-2A13.73,13.73,0,0,0,981.23,241.87Z"/><polygon class="cls-1" points="1026.34 255.58 1038.61 217.51 1066.84 217.51 1064.79 223.87 1044.4 223.87 1041.6 232.52 1061.31 232.52 1059.27 238.88 1039.56 238.88 1035.99 249.22 1058.14 249.22 1056.07 255.58 1026.34 255.58"/><path class="cls-1" d="M805.65,181.45h-19.2A11.57,11.57,0,0,1,777.1,177a12,12,0,0,1-1.81-10.57l16.65-60.37,3.46-10.81-76.19,81a16,16,0,0,1-11.39,5.17h-26A11.18,11.18,0,0,1,671,174.33L639.09,93.49l-20.71,76.17c-1.8,6.61-8.45,11.79-15.15,11.79H584a11.59,11.59,0,0,1-9.35-4.44,12,12,0,0,1-1.86-10.55L614.61,12.31C616.4,5.7,623.06.52,629.78.52h22.67a11.37,11.37,0,0,1,10.88,7.1l45.21,114.32L818.19,5.68A16.17,16.17,0,0,1,829.61.52h22.67A11.62,11.62,0,0,1,861.66,5a12,12,0,0,1,1.8,10.56L820.83,169.69C819,176.28,812.34,181.45,805.65,181.45ZM798.52,90l-5.29,16.49-16.64,60.35a10.68,10.68,0,0,0,1.58,9.39,10.26,10.26,0,0,0,8.28,3.91h19.2c6.11,0,12.21-4.73,13.88-10.76L862.16,15.18a10.64,10.64,0,0,0-1.58-9.38,10.24,10.24,0,0,0-8.3-3.93H829.61a14.74,14.74,0,0,0-10.43,4.74L708.07,124.42l-46-116.31a10,10,0,0,0-9.62-6.24H629.78a15.08,15.08,0,0,0-13.87,10.79L574.13,166.81a10.69,10.69,0,0,0,1.62,9.37,10.26,10.26,0,0,0,8.28,3.91h19.2c6.12,0,12.2-4.73,13.84-10.78L638.85,89.2l33.41,84.63a9.88,9.88,0,0,0,9.6,6.26h26a14.74,14.74,0,0,0,10.41-4.73Z"/><path class="cls-1" d="M1069.81,181.45H848.19a11.58,11.58,0,0,1-9.36-4.46,12,12,0,0,1-1.8-10.57l5.33-19.2c1.83-6.59,8.5-11.75,15.18-11.75h188.58l.69-.35a4.82,4.82,0,0,0,2-2l.21-.5,5.24-18.64H866.91a11.61,11.61,0,0,1-9.37-4.45A12,12,0,0,1,855.74,99l24-86.68C881.6,5.68,888.28.52,895,.52h221.58A11.56,11.56,0,0,1,1125.93,5a12,12,0,0,1,1.76,10.58l-5.43,19.2c-1.86,6.58-8.55,11.73-15.23,11.73H918.91l-.69.35a5,5,0,0,0-2,2l-.16.33L911.13,67a.86.86,0,0,0,.14.71.8.8,0,0,0,.64.31h186.5a11.57,11.57,0,0,1,9.37,4.47,12,12,0,0,1,1.75,10.59L1085,169.72C1083.16,176.3,1076.48,181.45,1069.81,181.45ZM857.54,136.82c-6.11,0-12.2,4.73-13.88,10.76l-5.32,19.2a10.68,10.68,0,0,0,1.57,9.4,10.23,10.23,0,0,0,8.28,3.91h221.62c6.1,0,12.21-4.71,13.91-10.74l24.51-86.67a10.63,10.63,0,0,0-1.53-9.41,10.24,10.24,0,0,0-8.29-3.92H911.91a2.17,2.17,0,0,1-2.08-2.74l5-17.93.2-.44a6.29,6.29,0,0,1,2.59-2.59l1-.5H1107c6.11,0,12.23-4.72,13.93-10.74l5.43-19.2a10.69,10.69,0,0,0-1.53-9.41,10.28,10.28,0,0,0-8.3-3.93H895c-6.12,0-12.23,4.73-13.9,10.76l-24,86.68a10.62,10.62,0,0,0,1.57,9.39,10.24,10.24,0,0,0,8.29,3.92h189.16l-6,21.09a6.26,6.26,0,0,1-2.62,2.61l-1,.5Z"/><path class="cls-1" d="M541.44,181.24H318.59a11.17,11.17,0,0,1-9-4.26,11.53,11.53,0,0,1-1.83-10.08L330.9,79.61C332.66,73,339.3,67.79,346,67.79H534.94l.71-.39a4.6,4.6,0,0,0,1.84-1.84l.15-.3,4.76-17.68a1,1,0,0,0-.17-.89,1,1,0,0,0-.82-.4H355.89a11.65,11.65,0,0,1-9.38-4.44,12,12,0,0,1-1.9-10.51l5.09-19.2C351.45,5.51,358.1.32,364.84.32H586.41a11.65,11.65,0,0,1,9.38,4.44,12,12,0,0,1,1.86,10.54L555.8,170.07C554.11,176.33,547.8,181.24,541.44,181.24ZM346,69.14A15,15,0,0,0,332.21,80l-23.12,87.29a10.18,10.18,0,0,0,1.59,8.91,9.85,9.85,0,0,0,7.91,3.73H541.44a14.2,14.2,0,0,0,13.06-10.18L596.34,15a10.67,10.67,0,0,0-1.62-9.36,10.32,10.32,0,0,0-8.31-3.92H364.84A15,15,0,0,0,351,12.48l-5.09,19.2A10.71,10.71,0,0,0,347.58,41a10.33,10.33,0,0,0,8.31,3.91H541.41a2.38,2.38,0,0,1,2.3,3l-4.83,17.88-.18.37a6,6,0,0,1-2.4,2.41l-1,.55Zm171.08,67.48H362.33a1.12,1.12,0,0,1-.91-.46,1.1,1.1,0,0,1-.2-1l5.17-19.44.19-.38a6,6,0,0,1,2.31-2.35l1-.59H524.05a1.74,1.74,0,0,1,1.39.69,1.7,1.7,0,0,1,.29,1.51l-5,18.68-.19.36a6,6,0,0,1-2.36,2.4Zm-154.58-1.11h0Zm.06-.25H516.76l.72-.4A4.68,4.68,0,0,0,519.3,133l.15-.3,5-18.48a.38.38,0,0,0-.07-.34.36.36,0,0,0-.31-.15H370.28l-.73.41a4.53,4.53,0,0,0-1.77,1.79l-.15.3Z"/><path class="cls-1" d="M636.62,79.23l-24.15,88.83a10.22,10.22,0,0,1-9.24,7.27H584c-4,0-6.39-3.26-5.3-7.27L620.51,13.91a10.23,10.23,0,0,1,9.27-7.27h22.67a5.3,5.3,0,0,1,5.19,3.24l47.21,119.36c.73,1.86,3.47,1.86,5.22,0L822.65,9.88a9.89,9.89,0,0,1,7-3.24h22.67c4,0,6.4,3.25,5.29,7.27L814.93,168.06a10.29,10.29,0,0,1-9.28,7.27h-19.2c-4,0-6.37-3.26-5.26-7.27l24.49-88.83c.43-1.53-1.4-2.13-2.6-.86l-88.33,93.72a9.87,9.87,0,0,1-6.93,3.24h-26a5.27,5.27,0,0,1-5.16-3.24l-37-93.72C639.19,77.1,637,77.7,636.62,79.23Z"/><path class="cls-1" d="M1069.81,175.33H848.18c-4,0-6.36-3.26-5.25-7.27l5.32-19.2a10.3,10.3,0,0,1,9.29-7.27h188a10.35,10.35,0,0,0,9.32-7.27l5.42-19.2c1.13-4-1.21-7.27-5.23-7.27H866.9c-4,0-6.37-3.25-5.26-7.27l24-86.67A10.3,10.3,0,0,1,895,6.64h221.58c4,0,6.38,3.25,5.24,7.27l-5.43,19.2a10.38,10.38,0,0,1-9.34,7.27H919.47a10.32,10.32,0,0,0-9.32,7.27l-5.33,19.2c-1.12,4,1.24,7.26,5.26,7.26h188.33c4,0,6.37,3.26,5.23,7.27l-24.51,86.68A10.36,10.36,0,0,1,1069.81,175.33Z"/><path class="cls-1" d="M355.61,13.7l-5.08,19.2c-1.07,4,1.34,7.27,5.36,7.27H543.45c4,0,6.41,3.26,5.33,7.27l-5.18,19.2a10.19,10.19,0,0,1-9.24,7.27H346a10.14,10.14,0,0,0-9.22,7.27l-15.94,60.2-7.17,27.09c-1,3.67,1.21,6.65,4.89,6.65H541.44a9.33,9.33,0,0,0,8.45-6.65l7.33-27.09L591.74,13.7c1.08-4-1.3-7.26-5.33-7.26H364.83A10.15,10.15,0,0,0,355.61,13.7Zm.95,120.42,5.1-19.2a10.14,10.14,0,0,1,9.21-7.27h154.4c4,0,6.4,3.25,5.32,7.27l-5.18,19.2a10.18,10.18,0,0,1-9.23,7.26H361.91C357.89,141.38,355.5,138.13,356.56,134.12Z"/><path class="cls-1" d="M1101.07,200.34H293.49a3,3,0,0,1,0-6h807.58a3,3,0,0,1,0,6Z"/><path class="cls-2" d="M172.66,256.85H251.8a4.7,4.7,0,0,0,4.52-3.39L279.05,174a4.79,4.79,0,0,0-4.93-6.08c-45.11,3.25-90.38,38.51-106,82.62A4.79,4.79,0,0,0,172.66,256.85Z"/><path class="cls-2" d="M72.53,256.85H139.4a4.65,4.65,0,0,0,4.47-3.25c18.48-59.39,80.22-107.39,140.28-109.14a4.65,4.65,0,0,0,4.34-3.38l19.39-67.25a4.79,4.79,0,0,0-4.74-6.1C202.32,71.08,99.05,151.32,68,250.67A4.78,4.78,0,0,0,72.53,256.85Z"/><path class="cls-2" d="M327.49,6.1,317.09,42a4.71,4.71,0,0,1-4.47,3.38C197.46,47.18,78.49,139.53,44.77,253.47a4.7,4.7,0,0,1-4.51,3.38H4.78a4.77,4.77,0,0,1-4.6-6L35,126.1,69.49,3.42A4.68,4.68,0,0,1,74,0H322.9A4.78,4.78,0,0,1,327.49,6.1Z"/><path class="cls-1" d="M1121,166.36a11.37,11.37,0,1,1-11.33-11.07A11.12,11.12,0,0,1,1121,166.36Zm-19.9,0a8.58,8.58,0,0,0,8.64,8.84,8.48,8.48,0,0,0,8.43-8.77c0-4.93-3.58-8.91-8.5-8.91A8.6,8.6,0,0,0,1101.07,166.36Zm6.81,5.8h-2.56V161.1a21.75,21.75,0,0,1,4.25-.34,6.93,6.93,0,0,1,3.85.81,3.09,3.09,0,0,1,1.08,2.43,2.84,2.84,0,0,1-2.3,2.56v.13a3.29,3.29,0,0,1,2,2.7,8.22,8.22,0,0,0,.81,2.77h-2.77a9.43,9.43,0,0,1-.88-2.7c-.2-1.21-.87-1.75-2.29-1.75h-1.22Zm.07-6.27h1.22c1.41,0,2.56-.48,2.56-1.62s-.74-1.69-2.36-1.69a6.68,6.68,0,0,0-1.42.13Z"/></svg>