<svg xmlns="http://www.w3.org/2000/svg" viewBox="0 0 457.07 88.99"><defs><style>.cls-1{fill:#ed1c24;}.cls-1,.cls-2{fill-rule:evenodd;}.cls-2,.cls-4,.cls-5{fill:#231f20;}.cls-3{fill:none;}.cls-3,.cls-5{stroke:#231f20;stroke-miterlimit:10;}</style></defs><g id="Layer_2" data-name="Layer 2"><g id="Layer_1-2" data-name="Layer 1"><polygon class="cls-1" points="62.13 1.28 56.91 6.5 61.81 11.4 56.91 16.29 62.13 21.51 67.03 16.61 71.92 21.51 77.14 16.29 72.24 11.4 77.14 6.5 71.92 1.28 67.03 6.18 62.13 1.28"></polygon><path class="cls-2" d="M13.49,61.12H44.18V54.38h-34Q11.69,57.85,13.49,61.12Z"></path><path class="cls-2" d="M23.36,74.61H44.18V67.87H17.75A60.38,60.38,0,0,0,23.36,74.61Z"></path><path class="cls-2" d="M44.17,87.91c0-1.89,0-4.09,0-6.56H31.28A53.32,53.32,0,0,0,44.17,87.91Z"></path><path class="cls-2" d="M.74,13.92q.3,3.36.72,6.74h42.7c0-2.31,0-4.56,0-6.74Z"></path><path class="cls-2" d="M0,0C.06,1.8.14,5.34.24,7.17H44.15c0-2.49,0-4.85,0-7C29.49,4.51,13.76,4.52,0,0Z"></path><path class="cls-2" d="M2.46,27.4q.57,3.39,1.3,6.75H44.17q0-3.41,0-6.75Z"></path><path class="cls-2" d="M5.43,40.89q.95,3.42,2.1,6.74H44.18q0-3.35,0-6.74Z"></path><path class="cls-3" d="M77.78,61.5H47.09V54.75h34Q79.58,58.23,77.78,61.5Z"></path><path class="cls-3" d="M67.91,75H47.09V68.24H73.52A60.38,60.38,0,0,1,67.91,75Z"></path><path class="cls-3" d="M47.1,88.28c0-1.88,0-4.09,0-6.55H60A53.3,53.3,0,0,1,47.1,88.28Z"></path><path class="cls-3" d="M88.81,27.78q-.57,3.39-1.3,6.74H47.1V27.78Z"></path><path class="cls-3" d="M85.84,41.26q-.95,3.43-2.1,6.75H47.09V41.26Z"></path><path class="cls-4" d="M255,68.25a3,3,0,0,1-2.73-1.1l-35.34-40V66.8c0,1-.71,1.45-1.94,1.45h-6.61c-1.23,0-1.85-.48-1.85-1.45V21.48c0-1,.62-1.44,1.85-1.44h12.95a2.91,2.91,0,0,1,2.65,1.1L259.4,61.22V21.48c0-1,.7-1.44,1.94-1.44H268c1.23,0,1.85.48,1.85,1.44V66.8c0,1-.62,1.45-1.85,1.45Z"></path><path class="cls-4" d="M201.31,66.8,174.17,21.34a2.65,2.65,0,0,0-2.65-1.3h-10.4a2.63,2.63,0,0,0-2.64,1.3L131.34,66.8c-.53.83-.09,1.45,1,1.45h7.75a2.65,2.65,0,0,0,2.65-1.31l5.11-8.82L152,51l14.1-24.24L180.16,51l4.23,7.16,5.11,8.82a2.57,2.57,0,0,0,2.65,1.31h8.19C201.4,68.25,201.84,67.63,201.31,66.8Z"></path><path class="cls-4" d="M418.25,50.06,390.84,21.48c-.7-.69-.35-1.44.71-1.44h9.08c1.49,0,2.2.2,2.9,1L424,43.25,444.43,21c.7-.83,1.49-1,3-1h8.64c1,0,1.32.75.71,1.44L429.36,50V66.8c0,1-.71,1.45-1.94,1.45H420.1c-1.14,0-1.85-.48-1.85-1.45Z"></path><path class="cls-4" d="M328.05,66.8l-20.27-16h4.32c9.52,0,14.1-3.58,14.1-10.74V30.57c0-7.16-4.58-10.53-14.1-10.53H276.71V27.2h29.92c7.14,0,8.46,1,8.46,5.65v5.44c0,4.54-1.32,5.65-8.46,5.65H276.71V51h18.47l19.56,16.25a4,4,0,0,0,3.09,1h9.6C328.4,68.25,328.84,67.42,328.05,66.8Z"></path><path class="cls-4" d="M345.11,40.35h0V21.48c0-1-.71-1.44-1.94-1.44h-7.23c-1.23,0-1.85.48-1.85,1.44V66.8c0,1,.62,1.45,1.85,1.45h7.23c1.23,0,1.94-.48,1.94-1.45V47.38h0Z"></path><path class="cls-4" d="M385.92,66.8,357.71,43.94l27.68-22.46c.7-.62.35-1.44-.62-1.44h-9.08a4.11,4.11,0,0,0-3.08,1L349.16,40.35h-.11v7.52l23.56,19.41a4.39,4.39,0,0,0,3.08,1h9.61C386.36,68.25,386.62,67.42,385.92,66.8Z"></path><line class="cls-5" x1="114.76" y1="3.83" x2="114.76" y2="84.45"></line><path class="cls-4" d="M158.5,76.65v.74c0,.51-.26.75-.78.75h-1.95v1.07a.1.1,0,0,1-.11.11h-.4c-.07,0-.1,0-.1-.11V76c0-.07,0-.1.1-.1h2.46C158.24,75.9,158.5,76.14,158.5,76.65Zm-2.73,1h1.64c.4,0,.47-.08.47-.4v-.42c0-.33-.07-.4-.47-.4h-1.64Z"></path><path class="cls-4" d="M169.77,75.9a.09.09,0,0,1,.1.1v.3a.1.1,0,0,1-.1.11h-2.51v.92h2.12a.1.1,0,0,1,.11.11v.3a.1.1,0,0,1-.11.1h-2.12v1h2.51a.09.09,0,0,1,.1.1v.3a.1.1,0,0,1-.1.11h-3a.1.1,0,0,1-.11-.11V76c0-.07,0-.1.11-.1Z"></path><path class="cls-4" d="M181.48,76.65v.67a.68.68,0,0,1-.78.76h-.24l1.13,1.13c0,.05,0,.11,0,.11H181a.18.18,0,0,1-.17-.07l-1.08-1.15h-1v1.11a.1.1,0,0,1-.11.11h-.4a.1.1,0,0,1-.1-.11V76a.09.09,0,0,1,.1-.1h2.48C181.23,75.9,181.48,76.14,181.48,76.65Zm-2.75.94h1.67c.4,0,.47-.08.47-.4v-.38c0-.33-.07-.4-.47-.4h-1.67Z"></path><path class="cls-4" d="M190.35,77.39h2a.1.1,0,0,1,.11.11v.3a.1.1,0,0,1-.11.1h-2v1.31a.1.1,0,0,1-.11.11h-.4c-.07,0-.1,0-.1-.11V76c0-.07,0-.1.1-.1h2.9c.07,0,.11,0,.11.1v.3a.1.1,0,0,1-.11.11h-2.39Z"></path><path class="cls-4" d="M204.37,78.53c0,.54-.26.79-.82.79H201.7c-.55,0-.82-.25-.82-.79V76.68c0-.53.27-.78.82-.78h1.85c.56,0,.82.25.82.78Zm-.62-1.71c0-.34-.08-.41-.49-.41H202c-.4,0-.49.07-.49.41V78.4c0,.33.09.41.49.41h1.28c.41,0,.49-.08.49-.41Z"></path><path class="cls-4" d="M216.07,76.65v.67a.68.68,0,0,1-.78.76h-.24l1.12,1.13c0,.05,0,.11,0,.11h-.54a.21.21,0,0,1-.17-.07l-1.08-1.15h-1v1.11a.1.1,0,0,1-.11.11h-.4c-.07,0-.1,0-.1-.11V76c0-.07,0-.1.1-.1h2.48C215.81,75.9,216.07,76.14,216.07,76.65Zm-2.75.94H215c.4,0,.47-.08.47-.4v-.38c0-.33-.07-.4-.47-.4h-1.66Z"></path><path class="cls-4" d="M225.19,75.9a.13.13,0,0,1,.14.09l1.15,2.76L227.64,76c0-.06.06-.09.15-.09h.77c.07,0,.1,0,.1.1v3.21c0,.07,0,.11-.1.11h-.4a.1.1,0,0,1-.11-.11v-2.8l-1.19,2.81a.14.14,0,0,1-.15.1h-.47a.14.14,0,0,1-.15-.1l-1.2-2.82v2.81a.1.1,0,0,1-.11.11h-.36a.1.1,0,0,1-.11-.11V76c0-.07,0-.1.11-.1Z"></path><path class="cls-4" d="M239.66,78.6h-2l-.28.62a.14.14,0,0,1-.15.1h-.43c-.06,0-.08,0-.05-.11l1.5-3.22a.15.15,0,0,1,.15-.09h.57a.15.15,0,0,1,.15.09l1.5,3.22c0,.06,0,.11-.05.11h-.45a.14.14,0,0,1-.15-.1Zm-1.8-.51h1.56l-.78-1.72Z"></path><path class="cls-4" d="M251.32,79.32a.16.16,0,0,1-.15-.08l-1.95-2.84v2.81a.1.1,0,0,1-.11.11h-.37a.1.1,0,0,1-.1-.11V76a.09.09,0,0,1,.1-.1h.72a.16.16,0,0,1,.15.08l2,2.84V76c0-.07,0-.1.11-.1H252c.07,0,.1,0,.1.1v3.21c0,.07,0,.11-.1.11Z"></path><path class="cls-4" d="M263.69,78.24a.09.09,0,0,1,.1.1v.21c0,.56-.21.77-.79.77h-1.7c-.55,0-.82-.25-.82-.79V76.68c0-.53.27-.78.82-.78H263c.58,0,.79.21.79.76v.21c0,.07,0,.1-.1.1h-.39c-.07,0-.11,0-.11-.1V76.7c0-.2-.08-.29-.3-.29h-1.31c-.4,0-.49.07-.49.41V78.4c0,.33.09.41.49.41h1.31c.22,0,.3-.1.3-.29v-.18a.1.1,0,0,1,.11-.1Z"></path><path class="cls-4" d="M275.16,75.9c.07,0,.1,0,.1.1v.3c0,.07,0,.11-.1.11h-2.5v.92h2.12a.1.1,0,0,1,.1.11v.3a.09.09,0,0,1-.1.1h-2.12v1h2.5a.09.09,0,0,1,.1.1v.3c0,.07,0,.11-.1.11h-3c-.07,0-.1,0-.1-.11V76c0-.07,0-.1.1-.1Z"></path><path class="cls-4" d="M293.16,77.39h2a.1.1,0,0,1,.1.11v.3a.09.09,0,0,1-.1.1h-2v1.31a.1.1,0,0,1-.11.11h-.4c-.07,0-.1,0-.1-.11V76c0-.07,0-.1.1-.1h2.9c.07,0,.11,0,.11.1v.3a.1.1,0,0,1-.11.11h-2.39Z"></path><path class="cls-4" d="M307.17,78.53c0,.54-.26.79-.81.79h-1.85c-.55,0-.82-.25-.82-.79V76.68c0-.53.27-.78.82-.78h1.85c.55,0,.81.25.81.78Zm-.61-1.71c0-.34-.09-.41-.49-.41h-1.28c-.4,0-.49.07-.49.41V78.4c0,.33.09.41.49.41h1.28c.4,0,.49-.08.49-.41Z"></path><path class="cls-4" d="M318.88,76.65v.67a.69.69,0,0,1-.79.76h-.23L319,79.21c0,.05,0,.11,0,.11h-.53a.19.19,0,0,1-.17-.07l-1.08-1.15h-1v1.11a.1.1,0,0,1-.1.11h-.4a.1.1,0,0,1-.11-.11V76c0-.07,0-.1.11-.1h2.47C318.62,75.9,318.88,76.14,318.88,76.65Zm-2.76.94h1.67c.4,0,.47-.08.47-.4v-.38c0-.33-.07-.4-.47-.4h-1.67Z"></path><path class="cls-4" d="M330,76.93c-.07,0-.1,0-.1-.09V76.7c0-.2-.1-.29-.31-.29h-1.41c-.4,0-.49.07-.49.41V78.4c0,.33.09.41.49.41h1.41c.21,0,.31-.1.31-.29V78h-1c-.07,0-.1,0-.1-.1v-.3c0-.07,0-.1.1-.1h1.45c.07,0,.11,0,.11.1v1c0,.56-.22.77-.79.77h-1.8c-.55,0-.82-.25-.82-.79V76.68c0-.53.27-.78.82-.78h1.8c.57,0,.79.21.79.76v.18c0,.06,0,.09-.11.09Z"></path><path class="cls-4" d="M341.91,75.9a.09.09,0,0,1,.1.1v.3a.1.1,0,0,1-.1.11H339.4v.92h2.12a.1.1,0,0,1,.11.11v.3a.1.1,0,0,1-.11.1H339.4v1h2.51a.09.09,0,0,1,.1.1v.3a.1.1,0,0,1-.1.11h-3a.1.1,0,0,1-.11-.11V76c0-.07,0-.1.11-.1Z"></path><path class="cls-4" d="M352.57,75.9a1,1,0,0,1,1.07,1v1.36a1,1,0,0,1-1.07,1h-2.2a.1.1,0,0,1-.11-.11V76c0-.07,0-.1.11-.1Zm-1.7,2.91h1.42c.54,0,.74-.18.74-.63V77c0-.45-.2-.62-.74-.62h-1.42Z"></path><path class="cls-4" d="M374.14,79.32a.13.13,0,0,1-.14-.1l-.75-2.64-.74,2.64a.13.13,0,0,1-.14.1h-.64a.15.15,0,0,1-.15-.1l-1-3.22c0-.07,0-.1.08-.1h.43a.12.12,0,0,1,.13.1l.81,2.81.8-2.81c0-.07.05-.1.13-.1h.53a.12.12,0,0,1,.14.1l.79,2.82.81-2.82a.12.12,0,0,1,.14-.1h.4c.07,0,.09,0,.07.1l-1,3.22a.13.13,0,0,1-.14.1Z"></path><path class="cls-4" d="M387.33,79.21c0,.07,0,.11-.1.11h-.4a.1.1,0,0,1-.11-.11V77.84h-2.18v1.37a.1.1,0,0,1-.11.11H384a.1.1,0,0,1-.1-.11V76a.09.09,0,0,1,.1-.1h.4c.07,0,.11,0,.11.1v1.34h2.18V76c0-.07,0-.1.11-.1h.4c.07,0,.1,0,.1.1Z"></path><path class="cls-4" d="M398.84,75.9a.09.09,0,0,1,.1.1v.3a.1.1,0,0,1-.1.11h-2.5v.92h2.12a.1.1,0,0,1,.1.11v.3a.09.09,0,0,1-.1.1h-2.12v1h2.5a.09.09,0,0,1,.1.1v.3a.1.1,0,0,1-.1.11h-3c-.07,0-.1,0-.1-.11V76c0-.07,0-.1.1-.1Z"></path><path class="cls-4" d="M410.31,75.9a.09.09,0,0,1,.1.1v.3a.1.1,0,0,1-.1.11h-2.5v.92h2.11a.1.1,0,0,1,.11.11v.3c0,.07,0,.1-.11.1h-2.11v1h2.5a.09.09,0,0,1,.1.1v.3a.1.1,0,0,1-.1.11h-3c-.07,0-.1,0-.1-.11V76c0-.07,0-.1.1-.1Z"></path><path class="cls-4" d="M419.28,78.81h2.31a.09.09,0,0,1,.1.1v.3a.1.1,0,0,1-.1.11h-2.82c-.07,0-.1,0-.1-.11V76c0-.07,0-.1.1-.1h.4c.07,0,.11,0,.11.1Z"></path><path class="cls-4" d="M430.11,78.34a.1.1,0,0,1,.11.11v.07c0,.19.08.29.29.29H432c.35,0,.42-.07.42-.36V78.2c0-.28-.07-.36-.42-.36h-1.55c-.53,0-.78-.24-.78-.74v-.45c0-.51.25-.75.78-.75h1.73c.57,0,.79.21.79.76v.1a.1.1,0,0,1-.11.11h-.38a.1.1,0,0,1-.11-.11V76.7c0-.2-.09-.29-.3-.29h-1.37c-.34,0-.42.07-.42.35V77c0,.29.08.36.42.36h1.55c.54,0,.79.24.79.75v.49c0,.51-.25.75-.79.75h-1.83c-.58,0-.8-.21-.8-.77v-.1a.1.1,0,0,1,.11-.11Z"></path></g></g></svg>