<?xml version="1.0" encoding="utf-8"?>
<svg version="1.1" id="Isolation_Mode" xmlns="http://www.w3.org/2000/svg" xmlns:xlink="http://www.w3.org/1999/xlink" x="0px"
	 y="0px" viewBox="0 0 92.2 84.6" style="enable-background:new 0 0 92.2 84.6;" xml:space="preserve">
<style type="text/css">
	.st0{fill:#25315C;}
	.st1{fill:none;stroke:#FEC901;stroke-width:0.9;stroke-miterlimit:10;}
	.st2{fill:#FEC901;}
	.st3{fill:#FFCA00;}
</style>
<title>ap-logo</title>
<rect x="0.4" y="0.4" class="st0" width="91.3" height="83.7"/>
<rect x="0.4" y="0.4" class="st1" width="91.3" height="83.7"/>
<path class="st2" d="M11.3,58.3L11.3,58.3L11.3,58.3L11.3,58.3z"/>
<path class="st2" d="M23.7,4.8"/>
<polygon class="st2" points="8.2,62.1 8.2,62.1 8.2,62.1 8.2,62.1 "/>
<polygon class="st2" points="10.9,75.4 10.9,75.4 10.9,75.4 "/>
<g>
	<g>
		<path class="st3" d="M63.2,52.5V42.3h6.1c7.4,0,14.2-4.5,17-11.4c2.8-6.9,1.3-14.8-4-20.1c-5.3-5.3-13.2-6.8-20.1-4
			c-6.9,2.8-11.4,9.6-11.4,17V30h-8.6v-6.1c0-10.2-8.2-18.4-18.4-18.4c0,0,0,0,0,0c0,0,0,0,0,0c-10.2,0-18.4,8.2-18.4,18.4v28.6
			c0,2.2,1.2,4.2,3.1,5.3c0.9,0.5,2,0.8,3.1,0.8c0,0,0,0,0,0c0,0,0,0,0,0c1.1,0,2.1-0.3,3.1-0.8c1.9-1.1,3.1-3.1,3.1-5.3V42.3h12.3
			v10.2c0,2.2,1.2,4.2,3.1,5.3c1.9,1.1,4.2,1.1,6.1,0c1.9-1.1,3.1-3.1,3.1-5.3V42.3h8.6v10.2c0,2.2,1.2,4.2,3.1,5.3
			c1.9,1.1,4.2,1.1,6.1,0C62,56.7,63.2,54.7,63.2,52.5z M63.2,23.9c0-2.5,1.5-4.7,3.8-5.7c2.3-1,4.9-0.4,6.7,1.3
			c1.8,1.8,2.3,4.4,1.3,6.7c-1,2.3-3.2,3.8-5.7,3.8h-6.1V23.9z M30.1,30H17.8v-6.1c0-3.4,2.7-6.1,6.1-6.1c3.4,0,6.1,2.7,6.1,6.1V30z
			"/>
		<path class="st3" d="M46.3,67.7c0.9,0,1.8-0.5,2.3-1.3c0.5-0.8,0.5-1.8,0-2.6c-0.5-0.8-1.3-1.3-2.3-1.3c-4.8,0-8.8,3.9-8.8,8.8
			c0,4.8,3.9,8.8,8.8,8.8c0.9,0,1.8-0.5,2.3-1.3s0.5-1.8,0-2.6c-0.5-0.8-1.3-1.3-2.3-1.3c-1.9,0-3.5-1.6-3.5-3.5
			C42.8,69.3,44.4,67.7,46.3,67.7z"/>
		<path class="st3" d="M19.1,66c-1.3-2.2-3.6-3.5-6.1-3.5H8.5c0,0,0,0,0,0c0,0,0,0,0,0c-1.4,0-2.6,1.2-2.6,2.6v12.3
			c0,0.9,0.5,1.8,1.3,2.3C7.6,79.8,8.1,80,8.5,80c0,0,0,0,0,0c0,0,0,0,0,0c0.5,0,0.9-0.1,1.3-0.4c0.8-0.5,1.3-1.3,1.3-2.3v-1.7
			c0,0,0,0,0,0c0,0,0,0,0,0c0,0,0,0,0,0h3.3c0.2,0.4,0.3,0.8,0.2,1.2c-0.2,1.4,0.7,2.8,2.2,3c1.4,0.2,2.8-0.7,3-2.2
			c0.3-1.6,0-3.3-0.9-4.7C20.3,70.9,20.3,68.2,19.1,66z M14.5,70.4h-3.3v-2.7h1.8c0.6,0,1.2,0.3,1.6,0.9
			C14.8,69.2,14.8,69.9,14.5,70.4z"/>
		<path class="st3" d="M28.8,62.4c-3.9,0-7,3.2-7,7v7.9c0,0.9,0.5,1.8,1.3,2.3c0.8,0.5,1.8,0.5,2.6,0c0.8-0.5,1.3-1.3,1.3-2.3v-0.9
			h3.6v0.9c0,0.9,0.5,1.8,1.3,2.3c0.8,0.5,1.8,0.5,2.6,0c0.8-0.5,1.3-1.3,1.3-2.3v-7.9C35.8,65.6,32.7,62.4,28.8,62.4z M30.6,71.2
			H27v-1.7c0-1,0.8-1.8,1.8-1.8c1,0,1.8,0.8,1.8,1.8V71.2z"/>
		<path class="st3" d="M84.8,70c-1.5,0-2.6,1.2-2.6,2.6v2c-1.3,0-2.4-0.7-3.1-1.8c-0.6-1.1-0.6-2.5,0.1-3.6c0.7-1.1,1.9-1.7,3.1-1.6
			l2.3,0.1c0.9,0,1.8-0.4,2.3-1.2c0.5-0.8,0.6-1.8,0.1-2.6c-0.4-0.8-1.3-1.4-2.2-1.4l-2.3-0.1c-3.6-0.2-7,1.9-8.5,5.3
			c-1.5,3.3-0.7,7.2,2,9.8c2.6,2.5,6.5,3.2,9.8,1.6c0.9-0.4,1.5-1.4,1.5-2.4v-4.1C87.4,71.2,86.2,70,84.8,70z"/>
		<path class="st3" d="M53.2,62.4c-1.5,0-2.6,1.2-2.6,2.6v12.3c0,1.5,1.2,2.6,2.6,2.6c1.5,0,2.6-1.2,2.6-2.6V65.1
			C55.8,63.6,54.6,62.4,53.2,62.4z"/>
		<path class="st3" d="M64.6,62.4c-3.9,0-7,3.2-7,7v7.9c0,0.9,0.5,1.8,1.3,2.3c0.8,0.5,1.8,0.5,2.6,0c0.8-0.5,1.3-1.3,1.3-2.3v-7.9
			c0-1,0.8-1.8,1.8-1.8c1,0,1.8,0.8,1.8,1.8v7.9c0,0.9,0.5,1.8,1.3,2.3c0.8,0.5,1.8,0.5,2.6,0c0.8-0.5,1.3-1.3,1.3-2.3v-7.9
			C71.7,65.6,68.5,62.4,64.6,62.4z"/>
	</g>
</g>
</svg>
