<svg id="svg5039" xmlns="http://www.w3.org/2000/svg" viewBox="0 0 403.72 138.78"><defs><style>.cls-1{fill:#fc0;}</style></defs><title>arp_logo_yellow</title><g id="layer1"><path id="path4043" class="cls-1" d="M319.1,194.3l11.7-2.54,10-29.16H330Zm37.14,7.52-43.11,9.1-3.93,10.5H276.45L302.62,145H375.7ZM245.39,172.19l-13.15,38.73H196.19L218.77,145h73.07l-6.38,18.66ZM112.32,210.92l13.26-38.73L166,163.58H128.53L134.9,145H208L185.4,210.92Zm15.3-76.14L98.07,221.11H239.53l13.65-40.17,28.44-6.07-19.43,56.74h54.08l4.44-11.87,43.3-9.15L390,134.78Zm17.53,58.86h16.94l3.21-9.38L147,188.17ZM409,157l86.4-22.23H400.8l-16.24,47.67,43.36-11.16h-28.1L455.36,157ZM264.61,258.28a6.08,6.08,0,0,1-2.92,3.34,5,5,0,0,1-2.31.52c-.74,0-2.79-.2-2.87-2.38a4.18,4.18,0,0,1,.23-1.48,5.82,5.82,0,0,1,5.12-3.8,2.75,2.75,0,0,1,2.47.81,3,3,0,0,1,.28,3Zm1.49-8.94a12.19,12.19,0,0,0-5.5,1.29,15.06,15.06,0,0,0-1.43.83l.61-1.7h-7.51l-8.2,23h7.51l2.63-7.36a7,7,0,0,0,5.48,2,13.17,13.17,0,0,0,8.94-3.57,13.43,13.43,0,0,0,3.6-5.4c.35-1,1.33-4.18-.1-6.47-1.59-2.47-5-2.63-6-2.63Zm52.09.28a10.94,10.94,0,0,0-5.09,2.83l1-2.7h-7.58l-6.08,17H308l2.72-7.62a4.58,4.58,0,0,1,.85-1.57,4.73,4.73,0,0,1,3.24-1.52c.36,0,.76-.06,1.14-.06a14.58,14.58,0,0,1,1.76.13l2.39-6.72a10.61,10.61,0,0,0-1.86.19Zm11.58,5.24h2.76l1.58-4.41h-2.8l2.05-5.75h-7.29l-2.15,5.76h-2.44l-1.57,4.4h2.41l-3,8c-.5,1.31-.59,2-.29,2.63a2.63,2.63,0,0,0,2,1.19,18.36,18.36,0,0,0,2.36.13h4.92L330,262h-.9c-1.09,0-1.49-.23-1.47-.84a2.91,2.91,0,0,1,.13-.64Zm19.05-5.69a21.12,21.12,0,0,0-7.95,1.22,7.7,7.7,0,0,0-4.65,4.31,3.37,3.37,0,0,0,0,2.8,4.54,4.54,0,0,0,2.86,1.7,24.12,24.12,0,0,0,3.15.74c2.32.42,4.53.61,5.1,1.09a.65.65,0,0,1,.15.74,2,2,0,0,1-.81.93,5.45,5.45,0,0,1-2.71.58c-1,0-2.64-.26-3.1-1.12a1.48,1.48,0,0,1-.1-.9l-7.77.35a4,4,0,0,0,.1,3.06c.74,1.35,2.75,1.83,3.1,1.93a23,23,0,0,0,6.19.73c5,0,8-1.12,10.27-2.76a7,7,0,0,0,2.76-3.41c.25-.71.69-2.38-.73-3.38a9.77,9.77,0,0,0-3.21-1c-1.15-.2-2.34-.36-3.54-.52-.83-.09-3.63-.35-4.13-.93a.61.61,0,0,1-.09-.64c.31-.87,1.59-1.39,3.19-1.39,1.91,0,2.93.61,3.09,1.35a1.08,1.08,0,0,1,0,.52l7.63-.33a5.64,5.64,0,0,0,.06-1.06,5.1,5.1,0,0,0-.42-1.51c-.88-1.86-3.26-3.12-8.4-3.11Zm-59,11.71a8.52,8.52,0,0,1-1.6,1,9.74,9.74,0,0,1-3.87.94c-1.34,0-1.9-.42-2.06-1a1.11,1.11,0,0,1,0-.74,2,2,0,0,1,.69-.93c.68-.58,1.58-.74,3.13-.87,1.73-.16,3.44-.19,5.15-.29a5.79,5.79,0,0,1-1.48,1.9Zm6.95-11.22a32.83,32.83,0,0,0-6-.49,22.61,22.61,0,0,0-8.67,1.36,9.44,9.44,0,0,0-4.61,4.53h7.29a2.1,2.1,0,0,1,.53-.58c1.1-.84,3.11-1,4.17-1s2.53.09,2.94,1a2,2,0,0,1-.14,1.39c-3,.06-8.91.13-12.14,1a9.34,9.34,0,0,0-3.87,2,7.51,7.51,0,0,0-1.89,2.86c-.94,2.64,0,5.47,5.53,5.47a26.7,26.7,0,0,0,9.21-2.12,6.47,6.47,0,0,0-.3,1.63h7.87c-.41-.57-.59-1,0-2.47l3.18-8.91c.23-.64,1.05-2.57.08-4.08-.8-1.29-2.72-1.58-3.14-1.67Zm-187.28,0a10.94,10.94,0,0,0-5.09,2.83l1-2.7H97.79l-6.08,17h7.55L102,259.2a4.58,4.58,0,0,1,.85-1.57,4.66,4.66,0,0,1,3.24-1.51,10.57,10.57,0,0,1,1.14-.07,14.58,14.58,0,0,1,1.76.13l2.39-6.72a10.61,10.61,0,0,0-1.86.19Zm60.84.12-6.08,17h7.52l6.08-17Zm-45.2,11.13a8.76,8.76,0,0,1-1.6,1,9.85,9.85,0,0,1-3.86.93c-1.36,0-1.91-.42-2.07-1a1.12,1.12,0,0,1,0-.74,2.05,2.05,0,0,1,.68-.93,5.23,5.23,0,0,1,3.14-.87c1.73-.17,3.44-.2,5.14-.29a5.73,5.73,0,0,1-1.47,1.9Zm7-11.22a33.49,33.49,0,0,0-6-.48,22.84,22.84,0,0,0-8.67,1.35,9.45,9.45,0,0,0-4.61,4.54h7.29a2.21,2.21,0,0,1,.53-.57,7.69,7.69,0,0,1,4.17-1c1,0,2.53.1,2.94,1a2,2,0,0,1-.14,1.38c-3,.07-8.91.13-12.15,1a9.58,9.58,0,0,0-3.86,2,7.36,7.36,0,0,0-1.89,2.86c-.94,2.63,0,5.46,5.53,5.46a26.7,26.7,0,0,0,9.21-2.12,6.54,6.54,0,0,0-.3,1.64H132c-.41-.58-.59-1-.05-2.48l3.18-8.91c.23-.64,1-2.57.07-4.08-.79-1.28-2.71-1.57-3.13-1.67Zm21,3.89c1.64,0,3.39.77,3.34,2.44l7.73-.68c0-.32,0-.64-.05-1a4.84,4.84,0,0,0-1.61-3.15c-1.81-1.67-4.79-2.22-7.65-2.22-6.39,0-10.41,2-13,4.41a12.51,12.51,0,0,0-3.36,4.92,6.72,6.72,0,0,0,.14,5.63,5.62,5.62,0,0,0,1.89,1.83c2.61,1.6,6.21,1.57,7.27,1.57a26.73,26.73,0,0,0,5.08-.45,15.51,15.51,0,0,0,8-4.12,14.92,14.92,0,0,0,1.86-2.31l-7.42-.29a5.68,5.68,0,0,1-1.27,1.32,7,7,0,0,1-4.15,1.38c-2.86,0-3.57-1.6-3.65-2.73a4.84,4.84,0,0,1,.31-2,7,7,0,0,1,6.53-4.63Zm26.75-9.46h-7.54l-1.43,4h7.55Zm43,13.4a5.35,5.35,0,0,1-5,3.32c-2.25,0-2.93-1.16-3-2a2.72,2.72,0,0,1,.15-1.22,5.23,5.23,0,0,1,4.85-3.25c1.92-.06,2.82.74,3.1,1.32a2.59,2.59,0,0,1-.05,1.83Zm2.18-6.2a6,6,0,0,0-.9-.71,8.68,8.68,0,0,0-4.69-1.16,14.2,14.2,0,0,0-6.09,1.39,12.73,12.73,0,0,0-6.22,6.91c-1.88,5.27,1.71,7,3.26,7.52a9.66,9.66,0,0,0,2.87.42,17,17,0,0,0,5.79-1c.64-.26,1.21-.58,1.48-.71-.21.58-.39,1.19-.6,1.77a5.41,5.41,0,0,1-.8,1.61c-.82,1.13-2.12,1.9-4.47,1.9a2.74,2.74,0,0,1-2.52-.93,1.73,1.73,0,0,1-.09-1.55h-7.68a6.31,6.31,0,0,0-.07,2.71c.53,2.12,3,4.11,8.59,4.11,4.85,0,8-1.1,10.17-2.41a9.18,9.18,0,0,0,3.79-4.06,11.65,11.65,0,0,0,.74-1.7l5.58-15.63h-7.59Zm-21.3.29a4,4,0,0,0-.92-1,7.64,7.64,0,0,0-4.76-1.15,14,14,0,0,0-6.6,1.57c-.54.26-1.11.58-1.67.9l.77-2.15H183l-6.08,17h7.65l2.93-8.23a5.78,5.78,0,0,1,.68-1.45,5.65,5.65,0,0,1,4.77-2.83c.7,0,2.8.16,2.75,2.38a6.06,6.06,0,0,1-.35,1.71l-3,8.42h7.61l3.19-8.94c.84-2.35,1.19-3.51,1.16-4.6a3.58,3.58,0,0,0-.47-1.67" transform="translate(-91.71 -134.78)"/></g></svg>