<?xml version="1.0" encoding="utf-8"?>
<!-- Generator: Adobe Illustrator 25.2.0, SVG Export Plug-In . SVG Version: 6.00 Build 0)  -->
<svg version="1.1" id="Livello_1" xmlns="http://www.w3.org/2000/svg" xmlns:xlink="http://www.w3.org/1999/xlink" x="0px" y="0px"
	 viewBox="0 0 710 240" style="enable-background:new 0 0 710 240;" xml:space="preserve">
<style type="text/css">
	.st0{fill:none;}
</style>
<g>
	<path d="M284.2,123.5c-7.7-16.6-21.8-17.4-21.8-17.4c16-3.4,22.8-17.2,22.8-26.7c0-12-8-29.6-31.7-29.6h-50.6v12.2h11.6v78h-15
		v12.1h48.3v-12.1H236v-29.6c0,0,0.1,0,0.4-0.1c5.6,0.4,20.9,3.6,29.1,20.4c5.5,11.4,12.6,21.3,32.4,21.3h5l13.3-12.1
		c0,0-11.5,0.1-14.5-0.8C296.6,137.7,288.9,133.6,284.2,123.5z M240.6,62.1c5.2,0,9.3,0.9,12.4,2.6c5.5,3.1,8.3,8,8.3,14.7
		c0,2.7-0.6,5.3-1.7,7.7c-1.3,2.9-3.2,5-5.7,6.5c-3.2,1.9-7.6,2.8-13.3,2.8H236V62.1H240.6z M655,49.9v12.2
		c-2.8,0.1-4.8,0.6-6.2,1.4c-2.4,1.5-5.4,7.3-8.8,17.6l-25.8,71.1H602l-22.2-64.8l-18.4,64.8h-11.9l-33.9-90h-12.3V49.9H531
		l25.7,68.2l18.4-68.2h13.4l24.2,68.7l15.7-44.4c1.6-5,2.4-7.7,2.4-8.3c0-2.5-2-3.7-6-3.7h-2.5V49.9H655z M410,140.1
		c-0.6,0-4-0.1-6.4-0.8c-5.2-1.5-13-5.6-17.6-15.7c-7.7-16.6-21.8-17.4-21.8-17.4c16-3.4,22.8-17.2,22.8-26.7c0-12-8-29.6-31.7-29.6
		h-50.6v12.2h11.6v78h-15v12.1h48.3v-12.1h-11.9v-29.6c0,0,0.1,0,0.4-0.1c5.6,0.4,20.9,3.6,29.1,20.4c5.5,11.4,12.6,21.3,32.4,21.3
		H410V140.1z M361.4,87c-1.3,2.9-3.2,5-5.7,6.5c-3.2,1.9-7.6,2.8-13.3,2.8h-4.5V62.1h4.5c5.2,0,9.3,0.9,12.4,2.6
		c5.5,3.1,8.3,8,8.3,14.7C363.1,82,362.5,84.6,361.4,87z M506.6,79.2c-3.7-8.3-9-15.2-16.1-20.7c-4.6-3.6-9.9-6.4-15.7-8.5
		C469,48,463.2,47,457.6,47c-7.3,0-14.2,1.4-20.9,4.1c-10.1,4.1-18.1,10.5-24,19c-6.5,9.3-9.7,19.8-9.7,31.3
		c0,14.6,5.2,27.1,15.5,37.5c5.1,5.2,11,9.3,17.7,12.1c6.7,2.8,13.7,4.2,20.9,4.2c7.2,0,14.2-1.4,20.9-4.2
		c6.7-2.8,12.7-6.8,17.8-12.1c10.3-10.4,15.4-23,15.4-37.7C511.2,93.5,509.7,86.2,506.6,79.2z M488.6,116.4
		c-2.6,6.9-6.8,12.4-12.7,16.4c-6,4.1-12.3,6.2-18.9,6.2c-4.5,0-9-1-13.5-3.1c-4.5-2-8.3-4.8-11.4-8.4c-6.1-6.8-9.1-15.4-9.1-25.7
		c0-11.9,3.7-21.5,11-29c6.5-6.6,14-9.8,22.7-9.8c9.2,0,17,3.3,23.5,9.8c7.3,7.4,10.9,17.1,10.9,29.1
		C491.1,107.2,490.3,112,488.6,116.4z M60.2,108.9L75.1,123L55,108.9l21-14.2L60.2,108.9z M180.7,115.2l-10.7,0l10.4,24.9h12.4v12.1
		h-49.5v-12.1h11.5l-9.9-24.9l-33.6,0l-6,17.5c-1.2,3.6,1.4,7.4,5.2,7.4h5.6v12.1H75.9v-12.1H78c5.7,0,10.9-3.5,12.9-8.9l6.2-16
		l-19.8,0l5.4,12.3l-18.6-18.6l18.7-17.8l-5.5,11.5l24.5,0l15.3-40.5h-12.9V49.9l38.6,0l22,52.7l16,0l8.6-7.3l11.9,0l-10.5,13.5
		l10.5,13.5l-11.9,0L180.7,115.2z M139.9,102.6l-13.1-32.9l-11.3,32.9L139.9,102.6z"/>
	<path d="M149.9,189.9H184v3.2h-37.7v-18.4h37.5v3.2h-34v4h30.2v3.2h-30.2V189.9z M311.8,181.6h-32.4v-7h-3.5V193h3.5v-8.3h32.4v8.3
		h3.5v-18.4h-3.5V181.6z M536.2,174.6v3.2h18.9V193h3.5v-15.3h17.7v-3.2H536.2z M252.7,174.6h-7.3l-15,6.9l-14.8-6.9l-7.5-0.1
		l18.6,8.7l-20.9,9.7h7.3l17.3-8l17.1,8l7.5,0.1l-20.9-9.7L252.7,174.6z M363,174.6l22,18.4h-5.2l-7.1-5.9h-24.1l-7.1,5.9h-5.2
		l22-18.4H363z M369,183.9l-8.3-6.9l-8.3,6.9H369z M441.9,186.7c0,1.6-1.3,2.9-2.8,2.9h-26.2c-1.6,0-2.9-1.3-2.9-2.9v-12.2h-3.5
		v12.2c0,3.5,2.9,6.4,6.4,6.4H439c3.5,0,6.4-2.9,6.4-6.4v-12.2h-3.5V186.7z M506.1,182.1h-29.7c-0.1,0-0.4,0-0.6-0.1
		c-1-0.2-1.8-1.1-1.8-2.2c0-1.2,1-2.2,2.2-2.2h34.1v-3.1h-34.2c-3,0-5.4,2.4-5.4,5.4c0,3,2.4,5.4,5.4,5.4h29.7c0.2,0,0.4,0,0.5,0
		c1.1,0.1,1.9,1.1,1.9,2.2c0,1.2-1,2.2-2.2,2.2l-34.1,0.1l0,3h34.2c3,0,5.4-2.4,5.4-5.4S509.1,182.1,506.1,182.1z"/>
</g>
<rect class="st0" width="10" height="10"/>
<rect x="700" y="230" class="st0" width="10" height="10"/>
</svg>
