<?xml version="1.0" encoding="utf-8"?>
<!-- Generator: Adobe Illustrator 21.0.2, SVG Export Plug-In . SVG Version: 6.00 Build 0)  -->
<svg version="1.1" id="Calque_1" xmlns="http://www.w3.org/2000/svg" xmlns:xlink="http://www.w3.org/1999/xlink" x="0px" y="0px"
	 viewBox="0 0 410.5 249.7" style="enable-background:new 0 0 410.5 249.7;" xml:space="preserve">
<style type="text/css">
	.st0{fill:#231F20;}
	.st1{fill:#FFFFFF;}
	.st2{fill-rule:evenodd;clip-rule:evenodd;fill:#CBC1BF;stroke:#CBC1BF;stroke-width:2;}
	.st3{fill:url(#SVGID_1_);}
	.st4{fill:url(#SVGID_2_);}
	.st5{fill-rule:evenodd;clip-rule:evenodd;fill:#FFFFFF;}
	.st6{fill-rule:evenodd;clip-rule:evenodd;fill:#231F20;}
	.st7{fill-rule:evenodd;clip-rule:evenodd;fill:none;}
	.st8{fill:none;}
	.st9{fill-rule:evenodd;clip-rule:evenodd;fill:#EB252E;}
</style>
<path class="st0" d="M354.1,195.7c0,0-13.4-20.8-14.2-22.2c-0.1-0.7-0.2-2.2,0-5.4c0,0,0.1-1.3,0.1-1.6c1.6,0,17.7-0.1,17.7-0.1
	c12.6,0,19.3-9.2,19.2-22.9c0,0-0.2-19.1-0.2-19.1c0-2.4-0.3-4.6-0.7-6.6c-1.1-5.2-3.3-9-5.3-11.4c-2.6-3.3-7.4-7.4-15-8.5
	c0,0-29.9-4-37.4-5.1c2.5-1.7,6.2-4.3,6.2-4.3l3-2.1c5.4-3.7,9.5-6.6,14.1-9.1L361,67.1l-25.9-5.2l-31.6-6.3l-2,3.7
	c-0.5,0.9-1.1,1.6-3.2,2.8c0,0-5.6,3.2-10.9,6.1c-1.8-3-3.4-5.8-3.7-6.3c0-0.3,1.3-9.8,1.3-9.8l-11.3-2.6l-102-20.4l23.4,22
	c3.1,2.9,5.3,6.8,7.1,10l0.6,1c0,0,4.4,7.8,9.7,17.2c-3.6-1.1-6.8-1.5-8.5-1.7l-80.6-11.6L0,230.8l353-32.1"/>
<path class="st1" d="M34.6,215c-0.3,1-0.4,1.6-0.4,2.2l-1.5,0.1l0-0.6l0,0c-0.2,0.3-0.3,0.5-0.5,0.6c-0.2,0.1-0.4,0.1-0.8,0.1
	l-4.5,0.3c-1.6,0.1-2-0.4-1.5-2.5l0.4-1.6c0.5-2,1.3-2.7,2.9-2.8l4.8-0.4c0.6,0,0.8-0.3,1.1-1.2l0-0.1c0.2-0.9,0.1-1.1-0.5-1l-5,0.4
	c-0.8,0.1-1.3,0.1-1.8,0.3l0.4-1.2l6.7-0.5c1.6-0.1,2,0.4,1.5,2.5L34.6,215L34.6,215z M34,211.5l-5.4,0.4c-0.6,0-0.8,0.3-1.1,1.2
	l-0.7,2.6c-0.2,0.9-0.2,1.1,0.5,1.1l4.7-0.3c0.6,0,0.8-0.3,1.1-1.2L34,211.5"/>
<path class="st1" d="M46.8,206.3c-0.7,0.7-1.4,1.3-2,2l-3.1,3.1l1.3,2.9c0.3,0.8,0.6,1.4,1.2,2.3l-2.4,0.2c0-0.5-0.1-0.9-0.3-1.2
	l-1.3-2.8l-2.9,3c-0.6,0.6-0.9,0.9-1.2,1.4l-1.7,0.1c1.3-1.1,1.7-1.5,2.6-2.4l2.8-2.8l-1.7-3.7c-0.2-0.4-0.4-0.7-0.7-1.3l2.1-0.2
	c0.1,0.5,0.5,1.5,0.6,1.8l0.9,2l3-3c0.4-0.4,0.7-0.7,1-1.2L46.8,206.3"/>
<path class="st1" d="M47.1,208.4c0.2-1,0.3-1.6,0.4-2.2l1.5-0.1l-0.1,0.9l0,0c0.2-0.7,0.7-0.9,1.4-1l4.3-0.3
	c1.6-0.1,2.1,0.4,1.6,2.5l-1.1,4.9c-0.5,2-1.2,2.7-2.7,2.8l-4.4,0.3c-0.6,0-1-0.1-1-0.6l0,0l-0.6,2.4c-0.2,1-0.3,1.6-0.4,2.2
	l-1.8,0.1c0.3-0.6,0.4-1.2,0.7-2.2L47.1,208.4L47.1,208.4z M47.2,214.2c-0.2,0.9-0.1,1.1,0.5,1.1l4.7-0.3c0.6,0,0.8-0.3,1-1.2l1.4-6
	c0.2-0.9,0.1-1.1-0.5-1.1l-4.6,0.3c-0.6,0-0.8,0.3-1,1.2L47.2,214.2"/>
<polyline class="st1" points="61.2,209.4 60.6,210.9 55.8,211.3 56.6,209.8 61.2,209.4 "/>
<path class="st1" d="M69.4,204.5l-0.4,1.6c-0.3,0-1.2-0.1-2.2-0.1l-1.2,0.1c-0.6,0-0.8,0.3-1,1.2l-1.3,5.6c-0.2,1-0.3,1.6-0.3,2.2
	l-1.8,0.1c0.3-0.6,0.4-1.2,0.7-2.2l1.4-5.9c0.2-1,0.3-1.6,0.3-2.2l1.5-0.1l-0.1,1l0,0c0.2-0.4,0.5-1,1.3-1L69.4,204.5"/>
<path class="st1" d="M77.5,211.9c-0.3,1-0.4,1.6-0.4,2.2l-1.5,0.1l0-0.6l0,0c-0.2,0.3-0.3,0.5-0.5,0.6c-0.2,0.1-0.4,0.1-0.8,0.1
	l-4.5,0.3c-1.6,0.1-2-0.4-1.5-2.5l0.4-1.6c0.5-2,1.3-2.7,2.9-2.8l4.8-0.4c0.6,0,0.8-0.3,1.1-1.2l0-0.1c0.2-0.9,0.1-1.1-0.5-1l-5,0.4
	c-0.8,0.1-1.3,0.1-1.8,0.3l0.4-1.2l6.7-0.5c1.6-0.1,2,0.4,1.5,2.5L77.5,211.9L77.5,211.9z M76.9,208.3l-5.4,0.4
	c-0.6,0-0.8,0.3-1.1,1.2l-0.7,2.6c-0.2,0.9-0.2,1.1,0.5,1.1l4.7-0.3c0.6,0,0.8-0.3,1.1-1.2L76.9,208.3"/>
<path class="st1" d="M80.5,211.7c-0.2,0.9-0.1,1.1,0.5,1.1l4.5-0.3c0.8-0.1,1.3-0.1,1.8-0.3l-0.4,1.2l-6.3,0.5
	c-1.6,0.1-2-0.4-1.5-2.5l1.3-4.9c0.5-2,1.3-2.7,2.9-2.8l6.1-0.5l-0.2,1.2c-0.5-0.1-0.9-0.1-1.7-0.1l-4.3,0.3c-0.6,0-0.8,0.3-1.1,1.2
	L80.5,211.7"/>
<path class="st1" d="M90.1,210.9c-0.2,1-0.2,1.6-0.2,2.2l-1.8,0.1c0.2-0.6,0.4-1.2,0.5-2.2l1-5.9c0.2-1,0.2-1.6,0.2-2.2l1.6-0.1
	L90.1,210.9L90.1,210.9z M90.5,200.2l1.5-0.1l-0.3,1.5l-1.5,0.1L90.5,200.2"/>
<path class="st1" d="M93.8,204.9c0.3-1,0.4-1.6,0.4-2.2l1.7-0.1l-0.2,0.7l0,0c0.2-0.3,0.4-0.5,0.6-0.6c0.2-0.1,0.4-0.2,0.5-0.2
	l4.6-0.3c1.6-0.1,2,0.4,1.5,2.5l-1.4,5.4c-0.3,1-0.4,1.6-0.4,2.2l-1.8,0.1c0.3-0.6,0.5-1.2,0.7-2.2l1.5-5.9c0.2-0.9,0.1-1.1-0.5-1.1
	l-4.8,0.4c-0.6,0-0.8,0.3-1.1,1.2l-1.6,5.9c-0.3,1-0.4,1.6-0.4,2.2l-1.8,0.1c0.3-0.6,0.5-1.2,0.8-2.2L93.8,204.9"/>
<path class="st1" d="M111.6,212.7c-0.5,2-1.2,2.7-2.8,2.8l-6.7,0.5l0.2-1.2c0.5,0.1,0.9,0.1,1.7,0.1l4.9-0.4c0.6,0,0.8-0.3,1-1.2
	l0.6-2.4h0c-0.2,0.3-0.3,0.4-0.5,0.6c-0.2,0.1-0.4,0.2-0.7,0.2l-4.4,0.3c-1.6,0.1-2-0.4-1.5-2.5l1.2-4.9c0.5-2,1.2-2.7,2.8-2.8
	l4.3-0.3c0.7-0.1,1,0.1,1,0.8l0,0l0.3-0.9l1.5-0.1c-0.3,0.6-0.4,1.2-0.7,2.2L111.6,212.7L111.6,212.7z M112.3,203.5
	c0.2-0.9,0.1-1.1-0.5-1.1l-4.6,0.3c-0.6,0-0.8,0.3-1,1.2l-1.4,6c-0.2,0.9-0.1,1.1,0.5,1.1l4.7-0.3c0.6,0,0.8-0.3,1-1.2L112.3,203.5"
	/>
<polyline class="st1" points="116.1,211.1 114.3,211.2 114.8,209.4 116.6,209.2 116.1,211.1 "/>
<path class="st1" d="M121,208.6c-0.2,0.9-0.1,1.1,0.5,1.1l4.5-0.3c0.8-0.1,1.3-0.1,1.8-0.3l-0.4,1.2l-6.3,0.5
	c-1.6,0.1-2-0.4-1.5-2.5l1.3-4.9c0.5-2,1.3-2.7,2.9-2.8l6.1-0.5l-0.2,1.2c-0.5-0.1-0.9-0.1-1.7-0.1l-4.3,0.3c-0.6,0-0.8,0.3-1.1,1.2
	L121,208.6"/>
<path class="st1" d="M138.5,206.8c-0.5,2-1.3,2.7-2.9,2.8l-5.1,0.4c-1.6,0.1-2-0.4-1.5-2.5l1.3-4.9c0.6-2,1.3-2.7,2.9-2.8l5-0.4
	c1.6-0.1,2,0.4,1.5,2.5L138.5,206.8L138.5,206.8z M133,200.8c-0.6,0-0.8,0.3-1.1,1.2l-1.6,6c-0.2,0.9-0.2,1.1,0.5,1.1l4.9-0.4
	c0.6,0,0.8-0.3,1.1-1.2l1.5-6c0.2-0.9,0.2-1.1-0.5-1.1L133,200.8"/>
<path class="st1" d="M144.1,199.1l-0.3,0.7h0c0.2-0.2,0.3-0.4,0.4-0.6c0.2-0.1,0.3-0.2,0.6-0.2l4.7-0.4c1.2-0.1,1.2,0.2,1.1,0.9l0,0
	c0.4-0.8,0.6-1,1.6-1.1l2.9-0.2c2-0.2,2.7,0.4,1.9,2.9l-1.6,4.9c-0.3,1-0.5,1.6-0.5,2.2l-1.8,0.1c0.3-0.6,0.5-1.2,0.9-2.2l1.9-5.9
	c0.3-0.9,0.2-1.1-0.4-1.1l-4,0.3c-0.6,0-0.8,0.3-1.1,1.2l-2,5.9c-0.3,1-0.5,1.6-0.6,2.2l-1.8,0.1c0.3-0.6,0.6-1.2,0.9-2.2l2-5.9
	c0.3-0.9,0.2-1.1-0.4-1.1l-4,0.3c-0.6,0-0.8,0.3-1.2,1.2l-2,5.9c-0.3,1-0.5,1.6-0.6,2.2l-1.9,0.1c0.3-0.6,0.6-1.2,0.9-2.2l2-5.9
	c0.3-1,0.5-1.6,0.6-2.2L144.1,199.1"/>
<path class="st0" d="M279.4,94.7c0,0-1.1,2.4-3.5,7.4l-8.9-13c2.6-4.4,4.4-7.7,5.7-9.9C276.7,84,279,89.1,279.4,94.7z M364.6,217.2
	c-5-14.8-27-49.8-63.2-101.7c0.8-1.5,1-3.6,0.8-6.1c-0.1-1.1-0.5-2.3-0.8-3.5c7.4-13.6,14.1-25.6,19.9-36.8
	c9-17.1,12.1-26.1,11.6-29.1c-0.1-0.5-0.6-1.4-1.7-2.6c-1.9,0-5.7,5.3-11.5,16.6c-3.8,7.5-7.6,15.5-11.6,23.8
	c-5.7,8.8-10.4,15.6-14,20.2l-5.2-8.1l34.8-56.1l-3.5-2c-5.6,7.5-11.7,15.5-18.2,24.5c-10.4,14.2-16.9,24.6-17.6,28.3
	c-3.7-4.2-5.6-8.1-5.9-12.1c-0.1-1.3,1-2.5,3.2-4c3-5.8,7.3-12.4,12.9-19.6c8.1-10.3,12.2-15.7,12.8-16.7l-7.2,0.3l-26.7,34.9
	c-1.9-2.6-8-12.4-18.2-29.4c-7-11.2-13.8-20.3-20.6-27.2c-0.3,0.9-1,1.4-2.6,1.6c0.8,3.6,5.9,13.1,15.6,29
	c8.2,14,14.9,24.4,19.5,31.1l-4.3,9.7c-3.5-3.4-11.8-17.2-24.5-40.8c-11.3-20.7-19.4-31.3-25-32.7l-2.8,0.5l45.5,78.7l-3.8,6.8
	c-15.5-26.3-36-58.2-60.9-94.7l-1.8,6.9l54.6,95.3c-4.7,9.2-11.5,20.5-21.7,34.4c-8.7,12-18.4,25.2-29.4,39.9
	c-19,25.9-31.6,44.8-32.1,50.5l-2.2,22.7c6.3-6.6,11-10.8,14.2-13.2c19.7-36.3,32-57.8,40.8-71.1c6.1-10.2,11.2-17.3,14.8-21.7
	c10.4-15.6,17.1-26,21.5-32.7c2.6,3,4.4,5.9,5.3,8.6c0.1,3.4,0.8,6.5,1.4,9.7c-26.8,39.9-50.7,80.8-58.4,106.7
	c8.7-4.5,21.6-22.8,35.8-48.7c16.1-29.7,24-43.2,27-46.5l6.2,12.6c-14.3,21.8-27.3,48.9-36.9,82.3c8-9.9,16.8-23.3,25.9-38.7
	c10.8-18,17.2-28.3,20.9-33.4c7.4,10.5,14.9,21.3,22.3,32c11.9,16.8,20.3,24.7,24.7,24.2c-1.9-6.9-7.9-19-18.9-36
	c-7.4-11.4-15-22.7-22.5-33.9l5.8-13.9c8.7,14.5,17.5,29.2,26.4,44.1c11.3,18.8,21.9,32,31.5,39l-54.2-91c0.5-3.1,1.5-5.7,3.2-7.8
	c10.6,16.4,21,32.7,31.9,49.3C340.9,189.6,353.3,205.5,364.6,217.2z M291.9,110c0.1,0.7-1.9,3.6-5.7,9l-7.5-12.6
	c2.5-3.7,4.5-6.5,5.9-8.2c1,0.8,2.4,2.8,4.4,5.7c1.9,2.9,2.9,5.1,3,6.3L291.9,110z M271.9,108.2l-7.1,12.5
	c-6.6-7.3-10.1-11.9-10.2-13.6c-0.1-3.7,2.8-7.8,8.2-12.2C268.4,103.1,271.6,107.7,271.9,108.2z M283.1,126.2l-6.6,12.5
	c-1.4-1.4-2.9-3.8-4.5-7.2c-1.5-3.2-2.5-5.5-2.5-6.8c0-0.8,1-2.5,2.7-5.1c1.7-2.6,2.9-4.2,3.6-4.9L283.1,126.2z"/>
<path class="st1" d="M94.7,173l-0.8,1.8c-0.2,0.6-0.7,0.9-2.3,0.9l-7.8,0.2l1.6-3.6l7.7-0.1C94.5,172.1,94.9,172.3,94.7,173z
	 M107.5,172.8c1-2.5-1.4-3.2-6.9-3.2l-28.8,0.3c0.5,0.6,0.5,1.4-0.1,2.5L66.8,183c-0.6,1.2-1.2,2-2.4,2.7l16.3-0.5
	c-0.5-0.6-0.5-1.4,0-2.6l1.9-4.2l4.2-0.1l3.5,6.6l14.7-0.5c-0.5-0.4-0.8-0.7-1.1-1l-3.7-5.4c4.2-0.1,5.6-1.1,6.1-2.4L107.5,172.8z"
	/>
<path class="st1" d="M142.5,177l-9.1,0.2l6.4-4.9L142.5,177z M158.7,182.7c-1.3-0.8-1.7-1.5-2.1-2.2l-6.3-11.5l-13.5,0.2l1,0.8
	L122,181.4c-1.5,1.1-3.1,2-4.4,2.6l9.2-0.3c-0.2-0.3-0.5-0.5-0.3-1c0.1-0.3,0.4-0.7,0.7-0.8l3-2.2l13.5-0.4l0.8,1.4
	c0.3,0.5,0.4,0.9,0.3,1.4c-0.1,0.3-0.5,0.7-1,1L158.7,182.7z"/>
<path class="st1" d="M196,171c-1-0.2-2.4-0.3-3.8-0.3l-7.3,0.1c-1.5,0-2.1,0.3-2.2,0.9l-2,7.3c-0.2,0.6,0.3,0.8,1.8,0.8l7.5-0.2
	c1.4,0,2.9-0.2,4-0.5l-1.5,2.6l-16.4,0.5c-4.7,0.1-6.5-1.2-5.8-3.6l1.8-6.1c0.7-2.3,3.2-3.7,7.9-3.8l15.9-0.2L196,171z"/>
<path class="st1" d="M217.1,170.3l-1.9,8.5c-0.2,1-0.1,1.6,0.3,2.1l-11.1,0.3c0.7-0.6,1.1-1.2,1.3-2.2l2.1-8.6
	c0.2-1,0.2-1.6-0.3-2.1l10.8-0.1C217.6,168.8,217.3,169.4,217.1,170.3z"/>
<path class="st1" d="M252.5,169.8l-1.6,10l-11,0.3l-7.5-10l-0.1,0l-1.6,8.2c-0.2,0.9-0.1,1.5,0.3,2.1l-5.4,0.2
	c0.6-0.6,1-1.2,1.2-2.1l1.7-8.4c0.2-0.9,0.1-1.5-0.3-2l12-0.1l7.3,9.7l0.1,0l1.3-7.8c0.1-0.9,0.1-1.5-0.3-2l4.9-0.1
	C253,168.3,252.7,168.9,252.5,169.8z"/>
<path class="st1" d="M282.8,173.6l-0.4,3.3c-0.1,0.8,0,1.3,0.6,1.9l-6.7,0.2l-0.1-1.1l-0.1,0c-0.4,0.7-0.9,1.1-2.9,1.1l-7.1,0.2
	c-3.6,0.1-5-1.1-4.7-3.1l0.7-5.3c0.3-2,2.1-3.2,5.6-3.3l14.6-0.2l0.3,2.1c-0.8-0.2-1.8-0.3-2.9-0.3l-8.1,0.1c-1.1,0-1.5,0.3-1.6,0.7
	l-0.8,6.3c-0.1,0.5,0.3,0.7,1.4,0.7l2.6-0.1c1,0,1.5-0.3,1.6-0.8l0.3-2.4l-2.9,0.1c-0.6,0-0.9,0.2-1.3,0.2l0.3-2.1l12.6-0.2
	C283.1,172.6,282.9,173,282.8,173.6z"/>
<linearGradient id="SVGID_1_" gradientUnits="userSpaceOnUse" x1="235.0391" y1="178.2314" x2="235.0391" y2="45.6896">
	<stop  offset="0.1939" style="stop-color:#EB252E"/>
	<stop  offset="0.6303" style="stop-color:#F27946"/>
	<stop  offset="0.9939" style="stop-color:#F9A931"/>
</linearGradient>
<path class="st3" d="M359.5,106l-17.9-2c-3.3-0.4-4.5,2-5.9,4.4l-0.9-5.1l-23-2.6c1.5,2.5,1.9,6.9,1.4,11.4l-1.1,9.7l-15.6-25.4
	l24.1-16c7-4.6,12-8.1,17.8-11l-27-4.8c-1.1,2.1-2.6,3.5-5.1,5.1l-18.9,11.5L277,63.8c-1.1-2-1.4-3.4-1-5.6l-70.4-12.5
	c4.9,4.6,7.8,10,9.9,13.5l27.4,47.5l-24.9,14.4l2.8-9.1c4.8-15.9-1.8-21.4-15.6-23l-70-7.8l-10.9,14.9c6.3-1.5,11.4-1.9,17.9-1.3
	l40.9,3.8c3.8,0.4,5.5,1.3,4.3,4.4c-1.2,3-3.2,3.8-7.4,3.5l-38.5-3.1c-17.1-1.4-27.1,3.6-35.1,18.7l-3.6,6.9
	c-9,16.7-3.5,23.4,16.3,23.6l34.8,0.4c9.9,0.1,15.3-1.6,19.3-7.9l0.3,0l-0.9,8.1l39.7,0.4c-0.3-0.6-0.5-1.2-0.7-1.9
	c2.2-3.6,5.8-6.3,10.1-9.1l30.7-19.1l11.2,20.3c1.8,3.1,3.5,5.6,2.5,10.2l42,0.5l-2.7,23.6l28.8-0.9c-1.4-2.7-1.6-6.8-1.3-12.3
	l1-15.6l0.2,0c0.7,3.5,2.3,5.5,5.8,5.6l18.4,0.2c9,0.1,13.1-6.2,13.1-15.1l0-19.2C371.4,113.1,368,107,359.5,106z M177.1,130.6
	c-2.4,6.3-4,8.4-10.7,8.2l-11.5-0.4c-7-0.2-8.3-2-6.4-6.2l3.8-8.6c1.8-4,3.9-5.6,11.3-5.2l17.5,1.1L177.1,130.6z M351.1,117.6
	l-1,23.2c-0.1,2.6-1,3.8-3.3,3.7l-9.2-0.3c-2.2-0.1-3.2-1.4-3-4l1.7-23.8c0.2-2.4,1.1-3.4,3.2-3.2l8.6,0.8
	C350.4,114.1,351.3,115.3,351.1,117.6z"/>
<g>
	<linearGradient id="SVGID_2_" gradientUnits="userSpaceOnUse" x1="381.4114" y1="133.8794" x2="381.4114" y2="71.2446">
		<stop  offset="0.1939" style="stop-color:#EB252E"/>
		<stop  offset="0.6303" style="stop-color:#F27946"/>
		<stop  offset="0.9939" style="stop-color:#F9A931"/>
	</linearGradient>
	<path class="st4" d="M407,104.3c4.4,16.4-2.4,30.4-17,29.5c-15.3-0.9-31.4-17.5-34.9-36.1c-3.4-17.9,6.6-28.7,20.5-26.1
		C389.1,74.1,402.8,88.4,407,104.3z"/>
	<path class="st0" d="M391.3,136.1c-0.5,0-0.9,0-1.4,0c-16.3-1-33.2-18.3-36.9-37.9c-1.7-9.2-0.2-17.2,4.3-22.6
		c4.4-5.3,11.3-7.5,18.8-6.1c14.3,2.7,28.5,17.4,33,34.3c2.7,10,1.5,19.2-3.2,25.4C402.4,133.7,397.4,136.1,391.3,136.1z
		 M371.7,73.4c-4.5,0-8.4,1.7-11,4.9c-3.6,4.4-4.8,11.1-3.3,19c3.3,17.4,18.6,33.5,32.8,34.3c5.2,0.3,9.5-1.5,12.3-5.2
		c3.8-5,4.7-13.1,2.5-21.6c-4-15.1-17-28.8-29.6-31.1C374.1,73.5,372.8,73.4,371.7,73.4z"/>
</g>
<path class="st5" d="M407.9,107.8c0.3-0.6,0.3-1.4,0.1-2.3c-0.2-0.7-0.6-1.5-1.1-2.1l0,0c-0.4-0.5-1.2-1.2-2-1.7
	c-0.4-0.6-1.3-1.9-2.6-3.3c-1.1-1.1-2.5-1.6-2.9-1.7c-1-1.9-2.6-2.2-3.1-2.2c-0.4-0.1-0.6-0.2-0.7-0.3c-0.1-0.7-0.2-1.3-0.3-1.9
	c-0.6-2.5-1.8-4-2.5-4.8c0.2,0.1,0.6,0.2,0.6,0.2l-0.1-0.3c-0.2-0.4-0.6-0.8-1.4-1.4c0.1-0.2,0.3-1.1,0.3-1.4
	c0.1,0.1,0.4,0.3,0.4,0.3l0.1-0.1c0-0.1,0.6-1.6-0.2-3.6c0-0.1-0.1-0.2-0.1-0.3l0.6,0.9l-0.1-0.6c0,0,0-0.1,0-0.2l0,0l0-0.1
	c0-0.1,0-0.2-0.1-0.3c-0.2-0.8-0.8-2.5-2.4-3.7c0-0.2,0.1-0.5,0.1-0.5l-0.1-0.1c-0.1-0.1-2.5-2-4.9-1.2c-0.9,0.3-1.2,0.7-1.4,1.1
	c-0.2,0.4-0.4,0.8-1.9,0.9l-0.2-0.2c-1.6-1.1-3.7-1.3-4.5-1.3c0.1-0.3,0.2-1.1,0.2-1.1l-0.4,0.2c0,0-1.7,0.6-2.1,0.8
	c-0.1-0.3-0.2-0.8-0.2-0.8l-0.4-0.1c0,0-0.1,1-1.8,1c-1.8,0-3.8,1.3-3.9,1.4c0,0-0.9,0.8-2.6-0.6c-1.8-1.6-4.9-2.9-5-2.9l-0.8-0.3
	c0,0,0.9,0.9,1.1,1.1c-1.2-0.2-3.1-0.5-3.4-0.1l-0.1,0.2c0,0,0.5,0.3,0.7,0.3c-1.6,0.2-5.7,1.2-4.5,7.4c0,0.2,0.1,0.4,0.1,0.6
	l0.1,0.3c0,0,0.6-0.2,0.8-0.3c0,0.2,0.1,0.4,0.1,0.7c0.4,1.9,1.6,5.8,5.7,7.6c-0.1,1.8-0.6,8.6-2.6,10.7l0.3,0.4
	c0,0,0.4,1.4,0.8,2.6c0.5,1.2,1.5,4.1,3.1,6.5c1.6,2.5,4.4,6.8,8.2,10.4c3.7,3.5,9.8,7.5,15.2,8.5c7.5,1.4,11.2-1.1,11.2-1.1
	c1.8-0.7,2.3-1.4,2.3-1.4c1,0.5,1.5,0.5,1.6,0.5l0.1,0c0,0,0-0.4,0-0.4c0.2,0,0.4,0,0.4,0l0.9,0c0.5,0,1.3-0.7,2.5-2
	c1.1-0.8,1.3-2,1.2-2.8c0,0,0.2,0.3,0.2,0.3l0.1-0.2c0.6-0.9,0.4-2.3,0.2-3.1c0-0.1,0-0.1-0.1-0.2c0.3,0.2,1.1,0.5,1.1,0.5l0-0.2
	c0-0.2-0.1-0.4-0.1-0.6c-0.4-1.4-1.5-2.8-2.1-3.4c0.9-0.2,2.8-1.2,2.8-4.3c0-0.8-0.1-1.7-0.4-2.7C408.1,108.7,408,108.3,407.9,107.8
	C407.8,107.8,407.9,107.8,407.9,107.8z"/>
<path class="st6" d="M405.1,116.3c0.1,0,0.1,0,0.1,0l-0.1-0.2c0,0-0.4,0.2-0.8,0.3c-0.1,0-0.2,0.1-0.4,0.1c0.1-0.2,0.3-0.4,0.3-0.4
	l-0.1-0.2c0,0-1,0.7-1.7,0.6c0,0-0.3,0.1-0.6,0.1c0.2-0.2,0.4-0.4,0.4-0.4L402,116c0,0-0.5,0.2-1.5,0.1c0,0-0.6-0.1-1-0.1
	c0.2-0.1,0.4-0.1,0.4-0.1l-0.1-0.2c0,0-1.1-0.1-2.1-0.6l-1.9-0.9c0,0-0.2-0.1-0.3-0.1c0.2,0,0.4,0,0.4,0l0-0.2c0,0-0.9-0.9-1.4-1.1
	c-0.3-0.1-0.6-0.2-0.9-0.2c0.1,0,0.2-0.1,0.2-0.1l0-0.2c0,0-0.3-0.4-1.1-0.8l-0.6-0.4c-0.6-0.4-1.3-0.9-2-1
	c-0.8-0.2-1.4-0.1-1.8,0.2c-0.1,0.1-0.2,0.1-0.2,0.1c0,0,0-0.1,0-0.1c0-0.2,0-0.8,0.4-1.3c0,0,0.3-0.5,0.3-0.5
	c0.2-0.3,0.3-0.4,0.3-0.5c0,0,0-0.1,0-0.1c-0.1-0.1-0.2-0.1-0.5,0.2l-0.6,0.4c-0.5,0.3-0.7,0.5-1,1.3l-0.1,0.4
	c-0.2,0.7-0.5,1.5-0.1,3.2c0.2,0.6,0.4,1.4,0.8,2.3c0.1,0.2,1.6,4,3.1,5.2l0.7,0.6c0,0,0,0,0.1,0c0,0,0,0,0,0l0,0
	c0.1,0.1,0.1,0.1,0.2,0c0-0.1,0-0.2-0.1-0.2c-0.1-0.1-0.4-0.5-0.7-0.9c0,0-0.6-0.8-0.6-0.8c-0.4-0.6-0.9-1.3-1.5-2.7
	c-0.5-1.2-0.7-1.7-0.7-1.9c0,0.1,0.1,0.2,0.2,0.3l0.6,1c1,1.7,2.4,4.4,3.3,4.3c1,0,1.3-0.4,1.8-0.9l0.1-0.1c0.5-0.7,2.4-2,3.1-2.2
	l2.4-0.3c0,0,0.4,0,0.8,0.1c-0.1,0.1-0.2,0.2-0.2,0.2l0.1,0.2c0,0,1.4,0.1,2.6-0.2c0,0,0,0,0,0l0.1,0.2c0.1,0,1.7,0,2.8-0.5l0-0.2
	L405.1,116.3z"/>
<path class="st6" d="M387.6,80c0.7-0.6,1.8-0.7,1.9-0.7l-0.1-0.2c-0.1,0-1.3-0.3-2.1,0.2l-1.8,1.4l0,0c0,0,0.3,0.6,0.4,0.6
	c0.1,0.1,0.3,0.4,0.3,0.3c0.1-0.4,1.1-0.4,1.6-0.4l-0.1-0.2c0,0-0.4-0.1-0.7-0.1c0.6-0.3,1.8-0.4,1.8-0.4l0-0.2
	C388.4,80,387.9,80,387.6,80z"/>
<path class="st7" d="M399,97c0,0-0.2-0.2-0.8-0.2c-0.6,0-0.8,0.4-0.8,0.4l0,0l-0.1,0.3l0,0c0,0,0.4-0.3,0.7-0.3
	c0.7-0.1,1.4,0.2,1.4,0.2l0,0L399,97L399,97z"/>
<path class="st5" d="M398.3,115.8c-0.3-0.1-3.2-1.4-4-2l0,0l0.8-0.2l0,0c0,0-1.7-0.9-3-1.1l0,0l1-0.4l0,0c0,0-2.1-1.5-2.7-1.7
	c-0.6-0.1-2.6,0-2.6,0.6c0,0.7,0.4,2.6,1.3,4.3c0.9,1.7,2.5,4.1,2.9,4.2c0.4,0.1,1.1-0.1,1.8-0.9c0.7-0.8,2.4-2.3,3.7-2.3l0,0
	l1.4-0.1l-0.9-0.3L398.3,115.8L398.3,115.8z"/>
<path class="st7" d="M387.8,112.1c0,0,0.6,1.4,2.4,3.5c0,0-0.4,0.4-0.4,1.3c0,0.3-0.2-0.2-0.6-0.7c0,0-1.1-1.8-1.5-3.8
	C387.6,111.4,387.8,112.1,387.8,112.1L387.8,112.1z"/>
<path class="st0" d="M390.1,77.1l0.1-0.5c0,0-2.4-1.9-4.7-1.1c-2.3,0.8-0.2,1.9-4.5,2.1c0,0,2.9,0.4,3.5-0.5c0.6-0.9,1.6-1.7,3.4-1
	c1.8,0.8,1.8,0.8,1.8,0.8l-0.4,0.2c0,0,1.9,0.6,2.9,3.6l-0.1,0c0.2,0.3,0.5,0.7,0.5,0.7S392.4,78.7,390.1,77.1z"/>
<path class="st8" d="M392,80.4l0.2,0.1C392.1,80.4,392,80.3,392,80.4z"/>
<path class="st7" d="M394,118.4C394,118.3,394,118.3,394,118.4C394,118.3,394,118.3,394,118.4C394,118.3,394,118.3,394,118.4z"/>
<path class="st6" d="M364,81.4c0.7,0.2,1.6,1,1.9,1.3c-0.4,0-0.9,0.1-0.9,0.1l0.1,0.2c0.3-0.1,0.6,0.1,0.8,0.2
	c-0.9,0.3-1.3,1.3-1.3,1.4l0.2,0.2c0.2-0.1,0.4-0.1,0.6-0.1c-0.4,0.3-0.6,0.8-0.6,0.9l0.2,0.2c0.3-0.1,0.7-0.1,1-0.1
	c-0.6,0.6-0.7,1.5-0.7,1.6l0.2,0.1c0.2-0.3,1-0.4,1.4-0.5c0,0.2,0,0.5,0,0.7c0.1,0.4,0.2,0.7,0.2,0.7l0.2,0.1c0,0,0.1-0.2,0.3-0.3
	c0,0,0,0.1,0,0.1c0.2,0.9,0.7,1.9,0.7,1.9l0.2,0l-0.3-1c-0.2-0.4-0.1-0.7-0.1-0.9l0-0.3l0-0.5c0-0.4,0-0.6-0.1-0.7l-0.1-0.1l-0.1,0
	c-0.1,0-0.4,0.2-0.5,0.4c0.1-0.3,0.2-0.7,0.3-0.9l-0.2-0.2c0,0-0.6,0.1-1,0.2c0.3-0.3,0.9-0.5,1.2-0.6l0-0.2c-0.4-0.2-1-0.3-1.4-0.3
	c0.6-0.3,1.4-0.2,1.4-0.2l0-0.2c-0.3-0.3-0.9-0.4-1.3-0.5c0.3-0.1,0.6,0,0.9,0l0.3,0c0.2,0.1,0.6,0.5,0.9,0.9
	c0.2,0.3,0.4,0.5,0.5,0.5c0,0,0.1,0,0.1-0.1c0.1-0.1-0.1-0.4-0.4-1.1l-0.2-0.6c-0.5-1-1.3-2.1-1.3-2.1l-0.2,0.1c0,0,0.1,0.3,0.2,0.5
	c-0.3-0.4-0.7-0.8-1-1.1c-0.5-0.5-1.6-1.3-1.7-1.3c-1-0.9-2.5-0.9-2.5-0.9l0,0.2c0,0,0.2,0.1,0.3,0.2c-0.8-0.1-1.4,0.1-1.5,0.1
	c-0.7,0-1.5,0.7-1.6,0.7l0.1,0.2c0,0,0.1,0,0.2,0c-0.5,0.4-0.8,0.9-0.8,0.9l0.2,0.2c0,0,0,0,0.1,0c-0.3,0.6-0.4,1.4-0.4,1.5l0.2,0.1
	c0.1-0.8,0.8-1.5,1.9-2.2c0.7-0.4,1.5-0.4,1.8-0.3c-0.4,0.2-1.1,0.8-1.2,0.8l0.1,0.2C362.6,81,364,81.4,364,81.4z"/>
<path class="st7" d="M406.4,114.3c0,0,0,0.1,0,0.1C406.3,114.4,406.3,114.3,406.4,114.3z"/>
<path class="st6" d="M406.7,103.5c-0.4-0.5-1.2-1.2-2-1.6c-0.4-0.7-1.3-1.9-2.6-3.3c-1.2-1.3-2.9-1.7-2.9-1.7
	c-0.9-1.8-2.3-2.1-3-2.2c-0.7-0.1-0.9-0.4-0.9-0.4c-0.6-5.1-3.4-7.1-3.4-7.1l1,0.3c-0.2-0.4-0.7-0.8-1.4-1.3l0.4-1.7l0.4,0.4
	c0,0,0.6-1.5-0.2-3.5c-0.2-0.5-0.3-0.8-0.2-0.9l-0.6-0.4c0,0,1.2,2.1,0.8,4.3l-0.4-0.8l-0.7,2.3c-0.5-0.4-1.1-0.7-1.5-1
	c-1.2-0.8-2.1-2.5-4.4-4.6c-2.3-2.1-4.5-2.5-4.5-2.8c0-0.3,1.3-0.1,1.3-0.1c-1.9-1.3-4.7-1.3-4.7-1.3l0.2-1l-2.3,0.9l-0.3-1.1
	c0,0-0.1,1.1-1.9,1.1c-1.8,0-3.9,1.4-3.9,1.4s-1,0.9-2.8-0.6c-1.8-1.6-5-2.9-5-2.9l0.9,0.9c0,0-3.5-0.7-3.7-0.3l1.1,0.6
	c0,0-6.8-0.3-4.9,7.9l0.9-0.3c0,0,0.3,6.2,5.8,8.5c-0.1,1.7-0.6,8.9-2.7,11l0.9-0.4l-0.2,2l0.9-2.8c0,0,2.3-6.4,1.1-10.1
	c0,0,0,0.1,0,0.3c-0.7-0.5-5.5-3.9-5.4-9.1l-1.1,0.1c0,0-1.5-6,4.9-6.7l0.4,0.1l-0.2-0.5l2.9,0.3l0.1-0.3c0,0,3.2,3.5,5.9,3.5
	c0,0,4-2.5,5.4-2.1c1.5,0.3,1.8,0.2,1.8,0.2l0.6-0.3l0.5,0.4c0,0,2,0.1,2.3,0.3c0.3,0.3,0.3,0.6,0.3,0.6s3.7,1.6,4.6,2.6
	c1,1,4.3,4.8,5.3,5.4c1,0.5,1.9,1.3,1.9,1.3l0,0.5c0,0,2.2,1.7,3,5.1c-0.1,0.8-0.5,1.4-1,1.8c0.2-0.6,0.1-1.5,0.1-1.5
	c0.1,0.6-0.6,1.1-1,1.5c-0.2,0-0.4-0.1-0.5-0.2c0-0.1,0-0.1,0-0.2c-0.1-0.3-0.3-0.8-0.6-1.4c-0.3-0.4-0.5-0.8-0.7-1
	c0.1,0.1,0.2,0.1,0.2,0.1l0.1-0.1c-0.1-0.1-2.2-2.9-2.9-3.2l0,0.2c0,0,1.1,1.2,1.6,1.9c-0.2-0.1-0.4-0.2-0.4-0.2l0,0.2
	c0,0,0.7,0.7,1.7,2.1c-0.3-0.2-0.5-0.5-0.5-0.5l-0.1,0.1c0,0,0.8,0.9,0.9,1.4c0,0,0,0,0,0c0.2,0.7-0.2,1.9-1.4,2.1
	c-1.2,0.1-1.4,0.1-2.6-0.3l-0.3-0.1c-1.5-0.4-2.7-0.9-3.4-1.5c0,0-1.3-1-2-1.6c0.2,0.1,0.4,0.2,0.4,0.2l0-0.2
	c-0.1-0.1-1.5-1.7-2.6-2.1c-0.5-0.2-1-0.4-1.4-0.6c0.3,0,0.6,0,0.6,0l0-0.2c-0.1-0.1-2.9-1.8-4.9-2.1l0,0.2c0,0,1.6,0.7,2.3,1.2
	c0,0,0.3,0.3,0.6,0.4c-0.1,0-0.3,0.1-0.3,0.1l0,0.2c0,0,0.9,0.8,1.3,1.2c0,0,0.1,0.1,0.1,0.1c0.1,0.2,0,0.6-0.1,1
	c-0.1,0.3-0.1,0.7-0.1,1.1c0,0.7,0,1.6,0.2,2.3c0.1,0.3,0.1,0.5,0.2,0.8l0.2,0c0,0-0.4-2.6,0-3.5c0.1-0.2,0.2-0.3,0.2-0.3
	c0,0,0,0,0,0c0,0.2,0,0.7,0,0.9l0,0.1c0,0,0,0.1,0,0.1c-0.1,0.5,0,1.1,0.1,1.7c0.2,1.1,0.8,2.3,1.5,3.6c0,0.1,0.8,1.4,1.9,1.9
	c0,0,0,0,0,0c0,0,0,0.1,0,0.2c0,0.1-0.2,0.3-0.6,0.4c-0.6,0.1-1.5,0-2.4-1l-0.1,0.1c0,0,0.9,1.7,2.4,1.6c0.8-0.1,1.3-0.4,1.5-0.5
	c0,0,0.1,0,0.1-0.1c0,0.3-0.6,1.7-2,1.9l0,0.2c0,0,1.1,0.5,2.4-1.2c0,0,1.4-1.3,2-1.5c0.6-0.3,0.8-0.5,1.2-1.1
	c0.3-0.5,1.1-1.1,2-1.4c0.4-0.1,0.7-0.3,1.1-0.5c0.5-0.3,1-0.6,1.5-0.6l0.6,0c0.3,0,0.5,0,0.7,0c0,0,0.5,0.2,0.5,0.2
	c0.3,0.1,0.3,0.2,0.4,0.1c0,0,0,0,0-0.1c0-0.1-0.1-0.2-0.5-0.4c-0.4-0.3-0.7-0.4-0.9-0.5c0.2-0.1,0.4-0.2,0.5-0.6
	c0.1-0.1,0.4-0.2,0.7-0.3c-0.1,0.2-0.3,0.3-0.4,0.3c1.9-0.4,3.7,0.1,3.7,0.1c0.4-0.5,2.6,1.6,2.3,1.6c-1.5,0.2-1.9,0.9-1.9,0.9
	s3.5-1.9,6.4,2.6c0.3,0.4,0.5,0.8,0.8,1.2c-0.3-0.1-0.5-0.2-0.8-0.2c-1.8-0.1-1.8,1-2.3,1.3c-0.5,0.3-1.7,1-1.9,2.4
	c-0.1,1.3,1.1,2.5,1.7,2.8l0.4-0.7c0.2-0.4,1.6-0.1,2.4-0.1c1.3,0.1,1.8,1.1,1.8,1.1s-0.9-0.7-1.7-0.4c-0.3,0.1-1,0.6-1.6,0.9
	c0.3,0.2,0.5,0.5,0.7,0.8c0.6,0.9,1.5,1.8,2.5,2c0.2,0,0.5,0.1,0.6,0c0.2,1,0.5,2.4,0.4,2.9c0.1-0.4,0.4-1.9,0.2-3.2
	c0.2-0.2,0.2-0.4,0.3-0.6c0-0.4,0.2-1.2,0.5-2c0.2,0.8,0.4,1.6,0.6,2.4c0.7,3.3-2.1,4.9-2.6,5.1c0,0-0.1-0.1-0.1-0.1
	c0,0,0,0,0.1,0.1c0,0,0,0,0,0s0,0,0,0c2,2.5,2.1,3.5,2.1,3.5l-1-0.5c0.7,1.7,0.1,3.1,0.1,3.1l-0.7-0.7c0.3,1.8,0.1,2.9-0.3,3.6
	l-1.8,1.2l-0.5,0.2c-0.3,0.2-1.6-0.7-1.6-0.7l0,0.2c0,0,0.1,0.1,0.1,0.2c-0.4-0.1-1.3-0.3-1.3-0.3l0,0.2c0,0,0.1,0.2,0.2,0.3
	c-0.4-0.2-1.2-0.5-1.6-0.8c-0.6-0.4-1.5-0.5-1.5-0.5l0,0.2c0,0,0.2,0.1,0.4,0.3c-1-0.2-2.8-0.7-3.2-1c-0.5-0.5-1.2-0.6-1.2-0.6
	l0,0.2c0,0,0.1,0.1,0.1,0.1c-0.5-0.3-1.5-0.7-1.9-1.1c-0.6-0.6-1.5-0.8-1.5-0.9l0,0.2c0,0,0.2,0.1,0.3,0.3c-0.1,0-0.2,0-0.3,0
	c-0.4,0-0.8-0.1-1.1-0.2c-0.6-0.4-1.8-0.2-1.9-0.2l0,0.2c0,0,0.2,0.1,0.4,0.3c-0.5,0-1.5-0.1-1.9-0.4c-0.6-0.4-2.1-0.4-2.1-0.4
	l0,0.2c0,0,0.3,0.2,0.5,0.4c-0.5-0.1-1.6-0.3-2.3-0.7c-1-0.5-2.8-2.3-2.9-2.4l-0.1,0.1c0,0,0.4,0.6,0.8,1.2c-0.3-0.3-2-1.9-2-1.9
	l-2.1-2l-0.1,0.1c0.2,0.3,0.4,0.7,0.6,1c-0.2-0.3-0.5-0.6-0.5-0.6l-1.5-2c-0.6-0.9-1.4-1.5-1.4-1.5l-0.1,0.1c0,0,0.2,0.4,0.4,0.7
	c-0.3-0.3-0.6-0.6-1-1c-0.6-0.8-1.3-2.6-1.3-2.7l-0.2,0c0,0.2,0.1,1,0.2,1.6c-0.2-0.4-0.4-1-0.6-1.5c-0.1-0.4-0.3-0.9-0.4-1.4
	c-0.2-0.8-0.3-1.6-0.3-1.6l-0.2-0.1c0,0.8,0,1.6-0.1,2c0,0,0-0.1,0-0.1c-0.2-1.2-0.5-4.1-0.5-4.1l-0.2-0.1c0,0-0.2,0.6-0.3,1.2
	c0-2,0.4-4.1,0.4-4.1l-0.2-0.2c-0.2,0.3-0.6,1.5-0.8,2.3c0-0.4,0-0.8-0.1-1l0-0.2c0.1-0.6,0.6-1.9,0.9-2.7l-0.2-0.2
	c-0.2,0.4-0.5,0.7-0.7,1c0-0.1,0.5-1.4,0.5-1.4c0.1-0.4,0.7-1.4,0.7-1.4l-0.2-0.2c0,0-0.5,0.5-0.9,0.8c0.1-0.4,0.3-0.9,0.4-1.2
	c0,0,0.1-0.1,0.1-0.1c0.3-0.4,0.8-1,1-2.5l-0.2-0.1c0,0-0.6,1.1-0.7,1.5c-0.1,0.3-0.4,0.6-0.7,0.9l-0.5,0.5
	c-0.3,0.6-0.6,2.6-0.6,2.7c0,0,0.3,0,0.5-0.1c-0.3,1.1-0.3,2.6-0.3,2.7l0.2,0.1c0,0,0.1-0.1,0.1-0.2c-0.1,1.2,0.2,2.8,0.3,3.4
	c0,0.1,0,0.2,0.1,0.2l0.2,0.1c0,0,0-0.2,0.1-0.3c0,0.2,0.1,0.5,0.1,0.7c0.2,0.8,0.4,1.5,0.4,1.5l0.2,0.1c0,0,0-0.2,0.1-0.3
	c0,0,0,0.1,0,0.1c0.4,1.7,1.1,3,1.1,3l0.2,0c0,0,0-0.2,0-0.4c0.6,1.7,2,3.3,2,3.4l0.2,0c0,0,0-0.3-0.1-0.6c0.7,1.1,2.3,2.7,2.4,2.8
	l0.1-0.1c0,0-0.1-0.1-0.1-0.2c0.6,0.8,2,2.5,2,2.5c0.7,0.9,2,1.8,2.1,1.9l0.1-0.1c0,0-0.1-0.2-0.2-0.5c1,1,2.8,2,2.9,2
	c0.9,0.6,2.1,1.1,2.1,1.1l0.1-0.2c0,0-0.2-0.3-0.3-0.6c1.2,0.6,4,0.8,5.6,1l0.8,0.1c0.9,0.1,3.6,0.9,4.4,1.3
	c0.8,0.5,1.9,0.9,1.9,0.9l0-0.2c0,0-0.2-0.2-0.5-0.4c0.5,0.2,1.1,0.4,1.8,0.5c0.8,0.2,1.7,0.5,2.2,0.7c1,0.6,2,0.8,2.1,0.8l0-0.2
	c0,0-0.1-0.1-0.2-0.2c0.2,0,0.5,0,0.7,0l0.9,0c0.6,0,1.8-1.2,2.4-1.9c1.6-1.1,1.1-3.2,1.1-3.2l0.4,0.6c0.9-1.2,0-3.5,0-3.5l1.1,0.6
	c-0.1-1.8-2-3.7-2.4-4.1c0.5,0,3-0.7,3.1-4.2c0-1.2-0.3-2.7-0.8-4c0,0,0-0.1,0-0.1C408.2,106.5,407.7,104.8,406.7,103.5z
	 M384.7,99.6c-2.8,1.1-5.1-3.4-5.3-5c-0.2-1.4,0-3.5,0-3.5l1,0.2l-0.4,0.3l2.2,1.6l-0.6,0c0,0,0.7,0.4,1.7,1c-0.2,0.7-0.6,2.8,1.8,5
	C384.8,99.4,384.7,99.6,384.7,99.6z M387.7,96.9c-0.4,0.1-1.7,1.4-2.4,2.1c-2.5-2.2-1.8-4-1.5-4.5c0.2,0.1,0.4,0.3,0.7,0.4
	c1.5,0.8,4.1,1.3,4.9,1.3C389.3,96.1,388.3,96.7,387.7,96.9z M394.6,92.3c0.2,0.9,0.1,1.5,0,1.8c-0.2,0-0.4,0.1-0.6,0.1
	C394.6,93.7,394.6,92.7,394.6,92.3C394.6,92.3,394.6,92.3,394.6,92.3z"/>
<path class="st7" d="M384.7,99.6c-2.8,1.1-5.1-3.4-5.3-5c-0.2-1.4,0-3.5,0-3.5l1,0.2l-0.4,0.3l2.2,1.6l-0.6,0c0,0,0.7,0.4,1.7,1
	c-0.2,0.7-0.6,2.8,1.8,5C384.9,99.4,384.7,99.6,384.7,99.6z"/>
<path class="st9" d="M387.7,96.9c-0.4,0.1-1.7,1.4-2.4,2.1c-2.5-2.2-1.8-4-1.5-4.5c0.2,0.1,0.4,0.3,0.7,0.4c1.5,0.8,4.1,1.3,4.9,1.3
	C389.3,96.1,388.3,96.7,387.7,96.9z"/>
<path class="st6" d="M386,98.2c0,0-1.3-0.6-1.1-1.7c0.2-1.2,0.8-0.9,1.5-0.6c0.7,0.4,0.7,1.3,0.7,1.3L386,98.2z"/>
<path class="st5" d="M386.8,96.6c0,0.1-0.1,0.3-0.2,0.2c-0.2,0-0.3-0.2-0.3-0.3c0-0.1,0.1-0.3,0.2-0.2
	C386.6,96.3,386.8,96.5,386.8,96.6z"/>
<path class="st6" d="M398.1,115.5l-0.3-0.1c-0.6,1.2-1.4,0.8-1.6,0.7c0-0.3,0-0.7-0.1-1.4c-0.1-0.1-0.3-0.3-0.3-0.3l-0.1,0.1
	c0,0.5,0.1,1.7-0.2,2l-0.1,0c0,0,0,0-0.1,0c-0.6-0.3-1.1-1-1.9-3.7c0-0.1-0.1-0.2-0.2-0.3c-0.1,0-0.2,0.1-0.2,0.3l0,0l0,0
	c0.1,0.2,1.1,2.7,1.1,2.7l-0.1,0.2c-0.4,0.2-0.8,0.1-1.2-0.2c-1.6-1.1-3.1-5.1-3.2-5.1l-0.2-0.1l-0.2,0.1c1,3.1,2.4,4.6,2.7,5
	c-0.8,0.7-2.4-0.5-2.5-0.6c-0.6-0.5-1.7-2.5-1.7-2.5l-0.2,0l0,1.9c1.2,1.9,1.9,2.8,2.1,2.8l0.1,0l0-0.1c0-0.4,0.3-1.2,0.3-1.2
	c0.9,0.6,1.4,0.6,1.7,0.5c-0.5,1-0.4,3.2-0.4,3.3l0,0.1l0.4,0.2l0.1-0.1c-0.3-1.9,0.5-3.6,0.6-3.8c0.5,0.5,0.9,0.5,1.1,0.5
	c-0.2,0.8,0.1,2.1,0.1,2.2l0,0.1l0.1,0c0,0,0.2,0,0.2-0.1c0,0,0-0.1,0-0.3c-0.1-0.2-0.1-0.9-0.1-1.4c0-0.3,0.1-0.4,0.1-0.5
	c0.1-0.1,0.1-0.2,0.1-0.3c0,0,0-0.1,0-0.1c0.2,0.4,0.4,0.6,0.6,0.8c0.7,0.5,0.8,0.4,0.9,0.2c0.1-0.1,0.2-0.2,0.2-0.4
	c0.2,0.1,0.4,0.2,0.8,0.3c0.9,0.1,1.3-1.1,1.3-1.1L398.1,115.5z"/>
</svg>
