<svg id="Layer_1" data-name="Layer 1" xmlns="http://www.w3.org/2000/svg" viewBox="0 0 638 221.91"><defs><style>.cls-1{fill:#c60a1b;}.cls-2{fill:#fff;}</style></defs><title>BBS Logo Vector</title><path class="cls-1" d="M711.86,389.05c-39.4.63-71.16,8.42-91.5,35.41-20.71-30.08-28.65-30.64-50.64-30.64L442.51,394a10.69,10.69,0,0,0-9.44,7.19s-6.61,19.28-8.38,25.6l-6.43-8.46c-15-20.64-23.61-24.85-41.16-24.21H246.88c-7.52-.27-10.72,4.4-13.12,12.63-17.71,54.81-50.27,152.1-50.3,152.25-2.11,6.24-4.66,12.44.9,17.52L213,602.42a8.28,8.28,0,0,0,7.25,3.38l136,.27c11.69,0,26.32-4.81,34.21-13.87,6.43,6.65,12.63,14.13,20.11,13.57H554.87c22.56,0,37.86-18.8,42.56-31.24,21.16,34.81,61,36.42,111.24,36.42,106.57-3.34,113-94.2,78.41-120.29h18.39c11.27,0,13.49-26.32,13.53-35.75-2.93-38.23-30.07-65.38-90.22-65.56h-17Z" transform="translate(-181 -389.05)"/><path class="cls-2" d="M717.27,398.18c33.27,0,57.48,4.17,66.39,17,4,5.79,8.2,13.34,4.06,31.24-1,3.76-1.58,9.21-8.27,9.21H751.86c-4.14-.26-4.1-2-2.63-5.64,3.12-11.84-.68-20.37-36.81-20.37-15.52,0-47,.56-54,20.52-3.42,15.56,7.52,14.66,27.71,16.24,27.93,1.81,56.8,1.47,73.42,8,7.14,3.76,18.23,12.18,15.34,35.67-2.49,24.29-9,32.22-16.62,41.65-25.94,25.94-61.24,21.77-93,21.77-14.62,0-47.14,3-66.76-15.49-11.54-12-2.33-36.24-1.35-38.53a5.06,5.06,0,0,1,5.78-3.76h31.36c2.21,0,3.76-.26,1.5,4.85a10.57,10.57,0,0,0,4.43,14.27,11.17,11.17,0,0,0,1.89.77C654.31,539.75,667.8,539,686,539c34.25,0,41.35-7.18,46.24-19.85,4.13-15.41-12.48-15.9-12.48-15.9s-69.14-4.81-68.68-5.15c-42.15-5.26-36.13-29.62-32.82-45.11,15.71-49.29,58.45-54.85,99-54.85Z" transform="translate(-181 -389.05)"/><path class="cls-2" d="M248.57,402.2H377.7c25.15.75,27.07,24.51,22.18,44.4-6.69,23.27-16.88,34.55-39,37.18a.82.82,0,1,0,0,1.62c11.66.63,27.94,8.68,21.28,39.51-10.52,43-39.09,44.43-57.21,44.43H196.61c-6.5,0-6.16-2.37-5.52-4.77L243,407a5.23,5.23,0,0,1,5.53-4.78Zm28.68,29.29c-7.14,0-8.31,2.44-8.76,3.34-2.82,7.9-5,17.75-7.89,25.64a3.31,3.31,0,0,0,1.32,4.49,3.36,3.36,0,0,0,1.42.4h73.31c23.53,0,25.67-17.29,25.67-20.08,0-10-5.64-13.76-12.85-13.76H277.25Zm-19.92,67.66c-7.52,0-8.54,2.45-9,3.35-2.89,7.89-5.22,17.74-8.12,25.64a3.31,3.31,0,0,0,1.33,4.48A3.39,3.39,0,0,0,243,533h75.41c24.21,0,26.32-17.34,26.32-20.12,0-10-5.79-13.76-13.23-13.76Z" transform="translate(-181 -389.05)"/><path class="cls-2" d="M446.72,402.2H575.85C601,403,602.92,426.71,598,446.6c-6.69,23.27-16.88,34.55-38.91,37.18a.82.82,0,1,0,0,1.62c11.66.63,27.93,8.68,21.28,39.51-10.53,43-39.1,44.43-57.22,44.43H394.73c-6.51,0-6.17-2.37-5.53-4.77l52-157.56a5.23,5.23,0,0,1,5.56-4.81Zm28.68,29.29c-7.14,0-8.31,2.44-8.76,3.34-2.82,7.9-5,17.75-7.89,25.64a3.3,3.3,0,0,0,1.32,4.49,3.38,3.38,0,0,0,1.39.4h73.3c23.53,0,25.68-17.29,25.68-20.08,0-10-5.64-13.76-12.86-13.76H475.4Zm-19.92,67.66c-7.52,0-8.54,2.45-9,3.35-2.9,7.89-5.19,17.74-8.12,25.64a3.26,3.26,0,0,0,1.22,4.46,3.45,3.45,0,0,0,1.6.43h75.41c24.21,0,26.31-17.34,26.31-20.12,0-10-5.79-13.76-13.23-13.76Z" transform="translate(-181 -389.05)"/></svg>