<svg xmlns="http://www.w3.org/2000/svg" xmlns:xlink="http://www.w3.org/1999/xlink" width="164" height="64" viewBox="0 0 164 64">
  <defs>
    <clipPath id="clip-path">
      <rect id="Rechteck_145" data-name="Rechteck 145" width="159.663" height="59.111" fill="none"/>
    </clipPath>
  </defs>
  <g id="Gruppe_442" data-name="Gruppe 442" transform="translate(-421 -14)">
    <rect id="Rechteck_287" data-name="Rechteck 287" width="164" height="64" transform="translate(421 14)" fill="none"/>
    <g id="Logo" transform="translate(423.168 16.445)">
      <g id="Gruppe_105" data-name="Gruppe 105" transform="translate(0 0)" clip-path="url(#clip-path)">
        <path id="Pfad_81" data-name="Pfad 81" d="M158.3,12.631a9.112,9.112,0,0,0-.728-1.021l-5.582-7.147C148.695.32,142.4,0,133.859,0,122.87,0,113.89.794,108.746,9.875l-4.534-5.8C102.134,1.3,98.419.018,92.518.018H63.986A2.261,2.261,0,0,0,61.843,1.7L59.755,8.944,55.948,4.07C53.871,1.3,50.155.018,44.254.018h-28.4a2.435,2.435,0,0,0-2.308,1.811L.142,48.317a3.586,3.586,0,0,0,.6,3.187l5.366,6.872a1.872,1.872,0,0,0,1.473.735h30.04c5.6,0,10.223-1.526,13.787-4.543l2.729,3.506a2.63,2.63,0,0,0,2.073,1.036H85.886c7.942,0,14.016-3.172,17.755-9.222l3.444,4.408c3.385,4.375,10.376,4.731,18.488,4.731,12.262,0,23.844,0,28.494-16.126,1.56-5.41,1.349-9.362-.611-12.038l-2.149-2.756h3.348a3.584,3.584,0,0,0,3.352-2.489l.381-1.107c1.73-5.047,1.7-8.931-.085-11.881m-48.77,14.115Z" transform="translate(0 0)" fill="#d70012"/>
        <path id="Pfad_82" data-name="Pfad 82" d="M48.775,24.146h0c3.307-2.356,4.7-5.587,5.58-8.647,2.777-9.634-.22-13.564-10.345-13.564H16.38a1.347,1.347,0,0,0-1.276,1L2.231,47.591a1.267,1.267,0,0,0,1.152,1.652H31.7c9.6,0,15.841-4.776,18.555-14.193,1.195-4.141,1.78-8.448-1.477-10.9M35.289,20.574H21.17a.759.759,0,0,1-.691-.989L22.867,11.3a.728.728,0,0,1,.691-.542H38.745c6.549,0,6.572.784,5.615,4.107-1.354,4.7-2.285,5.7-9.072,5.7m-17.8,9.371a.729.729,0,0,1,.691-.542H35c2.986-.052,4.787.38,5.367,1.261.479.728.355,2.131-.426,4.842-1.182,4.1-2.009,4.905-8.84,4.905H15.452a.758.758,0,0,1-.691-.989Z" transform="translate(0.24 0.343)" fill="#fff"/>
        <path id="Pfad_83" data-name="Pfad 83" d="M92.242,24.146c3.307-2.356,4.7-5.588,5.58-8.648C100.6,5.863,97.6,1.933,87.477,1.933H59.9a1.421,1.421,0,0,0-1.347,1.056L45.742,47.443A1.381,1.381,0,0,0,47,49.243H75.164c9.6,0,15.842-4.776,18.556-14.193,1.195-4.142,1.781-8.449-1.478-10.9M78.757,20.574H64.523a.67.67,0,0,1-.608-.874l2.438-8.46a.644.644,0,0,1,.609-.478H82.213c6.549,0,6.572.784,5.614,4.107-1.353,4.7-2.285,5.7-9.07,5.7M60.979,29.882a.643.643,0,0,1,.61-.478H78.471c2.986-.052,4.788.38,5.368,1.261.478.728.354,2.131-.427,4.842-1.182,4.1-2.008,4.905-8.84,4.905H58.8a.67.67,0,0,1-.609-.872Z" transform="translate(5.035 0.343)" fill="#fff"/>
        <path id="Pfad_84" data-name="Pfad 84" d="M121.206,20.793l-1.7-.075c-.832-.019-1.63-.032-2.39-.044-8.722-.139-9.883-.476-8.5-5.29,1.112-3.857,1.377-4.773,12.428-4.773,10.776,0,10.75.1,9.4,5.48l-.336,1.338a.642.642,0,0,0,.591.815h7.945a1.772,1.772,0,0,0,1.658-1.232l.3-.881c1.489-4.34,1.53-7.575.127-9.888-2.434-4.014-8.571-4.324-16.975-4.324-12.948,0-21.727,1.007-25.608,14.476C94.7,28.38,103.6,28.808,112.2,29.222c1.1.053,2.23.107,3.374.183,1.5.1,2.887.148,4.148.194,6.971.247,7.694.423,6.413,4.864-1.666,5.782-2.184,6.007-13.829,6.007-5.444,0-9.042,0-9.8-1.179-.47-.728-.234-2.517.763-5.8l.434-1.431a.643.643,0,0,0-.582-.847H95.565a2.409,2.409,0,0,0-2.23,1.6l-.163.429c-1.924,5.068-2.154,8.765-.7,11.3,2.448,4.275,9.3,4.623,17.328,4.623,12.444,0,22.273,0,26.462-14.531,3.753-13.018-4.136-13.362-15.053-13.839" transform="translate(10.088 0.34)" fill="#fff"/>
      </g>
    </g>
  </g>
</svg>
