<?xml version="1.0" encoding="utf-8"?>
<!-- Generator: Adobe Illustrator 19.1.0, SVG Export Plug-In . SVG Version: 6.00 Build 0)  -->
<svg version="1.1" id="Layer_1" xmlns="http://www.w3.org/2000/svg" xmlns:xlink="http://www.w3.org/1999/xlink" x="0px" y="0px"
	 viewBox="-151 369.6 307.9 54.4" style="enable-background:new -151 369.6 307.9 54.4;" xml:space="preserve">
<style type="text/css">
	.st0{fill:#FFFFFF;}
	.st1{fill:#919195;}
	.st2{fill:#F4D502;}
</style>
<g>
	<g>
		<polygon class="st0" points="104.2,421.2 -151.1,421.2 -151.1,416.6 106.9,416.6 		"/>
		<polygon class="st1" points="153.6,421.2 131.6,421.2 134.1,416.6 153.7,416.6 		"/>
		<polygon class="st2" points="128.2,421.2 107.9,421.2 110.4,416.6 130.7,416.6 		"/>
	</g>
	<g>
		<path class="st0" d="M-140.8,373.5v21.8c0,3,1.6,4.4,3.8,4.4c1.9,0,3.6-1.4,3.6-3.6c0-2.3-1.9-3.6-3.7-3.6c-0.9,0-1.7,0.3-2.5,0.6
			v-9.9c1.1-0.2,2.1-0.2,3.5-0.2c7.5,0,12.4,5.6,12.4,12.9c0,8-6,13.5-13.2,13.5c-7.6,0-14-4.7-14-16v-19.9H-140.8z"/>
		<path class="st0" d="M-110.3,375.5c0,3.2-2.7,5.9-6,5.9c-3.3,0-6-2.7-6-5.9c0-3.2,2.7-5.9,6-5.9
			C-113,369.6-110.3,372.3-110.3,375.5z M-121.4,408.6v-25.1h10.2v25.1H-121.4z"/>
		<path class="st0" d="M-94.1,408.6v-13c0-3-0.8-3.7-1.9-3.7c-1.1,0-1.8,0.7-1.8,3.7v13H-108v-15.8c0-5.8,4.9-10,10.9-10
			c3,0,6,1.1,8,3.1c2.1-2.1,5-3.1,8-3.1c6,0,10.9,4.1,10.9,10v15.8h-10v-13c0-3-0.8-3.7-1.8-3.7c-1.1,0-2,0.7-2,3.7v13H-94.1z"/>
		<path class="st0" d="M-53.2,408.6v-13c0-3-0.8-3.7-1.9-3.7s-1.8,0.7-1.8,3.7v13h-10.2v-15.8c0-5.8,4.9-10,10.9-10c3,0,6,1.1,8,3.1
			c2.1-2.1,5-3.1,8-3.1c6,0,10.9,4.1,10.9,10v15.8h-10.2v-13c0-3-0.8-3.7-1.8-3.7c-1.1,0-1.9,0.7-1.9,3.7v13H-53.2z"/>
		<path class="st0" d="M-13.1,399.5l-2.9-5.1l5.1-2.8c-0.9-0.7-1.7-1.1-3.2-1.1c-1.6,0-3.7,2.5-3.7,4.6c0,3.1,1.7,5.6,5.1,5.6
			c2.8,0,4.7-1.5,6.5-3.4l5.8,5.7c-3.2,3.5-8,6-13.2,6c-7.8,0-13.4-5.7-13.4-13.5c0-7.4,6.5-12.8,12.9-12.8c7.4,0,12,4,13.7,9.8
			L-13.1,399.5z"/>
		<path class="st0" d="M1.6,383.5h9.7v3h0.1c2.2-3.2,4-3.6,8.4-3.6H21v8.7h-1c-6.1,0-8.2,2.2-8.2,7.7v9.3H1.7L1.6,383.5L1.6,383.5z"
			/>
		<path class="st0" d="M47.8,383.5v13c0,3,0.8,3.7,1.9,3.7c1.1,0,1.8-0.7,1.8-3.7v-13h10.2v15.8c0,5.8-4.9,10-10.9,10
			c-3,0-6-1.1-8-3.1c-2.1,2.1-5,3.1-8,3.1c-6,0-10.9-4.1-10.9-10v-15.8h10.2v13c0,3,0.8,3.7,1.8,3.7c1.1,0,1.9-0.7,1.9-3.7v-13H47.8
			z"/>
		<path class="st0" d="M90.4,396.1c0,7.2-6.1,13.2-13.4,13.2c-7.4,0-13.4-5.9-13.4-13.2s6-13.2,13.4-13.2
			C84.3,382.9,90.4,388.8,90.4,396.1z M73.7,396.1c0,1.7,1.5,3.2,3.3,3.2s3.3-1.5,3.3-3.2s-1.5-3.2-3.3-3.2
			C75.2,392.8,73.7,394.4,73.7,396.1z"/>
		<path class="st0" d="M92.4,383.5h9.7v3h0.1c2.2-3.2,4-3.6,8.4-3.6h1.2v8.7h-1.1c-6.1,0-8.2,2.2-8.2,7.7v9.3H92.4L92.4,383.5
			L92.4,383.5z"/>
		<path class="st0" d="M113.7,373.4h10.2v35.2h-10.2V373.4z"/>
		<path class="st0" d="M153.5,373.4v19.8c0,11.3-6.4,16-14,16c-7.2,0-13.2-5.4-13.2-13.5c0-7.2,4.9-12.9,12.4-12.9
			c1.3,0,2.4,0,3.5,0.2v9.9c-0.8-0.3-1.6-0.6-2.5-0.6c-1.8,0-3.7,1.4-3.7,3.6c0,2.2,1.6,3.6,3.6,3.6c2.1,0,3.8-1.4,3.8-4.4v-21.7
			H153.5z"/>
	</g>
</g>
</svg>
