<?xml version="1.0" encoding="UTF-8"?>
<svg id="Livello_2" data-name="Livello 2" xmlns="http://www.w3.org/2000/svg" width="407.94" height="96" viewBox="0 0 407.94 96">
  <defs>
    <style>
      .cls-1 {
        fill: #1d1d1b;
      }

      .cls-2 {
        fill: #fff;
      }
    </style>
  </defs>
  <g id="Livello_1-2" data-name="Livello 1">
    <g>
      <path class="cls-1" d="M394.37,33.6c-7.8-10.07-23.48-11.15-29.86-11.15-16.47,0-37.1,3.71-41.84,21.37l-1.65,6.02c.47-6.77-.64-14.34-4.91-19.97-2.72-3.6-7.89-7.88-17.01-7.88-2.37,0-4.53.31-6.5.84,1.37-5.32,5.38-20.82,5.38-20.82h-41.24l-6.45,24.04c-6.05,0-66.63-.07-66.63-.07h-5.96c1.9-6.59,6.63-23.01,6.63-23.01h-19.2l-2.13,2.06c-1.42,1.37-5.75,5.29-8.74,6.94-3.88,2.14-8.46,2.94-8.5,2.94l-4.54.78-.5.06c.72-2.79,3.54-13.74,3.54-13.74h-41.31l-7.99,30.89h0c-.23.89-1.53,5.91-3.28,12.7-.2-5.55-1.59-11.26-4.98-15.73-2.73-3.6-7.89-7.88-17.01-7.88-2.37,0-4.53.31-6.5.84,1.37-5.32,5.38-20.82,5.38-20.82H27.32L2.63,93.13h42.38s.36-1.41.73-2.82c3.18,2.2,7.43,3.68,13.26,3.68,12.14,0,19.24-6.02,23.6-13.24-1.87,7.25-3.2,12.37-3.2,12.37h41.31l3.76-14.55c.06,3.11.75,6.62,2.95,9.58,2.59,3.48,6.7,5.39,11.59,5.39h25.98l2.72-9.11c.3.49.63.98,1,1.46,4.02,5.22,10.62,7.86,19.62,7.86,2.5,0,86.33-.22,86.33-.22,0,0,.15-1.82.51-3.23,3.18,2.2,7.43,3.68,13.26,3.68,17.85,0,24.82-13,28.15-23.72.15,4.14,1.56,8.01,4.2,11.4,6.7,8.59,19.51,11.64,28.44,11.64s36.57,0,42.57-19.91l1.08-3.57c3.06-10.13,3.24-10.74,4.84-17.36,2.33-9.02-.53-15.26-3.33-18.87"/>
      <path class="cls-2" d="M395.96,32.38c-8.69-11.01-24.88-11.87-31.45-11.93-8.39,0-17.87.93-26.07,4.21-6.85,2.72-12.88,7.28-16.14,14.32-.8-3.66-2.24-7.22-4.58-10.31-2.96-3.96-8.83-8.71-18.61-8.68-1.31,0-2.56.09-3.76.25,1.72-6.64,4.58-17.72,4.58-17.72l.65-2.51h-45.37l-6.71,23.78h-67.96c2.17-7.52,6.47-22.81,6.47-22.81h-22.68l-2.71,2.62c-1.31,1.28-5.67,5.27-8.32,6.62-4.01,2.04-9.87,3.06-9.87,3.06,1.1-4.26,3.41-13.27,3.41-13.27h-45.45s-9.21,35.62-9.31,36.02c-.85-2.61-2.08-5.11-3.79-7.36-2.96-3.96-8.83-8.71-18.61-8.68-1.31,0-2.56.09-3.76.25,1.72-6.64,5.23-20.23,5.23-20.23H25.78L0,95.14h46.56s.41-1.59.45-1.73c3.18,1.62,7.13,2.6,11.99,2.59h.16c8.35,0,14.61-2.83,19.21-6.92-.58,2.23-1.57,6.06-1.57,6.06h45.46l2.11-8.14c.4.8.88,1.59,1.44,2.36,2.99,4.04,7.8,6.22,13.2,6.2h27.47l2.03-6.81c4.55,4.74,11.37,7.04,19.81,7.02h87.66l.39-2.14s.02-.08.06-.22c3.18,1.61,7.13,2.6,11.98,2.59,9.41.03,16.27-3.51,20.97-8.46,2.91-3.05,5.03-6.58,6.64-10.13.76,1.94,1.82,3.78,3.16,5.49,7.4,9.37,20.69,12.38,30.03,12.42,4.55,0,13.87.01,22.98-2.57,9.06-2.55,18.25-7.92,21.51-18.77l1.08-3.57c3.05-10.11,3.26-10.84,4.87-17.47.63-2.46.91-4.77.91-6.91,0-6.15-2.32-10.73-4.61-13.66ZM397.7,52.48c-1.61,6.62-5.92,20.93-5.92,20.93-6,19.91-33.52,19.91-42.57,19.91s-21.75-3.05-28.44-11.64c-2.64-3.39-4.05-7.26-4.2-11.4-3.34,10.72-10.31,23.72-28.15,23.72-5.83,0-10.08-1.48-13.26-3.68-.36,1.41-.51,3.23-.51,3.23h-86.11c-9,0-15.82-2.42-19.84-7.64-.37-.48-.7-.97-1-1.46l-2.72,9.11h-25.98c-4.88,0-9-1.92-11.59-5.39-2.2-2.96-2.89-6.47-2.95-9.58l-3.76,14.55h-41.31s1.32-5.12,3.2-12.37c-4.36,7.22-11.46,13.24-23.6,13.24-5.83,0-10.08-1.48-13.26-3.68-.36,1.41-.73,2.82-.73,2.82H2.63L27.32,2.01h41.24s-4.01,15.5-5.38,20.82c1.97-.53,4.13-.84,6.5-.84,9.12,0,14.28,4.29,17.01,7.88,3.39,4.47,4.78,10.18,4.98,15.73,1.76-6.79,3.05-11.81,3.28-12.7h0l7.99-30.89h41.31s-2.82,10.95-3.54,13.74c0,0,8.3-.79,13.55-3.78,2.97-1.69,7.33-5.57,8.74-6.94l2.13-2.06h19.2s-4.73,16.42-6.63,23.01c2.79,0,66.54.07,72.59.07l6.45-24.04h41.24s-4.01,15.5-5.38,20.82c1.97-.53,4.13-.84,6.5-.84,9.12,0,14.28,4.29,17.01,7.88,4.27,5.63,5.38,13.21,4.91,19.97l1.65-6.02c4.74-17.66,25.37-21.37,41.84-21.37,6.38,0,22.06,1.09,29.86,11.15,2.8,3.62,5.66,9.85,3.33,18.87Z"/>
      <g>
        <polygon class="cls-2" points="108.09 8.65 107.96 9.15 103.54 26.26 131.12 26.26 135.68 8.65 108.09 8.65"/>
        <polygon class="cls-2" points="101.96 32.35 87.97 86.49 115.56 86.49 129.55 32.35 128.69 32.35 101.96 32.35"/>
      </g>
      <path class="cls-2" d="M219.03,33.43l-9.9,32.49c.02-.06-.72,1.73-2.15,3.52-1.43,1.8-3.48,3.5-5.99,3.49-2.77-.08-3.22-1.44-3.32-3.46,0-1.61.53-3.43.9-4.44.88-2.43,8.88-30.87,8.89-30.89l.24-.85-24.59-.15-.14.48-10.98,37.73c-.02.05-.35,1.32-.35,3.15,0,2.27.52,5.44,2.93,8.06,2.41,2.62,6.64,4.56,13.76,4.56h.07c9.64,0,14.96-3.19,17.66-5.75l-1.75,5.32h24.55l13.83-53.25h-23.66Z"/>
      <path class="cls-2" d="M175.51,9.62h-7.68l-.19.19s-5.76,5.57-10.16,7.98c-4.98,2.74-10.61,3.66-10.61,3.68l-.42.07-.11.41-3.05,10.69h-6.03l-3.21,12.16h5.83l-7.98,27.82s-.78,2.6-.78,5.59c0,1.94.32,4.08,1.5,5.8,1.17,1.72,3.24,2.91,6.33,2.91.02,0,.04,0,.06,0h21.03l2.91-9.76-.87-.02s-1.32-.04-2.6-.51c-1.31-.49-2.37-1.25-2.37-2.73,0-.33.06-.73.19-1.18.74-2.49,3.95-13.4,8.14-27.92h6.39l3.22-12.16h-6.16l6.63-23.01Z"/>
      <path class="cls-2" d="M399.69,31.04h1.01l-.1-2.47h.6c.77,0,1.09.25,1.93,1.56l.6.91h1.23l-.8-1.13c-.55-.78-.97-1.28-1.52-1.46v-.03c1.05-.06,1.75-.73,1.71-1.68-.03-.63-.59-1.53-2.13-1.53h-2.77l.25,5.83M400.56,27.76l-.07-1.75h1.63c.66,0,1.14.34,1.16.87.02.6-.48.88-1.26.88h-1.45ZM406.97,28.04c.1,2.5-1.99,4.53-4.67,4.53s-4.94-2.03-5.04-4.53c-.11-2.5,1.97-4.52,4.65-4.52s4.95,2.02,5.06,4.52ZM407.94,28.04c-.13-3-2.84-5.42-6.06-5.42s-5.71,2.41-5.59,5.42c.13,3,2.82,5.43,6.04,5.43s5.73-2.43,5.6-5.43Z"/>
      <path class="cls-2" d="M311.33,34.59c-2.33-3.54-6.29-5.98-12.22-5.97-9.51,0-14.38,6.61-17.73,11.08l8.03-31.05h-27.58l-21.1,77.83h28.55l3.24-12.51c1.62,6.22,4.49,13.38,15.79,13.38h.11c10.21.02,15.94-5.72,19.23-12.41,3.31-6.68,4.4-14.39,5.59-18.64.71-2.55,1.24-5.87,1.24-9.35,0-4.3-.8-8.84-3.14-12.37ZM289.14,46.97c0,3.97-1.84,9.84-2.79,13.2h0c-.8,2.86-1.65,5.88-2.9,8.11-1.27,2.25-2.78,3.61-5.07,3.62-1.34,0-2.23-.86-2.92-2.51-.66-1.62-.95-3.91-.95-6.22,0-2.48.32-5,.8-6.79,1.3-5.17,6.43-13.1,10.79-13.46.14-.02.29-.02.43-.02,1.95.02,2.53,1.37,2.6,4.07Z"/>
      <path class="cls-2" d="M382.72,32.69c-5.31-2.6-12.06-3.6-18.21-3.6-16.61,0-31.92,3.63-35.42,16.45-4.26,15.87-2.78,9.74-5.39,20.13-.34,1.34-.5,2.63-.5,3.85.12,12.01,15.03,17.14,26.02,17.16,11.96-.04,31.8-.98,36.21-15.18,4.08-13.57,4.1-13.46,5.82-20.58.44-1.73.66-3.36.66-4.87.02-6.44-3.88-10.77-9.18-13.35ZM365.03,48.39h0l-5.49,20.79c-.59,2.53-4.6,5.25-7.23,5.19-2.26,0-4.07-1.8-4.08-3.89,0-.32.04-.64.13-.96l5.5-20.8c.61-2.54,4.51-5.78,7.5-5.78.03,0,.06,0,.09,0,2.42,0,3.72,1.9,3.75,4.12,0,.43-.06.88-.17,1.32Z"/>
      <path class="cls-2" d="M81.91,34.59c-2.34-3.54-6.29-5.99-12.23-5.97-9.5,0-14.38,6.61-17.73,11.08l8.03-31.06h-27.58L11.31,86.49h28.55l3.23-12.51c1.62,6.21,4.49,13.37,15.79,13.37h.11c10.21.02,15.94-5.72,19.23-12.41,3.31-6.68,4.39-14.39,5.59-18.64.71-2.55,1.24-5.87,1.24-9.34,0-4.3-.8-8.84-3.14-12.37ZM54.02,68.28c-1.27,2.25-2.78,3.61-5.07,3.62-1.34,0-2.23-.86-2.92-2.5-.66-1.63-.95-3.91-.95-6.22,0-2.48.32-5,.8-6.78,1.3-5.17,6.43-13.1,10.79-13.47.15-.01.29-.02.43-.02,1.95.02,2.53,1.37,2.6,4.07,0,3.97-1.84,9.84-2.79,13.2-.81,2.86-1.65,5.88-2.9,8.11Z"/>
    </g>
  </g>
</svg>
