<svg xmlns="http://www.w3.org/2000/svg" xml:space="preserve" id="Layer_1" x="0" y="0" style="enable-background:new 0 0 209.6 79.5" version="1.1" viewBox="0 0 209.6 79.5"><style>.st0{fill:#f4f4f4}</style><path d="M206.5 17.5h.7l-.5-1.5c.6-.1 1-.5 1.2-1 .2-.7-.1-1-1-1h-1.4l-1.1 3.5h.6l.4-1.5h.5l.6 1.5zm-.8-2 .3-1h.7c.4 0 .8.1.6.5-.1.5-.6.5-1 .5h-.6zm-.1 2.6c-.9 0-1.7-.7-1.8-1.7 0-.3 0-.5.2-.8.4-1.4 1.6-2.3 3.1-2.4.9 0 1.7.7 1.8 1.7 0 .3 0 .5-.2.8-.4 1.4-1.7 2.3-3.1 2.4m-2.4-2.4c-.5 1.1 0 2.4 1.2 2.9.3.1.7.2 1 .2 1.9-.1 3.5-1.3 4-3.1.5-1.1 0-2.4-1.2-2.9-.3-.1-.7-.2-1-.2-1.8.1-3.4 1.3-4 3.1m-174.8-3L9.5 50.3h26.1c5.9-.1 11.4-2.8 15-7.5 0 0 7.5-10-1-11.4 0 0 8.3-2.2 11.7-9.5 0 0 5.1-8.9-4.6-9.2H28.4zm4.8 10.5h14.1l-1.2 2.4H32l1.2-2.4zm-7 14h14l-1.3 2.4H25l1.2-2.4zm75.1-12.4-8 15.8s-3.9 8.7-15.4 9.7h-16s-11.7.3-5.3-13.1l7-14c.3-.8 5.9-10.1 15.9-10.6h16.2s12.4-.4 5.6 12.2M74.5 23l-8.3 16.6H82L90.4 23H74.5zm119.8-10.4H168L162.6 23h24.9l-1.2 2.3h-14c-11.2-.4-17.8 12.5-17.8 12.5-6.7 12.2 2.5 12.6 3.5 12.5h28.4L200 23.5c4.6-9.4-2.1-11.1-5.7-10.9m-13.5 23.9-1.3 2.5H165l1.3-2.5h14.5zM92 50.4h12l13.8-27.2h15l-3.3 6.5h11.9c9.5-15.3 1.5-17.2-2.4-16.9h-28L92 50.4zM159.7 0h10.7l-34.5 69.1h-11.1L159.7 0z" class="st0"/><path d="m139 69.1 8-15.6h38.1l-8 15.6H139zm-139 0 8-15.6h121.7l-8 15.6H0z" style="fill:red"/><path d="m11.3 56.3-5 10.1H20l1.2-2.5h-8.6l.7-1.4h8l1.2-2.5h-8l.7-1.4h8.6l1.2-2.5H11.3v.2zm54.3 0L55.2 66.4h5.4l1.1-1.2H67v1.2h5.4l-.5-10.1h-6.3zM64 62.8l3.2-3.4-.2 3.4h-3zm-37.8-6.5 2.6 4.8-8.4 5.3h6.3l3.7-2.6 1.1 2.6h6.3l-3.2-5.3 7.4-4.8h-6l-3 2.2-.8-2.2h-6zm26.3 3.5h-5.7l1.7-3.5h-5.1l-5 10.1h5.1l2-4h5.7l-2 4h5.1l4.9-10.1h-5.1l-1.6 3.5zm39.5-.5c-.7 1.4-.2 2.6 2.1 2.8l5.5.7c.6.1.7.4.6.7-.2.5-.8.8-2.4.8-.5 0-1.1 0-1.6-.2-.3-.2-.3-.4-.2-.7h-6.1c-1.4 3 2.6 3.4 6.5 3.4 5.7 0 8.8-1.2 10-3.6.8-1.7-.3-2.6-2.7-3l-5.7-.7c-.5 0-.5-.2-.4-.5.2-.4.9-.7 2.4-.7.5 0 1 .1 1.5.2.4.1.6.4.4.8h5.9c.9-2.1-.9-3.3-6.6-3.3-4.3-.1-7.9.6-9.2 3.3m-13 3.1 3-6.1h-5.1l-3.1 6.3c-1.6 3.2.4 4.2 5.6 4.2s8.1-1 9.7-4.2l3.1-6.3h-5.1l-3 6.1c-.6 1.3-1.8 1.7-3.4 1.7s-2.3-.4-1.7-1.7m29.9-3.6h4.7l-3.7 7.6h5.1l3.7-7.6h4.7l1.2-2.5h-14.5l-1.2 2.5zM120.5 74h-3.1c-.5 0-1 .2-1.5.5s-.9.7-1.1 1.2l-1 1.9c-.2.5-.3.9-.1 1.2.2.3.5.5 1 .5h3.1c.5 0 1-.2 1.5-.5s.9-.7 1.1-1.2l1-1.9c.2-.5.3-.9.1-1.2-.2-.3-.5-.5-1-.5zm-.3 1.7-1 1.9c-.1.3-.4.4-.7.4h-3.1c-.3 0-.4-.1-.3-.4l1-1.9c.1-.3.4-.4.7-.4h3.1c.3 0 .4.1.3.4zm-9 .4-.6 1.2h1.7l-.4.8H109c-.3 0-.4-.1-.3-.4l1-1.9c.1-.3.4-.4.7-.4h4.1l.6-1.2H111c-.5 0-1 .2-1.5.5s-.9.7-1.1 1.2l-1 1.9c-.2.5-.3.9-.1 1.2.2.3.5.5 1 .5h4.1l1.6-3.3-2.8-.1zm-95.9-1.6c-.2-.3-.5-.5-1-.5h-3.1c-.5 0-1 .2-1.5.5s-.9.7-1.1 1.2l-1 1.9c-.2.5-.3.9-.1 1.2.2.3.5.5 1 .5h3.1c.5 0 1-.2 1.5-.5s.9-.7 1.1-1.2l1-1.9c.3-.5.3-.9.1-1.2zM14 75.7l-1 1.9c-.1.3-.4.4-.7.4H9.2c-.3 0-.4-.1-.3-.4l1-1.9c.1-.3.4-.4.7-.4h3.1c.4 0 .4.1.3.4zm113.1 2.4 2.1-4.1h-1.3l-2.6 5.3h5.3l.6-1.2h-4.1zm-120.9.8c.4-.3.8-.7 1-1.1s.3-.8.2-1.1c-.1-.3-.4-.5-.8-.5H3.1c-.2 0-.2-.1-.1-.4.1-.3.3-.4.5-.4h4.6l.6-1.4H4.2c-.4 0-.9.2-1.3.5s-.8.7-1 1.2-.3.8-.2 1.1c.1.3.4.5.8.5h3.3c.2 0 .2.1.1.4s-.3.4-.5.4H.9l-.6 1.2h4.6c.4 0 .8-.1 1.3-.4zm16 .4 1.8-3.5 1.4 3.5h1.2l2.7-5.3H28l-1.7 3.6-1.4-3.6h-1.3L21 79.3h1.2zm25.2 0 1-2h.8l1.1 2H52l-1.4-2.6 3.9-2.7h-1.7l-3 2.1h-.7l1-2.1h-1.2l-2.7 5.3h1.2zm-1.7 0 2.6-5.3h-1.2l-2.7 5.3h1.3zm12.3 0 .6-1.2h-4.4l.4-.8h4.1l.6-1.2h-4.1l.4-.8H60l.6-1.3H55l-2.7 5.3H58zm75.8-5.3-2.7 5.3h1.2L135 74h-1.2zM33.3 75.3c.3 0 .4.1.3.4l-1 1.9c-.1.3-.4.4-.7.4H29l1-2h-1.2l-1.7 3.3h4.1c.5 0 1-.2 1.5-.5s.9-.7 1.1-1.2l1-1.9c.2-.5.3-.9.1-1.2-.2-.3-.5-.5-1-.5h-4.1l-.6 1.2 4.1.1zm-18.7 3.6c.1.3.4.5.8.5h3.5c.4 0 .9-.2 1.3-.5s.8-.7 1-1.2L23 74h-1.2L20 77.7c-.1.3-.3.4-.5.4H16c-.2 0-.2-.1-.1-.4l1.8-3.7h-1.2l-1.8 3.7c-.2.5-.2.8-.1 1.2zM90.4 74l-3.6 3.7-.1-3.7h-1.4l.1 5.3h1l5.4-5.3h-1.4zm-18.7 4.1.4-.8h4.1l.6-1.2h-4.1l.4-.8h4.4l.6-1.3h-5.6l-2.7 5.3h5.7l.6-1.2h-4.4zm12-4.1h-3.5c-.4 0-.9.2-1.3.5s-.8.7-1 1.2L76 79.3h1.2l1.8-3.7c.1-.3.3-.4.5-.4H83c.2 0 .2.1.1.4l-.4.7h-3.3l-.6 1.2h3.3l-.8 1.7h1.2l1.8-3.7c.2-.4.3-.8.2-1.2-.1-.1-.4-.3-.8-.3zm57.4 0h-1.7l-2.9 2.1h-.8l1.1-2.1h-1.3l-2.6 5.3h1.2l1-2h.8l1 2h1.7l-1.3-2.6 3.8-2.7zm-38.3 0-1.8 3.6-1.4-3.6h-1.3l-2.6 5.3h1.2l1.8-3.5 1.4 3.5h1.2L104 74h-1.2zm-11.4 4.1.4-.8h4.1l.6-1.2h-4.1l.4-.8h4.4l.6-1.3h-5.6l-2.7 5.3h5.6l.7-1.2h-4.4zm81-4.1h-1.3l-2.6 5.3h5.3l.6-1.2h-4.1l2.1-4.1zM70.7 74l-1 2.1h-3.2l1-2.1h-1.2l-2.7 5.3h1.3l1-2h3.2l-1 2h1.2L72 74h-1.3zm-26.1 4.1h-4.1l2-4.1h-1.2l-2.7 5.3h5.3l.7-1.2zM157.4 74l-1 2.1h-3.2l1-2.1H153l-2.7 5.3h1.2l1.1-2h3.1l-1 2h1.3l2.6-5.3h-1.2zm7.1 4.1 2-4.1h-1.2l-2.6 5.3h5.3l.6-1.2h-4.1zm-6.2 0 .4-.8h4.2l.6-1.2h-4.1l.4-.8h4.4l.6-1.3h-5.7l-2.6 5.3h5.6l.6-1.2h-4.4zM139 79.3h5.6l.6-1.2h-4.4l.4-.8h4.2l.6-1.2h-4.2l.4-.8h4.5l.6-1.3h-5.7l-2.6 5.3zm34.7-4.4.4-.7h.2l.1-.2h-.6l-.1.2h.2l-.3.7h.1zm.9-.2.1-.7h-.2l-.4.9h.1l.1-.2.2-.4-.1.6h.1l.5-.6-.2.4-.1.2h.1l.4-.9h-.2l-.4.7z" class="st0"/></svg>