<?xml version="1.0" encoding="UTF-8" standalone="no"?>
<!-- Created with Inkscape (http://www.inkscape.org/) -->
<svg
   xmlns:svg="http://www.w3.org/2000/svg"
   xmlns="http://www.w3.org/2000/svg"
   version="1.0"
   width="708.66138"
   height="310.98874"
   id="svg30827">
  <defs
     id="defs30829" />
  <g
     transform="translate(-216.88326,-223.98417)"
     id="layer1">
    <g
       transform="matrix(5.4896435,0,0,5.4896435,-973.72857,-2401.8378)"
       id="g30846">
      <path
         d="M 279.51507,507.68901 C 287.58526,507.68901 294.12941,501.15237 294.12941,493.07842 C 294.12941,485.00448 287.58526,478.46784 279.51507,478.46784 C 271.44363,478.46784 264.90073,485.00448 264.90073,493.07842 C 264.90073,501.15237 271.44363,507.68901 279.51507,507.68901 z"
         id="path495"
         style="fill:none;stroke:#000000;stroke-width:0.28996202;stroke-linecap:butt;stroke-linejoin:miter;stroke-miterlimit:4;stroke-dasharray:none" />
      <path
         d="M 288.38391,494.89069 C 288.11519,494.56573 287.85398,494.30326 287.53152,494.09079 C 287.66025,494.21577 287.78274,494.35326 287.90647,494.50324 C 288.32392,495.00317 288.57513,495.77807 288.57513,496.50298 C 288.57513,497.95279 287.65525,499.3526 286.31793,499.97752 C 285.21057,500.50245 283.78951,500.75242 281.94975,500.75242 C 281.42732,500.75242 279.92252,500.72742 277.41534,500.70243 C 276.36798,500.68993 274.85193,500.70243 272.83469,500.73992 L 272.83469,501.13987 C 275.0919,501.08987 276.76418,501.07738 277.89278,501.08987 C 280.39995,501.11487 281.90476,501.13987 282.42719,501.13987 C 284.26695,501.13987 285.68801,500.8899 286.79537,500.36497 C 288.13269,499.74005 289.05257,498.34023 289.05257,496.89042 C 289.05257,496.16552 288.80135,495.39062 288.38391,494.89069"
         id="path497"
         style="fill:#000000;fill-rule:nonzero;stroke:none;stroke-width:0.23199999;stroke-linecap:butt;stroke-linejoin:miter;stroke-miterlimit:4;stroke-dasharray:none" />
      <path
         d="M 287.96896,489.52889 C 287.96896,490.1913 287.78149,490.84122 287.42528,491.37865 C 286.86161,492.21604 286.41917,492.45351 285.06184,492.76596 C 285.4093,492.86595 285.62927,493.05343 285.89673,493.14092 C 286.9366,492.86595 287.40404,492.516 287.90272,491.77859 C 288.25892,491.22867 288.4464,490.57875 288.4464,489.91634 C 288.4464,488.77899 287.84523,487.69163 286.88285,487.02922 C 287.56277,487.69163 287.96896,488.59151 287.96896,489.52889"
         id="path499"
         style="fill:#000000;fill-rule:nonzero;stroke:none;stroke-width:0.23199999;stroke-linecap:butt;stroke-linejoin:miter;stroke-miterlimit:4;stroke-dasharray:none" />
      <path
         d="M 216.88327,515.16303 L 223.79237,515.22552 L 229.29915,515.16303 C 231.72883,515.16303 232.88993,515.35051 234.18476,515.88794 C 235.91328,516.62534 237.04688,518.30012 237.04688,520.07489 C 237.04688,520.93727 236.80316,521.77467 236.34447,522.47457 C 235.61582,523.56193 234.94091,523.98688 233.18614,524.39932 C 235.29211,524.96175 236.10201,525.44918 236.96564,526.49905 C 237.50557,527.14896 237.82928,528.14883 237.82928,529.09871 C 237.82928,530.96096 236.64194,532.76073 234.91466,533.57312 C 233.4836,534.24803 231.64759,534.57299 229.2729,534.57299 C 228.59799,534.57299 226.65449,534.54799 223.41492,534.523 C 221.95761,534.4855 219.79789,534.523 216.88327,534.57299 L 216.88327,530.08608 L 218.47556,530.14857 L 218.47556,519.56245 L 216.88327,519.62495 L 216.88327,515.16303 z M 225.89834,523.0495 L 226.92446,523.0495 C 228.05806,523.0495 228.1118,523.0495 228.57049,522.86202 C 228.78671,522.77453 228.97544,522.67455 229.13792,522.47457 C 229.46163,522.12462 229.62285,521.64968 229.62285,521.13725 C 229.62285,519.93741 228.8942,519.34998 227.46439,519.34998 L 227.35565,519.34998 L 226.54576,519.37498 L 225.89834,519.34998 L 225.89834,523.0495 z M 225.89834,530.33604 L 226.41078,530.33604 C 227.43689,530.33604 228.00432,530.31105 228.46301,530.19856 C 229.2729,529.98609 229.83908,529.26118 229.83908,528.3613 C 229.83908,527.71139 229.54286,527.12396 229.05668,526.79901 C 228.57049,526.52404 228.1118,526.42406 226.627,526.42406 L 225.89834,526.42406 L 225.89834,530.33604"
         id="path509"
         style="fill:#000000;fill-rule:nonzero;stroke:none;stroke-width:0.23199999;stroke-linecap:butt;stroke-linejoin:miter;stroke-miterlimit:4;stroke-dasharray:none" />
      <path
         d="M 238.09924,530.08608 L 239.71903,530.14857 L 239.71903,519.56245 L 238.09924,519.62495 L 238.09924,515.16303 L 243.68601,515.22552 L 250.46138,515.16303 C 253.67345,515.16303 254.96953,515.46299 256.48184,516.51285 C 257.85791,517.46273 258.6678,519.11251 258.6678,520.86228 C 258.6678,521.5372 258.56031,522.2371 258.29035,522.83703 C 257.80416,524.12436 257.29048,524.63679 255.77943,525.49918 L 258.58656,530.14857 L 259.88264,530.08608 L 259.88264,534.57299 C 258.29035,534.54799 257.10176,534.523 256.29186,534.523 C 255.48197,534.523 254.26838,534.54799 252.62109,534.57299 L 249.11155,526.68652 L 247.11431,526.68652 L 247.11431,530.14857 L 248.65286,530.08608 L 248.65286,534.57299 C 246.38566,534.54799 244.68588,534.523 243.55103,534.523 C 242.33744,534.523 240.52893,534.54799 238.09924,534.57299 L 238.09924,530.08608 z M 247.14181,523.12449 L 248.51788,523.12449 C 250.11142,523.12449 250.89382,522.47457 250.89382,521.21224 C 250.89382,520.02489 250.16516,519.42497 248.62662,519.42497 L 247.14181,519.42497 L 247.14181,523.12449"
         id="path511"
         style="fill:#000000;fill-rule:nonzero;stroke:none;stroke-width:0.23199999;stroke-linecap:butt;stroke-linejoin:miter;stroke-miterlimit:4;stroke-dasharray:none" />
      <path
         d="M 261.09623,530.08608 L 262.60853,530.14857 L 265.63189,519.56245 L 264.0121,519.62495 L 264.0121,515.16303 C 267.19668,515.18803 269.54513,515.22552 271.16491,515.22552 C 272.91968,515.22552 275.53809,515.18803 279.04763,515.16303 L 279.04763,519.62495 L 277.40035,519.56245 L 280.47744,530.14857 L 281.98975,530.08608 L 281.98975,534.57299 C 279.77629,534.54799 278.129,534.523 277.0229,534.523 C 275.8618,534.523 274.10703,534.54799 271.78608,534.57299 L 271.78608,530.08608 L 273.35213,530.14857 L 272.91968,528.22382 L 267.84535,528.22382 L 267.35916,530.14857 L 268.95145,530.08608 L 268.95145,534.57299 C 267.17044,534.54799 265.84686,534.523 264.98322,534.523 C 264.09334,534.523 262.82476,534.54799 261.09623,534.57299 L 261.09623,530.08608 z M 268.65524,525.23671 L 272.05605,525.23671 L 270.78746,520.56232 L 270.54374,519.51246 L 270.35502,518.51259 C 270.11255,519.77493 270.05881,520.07489 269.97757,520.39985 L 268.65524,525.23671"
         id="path513"
         style="fill:#000000;fill-rule:nonzero;stroke:none;stroke-width:0.23199999;stroke-linecap:butt;stroke-linejoin:miter;stroke-miterlimit:4;stroke-dasharray:none" />
      <path
         d="M 282.99336,515.16303 L 289.90371,515.22552 L 295.41049,515.16303 C 297.83892,515.16303 299.00002,515.35051 300.2961,515.88794 C 302.02337,516.62534 303.15697,518.30012 303.15697,520.07489 C 303.15697,520.93727 302.9145,521.77467 302.45457,522.47457 C 301.72591,523.56193 301.051,523.98688 299.29748,524.39932 C 301.4022,524.96175 302.2121,525.44918 303.07573,526.49905 C 303.61566,527.14896 303.93937,528.14883 303.93937,529.09871 C 303.93937,530.96096 302.75203,532.76073 301.02475,533.57312 C 299.59369,534.24803 297.75893,534.57299 295.38299,534.57299 C 294.70808,534.57299 292.76458,534.54799 289.52501,534.523 C 288.0677,534.4855 285.90798,534.523 282.99336,534.57299 L 282.99336,530.08608 L 284.58566,530.14857 L 284.58566,519.56245 L 282.99336,519.62495 L 282.99336,515.16303 z M 292.00843,523.0495 L 293.03455,523.0495 C 294.16815,523.0495 294.22189,523.0495 294.68058,522.86202 C 294.8968,522.77453 295.08553,522.67455 295.24801,522.47457 C 295.57172,522.12462 295.7342,521.64968 295.7342,521.13725 C 295.7342,519.93741 295.00554,519.34998 293.57448,519.34998 L 293.46699,519.34998 L 292.6571,519.37498 L 292.00843,519.34998 L 292.00843,523.0495 z M 292.00843,530.33604 L 292.52212,530.33604 C 293.54698,530.33604 294.11441,530.31105 294.5731,530.19856 C 295.38299,529.98609 295.95042,529.26118 295.95042,528.3613 C 295.95042,527.71139 295.65296,527.12396 295.16677,526.79901 C 294.68058,526.52404 294.22189,526.42406 292.73709,526.42406 L 292.00843,526.42406 L 292.00843,530.33604"
         id="path515"
         style="fill:#000000;fill-rule:nonzero;stroke:none;stroke-width:0.23199999;stroke-linecap:butt;stroke-linejoin:miter;stroke-miterlimit:4;stroke-dasharray:none" />
      <path
         d="M 304.29182,515.16303 C 306.55403,515.18803 308.2788,515.22552 309.41615,515.22552 C 310.52851,515.22552 312.22828,515.18803 314.4405,515.16303 L 314.4405,519.62495 L 313.11567,519.56245 L 313.11567,527.71139 C 313.11567,528.84874 313.16566,529.22369 313.41563,529.63614 C 313.71559,530.14857 314.46549,530.41103 315.35288,530.41103 C 316.19027,530.41103 316.92767,530.12357 317.24013,529.61114 C 317.51509,529.22369 317.57758,528.84874 317.57758,527.71139 L 317.57758,519.56245 L 316.21526,519.62495 L 316.21526,515.16303 C 317.86505,515.18803 319.07739,515.22552 319.88978,515.22552 C 320.67718,515.22552 321.77703,515.18803 323.26434,515.16303 L 323.26434,519.62495 L 321.91452,519.56245 L 321.91452,527.26145 C 321.91452,529.9361 321.2646,531.49839 319.67731,532.87321 C 318.11501,534.19804 316.09028,534.89795 313.76558,534.89795 C 311.46588,534.89795 309.44115,534.19804 307.87885,532.87321 C 306.31656,531.49839 305.66664,529.9361 305.66664,527.26145 L 305.66664,519.56245 L 304.29182,519.62495 L 304.29182,515.16303"
         id="path517"
         style="fill:#000000;fill-rule:nonzero;stroke:none;stroke-width:0.23199999;stroke-linecap:butt;stroke-linejoin:miter;stroke-miterlimit:4;stroke-dasharray:none" />
      <path
         d="M 335.82519,515.16303 L 340.24961,515.16303 C 340.19962,516.9128 340.16213,517.75019 340.16213,518.70007 L 340.16213,520.7748 L 335.7877,520.79979 C 335.41275,519.13751 334.57536,518.35011 333.25053,518.35011 C 332.26316,518.35011 331.42577,519.05002 331.42577,519.86242 C 331.42577,520.09988 331.50076,520.37485 331.66324,520.56232 C 331.85071,520.79979 332.03819,520.99977 332.31315,521.13725 C 332.47563,521.21224 332.7131,521.32472 333.06306,521.5372 L 334.2504,522.07463 C 334.66285,522.2871 335.11279,522.47457 335.62522,522.74954 C 337.41249,523.56193 337.57497,523.63692 338.29987,524.07436 C 340.27461,525.21171 341.27448,526.79901 341.27448,528.96122 C 341.27448,532.57325 338.41236,534.97294 334.06293,534.97294 C 333.22553,534.97294 332.36315,534.89795 331.55075,534.68547 C 330.4509,534.43551 329.96346,534.22303 328.9136,533.41064 L 328.9136,534.57299 L 324.45168,534.57299 C 324.48918,532.82322 324.53917,531.98583 324.53917,531.06095 C 324.53917,530.41103 324.53917,529.49865 324.48918,528.26132 L 328.98859,528.26132 C 329.15107,529.1237 329.31355,529.44866 329.75099,529.8986 C 330.31342,530.49852 331.2008,530.87347 332.10068,530.87347 C 332.92557,530.87347 333.61298,530.31105 333.61298,529.61114 C 333.61298,528.84874 332.87558,528.26132 330.66337,527.28644 C 329.96346,526.96149 329.50102,526.74901 329.33854,526.66152 L 327.93873,525.96162 C 327.23882,525.61166 326.6139,525.28671 326.18896,524.96175 C 324.75164,524.07436 323.91425,522.42458 323.91425,520.58732 C 323.91425,517.13777 326.5889,514.76308 330.55089,514.76308 C 331.28829,514.76308 332.01319,514.81308 332.77559,514.97556 C 333.98793,515.16303 334.50037,515.35051 335.82519,515.95043 L 335.82519,515.16303"
         id="path519"
         style="fill:#000000;fill-rule:nonzero;stroke:none;stroke-width:0.23199999;stroke-linecap:butt;stroke-linejoin:miter;stroke-miterlimit:4;stroke-dasharray:none" />
      <path
         d="M 343.4492,515.3755 C 344.84901,515.3755 345.97387,516.50036 345.97387,517.90017 C 345.97387,519.28749 344.84901,520.41234 343.4492,520.41234 C 342.06188,520.41234 340.93702,519.28749 340.93702,517.90017 C 340.93702,516.50036 342.06188,515.3755 343.4492,515.3755 z M 342.01188,519.37498 C 342.81178,520.18737 344.11161,520.18737 344.89901,519.37498 C 345.7114,518.55009 345.7114,517.23776 344.89901,516.41287 C 344.11161,515.60047 342.81178,515.60047 342.01188,516.41287 C 341.62443,516.81281 341.39946,517.33775 341.39946,517.90017 C 341.39946,518.4501 341.62443,518.97503 342.01188,519.37498 z M 342.54931,516.42537 L 343.4492,516.42537 C 343.81165,516.42537 343.97413,516.47536 344.13661,516.60034 C 344.28659,516.71283 344.38657,516.86281 344.42407,517.06278 C 344.53655,517.57522 344.31158,517.92517 343.87414,518.06265 C 343.84914,518.06265 343.83664,518.06265 343.82415,518.07515 L 344.63654,519.29999 L 343.93663,519.29999 L 343.13674,518.00016 L 343.13674,519.29999 L 342.54931,519.29999 L 342.54931,516.42537 z M 343.34921,517.76269 C 343.63667,517.76269 343.78665,517.63771 343.83664,517.42523 C 343.91164,517.11278 343.72416,516.9003 343.37421,516.9003 L 343.13674,516.9003 L 343.13674,517.76269 L 343.34921,517.76269"
         id="path521"
         style="fill:#000000;fill-rule:nonzero;stroke:none;stroke-width:0.23199999;stroke-linecap:butt;stroke-linejoin:miter;stroke-miterlimit:4;stroke-dasharray:none" />
      <path
         d="M 270.75622,484.92949 L 276.39048,484.96699 L 280.65992,484.92949 C 282.54217,484.92949 283.44206,485.06697 284.44692,485.49192 C 285.78675,486.05434 286.66538,487.35417 286.66538,488.72899 C 286.66538,489.4039 286.47666,490.05382 286.12045,490.60375 C 285.55553,491.42864 285.0331,491.7661 283.67203,492.07855 C 285.30431,492.5285 285.93298,492.90345 286.60289,493.71584 C 287.02034,494.21577 287.27155,494.99067 287.27155,495.72808 C 287.27155,497.16539 286.35167,498.5652 285.01185,499.20262 C 283.90324,499.72755 282.47968,499.97752 280.63867,499.97752 C 280.11499,499.97752 278.60894,499.95252 276.09802,499.92753 C 274.96692,499.91503 273.01592,499.92753 270.75622,499.97752 L 270.75622,496.50298 L 272.26852,496.54047 L 272.26852,488.34154 L 270.75622,488.37904 L 270.75622,484.92949 z M 278.02277,491.04119 L 278.81766,491.04119 C 279.6963,491.04119 279.73879,491.04119 280.09374,490.89121 C 280.26122,490.82872 280.4087,490.74123 280.53369,490.60375 C 280.7849,490.32878 280.90989,489.94133 280.90989,489.55389 C 280.90989,488.62901 280.34496,488.16657 279.23636,488.16657 L 279.15262,488.16657 L 278.5252,488.19156 L 278.02277,488.16657 L 278.02277,491.04119 z M 278.02277,496.69045 L 278.42021,496.69045 C 279.21511,496.69045 279.65505,496.66545 280.01,496.57797 C 280.63867,496.41549 281.07737,495.85306 281.07737,495.15315 C 281.07737,494.65322 280.8474,494.19078 280.47119,493.94081 C 280.09374,493.74084 279.73879,493.65335 278.58769,493.65335 L 278.02277,493.65335 L 278.02277,496.69045 z"
         id="path523"
         style="fill:none;stroke:#000000;stroke-width:0.37495092;stroke-linecap:butt;stroke-linejoin:miter;stroke-miterlimit:4;stroke-dasharray:none" />
    </g>
  </g>
</svg>
