<svg width="66" height="59" viewBox="0 0 66 59" fill="none" xmlns="http://www.w3.org/2000/svg">
<path d="M44.49 42.5705H38.3815C37.9696 42.5705 37.7014 42.2003 37.885 41.8852L40.0171 38.225C40.157 38.0063 40.3512 37.8276 40.5807 37.7061C40.8102 37.5846 41.0672 37.5246 41.3268 37.5318H47.153C47.5279 37.5318 47.7719 37.8687 47.6048 38.1555L45.2752 42.155C45.1913 42.2861 45.0749 42.3933 44.9373 42.4661C44.7997 42.5389 44.6456 42.5749 44.49 42.5705Z" fill="white"/>
<path d="M23.1667 44.5227H16.6196C16.5245 44.531 16.4289 44.5139 16.3426 44.4732C16.2563 44.4325 16.1824 44.3697 16.1283 44.2911C16.0742 44.2125 16.0419 44.1209 16.0347 44.0258C16.0276 43.9306 16.0457 43.8353 16.0874 43.7494L18.3725 39.6199C18.5163 39.3769 18.722 39.1764 18.9687 39.039C19.2154 38.9016 19.4941 38.8322 19.7764 38.8378H26.021C26.1075 38.8303 26.1945 38.8458 26.273 38.8828C26.3515 38.9199 26.4189 38.9771 26.4681 39.0486C26.5173 39.1201 26.5467 39.2034 26.5532 39.29C26.5597 39.3766 26.5432 39.4634 26.5053 39.5415L24.0083 44.0539C23.9221 44.1995 23.7988 44.3197 23.6509 44.4021C23.5031 44.4845 23.336 44.5261 23.1667 44.5227Z" fill="white"/>
<path d="M16.236 38.1714H13.8748C13.7156 38.1714 13.6119 38.0415 13.6829 37.9309L14.507 36.6462C14.5651 36.5673 14.6416 36.5039 14.7299 36.4615C14.8181 36.419 14.9155 36.3989 15.0133 36.4028H17.2654C17.4103 36.4028 17.5046 36.5211 17.44 36.6217L16.5395 38.0256C16.5047 38.0729 16.4588 38.1109 16.4059 38.1363C16.353 38.1617 16.2947 38.1738 16.236 38.1714Z" fill="white"/>
<path d="M19.1243 30.5718H16.6668C16.5011 30.5718 16.3932 30.4365 16.467 30.3214L17.3248 28.9842C17.3852 28.9022 17.4648 28.8362 17.5567 28.792C17.6486 28.7478 17.7499 28.7269 17.8517 28.731H20.1957C20.3465 28.731 20.4447 28.854 20.3775 28.9588L19.4402 30.42C19.404 30.4691 19.3562 30.5087 19.3011 30.5352C19.2461 30.5616 19.1854 30.5742 19.1243 30.5718Z" fill="white"/>
<path d="M48.305 29.9452H45.3811C45.1839 29.9452 45.0555 29.7725 45.1434 29.6254L46.1639 27.9176C46.2323 27.8148 46.3257 27.7311 46.4354 27.6745C46.5452 27.6179 46.6675 27.5902 46.7909 27.5941H49.5797C49.7592 27.5941 49.876 27.7513 49.796 27.8851L48.6808 29.7513C48.6399 29.8129 48.5839 29.8631 48.5181 29.897C48.4523 29.9309 48.379 29.9475 48.305 29.9452Z" fill="white"/>
<path d="M55.4078 24.9966H50.9627C50.663 24.9966 50.4678 24.734 50.6014 24.5104L52.1529 21.9142C52.2568 21.7579 52.3989 21.6307 52.5656 21.5446C52.7324 21.4586 52.9184 21.4165 53.106 21.4224H57.3456C57.6184 21.4224 57.7959 21.6614 57.6744 21.8648L55.9791 24.7019C55.9168 24.7955 55.8317 24.8718 55.7317 24.9234C55.6317 24.9749 55.5202 25.0002 55.4078 24.9966Z" fill="white"/>
<path d="M52.0786 35.2013H49.3389C49.1542 35.2013 49.0339 35.0408 49.1162 34.9041L50.0725 33.3166C50.1369 33.2209 50.2246 33.143 50.3274 33.0904C50.4301 33.0378 50.5446 33.0122 50.6599 33.016H53.2731C53.4412 33.016 53.5507 33.1621 53.4757 33.2865L52.4308 35.0211C52.3922 35.0785 52.3396 35.1252 52.278 35.1567C52.2164 35.1882 52.1478 35.2036 52.0786 35.2013Z" fill="white"/>
<path d="M21.4368 34.9742H18.7125C18.5288 34.9742 18.4092 34.8145 18.4911 34.6786L19.442 33.1001C19.506 33.0049 19.5932 32.9275 19.6954 32.8752C19.7976 32.8229 19.9114 32.7974 20.0261 32.8011H22.6245C22.7917 32.8011 22.9006 32.9464 22.8261 33.0701L21.787 34.795C21.7486 34.8521 21.6963 34.8985 21.6351 34.9298C21.5738 34.9612 21.5056 34.9764 21.4368 34.9742Z" fill="white"/>
<path d="M14.1951 27.8498H10.7453C10.5127 27.8498 10.3612 27.6476 10.4649 27.4755L11.6689 25.4767C11.7501 25.3561 11.8605 25.2581 11.9899 25.1919C12.1193 25.1256 12.2634 25.0934 12.4087 25.0981H15.6991C15.9108 25.0981 16.0486 25.2821 15.9543 25.4387L14.6385 27.6229C14.5899 27.6952 14.5237 27.7539 14.4461 27.7936C14.3686 27.8333 14.2822 27.8527 14.1951 27.8498Z" fill="white"/>
<path d="M43.6327 13.8582L42.1116 17.7325L32.9984 21.8283L23.8853 17.7325L22.3643 13.8582L5.60938 0L32.9979 46.367V46.3691L32.9984 46.3681L32.9991 46.3691V46.367L60.3875 0L43.6327 13.8582ZM31.6454 23.1282L32.5474 37.5047L25.1806 20.5376L31.6454 23.1282ZM11.9587 7.42127L20.7628 15.1473L32.8011 42.6376L11.9587 7.42127ZM34.5394 23.1282L41.0042 20.5376L33.6374 37.5047L34.5394 23.1282ZM45.1987 15.1473L54.0029 7.42127L33.1604 42.6376L45.1987 15.1473Z" fill="white"/>
<path d="M22.8613 48.7773H0.789062V59.0007H22.8613V48.7773Z" fill="#D9261C"/>
<path d="M65.2111 48.7773H22.8613V59.0007H65.2111V48.7773Z" fill="#171819"/>
<path d="M9.54242 50.895C10.0154 50.8844 10.4742 51.0566 10.8235 51.3758C11.0776 51.5963 11.2516 51.8948 11.318 52.2246C11.3845 52.5545 11.3397 52.897 11.1907 53.1987C11.0854 53.4062 10.938 53.5894 10.7579 53.7366C11.0412 53.8752 11.2825 54.0864 11.4574 54.3487C11.6296 54.6027 11.721 54.9029 11.7195 55.2098C11.7212 55.4351 11.6741 55.6582 11.5813 55.8635C11.4885 56.0688 11.3522 56.2516 11.1819 56.3991C10.8269 56.7236 10.3598 56.8975 9.87906 56.8843H3.62305V50.895H9.54242ZM5.25816 53.3345H9.0136C9.18022 53.3387 9.34187 53.2774 9.4638 53.1638C9.52156 53.1116 9.56776 53.0478 9.59936 52.9767C9.63096 52.9055 9.64729 52.8286 9.64729 52.7507C9.64729 52.6729 9.63096 52.5959 9.59936 52.5247C9.56776 52.4536 9.52156 52.3898 9.4638 52.3376C9.34179 52.2241 9.1802 52.1629 9.0136 52.167H5.25816V53.3345ZM5.25816 55.6164H9.42449C9.59106 55.6206 9.75268 55.5595 9.87469 55.446C9.93646 55.3967 9.98544 55.3332 10.0174 55.2609C10.0494 55.1886 10.0635 55.1096 10.0585 55.0308C10.0593 54.952 10.0429 54.8739 10.0104 54.8021C9.97787 54.7304 9.93008 54.6666 9.87033 54.6152C9.81072 54.5593 9.74064 54.5159 9.6641 54.4874C9.58756 54.4589 9.5061 54.4459 9.42449 54.4492H5.25816V55.6164Z" fill="white"/>
<path d="M20.3466 50.8945V52.228H17.2426V56.8838H15.6074V52.228H12.5078V50.8945H20.3466Z" fill="white"/>
<path d="M35.0584 50.8945V56.8838H33.4233V53.0891L30.9838 56.346H29.5805L27.141 53.0891V56.8838H25.5059V50.8945H27.2022L30.28 55.0914L33.3578 50.8945H35.0584Z" fill="white"/>
<path d="M42.4496 50.8951C42.9533 50.8828 43.4422 51.0661 43.8136 51.4065C43.9921 51.5589 44.1348 51.7488 44.2316 51.9627C44.3283 52.1766 44.3767 52.4091 44.3734 52.6438V55.1357C44.3767 55.3704 44.3283 55.6029 44.2316 55.8168C44.1348 56.0307 43.9921 56.2206 43.8136 56.373C43.4422 56.7134 42.9533 56.8967 42.4496 56.8844H37.7676C37.264 56.8957 36.7755 56.7126 36.4035 56.373C36.226 56.2198 36.084 56.0297 35.9874 55.816C35.8907 55.6023 35.8417 55.3702 35.8438 55.1357V52.6438C35.8417 52.4093 35.8907 52.1771 35.9874 51.9635C36.084 51.7498 36.226 51.5597 36.4035 51.4065C36.7755 51.0669 37.264 50.8838 37.7676 50.8951H42.4496ZM37.7017 52.4339C37.6298 52.4941 37.5724 52.5699 37.5338 52.6555C37.4953 52.741 37.4765 52.8342 37.479 52.9281V54.8515C37.4785 54.9456 37.4982 55.0388 37.5366 55.1248C37.575 55.2107 37.6313 55.2875 37.7017 55.35C37.853 55.4821 38.0476 55.5536 38.2483 55.551H41.9688C42.1694 55.5491 42.363 55.4764 42.5152 55.3457C42.5854 55.2839 42.6416 55.2079 42.6801 55.1227C42.7185 55.0374 42.7384 54.945 42.7382 54.8515V52.9281C42.7404 52.8336 42.7216 52.7398 42.683 52.6536C42.6444 52.5673 42.5871 52.4908 42.5152 52.4295C42.4436 52.3591 42.3579 52.3048 42.2637 52.2702C42.1695 52.2355 42.0689 52.2214 41.9688 52.2286H38.2483C38.1481 52.2246 38.0482 52.2407 37.9543 52.276C37.8604 52.3112 37.7745 52.3649 37.7017 52.4339Z" fill="white"/>
<path d="M53.0029 50.8945V52.228H49.8988V56.8838H48.2637V52.228H45.1641V50.8945H53.0029Z" fill="white"/>
<path d="M60.3969 50.8951C60.9006 50.8828 61.3894 51.0661 61.7609 51.4065C61.9394 51.5589 62.0821 51.7488 62.1789 51.9627C62.2756 52.1766 62.324 52.4091 62.3207 52.6438V55.1357C62.324 55.3704 62.2756 55.6029 62.1789 55.8168C62.0821 56.0307 61.9394 56.2206 61.7609 56.373C61.3894 56.7134 60.9006 56.8967 60.3969 56.8844H55.7148C55.2113 56.8957 54.7228 56.7126 54.3508 56.373C54.1733 56.2198 54.0313 56.0297 53.9346 55.816C53.838 55.6023 53.789 55.3702 53.7911 55.1357V52.6438C53.789 52.4093 53.838 52.1771 53.9346 51.9635C54.0313 51.7498 54.1733 51.5597 54.3508 51.4065C54.7228 51.0669 55.2113 50.8838 55.7148 50.8951H60.3969ZM55.649 52.4339C55.577 52.4941 55.5197 52.5699 55.4811 52.6555C55.4425 52.741 55.4237 52.8342 55.4262 52.9281V54.8515C55.4258 54.9456 55.4455 55.0388 55.4839 55.1248C55.5223 55.2107 55.5786 55.2875 55.649 55.35C55.8002 55.4821 55.9949 55.5536 56.1956 55.551H59.9161C60.1167 55.5491 60.3102 55.4764 60.4624 55.3457C60.5326 55.2839 60.5889 55.2079 60.6273 55.1227C60.6658 55.0374 60.6856 54.945 60.6855 54.8515V52.9281C60.6877 52.8336 60.6688 52.7398 60.6302 52.6536C60.5917 52.5673 60.5343 52.4908 60.4624 52.4295C60.3909 52.3591 60.3051 52.3048 60.2109 52.2702C60.1167 52.2355 60.0162 52.2214 59.9161 52.2286H56.1956C56.0954 52.2246 55.9955 52.2407 55.9016 52.276C55.8077 52.3112 55.7219 52.3649 55.649 52.4339H55.649Z" fill="white"/>
</svg>
