<?xml version="1.0" encoding="utf-8"?>
<!-- Generator: Adobe Illustrator 23.0.1, SVG Export Plug-In . SVG Version: 6.00 Build 0)  -->
<svg version="1.1" id="Layer_1" xmlns="http://www.w3.org/2000/svg" xmlns:xlink="http://www.w3.org/1999/xlink" x="0px" y="0px"
	 viewBox="0 0 144.39 194.05" style="enable-background:new 0 0 144.39 194.05;" xml:space="preserve">
<style type="text/css">
	.st0{fill-rule:evenodd;clip-rule:evenodd;fill:#FFFFFF;}
	.st1{fill:none;stroke:#FFFFFF;stroke-width:7;stroke-miterlimit:2.613;}
	.st2{fill-rule:evenodd;clip-rule:evenodd;}
	.st3{fill-rule:evenodd;clip-rule:evenodd;fill:#ED1B2E;}
	.st4{fill:#FFFFFF;}
</style>
<path class="st0" d="M3.5,80.25V14.31C3.5,8.34,8.42,3.5,14.49,3.5h115.42c6.07,0,10.99,4.84,10.99,10.81v165.43
	c0,5.97-4.92,10.81-10.99,10.81H14.49c-6.07,0-10.99-4.84-10.99-10.81V80.25z"/>
<path class="st1" d="M3.5,80.25V14.31C3.5,8.34,8.42,3.5,14.49,3.5h115.42c6.07,0,10.99,4.84,10.99,10.81v165.43
	c0,5.97-4.92,10.81-10.99,10.81H14.49c-6.07,0-10.99-4.84-10.99-10.81V80.25z"/>
<path class="st2" d="M3.41,74.02v105.75c0,5.97,4.92,10.81,10.98,10.81h115.58c6.07,0,10.99-4.84,10.99-10.81V74.02H3.41"/>
<path class="st2" d="M140.96,76.89V14.32c0-5.97-4.92-10.81-10.99-10.81H14.4c-6.07,0-10.98,4.84-10.98,10.81v62.56H140.96"/>
<path class="st0" d="M72.25,146.42c37.11,0,67.2-29.61,67.2-66.13s-30.09-66.13-67.2-66.13S5.05,43.77,5.05,80.29
	S35.14,146.42,72.25,146.42"/>
<polyline class="st2" points="11.94,95.35 11.61,93.41 20.07,92.02 20.07,92 11.29,91.52 10.94,89.48 19.1,86.28 19.09,86.25 
	10.63,87.64 10.3,85.69 20.43,84.03 20.94,87.07 13.26,90.19 13.27,90.21 21.55,90.68 22.06,93.69 11.94,95.35 "/>
<path class="st2" d="M17.43,99.39l0.92,2.41l3.35-2.58L21.7,99.2L17.43,99.39 M13.34,99.56l-0.8-2.08l10.9-0.19l0.87,2.28l-8.33,6.9
	l-0.82-2.15l1.75-1.34l-1.34-3.49L13.34,99.56z"/>
<path class="st2" d="M24.38,109.48c0.57,0.94,1.19,1.2,2.06,0.69c0.47-0.28,1.03-0.89,0.38-1.95l-1.38-2.25l-2.35,1.39L24.38,109.48
	 M25.87,103.29l2.68,4.37c1.41,2.3-0.06,3.75-0.82,4.19c-0.97,0.57-2.09,0.58-2.91-0.1c0.12,0.9,0.08,1.44-1.56,2.42
	c-1.28,0.76-1.6,0.95-1.51,1.42l-0.23,0.14l-1.22-2c0.34-0.37,0.75-0.71,1.66-1.24c1.2-0.71,1.62-1.06,0.8-2.4l-1.14-1.87
	l-3.44,2.04l-1.08-1.77L25.87,103.29z"/>
<polyline class="st2" points="25.05,119.99 23.61,118.43 31.23,111.67 32.67,113.24 29.57,115.98 35.29,116.1 37.14,118.12 
	31.22,117.83 29.68,125.06 27.84,123.04 29.06,117.76 27.62,117.71 25.05,119.99 "/>
<polyline class="st2" points="43.07,124.75 38.72,121.52 37.42,123.22 41.42,126.18 40.32,127.61 36.33,124.64 34.73,126.73 
	39.27,130.1 38.17,131.53 31.96,126.91 38.14,118.85 44.16,123.33 43.07,124.75 "/>
<polyline class="st2" points="45.68,135.54 43.76,134.61 47.52,127.16 44.74,125.8 45.55,124.2 53.03,127.86 52.22,129.46 
	49.44,128.1 45.68,135.54 "/>
<path class="st2" d="M59.8,136.28l2.57,0.5l-0.47-4.16l-0.03-0.01L59.8,136.28 M57.79,139.79l-2.22-0.43l5.57-9.22l2.43,0.47
	l1.57,10.6l-2.29-0.44l-0.24-2.17l-3.72-0.72L57.79,139.79z"/>
<path class="st2" d="M69.05,138.26c0,0.56,0.27,1.64,2.14,1.67c1.01,0.02,2.15-0.2,2.17-1.27c0.01-0.79-0.76-1.01-1.84-1.29
	l-1.1-0.27c-1.65-0.41-3.25-0.8-3.21-3.03c0.02-1.12,0.67-3.1,4-3.04c3.15,0.05,3.95,2.1,3.95,3.33l-2.06-0.04
	c-0.05-0.45-0.2-1.52-2.07-1.56c-0.82-0.01-1.79,0.27-1.81,1.18c-0.01,0.79,0.64,0.97,1.07,1.07l2.49,0.65
	c1.4,0.36,2.67,0.95,2.64,2.76c-0.05,3.04-3.21,3.25-4.1,3.24c-3.75-0.07-4.35-2.2-4.33-3.45L69.05,138.26"/>
<path class="st2" d="M79.26,137.93c0.1,0.55,0.55,1.57,2.4,1.28c1-0.15,2.08-0.56,1.91-1.62c-0.12-0.78-0.92-0.87-2.03-0.95
	l-1.13-0.08c-1.7-0.12-3.34-0.24-3.69-2.44c-0.18-1.11,0.12-3.16,3.41-3.67c3.11-0.48,4.26,1.39,4.47,2.62l-2.03,0.31
	c-0.13-0.44-0.46-1.47-2.32-1.18c-0.81,0.12-1.72,0.56-1.57,1.47c0.12,0.78,0.8,0.84,1.24,0.88l2.57,0.22
	c1.44,0.12,2.8,0.48,3.08,2.27c0.48,3-2.59,3.75-3.48,3.88c-3.7,0.57-4.67-1.43-4.87-2.67L79.26,137.93"/>
<path class="st2" d="M92.55,136.44c1.09-0.38,2.39-1.58,1.42-4.24c-0.96-2.66-2.74-2.79-3.83-2.41c-1.09,0.38-2.39,1.58-1.42,4.25
	C89.69,136.7,91.46,136.83,92.55,136.44 M89.54,128.11c1.28-0.45,4.84-1.08,6.46,3.38c1.62,4.46-1.55,6.19-2.83,6.64
	c-1.28,0.45-4.84,1.08-6.46-3.38C85.09,130.28,88.26,128.56,89.54,128.11z"/>
<path class="st2" d="M102.49,125.8c-0.46-0.43-1.33-1.25-2.86-0.36c-0.89,0.51-1.84,1.86-0.36,4.31c0.94,1.56,2.41,2.6,3.97,1.69
	c1.02-0.59,1.39-1.58,0.97-2.77l1.84-1.07c0.77,2.1,0.31,4.15-1.91,5.44c-2.35,1.37-4.97,0.79-6.78-2.21
	c-1.83-3.04-0.97-5.63,1.3-6.95c2.64-1.54,4.79-0.37,5.66,0.86L102.49,125.8"/>
<polyline class="st2" points="111.62,127.55 109.93,128.86 103.57,120.94 105.25,119.63 111.62,127.55 "/>
<path class="st2" d="M113.04,121.15l1.82-1.85l-3.8-1.88l-0.02,0.02L113.04,121.15 M114.94,124.72l-1.57,1.6l-4.82-9.62l1.72-1.75
	l9.89,4.48l-1.62,1.65l-1.98-0.99l-2.64,2.68L114.94,124.72z"/>
<polyline class="st2" points="123.49,114.76 122.25,116.48 115.35,111.67 113.56,114.17 112.07,113.14 116.9,106.42 118.38,107.46 
	116.59,109.95 123.49,114.76 "/>
<polyline class="st2" points="127.77,107.57 126.78,109.44 117.67,104.78 118.66,102.91 127.77,107.57 "/>
<path class="st2" d="M129.19,100.35c0.39-1.07,0.26-2.82-2.44-3.77c-2.71-0.95-3.93,0.33-4.31,1.4c-0.39,1.07-0.26,2.82,2.44,3.77
	C127.59,102.7,128.8,101.42,129.19,100.35 M120.72,97.38c0.46-1.26,2.21-4.38,6.74-2.79c4.54,1.59,3.89,5.09,3.44,6.35
	s-2.21,4.38-6.74,2.79C119.62,102.15,120.27,98.64,120.72,97.38z"/>
<polyline class="st2" points="123.69,86.07 124,84.13 134.14,85.68 133.81,87.76 125.94,90.73 125.94,90.76 133.17,91.86 
	132.86,93.81 122.72,92.26 123.07,90.06 130.75,87.18 130.76,87.15 123.69,86.07 "/>
<path class="st2" d="M17.75,75.9c0.57,0.06,1.68-0.09,1.91-1.92c0.12-0.99,0.02-2.12-1.05-2.25c-0.8-0.1-1.1,0.63-1.49,1.66
	l-0.39,1.04c-0.59,1.57-1.15,3.09-3.4,2.82c-1.13-0.14-3.06-0.98-2.65-4.24c0.39-3.07,2.53-3.64,3.78-3.5l-0.26,2.01
	c-0.46,0-1.56,0.04-1.79,1.86c-0.1,0.79,0.08,1.78,1,1.89c0.79,0.1,1.05-0.52,1.2-0.93l0.92-2.37c0.51-1.33,1.24-2.51,3.07-2.29
	c3.06,0.38,2.94,3.48,2.83,4.36c-0.46,3.66-2.68,4.02-3.95,3.87L17.75,75.9"/>
<path class="st2" d="M17.82,63.85c0.46-1.51-0.63-1.83-1.07-1.96c-0.96-0.28-1.52,0.12-1.9,1.38l-0.49,1.6l2.89,0.85L17.82,63.85
	 M22.49,67.27l-0.62,2.02l-9.84-2.91l1.35-4.42c0.57-1.87,2.14-2.65,4.07-2.07c0.89,0.26,2.99,1.41,2.19,4.01l-0.71,2.32
	L22.49,67.27z"/>
<polyline class="st2" points="20.28,50.78 17.86,55.58 19.79,56.52 22.02,52.11 23.65,52.91 21.42,57.32 23.8,58.48 26.33,53.47 
	27.96,54.26 24.49,61.13 15.3,56.64 18.66,49.98 20.28,50.78 "/>
<path class="st2" d="M26.79,44.27c-0.6-0.22-1.72-0.64-2.78,0.76c-0.61,0.81-0.97,2.41,1.37,4.11c1.48,1.08,3.25,1.48,4.33,0.04
	c0.71-0.94,0.66-1.99-0.2-2.93l1.28-1.7c1.54,1.65,1.92,3.71,0.39,5.75c-1.63,2.16-4.28,2.63-7.12,0.55
	c-2.88-2.1-3.12-4.82-1.54-6.91c1.83-2.43,4.27-2.17,5.56-1.38L26.79,44.27"/>
<polyline class="st2" points="36.27,44.16 34.76,45.67 27.44,38.59 28.94,37.09 36.27,44.16 "/>
<path class="st2" d="M37.46,38l2.08-1.57l-3.48-2.41l-0.02,0.02L37.46,38 M38.81,41.81l-1.79,1.35l-3.35-10.21l1.96-1.48l9.13,5.85
	l-1.85,1.4l-1.81-1.26l-3.01,2.27L38.81,41.81z"/>
<polyline class="st2" points="47.09,34.11 51.64,31.85 52.49,33.48 46.02,36.7 41.38,27.69 43.3,26.74 47.09,34.11 "/>
<polyline class="st2" points="55.81,32.39 53.79,33.11 50.93,25.29 48.01,26.32 47.39,24.64 55.24,21.86 55.86,23.54 52.94,24.57 
	55.81,32.39 "/>
<polyline class="st2" points="63.88,30.42 61.77,30.81 61.06,27.06 56.41,21.52 58.89,21.07 61.8,24.99 62.98,20.32 65.37,19.88 
	63.17,26.7 63.88,30.42 "/>
<polyline class="st2" points="79.44,21.74 74,21.44 73.88,23.56 78.88,23.84 78.78,25.62 73.78,25.35 73.63,27.96 79.32,28.27 
	79.21,30.06 71.43,29.63 72,19.54 79.54,19.96 79.44,21.74 "/>
<path class="st2" d="M86.6,27.72l0.81,1.22c0.4-0.44,0.75-1.08,0.98-1.99c0.68-2.75-0.73-3.81-1.86-4.08
	c-1.12-0.27-2.88,0.03-3.56,2.78c-0.68,2.75,0.73,3.81,1.86,4.08c0.35,0.08,0.77,0.11,1.19,0.01l-0.77-1.17L86.6,27.72 M88.03,32.81
	l-0.9-1.39c-1.08,0.32-2.14,0.18-2.72,0.04c-1.32-0.32-4.65-1.71-3.51-6.32c1.14-4.61,4.76-4.33,6.08-4.01
	c1.32,0.32,4.65,1.71,3.51,6.32c-0.4,1.61-1.11,2.63-1.91,3.25l0.83,1.27L88.03,32.81z"/>
<path class="st2" d="M99.33,33.04c-1.14,2.41-3.11,2.76-5.46,1.69c-0.85-0.39-2.03-1.18-2.43-2.47c-0.24-0.79-0.08-1.62,0.33-2.55
	l2.88-6.07l1.98,0.91l-2.82,5.94c-0.61,1.28-0.12,2.18,0.79,2.6c1.33,0.61,2.18,0.23,2.71-0.88l2.86-6.03l1.98,0.91L99.33,33.04"/>
<polyline class="st2" points="101,38.37 99.2,37.23 104.74,28.73 106.54,29.87 101,38.37 "/>
<path class="st2" d="M109.21,37.76c1.23,1.01,1.96,0.15,2.26-0.19c0.64-0.76,0.48-1.42-0.54-2.26l-1.3-1.08l-1.94,2.28L109.21,37.76
	 M104.17,40.63l-1.65-1.36l6.6-7.74l3.6,2.97c1.52,1.26,1.63,2.98,0.33,4.5c-0.6,0.7-2.5,2.14-4.62,0.4l-1.89-1.56L104.17,40.63z"/>
<polyline class="st2" points="115.39,52.32 114.13,50.79 120.79,45.48 120.77,45.46 112.91,49.31 111.58,47.7 117.06,40.96 
	117.04,40.94 110.38,46.25 109.12,44.72 117.09,38.36 119.06,40.75 113.95,47.19 113.97,47.21 121.4,43.59 123.36,45.96 
	115.39,52.32 "/>
<polyline class="st2" points="127.26,56.71 124.76,51.95 122.85,52.92 125.14,57.3 123.53,58.12 121.23,53.74 118.87,54.94 
	121.48,59.92 119.86,60.74 116.29,53.92 125.41,49.29 128.88,55.89 127.26,56.71 "/>
<polyline class="st2" points="132.06,65.16 132.63,67.05 122.8,69.92 122.19,67.9 128,61.9 128,61.87 120.98,63.93 120.41,62.04 
	130.25,59.16 130.89,61.29 125.21,67.14 125.21,67.16 132.06,65.16 "/>
<polyline class="st2" points="123.52,75.67 123.28,73.58 131.67,72.63 131.32,69.6 133.12,69.39 134.07,77.56 132.27,77.76 
	131.92,74.73 123.52,75.67 "/>
<path class="st3" d="M72.3,126.21c25.78,0,46.69-20.57,46.69-45.94S98.09,34.32,72.3,34.32c-25.78,0-46.69,20.57-46.69,45.94
	S46.52,126.21,72.3,126.21"/>
<path class="st0" d="M44.74,56.28c-5.18,5.7-8.25,13.04-8.9,21.13l-0.01,0.08h13.45v36.68c-8.78-5.78-15.18-14.77-17.48-25.27
	l4.99,0.01c1.35,5.4,4.43,10.32,7.95,14.45V81.77l-13.84,0c-0.02-0.5-0.03-1-0.03-1.5c0-14.14,7.32-26.6,18.43-33.91v23.93h-4.56
	V56.28"/>
<path class="st0" d="M77.82,115.78l-6.88-41.45v46.69c-1.66-0.04-3.33-0.17-4.72-0.39V39.9c1.39-0.23,3.03-0.36,4.7-0.4l6.75,42.41
	l6.68-40.54c1.57,0.49,3.28,0.73,5.23,1.7v74.02c-1.27,0.63-3.14,1.37-4.66,1.86V74.45l0,0.04L77.82,115.78"/>
<path class="st0" d="M92.84,115.8c1.82-1,3.17-2.04,4.81-3.28l-0.01-29.85l0-0.98h11.21l-0.02,0.75l0.01,16.92
	c3.08-5.7,4.9-12.2,4.9-19.1c0-15.01-8.25-28.13-20.52-35.21l-0.38-0.29L92.84,115.8"/>
<path class="st3" d="M97.63,54.4c6.35,5.67,10.57,14.46,11.13,23.61l-0.14,0H97.63l0-0.75L97.63,54.4"/>
<path class="st0" d="M57.08,81.77v31.07c1.8,0.99,4.01,1.78,6.34,2.35v4.89c-3.91-0.85-7.65-2.23-11.06-4.08V44.53
	c3.43-1.86,7.12-3.25,11.06-4.1v4.92c-2.21,0.55-4.31,1.31-6.34,2.23V77.5l6.34-0.01v4.28L57.08,81.77"/>
<path class="st0" d="M12.39,163.2c0.01,0.5,0.28,1.45,2.03,1.45c0.95,0,2-0.21,2-1.16c0-0.7-0.72-0.89-1.74-1.11l-1.03-0.22
	c-1.55-0.34-3.04-0.66-3.04-2.64c0-1,0.57-2.76,3.68-2.76c2.94,0,3.72,1.8,3.74,2.9h-1.92c-0.05-0.4-0.21-1.35-1.96-1.35
	c-0.76,0-1.67,0.26-1.67,1.08c0,0.7,0.61,0.85,1.01,0.94l2.34,0.54c1.31,0.3,2.51,0.8,2.51,2.41c0,2.7-2.94,2.94-3.78,2.94
	c-3.5,0-4.1-1.89-4.1-3H12.39"/>
<path class="st0" d="M24.25,161.98c-0.11-1.07-0.84-1.4-1.44-1.4c-0.88,0-1.35,0.53-1.45,1.4H24.25 M26.09,164.02
	c-0.49,1.6-1.91,2.13-3.12,2.13c-2,0-3.54-0.9-3.54-3.64c0-0.8,0.29-3.36,3.4-3.36c1.4,0,3.34,0.62,3.34,3.66v0.31H21.3
	c0.05,0.5,0.16,1.63,1.67,1.63c0.52,0,1.06-0.25,1.2-0.73H26.09z"/>
<path class="st0" d="M27.66,159.31h1.79v1.15h0.03c0.39-0.68,0.81-1.33,1.95-1.33c0.12,0,0.24,0.01,0.36,0.02v1.78
	c-0.16-0.02-0.36-0.02-0.53-0.02c-1.46,0-1.72,0.85-1.72,1.59v3.46h-1.87V159.31"/>
<polyline class="st0" points="36.95,165.97 34.99,165.97 32.44,159.31 34.52,159.31 35.99,164.22 36.02,164.22 37.53,159.31 
	39.52,159.31 36.95,165.97 "/>
<path class="st0" d="M40.88,156.9h1.87v1.63h-1.87V156.9z M40.88,159.31h1.87v6.65h-1.87V159.31z"/>
<path class="st0" d="M51.22,165.97h-1.87v-4.04c0-0.49-0.03-1.31-1.22-1.31c-0.83,0-1.47,0.53-1.47,1.54v3.81H44.8v-6.65h1.79v0.98
	h0.03c0.25-0.4,0.79-1.15,2.14-1.15c1.39,0,2.47,0.76,2.47,2.23V165.97"/>
<path class="st0" d="M56.29,164.53c1.27,0,1.59-1.01,1.59-1.93c0-1.07-0.56-1.95-1.6-1.95c-0.69,0-1.47,0.47-1.47,2.02
	C54.81,163.53,55.18,164.53,56.29,164.53 M59.74,159.31v6.3c0,1.15-0.09,3.06-3.59,3.06c-1.47,0-3.02-0.59-3.1-2h2.03
	c0.08,0.34,0.23,0.68,1.31,0.68c1,0,1.48-0.45,1.48-1.53v-0.8L57.84,165c-0.31,0.51-0.77,1-1.89,1c-1.71,0-3.06-1.11-3.06-3.44
	c0-2.3,1.39-3.43,2.95-3.43c1.32,0,1.86,0.73,2.08,1.16h0.03v-0.99H59.74z"/>
<path class="st0" d="M71.72,159.31h1.16v1.25h-1.16v3.61c0,0.39,0.01,0.54,0.77,0.54c0.12,0,0.25-0.01,0.39-0.02v1.33
	c-0.29,0.01-0.59,0.03-0.88,0.03h-0.24c-1.62,0-1.91-0.57-1.91-1.44v-4.04h-0.96v-1.25h0.96v-1.8h1.87V159.31"/>
<path class="st0" d="M80.76,165.97h-1.87v-4.04c0-0.49-0.03-1.31-1.21-1.31c-0.83,0-1.47,0.53-1.47,1.54v3.81h-1.87v-8.98h1.87v3.19
	h0.03c0.24-0.55,1.04-1.04,2.06-1.04c1.39,0,2.47,0.76,2.47,2.23V165.97"/>
<path class="st0" d="M87.01,161.98c-0.11-1.07-0.84-1.4-1.44-1.4c-0.88,0-1.35,0.53-1.46,1.4H87.01 M88.86,164.02
	c-0.49,1.6-1.91,2.13-3.12,2.13c-2,0-3.54-0.9-3.54-3.64c0-0.8,0.29-3.36,3.4-3.36c1.4,0,3.34,0.62,3.34,3.66v0.31h-4.87
	c0.05,0.5,0.16,1.63,1.67,1.63c0.52,0,1.05-0.25,1.2-0.73H88.86z"/>
<polyline class="st0" points="107.77,165.97 105.9,165.97 105.9,158.46 105.87,158.46 104.08,165.97 102.12,165.97 100.37,158.46 
	100.35,158.46 100.35,165.97 98.48,165.97 98.48,156.99 101.4,156.99 103.14,164.07 103.16,164.07 104.87,156.99 107.77,156.99 
	107.77,165.97 "/>
<path class="st0" d="M113.03,160.62c-1.44,0-1.71,1.18-1.71,2.03c0,0.85,0.27,2.03,1.71,2.03s1.71-1.18,1.71-2.03
	C114.74,161.79,114.47,160.62,113.03,160.62 M113.03,166.14c-1.91,0-3.63-1.1-3.63-3.5c0-2.4,1.72-3.5,3.63-3.5
	c1.91,0,3.63,1.1,3.63,3.5C116.66,165.04,114.93,166.14,113.03,166.14z"/>
<path class="st0" d="M120.33,159.31h1.16v1.25h-1.16v3.61c0,0.39,0.01,0.54,0.77,0.54c0.12,0,0.25-0.01,0.39-0.02v1.33
	c-0.29,0.01-0.59,0.03-0.88,0.03h-0.24c-1.62,0-1.91-0.57-1.91-1.44v-4.04h-0.96v-1.25h0.96v-1.8h1.87V159.31"/>
<path class="st0" d="M126.16,160.62c-1.44,0-1.71,1.18-1.71,2.03c0,0.85,0.27,2.03,1.71,2.03c1.44,0,1.71-1.18,1.71-2.03
	C127.87,161.79,127.6,160.62,126.16,160.62 M126.16,166.14c-1.91,0-3.63-1.1-3.63-3.5c0-2.4,1.72-3.5,3.63-3.5
	c1.91,0,3.63,1.1,3.63,3.5C129.79,165.04,128.07,166.14,126.16,166.14z"/>
<path class="st0" d="M131.35,159.31h1.79v1.15h0.03c0.39-0.68,0.81-1.33,1.95-1.33c0.12,0,0.24,0.01,0.36,0.02v1.78
	c-0.16-0.02-0.36-0.02-0.53-0.02c-1.46,0-1.72,0.85-1.72,1.59v3.46h-1.87V159.31"/>
<polyline class="st0" points="16.52,172 18.6,172 15.34,180.98 13.43,180.98 10.2,172 12.35,172 14.41,178.81 14.44,178.81 
	16.52,172 "/>
<path class="st0" d="M23.98,176.99c-0.11-1.08-0.84-1.4-1.44-1.4c-0.88,0-1.35,0.53-1.46,1.4H23.98 M25.82,179.03
	c-0.49,1.6-1.91,2.13-3.12,2.13c-2,0-3.54-0.9-3.54-3.64c0-0.8,0.29-3.36,3.4-3.36c1.4,0,3.34,0.63,3.34,3.66v0.31h-4.87
	c0.05,0.5,0.16,1.62,1.67,1.62c0.52,0,1.06-0.25,1.2-0.73H25.82z"/>
<path class="st0" d="M33.56,180.98h-1.87v-4.04c0-0.49-0.03-1.31-1.21-1.31c-0.83,0-1.47,0.52-1.47,1.54v3.81h-1.87V172h1.87v3.19
	h0.03c0.24-0.55,1.04-1.04,2.06-1.04c1.39,0,2.47,0.76,2.47,2.23V180.98"/>
<path class="st0" d="M35.35,171.92h1.87v1.62h-1.87V171.92z M35.35,174.33h1.87v6.65h-1.87V174.33z"/>
<path class="st0" d="M45.12,178.56c-0.07,0.69-0.64,2.6-3.24,2.6c-2.67,0-3.28-1.91-3.28-3.31c0-2.15,1-3.69,3.4-3.69
	c1.12,0,2.96,0.47,3.14,2.55h-1.89c-0.08-0.44-0.37-1.12-1.24-1.07c-1.17,0-1.48,1.1-1.48,1.92c0,0.73,0.03,2.16,1.44,2.16
	c0.95,0,1.27-0.85,1.27-1.16H45.12"/>
<rect x="46.48" y="172" class="st4" width="1.87" height="8.98"/>
<path class="st0" d="M54.4,176.99c-0.11-1.08-0.84-1.4-1.44-1.4c-0.88,0-1.35,0.53-1.46,1.4H54.4 M56.24,179.03
	c-0.49,1.6-1.91,2.13-3.12,2.13c-2,0-3.54-0.9-3.54-3.64c0-0.8,0.29-3.36,3.4-3.36c1.4,0,3.34,0.63,3.34,3.66v0.31h-4.87
	c0.05,0.5,0.16,1.62,1.67,1.62c0.52,0,1.06-0.25,1.2-0.73H56.24z"/>
<path class="st0" d="M63.98,177.58h2.44l-1.19-3.55h-0.03L63.98,177.58 M62.77,180.98h-2.11l3.42-8.98h2.31l3.38,8.98h-2.18
	l-0.61-1.85h-3.54L62.77,180.98z"/>
<path class="st0" d="M73.07,180.98H71.2v-5.4h-1.03v-1.25h1.03v-0.54c0-1.38,0.8-1.9,2.08-1.9c0.55,0,0.8,0.01,0.96,0.02v1.41h-0.52
	c-0.64,0-0.65,0.19-0.65,0.74v0.26h1.21v1.25h-1.21V180.98"/>
<path class="st0" d="M77.44,174.33h1.16v1.25h-1.16v3.61c0,0.39,0.01,0.54,0.77,0.54c0.12,0,0.25-0.01,0.39-0.02v1.32
	c-0.29,0.01-0.59,0.02-0.88,0.02h-0.24c-1.62,0-1.91-0.58-1.91-1.44v-4.04h-0.96v-1.25h0.96v-1.8h1.87V174.33"/>
<path class="st0" d="M84.05,176.99c-0.11-1.08-0.84-1.4-1.44-1.4c-0.88,0-1.35,0.53-1.46,1.4H84.05 M85.89,179.03
	c-0.49,1.6-1.91,2.13-3.12,2.13c-2,0-3.54-0.9-3.54-3.64c0-0.8,0.29-3.36,3.4-3.36c1.4,0,3.34,0.63,3.34,3.66v0.31H81.1
	c0.05,0.5,0.16,1.62,1.67,1.62c0.52,0,1.05-0.25,1.2-0.73H85.89z"/>
<path class="st0" d="M87.2,174.33h1.79v1.15h0.03c0.39-0.68,0.81-1.33,1.95-1.33c0.12,0,0.24,0.01,0.36,0.02v1.78
	c-0.16-0.03-0.36-0.03-0.53-0.03c-1.45,0-1.72,0.85-1.72,1.59v3.46H87.2V174.33"/>
<path class="st0" d="M102.56,180.98h-1.87v-4.04c0-0.99-0.47-1.31-1.01-1.31c-0.93,0-1.27,0.57-1.27,1.36v3.99h-1.87v-4
	c0-0.56,0-1.35-1.12-1.35c-0.88,0-1.16,0.57-1.16,1.3v4.05h-1.87v-6.65h1.79v0.98h0.03c0.24-0.44,0.76-1.15,2.01-1.15
	c1.03,0,1.49,0.35,1.98,1.06c0.24-0.32,0.76-1.06,1.9-1.06c1.39,0,2.47,0.76,2.47,2.23V180.98"/>
<path class="st0" d="M108.19,177.74c-0.19,0.14-0.49,0.25-1.27,0.36c-0.69,0.11-1.27,0.27-1.27,1c0,0.61,0.51,0.8,0.87,0.8
	c0.83,0,1.67-0.5,1.67-1.31V177.74 M110.02,179.68c0,0.79,0.19,0.96,0.41,1.04v0.26h-2.02c-0.11-0.31-0.13-0.41-0.17-0.79
	c-0.43,0.41-1.03,0.96-2.29,0.96c-1.07,0-2.16-0.56-2.16-1.94c0-1.3,0.88-1.96,2.07-2.13l1.68-0.24c0.29-0.04,0.65-0.15,0.65-0.52
	c0-0.74-0.75-0.78-1.23-0.78c-0.93,0-1.1,0.54-1.15,0.93h-1.8c0.21-2.04,1.72-2.33,3.18-2.33c1,0,2.83,0.29,2.83,1.93V179.68z"/>
<path class="st0" d="M111.68,174.33h1.79v1.15h0.03c0.39-0.68,0.81-1.33,1.95-1.33c0.12,0,0.24,0.01,0.36,0.02v1.78
	c-0.16-0.03-0.36-0.03-0.53-0.03c-1.45,0-1.72,0.85-1.72,1.59v3.46h-1.87V174.33"/>
<polyline class="st0" points="118.8,180.98 116.94,180.98 116.94,172 118.8,172 118.8,176.85 121.15,174.33 123.45,174.33 
	120.94,176.9 123.52,180.98 121.27,180.98 119.58,178.13 118.8,178.88 118.8,180.98 "/>
<path class="st0" d="M128.56,176.99c-0.11-1.08-0.84-1.4-1.44-1.4c-0.88,0-1.35,0.53-1.46,1.4H128.56 M130.4,179.03
	c-0.49,1.6-1.91,2.13-3.12,2.13c-2,0-3.54-0.9-3.54-3.64c0-0.8,0.29-3.36,3.4-3.36c1.4,0,3.34,0.63,3.34,3.66v0.31h-4.87
	c0.05,0.5,0.16,1.62,1.67,1.62c0.52,0,1.05-0.25,1.2-0.73H130.4z"/>
<path class="st0" d="M133.82,174.33h1.16v1.25h-1.16v3.61c0,0.39,0.01,0.54,0.77,0.54c0.12,0,0.25-0.01,0.39-0.02v1.32
	c-0.29,0.01-0.59,0.02-0.88,0.02h-0.24c-1.61,0-1.91-0.58-1.91-1.44v-4.04h-0.96v-1.25h0.96v-1.8h1.87V174.33"/>
</svg>
