<?xml version="1.0" encoding="utf-8"?>
<!-- Generator: Adobe Illustrator 23.0.1, SVG Export Plug-In . SVG Version: 6.00 Build 0)  -->
<svg version="1.1" id="Layer_1" xmlns="http://www.w3.org/2000/svg" xmlns:xlink="http://www.w3.org/1999/xlink" x="0px" y="0px"
	 viewBox="0 0 437.73 93.01" style="enable-background:new 0 0 437.73 93.01;" xml:space="preserve">
<style type="text/css">
	.st0{fill:#FFFFFF;}
	.st1{fill:#EC1C24;}
	.st2{fill:url(#SVGID_1_);}
</style>
<path class="st0" d="M125.95,13.21c1.53-0.29,3.5-0.51,5.62-0.51c2.22,0,3.88,0.29,5.31,1.14c1.43,0.73,2.48,2.1,2.48,3.91
	c0,2.7-2,4.42-4.32,5.08v0.1c2.06,0.63,3.37,2.32,3.37,4.67c0,2.29-1.24,3.97-2.92,5.08c-1.81,1.21-4.51,1.75-8.07,1.75
	c-2.41,0-4.35-0.19-5.4-0.41L125.95,13.21z M127.1,30.75c0.54,0.06,1.08,0.09,1.75,0.09c2.48,0,4.73-0.99,4.73-3.37
	c0-2.13-1.78-2.76-3.91-2.76h-1.43L127.1,30.75z M128.94,21.38h1.52c2.51,0,4.23-1.08,4.23-2.89c0-1.56-1.27-2.22-3.02-2.22
	c-0.79,0-1.43,0.06-1.78,0.16L128.94,21.38z"/>
<path class="st0" d="M157.16,18.74l-2,10.48c-0.38,1.97-0.6,3.65-0.83,5.05h-4.04l0.29-2.54h-0.06c-1.59,2.03-3.49,2.89-5.37,2.89
	c-2.48,0-3.97-1.4-3.97-4.35c0-0.86,0.09-1.78,0.32-2.86l1.62-8.67h4.58l-1.56,8.32c-0.13,0.7-0.22,1.46-0.22,2.03
	c0,1.02,0.38,1.81,1.56,1.81c1.56,0,3.15-1.87,3.75-4.99l1.37-7.18H157.16z"/>
<path class="st0" d="M158.09,34.27l1.75-9.25c0.44-2.35,0.64-4.96,0.79-6.29h3.97c-0.1,1.05-0.19,2.1-0.29,3.18h0.09
	c1.08-2.07,2.83-3.53,4.96-3.53c0.29,0,0.57,0,0.86,0.03l-0.89,4.45c-0.22,0-0.48-0.03-0.73-0.03c-2.92,0-4.29,2.61-4.86,5.66
	l-1.08,5.78H158.09z"/>
<path class="st0" d="M170.77,36.43c0.86,0.51,2.76,0.86,4.07,0.86c2.29,0,4-1.02,4.64-4.13l0.25-1.3h-0.06
	c-1.21,1.56-2.6,2.29-4.45,2.29c-3.08,0-4.96-2.51-4.99-5.53c0-5.15,3.65-10.23,10.42-10.23c2.19,0,4.13,0.38,5.75,1.08l-2.35,12.8
	c-0.54,2.86-1.4,5.4-3.27,6.89c-1.68,1.33-3.94,1.75-6,1.75c-2.06,0-4-0.38-5.05-0.99L170.77,36.43z M181.44,22.17
	c-0.35-0.16-1.02-0.29-1.65-0.29c-2.76,0-4.73,3.08-4.73,6.04c0,1.56,0.7,2.7,2.1,2.7c1.49,0,3.02-1.65,3.5-4.29L181.44,22.17z"/>
<path class="st0" d="M200.48,33.38c-1.81,0.92-4.07,1.24-5.78,1.24c-4.45,0-6.74-2.54-6.74-6.58c0-4.73,3.43-9.66,9.05-9.66
	c3.14,0,5.4,1.75,5.4,4.64c0,3.97-3.85,5.4-10.07,5.24c0,0.44,0.16,1.14,0.48,1.59c0.6,0.79,1.65,1.21,2.99,1.21
	c1.68,0,3.11-0.38,4.35-0.99L200.48,33.38z M198.13,23.03c0-0.76-0.63-1.3-1.68-1.3c-2.13,0-3.33,1.75-3.65,3.21
	c3.56,0.03,5.34-0.48,5.34-1.88V23.03z"/>
<path class="st0" d="M203.41,34.27l1.75-9.25c0.45-2.35,0.64-4.96,0.79-6.29h3.97c-0.1,1.05-0.19,2.1-0.29,3.18h0.1
	c1.08-2.07,2.83-3.53,4.96-3.53c0.29,0,0.57,0,0.86,0.03l-0.89,4.45c-0.22,0-0.48-0.03-0.73-0.03c-2.92,0-4.29,2.61-4.86,5.66
	l-1.08,5.78H203.41z"/>
<path class="st0" d="M208.58,64.74l1.3-8.83c0.35-2.32,0.83-5.28,1.43-8.36h-0.1c-1.18,2.76-2.51,5.72-3.69,8.07l-4.39,8.77h-3.56
	l-0.76-8.67c-0.19-2.35-0.35-5.31-0.48-8.17h-0.06c-0.6,2.83-1.24,6.07-1.78,8.36l-2.13,8.83h-4.19l5.37-21.41h6.13l0.67,8.13
	c0.13,2,0.35,4.45,0.38,6.83h0.13c0.82-2.38,1.97-4.89,2.89-6.83l3.97-8.13h6.2l-2.89,21.41H208.58z"/>
<path class="st0" d="M232.99,55.24c0,5.69-3.88,9.85-9.28,9.85c-3.94,0-6.57-2.57-6.57-6.42c0-5.4,3.75-9.82,9.28-9.82
	C230.57,48.86,232.99,51.72,232.99,55.24z M221.87,58.58c0,1.81,0.89,3.02,2.48,3.02c2.51,0,3.91-3.65,3.91-6.32
	c0-1.43-0.6-2.95-2.45-2.95C223.17,52.32,221.83,56.16,221.87,58.58z"/>
<path class="st0" d="M243.13,44.98l-0.79,4.23h3.3l-0.67,3.46h-3.3l-1.05,5.28c-0.13,0.6-0.26,1.43-0.26,1.97
	c0,0.76,0.32,1.3,1.3,1.3c0.41,0,0.86,0,1.27-0.06l-0.54,3.59c-0.57,0.22-1.71,0.35-2.7,0.35c-2.73,0-4.03-1.43-4.03-3.37
	c0-0.86,0.09-1.68,0.32-2.89l1.21-6.17h-1.97l0.63-3.46h2l0.57-2.92L243.13,44.98z"/>
<path class="st0" d="M261.66,55.24c0,5.69-3.88,9.85-9.28,9.85c-3.94,0-6.58-2.57-6.58-6.42c0-5.4,3.75-9.82,9.28-9.82
	C259.24,48.86,261.66,51.72,261.66,55.24z M250.54,58.58c0,1.81,0.89,3.02,2.48,3.02c2.51,0,3.91-3.65,3.91-6.32
	c0-1.43-0.6-2.95-2.45-2.95C251.84,52.32,250.5,56.16,250.54,58.58z"/>
<path class="st0" d="M263.03,64.74l1.75-9.24c0.45-2.35,0.64-4.96,0.79-6.29h3.97c-0.09,1.05-0.19,2.1-0.29,3.18h0.1
	c1.08-2.06,2.83-3.53,4.96-3.53c0.29,0,0.57,0,0.86,0.03l-0.89,4.45c-0.22,0-0.48-0.03-0.73-0.03c-2.92,0-4.29,2.61-4.86,5.66
	l-1.08,5.78H263.03z"/>
<path class="st0" d="M275.36,60.64c0.89,0.44,2.58,1.08,4.07,1.08c1.3,0,1.97-0.64,1.97-1.4c0-0.76-0.51-1.3-1.94-2
	c-1.81-0.89-3.3-2.19-3.3-4.13c0-3.21,2.83-5.34,6.83-5.34c1.81,0,3.24,0.35,4,0.79l-1.08,3.24c-0.67-0.32-1.75-0.7-3.12-0.7
	c-1.21,0-2.03,0.54-2.03,1.37c0,0.64,0.64,1.18,1.91,1.78c1.68,0.86,3.46,2.1,3.46,4.26c0,3.56-3.02,5.53-7.12,5.5
	c-1.97-0.06-3.84-0.54-4.76-1.24L275.36,60.64z"/>
<path class="st0" d="M286.77,71.03l2.99-15.82c0.35-1.84,0.73-4.54,0.92-6.13h4.1l-0.29,2.38h0.06c1.27-1.69,3.11-2.61,4.99-2.61
	c3.37,0,4.99,2.7,4.99,5.88c0,5.4-3.59,10.36-8.99,10.36c-1.27,0-2.35-0.32-2.89-0.64h-0.06l-1.27,6.58H286.77z M293.28,60.87
	c0.51,0.48,1.21,0.76,2.1,0.76c2.45,0,4.35-3.5,4.35-6.55c0-1.24-0.51-2.54-2-2.54c-1.72,0-3.3,1.94-3.88,4.99L293.28,60.87z"/>
<path class="st0" d="M322.42,55.24c0,5.69-3.88,9.85-9.28,9.85c-3.94,0-6.58-2.57-6.58-6.42c0-5.4,3.75-9.82,9.28-9.82
	C320.01,48.86,322.42,51.72,322.42,55.24z M311.3,58.58c0,1.81,0.89,3.02,2.48,3.02c2.51,0,3.91-3.65,3.91-6.32
	c0-1.43-0.6-2.95-2.45-2.95C312.61,52.32,311.27,56.16,311.3,58.58z"/>
<path class="st0" d="M323.8,64.74l1.75-9.24c0.44-2.35,0.63-4.96,0.8-6.29h3.97c-0.09,1.05-0.19,2.1-0.29,3.18h0.1
	c1.08-2.06,2.82-3.53,4.96-3.53c0.29,0,0.57,0,0.86,0.03l-0.89,4.45c-0.22,0-0.48-0.03-0.73-0.03c-2.92,0-4.29,2.61-4.86,5.66
	l-1.08,5.78H323.8z"/>
<path class="st0" d="M345.15,44.98l-0.79,4.23h3.3l-0.67,3.46h-3.3l-1.05,5.28c-0.12,0.6-0.25,1.43-0.25,1.97
	c0,0.76,0.32,1.3,1.3,1.3c0.41,0,0.86,0,1.27-0.06l-0.54,3.59c-0.57,0.22-1.71,0.35-2.7,0.35c-2.73,0-4.03-1.43-4.03-3.37
	c0-0.86,0.09-1.68,0.32-2.89l1.21-6.17h-1.97l0.64-3.46h2l0.57-2.92L345.15,44.98z"/>
<path class="st0" d="M348.01,60.64c0.89,0.44,2.58,1.08,4.07,1.08c1.3,0,1.97-0.64,1.97-1.4c0-0.76-0.51-1.3-1.94-2
	c-1.81-0.89-3.3-2.19-3.3-4.13c0-3.21,2.83-5.34,6.83-5.34c1.81,0,3.24,0.35,4,0.79l-1.08,3.24c-0.67-0.32-1.75-0.7-3.11-0.7
	c-1.21,0-2.03,0.54-2.03,1.37c0,0.64,0.64,1.18,1.91,1.78c1.68,0.86,3.46,2.1,3.46,4.26c0,3.56-3.02,5.53-7.12,5.5
	c-1.97-0.06-3.84-0.54-4.76-1.24L348.01,60.64z"/>
<path class="st1" d="M162.32,92.48c125.24-3.24,221.05-21.13,221.05-42.7c0-23.87-117.3-43.23-261.99-43.23
	c-38.18,0-74.45,1.35-107.17,3.77c0,0-0.25,0.03-0.27-0.13c0,0-0.06-0.22,0.21-0.29C58.67,3.7,114.77,0,175.74,0
	c144.7,0,261.99,20.82,261.99,46.5s-117.3,46.5-261.99,46.5c-4.5,0-8.98-0.02-13.43-0.06c0,0-0.39,0.04-0.39-0.21
	C161.91,92.74,161.92,92.46,162.32,92.48z"/>
<linearGradient id="SVGID_1_" gradientUnits="userSpaceOnUse" x1="0" y1="45.6518" x2="183.3203" y2="45.6518">
	<stop  offset="0" style="stop-color:#FFFFFF"/>
	<stop  offset="0.0526" style="stop-color:#FFEFB6"/>
	<stop  offset="0.1109" style="stop-color:#FFE06B"/>
	<stop  offset="0.1593" style="stop-color:#FFD434"/>
	<stop  offset="0.1952" style="stop-color:#FFCD12"/>
	<stop  offset="0.2147" style="stop-color:#FFCA05"/>
	<stop  offset="0.254" style="stop-color:#FBA80B"/>
	<stop  offset="0.3054" style="stop-color:#F78312"/>
	<stop  offset="0.3611" style="stop-color:#F46317"/>
	<stop  offset="0.4211" style="stop-color:#F1491C"/>
	<stop  offset="0.487" style="stop-color:#EF3520"/>
	<stop  offset="0.5619" style="stop-color:#ED2722"/>
	<stop  offset="0.6535" style="stop-color:#EC1E24"/>
	<stop  offset="0.8098" style="stop-color:#EC1C24"/>
</linearGradient>
<path class="st2" d="M183.32,45.16h-15.58v15.16h-14.82V45h-15.39v15.32h-15.15V45.47h-15.2V30.38H91.81V15.22H76.28v15.16H61.33
	V15.22H45.58v15.16H30.35v15.17H15.13v15.15H0v15.39h15.39V60.93h14.96v14.78h15.39V60.86h15.36v14.85H76.5V60.86h15.09v14.85h15.56
	V60.86h14.95v14.85h15.75V60.64h14.69v15.08h15.39V60.66h15.39V45.16z M61.11,45.47H45.75V30.61h15.36V45.47z M61.33,45.77H76.5
	v14.55H61.33V45.77z M76.5,30.61h15.09v14.86H76.5V30.61z M91.89,45.77h15.09v14.55H91.89V45.77z M45.58,45.77v14.55H30.53V45.77
	H45.58z"/>
</svg>
