<?xml version="1.0" encoding="utf-8"?>
<!-- Generator: Adobe Illustrator 26.5.0, SVG Export Plug-In . SVG Version: 6.00 Build 0)  -->
<svg version="1.1"
	 id="svg1043" xmlns:svg="http://www.w3.org/2000/svg" xmlns:dc="http://purl.org/dc/elements/1.1/" xmlns:rdf="http://www.w3.org/1999/02/22-rdf-syntax-ns#" xmlns:cc="http://creativecommons.org/ns#"
	 xmlns="http://www.w3.org/2000/svg" xmlns:xlink="http://www.w3.org/1999/xlink" x="0px" y="0px" viewBox="0 0 440 113.4"
	 style="enable-background:new 0 0 440 113.4;" xml:space="preserve">
<style type="text/css">
	.st0{fill:#FFFFFF;}
</style>
<g id="layer1" transform="translate(-27.396145,-128.5)">
	<g>
		<path id="path78_00000163067355162606657370000002948300343693499812_" class="st0" d="M177.1,158.9c-2.1-2.8-5.5-4.3-9-4.3
			c-6.3,0-10.5,4.8-10.5,10.9c0,6.2,4.3,10.7,10.6,10.7c3.3,0,6.7-1.6,8.8-4.2v12.3c-3.4,1-5.8,1.8-9,1.8c-5.5,0-10.7-2.1-14.8-5.8
			c-4.3-3.9-6.3-9-6.3-14.9c0-5.4,2-10.5,5.8-14.4c3.9-4,9.4-6.4,15-6.4c3.3,0,6.3,0.7,9.3,2V158.9z"/>
		<path id="path82_00000018919836519947057260000013478973340297125021_" class="st0" d="M201.9,161.7c-0.5-2.6-2.8-4.2-5.4-4.2
			c-2.8,0-5.1,1.5-5.6,4.2H201.9z M210.7,167.2h-20c0,3.9,2,5.9,5.9,5.9c2,0,3.5-0.7,4.5-2.5h9.1c-0.7,3.1-2.6,5.4-5.1,6.9
			c-2.5,1.5-5.5,2.2-8.6,2.2c-8.9,0-15.5-5-15.5-14.2c0-8.9,6.1-14.3,14.8-14.3c9.3,0,14.7,5.7,14.7,14.9V167.2z"/>
		<path id="path86_00000016060954654358319890000017020390095278923944_" class="st0" d="M224.5,156.6h0.1c1.8-3.3,5-4.7,8.7-4.7
			h1.8v9.1c-1.3-0.7-2.6-0.9-4-0.9c-5.3,0-6.6,3.5-6.6,8.1V179H215v-26.8h9.5V156.6z"/>
		<path id="path90_00000096776330197822612020000005222054114633360788_" class="st0" d="M246.5,165.6c0,3.4,2.2,6,6.1,6
			c3.9,0,6.1-2.6,6.1-6c0-3.3-2.2-6.1-6.1-6.1C248.8,159.6,246.5,162.3,246.5,165.6 M267.9,179h-9.5v-3h-0.1c-1.7,2.7-5,3.9-8.1,3.9
			c-7.9,0-13.5-6.6-13.5-14.3c0-7.7,5.5-14.2,13.4-14.2c3.1,0,6.3,1.1,8.3,3.5v-2.6h9.5V179z"/>
		<path id="path94_00000113347544675538596800000002306744083386532238_" class="st0" d="M302.6,158.9c-2.1-2.8-5.5-4.3-9-4.3
			c-6.3,0-10.5,4.8-10.5,10.9c0,6.2,4.3,10.7,10.6,10.7c3.3,0,6.7-1.6,8.8-4.2v12.3c-3.4,1-5.8,1.8-9,1.8c-5.5,0-10.7-2.1-14.8-5.8
			c-4.3-3.9-6.3-9-6.3-14.9c0-5.4,2-10.5,5.8-14.4c3.9-4,9.4-6.4,15-6.4c3.3,0,6.3,0.7,9.3,2V158.9z"/>
		<path id="path98_00000116926629005332288100000010360860131287103635_" class="st0" d="M316.5,165.6c0,3.4,2.2,6,6.1,6
			s6.1-2.6,6.1-6c0-3.3-2.2-6.1-6.1-6.1S316.5,162.3,316.5,165.6 M337.9,179h-9.5v-3h-0.1c-1.7,2.7-5,3.9-8.1,3.9
			c-7.9,0-13.5-6.6-13.5-14.3c0-7.7,5.5-14.2,13.4-14.2c3.1,0,6.3,1.1,8.3,3.5v-2.6h9.5V179z"/>
		<path id="path102_00000161618494000141518900000005515043482932214921_" class="st0" d="M353.7,156.6h0.1c1.8-3.3,5-4.7,8.7-4.7
			h1.8v9.1c-1.3-0.7-2.6-0.9-4-0.9c-5.3,0-6.6,3.5-6.6,8.1V179h-9.5v-26.8h9.5V156.6z"/>
		<path id="path106_00000045621402819788282390000014942872560764567456_" class="st0" d="M376.7,165.6c0,3.4,2.2,6,6.1,6
			c3.9,0,6.1-2.6,6.1-6c0-3.3-2.2-6.1-6.1-6.1C379,159.6,376.7,162.3,376.7,165.6 M367.5,135.7h9.5v19.1c2-2.3,5.2-3.5,8.3-3.5
			c7.9,0,13.4,6.6,13.4,14.2c0,7.7-5.5,14.3-13.5,14.3c-3.1,0-6.4-1.2-8.1-3.9H377v3h-9.5V135.7z"/>
		<path id="path110_00000107560507419232833170000008588108628360352931_" class="st0" d="M411.5,165.6c0,3.4,2.2,6,6.1,6
			c3.9,0,6.1-2.6,6.1-6c0-3.3-2.2-6.1-6.1-6.1C413.7,159.6,411.5,162.3,411.5,165.6 M433.7,165.6c0,9.1-7.5,14.2-16.1,14.2
			c-8.6,0-16.1-5.1-16.1-14.2c0-9.1,7.5-14.3,16.1-14.3S433.7,156.5,433.7,165.6"/>
		<path id="path114_00000096038514170944506780000004334712951792663974_" class="st0" d="M447.5,155.7h0.1c2.2-3.2,4.9-4.3,8.6-4.3
			c7.2,0,10.1,4.5,10.1,11.1V179h-9.5v-13c0-2.6,0.4-7-4.3-7c-3.9,0-5,2.9-5,6.2V179H438v-26.8h9.5V155.7z"/>
		<path id="path118_00000142864475024382211850000003205525020301212572_" class="st0" d="M461.7,141.5c0.7,0,1.1-0.2,1.1-1
			c0-0.7-0.8-0.7-1.4-0.7H460v1.6H461.7z M463.9,145.2h-1.6l-1.4-2.7h-1v2.7h-1.4v-6.4h3.1c1.5,0,2.5,0.3,2.5,2
			c0,1.2-0.6,1.7-1.7,1.7L463.9,145.2z M465.7,142c0-2.8-2.1-4.7-4.7-4.7c-2.7,0-4.7,2-4.7,4.7c0,2.7,2,4.7,4.7,4.7
			C463.6,146.7,465.7,144.8,465.7,142 M454.8,142c0-3.4,2.7-6.2,6.2-6.2c3.4,0,6.2,2.8,6.2,6.2c0,3.4-2.7,6.2-6.2,6.2
			C457.5,148.2,454.8,145.4,454.8,142"/>
		<path id="path122_00000175307744764160121890000008575440099543539618_" class="st0" d="M109.8,167.5c-5.7-7.7-15-11.9-24.6-11.9
			c-17.1,0-28.7,13.1-28.7,29.8c0,17,11.7,29.3,29.1,29.3c9.1,0,18.3-4.4,24.1-11.4v33.6c-9.3,2.9-16,5-24.7,5
			c-15,0-29.3-5.7-40.4-15.8c-11.9-10.7-17.3-24.7-17.3-40.7c0-14.7,5.6-28.9,15.9-39.4c10.6-10.9,25.8-17.4,41-17.4
			c9,0,17.3,2,25.6,5.4V167.5z"/>
		<path id="path126_00000127729284302631726680000008835526241961135033_" class="st0" d="M98.5,187.4
			C98.5,187.4,98.5,187.4,98.5,187.4C98.5,187.4,98.5,187.4,98.5,187.4 M96.5,179.4C96.5,179.3,96.5,179.3,96.5,179.4
			C96.5,179.3,96.5,179.3,96.5,179.4"/>
		<path id="path130_00000009562923580068943830000013136190236783293605_" class="st0" d="M94.7,179.2c-1.9-2.6-5.1-4-8.3-4
			c-5.8,0-9.7,4.4-9.7,10.1c0,5.8,4,9.9,9.9,9.9c3.1,0,6.2-1.5,8.2-3.9v11.4c-3.1,1-5.4,1.7-8.4,1.7c-5.1,0-9.9-1.9-13.7-5.4
			c-4-3.6-5.8-8.4-5.8-13.8c0-5,1.9-9.8,5.4-13.3c3.6-3.7,8.7-5.9,13.9-5.9c3,0,5.8,0.7,8.6,1.8V179.2z"/>
		<path id="path190_00000091704133667070132610000001764659166348284820_" class="st0" d="M153.6,214.1h1.4c4.6,0,9.6-0.9,9.6-6.6
			c0-5.7-5.4-6.5-9.9-6.5h-1.2V214.1z M171.6,233.2h-5.5l-10.7-15.4h-1.9v15.4H149v-36.3h5.5c3.2,0,6.7,0,9.6,1.7
			c3,1.8,4.8,5.2,4.8,8.7c0,5.2-3.5,9.5-8.7,10.2L171.6,233.2z"/>
		<path id="path194_00000094583161215716689310000010278885794496595083_" class="st0" d="M217.6,205.3l-6.5,14.7H224L217.6,205.3z
			 M209.2,224.1l-4.1,9.1h-4.9l17.3-37.9l17.3,37.9H230l-4.1-9.1H209.2z"/>
		<path id="path198_00000170242085872015316830000012183394154464082605_" class="st0" d="M293.3,203.8c-2.6-2.3-6.2-3.6-9.6-3.6
			c-8.1,0-14.3,6.8-14.3,14.8c0,7.9,6.2,14.7,14.3,14.7c3.6,0,7-1.3,9.7-3.8v5.3c-2.8,1.6-6.4,2.6-9.5,2.6
			c-10.4,0-18.9-8.2-18.9-18.7c0-10.7,8.6-19.1,19.3-19.1c3.2,0,6.4,0.8,9.1,2.5V203.8z"/>
		<path id="path200_00000114063847695587378460000007524479162625884840_" class="st0" d="M331.9,233.2h-4.5v-36.3h4.5V233.2z"/>
		<path id="path204_00000107563872326690875910000017653306415304128951_" class="st0" d="M367.2,195.2l27.3,28.6v-26.8h4.5v37.8
			l-27.3-28.6v27.1h-4.5V195.2z"/>
		<path id="path208_00000075872726415949169860000011413960563158774713_" class="st0" d="M467.4,214.9v1.4c0,10-7,17.6-17.2,17.6
			c-10.2,0-18.3-8.8-18.3-18.8c0-10.4,8.4-19,18.8-19c5.6,0,11.2,2.6,14.8,7l-3.2,3c-2.6-3.6-7-5.9-11.4-5.9
			c-8.1,0-14.5,6.6-14.5,14.7c0,7.6,6.3,14.8,14.1,14.8c5.6,0,11.7-4.9,11.9-10.8H453v-4.1H467.4z"/>
	</g>
</g>
</svg>
