<svg version="1.2" xmlns="http://www.w3.org/2000/svg" viewBox="0 0 1734 317" width="142" height="26"><g><path fill-rule="evenodd" d="m609.1 39.6h193v27.8h-80.6v119.3h-31.8v-119.3h-80.6zm-68 0h31.7v147.1h-31.7zm1192.4 70.4v77.2h-31.7v-73.1c0-34.6-18.7-46-48.7-46h-76.8v119.1h-31.8v-146.9h116.1c51.1 0 72.9 30.5 72.9 69.7zm-313-98.4c0-5.9 4.6-10.7 10.3-10.7h46.7c5.3 0 10 4.8 10 10.7 0 5.7-4.7 10.5-10 10.5h-46.7c-5.7 0-10.3-4.8-10.3-10.5z"/><path fill-rule="evenodd" d="m959.5 129l81.3 57.7h-46l-97.8-73.1v-8.5h80.2c20.4 0.7 23.6-9.3 23.6-19.5 0-11.7-6.7-17.6-19.2-17.6h-111.5v119.2h-31.7v-146.9h143c32.8 0 52.2 16.6 52.2 44.6 0 31-14.5 43.1-58.4 44.1zm326.3-15.4v0.2c0 20.8-7.4 39.8-20.9 53.5-14.2 14.3-33.8 22.2-56.9 23h-0.5c-0.1 0-11 0.6-27.6 0.6-9.8 0-19.7-0.2-29.4-0.6-46.7-1.1-78-31.9-78-76.5v-0.2c0-20.8 7.4-39.8 21-53.5 14.1-14.3 33.7-22.2 56.8-23h0.5c0.1 0 11-0.6 27.7-0.6 9.7 0 19.6 0.2 29.3 0.6 46.7 2 78 32.8 78 76.5zm-33.8-0.5c0-28.7-17.7-46.6-47.4-48l-1.2-0.1c-7.8-0.3-11.8-0.5-21-0.5-16.3 0-28.3 0.6-28.4 0.6h-0.5-0.7c-28.7 1.3-46.5 19.7-46.5 48.2 0 28.8 18 47.2 46.9 48h0.5c8.6 0.4 17.9 0.6 27.6 0.6 14.5 0 21.2-0.5 22.9-0.6h0.7 0.6c28.6-1.3 46.4-19.6 46.5-48zm75.1-72.8h173.1v27.8h-141.4v31.7h124v26.6h-124v33h141.4v27.8h-173.1zm12.3-28.7c0-5.9 4.7-10.7 10.4-10.7h46.5c5.5 0 10.1 4.8 10.1 10.7 0 5.7-4.6 10.5-10.1 10.5h-46.5c-5.7 0-10.4-4.8-10.4-10.5zm-879.3 28.6c13 0 22.7 0.1 29 0.2v27.6c-9.4-0.1-78.7-0.2-83.2-0.2-16.1 0-27.7 0.5-27.8 0.5l-0.6 0.1h-0.6c-27.7 1.1-45.6 18.8-45.6 45.2 0 26.3 18.1 43.8 46.2 44.5 8.5 0.4 17.9 0.6 27.3 0.6 8 0 75.4-0.1 84.3-0.2v28c-5.9 0.2-25.8 0.3-46.6 0.3-16.1 0-55-0.1-67.8-0.6-45.8-1.1-76.6-30.3-76.6-72.6v-0.2c0-19.8 7.3-37.8 20.6-50.8 13.8-13.5 33.1-21.1 55.8-21.8h0.4c0.5 0 49.6-0.6 85.2-0.6zm454.2 214.1h48.1v12.4h-53.9c-23.2 0-29.2 12-29.2 18.7 0 12.8 9.5 18.6 29 18.6h54.1v12.4h-48.4c-39.7 0-61.2-9.8-61.2-31.4 0-20.7 22-30.7 61.5-30.7z"/><path fill-rule="evenodd" d="m1458.2 277.5v38.8h-25.7v-37.9c0-3.5-2.6-7.1-8.1-9.3-5.5-2.2-13.3-3.4-23.2-3.4-10.8 0-18.4 1.2-23.3 3.4-4.9 2.2-7.3 5.8-7.3 9.3v37.9h-25.6v-38.7c0-3.6 1.2-7.7 3.6-10.6 2.4-3 6-5.5 10.6-7.6 4.7-2.2 10.6-3.8 17.6-4.9 7.1-1.1 15.3-1.7 24.6-1.7 9 0 17.1 0.6 24.1 1.7 7.1 1.2 13.1 2.8 17.8 4.9 4.8 2.1 8.5 4.6 11.1 7.5 2.5 3 3.8 7 3.8 10.6zm-321-23.2h25.6v62h-25.6zm-803.1 45.4v16.7h-25.5v-21.4c0 0-0.6-12.8 15.8-12.8h52.4c9.7 0 15.7-2.1 15.7-7.9 0-5.6-6.3-7.6-18.2-7.6h-65.8v-12.4h65.6c28.5 0 43.2 8.2 43.2 19.9 0 12.9-13 18.1-18 19.4l19.8 22.7h-24.3l-15.3-18.6c0 0-2.6-2.8-7.2-2.8h-32.9c-4.9 0-5.3 4.8-5.3 4.8zm1315.1-14.4c0 13.6 12.5 18.7 28.9 18.7h29.1v-18.6h25.6v31h-54.7c-19.9 0-55.1-4.9-55.1-30.3 0-22.8 20.7-31.8 53.5-31.8h56.3v12.4h-56.4c-11.3 0-27.2 5.3-27.2 18.6z"/><path d="m694.4 316.3l-36.5-54.2c-4-6.3-8.7-9.3-23.8-9.3-15.6 0-22.1 6.6-23.8 9.3l-36.3 54.2h24.2l32.6-48.9c0.6-0.8 1.7-1.5 3.3-1.5 1.9 0 2.6 0.6 3.3 1.5 0.6 0.8 16.2 24.1 16.2 24.1h-23.8l-8.2 12.2h37.3c2 0 3.8 1.2 4.9 2.9l6.5 9.7z"/><path  d="m113.5 33.8c-62.4 0-113.2 63.1-113.2 140.5 0 77.4 50.8 140.4 113.2 140.4 62.4 0 113.2-63 113.2-140.4 0-77.4-50.8-140.5-113.2-140.5zm-92.3 189.1l-0.1-0.3c-3.8-11.6-4.9-21.8-4.9-21.9v-0.1l0.1-0.1 97.2-71.9 97.3 72v0.1c0 0.1-1.1 10.3-4.9 21.9l-0.1 0.3-0.3-0.2-92-68.3zm92.3 78.6c-32.4 0-62.8-20-81.5-53.8l-0.3-0.4 81.8-60.5 81.8 60.5-0.2 0.4c-18.8 33.7-49.2 53.8-81.6 53.8zm0-205.7l-99.8 74v-0.5c1-32.8 11.8-63.6 30.5-86.5 18.7-23 43.3-35.7 69.3-35.7 26 0 50.6 12.7 69.3 35.7 18.7 22.9 29.5 53.7 30.5 86.5v0.5l-0.4-0.3z"/></g></svg>
