<?xml version="1.0" encoding="UTF-8" standalone="no"?><!DOCTYPE svg PUBLIC "-//W3C//DTD SVG 1.1//EN" "http://www.w3.org/Graphics/SVG/1.1/DTD/svg11.dtd"><svg width="100%" height="100%" viewBox="0 0 3234 575" version="1.1" xmlns="http://www.w3.org/2000/svg" xmlns:xlink="http://www.w3.org/1999/xlink" xml:space="preserve" xmlns:serif="http://www.serif.com/" style="fill-rule:evenodd;clip-rule:evenodd;stroke-linejoin:round;stroke-miterlimit:2;"><g><path d="M194.854,59.2c25.154,-14.55 54.213,-22.9 85.196,-22.9c5.992,0 11.917,0.313 17.746,0.912c-28.758,-21.75 -64.371,-34.645 -102.929,-34.645c-38.559,0 -74.167,12.895 -102.917,34.645c5.842,-0.599 11.75,-0.912 17.738,-0.912c30.974,0 60.033,8.35 85.166,22.9Z" style="fill:#ed1b2e;fill-rule:nonzero;"/><path d="M345.004,76.229c-38.925,0 -59.95,46.696 -81.229,84.279l-14.129,24.921c-28.667,50.6 -75.554,50.6 -104.234,0l-14.095,-24.921c-22.109,-39.012 -58.567,-85.787 -93.259,-85.787c-34.687,0 -38.058,25.075 -38.058,51.512c0,97.284 194.867,266.071 194.867,266.071c0,0 194.871,-168.787 194.871,-266.071c0,-25.854 -5.83,-50.004 -44.734,-50.004Z" style="fill:#ed1b2e;fill-rule:nonzero;"/><path d="M127.671,91.496c-4.917,-0.867 -16.996,6.337 -2.996,20.612c7.475,7.605 31.725,40.046 31.725,40.046c0,0 -1.95,-14.746 -3.229,-23.425c-1.271,-8.646 -6.883,-33.946 -25.5,-37.233Z" style="fill:#ed1b2e;fill-rule:nonzero;"/><path d="M262.075,91.496c-18.625,3.287 -24.25,28.587 -25.521,37.233c-1.271,8.679 -3.225,23.425 -3.225,23.425c0,0 24.263,-32.441 31.721,-40.046c14.029,-14.275 1.933,-21.479 -2.975,-20.612Z" style="fill:#ed1b2e;fill-rule:nonzero;"/><path d="M3177.95,487.042l0,-18.117l-11.608,0l0,-3.546l27.095,0l0,3.546l-11.649,0l0,18.117l-3.838,0Z" style="fill:#ed1b2e;fill-rule:nonzero;"/><path d="M3226.81,487.042l0,-14.242c0,-2.562 -1.116,-3.875 -3.445,-3.875l-8.134,0l0,18.117l-3.837,0l0,-18.117l-11.546,0l0,18.117l-3.867,0l0,-21.663l28.18,0c4.416,0 6.491,2.363 6.491,7.038l0,14.625l-3.842,0Z" style="fill:#ed1b2e;fill-rule:nonzero;"/><path d="M567.033,392.329c-80.737,0 -118.233,-42.1 -118.233,-126.879l0,-136.679c0,-84.788 37.496,-126.888 118.233,-126.888l350.65,0l0,64.021l-336.229,0c-43.258,0 -62.867,23.067 -62.867,69.784l0,122.841c0,46.138 19.609,69.783 62.867,69.783l336.229,0l0,64.017l-350.65,0Z" style="fill:#fff;fill-rule:nonzero;"/><path d="M1394.06,135.688c0,-46.717 -19.608,-69.784 -62.287,-69.784l-238.767,0c-43.254,0 -62.862,23.067 -62.862,69.784l0,122.841c0,46.138 19.608,69.783 62.862,69.783l238.767,0c42.679,0 62.287,-23.645 62.287,-69.783l0,-122.841Zm-315.479,256.641c-80.737,0 -118.225,-42.1 -118.225,-126.879l0,-136.679c0,-84.788 37.488,-126.888 118.225,-126.888l267.608,0c80.742,0 117.651,42.1 117.651,126.888l0,136.679c0,84.779 -36.909,126.879 -117.651,126.879l-267.608,0Z" style="fill:#fff;fill-rule:nonzero;"/><path d="M1951.75,264.296c0,-32.296 -21.917,-44.408 -52.488,-44.408l-314.891,0l0,114.191l322.975,0c32.291,0 44.404,-16.146 44.404,-46.712l0,-23.071Zm-5.763,-158.025c0,-29.984 -12.116,-46.138 -44.408,-46.138l-317.208,0l0,105.546l311.437,0c29.988,0 50.179,-10.958 50.179,-45.566l0,-13.842Zm-431.4,286.058l0,-390.446l411.788,0c65.166,0 88.821,31.146 88.821,88.238l0,23.075c0,66.325 -36.342,77.283 -59.984,79.591c25.955,2.305 65.746,14.413 65.746,76.701l0,34.604c0,57.096 -23.646,88.237 -88.816,88.237l-417.555,0Z" style="fill:#fff;fill-rule:nonzero;"/><path d="M2501.3,106.271c0,-29.984 -12.112,-46.138 -44.408,-46.138l-317.208,0l0,134.959l311.437,0c29.996,0 50.179,-10.963 50.179,-45.567l0,-43.254Zm15.567,286.058c-6.342,-4.617 -9.804,-11.533 -9.804,-25.371l0,-72.091c0,-33.45 -21.913,-46.138 -54.209,-46.138l-313.17,0l0,143.6l-69.788,0l0,-390.446l411.792,0c65.171,0 88.812,31.146 88.812,88.238l0,48.45c0,66.321 -36.329,76.7 -59.975,79.587c25.946,2.305 65.746,14.992 65.746,76.709l0,72.091c0,13.838 4.038,20.754 9.808,25.371l-69.212,0Z" style="fill:#fff;fill-rule:nonzero;"/><path d="M3054.55,219.308l-320.084,0c-32.291,0 -44.4,16.155 -44.4,46.142l0,21.917c0,30.566 12.109,46.712 44.4,46.712l320.084,0l0,-114.771Zm-344.884,173.021c-65.166,0 -88.812,-31.141 -88.812,-88.237l0,-50.175c0,-57.096 23.646,-88.238 88.812,-88.238l344.884,0l0,-29.991c0,-46.717 -20.179,-69.784 -62.279,-69.784l-361.613,0l0,-64.021l376.029,0c80.167,0 117.075,42.1 117.075,126.888l0,263.558l-414.096,0Z" style="fill:#fff;fill-rule:nonzero;"/><path d="M2671.33,549.196c0,1.908 -1.421,3.458 -3.162,3.458l-138.205,0c-1.746,0 -3.162,-1.55 -3.162,-3.458l0,-58.296c0,-1.908 1.416,-3.467 3.162,-3.467l138.205,0c1.741,0 3.162,1.559 3.162,3.467l0,58.296Zm0.554,-83.688l-145.633,0c-10.775,0 -19.538,9.567 -19.538,21.329l0,66.413c0,11.771 8.763,21.346 19.538,21.346l145.633,0c10.771,0 19.538,-9.575 19.538,-21.346l0,-66.413c0,-11.762 -8.767,-21.329 -19.538,-21.329Z" style="fill:#ed1b2e;fill-rule:nonzero;"/><path d="M3123.9,465.1l-184.708,0l0,21.942l83.146,0l0,87.15l20.083,0l0,-87.15l81.479,0l0,-21.942Z" style="fill:#ed1b2e;fill-rule:nonzero;"/><path d="M2234.93,508.362l-140.033,-0.12c-1.779,0 -3.234,-1.584 -3.234,-3.517l0,-13.542c0,-1.95 1.455,-3.529 3.234,-3.529l159.579,0l0,-21.95l-163.517,0c-10.766,0 -19.521,9.575 -19.521,21.338l0,21.933c0,11.758 8.755,21.333 19.521,21.333l139.925,0c1.784,0 3.234,1.6 3.234,3.538l0,13.537c0,1.942 -1.45,3.534 -3.234,3.534l-159.637,0.108l0,21.946l163.683,0c10.775,0 19.546,-9.558 19.546,-21.342l0,-21.921c0,-11.775 -8.771,-21.346 -19.546,-21.346Z" style="fill:#ed1b2e;fill-rule:nonzero;"/><path d="M2891.76,504.346c0,1.891 -1.425,3.446 -3.167,3.462l-143.604,0l0,-20.15l143.604,-0.004c1.742,0 3.167,1.55 3.167,3.442l0,13.25Zm0.545,-38.642l-167.408,0l0,109.296l20.092,0l0,-45.196l123.829,-0.062l20.558,45.054l22.45,0l-20.566,-45.058l1.079,-0.005c10.758,-0.033 19.504,-9.629 19.504,-21.371l0,-21.32c0,-11.763 -8.767,-21.338 -19.538,-21.338Z" style="fill:#ed1b2e;fill-rule:nonzero;"/><path d="M2452.58,503.929c0,1.908 -1.421,3.45 -3.167,3.45l-139.133,-0.025l0,-20.121l139.133,0c1.746,0 3.167,1.559 3.167,3.463l0,13.233Zm0.554,-38.629l-162.946,0l0,109.296l20.092,0l0,-45.3l142.887,0.037c10.75,-0.054 19.505,-9.637 19.505,-21.375l0,-21.325c0,-11.762 -8.767,-21.333 -19.538,-21.333Z" style="fill:#ed1b2e;fill-rule:nonzero;"/><path d="M394.004,572.492l1623.81,0l0,-21.679l-1647.34,0c8.291,7.641 16.183,14.912 23.533,21.679Z" style="fill:#ed1b2e;fill-rule:nonzero;"/><path d="M276.838,464.363c21.141,19.545 42.358,39.141 62.329,57.57l1678.64,0l0,-57.57l-1740.97,0Z" style="fill:#ed1b2e;fill-rule:nonzero;"/></g></svg>