<svg xmlns:xlink="http://www.w3.org/1999/xlink" xmlns="http://www.w3.org/2000/svg" version="1.1" viewBox="0 0 290 90" height="90px" width="290px">
    <title>CSF-Duo-Logo-Wide-Light_1</title>
    <defs>
        <linearGradient id="linearGradient-1" y2="50.5328833%" x2="-14.6024625%" y1="49.6720726%" x1="97.8716052%">
            <stop offset="0%" stop-color="#35404D"></stop>
            <stop offset="13%" stop-color="#35404D"></stop>
            <stop offset="33%" stop-color="#515865"></stop>
            <stop offset="64%" stop-color="#787A86"></stop>
            <stop offset="81%" stop-color="#878893"></stop>
            <stop offset="100%" stop-color="#585762"></stop>
        </linearGradient>
        <linearGradient id="linearGradient-2" y2="49.4922413%" x2="101.021677%" y1="50.2040158%" x1="-0.179232264%">
            <stop offset="0%" stop-color="#414142"></stop>
            <stop offset="2%" stop-color="#414142"></stop>
            <stop offset="38%" stop-color="#96999B"></stop>
            <stop offset="72%" stop-color="#67686B"></stop>
            <stop offset="100%" stop-color="#67686B"></stop>
        </linearGradient>
        <linearGradient id="linearGradient-3" y2="49.2217143%" x2="100.666572%" y1="50.8328395%" x1="-1.11237615%">
            <stop offset="0%" stop-color="#231F20"></stop>
            <stop offset="18%" stop-color="#231F20"></stop>
            <stop offset="33%" stop-color="#231F20"></stop>
            <stop offset="47%" stop-color="#231F20"></stop>
            <stop offset="100%" stop-color="#231F20"></stop>
        </linearGradient>
        <linearGradient id="linearGradient-4" y2="47.0664276%" x2="2.36814284%" y1="53.6246036%" x1="108.201734%">
            <stop offset="0%" stop-color="#656668"></stop>
            <stop offset="20%" stop-color="#656668"></stop>
            <stop offset="36%" stop-color="#67686A"></stop>
            <stop offset="44%" stop-color="#6E6F71"></stop>
            <stop offset="50%" stop-color="#7B7C7D"></stop>
            <stop offset="54%" stop-color="#8D8E8F"></stop>
            <stop offset="59%" stop-color="#A5A6A7"></stop>
            <stop offset="63%" stop-color="#C2C3C3"></stop>
            <stop offset="66%" stop-color="#E4E4E5"></stop>
            <stop offset="69%" stop-color="#FFFFFF"></stop>
            <stop offset="70%" stop-color="#F3F4F4"></stop>
            <stop offset="74%" stop-color="#E1E3E3"></stop>
            <stop offset="79%" stop-color="#D7D9DA"></stop>
            <stop offset="84%" stop-color="#D4D6D7"></stop>
            <stop offset="91%" stop-color="#A2A4A6"></stop>
            <stop offset="100%" stop-color="#67686B"></stop>
        </linearGradient>
        <linearGradient id="linearGradient-5" y2="49.9446523%" x2="-6.02666037%" y1="50.2381429%" x1="106.444478%">
            <stop offset="0%" stop-color="#020000"></stop>
            <stop offset="57%" stop-color="#020000"></stop>
            <stop offset="69%" stop-color="#262526"></stop>
            <stop offset="84%" stop-color="#4F4F51"></stop>
            <stop offset="92%" stop-color="#5F6062"></stop>
            <stop offset="100%" stop-color="#5F6062"></stop>
        </linearGradient>
        <linearGradient id="linearGradient-6" y2="52.9142265%" x2="96.3060453%" y1="47.2961933%" x1="-0.368713212%">
            <stop offset="0%" stop-color="#96999B"></stop>
            <stop offset="37%" stop-color="#96999B"></stop>
            <stop offset="51%" stop-color="#C2C4C5"></stop>
            <stop offset="67%" stop-color="#EEEEEE"></stop>
            <stop offset="75%" stop-color="#FFFFFF"></stop>
            <stop offset="94%" stop-color="#BBBDBF"></stop>
            <stop offset="100%" stop-color="#BBBDBF"></stop>
        </linearGradient>
        <linearGradient id="linearGradient-7" y2="57.07247%" x2="99.1091227%" y1="42.7108738%" x1="0.837303285%">
            <stop offset="0%" stop-color="#423C3D"></stop>
            <stop offset="27%" stop-color="#423C3D"></stop>
            <stop offset="81%" stop-color="#020000"></stop>
            <stop offset="100%" stop-color="#020000"></stop>
        </linearGradient>
        <linearGradient id="linearGradient-8" y2="55.4244786%" x2="79.0747484%" y1="44.1725735%" x1="19.6242215%">
            <stop offset="0%" stop-color="#423E3D"></stop>
            <stop offset="24%" stop-color="#423E3D"></stop>
            <stop offset="81%" stop-color="#020000"></stop>
            <stop offset="100%" stop-color="#020000"></stop>
        </linearGradient>
        <linearGradient id="linearGradient-9" y2="49.9053173%" x2="-2.6825296%" y1="50.1690527%" x1="102.73156%">
            <stop offset="0%" stop-color="#514F4F"></stop>
            <stop offset="16%" stop-color="#514F4F"></stop>
            <stop offset="57%" stop-color="#020000"></stop>
            <stop offset="100%" stop-color="#020000"></stop>
        </linearGradient>
        <linearGradient id="linearGradient-10" y2="55.6365568%" x2="95.7809764%" y1="44.7932432%" x1="4.32308516%">
            <stop offset="0%" stop-color="#020000"></stop>
            <stop offset="19%" stop-color="#020000"></stop>
            <stop offset="60%" stop-color="#6F7073"></stop>
            <stop offset="75%" stop-color="#39383A"></stop>
            <stop offset="87%" stop-color="#110F10"></stop>
            <stop offset="94%" stop-color="#020000"></stop>
            <stop offset="100%" stop-color="#020000"></stop>
        </linearGradient>
        <linearGradient id="linearGradient-11" y2="49.9062744%" x2="-3.06442745%" y1="50.2022238%" x1="103.084451%">
            <stop offset="0%" stop-color="#5F6062"></stop>
            <stop offset="16%" stop-color="#5F6062"></stop>
            <stop offset="57%" stop-color="#020000"></stop>
            <stop offset="100%" stop-color="#020000"></stop>
        </linearGradient>
        <linearGradient id="linearGradient-12" y2="-442.151128%" x2="-609.377966%" y1="-440.616331%" x1="-564.652088%">
            <stop offset="0%" stop-color="#020000"></stop>
            <stop offset="57%" stop-color="#020000"></stop>
            <stop offset="69%" stop-color="#262526"></stop>
            <stop offset="84%" stop-color="#4F4F51"></stop>
            <stop offset="92%" stop-color="#5F6062"></stop>
            <stop offset="100%" stop-color="#5F6062"></stop>
        </linearGradient>
        <linearGradient id="linearGradient-13" y2="56.5847192%" x2="86.9813269%" y1="44.1092424%" x1="16.2261814%">
            <stop offset="0%" stop-color="#656668"></stop>
            <stop offset="15%" stop-color="#656668"></stop>
            <stop offset="87%" stop-color="#020000"></stop>
            <stop offset="100%" stop-color="#020000"></stop>
        </linearGradient>
        <linearGradient id="linearGradient-14" y2="-416.280596%" x2="-456.520567%" y1="-423.694871%" x1="-492.694472%">
            <stop offset="0%" stop-color="#656668"></stop>
            <stop offset="15%" stop-color="#656668"></stop>
            <stop offset="87%" stop-color="#020000"></stop>
            <stop offset="100%" stop-color="#020000"></stop>
        </linearGradient>
        <linearGradient id="linearGradient-15" y2="53.4093994%" x2="101.866111%" y1="47.7528548%" x1="-7.85762886%">
            <stop offset="0%" stop-color="#020000"></stop>
            <stop offset="19%" stop-color="#020000"></stop>
            <stop offset="60%" stop-color="#6F7073"></stop>
            <stop offset="75%" stop-color="#39383A"></stop>
            <stop offset="87%" stop-color="#110F10"></stop>
            <stop offset="94%" stop-color="#020000"></stop>
            <stop offset="100%" stop-color="#020000"></stop>
        </linearGradient>
        <linearGradient id="linearGradient-16" y2="83.1489237%" x2="3.22081833%" y1="17.0205713%" x1="99.9655874%">
            <stop offset="0%" stop-color="#CECFD1"></stop>
            <stop offset="3%" stop-color="#CECFD1"></stop>
            <stop offset="5%" stop-color="#B7B8BB"></stop>
            <stop offset="9%" stop-color="#8D8D94"></stop>
            <stop offset="14%" stop-color="#686771"></stop>
            <stop offset="19%" stop-color="#484753"></stop>
            <stop offset="25%" stop-color="#2F2D3B"></stop>
            <stop offset="31%" stop-color="#1B1829"></stop>
            <stop offset="38%" stop-color="#0D0A1B"></stop>
            <stop offset="46%" stop-color="#050214"></stop>
            <stop offset="60%" stop-color="#030012"></stop>
            <stop offset="69%" stop-color="#040113"></stop>
            <stop offset="72%" stop-color="#0B081A"></stop>
            <stop offset="74%" stop-color="#171425"></stop>
            <stop offset="76%" stop-color="#272534"></stop>
            <stop offset="77%" stop-color="#3D3C49"></stop>
            <stop offset="79%" stop-color="#585762"></stop>
            <stop offset="80%" stop-color="#787880"></stop>
            <stop offset="81%" stop-color="#9C9DA2"></stop>
            <stop offset="82%" stop-color="#B6B8BB"></stop>
            <stop offset="84%" stop-color="#9C9DA2"></stop>
            <stop offset="86%" stop-color="#83838B"></stop>
            <stop offset="88%" stop-color="#6F6F78"></stop>
            <stop offset="91%" stop-color="#61606B"></stop>
            <stop offset="94%" stop-color="#595864"></stop>
            <stop offset="100%" stop-color="#575662"></stop>
        </linearGradient>
        <linearGradient id="linearGradient-17" y2="23.7652326%" x2="58.2588593%" y1="89.3123876%" x1="37.7904602%">
            <stop offset="0%" stop-color="#100014"></stop>
            <stop offset="16%" stop-color="#100014"></stop>
            <stop offset="35%" stop-color="#362B3A"></stop>
            <stop offset="64%" stop-color="#6F6B73"></stop>
            <stop offset="86%" stop-color="#929296"></stop>
            <stop offset="97%" stop-color="#A0A2A4"></stop>
            <stop offset="100%" stop-color="#A0A2A4"></stop>
        </linearGradient>
        <linearGradient id="linearGradient-18" y2="7.10257426%" x2="70.5088652%" y1="93.1298018%" x1="30.5456069%">
            <stop offset="0%" stop-color="#040013"></stop>
            <stop offset="16%" stop-color="#040013"></stop>
            <stop offset="20%" stop-color="#0A0619"></stop>
            <stop offset="56%" stop-color="#46454F"></stop>
            <stop offset="83%" stop-color="#6B6D71"></stop>
            <stop offset="97%" stop-color="#7A7C7F"></stop>
            <stop offset="100%" stop-color="#7A7C7F"></stop>
        </linearGradient>
        <linearGradient id="linearGradient-19" y2="79.5351165%" x2="76.6986494%" y1="16.6792414%" x1="25.5378499%">
            <stop offset="0%" stop-color="#EE6622"></stop>
            <stop offset="23%" stop-color="#D92C25"></stop>
            <stop offset="28%" stop-color="#D51F26"></stop>
            <stop offset="40%" stop-color="#E75823"></stop>
            <stop offset="44%" stop-color="#EE6E22"></stop>
            <stop offset="71%" stop-color="#DB1F26"></stop>
        </linearGradient>
        <linearGradient id="linearGradient-20" y2="81.3026791%" x2="31.4206202%" y1="29.147411%" x1="71.8673119%">
            <stop offset="0%" stop-color="#816C62"></stop>
            <stop offset="23%" stop-color="#816C62"></stop>
            <stop offset="25%" stop-color="#68574F"></stop>
            <stop offset="28%" stop-color="#493C36"></stop>
            <stop offset="31%" stop-color="#2F2622"></stop>
            <stop offset="34%" stop-color="#1A1513"></stop>
            <stop offset="38%" stop-color="#0C0908"></stop>
            <stop offset="43%" stop-color="#040201"></stop>
            <stop offset="51%" stop-color="#020000"></stop>
            <stop offset="53%" stop-color="#0A0707"></stop>
            <stop offset="57%" stop-color="#231C1C"></stop>
            <stop offset="62%" stop-color="#4A3E3D"></stop>
            <stop offset="67%" stop-color="#766463"></stop>
            <stop offset="74%" stop-color="#5B4E4D"></stop>
            <stop offset="84%" stop-color="#3C3434"></stop>
            <stop offset="93%" stop-color="#292425"></stop>
            <stop offset="99%" stop-color="#231F20"></stop>
            <stop offset="100%" stop-color="#231F20"></stop>
        </linearGradient>
        <linearGradient id="linearGradient-21" y2="80.2417351%" x2="31.1436817%" y1="27.6381621%" x1="72.8647045%">
            <stop offset="0%" stop-color="#020000"></stop>
            <stop offset="19%" stop-color="#020000"></stop>
            <stop offset="23%" stop-color="#816C62"></stop>
            <stop offset="25%" stop-color="#7A6058"></stop>
            <stop offset="27%" stop-color="#765852"></stop>
            <stop offset="31%" stop-color="#755650"></stop>
            <stop offset="32%" stop-color="#6C504A"></stop>
            <stop offset="35%" stop-color="#4C3733"></stop>
            <stop offset="39%" stop-color="#312320"></stop>
            <stop offset="43%" stop-color="#1C1312"></stop>
            <stop offset="47%" stop-color="#0D0807"></stop>
            <stop offset="52%" stop-color="#040101"></stop>
            <stop offset="60%" stop-color="#020000"></stop>
            <stop offset="64%" stop-color="#060303"></stop>
            <stop offset="67%" stop-color="#120E0D"></stop>
            <stop offset="71%" stop-color="#26211E"></stop>
            <stop offset="75%" stop-color="#423B36"></stop>
            <stop offset="78%" stop-color="#665D54"></stop>
            <stop offset="82%" stop-color="#928579"></stop>
            <stop offset="83%" stop-color="#A49688"></stop>
            <stop offset="84%" stop-color="#8F8377"></stop>
            <stop offset="85%" stop-color="#6A6057"></stop>
            <stop offset="87%" stop-color="#49423C"></stop>
            <stop offset="89%" stop-color="#2F2A26"></stop>
            <stop offset="91%" stop-color="#1B1715"></stop>
            <stop offset="93%" stop-color="#0C0A09"></stop>
            <stop offset="96%" stop-color="#040202"></stop>
            <stop offset="100%" stop-color="#020000"></stop>
        </linearGradient>
        <linearGradient id="linearGradient-22" y2="85.8102452%" x2="31.4251378%" y1="24.2992912%" x1="69.5319086%">
            <stop offset="0%" stop-color="#A89D00"></stop>
            <stop offset="1%" stop-color="#A89D00"></stop>
            <stop offset="8%" stop-color="#020000"></stop>
            <stop offset="12%" stop-color="#372726"></stop>
            <stop offset="16%" stop-color="#755551"></stop>
            <stop offset="20%" stop-color="#9B726C"></stop>
            <stop offset="21%" stop-color="#AA7D77"></stop>
            <stop offset="22%" stop-color="#9D7772"></stop>
            <stop offset="22%" stop-color="#8A6F6C"></stop>
            <stop offset="22%" stop-color="#7C6A67"></stop>
            <stop offset="23%" stop-color="#746664"></stop>
            <stop offset="24%" stop-color="#726664"></stop>
            <stop offset="30%" stop-color="#4C4C4E"></stop>
            <stop offset="33%" stop-color="#504F52"></stop>
            <stop offset="37%" stop-color="#5E5B5F"></stop>
            <stop offset="41%" stop-color="#756D74"></stop>
            <stop offset="42%" stop-color="#81777F"></stop>
            <stop offset="48%" stop-color="#8F808A"></stop>
            <stop offset="48%" stop-color="#897B85"></stop>
            <stop offset="50%" stop-color="#6B6269"></stop>
            <stop offset="52%" stop-color="#595358"></stop>
            <stop offset="53%" stop-color="#534E52"></stop>
            <stop offset="60%" stop-color="#020000"></stop>
            <stop offset="69%" stop-color="#030101"></stop>
            <stop offset="72%" stop-color="#0A0804"></stop>
            <stop offset="74%" stop-color="#16130B"></stop>
            <stop offset="76%" stop-color="#272214"></stop>
            <stop offset="78%" stop-color="#3E3620"></stop>
            <stop offset="79%" stop-color="#59502F"></stop>
            <stop offset="81%" stop-color="#7A6E40"></stop>
            <stop offset="82%" stop-color="#9F8F54"></stop>
            <stop offset="82%" stop-color="#A69658"></stop>
            <stop offset="85%" stop-color="#8D845F"></stop>
            <stop offset="89%" stop-color="#716F67"></stop>
            <stop offset="91%" stop-color="#67686B"></stop>
            <stop offset="100%" stop-color="#67686B"></stop>
        </linearGradient>
        <linearGradient id="linearGradient-23" y2="-2.08785194%" x2="52.6045427%" y1="107.590346%" x1="46.9461739%">
            <stop offset="0%" stop-color="#808184"></stop>
            <stop offset="11%" stop-color="#808184"></stop>
            <stop offset="53%" stop-color="#373541"></stop>
            <stop offset="60%" stop-color="#3C3A46"></stop>
            <stop offset="70%" stop-color="#4C4B55"></stop>
            <stop offset="80%" stop-color="#66676E"></stop>
            <stop offset="91%" stop-color="#8B8D90"></stop>
            <stop offset="94%" stop-color="#96999B"></stop>
            <stop offset="100%" stop-color="#96999B"></stop>
        </linearGradient>
    </defs>
    <g fill-rule="evenodd" fill="none" stroke-width="1" stroke="none" id="Page-1">
        <g fill-rule="nonzero" id="CSF-Duo-Logo-Wide-Light_1">
            <g fill="#FFFFFF" transform="translate(0.8365, 80.2873)" id="Group">
                <path id="Path" d="M0.000452657097,5.46311851 L0.000452657097,0.134891815 L1.75404625,0.134891815 L1.75404625,5.3956726 C1.75404625,7.3380242 2.63084305,8.17453452 4.15493949,8.17453452 C5.67903594,8.17453452 6.54270568,7.3380242 6.54270568,5.3956726 L6.54270568,0.134891815 L8.26913985,0.134891815 L8.26913985,5.46311851 C8.26913985,8.214821 6.71788398,9.71221068 4.14135978,9.71221068 C1.56483558,9.71221068 0,8.214821 0,5.46311851 L0.000452657097,5.46311851 Z"></path>
                <polygon points="12.0732701 0.134891815 13.8268637 0.134891815 13.8268637 8.0935089 18.7639946 8.0935089 18.7639946 9.57731886 12.0732701 9.57731886" id="Path"></polygon>
                <polygon points="22.5409655 1.61870178 19.4112943 1.61870178 19.4112943 0.134891815 27.4237776 0.134891815 27.4237776 1.61870178 24.2941064 1.61870178 24.2941064 9.57731886 22.5405128 9.57731886 22.5405128 1.61870178" id="Path"></polygon>
                <polygon points="30.0949071 0.134891815 31.8485007 0.134891815 31.8485007 9.57731886 30.0949071 9.57731886" id="Path"></polygon>
                <polygon points="44.4205989 9.57731886 44.4070192 3.31842918 41.3045075 8.49818434 40.522316 8.49818434 37.4198043 3.39900214 37.4198043 9.57731886 35.7472363 9.57731886 35.7472363 0.134891815 37.1907598 0.134891815 40.9410238 6.3937815 44.6233893 0.134891815 46.0669128 0.134891815 46.0804925 9.57731886 44.4215042 9.57731886" id="Path"></polygon>
                <path id="Shape" d="M56.101868,7.3918904 L51.3806544,7.3918904 L50.4499914,9.57731886 L48.6425317,9.57731886 L52.8916238,0.134891815 L54.618058,0.134891815 L58.8807299,9.57731886 L57.0461107,9.57731886 L56.101868,7.3918904 L56.101868,7.3918904 Z M55.5220142,6.01626548 L53.7412612,1.88848541 L51.9740879,6.01626548 L55.5220142,6.01626548 Z"></path>
                <polygon points="62.8736181 1.61870178 59.743947 1.61870178 59.743947 0.134891815 67.7564302 0.134891815 67.7564302 1.61870178 64.6267591 1.61870178 64.6267591 9.57731886 62.8731655 9.57731886 62.8731655 1.61870178" id="Path"></polygon>
                <polygon points="77.5093801 8.10708861 77.5093801 9.57731886 70.4275598 9.57731886 70.4275598 0.134891815 77.3206221 0.134891815 77.3206221 1.60512207 72.1811534 1.60512207 72.1811534 4.06033416 76.7407683 4.06033416 76.7407683 5.50385764 72.1811534 5.50385764 72.1811534 8.10708861 77.5093801 8.10708861" id="Path"></polygon>
                <path id="Shape" d="M93.7910032,3.49360748 C93.7910032,5.57085089 92.253327,6.85232314 89.7709555,6.85232314 L87.6398459,6.85232314 L87.6398459,9.57731886 L85.8862523,9.57731886 L85.8862523,0.134891815 L89.7714082,0.134891815 C92.253327,0.134891815 93.7914558,1.40278434 93.7914558,3.49360748 L93.7910032,3.49360748 Z M92.0238299,3.49360748 C92.0238299,2.30674057 91.2280587,1.61870178 89.6903825,1.61870178 L87.6398459,1.61870178 L87.6398459,5.36851317 L89.6903825,5.36851317 C91.2280587,5.36851317 92.0238299,4.68047438 92.0238299,3.49360748 L92.0238299,3.49360748 Z"></path>
                <polygon points="103.975335 8.10708861 103.975335 9.57731886 96.8935149 9.57731886 96.8935149 0.134891815 103.786577 0.134891815 103.786577 1.60512207 98.6471085 1.60512207 98.6471085 4.06033416 103.206723 4.06033416 103.206723 5.50385764 98.6471085 5.50385764 98.6471085 8.10708861 103.975335 8.10708861" id="Path"></polygon>
                <path id="Shape" d="M113.458049,9.57731886 L111.529277,6.81203666 C111.407965,6.82561637 111.286653,6.82561637 111.164888,6.82561637 L109.033778,6.82561637 L109.033778,9.57731886 L107.280185,9.57731886 L107.280185,0.134891815 L111.165341,0.134891815 C113.647259,0.134891815 115.185388,1.40278434 115.185388,3.49360748 C115.185388,4.92355125 114.457063,5.97552634 113.175591,6.47480712 L115.347439,9.57731886 L113.458954,9.57731886 L113.458049,9.57731886 Z M111.083862,1.61870178 L109.033326,1.61870178 L109.033326,5.38209289 L111.083862,5.38209289 C112.621538,5.38209289 113.41731,4.68047438 113.41731,3.49360748 C113.41731,2.30674057 112.621538,1.61870178 111.083862,1.61870178 Z"></path>
                <polygon points="120.242926 1.60512207 120.242926 4.47813666 124.802541 4.47813666 124.802541 5.96194663 120.242926 5.96194663 120.242926 9.57731886 118.489332 9.57731886 118.489332 0.134891815 125.382395 0.134891815 125.382395 1.60512207 120.242926 1.60512207" id="Path"></polygon>
                <path id="Shape" d="M127.648396,4.85610534 C127.648396,2.06366371 129.806665,1.02922308e-14 132.733999,1.02922308e-14 C135.661332,1.02922308e-14 137.819601,2.05053665 137.819601,4.85610534 C137.819601,7.66167403 135.661332,9.71221068 132.733999,9.71221068 C129.806665,9.71221068 127.648396,7.64854697 127.648396,4.85610534 Z M136.052428,4.85610534 C136.052428,2.92733345 134.636064,1.53767616 132.733999,1.53767616 C130.831933,1.53767616 129.415569,2.92688079 129.415569,4.85610534 C129.415569,6.78532989 130.831933,8.17453452 132.733999,8.17453452 C134.636064,8.17453452 136.052428,6.78532989 136.052428,4.85610534 Z"></path>
                <path id="Shape" d="M147.207709,9.57731886 L145.278937,6.81203666 C145.157625,6.82561637 145.036313,6.82561637 144.914548,6.82561637 L142.783439,6.82561637 L142.783439,9.57731886 L141.029845,9.57731886 L141.029845,0.134891815 L144.915001,0.134891815 C147.39692,0.134891815 148.934596,1.40278434 148.934596,3.49360748 C148.934596,4.92355125 148.206271,5.97552634 146.924799,6.47480712 L149.096647,9.57731886 L147.208162,9.57731886 L147.207709,9.57731886 Z M144.833975,1.61870178 L142.783439,1.61870178 L142.783439,5.38209289 L144.833975,5.38209289 C146.371652,5.38209289 147.167423,4.68047438 147.167423,3.49360748 C147.167423,2.30674057 146.371652,1.61870178 144.833975,1.61870178 Z"></path>
                <polygon points="160.912808 9.57731886 160.899228 3.31842918 157.796717 8.49818434 157.014525 8.49818434 153.912014 3.39900214 153.912014 9.57731886 152.239446 9.57731886 152.239446 0.134891815 153.682969 0.134891815 157.433233 6.3937815 161.115599 0.134891815 162.559122 0.134891815 162.572702 9.57731886 160.913713 9.57731886" id="Path"></polygon>
                <path id="Shape" d="M172.59453,7.3918904 L167.873316,7.3918904 L166.942653,9.57731886 L165.135194,9.57731886 L169.384286,0.134891815 L171.11072,0.134891815 L175.373392,9.57731886 L173.538773,9.57731886 L172.59453,7.3918904 L172.59453,7.3918904 Z M172.014676,6.01626548 L170.233923,1.88848541 L168.46675,6.01626548 L172.014676,6.01626548 Z"></path>
                <polygon points="186.313209 0.134891815 186.313209 9.57731886 184.869685 9.57731886 179.66277 3.18353736 179.66277 9.57731886 177.922757 9.57731886 177.922757 0.134891815 179.36628 0.134891815 184.573195 6.52867331 184.573195 0.134891815 186.313209 0.134891815" id="Path"></polygon>
                <path id="Path" d="M189.523453,4.85610534 C189.523453,2.03695694 191.681722,1.02922308e-14 194.581896,1.02922308e-14 C196.119572,1.02922308e-14 197.441783,0.553146973 198.31858,1.5784153 L197.185579,2.6439701 C196.497541,1.90206512 195.647903,1.53767616 194.662921,1.53767616 C192.70699,1.53767616 191.290626,2.91375373 191.290626,4.85610534 C191.290626,6.79845694 192.70699,8.17453452 194.662921,8.17453452 C195.647451,8.17453452 196.497541,7.81014555 197.185579,7.05511352 L198.31858,8.13424804 C197.441783,9.15951636 196.119572,9.71266333 194.568316,9.71266333 C191.681722,9.71266333 189.523453,7.6757064 189.523453,4.856558 L189.523453,4.85610534 Z"></path>
                <polygon points="208.435466 8.10708861 208.435466 9.57731886 201.353646 9.57731886 201.353646 0.134891815 208.246708 0.134891815 208.246708 1.60512207 203.107239 1.60512207 203.107239 4.06033416 207.666854 4.06033416 207.666854 5.50385764 203.107239 5.50385764 203.107239 8.10708861 208.435466 8.10708861" id="Path"></polygon>
                <path id="Path" d="M216.137427,4.85610534 C216.137427,2.03695694 218.295696,1.02922308e-14 221.19587,1.02922308e-14 C222.733546,1.02922308e-14 224.055757,0.553146973 224.932554,1.5784153 L223.799553,2.6439701 C223.111515,1.90206512 222.261877,1.53767616 221.276895,1.53767616 C219.320964,1.53767616 217.9046,2.91375373 217.9046,4.85610534 C217.9046,6.79845694 219.320964,8.17453452 221.276895,8.17453452 C222.261425,8.17453452 223.111515,7.81014555 223.799553,7.05511352 L224.932554,8.13424804 C224.055757,9.15951636 222.733546,9.71266333 221.18229,9.71266333 C218.295696,9.71266333 216.137427,7.6757064 216.137427,4.856558 L216.137427,4.85610534 Z"></path>
                <path id="Shape" d="M227.090823,4.85610534 C227.090823,2.06366371 229.249092,1.02922308e-14 232.176426,1.02922308e-14 C235.103759,1.02922308e-14 237.262028,2.05053665 237.262028,4.85610534 C237.262028,7.66167403 235.103759,9.71221068 232.176426,9.71221068 C229.249092,9.71221068 227.090823,7.64854697 227.090823,4.85610534 Z M235.494855,4.85610534 C235.494855,2.92733345 234.078491,1.53767616 232.176426,1.53767616 C230.27436,1.53767616 228.857996,2.92688079 228.857996,4.85610534 C228.857996,6.78532989 230.27436,8.17453452 232.176426,8.17453452 C234.078491,8.17453452 235.494855,6.78532989 235.494855,4.85610534 Z"></path>
                <path id="Shape" d="M239.797813,4.85610534 C239.797813,2.06366371 241.956082,1.02922308e-14 244.883416,1.02922308e-14 C247.810749,1.02922308e-14 249.969018,2.05053665 249.969018,4.85610534 C249.969018,7.66167403 247.810749,9.71221068 244.883416,9.71221068 C241.956082,9.71221068 239.797813,7.64854697 239.797813,4.85610534 Z M248.201392,4.85610534 C248.201392,2.92733345 246.785028,1.53767616 244.882963,1.53767616 C242.980898,1.53767616 241.564534,2.92688079 241.564534,4.85610534 C241.564534,6.78532989 242.980898,8.17453452 244.882963,8.17453452 C246.785028,8.17453452 248.201392,6.78532989 248.201392,4.85610534 Z"></path>
                <polygon points="253.17881 0.134891815 254.932403 0.134891815 254.932403 8.0935089 259.869534 8.0935089 259.869534 9.57731886 253.17881 9.57731886 253.17881 0.134891815" id="Path"></polygon>
                <polygon points="262.607657 0.134891815 264.361251 0.134891815 264.361251 9.57731886 262.607657 9.57731886" id="Path"></polygon>
                <polygon points="276.649985 0.134891815 276.649985 9.57731886 275.206462 9.57731886 269.999547 3.18353736 269.999547 9.57731886 268.259533 9.57731886 268.259533 0.134891815 269.703057 0.134891815 274.909972 6.52867331 274.909972 0.134891815" id="Path"></polygon>
                <path id="Path" d="M286.982789,4.74837295 L288.64223,4.74837295 L288.64223,8.51176406 C287.657701,9.30753523 286.281623,9.71221068 284.946285,9.71221068 C282.018951,9.71221068 279.860682,7.67525374 279.860682,4.85610534 C279.860682,2.03695694 282.018951,1.02922308e-14 284.972991,1.02922308e-14 C286.551407,1.02922308e-14 287.873165,0.525987547 288.763542,1.53767616 L287.657248,2.61681068 C286.915343,1.8749057 286.065706,1.53767616 285.054017,1.53767616 C283.04422,1.53767616 281.627856,2.90017402 281.627856,4.85610534 C281.627856,6.81203666 283.04422,8.17453452 285.04089,8.17453452 C285.715349,8.17453452 286.376228,8.0396427 286.983242,7.68883345 L286.983242,4.74837295 L286.982789,4.74837295 Z"></path>
            </g>
            <rect height="74.1185257" width="1" y="2.63355899" x="144.729385" fill="#FFFFFF" id="Rectangle"></rect>
            <path fill="#FFFFFF" id="Path" d="M6.56757553,27.4631587 C6.89122535,26.4908513 7.39412739,25.6642994 8.07492366,24.9835032 C8.75571994,24.3027069 9.53338483,23.7436754 10.4088237,23.305956 C11.2838098,22.8682365 12.2321264,22.5445867 13.2533209,22.3331959 C14.2745153,22.1227103 15.2871092,22.0172412 16.2924606,22.0172412 L42.890139,22.0172412 C43.7972638,22.0172412 44.6889983,22.1313108 45.5644371,22.3576393 C46.4394233,22.5848732 47.1768017,22.9334192 47.777025,23.4028246 C48.376343,23.8731353 48.8059146,24.4480098 49.0657398,25.1288061 C49.3246596,25.8096024 49.3088166,26.5877199 49.0168528,27.4627061 L47.3637491,32.5686781 L37.055389,32.5686781 L38.222339,29.0189412 L16.3408949,29.0189412 L11.040733,45.3566938 L32.922177,45.3566938 L34.0406927,41.8558438 L44.3490528,41.8558438 L42.6959491,46.9129289 C42.4039853,47.7883677 41.9096837,48.5660326 41.2130444,49.2468289 C40.5154998,49.9276252 39.7129388,50.503405 38.8062666,50.9732631 C37.8982365,51.4435738 36.9340769,51.7921197 35.9128825,52.0189009 C34.8916881,52.2461348 33.9270758,52.3592991 33.0194983,52.3592991 L6.42181994,52.3592991 C5.41646853,52.3592991 4.4767524,52.2542826 3.60131357,52.0433444 C2.7263274,51.8328589 1.98849633,51.5083037 1.38872568,51.071037 C0.78850237,50.6333176 0.37522644,50.0742861 0.148897891,49.3934898 C-0.0778833144,48.7126935 -0.0457446605,47.8861417 0.246219167,46.9133815 L6.56757553,27.4636114 L6.56757553,27.4631587 Z"></path>
            <path fill="#FFFFFF" id="Path" d="M54.3962297,40.6888938 C53.5529296,40.6888938 52.774812,40.5920252 52.0623297,40.3973826 C51.3489422,40.2027401 50.7568667,39.8790903 50.2874613,39.4250752 C49.8171505,38.9715128 49.5093437,38.3880378 49.3635881,37.6746502 C49.2178325,36.9621679 49.3223963,36.0699808 49.6795428,35.0003521 L52.5000491,26.2966614 C52.6295091,25.843099 52.9454637,25.3650931 53.4483658,24.8621911 C53.9503625,24.3601943 54.5256897,23.8980314 55.1743473,23.4766077 C55.8225522,23.0556366 56.4870529,22.7070906 57.1678491,22.4314224 C57.8486454,22.1562069 58.4638064,22.0181465 59.0155954,22.0181465 L96.310919,22.0181465 L94.0254533,29.0198465 L62.8084092,29.0198465 L61.7387805,29.4086789 L60.5229435,33.1526058 L61.2037398,33.6876465 L85.9052376,33.6876465 C86.7480851,33.6876465 87.5343505,33.7849678 88.2635811,33.9791577 C88.9928117,34.1738002 89.5925823,34.4979027 90.0624404,34.9519178 C90.5318458,35.4063855 90.8319575,35.9898605 90.96187,36.7023428 C91.0908773,37.4157303 90.993556,38.3070122 90.6699062,39.3766409 L87.8498525,48.0803315 C87.6873486,48.5347993 87.3636988,49.0128052 86.8770924,49.5148019 C86.3909387,50.0177039 85.8319072,50.4794142 85.1995452,50.9003853 C84.5671832,51.3222617 83.9026826,51.6708076 83.2060433,51.9460232 C82.5084987,52.2216913 81.8688943,52.3592991 81.2854193,52.3592991 L44.0389827,52.3592991 L46.3244484,45.3571464 L77.4441711,45.3571464 L78.6111211,44.7736715 L79.7296368,41.2239345 L79.1461618,40.6888938 L54.3962297,40.6888938 Z"></path>
            <polygon points="137.186307 22.0172412 134.900842 29.0189412 107.37929 29.0189412 105.876469 33.6867412 120.318041 33.6867412 118.014016 40.6884411 103.572444 40.6884411 99.7936627 52.3583938 89.5337369 52.3583938 99.4043776 22.0163359 137.185855 22.0163359" fill="#FFFFFF" id="Path"></polygon>
            <g transform="translate(153.0759, 0)" id="Group">
                <path fill="url(#linearGradient-1)" id="Path" d="M129.043033,62.6223934 L126.450665,58.1433515 C126.450665,58.1433515 118.299216,51.560812 110.049541,51.7536439 C102.156106,51.938328 92.378713,55.043103 89.0317665,58.8997415 L89.1069075,63.1397805 C95.5948417,58.2492732 104.479143,55.1444982 111.934858,55.2286924 C118.295595,55.3015702 124.37478,60.0522065 129.043033,62.6223934 Z"></path>
                <path fill="url(#linearGradient-2)" id="Path" d="M3.14687214,64.9087644 C3.25777313,65.0463722 2.05844616e-14,62.5590215 2.05844616e-14,62.5590215 C2.05844616e-14,62.5590215 12.189603,54.0739642 20.1129128,53.8607627 C28.0362226,53.6471085 37.3347047,57.359802 42.1867361,60.8769477 L42.2854154,63.0936095 C33.3811976,58.8273163 32.6424612,57.5100842 24.4063654,57.2769658 C18.9477734,57.1226097 7.95182723,62.0343919 3.14641948,64.9087644 L3.14687214,64.9087644 Z"></path>
                <path fill="url(#linearGradient-3)" id="Path" d="M3.04276101,42.681943 L0.155714041,62.030318 L0.000452657097,62.5590215 C12.5897518,55.3545311 18.7390985,53.6973535 25.0396326,54.5981411 C35.7101184,56.1235955 37.0368563,59.3682416 49.1544868,64.2963194 C70.2623399,65.3347148 70.0252059,26.2169938 70.0252059,26.2169938 C70.0252059,26.2169938 53.9680424,32.4229226 40.7106213,29.9319505 C31.3324716,28.1693038 26.4501122,19.3424904 13.1723215,24.8984036 C10.0684518,26.1970768 8.35786064,27.1010331 5.28567692,28.8338044 L3.04321366,42.6823957 L3.04276101,42.681943 Z"></path>
                <path fill="url(#linearGradient-4)" id="Path" d="M4.35501393,38.4265136 L1.05604901,60.529307 C13.7539859,53.5565771 20.6040457,51.7559072 29.6060374,54.4682285 C34.2801746,55.8759921 43.0712281,60.1866456 53.5896211,60.3681611 C74.6947582,61.4061038 71.3364952,21.9615644 71.3364952,21.9615644 C71.3364952,21.9615644 55.2784847,28.1683985 42.0233269,25.6765212 C31.0115377,23.6060676 25.5045115,17.53322 5.77816785,28.8645851 L4.35501393,38.4269663 L4.35501393,38.4265136 Z"></path>
                <path fill="#060013" id="Shape" d="M0.87634414,60.7868689 L5.65006589,28.776317 L5.70845865,28.7428204 C13.6580226,24.1764156 19.9703258,22.0493799 25.5728627,22.0493799 C29.341233,22.0493799 32.4636617,22.9655578 35.7689638,23.9351493 C37.7416434,24.5140978 39.7813163,25.1120578 42.0491284,25.5384608 C44.1232032,25.9286512 46.4005211,26.1264623 48.8168046,26.1264623 L48.8186153,26.1264623 C60.04089,26.1260097 71.1748966,21.8737489 71.2862503,21.8307465 L71.459618,21.7637532 L71.475461,21.9493426 C71.4808928,22.0099987 71.9833422,28.0765091 71.3532435,35.2886946 C70.7706739,41.955881 69.0732097,50.9963486 64.2936035,56.2005472 C61.4767183,59.2677517 57.8685886,60.718065 53.5823786,60.5071268 C45.4159919,60.3663505 38.4242503,57.7925422 33.3191836,55.91311 C31.8684176,55.3789746 30.6150101,54.917717 29.5652983,54.6013097 C26.8869263,53.7942221 24.4172291,53.402221 22.0158832,53.402221 C16.4803396,53.402221 10.6225041,55.4346514 1.12304226,60.6515244 L0.87634414,60.7868689 L0.87634414,60.7868689 Z M5.9062698,28.9514953 L4.49307435,38.4473359 L1.23530122,60.2717451 C10.6347258,55.1304658 16.477171,53.1233843 22.0158832,53.1233843 C24.4452939,53.1233843 26.9407925,53.5194592 29.6458713,54.3346947 C30.7037309,54.6533653 31.960307,55.1159808 33.4155996,55.6514742 C38.5021074,57.5241166 45.4680474,60.088419 53.5918844,60.2282901 C53.8657419,60.2418698 54.1359782,60.2486596 54.3994246,60.2486596 C58.2465573,60.2486596 61.506141,58.8232424 64.0880971,56.0122419 C72.7207206,46.6132699 71.3731605,24.4131552 71.2115619,22.1571122 C69.7422369,22.6998481 59.3211652,26.4052991 48.8186153,26.4057518 L48.8168046,26.4057518 C46.3833201,26.4057518 44.0888013,26.20613 41.9975255,25.8132236 C39.7161337,25.3841047 37.669671,24.7838814 35.6906541,24.2031223 C32.4048163,23.2389627 29.3013992,22.3286693 25.5728627,22.3286693 C20.0346031,22.3286693 13.7847666,24.4330721 5.9062698,28.9514953 L5.9062698,28.9514953 Z"></path>
                <path fill="#231F20" id="Path" d="M133.909096,21.9470794 L126.419885,58.4665486 C116.318389,50.7347128 110.260479,50.7636828 100.445063,53.2732138 C95.2730025,54.5963305 90.9962983,57.6866205 86.9101627,60.0653335 C80.0646294,64.0514319 73.8659431,67.7360607 65.6977458,70.1609447 C42.6710792,74.5634877 62.5907075,33.5962098 62.5907075,33.5962098 C62.5907075,33.5962098 77.2115317,37.4229729 92.4366532,32.7746371 C105.081629,28.9107561 113.490187,21.8139982 129.920282,30.3099192 L133.909096,21.946174 L133.909096,21.9470794 Z"></path>
                <path fill="url(#linearGradient-5)" id="Path" d="M29.9998491,32.2717351 L30.7815879,22.8437931 C36.3881987,24.0333759 42.9978977,26.4048464 44.6890246,26.9376239 L42.3447135,36.1473852 C37.8620502,34.9025781 33.7338175,33.2947401 29.9998491,32.2717351 L29.9998491,32.2717351 Z"></path>
                <path fill="url(#linearGradient-6)" id="Path" d="M132.365536,31.2926378 L126.279108,57.9224548 C117.039472,51.0764689 111.393932,49.6130285 99.1898444,52.6014706 C93.2564152,54.0540473 81.6846891,59.6615634 70.3487974,61.5097623 C47.3230362,65.9095893 67.2422118,24.9450273 67.2422118,24.9450273 C67.2422118,24.9450273 82.1789907,27.6347158 97.0890628,24.1202861 C110.782845,20.8937463 118.140786,13.1605524 134.570881,21.6582841 L132.365536,31.2930904 L132.365536,31.2926378 Z"></path>
                <path fill="#050013" id="Shape" d="M67.1543963,61.9796204 C64.1166145,61.9796204 61.9076479,60.9099917 60.5876998,58.8006096 C58.2569684,55.0756943 58.6494221,48.2310664 61.7541971,38.457747 C64.060485,31.1984851 67.0864977,24.9459326 67.1168258,24.8834659 L67.1629968,24.788408 L67.2671079,24.8069669 C67.3218794,24.8169254 72.8094414,25.7887801 80.3249072,25.7887801 C86.3466046,25.7887801 91.9758482,25.181767 97.0573768,23.9840363 C100.590818,23.1515999 103.677034,22.0271997 106.661402,20.9399173 C111.287105,19.2546749 115.656152,17.6631326 120.630853,17.6631326 C125.018006,17.6631326 129.598443,18.9292145 134.635158,21.5342561 L134.731122,21.5840484 L132.466026,31.4700794 L126.367829,58.1619104 L126.196272,58.0347138 C119.455755,53.0400954 115.046875,51.2702061 109.348828,51.2702061 C106.528321,51.2702061 103.310382,51.7364429 99.223341,52.7372678 C97.094042,53.2587287 94.226912,54.3202096 90.9075775,55.5496263 C84.9954231,57.738676 77.6383873,60.4632191 70.371883,61.6478227 C69.2189653,61.8682667 68.1353042,61.9805257 67.154849,61.9805257 L67.1543963,61.9796204 Z M67.3227847,25.099836 C66.5188657,26.7859837 55.5351413,50.1987668 60.8244395,58.6525907 C62.0900687,60.6750626 64.2198203,61.7003309 67.1543963,61.7003309 C68.117198,61.7003309 69.1832054,61.5898826 70.3225433,61.3721545 C77.5659622,60.1911722 84.9094183,57.472061 90.8102562,55.2870852 C94.1377385,54.0549526 97.0116584,52.9907557 99.1563478,52.4656735 C103.266022,51.4594168 106.504783,50.9909167 109.348375,50.9909167 C115.786064,50.9909167 120.581966,53.5479766 126.190388,57.6839045 L132.193526,31.4080653 L134.410188,21.7325199 C129.452235,19.1822498 124.94377,17.942422 120.6304,17.942422 C115.705039,17.942422 111.358172,19.5258165 106.75646,21.2024584 C103.764397,22.2924567 100.670033,23.4195729 97.1207488,24.2560832 C92.0188507,25.4587931 86.3674268,26.0685222 80.3244545,26.0685222 C73.3544406,26.0685222 68.1190086,25.2347279 67.3223321,25.1002887 L67.3227847,25.099836 Z"></path>
                <path fill="url(#linearGradient-7)" id="Path" d="M134.570881,21.7972499 C132.353767,20.1310191 126.760736,18.324012 122.709907,18.0130365 L120.402261,27.9054047 C124.5486,28.0140424 129.363061,29.8287447 132.208011,31.9349582 L134.570428,21.7972499 L134.570881,21.7972499 Z"></path>
                <path fill="url(#linearGradient-8)" id="Path" d="M129.396558,43.8900848 C127.180801,42.2256647 121.778792,40.1090401 117.936638,40.0796174 L115.373241,51.8849144 C120.462917,53.4719302 123.289761,55.8216732 126.278656,57.9224548 L129.396105,43.8900848 L129.396558,43.8900848 Z"></path>
                <path fill="url(#linearGradient-9)" id="Path" d="M105.08525,30.6648024 L107.617867,20.8670395 C100.896362,23.5340951 92.9744098,24.8544959 90.9424321,25.6670154 L90.8030137,35.4878638 C96.1407462,33.4925513 101.682627,31.3655156 105.08525,30.665255 L105.08525,30.6648024 Z"></path>
                <path fill="url(#linearGradient-10)" id="Path" d="M120.402261,27.9054047 C115.136049,27.4590848 110.724453,28.8831441 105.001056,30.7557865 C104.267752,34.4585215 103.014797,39.7840323 102.156106,42.3682516 C106.442316,40.7070001 111.188879,39.5531771 117.716647,40.0207719 C118.479374,36.0654542 120.402714,27.9054047 120.402714,27.9054047 L120.402261,27.9054047 Z"></path>
                <path fill="url(#linearGradient-11)" id="Path" d="M99.7493286,52.4367034 L102.235774,42.3591985 C96.4050979,44.5437216 90.7206301,46.1040307 88.7805418,46.8812429 L87.4225705,56.7808536 C92.0881072,55.0367658 97.016185,53.2591814 99.7493286,52.4367034 Z"></path>
                <path fill="url(#linearGradient-12)" id="Path" d="M28.1063845,53.9254926 L29.0189412,44.1381409 C34.1738002,45.5712533 39.4259805,46.9432569 41.1211813,47.473771 L41.118918,59.1500609 C38.5695533,57.7803205 32.0042147,54.9589088 28.1063845,53.9254926 L28.1063845,53.9254926 Z"></path>
                <path fill="url(#linearGradient-13)" id="Path" d="M5.94338769,28.9849919 C8.90964964,26.8511663 15.1391166,24.3995755 17.203233,23.7278324 L16.364912,32.8497782 C12.9057065,33.6546025 7.42538702,36.1057407 4.44916661,38.8461268 L5.94338769,28.9849919 L5.94338769,28.9849919 Z"></path>
                <path fill="url(#linearGradient-14)" id="Path" d="M2.70507881,50.6066108 C5.57311418,48.5411365 11.1032259,45.6776277 14.821804,44.6614125 L13.8092101,54.6624184 C9.82492229,56.2136743 5.59936829,57.7133272 1.17057125,60.5288544 L2.70507881,50.6066108 L2.70507881,50.6066108 Z"></path>
                <path fill="url(#linearGradient-15)" id="Path" d="M16.364912,32.8497782 C21.7741643,31.581433 26.3464537,30.7557865 30.0863066,32.1458964 C29.7291602,35.9305624 29.1266736,42.6158551 29.0184885,44.1381409 C24.9699235,43.6827678 20.1396196,42.9820547 14.885176,44.7759347 C15.2215002,40.9179383 16.364912,32.8497782 16.364912,32.8497782 L16.364912,32.8497782 Z"></path>
                <path fill="url(#linearGradient-16)" id="Path" d="M67.7632201,74.1130939 C72.7161941,73.7346725 86.402734,68.4068985 92.2673594,61.0417149 C92.442085,60.8230815 89.465412,58.4615694 89.5124883,58.4507056 C89.4866869,58.4570428 91.2353012,57.0243831 92.6548339,54.648386 C95.5242272,49.8425256 96.77854,46.4512187 97.0831783,40.7291803 C97.3891745,35.0275115 96.0891433,29.1950248 93.7633911,24.9115307 C93.516693,24.4561576 94.0268375,24.8087775 93.7344211,24.3524992 C88.595405,16.3074246 79.798467,11.777685 68.8256063,12.313631 C51.4041926,13.1659843 36.5149427,27.6750023 35.5657208,44.7193526 C34.6196674,61.7650609 46.5684568,75.7295324 67.7632201,74.1126412 L67.7632201,74.1130939 Z"></path>
                <polygon points="74.565751 9.50670435 73.492501 0.109543018 77.2070051 3.61989881 78.2730126 10.7180147" fill="url(#linearGradient-17)" id="Path"></polygon>
                <polygon points="93.7262732 24.8780341 98.6828684 16.0005231 95.346333 12.2285315 90.2014324 20.2161186" fill="url(#linearGradient-18)" id="Path"></polygon>
                <path fill="url(#linearGradient-19)" id="Path" d="M90.2702363,20.2161186 L95.4151369,12.2285315 L86.8508646,4.97062758 L79.3643688,11.1607134 C77.8438937,10.4776538 76.2423928,9.92269623 74.565751,9.50715701 L73.492501,0.109995675 L61.5446169,0.693470673 L58.9753352,9.6053836 C56.4164646,10.2291451 53.9598946,11.1344593 51.6445535,12.2909982 L45.1864947,7.00803718 L35.7676058,15.1440958 L39.4513293,22.3322905 C35.4285657,27.559122 32.8316719,33.9827789 32.2966312,41.0550934 C31.0047479,58.1130234 44.7030569,71.2292155 62.1249233,70.3768622 C79.5454317,69.5258668 94.4383028,55.0182069 95.3829982,37.9743092 C95.7532717,31.3234185 93.6511321,25.0772032 90.2702363,20.2165713 L90.2702363,20.2161186 Z"></path>
                <path fill="#0B0000" id="Shape" d="M60.5252331,70.5203545 L60.5234225,70.5203545 C52.1266333,70.5203545 44.5455323,67.3300273 39.1761138,61.537827 C34.0873427,56.0489071 31.6072345,48.7719916 32.1920674,41.0469456 C32.7090018,34.2104654 35.1764357,27.7365636 39.3277539,22.3209741 L35.6367879,15.1182944 L45.1837788,6.87133473 L51.6572279,12.1669701 C53.9585366,11.022653 56.3911159,10.1318238 58.8906883,9.51756812 L61.4640439,0.592075483 L73.5843904,0 L74.6608089,9.42251013 C76.2749842,9.82718558 77.8511362,10.3703741 79.3476205,11.038496 L86.8513172,4.83392514 L95.5518393,12.2077093 L95.5024997,12.284661 L90.3951696,20.2138553 C94.0245743,25.4592458 95.8324867,31.7661171 95.4866567,37.9797411 C94.5406033,55.0485349 79.576665,69.6281673 62.1294499,70.4805207 C61.5948618,70.5067748 61.0548419,70.5203545 60.5247805,70.5203545 L60.5252331,70.5203545 Z M35.8975184,15.1694446 L39.5739994,22.343607 L39.5337129,22.3961152 C35.3828473,27.7899772 32.9163188,34.2448674 32.4002897,41.0627886 C31.8195306,48.7294418 34.2806273,55.9502278 39.3291119,61.3961454 C44.6586965,67.1448905 52.1859314,70.3116796 60.5234225,70.3116796 L60.5256858,70.3116796 C61.052126,70.3116796 61.5885246,70.2985525 62.1194914,70.272751 C79.4630481,69.425377 94.3382656,54.93356 95.2788871,37.9684247 C95.6238118,31.7778862 93.8140887,25.494553 90.1846841,20.2758694 L90.1448503,20.2183819 L90.1828735,20.1595365 L95.2784344,12.2484484 L86.8504119,5.10597206 L79.3815698,11.2815728 L79.3222717,11.2548661 C77.7977226,10.5704485 76.1889793,10.0159436 74.5413075,9.60719423 L74.4711456,9.5895406 L73.4006116,0.217275407 L61.6247372,0.79214992 L59.0590768,9.69048314 L59.0002314,9.70496816 C56.4734994,10.3210345 54.0142134,11.2218221 51.6911772,12.3828875 L51.6309738,12.4132156 L45.188758,7.14338165 L35.8984237,15.168992 L35.8975184,15.1694446 Z"></path>
                <path fill="#FFDD00" id="Shape" d="M60.8357559,67.5970949 L60.8330399,67.5970949 C53.2809089,67.5961896 46.4444288,64.7621035 41.5828916,59.6162977 C36.9078491,54.6678503 34.5544848,48.044119 34.9564443,40.96592 C35.8305252,25.5334815 49.5148019,12.345317 65.4614588,11.5676521 C65.9539497,11.5436613 66.4514198,11.5314396 66.9402895,11.5314396 C74.4910625,11.5314396 81.3266374,14.3646203 86.1886272,19.5090682 C90.8654804,24.4579683 93.2206552,31.0830575 92.8200537,38.1635199 C91.9455202,53.5964109 78.2594329,66.7841228 62.311418,67.5608824 C61.8193798,67.5848732 61.3228149,67.5970949 60.8362085,67.5970949 L60.8357559,67.5970949 Z M66.9402895,11.760484 C66.4550411,11.760484 65.9611922,11.7727058 65.4723225,11.796244 C49.6397352,12.568477 36.0527798,25.6597729 35.1850362,40.9785943 C34.7866979,47.9934214 37.117882,54.5564966 41.7494694,59.458773 C46.5670989,64.5584079 53.3447336,67.3671451 60.8330399,67.3680505 L60.8353032,67.3680505 C61.3182884,67.3680505 61.8112319,67.3558287 62.3001016,67.3322905 C78.1340469,66.5609629 91.7223603,53.4701196 92.5905566,38.1508455 C92.9875368,31.1337551 90.6545422,24.5688693 86.0215968,19.6665929 C81.2035146,14.568316 74.4272379,11.760484 66.9402895,11.760484 L66.9402895,11.760484 Z"></path>
                <path fill="url(#linearGradient-20)" id="Path" d="M58.070021,29.3154316 C57.2317001,29.1031354 56.4259704,28.9908764 55.5509843,29.0320682 C49.5071067,29.3145263 45.9460533,35.4733787 45.0321387,41.3570157 C44.5016245,44.7949463 44.8578657,48.6701437 46.5508032,51.131693 C47.6552865,52.7377204 51.8975888,48.6841761 51.8975888,48.6841761 C51.8975888,48.6841761 52.9210465,50.3590074 54.5510648,52.362015 L53.4470341,59.5135445 C52.2203334,60.6053534 50.6663615,61.0091236 49.5578043,61.0611791 C39.6428033,61.5265106 34.2675002,50.1118566 37.6913985,41.75128 C41.3325722,32.8724111 47.0107028,18.8513575 56.3739149,18.4127327 C56.3739149,18.4127327 58.0614205,21.9651856 59.1437237,22.3657872 L58.0695684,29.3154316 L58.070021,29.3154316 Z"></path>
                <path fill="url(#linearGradient-21)" id="Path" d="M72.8325269,30.2818545 C71.6519972,29.0275417 70.1193003,27.9909569 68.2276463,28.0814883 C66.1087584,28.1797149 64.2985827,29.6386288 64.1876817,31.9960669 C64.11073,33.6772354 64.112088,33.6894571 64.2193677,33.8152958 C67.7261022,37.8937362 68.7984469,43.0064981 67.7749892,47.8277489 C66.5252029,53.7136491 60.7452245,56.8913019 56.4798366,56.9388309 C54.9919528,56.9564846 51.1665476,56.0380433 51.1665476,56.0380433 L53.043264,59.6556788 C61.9886735,64.220273 68.1697062,59.6991339 71.7601823,49.8601793 C75.3325521,40.0732802 56.3752729,31.7525374 61.5120256,26.033215 C65.3573476,21.7515315 69.3900697,26.3288001 69.3900697,26.3288001 L70.5705994,19.1329102 C70.5705994,19.1329102 72.2685162,21.7986078 73.9714122,22.9279873 L72.8338849,30.2827598 L72.8325269,30.2818545 Z"></path>
                <polygon points="87.9748121 21.0666613 91.1687606 27.8198525 83.4609156 28.1846942 82.824027 32.5953849 85.2647541 32.0947462 88.2780924 36.0586644 87.4909217 42.9123455 81.8254655 43.232374 79.9419593 60.4958104 71.0608271 60.7877742 67.3571867 56.1231428 76.0083691 55.6587167 77.9117922 39.8229608 83.7899973 39.5481979 84.8908593 32.4460081 78.5699556 32.7434038 79.8351322 24.5765644 87.5416193 24.2144388 84.5866738 17.4055707" fill="url(#linearGradient-22)" id="Path"></polygon>
                <path fill="#FFFFFF" id="Path" d="M54.9779204,25.5226178 C54.3967087,25.5511352 53.8476356,25.5669782 52.9712915,25.6077173 C46.9265086,25.8933439 43.3650026,32.0503858 42.4556145,37.9340227 C41.5765544,43.6148693 43.124189,50.4893726 49.1196322,50.2082726 C49.9955237,50.1675334 50.7415026,49.9217406 51.8061521,48.9901723 L50.8682466,56.0905515 C49.6410932,57.1828131 48.548379,57.4367537 47.442085,57.4860934 C37.5266313,57.9541408 33.5622605,48.3722954 35.1162323,38.3305503 C36.5823886,28.8460262 43.8077012,18.8391357 53.1704606,18.399153 C54.3704546,18.3425709 55.2599258,18.2334805 56.3743675,18.4127327 L54.9779204,25.5221651 L54.9779204,25.5226178 Z"></path>
                <path fill="#210000" id="Shape" d="M46.7495197,57.6427127 C43.281261,57.6427127 40.3362739,56.3449448 38.2314184,53.8901854 C35.2266806,50.3852615 34.010391,44.5609226 34.9777192,38.3097281 C36.4470441,28.8057397 43.6510819,18.7074125 53.1632181,18.2601873 C53.3895466,18.2493235 53.6045588,18.2371018 53.8123284,18.22488 C54.2509531,18.1990786 54.6646817,18.1750878 55.0770523,18.1750878 C55.5509843,18.1750878 55.9696921,18.2067738 56.3960951,18.2755776 L56.5386821,18.2986632 L55.093348,25.6570569 L54.9842576,25.6624888 C54.7017996,25.6765212 54.4270367,25.6869323 54.1187772,25.699154 C53.7924115,25.7118284 53.4280225,25.7263135 52.977176,25.7475883 C47.064569,26.0268778 43.5012524,32.0807138 42.5927696,37.9562029 C42.0866989,41.2266504 42.3238912,45.6291934 44.5070564,48.1762949 C45.5884542,49.4383028 47.0215666,50.0779073 48.7665597,50.0779073 L48.7670124,50.0779073 C48.8806293,50.0779073 48.9951515,50.0751914 49.1119371,50.0697595 C49.9258145,50.0321889 50.644634,49.8207981 51.7129048,48.8860612 L51.9917415,48.642079 L50.9986119,56.161166 L50.9596833,56.195568 C49.6320401,57.3774557 48.438836,57.5820567 47.4470643,57.6259644 C47.2143985,57.6368282 46.9794695,57.6427127 46.7499723,57.6427127 L46.7486144,57.6427127 L46.7495197,57.6427127 Z M55.077505,18.4539245 C54.6732822,18.4539245 54.2631748,18.4779154 53.8290767,18.5032642 C53.6204018,18.5154859 53.4040317,18.5281603 53.1767978,18.5385714 C43.8067959,18.9790068 36.705964,28.9587378 35.25384,38.3518252 C34.2987336,44.5233521 35.4910324,50.2639494 38.4432619,53.7077646 C40.522316,56.1331013 43.3170209,57.3629706 46.7495197,57.3629706 L46.7513303,57.3629706 C46.9763009,57.3629706 47.2067033,57.3575388 47.4352952,57.346675 C48.4157505,57.3027672 49.4939797,57.1108406 50.7365234,56.0203897 L51.6205627,49.3274018 C50.6378441,50.1168358 49.904087,50.3110257 49.1259694,50.3472383 C49.0046573,50.3526702 48.8860612,50.3558388 48.7683703,50.3558388 L48.7679177,50.3558388 C46.937825,50.3558388 45.4336455,49.6831903 44.2965709,48.3564524 C42.0518443,45.7373784 41.8028829,41.2438514 42.3180067,37.9122952 C43.2436905,31.9245471 46.8948226,25.7543782 52.9654069,25.4678463 C53.4171587,25.447024 53.7820003,25.432539 54.1092714,25.4194119 C54.3767918,25.4085482 54.6189633,25.3990424 54.8629455,25.387726 L56.210053,18.528613 C55.8474747,18.4774627 55.4835384,18.4534719 55.0784103,18.4534719 L55.077505,18.4539245 Z"></path>
                <path fill="#FFFFFF" id="Path" d="M69.4330721,26.4876827 C68.2520898,25.2329172 66.7184875,24.1990484 64.8272862,24.2850533 C64.4760243,24.3013489 61.0743062,25.63714 60.7886795,28.2028004 C60.2970939,32.5958376 69.0166276,35.6272821 68.6282478,44.6980777 C68.3181777,51.9328961 62.7595485,57.0076348 56.7754217,57.0895658 C54.8362387,57.1162725 52.7399837,56.7573154 51.3616428,55.9520385 L52.395059,48.610393 C53.8331506,49.3672357 55.1544567,50.1163832 57.1819078,50.0213252 C59.396759,49.9163087 61.2073874,47.9250702 61.3753231,46.2199109 C61.6700029,43.2486697 59.5461358,42.2320019 57.8450504,40.8011528 C54.3346947,38.0449237 53.0835504,34.8079728 53.9440516,29.2294267 C54.8778832,23.192339 58.8698661,17.8192993 64.770704,17.5422731 C66.9864605,17.4390673 68.8649875,18.0039834 70.5692414,19.1324575 L69.4330721,26.4876827 L69.4330721,26.4876827 Z"></path>
                <path fill="#210000" id="Shape" d="M56.5726313,57.2303421 C54.475471,57.2303421 52.5503204,56.808013 51.2910283,56.0724453 L51.2100027,56.0253689 L52.284158,48.3944756 L52.6426624,48.5832336 C53.9979178,49.2984318 55.2721475,49.9697223 57.1746653,49.8819068 C59.301701,49.7814169 61.0729482,47.8580769 61.2354521,46.2063312 C61.4749077,43.7941215 60.0825345,42.7213242 58.608683,41.5856075 C58.3257723,41.3674268 58.0329031,41.1420036 57.754519,40.9075272 C54.1101767,38.0462817 52.9649543,34.65588 53.8055385,29.2076992 C54.2849024,26.109714 55.5573215,23.242584 57.3887721,21.1336546 C59.394043,18.8246507 61.9443131,17.534578 64.7634615,17.4019494 C66.9421001,17.3001016 68.8500498,17.8265418 70.6457405,19.0152193 L70.7204289,19.064559 L69.5267722,26.790963 L69.3307716,26.5827407 C67.9202921,25.083993 66.6564735,24.3859958 65.3528211,24.3859958 C65.1848853,24.3859958 65.0146862,24.3982175 64.8467504,24.422661 C63.733214,24.5833543 61.2005975,25.7616207 60.92674,28.2177381 C60.7275708,29.9975858 62.1421243,31.6022552 63.7798376,33.4604126 C66.1033265,36.0966876 68.9949001,39.3779989 68.7667609,44.7035096 C68.4693652,51.6391216 63.2026998,57.140716 56.7767797,57.2285315 C56.7088811,57.2294368 56.6405299,57.2298895 56.5721787,57.2298895 L56.5726313,57.2303421 Z M51.5128303,55.8778027 C52.7173508,56.5509038 54.5985937,56.9515053 56.5726313,56.9515053 C56.6396246,56.9515053 56.7066178,56.9510527 56.7736111,56.9501474 C63.051965,56.8641425 68.1977709,51.4797863 68.4888294,44.6921932 C68.7119894,39.4789414 65.8616076,36.2447064 63.5711627,33.6455494 C61.8895416,31.7375997 60.4374176,30.0899279 60.6501665,28.1869574 C60.9416776,25.5705994 63.6272922,24.3167393 64.8078219,24.1465402 C64.9888848,24.1202861 65.1726635,24.107159 65.3537264,24.107159 C67.0498325,24.107159 68.4136884,25.2388018 69.3384668,26.1866657 L70.4176013,19.1994508 C68.6938831,18.0786718 66.8642431,17.5848229 64.7770412,17.6812389 C58.5806182,17.9722974 54.9403499,23.7015783 54.082112,29.2507016 C53.2591814,34.5839075 54.3745285,37.8987155 57.9310553,40.6911571 C58.2085341,40.9242755 58.4986873,41.1483408 58.7797874,41.3642582 C60.2491123,42.4963536 61.7686822,43.6673775 61.5142889,46.2334906 C61.3404686,47.9984006 59.4537938,50.0530112 57.1886977,50.1602909 C55.2065122,50.252633 53.9015018,49.5627835 52.5132025,48.829479 L52.50596,48.8258578 L51.513283,55.87735 L51.5128303,55.8778027 Z"></path>
                <polygon points="84.5866738 17.4055707 87.5416193 24.2144388 79.8351322 24.5765644 78.5699556 32.7434038 84.8908593 32.4460081 83.7899973 39.5481979 77.9117922 39.8229608 76.0083691 55.6587167 67.3571867 56.1231428 73.2765835 17.8808607" fill="#FFFFFF" id="Path"></polygon>
                <polygon points="130.947814 37.0780481 134.730669 21.6419885 136.730055 24.5036866 129.084224 62.6201302 126.27594 58.0958225" fill="url(#linearGradient-23)" id="Path"></polygon>
                <path fill="#210000" id="Shape" d="M67.1928722,56.272067 L73.1561768,17.7464215 L84.6762999,17.2620784 L87.7502942,24.3443513 L79.955539,24.7105509 L78.7342702,32.5958376 L85.0551739,32.2988945 L83.9108567,39.6821844 L78.0362729,39.9569473 L76.1328498,55.7917979 L67.1928722,56.272067 L67.1928722,56.272067 Z M73.3965377,18.0157525 L67.5210486,55.9746713 L75.8834358,55.5256355 L77.7868589,39.6889743 L83.6695905,39.4137588 L84.7269975,32.5935743 L78.4060938,32.8905173 L79.7147254,24.4421253 L87.333397,24.0840735 L84.4970477,17.5486103 L73.397443,18.0152998 L73.3965377,18.0157525 Z"></path>
            </g>
        </g>
    </g>
</svg>