<svg xmlns="http://www.w3.org/2000/svg" width="46.927" height="43.45" viewBox="0 0 46.927 43.45">
  <path id="Dahler_Icon_D" d="M.149,79.28c2.347,0,3.759-.7,4.436-1.672a6.782,6.782,0,0,0,.849-3.168c.288-3.88.121-20.688.121-20.688,0-8.605.015-9.965-.1-11.758C5.346,40.1,5.113,38.322,0,38.322V37.249c1.739-.076,16.382,0,18.361,0,7.04,0,17.127.125,22.965,6.258a20.622,20.622,0,0,1,5.6,14.65,22.887,22.887,0,0,1-6.282,16.064c-2,2.042-7.006,6.361-19.347,6.445-2.272.016-17.326-.333-18.618-.377-.9-.031-2.17,0-2.531-.039V79.28ZM17.456,38.849a15.736,15.736,0,0,0-3.477.349c-.343.152-.438.265-.438.738-.056,1.929-.056,8.519-.056,12.913v7.113c0,6.086.056,11.3.111,12.348.024.587.064,2.43.174,3.69a2.467,2.467,0,0,0,.928,1.958c1.048.715,3.112,1.019,6.34,1.019,16.611,0,17.516-12.2,17.516-19.448,0-9.88-4.856-20.681-21.1-20.681" transform="translate(0 -37.214)"/>
</svg>
