<?xml version="1.0" encoding="utf-8"?>
<!-- Generator: Adobe Illustrator 20.1.0, SVG Export Plug-In . SVG Version: 6.00 Build 0)  -->
<svg version="1.1" id="Layer_1" xmlns="http://www.w3.org/2000/svg" xmlns:xlink="http://www.w3.org/1999/xlink" x="0px" y="0px"
	 viewBox="0 0 232.8 47.7" style="enable-background:new 0 0 232.8 47.7;" xml:space="preserve">
<style type="text/css">
	.st0{fill:#231F20;}
	.st1{fill:#B31F35;}
</style>
<path class="st0" d="M74.9,0.1h9l12.4,21.7h-7.7L86.5,18h-14l-2,3.8h-7.8L74.9,0.1z M75,13.2h8.8l-4.5-8.1L75,13.2z"/>
<path class="st0" d="M100.5,0.1h6.9v16.1h16.8v5.6h-23.7L100.5,0.1L100.5,0.1z"/>
<path class="st0" d="M129.3,0.1h6.9v16.1H153v5.6h-23.7L129.3,0.1L129.3,0.1z"/>
<path class="st0" d="M158.2,0.1h6.9v21.7h-6.9V0.1z"/>
<path class="st0" d="M172.7,0.1h25.7v5h-18.8v3.5h16.8v4.5h-16.8v3.5h19.1v5.2h-26V0.1z"/>
<path class="st1" d="M6.6,47.4h42.3c3.5,0,6.3-3.4,6.3-6.6c0-2.4,0-8,0-8l-5.5,11.8h-9.3l0.6-20h-0.1l-8.1,20h-9l-4.5-26.8
	C11.5,21.2,0.5,29.6,0.1,39.4C0,39.4-0.8,46.7,6.6,47.4"/>
<path class="st1" d="M55.1,19.7c-5.8-3.5-12.5-5.5-19.7-5.5c-3.6,0-7,0.4-10.3,1.4l3.8,22.8l7.9-18.6h9.8L46,38L55.1,19.7z"/>
<path d="M55.2,19.2V5.9c0-3.2-2.9-5.9-6.4-5.9H6.5C3,0,0.1,2.6,0.1,5.9v18.8L14,2.9h9l1.5,8.9c2-0.3,4.1-0.5,6.2-0.5
	C39.8,11.3,48.3,14.2,55.2,19.2"/>
<path class="st0" d="M17.5,7.7L17.5,7.7l-4.8,7.7c1.8-0.9,3.7-1.6,5.7-2.2L17.5,7.7z"/>
<path class="st0" d="M203,0.1h20.6c6.8,0,9.2,2.2,9.2,7.5v6.5c0,5.3-2.4,7.5-9.2,7.5H203L203,0.1L203,0.1z M209.8,16h12.1
	c2.9,0,4.1-0.8,4.1-3.9V9.2c0-3.1-1.1-3.9-4.1-3.9h-12.1V16z"/>
<path class="st1" d="M62.7,25.9h6.7l4.7,15.8h0.1l5.7-15.8h6.3l5.6,15.8h0.1l4.7-15.8h6.7l-7.2,21.4h-7.8l-5.2-14.2H83l-5.2,14.2H70
	L62.7,25.9z"/>
<path class="st1" d="M106.5,33.5c0-6.3,3.7-7.8,9.8-7.8h10.9c6.1,0,9.8,1.5,9.8,7.8v6.4c0,6.3-3.7,7.8-9.8,7.8h-10.9
	c-6.1,0-9.8-1.5-9.8-7.8V33.5z M113.5,37.8c0,3.1,0.7,4.3,3.9,4.3h8.7c3.2,0,3.9-1.2,3.9-4.3v-2.3c0-2.7-0.7-4.3-4.3-4.3h-8
	c-3.6,0-4.3,1.6-4.3,4.3L113.5,37.8L113.5,37.8z"/>
<path class="st1" d="M143,25.9h20.6c5.3,0,6.7,2.5,6.7,6.4v1.4c0,2.9-0.7,4.6-3.8,5.3v0.1c2,0.4,3.7,1.2,3.7,4.7v3.6h-6.8v-2.6
	c0-2.3-0.7-3-2.8-3h-10.7v5.6h-6.8V25.9H143z M149.8,36.5h11.3c1.8,0,2.5-0.7,2.5-2.2v-0.7c0-1.9-1-2.2-3.1-2.2h-10.7L149.8,36.5
	L149.8,36.5z"/>
<path class="st1" d="M176.4,25.9h6.8v15.9h15.3v5.5h-22.2V25.9H176.4z"/>
<path class="st1" d="M203,25.9h20.6c6.8,0,9.2,2.2,9.2,7.5v6.5c0,5.3-2.4,7.5-9.2,7.5H203L203,25.9L203,25.9z M209.8,41.9h12.1
	c2.9,0,4.1-0.8,4.1-3.9v-2.9c0-3.1-1.1-3.9-4.1-3.9h-12.1V41.9z"/>
</svg>
