<svg xmlns="http://www.w3.org/2000/svg" width="66" height="32" fill="none"><path fill="#8D7955" d="M43.259 24.338a1.07 1.07 0 0 0 0 2.139 1.07 1.07 0 0 0 0-2.139ZM18.817 26.476a1.07 1.07 0 0 0 0-2.138 1.07 1.07 0 0 0 0 2.138ZM13.525 20.672c-1.546-1.244-3.765-1.874-6.599-1.874H0v12.904h6.926c6.47 0 8.765-3.475 8.765-6.452 0-1.854-.75-3.438-2.166-4.578ZM6.91 28.827H3.17v-7.12h3.74c3.49 0 5.41 1.258 5.41 3.543 0 2.273-1.972 3.577-5.41 3.577ZM31.105 27.337l-5.243-8.539h-3.736v12.904h3.154v-7.931l4.807 7.931h1.853l4.892-7.958v7.958h3.154V18.798h-3.654l-5.227 8.539ZM58.887 27.381c-1.053 1.183-2.354 1.71-4.214 1.71-3.031 0-4.915-1.49-4.915-3.89 0-2.38 1.884-3.86 4.915-3.86 1.79 0 3.007.456 4.073 1.522l.48.48 1.979-2.273-.459-.418c-1.677-1.525-3.617-2.236-6.107-2.236-4.819 0-8.184 2.79-8.184 6.783 0 4.004 3.365 6.801 8.184 6.801 2.654 0 4.67-.78 6.344-2.456l.428-.428-2.056-2.26-.468.525ZM34.951 2.792c-.045-.64-.102-1.515-.128-1.814l-.007-.101-.69-.681-.051.17-.015.047a13.412 13.412 0 0 0-.592 1.485c.176.1.895.515 1.49.978l-.007-.084ZM36.191 13.218a2.1 2.1 0 0 0 .342.203c.09.043.189.083.298.12l.12-.046.318-.127.208-.057c-.378-.325-1.319-.783-1.826-1.018l.055.15c.034.22.138.516.485.775Z"/><path fill="#8D7955" d="m23.54 16.43 14.586.054-.001-1.223s-4.133-1.225-5.448-2.38a4.159 4.159 0 0 1-.862-1.043l-.003-.006c-.316-.513-.465-.937-.465-.937a30.214 30.214 0 0 1-.338-1.03l.197.022c.06.146.177.41.364.718.168.07.354.127.568.168 0 0 .574.18 1.025-.193 0 0 1.317.571 2.267 1.298.035.047.116.164.188.322l.018.05c.57.199 1.75.632 2.205.964l.308-.069c.312-.124.733-.371.926-.839l-.054-.72s.166-.372.483-.738c0 0-.212-.438-.632-.711 0 0-.64-1.365-1.41-2.419-.77-1.054-.826-1.453-.737-2.28 0 0-.346-.648-1.011-.928 0 0-.14-.466-.48-1.013a12.492 12.492 0 0 0-.195-.147c-.418-.304-.984-.669-1.474-.812l-.129-.04-.11-.601-.066-.35C33.145.831 33.167 0 33.167 0s-.747.22-.855.443c-.086.179-.216.467-.35.776.058.361.056.847-.237 1.282-.033.036-.911.853-.836 1.713l-.307.044c-.01-.05-.228-1.214.51-2.091.183-.218.266-.405.256-.558l-.059.017-.06.015-.332.04a8.86 8.86 0 0 0-2.336.592c.06.15.132.307.232.478.692 1.175.274 2.08.256 2.119l-.503 1.052.21-1.147c.036-.195.104-.892-.522-1.659a1.356 1.356 0 0 1-.264-.582 8.372 8.372 0 0 0-1.956 1.35c.12.229.288.458.526.663 1.185 1.026 1.296 2.65 1.302 3.124l-.308.029c-.003-.02-.364-1.978-1.752-2.831a3.007 3.007 0 0 1-.414-.32 8.71 8.71 0 0 0-.918 1.281l.314 1.004c.084.268.458 1.184 1.74 1.727 1.15.487 1.484 2.334 1.498 2.412l-.304.064c-.002-.01-.251-.945-1.589-1.773-1.576-.974-1.646-2.32-1.648-2.377l-.04-1.006c-.65 1.114-1.098 2.432-1.283 3.94.237.242.554.47.977.597 1.498.456 2.26 1.894 2.46 2.324l-.27.152c-.011-.016-1.137-1.658-2.752-1.874a3.019 3.019 0 0 1-.5-.12l-.015.498c-.002 1.227.157 2.437.503 3.863v1.17Zm13.435-5.341c.036-.067.081-.127.12-.18l.046-.064.043-.06.178.126.223.154c.178.122.275.28.294.485l.016.169-.134-.104c-.117-.092-.252-.108-.393-.125l-.048-.006c-.063-.009-.128-.017-.19-.037-.092-.028-.152-.077-.179-.143-.018-.044-.028-.117.024-.216ZM33.654 6.6l.989-.29.451.48-.052.477-.327-.408-.203-.268-.007.005-.002-.001-.063.046-.49.346.008.014-.02.014.052.082-.389-.093.053-.404ZM65.197 19.985c0-.264-.18-.434-.459-.434h-.816v1.396h.296v-.533h.391l.26.533h.332l-.277-.562a.403.403 0 0 0 .273-.4Zm-.459.132h-.52v-.272h.52c.166 0 .166.094.166.13 0 .035 0 .142-.166.142Z"/><path fill="#8D7955" d="M64.508 18.755a1.494 1.494 0 0 0 0 2.987 1.494 1.494 0 0 0 0-2.986Zm0 2.663a1.17 1.17 0 0 1 0-2.339 1.17 1.17 0 0 1 0 2.339Z"/></svg>
