<svg width="200" height="33" viewBox="0 0 200 33" fill="none" xmlns="http://www.w3.org/2000/svg">
<path fill-rule="evenodd" clip-rule="evenodd" d="M144.707 22.3206L152.411 8.97542C152.551 8.73385 152.809 8.58479 153.088 8.58479H156.071L156.067 8.59096L148.366 21.9299C148.227 22.1715 147.969 22.3206 147.689 22.3206H144.707ZM146.849 6.7144L135.856 25.7545L151.217 25.7596C152.334 25.7601 153.366 25.1644 153.925 24.1971L164.918 5.15702L149.557 5.15137C148.44 5.15137 147.408 5.74708 146.849 6.7144Z" fill="#FEFEFE"/>
<path fill-rule="evenodd" clip-rule="evenodd" d="M35.5007 22.3206L43.2054 8.97542C43.3452 8.73385 43.6032 8.58479 43.8823 8.58479H46.8649L46.8613 8.59096L39.1603 21.9299C39.0205 22.1715 38.7625 22.3206 38.4834 22.3206H35.5007ZM37.643 6.7144L26.6504 25.7545L42.0114 25.7596C43.1283 25.7601 44.1604 25.1644 44.7191 24.1971L55.7117 5.15702L40.3512 5.15137C39.2338 5.15137 38.2017 5.74708 37.643 6.7144Z" fill="#FEFEFE"/>
<path fill-rule="evenodd" clip-rule="evenodd" d="M145.671 5.15332L128.5 5.15589L126.517 8.59034H131.665L121.752 25.76H128.621L138.536 8.58777H143.688L145.671 5.15332Z" fill="#FEFEFE"/>
<path fill-rule="evenodd" clip-rule="evenodd" d="M12.8153 22.3207L20.7466 8.58289H22.1205L19.8559 21.3534C19.7567 21.9131 19.2699 22.3207 18.7015 22.3207H12.8153ZM15.8607 5.14844L3.9624 25.7567L21.5304 25.7552C23.4116 25.7552 25.1494 24.7513 26.09 23.1225C26.3963 22.5921 26.6076 22.0123 26.7145 21.4094L29.3543 6.52541C29.4818 5.80737 28.9293 5.14844 28.2004 5.14844H15.8607Z" fill="#FEFEFE"/>
<path fill-rule="evenodd" clip-rule="evenodd" d="M77.4539 25.7581H70.585L82.4822 5.15137H89.3511L77.4539 25.7581Z" fill="#FEFEFE"/>
<path fill-rule="evenodd" clip-rule="evenodd" d="M102.734 5.15137L96.7854 15.4547L99.2998 5.15137H95.8654H92.4309L80.5337 25.7581H87.4026L93.351 15.4547L90.8371 25.7581H97.706L109.603 5.15137H102.734Z" fill="#FEFEFE"/>
<mask id="mask0_849_2" style="mask-type:luminance" maskUnits="userSpaceOnUse" x="156" y="0" width="44" height="31">
<path fill-rule="evenodd" clip-rule="evenodd" d="M156.104 0H200V30.9101H156.104V0Z" fill="white"/>
</mask>
<g mask="url(#mask0_849_2)">
<path fill-rule="evenodd" clip-rule="evenodd" d="M194.343 30.9101L182.659 15.455H190.386C191.809 15.455 194.959 11.9954 197.423 7.72778C199.887 3.45964 200.732 0 199.309 0H196.734H170.975L168.001 5.15168H187.319C188.031 5.15168 187.942 6.30404 187.121 7.72572L187.119 7.72932C186.298 9.15101 185.057 10.3028 184.346 10.3034H165.026L156.104 25.7584H166.407L172.355 15.455L184.039 30.9101H194.343Z" fill="#FF0000"/>
</g>
<mask id="mask1_849_2" style="mask-type:luminance" maskUnits="userSpaceOnUse" x="0" y="29" width="174" height="4">
<path fill-rule="evenodd" clip-rule="evenodd" d="M0 29.1816H173.735V32.621H0V29.1816Z" fill="white"/>
</mask>
<g mask="url(#mask1_849_2)">
<path fill-rule="evenodd" clip-rule="evenodd" d="M173.735 30.9102L0 32.6212L1.98553 29.1816H172.428L173.735 30.9102Z" fill="#FEFEFE"/>
</g>
<path fill-rule="evenodd" clip-rule="evenodd" d="M75.97 5.14844H72.5356L63.1517 15.4523L65.6661 5.14844H65.6656H62.2312H58.7962L46.8979 25.7567H53.7679L59.7168 15.4523L58.4153 20.7854L58.0412 22.3202H60.332L61.5846 20.9448L66.5867 15.4523L60.6373 25.7567H67.5067L79.405 5.14844H75.97Z" fill="#FEFEFE"/>
<path fill-rule="evenodd" clip-rule="evenodd" d="M121.988 5.15332H118.552H115.12L99.7861 25.757H103.609L103.607 25.76H108.366L110.352 22.3215H109.211L114.327 15.4474L110.095 25.757H116.963L125.42 5.15332H121.988Z" fill="#FEFEFE"/>
<path fill-rule="evenodd" clip-rule="evenodd" d="M173.735 30.9102L0 32.6212L1.98553 29.1816H172.428L173.735 30.9102Z" fill="#FEFEFE"/>
</svg>
