<svg version="1.1" id="Layer_1" xmlns:x="ns_extend;" xmlns:i="ns_ai;" xmlns:graph="ns_graphs;" xmlns="http://www.w3.org/2000/svg" xmlns:xlink="http://www.w3.org/1999/xlink" x="0px" y="0px" viewBox="0 0 570.08 111.71" style="enable-background:new 0 0 570.08 111.71;" xml:space="preserve">
 <style type="text/css">
  .st0{fill:#FFFFFF;}
 </style>
 <metadata>
  <sfw xmlns="ns_sfw;">
   <slices>
   </slices>
   <sliceSourceBounds bottomLeftOrigin="true" height="111.71" width="570.08" x="-84.78" y="-256.05">
   </sliceSourceBounds>
  </sfw>
 </metadata>
 <g>
  <path class="st0" d="M403.06,55.56c-0.16-7.46-1.62-9.08-7.78-9.08h-6.82V35.19h33.24v17.66c6.88-11.53,16.54-18.9,27.98-18.9
		c11.61,0,20.73,7.01,20.73,24.6v31.38c0,7.29,1.54,9.08,7.7,9.08h6.82v11.29h-44.19v-11h3.16c6.16,0,7.62-1.78,7.78-9.08V62.19
		c0-9.34-3.7-13.94-12.27-13.94c-10.38,0-17.64,9.5-17.64,21.82v20.14c0,7.29,1.54,9.08,7.7,9.08h3.17v11h-44.19V99h6.82
		c6.16,0,7.62-1.78,7.78-9.08V55.56z">
  </path>
  <path class="st0" d="M318.2,99c-6.16,0-7.7-1.78-7.7-9.08V58.55c0-17.6-9.12-24.6-20.73-24.6c-11.14,0-20.55,6.99-27.43,18.03
		c-1.84-13-9.31-18.03-19.42-18.03c-11.44,0-19.69,6.61-26.8,18.01V35.19h-33.24v11.29h6.81c6.16,0,7.62,1.62,7.78,9.08v34.37
		c-0.16,7.29-1.62,9.08-7.78,9.08h-6.81v11.29h43.59v-11h-2.57c-6.16,0-7.7-1.78-7.7-9.08V70.08c0-12.32,6.08-21.82,16.45-21.82
		c8.57,0,11.68,4.6,11.68,13.93v28.03c-0.16,7.29-1.62,9.08-7.78,9.08h-2.57v11h39.65v-11h-2.87c-6.16,0-7.7-1.78-7.7-9.08V70.08
		c0-12.32,6.08-21.82,16.45-21.82c8.57,0,12.27,4.6,12.27,13.93v28.03c-0.16,7.29-1.62,9.08-7.78,9.08h-2.87v11h43.59V99H318.2z">
  </path>
  <path class="st0" d="M379.86,110.3V99h-6.52c-6.16,0-7.62-1.78-7.78-9.08V35.19h-32.68v11.29h6.37c6.16,0,7.62,1.62,7.78,9.08
		v34.37c-0.16,7.29-1.62,9.08-7.78,9.08h-6.37v11.29H379.86z">
  </path>
  <path class="st0" d="M354.01,24.7c6.82,0,12.35-5.53,12.35-12.35c0-6.82-5.53-12.35-12.35-12.35s-12.35,5.53-12.35,12.35
		C341.66,19.17,347.19,24.7,354.01,24.7">
  </path>
  <path class="st0" d="M152.97,72.82c0,17.25-5.28,28.75-18.43,28.75c-13.15,0-18.44-11.51-18.44-28.75
		c0-17.25,5.28-28.75,18.44-28.75C147.69,44.07,152.97,55.58,152.97,72.82 M94.22,72.82c0,22.53,16.81,38.88,40.32,38.88
		c23.5,0,40.32-16.35,40.32-38.88c0-22.53-16.81-38.88-40.32-38.88C111.03,33.94,94.22,50.29,94.22,72.82">
  </path>
  <path class="st0" d="M548.2,72.82c0,17.25-5.28,28.75-18.43,28.75c-13.15,0-18.43-11.51-18.43-28.75
		c0-17.25,5.28-28.75,18.43-28.75C542.91,44.07,548.2,55.58,548.2,72.82 M489.44,72.82c0,22.53,16.81,38.88,40.32,38.88
		c23.51,0,40.32-16.35,40.32-38.88c0-22.53-16.81-38.88-40.32-38.88C506.26,33.94,489.44,50.29,489.44,72.82">
  </path>
  <path class="st0" d="M83.98,99c-6.16,0-7.7-1.78-7.7-9.08V2.33H42.37v11.88h7.41c6.16,0,7.62,1.62,7.78,9.08v23.18
		c-3.68-6.61-11.96-12.53-22.88-12.53C15.13,33.94,0,50.59,0,73.12c0,23.32,14.34,38.59,32.32,38.59c13.29,0,23.14-7.89,27.02-18.45
		v17.04h29.69V99H83.98z M40.61,98.91c-11.57,0-18.73-9.14-18.73-26.38c0-17.25,7.06-27.27,17.84-27.27
		c11.57,0,18.14,12,18.14,26.09C57.86,88.59,51.39,98.91,40.61,98.91z">
  </path>
 </g>
</svg>