<svg id="Layer_1" data-name="Layer 1" xmlns="http://www.w3.org/2000/svg" viewBox="0 0 240 72"><defs><style>.cls-1{fill:#fff;}</style></defs><title>drenth-brand</title><path class="cls-1" d="M133.27,34.74H118.86A5.53,5.53,0,0,1,114,37.18c-3.26,0-4.26-1.17-3.42-3.89l.22-.7h23.39l-3,9.7h16.46l4.52-14.67c.58-1.87,2.24-2.62,4.07-2.62s2.69,1,2.15,2.72l-4.49,14.57h16.46l4.83-15.65c.1-.32.18-.63.24-.94h2.9l-3.3,10.68c-1.62,5.25,3.88,6.61,10.27,6.61a80,80,0,0,0,10.27-.89l-.06.19H212l4.52-14.67c.58-1.87,2.24-2.62,4.07-2.62s2.69,1,2.15,2.72l-4.49,14.57h16.46l4.83-15.65c1.92-6.23-2.32-8.58-9.19-8.58-5.58,0-8.78,1.36-11.94,3.89h-.14l4.16-13.49H206L202.8,18.76h-5.85L199.34,11,181.66,15l-1.17,3.8h-4.42l-.88,2.85c-1.21-2.52-4.61-3.56-9.17-3.56A17.6,17.6,0,0,0,154,22.32h-.14l.69-3.56h-16L135.33,29c1.22-7.08-3.78-10.89-15.61-10.89-7.37,0-13.65,1.53-18,4.51l1.06-3.44a10.8,10.8,0,0,0-4.15-.66c-2.11,0-4.58.75-7.61,2.86l.39-2.58H76C78.24,7.73,72.21,0,49.55,0H20.73l-13,42.29H37.95c16,0,28.87-5.69,34.81-15.2l-4.69,15.2H84.52L88.32,30c.46-1.5,2-3,5.13-3a32.37,32.37,0,0,1,3.71.2,13.79,13.79,0,0,0-1.44,3.17C92.79,39.9,100.81,43,110.81,43,123.59,43,130.4,40.08,133.27,34.74Zm59.31-1.83,2.23-7.22h5.85l-2.92,9.47a26,26,0,0,1-3.1.14C192.66,35.3,192,34.69,192.58,32.91Zm-80.13-5.62c.69-2.25,2.82-3.42,5.47-3.42s3.92,1.17,3.23,3.42l-.1.33h-8.7Zm-62.2-6.15C49,25.24,47.55,28.23,45.4,30s-4.66,2.69-8.57,2.69H34.45L41.57,9.6H44c3.91,0,5.9,1,6.9,2.7S51.52,17,50.25,21.14Z" transform="translate(0 0)"/><path class="cls-1" d="M17.52,56.19a4.65,4.65,0,0,0-3.67,1.91c-.18-1.32-1.06-1.93-2.55-1.94a4.66,4.66,0,0,0-3.68,1.92h0L8,56.47l-4.56,0L0,67.08l4.68,0,2.14-6.63c.27-.85.79-1.19,1.23-1.18s.68.41.44,1.15L6.34,67.11l4.68,0,2.14-6.63c.27-.85.79-1.18,1.23-1.18s.68.41.44,1.15l-2.15,6.68,4.68,0,2.28-7.08C20.55,57.27,19.48,56.2,17.52,56.19Z" transform="translate(0 0)"/><path class="cls-1" d="M28.11,56.24a7.73,7.73,0,0,0-7.75,5.61c-1.09,3.37.17,5.65,4.11,5.66a7.73,7.73,0,0,0,7.75-5.61C33.32,58.53,32.06,56.26,28.11,56.24Zm-.72,5.64c-.69,2.12-1.24,2.76-2,2.75s-.89-.64-.21-2.76,1.24-2.76,2-2.75S28.08,59.76,27.4,61.88Z" transform="translate(0 0)"/><path class="cls-1" d="M38.41,63l1.05-3.26h2.11l1-3.14H40.47l1.13-3.49-5.25,1.76-.55,1.71H34.54l-1,3.14h1.26l-1.56,4.83c-.77,2.37.71,3,2.53,3A16.43,16.43,0,0,0,39,67.12L40,64a4.17,4.17,0,0,1-1.18.12C38.29,64.1,38.15,63.82,38.41,63Z" transform="translate(0 0)"/><path class="cls-1" d="M49.21,56.34a7.73,7.73,0,0,0-7.75,5.61c-1.09,3.37.17,5.65,4.11,5.66A7.73,7.73,0,0,0,53.33,62C54.42,58.63,53.16,56.36,49.21,56.34ZM48.5,62c-.68,2.12-1.24,2.76-2,2.75s-.89-.64-.21-2.76,1.24-2.76,2-2.75S49.18,59.86,48.5,62Z" transform="translate(0 0)"/><path class="cls-1" d="M64,56.9a1.89,1.89,0,0,0-1.14-.3,3.59,3.59,0,0,0-2.33,1.29l.26-1.17-4.56,0L52.81,67.33l4.68,0,1.8-5.57a1.73,1.73,0,0,1,1.63-1.33,5.88,5.88,0,0,1,1.85.31Z" transform="translate(0 0)"/><path class="cls-1" d="M69.09,60.48c-1.17-.2-1.29-.43-1.14-.89s.49-.78,1.26-.78c.31,0,.52.07.62.24s.08.47-.09,1l4,0c.82-2.8-1-3.61-4-3.63-3.46,0-5.39,1.59-6,3.54s.06,2.69,2.27,3.21l1.92.46c.56.13.56.47.46.79a1.19,1.19,0,0,1-1.24.91.67.67,0,0,1-.67-.32,1.78,1.78,0,0,1,.09-1.17l-4.21,0c-.88,2.84.73,3.87,3.88,3.88,3.86,0,5.79-1.44,6.53-3.75C73.42,61.88,72.67,61.07,69.09,60.48Z" transform="translate(0 0)"/><path class="cls-1" d="M84,56.5A4.8,4.8,0,0,0,80.48,58l.32-1.23-4.41,0L71.65,71.49l4.68,0,1.63-5a2.5,2.5,0,0,0,2.46,1.3c2.11,0,4.46-1.46,5.76-5.49C87.39,58.51,86.35,56.51,84,56.5Zm-2.46,5.63c-.55,1.69-1,2.63-1.95,2.62-.52,0-.77-.36-.69-1a9.57,9.57,0,0,1,.46-1.65,8,8,0,0,1,.86-2.05,1.22,1.22,0,0,1,1.05-.57C82.27,59.5,82,60.69,81.54,62.13Z" transform="translate(0 0)"/><path class="cls-1" d="M95,56.55a7.73,7.73,0,0,0-7.75,5.61c-1.09,3.37.17,5.65,4.11,5.66a7.73,7.73,0,0,0,7.75-5.61C100.17,58.85,98.91,56.57,95,56.55Zm-.72,5.64c-.68,2.12-1.24,2.75-2,2.75s-.9-.64-.21-2.76,1.24-2.75,2-2.75S94.94,60.07,94.25,62.19Z" transform="translate(0 0)"/><path class="cls-1" d="M108.63,56.81a3.57,3.57,0,0,0-2.33,1.28l.26-1.17-4.56,0L98.56,67.54l4.68,0L105,62a1.72,1.72,0,0,1,1.63-1.33,5.84,5.84,0,0,1,1.86.3l1.24-3.86A1.87,1.87,0,0,0,108.63,56.81Z" transform="translate(0 0)"/><path class="cls-1" d="M118,53.47l-5.25,1.76-.55,1.72H111l-1,3.14h1.26l-1.56,4.83c-.77,2.37.72,3,2.53,3a16.24,16.24,0,0,0,3.26-.45l1-3.14a4.17,4.17,0,0,1-1.18.12c-.56,0-.7-.28-.44-1.09l1.05-3.26H118L119,57h-2.11Z" transform="translate(0 0)"/><path class="cls-1" d="M132.71,57l-.45,1.16h0c-.26-1.1-1.14-1.49-2.29-1.5-2.41,0-4.82,1.68-6.1,5.66s.62,5.1,2.53,5.11a4.59,4.59,0,0,0,3.46-1.37h0l-.43,1.33c-.43,1.33-1,1.8-1.8,1.8A.87.87,0,0,1,127,69a.65.65,0,0,1-.05-.62l-4.6,0c-.49,2.16.35,3.61,4.13,3.63,3.46,0,6.16-.93,7.56-5.25l3.13-9.68ZM131,62.21c-.42,1.29-.8,2.4-2,2.39s-.79-.85-.37-2.14.88-2.73,2-2.73S131.37,61,131,62.21Z" transform="translate(0 0)"/><path class="cls-1" d="M140.9,63.34l6.69,0,.23-.72c1.22-3.79.13-5.86-3.54-5.87a7.56,7.56,0,0,0-7.54,5.55c-1.39,4.3.71,5.71,3.55,5.72,3.63,0,5.74-1.29,6.87-3.7l-4.1,0a1.77,1.77,0,0,1-1.51,1.1c-.92,0-1.14-.54-.75-1.77Zm.77-2.39a1.91,1.91,0,0,1,1.76-1.54c.74,0,1,.53.72,1.55l0,.15h-2.47Z" transform="translate(0 0)"/><path class="cls-1" d="M155.93,56.83c-2.45,0-5,.59-6.13,3.45l3.86,0c.35-.89.72-1.1,1.3-1.1s.81.32.64.85l-.36,1.1h-.56c-3.63,0-5.91,1.06-6.76,3.68-.68,2.1.34,3.25,2.32,3.26a4.44,4.44,0,0,0,3.19-1.32l-.21,1,4.1,0,2.32-7.18C160.43,58.15,159.65,56.85,155.93,56.83ZM154.31,64c-.28.87-.72,1.44-1.53,1.43s-.95-.43-.73-1.11A1.76,1.76,0,0,1,154,63.15h.64Z" transform="translate(0 0)"/><path class="cls-1" d="M170,57.39a1.87,1.87,0,0,0-1.14-.3,3.56,3.56,0,0,0-2.33,1.28l.26-1.17-4.56,0L158.8,67.82l4.67,0,1.8-5.57a1.73,1.73,0,0,1,1.63-1.33,5.91,5.91,0,0,1,1.85.31Z" transform="translate(0 0)"/><path class="cls-1" d="M178.61,56.94a4.83,4.83,0,0,0-3.3,1.28l1.82-5.64-4.68,0-4.94,15.3,4.41,0,.47-1.23a2.4,2.4,0,0,0,2.52,1.56c2.36,0,4.68-2,5.9-5.74C182.11,58.44,180.71,56.95,178.61,56.94Zm-2.52,5.64c-.46,1.44-1,2.63-2,2.62-.52,0-.66-.26-.68-.57a6.51,6.51,0,0,1,.47-2.06,10.12,10.12,0,0,1,.61-1.65,1.55,1.55,0,0,1,1.32-1C176.81,59.95,176.64,60.88,176.09,62.57Z" transform="translate(0 0)"/><path class="cls-1" d="M189.52,57a7.73,7.73,0,0,0-7.75,5.61c-1.09,3.37.17,5.65,4.11,5.66a7.74,7.74,0,0,0,7.75-5.61C194.73,59.29,193.47,57,189.52,57Zm-.71,5.64c-.68,2.12-1.23,2.75-2,2.75s-.9-.64-.22-2.76,1.24-2.75,2-2.75S189.49,60.51,188.81,62.63Z" transform="translate(0 0)"/><polygon class="cls-1" points="207.72 57.39 202.78 57.37 201.01 60.21 200.82 57.36 195.88 57.34 196.96 62.27 192.18 67.97 197.35 68 199.52 64.83 199.9 68.01 204.85 68.03 203.68 62.3 207.72 57.39"/><path class="cls-1" d="M214.38,57.1a7.56,7.56,0,0,0-7.54,5.55c-1.39,4.3.71,5.71,3.55,5.72,3.64,0,5.74-1.29,6.87-3.7l-4.1,0a1.77,1.77,0,0,1-1.52,1.1c-.92,0-1.14-.53-.75-1.77l.1-.31,6.69,0,.23-.72C219.14,59.19,218,57.12,214.38,57.1Zm-.13,4.18-.05.15h-2.47l.05-.15a1.91,1.91,0,0,1,1.76-1.54C214.26,59.74,214.58,60.27,214.25,61.29Z" transform="translate(0 0)"/><path class="cls-1" d="M229.79,60.78c.83-2.8-1-3.61-4-3.63-3.46,0-5.39,1.59-6,3.54s.06,2.7,2.27,3.22l1.92.45c.56.13.56.47.46.79a1.19,1.19,0,0,1-1.24.91.67.67,0,0,1-.67-.32,1.76,1.76,0,0,1,.09-1.17l-4.21,0c-.88,2.84.73,3.86,3.88,3.88,3.87,0,5.79-1.43,6.53-3.75.67-2.08-.08-2.89-3.66-3.48-1.18-.2-1.29-.43-1.14-.9s.48-.78,1.26-.78c.31,0,.52.07.62.24s.08.47-.09,1Z" transform="translate(0 0)"/></svg>