<svg viewBox="0 0 332 162" xmlns="http://www.w3.org/2000/svg" xml:space="preserve" style="fill-rule:evenodd;clip-rule:evenodd;stroke-linejoin:round;stroke-miterlimit:2"><path d="M159.865 3.215c.07 0 2.47-.15 7.19-.44 4.65-.29 7.62-.36 8.78-.29 1.16 0 1.45-.15.73-.51-.65-.29-1.38-.51-2.1-.65-.8-.07-1.45-.15-2.11-.22-.58-.07-.94-.14-1.09-.14-2.03-.15-4.28-.22-6.75-.22h-4.72c-3.05 0-5.23 0-6.68.07-35.86 1.09-67.37 7.4-94.59 18.95-2.39.94-4.79 2.03-7.04 3.12-3.12 1.38-6.1 2.9-8.93 4.43-14.01 7.48-24.54 15.68-31.51 24.61-2.1 2.61-3.92 5.44-5.52 8.42-1.67 3.19-2.9 6.61-3.7 10.02-.87 3.99-1.31 7.55-1.31 10.6.07 2.9.44 6.39 1.31 10.53.58 2.69 1.89 6.1 3.99 10.16.29.44.58.87.87 1.38.22.29.44.58.58.87.36.44.73.94 1.09 1.45.15.15.29.36.44.58.58.65 1.16 1.38 1.74 2.03.22.22.65.65 1.31 1.16.44.44.87.65 1.09.65.07-.22.07-.36 0-.44-.15-.29-.22-.51-.36-.73-.15-.22-.22-.44-.29-.65-.07-.07-.22-.29-.22-.36-.22-.58-.51-1.16-.73-1.67-.14-.22-.22-.44-.29-.58-.15-.29-.29-.58-.36-.94-.07-.15-.15-.36-.22-.51-.15-.29-.22-.58-.36-.87-.87-2.54-1.52-5.08-1.81-7.69a41.24 41.24 0 0 1 1.52-17.35c1.52-5.3 3.92-10.16 7.19-14.59 2.98-4.21 6.32-7.99 9.95-11.47 6.17-5.81 13.72-11.32 22.8-16.77 28.09-16.77 62.58-27.22 103.38-31.29 2.16-.22 4.48-.44 6.73-.65ZM319.065 52.145c-.07.22-.07.36 0 .51.07.22.22.44.36.65.07.29.22.44.29.65.07.14.14.29.22.36.22.58.51 1.16.8 1.67.07.22.14.44.22.58.15.29.29.65.36.94.07.15.15.36.22.51.14.29.22.65.36.87.87 2.54 1.52 5.08 1.81 7.77.73 5.81.22 11.62-1.52 17.28-1.52 5.3-3.92 10.16-7.19 14.66a83.394 83.394 0 0 1-9.95 11.47c-6.17 5.73-13.72 11.32-22.79 16.7-28.1 16.77-62.58 27.22-103.3 31.29-2.25.22-4.57.44-6.82.65-.07 0-2.47.15-7.19.44-4.65.29-7.62.36-8.78.36-1.16-.07-1.38.07-.73.44.73.29 1.38.51 2.18.65.73.07 1.38.15 2.03.22.58.07.94.15 1.09.15 2.03.15 4.28.22 6.75.29 3.12-.07 4.72-.07 4.72-.07h6.75c35.79-1.16 67.3-7.48 94.59-18.95 2.32-1.02 4.72-2.11 7.04-3.12 3.05-1.45 6.03-2.98 8.86-4.43 14.08-7.55 24.54-15.75 31.51-24.61 2.11-2.69 3.92-5.52 5.52-8.49 1.67-3.19 2.9-6.61 3.7-10.02.87-3.99 1.31-7.55 1.31-10.6-.07-2.9-.44-6.39-1.31-10.53-.58-2.69-1.89-6.1-3.99-10.16-.29-.44-.51-.87-.87-1.38-.22-.22-.44-.58-.58-.87-.36-.44-.73-.94-1.09-1.45-.15-.15-.29-.36-.44-.58-.58-.65-1.16-1.31-1.74-2.03-.22-.22-.65-.58-1.31-1.16-.43-.45-.87-.66-1.09-.66Z" style="fill:#cd1917;fill-rule:nonzero"/><g><path d="m257.295 79.955-1.31 7.04c2.54 1.23 5.23 1.81 7.91 1.81 7.04-.07 11.11-3.49 12.41-10.45.07-.65.22-1.23.29-1.81 0-.58 0-1.16.07-1.74 0-5.3-2.54-7.99-7.69-7.99-1.38 0-2.18-.51-2.47-1.6l-.07-.51c-.07-.51 0-1.02.22-1.52 0-.14.07-.36.15-.51.58-1.38 1.81-2.03 3.77-2.03 1.89 0 4.21.58 6.75 1.89l1.31-7.11c-2.98-1.31-5.59-1.89-7.91-1.81-2.76-.07-5.01.44-6.82 1.52-2.69 1.52-4.36 4.28-5.01 8.13-.14.73-.22 1.45-.29 2.1-.07.58-.07 1.31-.07 1.89-.07 4.36 1.74 6.82 5.37 7.33.51.07 1.02.07 1.52.07 2.18 0 3.27.87 3.27 2.54v.51c0 .15 0 .29-.07.51-.36 2.32-1.89 3.48-4.57 3.48h-.14c-2.04 0-4.29-.58-6.62-1.74ZM257.375 96.575l-5.23 1.89-.94 4.86 3.41-1.16-2.47 14.3h5.66l3.27-19.89h-3.7ZM221.725 96.065h-3.63l-3.7 20.76h4.14l1.31-7.48c.29-2.03.44-3.63.58-4.72.07.73.22 1.52.44 2.18.15.73.29 1.45.44 2.03l2.03 7.99h3.7l3.63-20.76h-4.14l-1.31 7.48c-.22 1.89-.44 3.48-.51 4.72-.15-.73-.29-1.45-.44-2.18-.15-.73-.29-1.45-.44-2.03l-2.1-7.99ZM243.285 107.825c.07-.51.07-1.02.07-1.38 0-1.74-.44-3.05-1.31-3.78-.8-.73-2.11-1.09-3.85-1.09-2.18 0-3.7.58-4.72 1.67-1.09 1.16-1.89 3.19-2.4 6.17-.07.51-.15 1.02-.22 1.52-.07.58-.07 1.02-.07 1.45 0 1.74.44 2.98 1.31 3.7.8.73 2.11 1.09 3.92 1.09 2.11 0 3.7-.58 4.72-1.67 1.09-1.16 1.81-3.19 2.32-6.1.16-.56.23-1.07.23-1.58Zm-5.44-2.68c.51 0 .73.29.73.87 0 .58-.14 1.67-.44 3.41-.36 1.96-.65 3.19-.8 3.56-.22.44-.58.73-1.02.73-.44 0-.73-.36-.65-.94-.07-.51.07-1.6.44-3.34.15-1.02.29-1.74.44-2.4.15-.58.29-1.02.36-1.23.21-.44.5-.66.94-.66ZM199.585 98.605c.36-.36.8-.65 1.31-.8.44-.22.94-.29 1.45-.29.94 0 1.6.22 2.03.58.51.36.65.94.58 1.67h1.96c.07-.73.07-1.31-.15-1.81-.22-.44-.51-.87-.87-1.16-.44-.36-.87-.58-1.45-.73-.51-.22-1.16-.29-1.81-.29-.87 0-1.6.15-2.4.44-.73.29-1.38.73-1.96 1.23-.51.51-1.02 1.16-1.38 1.89a7.28 7.28 0 0 0-.8 2.4c-.14.87-.14 1.67 0 2.4.07.73.44 1.31.8 1.89.36.51.94.94 1.6 1.16.58.36 1.31.44 2.18.44 1.67 0 2.9-.44 3.63-1.31l.07 1.16h1.52l1.02-6.1h-4.79l-.29 1.81h2.9l-.22 1.31c-.87.94-2.1 1.38-3.63 1.38-.51 0-.94-.07-1.31-.29-.44-.15-.8-.44-1.02-.8-.29-.36-.44-.8-.58-1.31 0-.51 0-1.09.15-1.74.07-.73.22-1.31.51-1.81.3-.59.59-1.03.95-1.32ZM93.235 95.995h-1.96l-1.96 11.47h1.96l1.96-11.47ZM107.895 96.145c-.44-.15-.87-.15-1.45-.15h-4.79l-1.89 11.47h1.89l.73-4.43h2.54c1.45 0 2.61-.29 3.48-.87.8-.65 1.31-1.52 1.52-2.76.14-.65.14-1.16-.07-1.67-.15-.44-.36-.8-.73-1.09-.28-.21-.72-.43-1.23-.5Zm0 2.46v.87a1.93 1.93 0 0 1-.73 1.31c-.36.29-1.02.44-1.89.44h-2.54l.58-3.48h2.69c.29 0 .58.07.8.07.29.07.51.22.73.29.14.14.29.36.36.5ZM153.635 95.995h-1.81l-1.96 11.47h1.89l1.45-8.71 3.92 8.71h1.89l1.96-11.47h-1.89l-1.45 8.64-4-8.64ZM181.875 95.995h-1.89l-1.89 11.47h1.89l1.45-8.71 3.92 8.71h1.89l1.89-11.47h-1.89l-1.45 8.64-3.92-8.64ZM171.565 95.995h-1.96l-1.96 11.47h1.96l1.96-11.47ZM57.875 98.605c.29-.36.73-.65 1.16-.8.44-.22.94-.29 1.45-.29.44 0 .73.07 1.09.14.29.15.51.22.73.44.22.15.36.36.44.65.14.22.14.58.14 1.02h1.96c0-.73 0-1.31-.15-1.81-.22-.44-.51-.8-.87-1.16-.36-.29-.8-.58-1.31-.73-.58-.22-1.16-.29-1.74-.29-.8 0-1.6.15-2.25.44-.73.29-1.38.65-1.96 1.16-.51.58-.94 1.16-1.38 1.89-.36.73-.58 1.52-.73 2.47-.22.87-.22 1.67-.15 2.4.22.73.44 1.38.87 1.89.36.51.8.94 1.45 1.23.58.29 1.31.36 2.11.36.65 0 1.31-.07 1.89-.22.51-.22 1.09-.44 1.52-.73.51-.36.94-.8 1.23-1.31.36-.44.65-1.09.8-1.89h-1.96c-.22.8-.58 1.45-1.09 1.81-.58.44-1.23.58-2.1.58-.51 0-.94-.07-1.31-.29-.36-.15-.65-.44-.94-.73-.22-.36-.36-.8-.44-1.31-.07-.58 0-1.16.07-1.81.15-.73.29-1.31.58-1.81.24-.5.53-.93.89-1.3ZM75.445 95.995h-1.96l-1.89 11.47h1.89l.87-5.23h5.3l-.87 5.23h1.96l1.89-11.47h-1.96l-.73 4.43h-5.3l.8-4.43ZM117.185 97.735h3.63l-1.6 9.73h1.96l1.6-9.73h3.63l.29-1.74h-9.22l-.29 1.74ZM136.135 95.995h-1.89l-1.09 6.53c-.07.44-.15.87-.22 1.31v1.09c.07.44.22.73.36 1.09.15.29.36.58.65.87.29.29.73.44 1.16.58.51.07 1.02.15 1.74.15h.51c.65 0 1.23-.15 1.74-.36.65-.22 1.16-.51 1.6-.94.44-.51.73-1.02 1.02-1.67.22-.58.44-1.31.58-2.11l1.09-6.53h-1.96l-1.09 6.53c-.15.73-.29 1.31-.51 1.74-.14.36-.36.73-.65.94-.22.22-.51.36-.87.44-.29.07-.58.15-.94.15h-.22c-.44 0-.8 0-1.16-.07-.29-.15-.58-.29-.73-.51-.15-.22-.29-.51-.29-.94-.07-.44 0-1.02.07-1.74l1.1-6.55ZM239.945 54.185h-7.77l-6.1 34.12h5.95l2.83-15.46c.14-1.23.29-2.4.36-3.49.07-.36.07-.65.14-.94.15-1.38.29-2.69.36-3.85.07 1.89.07 3.56.15 4.79 0 1.81.07 2.98.14 3.49l1.31 15.46h3.85l6.68-15.46c.73-1.74 1.38-3.27 1.89-4.57.51-1.31 1.02-2.54 1.31-3.7-.51 2.25-.87 3.99-1.23 5.44-.29 1.31-.51 2.25-.58 2.83l-2.76 15.46h6.82l6.02-34.12h-8.42l-7.11 16.26c-1.16 2.69-1.89 4.5-2.1 5.44l-1.74-21.7ZM229.565 61.445l1.38-7.26h-16.48l-6.03 34.12h16.41l1.31-7.26-8.42-.07 1.23-7.04h7.91l1.31-7.26h-7.84l.8-5.23h8.42ZM205.605 61.445h6.39l1.38-7.26h-20.84l-1.31 7.26h6.39l-4.79 26.86h8.06l4.72-26.86ZM248.655 112.695c-.36-.36-.87-.58-1.52-.58h-.58c-.58.15-1.09.44-1.52.87-.58.65-.87 1.31-.87 2.1 0 .58.15 1.09.58 1.45.36.44.87.58 1.52.58h.29c.65-.07 1.23-.36 1.74-.87.65-.58.94-1.23.94-2.03 0-.65-.14-1.09-.58-1.52ZM137.445 63.185c.07-.14.15-.36.22-.51.51-1.38 1.74-2.03 3.7-2.03 1.96 0 4.21.58 6.82 1.89l1.23-7.11c-2.98-1.31-5.59-1.89-7.91-1.81-6.75-.07-10.67 3.19-11.76 9.66-.14.73-.29 1.45-.29 2.1-.07.58-.15 1.31-.15 1.89 0 .73.07 1.45.15 2.1.65 3.56 2.9 5.3 6.82 5.3 2.18 0 3.27.87 3.27 2.54v.51c-.07.15-.07.29-.07.51-.29 1.45-.94 2.47-2.11 3.05-.73.29-1.52.44-2.54.44-2.1 0-4.36-.58-6.75-1.74l-1.31 7.04c2.61 1.23 5.23 1.81 7.91 1.81.94 0 1.81-.07 2.69-.22 5.37-.8 8.64-4.21 9.73-10.24.15-.65.22-1.23.29-1.81.07-.58.07-1.16.07-1.74 0-2.32-.51-4.14-1.45-5.44-1.31-1.74-3.34-2.54-6.17-2.54-1.45 0-2.25-.51-2.54-1.6l-.07-.51c-.07-.53.07-1.03.22-1.54ZM112.105 61.445h8.35l1.38-7.26h-37.17l-1.23 7.26h6.39l-4.79 26.86h7.99l4.72-26.86h6.39l-4.79 26.86h17.06l1.23-7.33h-9l1.23-7.04h7.91l1.24-7.26h-7.84l.93-5.23ZM83.145 69.355c.07-.14.07-.22.07-.36.07-.87.15-1.81.15-2.69 0-8.06-4.14-12.12-12.41-12.12h-7.55l-6.1 34.12h8.64c5.23 0 9.22-1.38 11.83-4.14 2.4-2.47 4.07-6.53 5.01-12.2.14-.87.28-1.81.36-2.61Zm-13-8.35h.94c2.83 0 4.21 1.6 4.21 4.79 0 .65 0 1.45-.14 2.4 0 .36-.07.73-.15 1.16-.07.58-.22 1.23-.36 1.89-.58 3.7-1.45 6.32-2.4 7.77-1.16 1.67-2.76 2.47-4.79 2.47h-.94l3.63-20.48ZM183.395 53.605c-6.82-.07-10.74 3.19-11.83 9.66-.15.73-.29 1.45-.29 2.1-.07.58-.15 1.31-.15 1.89 0 .73.07 1.45.15 2.1.65 3.56 2.9 5.3 6.82 5.3 2.18 0 3.27.87 3.27 2.54v.51c-.07.15-.07.29-.07.51-.44 2.32-1.96 3.48-4.65 3.48-2.1 0-4.36-.58-6.75-1.74l-1.31 7.04c2.61 1.23 5.23 1.81 7.91 1.81 7.04 0 11.18-3.49 12.41-10.45.15-.65.22-1.23.29-1.81.07-.58.07-1.16.07-1.74 0-2.32-.51-4.14-1.45-5.44-1.31-1.74-3.34-2.54-6.17-2.54-1.38 0-2.25-.51-2.54-1.6l-.07-.51c-.07-.51.07-1.02.22-1.52.07-.14.14-.36.22-.51.51-1.38 1.74-2.03 3.7-2.03 1.96 0 4.21.58 6.82 1.89l1.24-7.11c-2.98-1.33-5.59-1.91-7.84-1.83ZM157.555 54.185h-8.2l5.01 20.54-2.4 13.58h7.91l2.4-13.58 12.2-20.54h-7.91l-6.68 11.62-2.33-11.62Z" style="fill:#fff;fill-rule:nonzero"/></g></svg>