<svg id="Layer_1" xmlns="http://www.w3.org/2000/svg" viewBox="0 0 396.8 47.1" width="396.8" height="47.1" style="enable-background:new 0 0 396.8 47.1"><style>.st0{fill:#fff}</style><path class="st0" d="M359.7 40.4c-.4.1-.8-.3-1-.4-.8-.6-1.9-1-3.1-1-2.3 0-4.2 1.4-4.2 3.2s1.9 3.2 4.2 3.2c1.2 0 2.3-.4 3.1-1 .2-.2.6-.5 1-.3l1.3.6c-1.1 1.4-3 2.4-5.3 2.4-3.4 0-6.1-2.2-6.1-4.9s2.7-4.9 6.1-4.9c2.3 0 4.4 1 5.4 2.6 0 .1-1.2.5-1.4.5zM137.2 26.9v-5.4h-31.7c-1.5 0-1.6-1.1-1.6-1.1v-1.1h33.3v-4.8H97.6v7.3c0 2.5 2.7 5 7.1 5l32.5.1zM354.5 19.4v7.5h-6.3V7h6.3v7.6h26.9V7h6.3v19.9h-6.3v-7.5zM262.4 7h-39.5v5.3h16.6v14.6h6.2V12.3l16.7-.1zM179 7h-4.8c-1.4 0-2.1.4-3.2 1.4-2.2 2.5-11.2 12.3-11.9 13.1-.9-1-10.8-11.9-11.9-13.1-1-1-1.7-1.5-3-1.5h-4.8c.4.5 15.5 18.7 16.1 19.5.2.3.6.4 1 .5h5.3c.3 0 .8-.3 1-.5.8-.9 15.7-18.8 16.2-19.4zM137.2 7v5.2H97.6c0-2.4 2.7-5.2 7.2-5.2h32.4zM304.3 26.9v-5.4h-31.7c-1.5 0-1.6-1.1-1.6-1.1v-1.1h33.3v-4.8h-39.7v7.3c0 2.5 2.7 5 7.1 5l32.6.1zM304.3 7v5.2h-39.6c0-2.4 2.7-5.2 7.2-5.2h32.4zM265.2 39.3v7.5h-1.8v-9.1h2.4c.3 0 .5.2.6.4 1.1 1.5 3.4 4.8 3.4 4.8s2.3-3.2 3.4-4.8c.1-.2.3-.4.6-.4h2.4v9.1h-1.8v-7.5l-4.6 6.2-4.6-6.2zM127.5 39.4v1.9h5.2v1.6h-5.2v2.3h7.8v1.6h-9.8v-9.1l9.5.1v1.6zM380.5 39.4v1.9h5.1v1.6h-5.1v2.3h7.8v1.6h-9.8v-9.1l9.5.1v1.6zM182.8 39.4v1.9h5.2v1.6h-5.2v3.9h-2v-9.1l9.5.1v1.6zM323.3 39.3v7.5h-1.7v-9.1h2.4c.2 0 .4.2.4.3.5.6 5.9 7.2 5.9 7.2v-7.5h1.7v9.1h-2.4c-.2 0-.4-.2-.4-.3-.6-.6-5.9-7.2-5.9-7.2zM100.1 46.8h-1.8v-9.1h7.5c1.2 0 3 .5 3 2.9s-1.7 2.9-3 2.9H100c.1 1.2.1 2.2.1 3.3zm0-7.4v2.5h5.5c.8 0 1.3-.5 1.3-1.3s-.5-1.2-1.3-1.2h-5.5zM154.4 46.8h-1.8v-9.1h7.5c1.2 0 3 .5 3 2.9 0 1.9-1.1 2.6-2.2 2.8l2.4 3.4h-1.9s-.2 0-.5-.3c0-.1-1.9-2.6-2-2.7-.1-.2-.2-.3-.4-.3h-4.2c.1 1.2.1 2.2.1 3.3zm0-7.4v2.5h5.5c.8 0 1.3-.5 1.3-1.3s-.5-1.2-1.3-1.2h-5.5zM237 46.8h-1.8v-9.1h7.5c1.2 0 3 .5 3 2.9 0 1.9-1.1 2.6-2.2 2.8l2.4 3.4H244s-.2 0-.5-.3c0-.1-1.9-2.6-2-2.7-.1-.2-.2-.3-.4-.3h-4.2c.1 1.2.1 2.2.1 3.3zm0-7.4v2.5h5.5c.8 0 1.3-.5 1.3-1.3s-.5-1.2-1.3-1.2H237zM213.7 7h-25.5c-4.4 0-7.1 2.8-7.1 5.2v9.5c0 2.5 2.8 5.2 7.1 5.2h25.5c4.3 0 7.1-2.8 7.1-5.2v-9.5c.1-2.4-2.7-5.2-7.1-5.2zm.7 11.5c0 .9-.7 3-5.7 3H193c-4.9 0-5.7-2.1-5.7-3v-3.2c0-1 .8-3 5.2-3H209c4.4 0 5.2 2 5.2 3 .2.9.2 2.3.2 3.2zM318.5 21.5c-4.9 0-5.7-2.1-5.7-3v-3.2c0-1 .8-3 5.2-3h28V7h-32.5c-4.4 0-7.1 2.8-7.1 5.2v9.5c0 2.5 2.8 5.2 7.1 5.2H346v-5.4h-27.5zM217.8 42.2c0 2.7-2.7 4.9-6 4.9s-6-2.2-6-4.9 2.7-4.9 6-4.9 6 2.3 6 4.9zm-6-3.1c-2.3 0-4.1 1.4-4.1 3.2s1.8 3.2 4.1 3.2 4.1-1.4 4.1-3.2-1.9-3.2-4.1-3.2zM300.8 39.1c-.3-.5-.8-1.4-1.9-1.4-1.1 0-1.6.9-1.9 1.4l-4.1 7.7h1.4c.5 0 .8-.2.9-.5.1-.2.4-.7.5-1 .2-.3.4-.4.8-.4h4.9c.4 0 .6.1.8.4l.5 1c.2.3.4.5.9.5h1.4l-4.2-7.7zm-4 4.1l2-3.6 2 3.6h-4z"/><g><path class="st0" d="M81 6.9c-2 0-3.5-1.5-3.4-3.5C77.5 1.5 79.1 0 81 0c2 0 3.5 1.6 3.5 3.5-.1 1.9-1.6 3.4-3.5 3.4zm0-6.4c-1.6 0-2.9 1.3-3 2.9 0 1.6 1.3 2.9 2.9 2.9v.3-.2c1.6 0 2.9-1.3 2.9-2.9.1-1.6-1.1-2.9-2.8-3z"/><path class="st0" d="M79.2 5.2V5h.3v-.4-.9-1.1V2v-.1s-.1 0-.3-.1v-.1h2c.3 0 .5 0 .6.1.1 0 .2.1.2.2.1.1.1.3.1.4 0 .2-.1.4-.2.5-.1.2-.3.3-.6.4l.5.8.4.6.3.3h.2v.2h-.9c-.1-.2-.4-.6-.7-1l-.5-.8v-.1h.1c.2 0 .3-.1.5-.2s.2-.3.2-.5-.1-.4-.2-.5c-.1-.1-.3-.1-.5-.1h-.3V4.8l.1.1h.3v.2H80c-.3.1-.5.1-.8.1z" id="SPLINE_22_"/></g><g><path class="st0" d="M393.4 6.9c-2 0-3.5-1.5-3.4-3.5 0-1.9 1.6-3.4 3.4-3.4 2 0 3.5 1.6 3.5 3.5-.1 1.9-1.6 3.4-3.5 3.4zm0-6.4c-1.6 0-2.9 1.3-3 2.9 0 1.6 1.3 2.9 2.9 2.9v.3-.2c1.6 0 2.9-1.3 2.9-2.9.1-1.6-1.2-2.9-2.8-3z"/><path class="st0" d="M391.6 5.2V5h.3v-.4-.9-1.1V2v-.1s-.1 0-.3-.1v-.1h2c.3 0 .5 0 .6.1.1.1.2.1.3.3.1.1.1.3.1.4 0 .2-.1.4-.2.5-.1.2-.3.3-.6.4l.5.8.4.6c.1.1.1.2.2.2h.2v.2h-.9c-.1-.2-.4-.6-.7-1l-.5-.8v-.1h.1c.2 0 .3-.1.5-.2s.2-.3.2-.5-.1-.4-.2-.5c-.1-.1-.3-.1-.5-.1h-.3V4.8l.1.1h.3v.2h-.8c-.3.1-.5.1-.8.1z" id="SPLINE_21_"/></g><g><path class="st0" d="M40.8 26h26.9c-.4.5-.6.9-.9 1.4-.2.3-.4.4-.7.4H40.2c-.4 0-.6 0-.8.3L32.5 38h4.9c.1 0 .3-.2.4-.3 1.2-1.8 2.5-3.6 3.7-5.4.3-.4.6-.6 1.1-.6h20.9c5.1 0 6.2-.9 7.5-2.9.6-.9 1.7-2.5 2.3-3.5.8-1.6-.4-3.2-3-3.2H44c-.5 0-.8 0-1.2.7-.6 1.1-1.2 2-2 3.2zM38.1 27.7H11c.4-.5.7-1 1-1.5.1-.2.3-.3.6-.3H39c.3 0 .4-.1.6-.3.3-.5.7-1 1.1-1.6.5-.7.9-1.4 1.4-2.1H10.6c-.6 0-1 .3-1.2.6-.2.3-.3.5-.4.7-1.1 1.6-2.3 3.3-3.4 4.9-1 1.5-.6 2.8.9 3.4.8.3 1.6.5 2.4.5h25.8c.2 0 .4-.1.5-.3.7-.9 1.3-1.8 1.9-2.8.4-.2.7-.6 1-1.2zM46.3 15.9H20.6c-5.3 0-9 3.1-9.5 4.3h31.8c.2 0 .4 0 .6-.2.9-1.3 2.8-4.1 2.8-4.1z"/></g><path d="M.6 17.5v-5c0-3.1 1.9-5 5-5h66.5c3.1 0 5 1.9 5 5v28.6c0 3.1-1.9 5-5 5H5.6c-3.1 0-5-1.9-5-5V17.5z" style="fill:none;stroke:#fff;stroke-width:1.2;stroke-miterlimit:10"/></svg>