<svg id="Layer_1" data-name="Layer 1" xmlns="http://www.w3.org/2000/svg" width="4.28in" height="1.29in" viewBox="0 0 308.1 92.86"><title>fifteen52-performance-wheels</title><path d="M72.36,42.56q0-4.87,6.12-4.88V26.29q-20.19,0-20.19,15.18v1.79h-5.2v11h5.2V80.7H72.36V54.23h6.32v-11H72.36ZM37,38.44H51.64V26.81H37Zm233.26-3.5a14.93,14.93,0,0,1,1.07-1.9,15.67,15.67,0,0,1,6.92-5.68c2.89-1.28,6.89-1.92,11.88-1.92,1.47,0,2.85,0,4.15.15L252.9,6.27l-9.34,20h26.72ZM27.32,42.56q0-4.87,6.11-4.88V26.29q-20.19,0-20.19,15.18v1.79H8.11v11h5.13V80.7H27.32V54.23h6.31v-11H27.32ZM37,80.7H51.64V43.26H37ZM286,52.92c4.07-3,6.68-5.31,7.77-6.81a6.71,6.71,0,0,0,1.51-3.82A4.08,4.08,0,0,0,294,39.22a5.33,5.33,0,0,0-7,0c-.93.92-1.61,2.76-2,5.32l-.17,1.25-17-1.39L268,43c.12-.92.28-1.8.46-2.64H247l-.68,4.26a21.84,21.84,0,0,1,2.73-.83,21,21,0,0,1,4.93-.6c5.5,0,10,1.7,13.48,5.06A17.08,17.08,0,0,1,272.72,61a20.78,20.78,0,0,1-.55,4.72C274.85,62.05,279.51,57.75,286,52.92Zm30.18-17.09-6.93-3.24c.11.15.23.3.34.46a15.45,15.45,0,0,1,2.63,8.75A16.64,16.64,0,0,1,312,45ZM298.87,61.31c-2.85,2-4.77,3.36-5.71,4.13-.28.23-.59.49-.9.77H302l6.14-13.15A44.48,44.48,0,0,1,298.87,61.31Zm-196.8,9.9A2.67,2.67,0,0,1,99.56,70a7.12,7.12,0,0,1-.47-3.23V54.32h8V43.24h-8v-17L84.42,33.8v9.44H80V54.32h4.45V66.66c0,4.26.41,7.35,1.24,9.25a8.52,8.52,0,0,0,3.83,4.25c1.72.94,4.41,1.41,8.05,1.41a47.74,47.74,0,0,0,10.14-1.19l-1.08-10.1A16.09,16.09,0,0,1,102.07,71.21Zm151.93-3c1.08-1.25,1.63-3.24,1.64-5.9s-.55-4.68-1.62-5.85a5.43,5.43,0,0,0-4.26-1.72,7.07,7.07,0,0,0-3.39.87A10.41,10.41,0,0,0,243.58,58l-.48.53-11.4-1.65v-.44q0-7.55-3.43-11.16t-9.51-3.62a16.33,16.33,0,0,0-7.63,1.64A20.38,20.38,0,0,0,205,48.74V42.52H191.32V54.11a18,18,0,0,0-1.16-2.78,16.76,16.76,0,0,0-7.23-7.2q-4.74-2.48-12.94-2.48-10.11,0-15.84,5.54a17.93,17.93,0,0,0-4.75,7.73A19.31,19.31,0,0,0,148,51.33a16.86,16.86,0,0,0-7.23-7.2q-4.75-2.48-12.95-2.48-10.09,0-15.83,5.54t-5.74,14.49a20.45,20.45,0,0,0,2.86,10.95,17.5,17.5,0,0,0,7.21,6.8q4.35,2.13,11.94,2.14,8.73,0,13.41-2.5a20.77,20.77,0,0,0,8-8.25l-14.42-1.34a9.41,9.41,0,0,1-2.55,2.41,8.32,8.32,0,0,1-4.1,1.08A6.93,6.93,0,0,1,123,70.49a9.49,9.49,0,0,1-1.9-5.25h27.54a19.39,19.39,0,0,0,2.6,7.39,17.56,17.56,0,0,0,7.21,6.8q4.35,2.13,11.94,2.14c5.82,0,10.3-.84,13.41-2.5a20.13,20.13,0,0,0,7.49-7.45V80.7H206V62.37q0-5.22,1.65-7.23a5.33,5.33,0,0,1,4.32-2,4.72,4.72,0,0,1,3.73,1.5c.89,1,1.34,2.69,1.34,5.08v21h14.7V64.13l12.43-1.35.19,1.26a7.52,7.52,0,0,0,2.05,4.52,5.18,5.18,0,0,0,3.7,1.46A4.9,4.9,0,0,0,254,68.21Zm-132.84-10a10.19,10.19,0,0,1,1.69-5.14,7.17,7.17,0,0,1,10.45-.94c1.23,1.23,2,3.25,2.28,6.08ZM165,53.09a7.16,7.16,0,0,1,10.44-.94c1.24,1.23,2,3.25,2.29,6.08H163.34A10.1,10.1,0,0,1,165,53.09Zm26.29,17.68L177.4,69.48a9.57,9.57,0,0,1-2.56,2.41,8.3,8.3,0,0,1-4.1,1.08,6.91,6.91,0,0,1-5.53-2.48,9.42,9.42,0,0,1-1.91-5.25h28ZM267,79.05a27.12,27.12,0,0,1,.93-4.56,17.94,17.94,0,0,1-5.39,4.33c-3.22,1.72-7.35,2.58-12.29,2.58q-.81,0-1.59,0l38.05,17.76,8.67-18.58-28.56,0Z" transform="translate(-8.11 -6.27)"/></svg>