<svg width="46" height="41" viewBox="0 0 46 41" fill="none" xmlns="http://www.w3.org/2000/svg">
<path id="Vector" d="M21.8301 0.587273C24.7719 0.486875 27.7681 0.500181 30.6336 1.25014C33.5766 2.10654 36.5305 3.07422 39.1517 4.69872C41.217 5.95599 43.0569 7.55057 44.5949 9.41618C45.2929 10.2448 45.6836 11.4011 45.415 12.4741C45.1501 13.4889 44.3264 14.2643 43.3768 14.6586C42.8168 14.8522 42.2616 15.1316 41.6531 15.0989C38.9122 15.0445 36.1712 15.1134 33.4278 15.0989C32.7783 15.0844 32.0622 14.8957 31.6691 14.3405C31.2288 13.7611 30.5308 13.478 29.8667 13.2434C28.3705 12.7208 26.7835 12.5515 25.2122 12.4378C22.9478 12.3325 20.652 12.4378 18.4505 13.0099C17.253 13.4176 16.0313 14.1663 15.5571 15.3989C15.1846 16.5988 15.1652 17.8689 15.1942 19.1148C15.2112 19.5648 15.1749 20.0438 15.3974 20.4538C15.5361 20.7354 15.7452 20.9763 16.0044 21.1532C16.2636 21.3302 16.5641 21.4372 16.8768 21.4639C18.5981 21.6477 20.3326 21.603 22.06 21.603C23.5526 21.5582 25.061 21.5582 26.5355 21.8558C27.1815 21.9577 27.8053 22.1692 28.3801 22.4811C29.5498 23.2359 30.2115 24.6318 30.2272 26.0047C30.1498 26.9095 29.8801 27.8191 29.3406 28.5582C28.7421 29.3613 27.8727 29.92 26.8935 30.1307C26.101 30.272 25.2957 30.328 24.4913 30.2976C21.8301 30.2649 19.1581 30.2976 16.4921 30.2976C15.9539 30.2867 15.3672 30.4778 15.06 30.9447C14.818 31.2992 14.7987 31.7503 14.7854 32.1665C14.7697 33.7764 14.6838 35.3852 14.6366 36.994C14.6427 38.0137 14.4987 39.1713 13.7149 39.897C13.0738 40.4063 12.2126 40.5018 11.4166 40.543C8.79179 40.543 6.17058 40.451 3.54573 40.4474C2.35427 40.4619 1.16644 39.7833 0.63179 38.708C0.14069 37.8117 0.0717423 36.7726 0.0741615 35.7687C-0.0129301 34.5264 0.00884277 33.2805 0.000375531 32.037C0.00884277 28.73 -0.0286535 25.4217 0.068115 22.1183C0.0874687 19.618 0.103193 17.1177 0.132224 14.6187C0.149158 13.6619 0.773314 12.7232 1.69261 12.4148C2.88045 11.9709 4.00054 11.3697 5.10491 10.7516C7.93175 9.16163 10.5528 7.23078 12.9093 5.00233C13.5141 4.42535 14.0584 3.79878 14.6027 3.16736C15.1168 2.56256 15.5281 1.8368 16.2321 1.42069C17.2131 0.797744 18.419 0.854596 19.5319 0.733636C20.2951 0.630819 21.0596 0.653801 21.8301 0.587273Z" fill="white"/>
</svg>
