<svg xmlns="http://www.w3.org/2000/svg" version="1.2" baseProfile="tiny" viewBox="0 0 162 46.858" width="162" height="46.858"><g stroke-width=".138" fill="none" stroke="gray"><path vector-effect="non-scaling-stroke" d="M26.83 16.734q.012-.271.225-.102c1.308 1.041 2.832 2.112 3.655 3.559.585 1.028.055 2.365.126 3.45.046.706.365 1.24.434 1.851a.137.135 65.9 0 1-.044.117c-.962.864-.083 2.36-1.041 3.128-.48.386-.543.384-.713.904q-.247.748-.336 1.53-.068.592.253.09.615-.961 1.192-2.097.299-.587.629-2.04a.04.029-81.9 0 1 .03-.032h.035a.055.025 84.9 0 1 .029.051c.182 1.755-.176 3.016-1.245 4.432q-.252.332-1.056.71c-.395.184-.828.755-1.345 1.01q-1.688.835-3.252 1.874c-1.668 1.107-3.312 2.04-5.282 2.057q-1.58.014-2.061-.025c-1.274-.102-2.771-.612-4.213-1.145q-.72-.265-1.357-.655c-3.257-1.995-5.094-4.271-6.422-7.754-.398-1.041-.428-2.073-.478-3.167-.101-2.207-.164-3.912.563-5.785q.608-1.565.974-2.596c.467-1.309 1.201-2.47 1.908-3.639q.373-.618.641-.849 2.416-2.094 2.765-2.559c1.534-2.055 3.606-4.509 5.886-5.373.774-.293 1.668-.352 2.407-.604.792-.268 3.135-1.479 2.965-2.424a.137.137 0 0 0-.13-.113C17.935.368 13.258.495 8.615.463Q6.619.449 5.863.611c-2.272.488-4.132 2.264-4.777 4.513C.792 6.148.814 7.304.805 8.466q-.082 12.06-.177 24.12c-.025 3.058 2.326 5.616 5.253 6.082q.585.093 2.759.108 11.575.084 23.151.062 1.562-.003 2.315-.202c2.8-.744 4.617-3.293 4.748-6.158q.079-1.733.08-2.872c.008-7.283.126-14.565.115-21.848q-.001-1.561-.145-2.239c-.675-3.183-3.687-5.053-6.85-4.911a.138.135 17.5 0 0-.102.053c-1.768 2.27-3.413 3.953-5.582 5.978a.13.13 0 0 0-.043.083q-.097.74-.759 1.396-4.166 4.137-7.642 6.938-.072.058.014.106a.088.087-45.4 0 0 .088-.001l.223-.133a.138.138 0 0 1 .13-.006q.147.07.083.223-.318.76-1.162.849a.138.138 0 0 0-.124.133l-.004.131a.142.137-25.5 0 1-.032.084c-.557.666-1.012 2.463-.417 3.196.94 1.162 2.5 1.555 3.767.672 1.132-.789 1.782-1.816 1.259-3.214a.149.141-49.4 0 1-.004-.086q.046-.162.164.033c.279.459.308 1.471.268 2.025q-.126 1.725-1.861 2.29c-2.202.716-3.566-.293-4.611-2.137a.134.131-4.8 0 0-.075-.062c-.373-.129-.337 1.649-.332 1.993.012.818.787 1.836 1.287 2.452.749.925 2.248 1.299 3.374 1.364 1.382.082 3.492-.767 4.281-1.975.713-1.091 1.247-2.701.865-4.006q-.09-.311-.191-.621-.21-.647.235-.133.478.549.567 1.368c.112 1.034.171 2.343-.282 3.309-.252.536-.506 1.494-1.045 1.758q-.973.475-2.893 1.277c-1.099.458-2.449.603-3.579.163-4.387-1.71-5.23-6.686-3.02-10.432a.106.104 53.2 0 0 .011-.083c-.061-.241-.318.348-.335.364q-.597.547-1.049.926-.025.021-.037.05-.937 2.098-1.854 3.963-.061.123-.163.672c-.1.528-.452.981-.517 1.479-.12.925-.152 2.224.094 3.163.582 2.223 2.51 4.326 4.679 4.921q5.125 1.404 9.46-1.232c.878-.534 2.095-1.906 2.434-2.879.312-.9.774-1.848.933-2.782q.083-.484.35-.894a.135.13 58.4 0 0 .021-.095 5.163 5.163 0 0 1-.069-.839c.014-1.382-.375-2.933-1.342-3.966q-.723-.773-.686-1.711m26.97-9.1.017-2.148a.138.137-89.4 0 1 .138-.137l19.54.029q.335.001.336-.263l.022-4.029a.138.138 0 0 0-.137-.14Q63.724.851 53.641.869c-2.415.004-5.349.726-6.175 3.37q-.217.693-.229 2.343-.048 6.126-.072 12.25a.14.138 0 0 0 .14.138q2.879-.006 5.757.039c.05.001.276-.041.308-.05a.253.253 0 0 0 .185-.242l.055-6.226c.003-.335-.04-.604.401-.603q9.052.044 18.203.073a.137.137 0 0 0 .138-.137l.014-3.837a.138.138 0 0 0-.138-.138l-18.29-.079a.138.138 0 0 1-.138-.138m29.471 6.807.048-13.118q.001-.35-.314-.35L76.28.968a.138.138 0 0 0-.138.137q-.086 6.14-.087 12.251c-.001 5.541 4.911 5.774 9.022 5.786q3.575.011 9.861-.003c2.329-.006 5.464-.105 7.059-2.113q.934-1.178.941-2.755.028-6.473.044-13.053a.137.137 0 0 0-.137-.138l-6.523-.04a.14.14 0 0 0-.14.137q-.08 5.89-.091 11.738-.001.455-.058 1.631a.137.137 0 0 1-.135.131q-2.149.029-4.289.001-1.363-.018-2.766-.015-2.72.004-5.439-.086a.14.14 0 0 1-.134-.14m28.943-9.122c0-.983.068-2.726-.017-4.079a.137.137 0 0 0-.137-.13h-6.687a.14.138-89.7 0 0-.138.138q-.041 5.543-.075 10.975c-.007.995.003 2.167.167 2.952.817 3.892 5.011 4.071 8.157 4.093q9.199.062 18.401.093a.138.137 0 0 0 .138-.137l.026-3.87a.138.138 0 0 0-.137-.14l-19.611-.137a.138.138 0 0 1-.138-.14q.046-4.777.051-9.619m22.04-3.008q-.057 5.648-.043 11.297c.001.757.127 1.786.365 2.463 1.106 3.146 5.316 3.344 8.049 3.374q9.164.102 18.189.083.352 0 .352-.344l.003-3.663a.138.138 0 0 0-.137-.138q-9.427-.076-19.005-.135-.336-.001-.484-.014a.138.137 2.8 0 1-.126-.138l.058-13.5q.001-.336-.347-.339l-6.497-.043q-.321-.003-.348.321-.026.297-.03.777M65.661 24.853l-.014 3.382a.138.138 0 0 1-.14.138l-5.224-.044q-.166-.001-.38.021-.173.018-.322.023-.241.01-.112.213l6.599 10.354a.141.14-16.5 0 0 .117.064l7.116.014q.278.001.111-.221l-4.66-6.168q-.253-.336.156-.433c1.612-.38 3.548-1.516 4.047-3.273.275-.963.167-2.373.163-3.5-.001-.503-.203-1.399-.365-1.826-1.02-2.704-4.506-3.17-6.96-3.17q-9.24-.003-18.481-.051a.14.138 7 0 0-.135.105q-.053.211-.054.735l-.057 17.509a.138.138 0 0 0 .137.138q3.012.048 6.081.053.554 0 .845-.061a.138.137-5.7 0 0 .111-.134l.077-13.798a.253.243 1.1 0 1 .261-.242c.094.004.225-.037.348-.037q5.298.008 10.596.069a.138.138 0 0 1 .137.138m30.268 8.71.004 5.409a.138.137 0 0 0 .138.137l6.392.037q.395.001.398-.369l.104-12.16c.022-2.668-.757-4.697-3.552-5.449q-2.004-.538-3.655-.572-3.659-.075-11.372-.065c-2.719.003-6.998.227-8.05 3.429q-.202.615-.213 1.87-.059 6.462-.066 13.035a.138.138 0 0 0 .135.138q2.939.051 6.003.046c.615-.001.72.112.731-.582q.037-2.402.055-4.939a.14.137 84.7 0 1 .109-.134q.282-.062.745-.061 5.978.011 11.956.091a.138.138 0 0 1 .137.138m16.211-8.532a.138.137 3.2 0 1 .137-.122l19.386.076q.326.001.328-.274l.022-3.801a.138.138 0 0 0-.137-.14q-9.586-.083-19.175-.1-1.362-.003-2.861.267c-2.389.428-4.3 1.373-4.698 3.915q-.061.391-.057 2.76.006 2.774.007 5.548.003 1.628.207 2.344c1.146 3.984 6.545 3.713 9.785 3.733q7.637.048 15.274.069.742.003 1.402-.021a.138.138 0 0 0 .133-.137l.059-3.963a.138.138 0 0 0-.137-.141l-19.651-.097a.138.137-89.7 0 1-.137-.14q.025-4.208.039-8.407.001-.767.075-1.373m29.168 2.715.046-2.528a.138.137-89.1 0 1 .138-.135l19.429.072a.138.138 0 0 0 .138-.137l.053-3.919a.14.14 0 0 0-.137-.141q-9.416-.116-18.956-.115c-2.748.001-6.609.336-7.591 3.472q-.199.639-.207 1.928-.023 3.866-.028 7.732c-.001 2.568 1.254 4.147 3.68 4.843q1.836.528 3.57.546 9.484.098 19.378.108a.138.138 0 0 0 .138-.137l.05-3.98a.138.137.9 0 0-.137-.14l-19.481-.112a.137.137 0 0 1-.137-.141l.062-2.625a.138.138 0 0 1 .138-.135l18.011.051a.138.138 0 0 0 .14-.137l.036-3.928a.137.135-84.9 0 0-.113-.137q-.344-.061-.669-.061-8.707.006-17.414-.105a.138.138 0 0 1-.135-.141m13.332 13.284v1.067a.07.07 0 0 0 .07.07h.048a.088.088 0 0 0 .088-.088v-1.052a.138.138 0 0 1 .138-.138h.258a.09.088-73.6 0 0 .075-.041c.13-.211-.994-.131-1.099-.133a.057.055-79.5 0 0-.053.037c-.029.076.054.13.127.133l.213.007a.138.138 0 0 1 .133.138m1.136.102.305.901q.126.366.261.003.16-.431.326-.863.023-.062.054-.025a.037.033-68 0 1 .008.023l-.023.876a.111.111 0 0 0 .111.113h.047a.057.057 0 0 0 .057-.057v-1.251a.138.138 0 0 0-.138-.138h-.036a.14.14 0 0 0-.131.093l-.288.835q-.106.307-.209-.001l-.278-.825a.135.129 7.4 0 0-.061-.075c-.242-.142-.296.077-.278.264q.048.531.006 1.063a.087.087 0 0 0 .08.094l.053.006a.072.07 2 0 0 .077-.072l-.021-.968a.032.015 88 0 1 .014-.033h.035a.048.021 73.8 0 1 .029.036m-142.402.91a.046.046 0 0 1 .046-.046h2.264a.046.046 0 0 0 .046-.044l.019-.427a.046.046 0 0 0-.046-.047h-5.323a.046.046 0 0 0-.046.046v.427a.046.046 0 0 0 .046.046h2.293a.046.046 0 0 1 .046.046v4.09a.046.046 0 0 0 .046.046h.565a.046.046 0 0 0 .046-.046l-.001-4.09m6.816 2.017a.058.058 0 0 1 .058-.059h4.161a.058.058 0 0 1 .058.058v2.061a.058.058 0 0 0 .058.058h.506a.058.058 0 0 0 .058-.058v-4.584a.058.058 0 0 0-.058-.058h-.506a.058.058 0 0 0-.058.058v1.888a.058.058 0 0 1-.058.058h-4.133a.058.058 0 0 1-.058-.058l-.006-1.888a.058.058 0 0 0-.058-.058h-.536a.058.058 0 0 0-.058.058v4.584a.058.058 0 0 0 .058.058l.55.001a.058.058 0 0 0 .058-.059l-.036-2.06m10.024 1.599a.064.064 0 0 1-.064-.062l-.023-1.532a.064.064 0 0 1 .064-.065h3.731a.064.064 0 0 0 .064-.066l-.021-.391a.064.064 0 0 0-.064-.061h-3.686a.064.064 0 0 1-.064-.064l.006-1.359a.064.064 0 0 1 .064-.064h3.859a.064.064 0 0 0 .064-.064v-.391a.064.064 0 0 0-.064-.064h-4.503a.064.064 0 0 0-.064.064v4.572a.064.064 0 0 0 .064.064h4.538a.064.064 0 0 0 .064-.064l.001-.391a.064.064 0 0 0-.064-.064h-3.901m13.005-3.661a.046.046 0 0 1 .046.046v4.09a.046.046 0 0 0 .046.046h.565a.046.046 0 0 0 .046-.046l-.001-4.09a.046.046 0 0 1 .046-.046h2.278a.046.046 0 0 0 .046-.046v-.427a.046.046 0 0 0-.046-.046h-5.318a.046.046 0 0 0-.046.046v.427a.046.046 0 0 0 .046.046h2.293m6.896 3.135c.008.684.51 1.033 1.139 1.064q1.617.079 3.229-.006 1.147-.061 1.15-1.256.004-1.657-.001-3.317a.138.138 0 0 0-.138-.138h-.343a.138.138 0 0 0-.138.138q.006 1.671-.01 3.344-.006.675-.621.724-.489.04-2.987 0c-.405-.006-.626-.297-.64-.704q-.058-1.678-.014-3.36a.138.138 0 0 0-.138-.142h-.357a.138.138 0 0 0-.138.137q-.012 1.764.007 3.516m14.745-1.125q.39-.177.485-.658c.178-.908-.076-1.855-1.179-1.859q-3.164-.01-4.006-.006a.138.138 0 0 0-.137.138v4.418a.138.138 0 0 0 .138.138h.352a.138.138 0 0 0 .138-.14l-.01-1.583a.138.138 0 0 1 .137-.14q1.57-.017 3.14-.007c.926.006.847 1.024.788 1.718a.138.137-87.4 0 0 .137.151h.325a.138.137.9 0 0 .138-.133q.044-1.111-.029-1.321-.126-.359-.426-.52-.198-.105.007-.198m9.585-.279q-.25-.07-.01-.167.292-.119.377-.398c.268-.879-.113-1.668-1.139-1.677q-1.957-.018-3.939.008a.138.138 0 0 0-.137.138v4.394a.138.138 0 0 0 .135.138q1.901.04 3.809.001.686-.014.998-.196c.604-.354.628-1.208.411-1.779q-.137-.361-.506-.463m10.9-.932a1.327 1.327 0 0 0-1.329-1.325l-3.378.006a1.327 1.327 0 0 0-1.325 1.329l.004 2.098a1.327 1.327 0 0 0 1.329 1.325l3.378-.006a1.327 1.327 0 0 0 1.325-1.329l-.004-2.098m8.023 2.867a.064.064 0 0 1-.064-.064v-1.532a.064.064 0 0 1 .064-.064h3.731a.064.064 0 0 0 .064-.066l-.017-.391a.064.064 0 0 0-.064-.061h-3.717a.064.064 0 0 1-.064-.064l.01-1.359a.064.064 0 0 1 .064-.064h3.874a.064.064 0 0 0 .064-.064l.001-.391a.064.064 0 0 0-.064-.064h-4.505a.064.064 0 0 0-.064.064v4.572a.064.064 0 0 0 .064.064h4.538a.064.064 0 0 0 .064-.064l.001-.391a.064.064 0 0 0-.064-.064h-3.917m10.245-2.003a.041.041 0 0 1-.001.061l-2.492 2.391a.041.041 0 0 0 .029.072h.814a.041.041 0 0 0 .029-.012l2.174-2.149a.041.041 0 0 1 .058-.001l2.23 2.152a.041.041 0 0 0 .029.011h.77a.041.041 0 0 0 .029-.072l-2.492-2.391a.041.041 0 0 1 0-.061l2.192-2.105a.041.041 0 0 0-.029-.072l-.763.001a.041.041 0 0 0-.029.011l-1.928 1.845a.041.041 0 0 1-.058 0l-1.919-1.849a.041.041 0 0 0-.029-.012l-.764.014a.041.041 0 0 0-.029.07l2.18 2.097m8.378.665q1.685-.007 3.367-.019c.726-.006 1.01-.467 1.053-1.114.086-1.31-.167-1.693-1.497-1.704q-1.783-.014-3.573.001a.138.138 0 0 0-.137.138v4.418a.138.138 0 0 0 .138.138h.384a.14.138 90 0 0 .138-.14l-.012-1.579a.138.138 0 0 1 .138-.14m9.179 1.341a.064.064 0 0 1-.064-.062l-.025-1.532a.064.064 0 0 1 .064-.065h3.731a.064.064 0 0 0 .064-.066l-.021-.391a.064.064 0 0 0-.064-.061h-3.681a.064.064 0 0 1-.064-.064l-.015-1.359a.064.064 0 0 1 .064-.064h3.874a.064.064 0 0 0 .064-.064v-.391a.064.064 0 0 0-.064-.064h-4.503a.064.064 0 0 0-.064.064v4.572a.064.064 0 0 0 .064.064h4.538a.064.064 0 0 0 .064-.064l.001-.391a.064.064 0 0 0-.064-.064h-3.899m12.835-1.655q.325-.127.42-.458.084-.285.041-.897c-.054-.789-.395-1.149-1.185-1.158q-1.997-.023-4.006-.006a.138.138 0 0 0-.137.138v4.418a.138.138 0 0 0 .138.138h.352a.138.138 0 0 0 .138-.14l-.01-1.583a.138.138 0 0 1 .137-.14q1.57-.017 3.14-.007c.927.004.845 1.023.788 1.72a.138.137-87.6 0 0 .137.149h.325a.138.137.9 0 0 .138-.133q.039-1.021-.028-1.324-.077-.348-.402-.518-.214-.112.011-.2m6.53-2.005a.046.046 0 0 1 .046.046v4.09a.046.046 0 0 0 .046.046h.565a.046.046 0 0 0 .046-.046l-.001-4.09a.046.046 0 0 1 .046-.046h2.278a.046.046 0 0 0 .046-.046v-.427a.046.046 0 0 0-.046-.046h-5.318a.046.046 0 0 0-.046.046v.427a.046.046 0 0 0 .046.046h2.293m7.33 1.772q.275.214.622.245 1.487.134 3.071.115c.847-.011.879 1.081.413 1.388-.438.289-3.309.326-3.71-.01q-.272-.228-.223-.659a.138.138 0 0 0-.137-.155h-.297a.14.14 0 0 0-.137.12q-.101.764.412 1.124c.621.434 3.977.427 4.571-.037.427-.335.441-.868.38-1.377-.077-.648-.579-.934-1.196-.962q-1.574-.066-2.659-.066-1.244.001-.865-1.096.123-.358.499-.397 1.525-.155 2.995 0 .576.061.539.679a.138.138 0 0 0 .138.147h.322a.138.138 0 0 0 .138-.135q.021-1.113-1.046-1.2-.5-.04-2.758-.011-.64.008-.919.151c-.728.372-.771 1.66-.155 2.138"/><path vector-effect="non-scaling-stroke" d="M95.97 25.188a.12.12 0 0 0-.12-.121l-12.681-.066a.12.12 0 0 0-.121.12l-.021 3.984a.12.12 0 0 0 .12.121l12.681.066a.12.12 0 0 0 .121-.12l.021-3.984M64.593 42.199q-.336-.188-.699-.194-1.551-.022-3.109-.017a.14.138-.3 0 0-.138.138v1.516a.138.138 0 0 0 .137.138q1.569.008 3.138-.015.384-.006.681-.249a.145.133-14.6 0 0 .046-.07q.159-.575.01-1.161a.137.134-82.3 0 0-.065-.087m9.146-.205q-.021-.007-.041-.007H70.38a.138.138 0 0 0-.138.14l.015 1.211a.138.137-.3 0 0 .138.135l3.483-.001a.141.14-67.9 0 0 .101-.043c.365-.386.44-1.218-.239-1.435m.39 2.126q-.205-.116-.387-.117l-3.36-.017a.138.138 0 0 0-.138.14l.011 1.384a.14.138 0 0 0 .138.137q1.653.015 3.305.006.531-.003.658-.355.088-.25.059-.516-.058-.531-.286-.661m10.598-1.255a.936.936 0 0 0-.934-.937l-2.925-.005a.936.936 0 0 0-.937.934l-.003 1.888a.936.936 0 0 0 .934.937l2.925.005a.936.936 0 0 0 .937-.934l.003-1.888m30.62-.814q-.195-.055-.484-.059-1.435-.019-2.878.007a.138.137 89.7 0 0-.135.138l.01 1.511a.138.138 0 0 0 .138.137l3.17-.006q.395 0 .554-.377c.164-.388.164-1.194-.375-1.35m18.356.148q-.3-.176-.629-.182-1.585-.035-3.178-.029a.14.138-.3 0 0-.138.138v1.516a.138.138 0 0 0 .137.138q1.569.008 3.138-.015.383-.006.683-.249a.155.149-13.1 0 0 .046-.07q.158-.576.006-1.162a.137.135 8.4 0 0-.064-.084"/></g><path fill="#fff" d="M0 0h162v46.858H0V0Zm26.83 16.734q.012-.271.225-.102c1.308 1.041 2.832 2.112 3.655 3.559.585 1.028.055 2.365.126 3.45.046.706.365 1.24.434 1.851a.137.135 65.9 0 1-.044.117c-.962.864-.083 2.36-1.041 3.128-.48.386-.543.384-.713.904q-.247.748-.336 1.53-.068.592.253.09.615-.961 1.192-2.097.299-.587.629-2.04a.04.029-81.9 0 1 .03-.032h.035a.055.025 84.9 0 1 .029.051c.182 1.755-.176 3.016-1.245 4.432q-.252.332-1.056.71c-.395.184-.828.755-1.345 1.01q-1.688.835-3.252 1.874c-1.668 1.107-3.312 2.04-5.282 2.057q-1.58.014-2.061-.025c-1.274-.102-2.771-.612-4.213-1.145q-.72-.265-1.357-.655c-3.257-1.995-5.094-4.271-6.422-7.754-.398-1.041-.428-2.073-.478-3.167-.101-2.207-.164-3.912.563-5.785q.608-1.565.974-2.596c.467-1.309 1.201-2.47 1.908-3.639q.373-.618.641-.849 2.416-2.094 2.765-2.559c1.534-2.055 3.606-4.509 5.886-5.373.774-.293 1.668-.352 2.407-.604.792-.268 3.135-1.479 2.965-2.424a.137.137 0 0 0-.13-.113C17.935.368 13.258.495 8.615.463Q6.619.449 5.863.611c-2.272.488-4.132 2.264-4.777 4.513C.792 6.148.814 7.304.805 8.466q-.082 12.06-.177 24.12c-.025 3.058 2.326 5.616 5.253 6.082q.585.093 2.759.108 11.575.084 23.151.062 1.562-.003 2.315-.202c2.8-.744 4.617-3.293 4.748-6.158q.079-1.733.08-2.872c.008-7.283.126-14.565.115-21.848q-.001-1.561-.145-2.239c-.675-3.183-3.687-5.053-6.85-4.911a.138.135 17.5 0 0-.102.053c-1.768 2.27-3.413 3.953-5.582 5.978a.13.13 0 0 0-.043.083q-.097.74-.759 1.396-4.166 4.137-7.642 6.938-.072.058.014.106a.088.087-45.4 0 0 .088-.001l.223-.133a.138.138 0 0 1 .13-.006q.147.07.083.223-.318.76-1.162.849a.138.138 0 0 0-.124.133l-.004.131a.142.137-25.5 0 1-.032.084c-.557.666-1.012 2.463-.417 3.196.94 1.162 2.5 1.555 3.767.672 1.132-.789 1.782-1.816 1.259-3.214a.149.141-49.4 0 1-.004-.086q.046-.162.164.033c.279.459.308 1.471.268 2.025q-.126 1.725-1.861 2.29c-2.202.716-3.566-.293-4.611-2.137a.134.131-4.8 0 0-.075-.062c-.373-.129-.337 1.649-.332 1.993.012.818.787 1.836 1.287 2.452.749.925 2.248 1.299 3.374 1.364 1.382.082 3.492-.767 4.281-1.975.713-1.091 1.247-2.701.865-4.006q-.09-.311-.191-.621-.21-.647.235-.133.478.549.567 1.368c.112 1.034.171 2.343-.282 3.309-.252.536-.506 1.494-1.045 1.758q-.973.475-2.893 1.277c-1.099.458-2.449.603-3.579.163-4.387-1.71-5.23-6.686-3.02-10.432a.106.104 53.2 0 0 .011-.083c-.061-.241-.318.348-.335.364q-.597.547-1.049.926-.025.021-.037.05-.937 2.098-1.854 3.963-.061.123-.163.672c-.1.528-.452.981-.517 1.479-.12.925-.152 2.224.094 3.163.582 2.223 2.51 4.326 4.679 4.921q5.125 1.404 9.46-1.232c.878-.534 2.095-1.906 2.434-2.879.312-.9.774-1.848.933-2.782q.083-.484.35-.894a.135.13 58.4 0 0 .021-.095 5.163 5.163 0 0 1-.069-.839c.014-1.382-.375-2.933-1.342-3.966q-.723-.773-.686-1.711Zm26.969-9.101.017-2.148a.138.137-89.4 0 1 .138-.137l19.54.029q.335.001.336-.263l.022-4.029a.138.138 0 0 0-.137-.14Q63.724.851 53.641.869c-2.415.004-5.349.726-6.175 3.37q-.217.693-.229 2.343-.048 6.126-.072 12.25a.14.138 0 0 0 .14.138q2.879-.006 5.757.039c.05.001.276-.041.308-.05a.253.253 0 0 0 .185-.242l.055-6.226c.003-.335-.04-.604.401-.603q9.052.044 18.203.073a.137.137 0 0 0 .138-.137l.014-3.837a.138.138 0 0 0-.138-.138l-18.29-.079a.138.138 0 0 1-.138-.138Zm29.472 6.806.048-13.118q.001-.35-.314-.35L76.28.968a.138.138 0 0 0-.138.137q-.086 6.14-.087 12.251c-.001 5.541 4.911 5.774 9.022 5.786q3.575.011 9.861-.003c2.329-.006 5.464-.105 7.059-2.113q.934-1.178.941-2.755.028-6.473.044-13.053a.137.137 0 0 0-.137-.138l-6.523-.04a.14.14 0 0 0-.14.137q-.08 5.89-.091 11.738-.001.455-.058 1.631a.137.137 0 0 1-.135.131q-2.149.029-4.289.001-1.363-.018-2.766-.015-2.72.004-5.439-.086a.14.14 0 0 1-.134-.14Zm28.942-9.124c0-.983.068-2.726-.017-4.079a.137.137 0 0 0-.137-.13h-6.687a.14.138-89.7 0 0-.138.138q-.041 5.543-.075 10.975c-.007.995.003 2.167.167 2.952.817 3.892 5.011 4.071 8.157 4.093q9.199.062 18.401.093a.138.137 0 0 0 .138-.137l.026-3.87a.138.138 0 0 0-.137-.14l-19.611-.137a.138.138 0 0 1-.138-.14q.046-4.777.051-9.619Zm22.04-3.009q-.057 5.648-.043 11.297c.001.757.127 1.786.365 2.463 1.106 3.146 5.316 3.344 8.049 3.374q9.164.102 18.189.083.352 0 .352-.344l.003-3.663a.138.138 0 0 0-.137-.138q-9.427-.076-19.005-.135-.336-.001-.484-.014a.138.137 2.8 0 1-.126-.138l.058-13.5q.001-.336-.347-.339l-6.497-.043q-.321-.003-.348.321-.026.297-.03.777ZM65.661 24.853l-.014 3.382a.138.138 0 0 1-.14.138l-5.224-.044q-.166-.001-.38.021-.173.018-.322.023-.241.01-.112.213l6.599 10.354a.141.14-16.5 0 0 .117.064l7.116.014q.278.001.111-.221l-4.66-6.168q-.253-.336.156-.433c1.612-.38 3.548-1.516 4.047-3.273.275-.963.167-2.373.163-3.5-.001-.503-.203-1.399-.365-1.826-1.02-2.704-4.506-3.17-6.96-3.17q-9.24-.003-18.481-.051a.14.138 7 0 0-.135.105q-.053.211-.054.735l-.057 17.509a.138.138 0 0 0 .137.138q3.012.048 6.081.053.554 0 .845-.061a.138.137-5.7 0 0 .111-.134l.077-13.798a.253.243 1.1 0 1 .261-.242c.094.004.225-.037.348-.037q5.298.008 10.596.069a.138.138 0 0 1 .137.138Zm30.266 8.708.004 5.409a.138.137 0 0 0 .138.137l6.392.037q.395.001.398-.369l.104-12.16c.022-2.668-.757-4.697-3.552-5.449q-2.004-.538-3.655-.572-3.659-.075-11.372-.065c-2.719.003-6.998.227-8.05 3.429q-.202.615-.213 1.87-.059 6.462-.066 13.035a.138.138 0 0 0 .135.138q2.939.051 6.003.046c.615-.001.72.112.731-.582q.037-2.402.055-4.939a.14.137 84.7 0 1 .109-.134q.282-.062.745-.061 5.978.011 11.956.091a.138.138 0 0 1 .137.138Zm16.21-8.533a.138.137 3.2 0 1 .137-.122l19.386.076q.326.001.328-.274l.022-3.801a.138.138 0 0 0-.137-.14q-9.586-.083-19.175-.1-1.362-.003-2.861.267c-2.389.428-4.3 1.373-4.698 3.915q-.061.391-.057 2.76.006 2.774.007 5.548.003 1.628.207 2.344c1.146 3.984 6.545 3.713 9.785 3.733q7.637.048 15.274.069.742.003 1.402-.021a.138.138 0 0 0 .133-.137l.059-3.963a.138.138 0 0 0-.137-.141l-19.651-.097a.138.137-89.7 0 1-.137-.14q.025-4.208.039-8.407.001-.767.075-1.373Zm29.17 2.711.046-2.528a.138.137-89.1 0 1 .138-.135l19.429.072a.138.138 0 0 0 .138-.137l.053-3.919a.14.14 0 0 0-.137-.141q-9.416-.116-18.956-.115c-2.748.001-6.609.336-7.591 3.472q-.199.639-.207 1.928-.023 3.866-.028 7.732c-.001 2.568 1.254 4.147 3.68 4.843q1.836.528 3.57.546 9.484.098 19.378.108a.138.138 0 0 0 .138-.137l.05-3.98a.138.137.9 0 0-.137-.14l-19.481-.112a.137.137 0 0 1-.137-.141l.062-2.625a.138.138 0 0 1 .138-.135l18.011.051a.138.138 0 0 0 .14-.137l.036-3.928a.137.135-84.9 0 0-.113-.137q-.344-.061-.669-.061-8.707.006-17.414-.105a.138.138 0 0 1-.135-.141Zm13.333 13.282v1.067a.07.07 0 0 0 .07.07h.048a.088.088 0 0 0 .088-.088v-1.052a.138.138 0 0 1 .138-.138h.258a.09.088-73.6 0 0 .075-.041c.13-.211-.994-.131-1.099-.133a.057.055-79.5 0 0-.053.037c-.029.076.054.13.127.133l.213.007a.138.138 0 0 1 .133.138Zm1.135.102.305.901q.126.366.261.003.16-.431.326-.863.023-.062.054-.025a.037.033-68 0 1 .008.023l-.023.876a.111.111 0 0 0 .111.113h.047a.057.057 0 0 0 .057-.057v-1.251a.138.138 0 0 0-.138-.138h-.036a.14.14 0 0 0-.131.093l-.288.835q-.106.307-.209-.001l-.278-.825a.135.129 7.4 0 0-.061-.075c-.242-.142-.296.077-.278.264q.048.531.006 1.063a.087.087 0 0 0 .08.094l.053.006a.072.07 2 0 0 .077-.072l-.021-.968a.032.015 88 0 1 .014-.033h.035a.048.021 73.8 0 1 .029.036Zm-142.403.909a.046.046 0 0 1 .046-.046h2.264a.046.046 0 0 0 .046-.044l.019-.427a.046.046 0 0 0-.046-.047h-5.323a.046.046 0 0 0-.046.046v.427a.046.046 0 0 0 .046.046h2.293a.046.046 0 0 1 .046.046v4.09a.046.046 0 0 0 .046.046h.565a.046.046 0 0 0 .046-.046l-.001-4.09Zm6.817 2.018a.058.058 0 0 1 .058-.059h4.161a.058.058 0 0 1 .058.058v2.061a.058.058 0 0 0 .058.058h.506a.058.058 0 0 0 .058-.058v-4.584a.058.058 0 0 0-.058-.058h-.506a.058.058 0 0 0-.058.058v1.888a.058.058 0 0 1-.058.058h-4.133a.058.058 0 0 1-.058-.058l-.006-1.888a.058.058 0 0 0-.058-.058h-.536a.058.058 0 0 0-.058.058v4.584a.058.058 0 0 0 .058.058l.55.001a.058.058 0 0 0 .058-.059l-.036-2.06Zm10.024 1.599a.064.064 0 0 1-.064-.062l-.023-1.532a.064.064 0 0 1 .064-.065h3.731a.064.064 0 0 0 .064-.066l-.021-.391a.064.064 0 0 0-.064-.061h-3.686a.064.064 0 0 1-.064-.064l.006-1.359a.064.064 0 0 1 .064-.064h3.859a.064.064 0 0 0 .064-.064v-.391a.064.064 0 0 0-.064-.064h-4.503a.064.064 0 0 0-.064.064v4.572a.064.064 0 0 0 .064.064h4.538a.064.064 0 0 0 .064-.064l.001-.391a.064.064 0 0 0-.064-.064h-3.901Zm13.006-3.663a.046.046 0 0 1 .046.046v4.09a.046.046 0 0 0 .046.046h.565a.046.046 0 0 0 .046-.046l-.001-4.09a.046.046 0 0 1 .046-.046h2.278a.046.046 0 0 0 .046-.046v-.427a.046.046 0 0 0-.046-.046h-5.318a.046.046 0 0 0-.046.046v.427a.046.046 0 0 0 .046.046h2.293Zm6.897 3.135c.008.684.51 1.033 1.139 1.064q1.617.079 3.229-.006 1.147-.061 1.15-1.256.004-1.657-.001-3.317a.138.138 0 0 0-.138-.138h-.343a.138.138 0 0 0-.138.138q.006 1.671-.01 3.344-.006.675-.621.724-.489.04-2.987 0c-.405-.006-.626-.297-.64-.704q-.058-1.678-.014-3.36a.138.138 0 0 0-.138-.142h-.357a.138.138 0 0 0-.138.137q-.012 1.764.007 3.516Zm14.744-1.125q.39-.177.485-.658c.178-.908-.076-1.855-1.179-1.859q-3.164-.01-4.006-.006a.138.138 0 0 0-.137.138v4.418a.138.138 0 0 0 .138.138h.352a.138.138 0 0 0 .138-.14l-.01-1.583a.138.138 0 0 1 .137-.14q1.57-.017 3.14-.007c.926.006.847 1.024.788 1.718a.138.137-87.4 0 0 .137.151h.325a.138.137.9 0 0 .138-.133q.044-1.111-.029-1.321-.126-.359-.426-.52-.198-.105.007-.198Zm9.583-.281q-.25-.07-.01-.167.292-.119.377-.398c.268-.879-.113-1.668-1.139-1.677q-1.957-.018-3.939.008a.138.138 0 0 0-.137.138v4.394a.138.138 0 0 0 .135.138q1.901.04 3.809.001.686-.014.998-.196c.604-.354.628-1.208.411-1.779q-.137-.361-.506-.463Zm10.899-.933a1.327 1.327 0 0 0-1.329-1.325l-3.378.006a1.327 1.327 0 0 0-1.325 1.329l.004 2.098a1.327 1.327 0 0 0 1.329 1.325l3.378-.006a1.327 1.327 0 0 0 1.325-1.329l-.004-2.098Zm8.023 2.867a.064.064 0 0 1-.064-.064v-1.532a.064.064 0 0 1 .064-.064h3.731a.064.064 0 0 0 .064-.066l-.017-.391a.064.064 0 0 0-.064-.061h-3.717a.064.064 0 0 1-.064-.064l.01-1.359a.064.064 0 0 1 .064-.064h3.874a.064.064 0 0 0 .064-.064l.001-.391a.064.064 0 0 0-.064-.064h-4.505a.064.064 0 0 0-.064.064v4.572a.064.064 0 0 0 .064.064h4.538a.064.064 0 0 0 .064-.064l.001-.391a.064.064 0 0 0-.064-.064h-3.917Zm10.244-2.006a.041.041 0 0 1-.001.061l-2.492 2.391a.041.041 0 0 0 .029.072h.814a.041.041 0 0 0 .029-.012l2.174-2.149a.041.041 0 0 1 .058-.001l2.23 2.152a.041.041 0 0 0 .029.011h.77a.041.041 0 0 0 .029-.072l-2.492-2.391a.041.041 0 0 1 0-.061l2.192-2.105a.041.041 0 0 0-.029-.072l-.763.001a.041.041 0 0 0-.029.011l-1.928 1.845a.041.041 0 0 1-.058 0l-1.919-1.849a.041.041 0 0 0-.029-.012l-.764.014a.041.041 0 0 0-.029.07l2.18 2.097Zm8.379.666q1.685-.007 3.367-.019c.726-.006 1.01-.467 1.053-1.114.086-1.31-.167-1.693-1.497-1.704q-1.783-.014-3.573.001a.138.138 0 0 0-.137.138v4.418a.138.138 0 0 0 .138.138h.384a.14.138 90 0 0 .138-.14l-.012-1.579a.138.138 0 0 1 .138-.14Zm9.178 1.339a.064.064 0 0 1-.064-.062l-.025-1.532a.064.064 0 0 1 .064-.065h3.731a.064.064 0 0 0 .064-.066l-.021-.391a.064.064 0 0 0-.064-.061h-3.681a.064.064 0 0 1-.064-.064l-.015-1.359a.064.064 0 0 1 .064-.064h3.874a.064.064 0 0 0 .064-.064v-.391a.064.064 0 0 0-.064-.064h-4.503a.064.064 0 0 0-.064.064v4.572a.064.064 0 0 0 .064.064h4.538a.064.064 0 0 0 .064-.064l.001-.391a.064.064 0 0 0-.064-.064h-3.899Zm12.836-1.657q.325-.127.42-.458.084-.285.041-.897c-.054-.789-.395-1.149-1.185-1.158q-1.997-.023-4.006-.006a.138.138 0 0 0-.137.138v4.419a.138.138 0 0 0 .138.138h.352a.138.138 0 0 0 .138-.14l-.01-1.583a.138.138 0 0 1 .137-.14q1.57-.017 3.14-.007c.927.004.845 1.023.788 1.72a.138.137-87.6 0 0 .137.149h.325a.138.137.9 0 0 .138-.133q.039-1.021-.028-1.324-.077-.348-.402-.518-.214-.112.011-.2Zm6.527-2.006a.046.046 0 0 1 .046.046v4.09a.046.046 0 0 0 .046.046h.565a.046.046 0 0 0 .046-.046l-.001-4.09a.046.046 0 0 1 .046-.046h2.278a.046.046 0 0 0 .046-.046v-.427a.046.046 0 0 0-.046-.046h-5.318a.046.046 0 0 0-.046.046v.427a.046.046 0 0 0 .046.046h2.293Zm7.33 1.772q.275.214.622.245 1.487.134 3.071.115c.847-.011.879 1.081.413 1.388-.438.289-3.309.326-3.71-.01q-.272-.228-.223-.659a.138.138 0 0 0-.137-.155h-.297a.14.14 0 0 0-.137.12q-.101.764.412 1.124c.621.434 3.977.427 4.571-.037.427-.335.441-.868.38-1.377-.077-.648-.579-.934-1.196-.962q-1.574-.066-2.659-.066-1.244.001-.865-1.096.123-.358.499-.397 1.525-.155 2.995 0 .576.061.539.679a.138.138 0 0 0 .138.147h.322a.138.138 0 0 0 .138-.135q.021-1.113-1.046-1.2-.5-.04-2.758-.011-.64.008-.919.151c-.728.372-.771 1.66-.155 2.138Z"/><path d="M26.83 16.734q-.037.939.686 1.711c.968 1.033 1.356 2.583 1.342 3.966-.003.314.028.549.069.839a.135.13 58.4 0 1-.021.095q-.267.411-.35.894c-.159.934-.621 1.883-.933 2.782-.339.973-1.556 2.346-2.434 2.879q-4.335 2.636-9.46 1.232c-2.169-.594-4.097-2.698-4.679-4.921-.246-.939-.214-2.238-.094-3.163.065-.498.417-.951.517-1.479q.102-.549.163-.672.916-1.865 1.854-3.963.012-.029.037-.05.452-.379 1.049-.926c.017-.015.274-.604.335-.364a.106.104 53.2 0 1-.011.083c-2.21 3.746-1.367 8.722 3.02 10.432 1.129.44 2.48.294 3.579-.163q1.92-.802 2.893-1.277c.539-.264.793-1.222 1.045-1.758.453-.966.394-2.275.282-3.309q-.088-.82-.567-1.368-.445-.514-.235.133.101.31.191.621c.382 1.305-.152 2.915-.865 4.006-.789 1.208-2.899 2.057-4.281 1.975-1.127-.065-2.625-.44-3.374-1.364-.5-.616-1.274-1.634-1.287-2.452-.006-.344-.041-2.122.332-1.993a.134.131-4.8 0 1 .075.062c1.045 1.844 2.409 2.853 4.611 2.137q1.735-.565 1.861-2.29c.04-.554.011-1.566-.268-2.025q-.119-.195-.164-.033a.149.141-49.4 0 0 .004.086c.522 1.397-.127 2.424-1.259 3.214-1.266.883-2.827.491-3.767-.672-.594-.733-.14-2.53.417-3.196a.142.137-25.5 0 0 .032-.084l.004-.131a.138.138 0 0 1 .124-.133q.845-.088 1.162-.849.064-.152-.083-.223a.138.138 0 0 0-.13.006l-.223.133a.088.087-45.4 0 1-.088.001q-.086-.048-.014-.106 3.476-2.8 7.642-6.938.662-.657.759-1.396a.13.13 0 0 1 .043-.083c2.169-2.025 3.814-3.709 5.582-5.978a.138.135 17.5 0 1 .102-.053c3.163-.142 6.175 1.728 6.85 4.911q.144.679.145 2.239c.011 7.283-.106 14.565-.115 21.848q-.001 1.139-.08 2.872c-.131 2.865-1.948 5.414-4.748 6.158q-.753.199-2.315.202-11.576.022-23.151-.062-2.174-.015-2.759-.108C2.956 38.203.605 35.645.629 32.587q.095-12.06.177-24.12c.008-1.162-.014-2.318.281-3.342.644-2.25 2.504-4.026 4.772-4.513Q6.615.45 8.611.464c4.643.032 9.319-.095 13.957.075a.137.137 0 0 1 .13.113c.17.945-2.173 2.156-2.965 2.424-.738.252-1.632.311-2.407.604-2.279.864-4.351 3.317-5.886 5.373q-.348.464-2.765 2.559-.268.231-.641.849c-.706 1.169-1.44 2.33-1.908 3.639q-.366 1.031-.974 2.596c-.727 1.873-.663 3.577-.563 5.785.05 1.093.08 2.126.478 3.167 1.328 3.483 3.165 5.76 6.422 7.754q.637.39 1.357.655c1.442.532 2.939 1.042 4.213 1.145q.481.039 2.061.025c1.97-.017 3.613-.95 5.282-2.057q1.565-1.039 3.252-1.874c.517-.256.95-.827 1.345-1.01q.804-.379 1.056-.71c1.07-1.415 1.428-2.676 1.245-4.432a.055.025 84.9 0 0-.029-.051h-.032a.04.029-81.9 0 0-.03.032q-.33 1.453-.629 2.04-.576 1.136-1.192 2.097-.321.502-.253-.09.088-.782.336-1.53c.17-.52.234-.518.713-.904.958-.769.079-2.264 1.041-3.128a.137.135 65.9 0 0 .044-.117c-.069-.611-.388-1.145-.434-1.851-.07-1.085.459-2.422-.126-3.45-.822-1.447-2.347-2.518-3.655-3.559q-.213-.169-.225.102Zm26.969-9.101a.138.138 0 0 0 .138.138l18.29.079a.138.138 0 0 1 .138.138l-.014 3.837a.137.137 0 0 1-.138.137q-9.151-.029-18.203-.073c-.441-.001-.398.268-.401.603l-.055 6.226a.253.253 0 0 1-.185.242 2.756 2.756 0 0 1-.308.05q-2.878-.044-5.757-.039a.14.138 0 0 1-.14-.138q.023-6.123.072-12.25.012-1.65.229-2.343C48.29 1.596 51.225.874 53.64.87Q63.724.852 73.714.946a.138.138 0 0 1 .137.14l-.022 4.028q-.001.264-.336.263l-19.54-.029a.138.137-89.4 0 0-.138.137l-.017 2.148Zm29.606 6.946q2.719.09 5.439.086 1.403-.003 2.766.015 2.14.028 4.289-.001a.137.137 0 0 0 .135-.131q.057-1.176.058-1.631.011-5.848.091-11.738a.14.14 0 0 1 .14-.137l6.523.04a.137.137 0 0 1 .137.138q-.017 6.58-.044 13.053-.007 1.577-.941 2.755c-1.595 2.008-4.73 2.108-7.059 2.113q-6.286.014-9.861.003c-4.111-.012-9.023-.245-9.022-5.786q.001-6.111.087-12.251a.138.138 0 0 1 .138-.137l6.725.003q.315 0 .314.35l-.048 13.118a.14.14 0 0 0 .134.14Zm28.808-9.264q-.006 4.842-.051 9.619a.138.138 0 0 0 .138.14l19.611.137a.138.138 0 0 1 .137.14l-.026 3.87a.138.137 0 0 1-.138.137q-9.202-.03-18.401-.093c-3.146-.022-7.34-.2-8.157-4.093-.164-.785-.174-1.957-.167-2.952q.033-5.432.075-10.975a.14.138-89.7 0 1 .138-.138h6.687a.137.137 0 0 1 .137.13c.084 1.353.017 3.096.017 4.079Zm22.04-3.009q.004-.48.03-.777.028-.323.348-.321l6.497.043q.348.003.347.339l-.058 13.5a.138.137 2.8 0 0 .126.138q.148.012.484.014 9.578.059 19.005.135a.138.138 0 0 1 .137.138l-.003 3.663q0 .344-.352.344-9.025.019-18.189-.083c-2.733-.03-6.943-.228-8.049-3.374-.238-.677-.364-1.706-.365-2.463q-.014-5.649.043-11.297ZM65.524 24.715q-5.298-.061-10.596-.069c-.123 0-.254.041-.348.037a.253.243 1.1 0 0-.261.242l-.077 13.798a.138.137-5.7 0 1-.111.134q-.29.061-.845.061-3.069-.004-6.081-.053a.138.138 0 0 1-.137-.138l.057-17.509q.001-.524.054-.735a.14.138 7 0 1 .135-.105q9.24.048 18.481.051c2.453 0 5.94.466 6.96 3.17.162.427.364 1.323.365 1.826.004 1.127.112 2.536-.163 3.5-.499 1.757-2.436 2.893-4.047 3.273q-.409.097-.156.433l4.66 6.168q.167.223-.111.221l-7.116-.014a.141.14-16.5 0 1-.117-.064l-6.599-10.354q-.129-.203.112-.213.149-.006.322-.023.214-.022.38-.021l5.224.044a.138.138 0 0 0 .14-.138l.014-3.382a.138.138 0 0 0-.137-.138Zm30.266 8.708q-5.978-.08-11.956-.091-.463-.001-.745.061a.14.137 84.7 0 0-.109.134q-.018 2.536-.055 4.939c-.011.694-.116.581-.731.582q-3.064.006-6.003-.046a.138.138 0 0 1-.135-.138q.007-6.573.066-13.035.011-1.255.213-1.87c1.052-3.203 5.331-3.427 8.05-3.429q7.713-.01 11.372.065 1.65.035 3.655.572c2.795.752 3.575 2.781 3.552 5.449l-.104 12.16q-.003.37-.398.369l-6.392-.037a.138.137 0 0 1-.138-.137l-.004-5.409a.138.138 0 0 0-.137-.138Zm.18-8.235a.12.12 0 0 0-.12-.121l-12.681-.066a.12.12 0 0 0-.121.12l-.021 3.984a.12.12 0 0 0 .12.121l12.681.066a.12.12 0 0 0 .121-.12l.021-3.984Zm16.167-.16q-.073.605-.075 1.373-.014 4.199-.039 8.407a.138.137-89.7 0 0 .137.14l19.651.097a.138.138 0 0 1 .137.141l-.059 3.963a.138.138 0 0 1-.133.137q-.659.023-1.402.021-7.637-.021-15.274-.069c-3.24-.021-8.639.25-9.785-3.733q-.205-.716-.207-2.344-.001-2.774-.007-5.548-.004-2.369.057-2.76c.398-2.542 2.31-3.486 4.698-3.915q1.5-.27 2.861-.267 9.589.017 19.175.1a.138.138 0 0 1 .137.14l-.022 3.801q-.001.275-.328.274l-19.386-.076a.138.137 3.2 0 0-.137.122Zm29.305 2.852q8.707.111 17.414.105.325 0 .669.061a.137.135-84.9 0 1 .113.137l-.036 3.928a.138.138 0 0 1-.14.137l-18.011-.051a.138.138 0 0 0-.138.135l-.062 2.625a.137.137 0 0 0 .137.141l19.481.112a.138.137.9 0 1 .137.14l-.05 3.98a.138.138 0 0 1-.138.137q-9.894-.01-19.378-.108-1.735-.018-3.57-.546c-2.426-.697-3.681-2.275-3.68-4.843q.004-3.866.028-7.732.008-1.29.207-1.928c.983-3.136 4.843-3.471 7.591-3.472q9.54-.001 18.956.115a.14.14 0 0 1 .137.141l-.053 3.919a.138.138 0 0 1-.138.137l-19.429-.072a.138.137-89.1 0 0-.138.135l-.046 2.528a.138.138 0 0 0 .135.141Z"/><path fill="#fff" d="M95.95 29.172a.12.12 0 0 1-.121.12l-12.681-.066a.12.12 0 0 1-.12-.121l.021-3.984a.12.12 0 0 1 .121-.12l12.681.066a.12.12 0 0 1 .12.121l-.021 3.984Z"/><path d="m154.507 40.883-.213-.007c-.073-.003-.156-.057-.127-.133a.057.055-79.5 0 1 .053-.037c.105.001 1.229-.079 1.099.133a.09.088-73.6 0 1-.075.041h-.258a.138.138 0 0 0-.138.138v1.052a.088.088 0 0 1-.088.088h-.048a.07.07 0 0 1-.07-.07v-1.067a.138.138 0 0 0-.133-.138Zm1.238.204h-.035a.032.015 88 0 0-.014.033l.021.968a.072.07 2 0 1-.077.072l-.053-.006a.087.087 0 0 1-.08-.094q.043-.532-.006-1.063c-.018-.187.036-.406.278-.264a.135.129 7.4 0 1 .061.075l.278.825q.102.308.209.001l.288-.835a.14.14 0 0 1 .131-.093h.036a.138.138 0 0 1 .138.138v1.251a.057.057 0 0 1-.057.057h-.047a.111.111 0 0 1-.111-.113l.023-.876a.037.033-68 0 0-.008-.023q-.03-.037-.054.025-.166.431-.326.863-.135.364-.261-.003l-.305-.901a.048.021 73.8 0 0-.029-.036Zm-142.373.945.001 4.09a.046.046 0 0 1-.046.046h-.565a.046.046 0 0 1-.046-.046v-4.09a.046.046 0 0 0-.046-.046h-2.292a.046.046 0 0 1-.046-.046v-.427a.046.046 0 0 1 .046-.046h5.323a.046.046 0 0 1 .046.047l-.019.427a.046.046 0 0 1-.046.044h-2.264a.046.046 0 0 0-.046.046Zm6.817 2.018.036 2.06a.058.058 0 0 1-.058.059l-.55-.001a.058.058 0 0 1-.058-.058v-4.584a.058.058 0 0 1 .058-.058h.536a.058.058 0 0 1 .058.058l.006 1.888a.058.058 0 0 0 .058.058h4.133a.058.058 0 0 0 .058-.058v-1.888a.058.058 0 0 1 .058-.058h.506a.058.058 0 0 1 .058.058v4.584a.058.058 0 0 1-.058.058h-.506a.058.058 0 0 1-.058-.058v-2.061a.058.058 0 0 0-.058-.058h-4.161a.058.058 0 0 0-.058.059Zm10.024 1.599h3.901a.064.064 0 0 1 .064.064l-.001.391a.064.064 0 0 1-.064.064h-4.538a.064.064 0 0 1-.064-.064v-4.572a.064.064 0 0 1 .064-.064h4.503a.064.064 0 0 1 .064.064v.391a.064.064 0 0 1-.064.064h-3.859a.064.064 0 0 0-.064.064l-.006 1.359a.064.064 0 0 0 .064.064h3.686a.064.064 0 0 1 .064.061l.021.391a.064.064 0 0 1-.064.066h-3.731a.064.064 0 0 0-.064.065l.023 1.532a.064.064 0 0 0 .064.062Zm13.006-3.663h-2.293a.046.046 0 0 1-.046-.046v-.427a.046.046 0 0 1 .046-.046h5.318a.046.046 0 0 1 .046.046v.427a.046.046 0 0 1-.046.046h-2.278a.046.046 0 0 0-.046.046l.001 4.09a.046.046 0 0 1-.046.046h-.565a.046.046 0 0 1-.046-.046v-4.09a.046.046 0 0 0-.046-.046Zm8.036 4.199c-.629-.032-1.131-.38-1.139-1.064q-.019-1.753-.007-3.516a.138.138 0 0 1 .138-.137h.357a.138.138 0 0 1 .138.142q-.044 1.682.014 3.36c.014.406.235.698.64.704q2.498.04 2.987 0 .615-.05.621-.724.015-1.673.01-3.344a.138.138 0 0 1 .138-.138h.343a.138.138 0 0 1 .138.138q.006 1.66.001 3.317-.003 1.196-1.15 1.256-1.612.084-3.229.006Zm13.599-1.992q.3.16.426.52.073.21.029 1.321a.138.137.9 0 1-.138.133h-.325a.138.137-87.4 0 1-.137-.151c.059-.694.138-1.713-.788-1.718q-1.57-.01-3.14.007a.138.138 0 0 0-.137.14l.01 1.583a.138.138 0 0 1-.138.14h-.352a.138.138 0 0 1-.138-.138v-4.418a.138.138 0 0 1 .137-.138q.842-.004 4.006.006c1.103.004 1.357.951 1.179 1.859q-.095.481-.485.658-.205.093-.007.198Zm-.261-1.995q-.336-.188-.699-.194-1.551-.022-3.109-.017a.14.138-.3 0 0-.138.138v1.516a.138.138 0 0 0 .137.138q1.569.008 3.138-.015.384-.006.681-.249a.145.133-14.6 0 0 .046-.07q.159-.575.01-1.161a.137.134-82.3 0 0-.065-.087Zm9.851 1.517q.369.102.506.463c.217.571.194 1.425-.411 1.779q-.312.182-.998.196-1.909.039-3.809-.001a.138.138 0 0 1-.135-.138V41.62a.138.138 0 0 1 .137-.138q1.982-.026 3.939-.008c1.026.008 1.407.798 1.139 1.677q-.086.279-.377.398-.241.097.01.167Zm-.704-1.722q-.021-.007-.041-.007H70.38a.138.138 0 0 0-.138.14l.015 1.211a.138.137-.3 0 0 .138.135l3.483-.001a.141.14-67.9 0 0 .101-.043c.365-.386.44-1.218-.239-1.435Zm.39 2.126q-.205-.116-.387-.117l-3.36-.017a.138.138 0 0 0-.138.14l.011 1.384a.14.138 0 0 0 .138.137q1.653.015 3.305.006.531-.003.658-.355.088-.25.059-.516-.058-.531-.286-.661Zm11.216.762a1.327 1.327 0 0 1-1.325 1.329l-3.378.006a1.327 1.327 0 0 1-1.329-1.325l-.004-2.098a1.327 1.327 0 0 1 1.325-1.329l3.378-.006a1.327 1.327 0 0 1 1.329 1.325l.004 2.098Zm-.618-2.016a.936.936 0 0 0-.934-.937l-2.925-.005a.936.936 0 0 0-.937.934l-.003 1.888a.936.936 0 0 0 .934.937l2.925.005a.936.936 0 0 0 .937-.934l.003-1.888Zm8.638 2.784h3.917a.064.064 0 0 1 .064.064l-.001.391a.064.064 0 0 1-.064.064h-4.538a.064.064 0 0 1-.064-.064v-4.572a.064.064 0 0 1 .064-.064h4.505a.064.064 0 0 1 .064.064l-.001.391a.064.064 0 0 1-.064.064h-3.874a.064.064 0 0 0-.064.064l-.01 1.359a.064.064 0 0 0 .064.064h3.717a.064.064 0 0 1 .064.061l.017.391a.064.064 0 0 1-.064.066h-3.731a.064.064 0 0 0-.064.064v1.532a.064.064 0 0 0 .064.064Zm10.244-2.006-2.18-2.097a.041.041 0 0 1 .029-.07l.764-.014a.041.041 0 0 1 .029.012l1.919 1.849a.041.041 0 0 0 .058 0l1.928-1.844a.041.041 0 0 1 .029-.011l.763-.001a.041.041 0 0 1 .029.072l-2.192 2.105a.041.041 0 0 0 0 .061l2.492 2.391a.041.041 0 0 1-.029.072h-.77a.041.041 0 0 1-.029-.011l-2.23-2.152a.041.041 0 0 0-.058.001l-2.174 2.149a.041.041 0 0 1-.029.012h-.814a.041.041 0 0 1-.029-.072l2.492-2.391a.041.041 0 0 0 .001-.061Zm8.24.806.012 1.579a.14.138-90 0 1-.138.14h-.384a.138.138 0 0 1-.138-.138v-4.418a.138.138 0 0 1 .137-.138q1.79-.015 3.573-.001c1.33.011 1.583.394 1.497 1.704-.043.647-.328 1.109-1.053 1.114q-1.682.012-3.367.019a.138.138 0 0 0-.138.14Zm3.497-2.398q-.195-.055-.484-.059-1.435-.019-2.878.007a.138.137 89.7 0 0-.135.138l.01 1.511a.138.138 0 0 0 .138.137l3.17-.006q.395 0 .554-.377c.164-.388.164-1.194-.375-1.35Zm5.82 3.598h3.899a.064.064 0 0 1 .064.064l-.001.391a.064.064 0 0 1-.064.064h-4.538a.064.064 0 0 1-.064-.064v-4.572a.064.064 0 0 1 .064-.064h4.503a.064.064 0 0 1 .064.064v.391a.064.064 0 0 1-.064.064h-3.874a.064.064 0 0 0-.064.064l.015 1.359a.064.064 0 0 0 .064.064h3.681a.064.064 0 0 1 .064.061l.021.391a.064.064 0 0 1-.064.066h-3.731a.064.064 0 0 0-.064.065l.025 1.532a.064.064 0 0 0 .064.062Zm12.824-1.457q.325.17.402.518.066.303.028 1.324a.138.137.9 0 1-.138.133h-.325a.138.137-87.6 0 1-.137-.149c.057-.697.14-1.715-.788-1.72q-1.57-.01-3.14.007a.138.138 0 0 0-.137.14l.01 1.583a.138.138 0 0 1-.138.14h-.352a.138.138 0 0 1-.138-.138v-4.418a.138.138 0 0 1 .137-.138q2.008-.018 4.006.006c.789.01 1.131.369 1.185 1.158q.043.612-.041.897-.095.33-.42.458-.225.088-.011.2Zm-.288-1.992q-.3-.176-.629-.182-1.585-.035-3.178-.029a.14.138-.3 0 0-.138.138v1.516a.138.138 0 0 0 .137.138q1.569.008 3.138-.015.383-.006.683-.249a.155.149-13.1 0 0 .046-.07q.158-.576.006-1.162a.137.135 8.4 0 0-.064-.084Zm6.826-.214h-2.293a.046.046 0 0 1-.046-.046v-.427a.046.046 0 0 1 .046-.046h5.318a.046.046 0 0 1 .046.046v.427a.046.046 0 0 1-.046.046h-2.278a.046.046 0 0 0-.046.046l.001 4.09a.046.046 0 0 1-.046.046h-.565a.046.046 0 0 1-.046-.046v-4.09a.046.046 0 0 0-.046-.046Zm7.331 1.772c-.616-.478-.574-1.767.155-2.138q.279-.142.919-.151 2.257-.029 2.758.011 1.067.087 1.046 1.2a.138.138 0 0 1-.138.135h-.322a.138.138 0 0 1-.138-.147q.037-.618-.539-.679-1.471-.155-2.995 0-.376.039-.499.397-.379 1.098.865 1.096 1.085 0 2.659.066c.616.028 1.118.314 1.196.962.061.509.047 1.042-.38 1.377-.594.464-3.95.471-4.571.037q-.513-.359-.412-1.124a.14.14 0 0 1 .137-.12h.297a.138.138 0 0 1 .137.155q-.05.431.223.659c.401.336 3.272.299 3.71.01.466-.307.434-1.399-.413-1.388q-1.584.019-3.071-.115-.347-.03-.622-.245Z"/><path fill="#fff" d="M84.725 44.753a.936.936 0 0 1-.937.934l-2.925-.005a.936.936 0 0 1-.934-.937l.003-1.888a.936.936 0 0 1 .937-.934l2.925.005a.936.936 0 0 1 .934.937l-.003 1.888Zm-20.132-2.554a.137.134-82.3 0 1 .065.087q.149.586-.01 1.161a.145.133-14.6 0 1-.046.07q-.297.243-.681.249-1.569.023-3.138.015a.138.138 0 0 1-.137-.138v-1.516a.14.138-.3 0 1 .138-.138q1.558-.006 3.109.017.364.006.699.194Zm9.147-.206c.679.217.604 1.049.239 1.435a.141.14-67.9 0 1-.101.043l-3.483.001a.138.137-.3 0 1-.138-.135l-.015-1.211a.138.138 0 0 1 .138-.14h3.319q.021 0 .041.007Zm41.608.058c.539.156.539.962.375 1.35q-.159.377-.554.377l-3.17.006a.138.138 0 0 1-.138-.137l-.01-1.511a.138.137 89.7 0 1 .135-.138q1.443-.026 2.878-.007.289.004.484.059Zm18.356.149a.137.135 8.4 0 1 .064.084q.152.586-.006 1.162a.155.149-13.1 0 1-.046.07q-.3.243-.683.249-1.569.023-3.138.015a.138.138 0 0 1-.137-.138v-1.516a.14.138-.3 0 1 .138-.138q1.592-.006 3.178.029.329.007.629.182ZM74.13 44.119q.228.13.286.661.029.265-.059.516-.127.352-.658.355-1.652.01-3.305-.006a.14.138 0 0 1-.138-.137l-.011-1.384a.138.138 0 0 1 .138-.14l3.36.017q.182.001.387.117Z"/></svg>