<?xml version="1.0" encoding="UTF-8"?>
<svg id="Layer_2" data-name="Layer 2" xmlns="http://www.w3.org/2000/svg" viewBox="0 0 792.06 85.82">
  <g id="Layer_1-2" data-name="Layer 1">
    <g>
      <path d="M49.61,26.47v-8.71h53.88v19.88c0,3.26-3.03,6.48-8.63,6.48H12.98C4.3,44.13-.03,40.53,0,33.31L.13,10.68C.16,3.63,4.4.11,12.85.11h90.64v8.81H24.57c-2.79,0-6.75,1.27-6.75,3.8v19.02c0,2.39,3.96,3.59,6.75,3.59h56.68c2.87,0,4.29-1.18,4.26-3.54v-5.3h-35.91Z"/>
      <path d="M202.18,31.69V.07h16.43v39.02c0,3.77-.82,5.04-7.19,5.04h-83.37c-8.62,0-12.93-3.61-12.93-10.82V.07h16.69v31.56c0,2.46,1.41,3.69,4.22,3.69h61.91c2.82,0,4.23-1.21,4.23-3.63"/>
      <path d="M245.5,11.64v32.49h-16.56l-.12-39.06c0-2.8,2.26-5.07,5.05-5.07h11.26c3.04,0,6.05.67,8.8,1.97l62.75,30.84c.88.42,1.9-.23,1.89-1.2l-.04-31.5h16.65v40.2c0,2.05-1.66,3.72-3.72,3.72h-10.12c-1.88,0-3.73-.41-5.44-1.2l-65.32-30.37c-1.29-.58-2.69-.86-4.11-.83l-.98.02h0Z"/>
      <polygon points="407.93 44.13 390.66 44.13 390.66 8.96 347.97 8.96 347.97 0 449.51 0 449.51 8.81 407.93 8.81 407.93 44.13 407.93 44.13"/>
      <polygon points="478.23 .11 461.79 .11 461.79 44.13 478.23 44.13 478.23 .11 478.23 .11"/>
      <polygon points="547.23 .11 547.23 17.7 483.28 17.7 483.28 26.51 547.23 26.51 547.23 44.13 563.74 44.13 563.74 .11 547.23 .11 547.23 .11"/>
      <polygon points="598.38 26.54 677.87 26.54 677.87 17.73 598.38 17.73 598.38 26.54 598.38 26.54"/>
      <path d="M582.94,0c-3.72,0-6.72,3.01-6.72,6.73v29.77c0,4.22,3.42,7.63,7.63,7.63h94.02v-8.81h-81.8c-1.92,0-3.47-1.55-3.47-3.47V11.49c0-1.48,1.2-2.68,2.68-2.68h82.59V0h-94.93Z"/>
      <path d="M767,30h8.07c13.19,0,16.86-8.89,16.86-14.84v-.34c0-6.93-2.95-14.74-12.62-14.74h-83.13c-3.39,0-6.14,2.74-6.15,6.13l-.11,37.92h17.83V12.07c0-1.76,1.43-3.18,3.19-3.18h56.07c8.07,0,8.59,4.08,8.56,6.44v-.69c-.03,2.49-.49,6.62-8.56,6.62h-54.44v8.74h32.28l24.89,14.13h22.33l-25.05-14.13h0Z"/>
      <polygon points="22.75 66.33 26.81 77.21 27.7 80.24 28.59 77.27 32.07 66.33 38.86 66.33 42.52 77.21 43.46 80.24 44.41 77.33 48.52 66.33 55.08 66.33 46.41 85.33 40.24 85.33 36.52 74.22 35.43 70.54 34.35 74.22 30.63 85.33 24.65 85.33 15.91 66.33 22.75 66.33 22.75 66.33"/>
      <polygon points="232.43 69.69 216.13 69.69 216.13 73.73 231.1 73.73 231.1 77.03 216.13 77.03 216.13 81.92 233.19 81.92 233.19 85.33 209.84 85.33 209.84 66.33 232.43 66.33 232.43 69.69 232.43 69.69"/>
      <path d="M395.33,69.63v5.11h6.93c1.38,0,2.41-.1,3.1-.31,1.22-.36,1.83-1.07,1.83-2.14,0-1.15-.59-1.92-1.77-2.32-.66-.22-1.66-.34-2.98-.34h-7.11ZM408.64,66.82c1.13.3,2.1.74,2.88,1.33.65.48,1.17,1.01,1.55,1.6.38.58.57,1.25.57,1.99,0,.9-.37,1.79-1.11,2.67-.74.87-1.96,1.49-3.66,1.85,1.42.35,2.43.85,3.02,1.5.59.65.89,1.64.89,2.97v1.28c0,.87.06,1.46.17,1.77.17.49.57.85,1.19,1.08v.48h-7.11c-.2-.42-.34-.76-.42-1.02-.17-.53-.26-1.08-.27-1.64l-.04-1.77c-.03-1.22-.37-2.02-1.02-2.43-.65-.4-1.87-.6-3.67-.6h-6.29v7.45h-6.29v-19h14.74c2.11.03,3.72.19,4.86.49h0Z"/>
      <polygon points="570.6 66.33 576.94 66.33 576.94 74.16 588.84 66.33 597.16 66.33 584.52 74.14 597.81 85.33 589.53 85.33 580.04 77.04 576.94 78.98 576.94 85.33 570.6 85.33 570.6 66.33 570.6 66.33"/>
      <path d="M756.74,79.46c.2.87.59,1.52,1.17,1.95,1.07.78,2.9,1.17,5.48,1.17,1.56,0,2.81-.1,3.78-.31,1.84-.4,2.76-1.13,2.76-2.21,0-.63-.45-1.11-1.35-1.45-.9-.34-2.33-.63-4.28-.89l-3.33-.45c-3.28-.45-5.53-.93-6.75-1.46-2.08-.88-3.12-2.25-3.12-4.11,0-1.7,1.01-3.12,3.05-4.24,2.03-1.13,5.02-1.69,8.95-1.69,3.29,0,6.09.53,8.41,1.59,2.32,1.06,3.54,2.6,3.65,4.62h-6.19c-.12-1.14-.94-1.96-2.49-2.44-1.03-.32-2.31-.48-3.84-.48-1.7,0-3.05.21-4.07.62-1.01.41-1.52.99-1.52,1.73,0,.68.5,1.19,1.5,1.52.64.22,2,.49,4.09.79l5.41.79c2.37.34,4.14.8,5.33,1.38,1.83.89,2.75,2.19,2.75,3.88s-1.09,3.18-3.26,4.33c-2.18,1.15-5.25,1.72-9.22,1.72s-7.25-.56-9.57-1.69c-2.32-1.13-3.48-2.68-3.48-4.66h6.15Z"/>
    </g>
  </g>
</svg>