<svg xmlns="http://www.w3.org/2000/svg" viewBox="0 0 312.47 85.04"><path d="M40.93 22.39h11.49c-1.51 5.53-2.99 11.09-4.53 16.6h12.66c1.72-5.36 3.01-11.14 4.61-16.6h11.49c-3.75 14.33-7.74 28.43-11.49 42.77H53.59c1.56-5.71 3.08-11.46 4.61-17.19-4.03-.19-8.42-.03-12.58-.08-1.75 5.6-3.16 11.54-4.78 17.28H29.27c3.93-14.22 7.67-28.62 11.66-42.77ZM96.11 22.39h13.33c1.47 14.26 2.92 28.55 4.44 42.77h-11.74c-.09-2.93-.31-5.73-.33-8.72H86.13c-1.89 2.78-3.43 5.91-5.29 8.72H69.77c-.04-.49.36-.88.59-1.26 4.08-6.59 8.26-13.3 12.41-19.96 4.49-7.2 8.8-14.54 13.33-21.55Zm-5.45 26.33h10.57c-.34-5.64-.5-11.46-.92-17.02-2.94 5.18-6.53 11.19-9.64 17.02ZM252.76 22.39c8.71.58 19.35-1.43 25.08 2.01 3 1.81 4.89 5.09 5.03 9.23.14 4.12-1.45 8.03-3.52 10.65-2.08 2.63-5.07 4.52-8.89 5.28-3.93.79-8.53.54-13.59.59-1.48 4.89-2.79 9.96-4.11 15.01h-11.57c3.81-14.31 7.67-28.56 11.57-42.77Zm14.09 18.97c1.42-.43 2.61-1.12 3.44-2.44a8.114 8.114 0 0 0 1.21-3.88c.04-.99-.04-2.07-.6-2.92-.64-.98-1.49-1.42-2.62-1.59-1.24-.18-2.48-.28-3.73-.26-.22 0-2.27-.08-2.31.02-1.3 3.69-2.18 7.84-3.36 11.74.02-.06 1.67.04 1.84.04.63 0 1.25 0 1.88-.04 1.24-.06 2.49-.21 3.71-.51.19-.05.37-.1.55-.15Z" style="fill:#ffffff;fill-rule:evenodd;stroke-width:0"></path><path d="M23.65 0C15.75 28.33 7.76 56.57 0 85.04h121.77c.46-1.68 1.01-3.56 1.5-5.32.37-1.37.74-2.72 1.1-4.07.81-3.06 1.82-5.79 2.6-8.72 1.56-5.89 3.09-12.26 4.94-18.62h.03c0-.03.02-.06.03-.09 2.36.13 4.7-.28 6.46.34 3.1 1.08 2.16 5.57 2.15 9.49 0 2.55-.26 4.54-.38 6.94 0-.1 9.84.02 11.01 0-.09-1.9-.04-4.25.07-6.71.01-1.75.02-3.51.15-5.26.05-.72.11-1.42.14-2.11-.02-1.38-.15-2.66-.52-3.69-.68-1.86-2.27-2.48-4.11-3.02-.22-.07-.7-.07-.76-.42.02-.03.04-.05.07-.07v-.01c.32-.46.98-.43 1.43-.5 3.65-.63 6.51-2.06 8.28-4.58.1-.15.2-.29.29-.45 2.29-3.77 1.85-9.06-.67-11.99-5.02-5.83-17.75-3.04-27.72-3.69-4.51 17.03-9.94 36.96-13.9 51.23h-.03l-.03.09c-33.07-.06-66.36.11-99.29-.08 2.91-10.34 5.8-20.73 8.72-31.11 2.93-10.38 5.67-20.81 8.81-31.03h.03l.03-.09c88.5.06 177.16-.11 265.51.08-5.83 20.69-11.47 41.58-17.44 62.14h-.03l-.03.09c-29.91-.06-60.05.11-89.82-.08 0-4.69.58-9.95.95-15.36.16-2.27.65-5.94.27-8.9-.31-1.89-1.04-3.48-2.59-4.34-.7-.39-1.99-.7-2.8-1.04-.02 0-.04-.01-.06-.02-.03-.01-.06-.03-.1-.05h-.02s-.02 0-.02-.01c-.1-.04-.19-.09-.26-.14-.02-.06-.03-.1-.04-.15-.07-.51.77-.32 1.29-.41 3.73-.68 6.86-2.35 8.59-5.03 2.12-3.4 2.01-9.15-.59-12.07-5.1-5.74-17.58-3.1-27.64-3.69-3.97 14.05-7.74 28.3-11.55 42.51h10.95c1.55-5.54 2.95-11.23 4.59-16.69h.03c0-.03.02-.06.03-.09.85.05 1.72.06 2.58.09 1.38-.03 2.71-.02 3.76.35.21.04.43.09.62.15.96.29 2.01.82 2.63 1.62 1.03 1.31.97 2.98.79 4.6-.36 3.25-.47 6.52-.78 9.77-.46 4.87-1.04 9.72-1.46 14.59-.01.2-.2 2.54-.36 4.68-.01.32-.03.65-.04.97h109.7c7.84-28.3 15.7-56.59 23.65-84.79V.03H23.65Zm113.22 30.28c.07-.07.05-.23.17-.25 4.42.07 9.45-.62 9.98 3.19.91 6.57-5.9 8.29-12.92 7.63.86-3.59 1.88-7.02 2.77-10.57Zm46.63 9.31c-2.63 1.52-6.4 1.24-10.06 1.26.99-3.59 1.88-7.29 2.94-10.82 4.12.12 9.02-.62 9.9 2.6.78 2.89-.72 5.78-2.77 6.96Z" style="fill:#ffffff;fill-rule:evenodd;stroke-width:0"></path><path d="M221.57 21.72c7.23-.5 12.88 1.67 16.1 5.54 3.11 3.74 4.3 10.51 2.94 17.53-2.29 11.74-10.03 20.03-22.22 21.05-11.07.93-17.82-3.91-19.29-13-.45-2.78-.33-6.99.25-9.9 1.8-9.03 6.33-15.59 13.42-19.04 2.44-1.19 5.48-1.95 8.81-2.18Zm3.77 30.94c.57-.8 1.06-1.66 1.45-2.51.7-1.52 1.28-3.05 1.7-4.67.4-1.57.87-3.14 1.08-4.75.21-1.62.12-3.27 0-4.9-.1-1.34-.77-2.53-1.51-3.62-.31-.46-.87-.91-1.29-1.26-1.8-1.44-4.61-1.2-6.68-.6-3.18.93-5.44 3.77-6.85 6.62-.37.75-.72 1.53-1.02 2.31-.46 1.24-.82 2.54-1.11 3.83-.67 3-1.24 6.5-.54 9.54.12.54.32 1.08.58 1.57.61 1.14 1.53 1.92 2.68 2.54 3.01 1.64 6.81.43 9.27-1.64.85-.71 1.59-1.56 2.24-2.46Z" style="fill:#ffffff;fill-rule:evenodd;stroke-width:0"></path></svg>