<?xml version="1.0" encoding="utf-8"?>
<!-- Generator: Adobe Illustrator 25.4.1, SVG Export Plug-In . SVG Version: 6.00 Build 0)  -->
<svg version="1.1" xmlns="http://www.w3.org/2000/svg" xmlns:xlink="http://www.w3.org/1999/xlink" x="0px" y="0px" width="220px"
	 height="60px" viewBox="0 0 220 60" style="enable-background:new 0 0 220 60;" xml:space="preserve">
<style type="text/css">
	.st0{fill:#FFF200;}
	.st1{fill:#FFFFFF;}
	.st2{fill:url(#SVGID_1_);}
	.st3{fill:url(#SVGID_00000004509140714895165360000018171474729713949098_);}
	
		.st4{fill:url(#SVGID_00000117659869400850785470000004440952618331005340_);stroke:#FFFFFF;stroke-width:0.3765;stroke-linecap:round;stroke-miterlimit:18;}
	.st5{fill:url(#SVGID_00000151513112509190631240000013906623385995287992_);}
	.st6{fill:url(#SVGID_00000044156599105155231580000007310903027181429435_);}
	.st7{fill:url(#SVGID_00000069375023325294518510000000448458304033515198_);}
	.st8{fill:url(#SVGID_00000030477898351051312400000005685331686903774365_);}
</style>
<g id="Layer_4">
</g>
<g id="Layer_3">
	<g>
		<path d="M217.5,10.9l-1.5,5.6c-0.1,0.2-0.3,0.4-0.5,0.4H128c-0.4,0-0.6-0.3-0.5-0.7l1.5-5.6c0.1-0.2,0.3-0.4,0.5-0.4H217
			C217.3,10.3,217.6,10.6,217.5,10.9z M214.1,18.9c0.8,0.5,1.1,1.5,0.8,2.3L209.8,40c-0.3,0.9-1.1,1.6-2.1,1.6h-4.2
			c-0.5,0-0.9-0.1-1.3-0.4c-0.8-0.5-1.1-1.5-0.8-2.3l1.3-4.7h-6.3l-1.6,5.8c-0.3,0.9-1.1,1.6-2.1,1.6l-4.2,0c-0.4,0-0.9-0.1-1.2-0.4
			c-0.4-0.3-0.7-0.7-0.9-1.1c-0.3,0.1-0.5,0.3-0.8,0.4c0,0,0,0,0,0c-1.4,0.7-2.7,1-3.8,1h-11.8c-2.2,0-4.1-0.9-5.3-2.5
			c-0.1-0.1-0.2-0.2-0.2-0.4l-0.4,1.3c-0.3,0.9-1.1,1.6-2.1,1.6l-18.7,0c-0.5,0-0.9-0.1-1.3-0.4c-0.8-0.5-1.1-1.5-0.8-2.3l3.2-12
			H140L136.5,40c-0.3,0.9-1.1,1.6-2.1,1.6l-4.2,0c-0.5,0-0.9-0.1-1.3-0.4c-0.8-0.5-1.1-1.5-0.8-2.3l1.4-5.4h-14.7
			c-0.1,0-0.3,0-0.4,0c-0.1,0-0.2,0-0.2,0c0,0,0,0,0,0h-4.9c-1.1,0-2.1-0.8-2.3-1.8l-0.5-2.4l-7.9,0l-2.5,3.3
			c-0.4,0.6-1.1,0.9-1.9,0.9h-4.9c-0.2,0-0.4,0-0.6-0.1c-0.2,0.1-0.4,0.1-0.7,0.1c0,0,0,0,0,0l-18.8,0c-0.4,0-0.8-0.1-1.2-0.3
			c-0.4,0.2-0.8,0.3-1.2,0.3c0,0,0,0,0,0l-4.2,0c-0.5,0-1-0.1-1.4-0.4c-0.8-0.6-1.2-1.6-0.9-2.6l1.2-4.4l-5.9,0l-1.5,5.6
			c-0.3,1-1.2,1.8-2.3,1.8l-4.2,0c-0.5,0-1-0.1-1.4-0.4c-0.8-0.6-1.2-1.6-0.9-2.6l5-18.9c0.3-1,1.2-1.8,2.3-1.8c0,0,0,0,0,0l4.2,0
			c1,0,1.9,0.6,2.2,1.6c0.2,0.5,0.2,1,0,1.5l-1.1,4.2H64l1.5-5.5c0.3-1,1.2-1.8,2.3-1.8c0,0,0,0,0,0l4.2,0c0.4,0,0.8,0.1,1.2,0.3
			c0.4-0.2,0.8-0.3,1.2-0.3l18.8,0c0.7,0,1.4,0.3,1.9,0.9c0.4,0.6,0.6,1.3,0.4,2.1l-1.1,4.2c-0.2,0.7-0.7,1.3-1.3,1.6
			c0.2,0.5,0.2,1,0.1,1.4L92,24l10.4-13.1c0.4-0.6,1.1-0.9,1.9-0.9h5.2c1.1,0,2,0.7,2.3,1.8l2.9,11.3l3.1-11.4
			c0.3-1,1.2-1.8,2.3-1.8l4.3,0c0.7,0,1.4,0.3,1.9,0.9c0.4,0.6,0.6,1.3,0.4,2.1l-3.1,11.6h1.8c0-0.1,0-0.2,0.1-0.3l1.1-4.2
			c0.3-0.9,1.1-1.6,2.1-1.6h18c0.4,0,0.7,0.1,1.1,0.3c0.3-0.2,0.7-0.3,1.1-0.3l18.7,0c0.5,0,0.9,0.1,1.3,0.4
			c0.6,0.4,0.9,1.1,0.9,1.8c0,0,0,0,0,0c1.8-1.4,3.7-2.1,5.7-2.1H187c1.3,0,2.5,0.3,3.5,0.9c0.4,0.2,0.7,0.5,1,0.7l0,0
			c0.2-0.9,1.1-1.6,2.1-1.6h4.2c0.5,0,0.9,0.1,1.3,0.4c0.8,0.5,1.1,1.5,0.8,2.3l-1.2,4.5h6.3l1.5-5.6c0.3-0.9,1.1-1.6,2.1-1.6h4.2
			C213.2,18.5,213.7,18.6,214.1,18.9z M189.9,26.3l-2,1.2c-0.6,0.4-1.4,0.5-2,0.2c-0.3-0.2-0.6-0.4-0.9-0.7h-10.7l-1.6,6.1h10.2
			c0.1-0.1,0.4-0.2,0.8-0.6c0.4-0.4,0.9-0.6,1.5-0.6c0,0,0.1,0,0.1,0c0.6,0,1.1,0.3,1.5,0.8l1,1.3L189.9,26.3z M206.1,44.1h-81.6
			l1.4-5.1c0.2-0.8,0-1.6-0.4-2.2l0,0l0,0c-0.5-0.6-1.2-1-2-1H79.5H46.2h-1.4l-6-16.4l-1.2-3.2h0l0-0.1l0.6-1.1l-0.8,0.5L37,14.7
			l-1.3-3.4c-0.2-0.5-0.4-1-0.8-1.4c-0.3-0.4-0.7-0.7-1.2-1l-0.6-0.3L34.8,5c0.2-0.4-0.2-0.8-0.6-0.7L25,6.6c-0.2,0-0.3,0.2-0.4,0.4
			l-3.3,10.6L18,21.7l-14.2,18c-0.6,0.7-1,1.6-1.2,2.5c-0.2,0.9-0.1,1.9,0.2,2.7c0.3,0.9,0.9,1.6,1.7,2.2c0.8,0.5,1.7,0.8,2.6,0.8
			l11.7,0h0.5l-3,7.9l4.2-7.9h2.6l17.4,0c0.9,0,1.8-0.2,2.7-0.7c0.8-0.4,1.5-1,2.1-1.7c0.6-0.7,1-1.6,1.2-2.5c0.2-0.7,0.2-1.5,0-2.1
			h33h40.6l-1.4,5.1c-0.2,0.8,0,1.6,0.4,2.2l0,0c0.4,0.6,1.1,1,1.9,1h85.1c1.4,0,2.6-1.2,2.5-2.7C208.7,45.1,207.5,44.1,206.1,44.1z
			"/>
	</g>
	<g>
		<path class="st0" d="M114.6,31.4l5.2-19.2h4.6l-3.9,14.6h11.2l-1.2,4.6H114.6z M69.1,31.4l5.2-19.2h19.1l-1.2,4.6H77.6l-0.7,2.6
			h14L89.7,24h-14L75,26.7h14.5l-1.2,4.6H69.1z M62.5,31.4l2-7.4H54.1l-2,7.4h-4.6l5.2-19.2h4.6l-1.9,7.2h10.4l1.9-7.2h4.6
			l-5.2,19.2H62.5z M109.2,31.3l-1-4.2H97.5l-3.2,4.2h-5.4l15.2-19.2h5.4l4.9,19.2H109.2z M107,22.5c-0.4-1.5-0.7-2.6-0.8-3.2
			c-0.2-1.1-0.4-2.1-0.5-3c-0.8,1.3-2.3,3.4-4.5,6.2H107z"/>
		<path class="st1" d="M124.2,12.3l-3.9,14.6h11.2l-1.1,4.3h-15.5l5.1-18.9H124.2 M93.1,12.3L92,16.6H77.5l-0.8,3h14l-1.1,4.2h-14
			l-0.8,3.1h14.5l-1.1,4.3H69.3l5.1-18.9H93.1 M72,12.3l-5.1,18.9h-4.2l2-7.4H53.9l-2,7.4h-4.2l5.1-18.9H57l-1.9,7.2h10.8l1.9-7.2
			H72 M109.4,12.4l4.8,18.8h-4.9l-1-4.2H97.4l-3.2,4.2h-4.9l14.9-18.8H109.4 M100.8,22.7h6.4c-0.5-1.7-0.7-2.9-0.9-3.4
			c-0.3-1.3-0.5-2.5-0.5-3.6C105.2,17,103.5,19.4,100.8,22.7 M124.7,11.9h-0.5h-4.2h-0.3l-0.1,0.3l-5,18.7l-4.8-18.7l-0.1-0.3h-0.3
			h-5.2H104l-0.1,0.1L89,30.9l-0.5,0.6h0.8h4.9h0.2l0.1-0.1l3.1-4.1h10.4l0.9,3.9l0.1,0.3h0.3h4.9h0.2l0,0h0.5h15.5h0.3l0.1-0.3
			l1.1-4.3l0.1-0.5h-0.5h-10.7l3.8-14.1L124.7,11.9L124.7,11.9z M101.6,22.3c1.9-2.3,3.2-4.1,4-5.4c0.1,0.8,0.2,1.6,0.4,2.5
			c0.1,0.5,0.4,1.5,0.7,3H101.6L101.6,22.3z M93.6,11.9h-0.5H74.4h-0.3L74,12.2L69,31.1l-0.1,0.5h0.5h18.7h0.3l0.1-0.3l1.1-4.3
			l0.1-0.5h-0.5h-14l0.6-2.4h13.7h0.3l0.1-0.3l1.1-4.2l0.1-0.5h-0.5H77.2l0.6-2.2H92h0.3l0.1-0.3l1.1-4.2L93.6,11.9L93.6,11.9z
			 M72.5,11.9H72h-4.2h-0.3l-0.1,0.3l-1.9,6.9h-10l1.8-6.8l0.1-0.5H57h-4.2h-0.3l-0.1,0.3l-5.1,18.9l-0.1,0.5h0.5h4.2h0.3l0.1-0.3
			l1.9-7.1h10l-1.9,6.9l-0.1,0.5h0.5h4.2h0.3l0.1-0.3l5.1-18.9L72.5,11.9L72.5,11.9z"/>
	</g>
	<g>
		<path class="st0" d="M7.1,46.1c-1.3,0-2.3-0.7-2.7-1.8c-0.4-1.1-0.1-2.5,0.7-3.5L20,22l-2.7,8.5L8.2,42.1C8,42.2,8,42.4,8.1,42.6
			c0,0.1,0.2,0.2,0.3,0.2l11.9,0L19,46.1H7.1z"/>
		<path class="st1" d="M19.5,22.9l-2.4,7.5L8,41.9c-0.2,0.2-0.2,0.5-0.1,0.7C8,42.8,8.2,43,8.4,43L20,43l-1.1,2.9l-11.7,0
			c-1.2,0-2.2-0.6-2.5-1.7c-0.4-1-0.1-2.3,0.7-3.4L19.5,22.9 M20.5,21.1l-1.3,1.6L5,40.6c-0.9,1.1-1.2,2.6-0.8,3.7
			c0.4,1.2,1.5,1.9,2.9,1.9l11.7,0l0.3,0l0.1-0.2l1.1-2.9l0.2-0.5l-0.5,0l-11.6,0c-0.1,0-0.1,0-0.2-0.1c0-0.1,0-0.2,0.1-0.3
			l9.1-11.5l0-0.1l0-0.1l2.4-7.5L20.5,21.1L20.5,21.1z"/>
	</g>
	<g>
		<path class="st0" d="M30.9,14.3l1.7-4l0.2,0.1c0.6,0.3,1,0.8,1.2,1.4l1.3,3.6l-3.3,2L30.9,14.3z"/>
		<path class="st1" d="M32.7,10.6c0.5,0.3,0.9,0.7,1.1,1.3l1.3,3.4l-2.9,1.8l-1-2.8L32.7,10.6 M32.5,10l-0.2,0.4l-1.6,3.7l-0.1,0.1
			l0.1,0.1l1,2.8l0.2,0.4l0.4-0.2l2.9-1.8l0.3-0.2l-0.1-0.3l-1.3-3.4c-0.2-0.7-0.7-1.2-1.3-1.5L32.5,10L32.5,10z"/>
	</g>
	<g>
		<polygon class="st1" points="136.6,15.6 129.8,15.6 130.8,11.6 137.7,11.6 137.5,12.5 132.1,12.5 132,13.1 137.1,13.1 136.9,14 
			131.7,14 131.5,14.7 136.9,14.7 		"/>
		<polygon class="st1" points="144.2,15.6 137.4,15.6 138.5,11.6 140,11.6 139.2,14.7 144.4,14.7 		"/>
		<polygon class="st1" points="151.6,15.6 144.7,15.6 145.8,11.6 152.7,11.6 152.5,12.5 147.1,12.5 147,13.1 152.1,13.1 151.9,14 
			146.7,14 146.5,14.7 151.9,14.7 		"/>
		<path class="st1" d="M160.8,15c-0.3,0.1-0.6,0.3-0.9,0.4c-0.4,0.1-0.7,0.2-1,0.2h-4.3c-0.6,0-1-0.1-1.4-0.4
			c-0.3-0.2-0.5-0.5-0.4-0.9l0.4-1.6c0.1-0.3,0.4-0.6,0.8-0.9c0.5-0.2,1-0.4,1.6-0.4h4.3c0.3,0,0.6,0,0.9,0.1
			c0.3,0.1,0.5,0.2,0.6,0.4l-1.4,0.5c0-0.1-0.1-0.2-0.3-0.2h-4.3c-0.1,0-0.3,0-0.4,0.1c-0.1,0.1-0.2,0.1-0.2,0.2l-0.4,1.6
			c0,0.1,0,0.2,0.1,0.2c0.1,0.1,0.2,0.1,0.3,0.1h4.3c0.2,0,0.4-0.1,0.7-0.3L160.8,15z"/>
		<polygon class="st1" points="168.6,12.5 166,12.5 165.2,15.6 163.6,15.6 164.5,12.5 162,12.5 162.2,11.6 168.8,11.6 		"/>
		<path class="st1" d="M177.1,13.2c-0.1,0.3-0.4,0.6-0.8,0.8c-0.5,0.2-1,0.4-1.6,0.4h-0.2l1.8,1.2h-2.2l-1.7-1.2h-2.1l-0.3,1.2h-1.5
			l1.1-4l5.9,0c0.6,0,1,0.1,1.4,0.4c0.3,0.2,0.5,0.5,0.4,0.9L177.1,13.2z M175.6,13.2l0.1-0.4c0-0.1,0-0.2-0.1-0.2
			c-0.1-0.1-0.2-0.1-0.3-0.1h-4.4l-0.3,1h4.4c0.1,0,0.3,0,0.4-0.1C175.5,13.3,175.5,13.3,175.6,13.2"/>
		<path class="st1" d="M185.9,14.4c-0.1,0.3-0.4,0.6-0.8,0.9c-0.5,0.2-1,0.4-1.6,0.4h-4.2c-0.6,0-1-0.1-1.4-0.4
			c-0.3-0.2-0.5-0.5-0.4-0.9l0.4-1.6c0.1-0.3,0.4-0.6,0.8-0.9c0.5-0.2,1-0.4,1.6-0.4h4.2c0.6,0,1,0.1,1.4,0.4
			c0.3,0.2,0.5,0.5,0.4,0.9L185.9,14.4z M184.3,14.4l0.4-1.6c0-0.1,0-0.2-0.1-0.2c-0.1-0.1-0.2-0.1-0.3-0.1h-4.2
			c-0.1,0-0.3,0-0.4,0.1c-0.1,0.1-0.2,0.1-0.2,0.2l-0.4,1.6c0,0.1,0,0.2,0.1,0.2c0.1,0.1,0.2,0.1,0.3,0.1h4.2c0.1,0,0.3,0,0.4-0.1
			C184.3,14.5,184.3,14.5,184.3,14.4"/>
		<path class="st1" d="M194.3,15.6h-1.9l-3-2.4c-0.2-0.2-0.4-0.4-0.6-0.6l-0.8,2.9h-1.5l1.1-4h1.7l3.2,2.4c0.2,0.2,0.4,0.3,0.5,0.5
			l0.8-3h1.5L194.3,15.6z"/>
		<polygon class="st1" points="196.9,15.6 195.3,15.6 196.4,11.6 197.9,11.6 		"/>
		<path class="st1" d="M206.1,15c-0.3,0.1-0.6,0.3-0.9,0.4c-0.4,0.1-0.7,0.2-1,0.2h-4.3c-0.6,0-1-0.1-1.4-0.4
			c-0.3-0.2-0.5-0.5-0.4-0.9l0.4-1.6c0.1-0.3,0.4-0.6,0.8-0.9c0.5-0.2,1-0.4,1.6-0.4h4.3c0.3,0,0.6,0,0.9,0.1
			c0.3,0.1,0.5,0.2,0.6,0.4l-1.5,0.5c0-0.1-0.1-0.2-0.3-0.2h-4.3c-0.1,0-0.3,0-0.4,0.1c-0.1,0.1-0.2,0.1-0.2,0.2l-0.4,1.6
			c0,0.1,0,0.2,0.1,0.2c0.1,0.1,0.2,0.1,0.3,0.1h4.3c0.2,0,0.4-0.1,0.7-0.3L206.1,15z"/>
		<path class="st1" d="M214.5,14.4c0,0.2-0.2,0.3-0.3,0.5c-0.5,0.5-1.4,0.7-2.6,0.7h-4.8l0.2-0.9h5c0.2,0,0.4,0,0.5-0.1
			c0.2-0.1,0.2-0.1,0.3-0.2c0-0.1,0-0.2-0.1-0.2c-0.1-0.1-0.3-0.1-0.5-0.1h-2.7c-1.1,0-1.8-0.2-2.1-0.7c-0.1-0.2-0.1-0.3-0.1-0.5
			c0-0.2,0.2-0.4,0.3-0.5c0.5-0.5,1.4-0.7,2.5-0.7h4.7l-0.2,0.9h-5c-0.2,0-0.4,0-0.5,0.1c-0.2,0.1-0.3,0.1-0.3,0.3
			c0,0.1,0,0.2,0.2,0.3c0.1,0.1,0.3,0.1,0.5,0.1h2.7c0.5,0,1,0.1,1.4,0.2c0.4,0.1,0.7,0.3,0.9,0.6C214.5,14,214.5,14.2,214.5,14.4"
			/>
	</g>
	<g>
		<path class="st0" d="M121.2,47.5c-0.3,0-0.6-0.1-0.7-0.4c-0.2-0.2-0.2-0.5-0.2-0.8l1.9-7.1H44.2l0.6,1.6c0.4,1.1,0.1,2.5-0.7,3.5
			c-0.9,1.1-2.2,1.7-3.4,1.7l-17.7,0l1.8-3.3l15.9,0c0.2,0,0.4-0.1,0.5-0.3c0.1-0.2,0.2-0.3,0.1-0.5l-6.6-18l2.4-4.4l6.5,17.8h80
			c0.3,0,0.6,0.1,0.7,0.4c0.2,0.2,0.2,0.5,0.2,0.8l-1.9,7.1h83.8c0.5,0,0.9,0.4,0.9,0.9c0,0.5-0.4,0.9-0.9,0.9H121.2z"/>
		<path class="st1" d="M37,20.1l6.4,17.5h80.1c0.2,0,0.4,0.1,0.6,0.3c0.1,0.2,0.2,0.4,0.1,0.6l-2,7.4h84c0.4,0,0.7,0.3,0.7,0.7
			c0,0.4-0.3,0.7-0.7,0.7h-85c-0.2,0-0.4-0.1-0.6-0.3c-0.1-0.2-0.2-0.4-0.1-0.6l2-7.4H43.9l0.7,1.9c0.4,1,0.1,2.3-0.7,3.4
			c-0.8,1-2.1,1.7-3.3,1.7l-17.4,0l1.6-2.9l15.8,0c0.2,0,0.5-0.1,0.7-0.3c0.2-0.2,0.2-0.5,0.1-0.7L34.8,24L37,20.1 M37,19.1
			l-0.4,0.7l-2.1,4L34.4,24l0.1,0.2L41,42.1c0,0.1,0,0.2-0.1,0.3c-0.1,0.1-0.2,0.2-0.4,0.2l-15.8,0l-0.2,0l-0.1,0.2l-1.6,2.9
			l-0.3,0.6l0.6,0l17.4,0c1.3,0,2.7-0.7,3.6-1.8c0.9-1.1,1.2-2.6,0.8-3.7l-0.5-1.3H122l-1.9,6.9c-0.1,0.3,0,0.7,0.2,1
			c0.2,0.3,0.5,0.4,0.9,0.4h85c0.6,0,1.1-0.5,1.1-1.1c0-0.6-0.5-1.1-1.1-1.1h-83.5l1.9-6.9c0.1-0.3,0-0.7-0.2-1
			c-0.2-0.3-0.5-0.4-0.9-0.4H43.6l-6.3-17.2L37,19.1L37,19.1z"/>
	</g>
	<g>
		<linearGradient id="SVGID_1_" gradientUnits="userSpaceOnUse" x1="89.5906" y1="31.1833" x2="89.5906" y2="12.3251">
			<stop  offset="6.748470e-02" style="stop-color:#BDB000"/>
			<stop  offset="0.1315" style="stop-color:#CBBD00"/>
			<stop  offset="0.2872" style="stop-color:#EAD800"/>
			<stop  offset="0.4146" style="stop-color:#FEE900"/>
			<stop  offset="0.4969" style="stop-color:#FFF200"/>
		</linearGradient>
		<path class="st2" d="M66.9,31.2h-4.2l2-7.4H53.9l-2,7.4h-4.2l5.1-18.9H57l-1.9,7.2h10.8l1.9-7.2H72L66.9,31.2z M88.1,31.2H69.3
			l5.1-18.9h18.7L92,16.6H77.5l-0.8,3h14l-1.1,4.2h-14l-0.8,3.1h14.5L88.1,31.2z M114.2,31.2h-4.9l-1-4.2H97.4l-3.2,4.2h-4.9
			l14.9-18.8h5.2L114.2,31.2z M107.3,22.7c-0.5-1.7-0.7-2.9-0.9-3.4c-0.3-1.3-0.5-2.5-0.5-3.6c-0.7,1.3-2.4,3.7-5.1,7H107.3z
			 M130.3,31.2h-15.5l5.1-18.9h4.2l-3.9,14.6h11.2L130.3,31.2z"/>
	</g>
	<g>
		
			<linearGradient id="SVGID_00000150820902332684498020000002390982851599232391_" gradientUnits="userSpaceOnUse" x1="170.0625" y1="39.6807" x2="170.0625" y2="20.4448">
			<stop  offset="0.5031" style="stop-color:#FFFFFF"/>
			<stop  offset="0.5854" style="stop-color:#F7F7F7"/>
			<stop  offset="0.7128" style="stop-color:#E1E1E1"/>
			<stop  offset="0.8685" style="stop-color:#BEBEBE"/>
			<stop  offset="0.9325" style="stop-color:#ADADAD"/>
		</linearGradient>
		<path style="fill:url(#SVGID_00000150820902332684498020000002390982851599232391_);" d="M203.3,39.7l2-7.4h-10.4l-2,7.4h-4.6
			l5.1-19.2h4.6l-1.9,7.2h10.4l1.9-7.2h4.6l-5.2,19.2H203.3z M143.2,39.7l5.2-19.2h19.1l-1.2,4.6h-14.5l-0.7,2.6h14.1l-1.2,4.6
			h-14.1l-0.7,2.8h14.5l-1.2,4.6H143.2z M130,39.7l3.9-14.7H127l1.2-4.6h18.4l-1.2,4.6h-6.9l-3.9,14.7H130z M170.2,39.7
			c-1.6,0-2.8-0.6-3.7-1.7c-0.8-1.1-1-2.6-0.6-4.2l2-7.5c0.4-1.6,1.4-3,2.8-4.1c1.4-1.1,3-1.7,4.5-1.7H187c0.9,0,1.8,0.2,2.6,0.7
			c0.9,0.5,1.4,1.1,1.6,2l0,0.1l-4.7,2.8l0-0.3c0-0.2,0-0.4-0.1-0.5s-0.3-0.2-0.5-0.2h-11.8c-0.3,0-0.7,0.1-1,0.4
			c-0.3,0.3-0.5,0.6-0.6,0.9l-2,7.5c-0.1,0.3-0.1,0.6,0.1,0.9c0.2,0.2,0.4,0.3,0.7,0.3h11.8c0.5,0,1.1-0.4,1.9-1.2l0.1-0.1l2.6,3.1
			l-0.1,0.1c-0.8,0.7-1.7,1.3-2.7,1.8c-1.1,0.5-2.1,0.8-3,0.8H170.2z"/>
		<path class="st1" d="M212.8,20.6l-5.1,18.9h-4.2l2-7.4h-10.8l-2,7.4h-4.2l5-18.9h4.2l-1.9,7.2h10.8l1.9-7.2H212.8 M187,20.6
			c0.9,0,1.7,0.2,2.5,0.6c0.8,0.5,1.3,1.1,1.5,1.8l-4.2,2.6c0-0.6-0.3-0.9-0.8-0.9h-11.8c-0.4,0-0.7,0.1-1.1,0.4
			c-0.4,0.3-0.6,0.6-0.7,1l-2,7.5c-0.1,0.4-0.1,0.7,0.1,1c0.2,0.3,0.5,0.4,0.9,0.4h11.8c0.5,0,1.2-0.4,2.1-1.2l2.4,2.8
			c-0.8,0.7-1.7,1.3-2.7,1.7c-1.1,0.5-2.1,0.8-2.9,0.8h-11.8c-1.5,0-2.7-0.6-3.5-1.7c-0.8-1.1-1-2.4-0.6-4l2-7.5
			c0.4-1.6,1.3-2.9,2.7-4c1.4-1.1,2.9-1.7,4.4-1.7H187 M167.3,20.6l-1.1,4.2h-14.5l-0.8,3h14.1l-1.1,4.2h-14.1l-0.8,3.1h14.5
			l-1.1,4.3h-18.8l5.1-18.9H167.3 M146.4,20.6l-1.1,4.2h-6.9l-3.9,14.7h-4.2l3.9-14.7h-6.8l1.1-4.2H146.4 M213.3,20.3h-0.5h-4.2
			h-0.3l-0.1,0.3l-1.9,6.9h-10l1.8-6.8l0.1-0.5h-0.5h-4.2h-0.3l-0.1,0.3l-5,18.9l-0.1,0.5h0.5h4.2h0.3l0.1-0.3l1.9-7.1h10l-1.9,6.9
			l-0.1,0.5h0.5h4.2h0.3l0.1-0.3l5.1-18.9L213.3,20.3L213.3,20.3z M187,20.3h-11.8c-1.6,0-3.2,0.6-4.7,1.7c-1.5,1.1-2.4,2.6-2.9,4.2
			l-2,7.5c-0.4,1.7-0.2,3.1,0.6,4.3c0.9,1.2,2.2,1.8,3.8,1.8h11.8c0.9,0,1.9-0.3,3-0.8c1-0.5,2-1.1,2.8-1.8L188,37l-0.2-0.3
			l-2.4-2.8l-0.3-0.3l-0.3,0.3c-1,0.9-1.5,1.1-1.8,1.1h-11.8c-0.3,0-0.5-0.2-0.6-0.3c-0.1-0.2-0.2-0.4-0.1-0.7l2-7.5
			c0.1-0.3,0.3-0.6,0.6-0.8c0.3-0.2,0.6-0.3,0.9-0.3h11.8c0.1,0,0.3,0,0.4,0.1c0.1,0.1,0.1,0.2,0.1,0.4l0,0.7l0.6-0.4l4.2-2.6
			l0.2-0.1l-0.1-0.3c-0.2-0.9-0.8-1.6-1.7-2.1C188.9,20.5,188,20.3,187,20.3L187,20.3z M167.8,20.3h-0.5h-18.7h-0.3l-0.1,0.3
			l-5.1,18.9l-0.1,0.5h0.5h18.8h0.3l0.1-0.3l1.1-4.3l0.1-0.5h-0.5h-14l0.6-2.4h13.8h0.3l0.1-0.3l1.1-4.2l0.1-0.5h-0.5h-13.6l0.6-2.3
			h14.2h0.3l0.1-0.3l1.1-4.2L167.8,20.3L167.8,20.3z M146.9,20.3h-0.5h-18h-0.3l-0.1,0.3l-1.1,4.2l-0.1,0.5h0.5h6.3l-3.8,14.2
			l-0.1,0.5h0.5h4.2h0.3l0.1-0.3l3.9-14.4h6.6h0.3l0.1-0.3l1.1-4.2L146.9,20.3L146.9,20.3z"/>
	</g>
	
		<linearGradient id="SVGID_00000054231292716462397410000009890862028716590499_" gradientUnits="userSpaceOnUse" x1="19.9168" y1="9.9711" x2="32.3807" y2="44.2153">
		<stop  offset="0.4545" style="stop-color:#ADADAD"/>
		<stop  offset="0.4874" style="stop-color:#BEBEBE"/>
		<stop  offset="0.5675" style="stop-color:#E1E1E1"/>
		<stop  offset="0.6331" style="stop-color:#F7F7F7"/>
		<stop  offset="0.6755" style="stop-color:#FFFFFF"/>
	</linearGradient>
	
		<polyline style="fill:url(#SVGID_00000054231292716462397410000009890862028716590499_);stroke:#FFFFFF;stroke-width:0.3765;stroke-linecap:round;stroke-miterlimit:18;" points="
		32.8,5.9 25.4,23.3 36.8,16.3 19.5,48.9 27.8,26.7 28.6,24.7 18.7,31 25.9,7.8 32.8,5.9 	"/>
	
		<linearGradient id="SVGID_00000003069740531664443570000017316472955918514353_" gradientUnits="userSpaceOnUse" x1="45.2472" y1="5.7189" x2="184.298" y2="85.9999">
		<stop  offset="8.669480e-03" style="stop-color:#BDB000"/>
		<stop  offset="1.404357e-02" style="stop-color:#CBBD00"/>
		<stop  offset="2.711310e-02" style="stop-color:#EAD800"/>
		<stop  offset="3.780842e-02" style="stop-color:#FEE900"/>
		<stop  offset="4.472480e-02" style="stop-color:#FFF200"/>
	</linearGradient>
	<path style="fill:url(#SVGID_00000003069740531664443570000017316472955918514353_);" d="M206.2,45.8h-84l2-7.4
		c0.1-0.2,0-0.5-0.1-0.6c-0.1-0.2-0.4-0.3-0.6-0.3H43.3L37,20.1l-2.1,4l6.5,17.9c0.1,0.2,0,0.5-0.1,0.7c-0.2,0.2-0.4,0.3-0.7,0.3
		l-15.8,0l-1.6,2.9l17.4,0c1.2,0,2.4-0.6,3.3-1.7c0.8-1,1.1-2.3,0.7-3.4L43.9,39h78.6l-2,7.4c-0.1,0.2,0,0.5,0.1,0.6
		c0.1,0.2,0.4,0.3,0.6,0.3h85c0.4,0,0.7-0.3,0.7-0.7C206.9,46.2,206.6,45.8,206.2,45.8z"/>
	<g>
		
			<linearGradient id="SVGID_00000024002905911289226990000011107524546930989982_" gradientUnits="userSpaceOnUse" x1="19.9851" y1="34.3978" x2="4.42" y2="34.3978">
			<stop  offset="6.748470e-02" style="stop-color:#BDB000"/>
			<stop  offset="9.780537e-02" style="stop-color:#CBBD00"/>
			<stop  offset="0.1715" style="stop-color:#EAD800"/>
			<stop  offset="0.2319" style="stop-color:#FEE900"/>
			<stop  offset="0.2709" style="stop-color:#FFF200"/>
		</linearGradient>
		<path style="fill:url(#SVGID_00000024002905911289226990000011107524546930989982_);" d="M20,43L8.4,43c-0.2,0-0.4-0.1-0.5-0.3
			c-0.1-0.2,0-0.5,0.1-0.7l9.1-11.5l2.4-7.5l-14.2,18c-0.8,1-1.1,2.3-0.7,3.4c0.4,1,1.4,1.7,2.5,1.7l11.7,0L20,43z"/>
	</g>
	<g>
		
			<linearGradient id="SVGID_00000100342336243901228150000006891490241644060297_" gradientUnits="userSpaceOnUse" x1="33.9455" y1="16.0961" x2="31.2509" y2="11.429">
			<stop  offset="0" style="stop-color:#BDB000"/>
			<stop  offset="5.555293e-02" style="stop-color:#CBBD00"/>
			<stop  offset="0.1907" style="stop-color:#EAD800"/>
			<stop  offset="0.3012" style="stop-color:#FEE900"/>
			<stop  offset="0.3727" style="stop-color:#FFF200"/>
		</linearGradient>
		<path style="fill:url(#SVGID_00000100342336243901228150000006891490241644060297_);" d="M32.2,17.1l2.9-1.8l-1.3-3.4
			c-0.2-0.6-0.6-1-1.1-1.3l-1.6,3.7L32.2,17.1z"/>
	</g>
</g>
<g id="Layer_2">
	
		<linearGradient id="SVGID_00000118364375932632061940000012738537111834962336_" gradientUnits="userSpaceOnUse" x1="126.2168" y1="54.3237" x2="124.1302" y2="30.4731">
		<stop  offset="0.3901" style="stop-color:#BDB000"/>
		<stop  offset="0.4223" style="stop-color:#CABC00"/>
		<stop  offset="0.4848" style="stop-color:#EEDC00"/>
		<stop  offset="0.5192" style="stop-color:#FFF200"/>
	</linearGradient>
	<path style="fill:url(#SVGID_00000118364375932632061940000012738537111834962336_);" d="M206.2,45.8h-84l2-7.4
		c0.1-0.2,0-0.5-0.1-0.6c-0.1-0.2-0.4-0.3-0.6-0.3H43.3l0.5,1.5h78.6l-2,7.4c-0.1,0.2,0,0.5,0.1,0.6c0.1,0.2,0.4,0.3,0.6,0.3h85
		c0.4,0,0.7-0.3,0.7-0.7C206.9,46.2,206.6,45.8,206.2,45.8z"/>
	<g>
	</g>
	<g>
	</g>
	<g>
	</g>
	<g>
	</g>
	<g>
	</g>
	<g>
	</g>
</g>
</svg>
