<svg xmlns="http://www.w3.org/2000/svg" width="180" height="41" viewBox="0 0 180 41">
    <g fill="#131A47" fill-rule="evenodd">
        <path d="M30.626 7.781c3.393 2.497 5.8 6.955 6.061 11.15.267 4.282-.673 9.046-3.743 12.271a31.646 31.646 0 0 1-1.618 1.61c-1.01-1.836-1.94-3.687-3.037-5.482-1.072-1.754-2.36-3.41-3.645-5.015 2.949-.887 5.646-2.896 6.973-5.718 1.378-2.932.9-6.235-.99-8.816M30.155 33.138c.228.43.215.475-.165.76-.316.238-.63.456-.962.67-.721.461-1.443.827-2.215 1.2-1.43.688-3.096.97-4.65 1.177-3.106.414-6.354-.235-9.158-1.587-.659-.318-2.87-1.654-2.913-1.858-.045-.223 2.038-3.826 2.868-5.072 1.761-2.643 3.612-5.137 5.73-7.505.514-.573.992-1.157 1.537-1.703 2.028 2.03 3.862 4.315 5.562 6.623.858 1.164 1.61 2.407 2.363 3.639.733 1.2 1.318 2.438 2.003 3.656M9.165 32.7c-2.34-2.129-3.953-4.863-4.793-7.914-.788-2.861-.822-6.395.242-9.199 1.11-2.927 2.743-5.952 5.372-7.806-1.845 2.522-2.395 5.828-1.038 8.712 1.33 2.827 3.964 4.882 6.93 5.792-2.587 3.28-4.845 6.675-6.713 10.415"></path>
        <path d="M0 20.602C0 9.336 9.127.202 20.386.202c11.26 0 20.387 9.134 20.387 20.4C40.773 31.868 31.646 41 20.386 41 9.127 41 0 31.868 0 20.602zm1.805.052c0 10.269 8.319 18.593 18.581 18.593 10.262 0 18.582-8.324 18.582-18.593 0-10.268-8.32-18.592-18.582-18.592s-18.58 8.324-18.58 18.592zM165.399 30.371H163.8l-1.036 3.498-1.054-3.498h-1.59l2.064 6.256h1.142l2.072-6.256zm-19.843 6.256h1.535V30.37h-1.535v6.256zm-13.294-4.885v-1.37h-4.61v1.37h1.537v4.885h1.536v-4.885h1.537zm-19.29.641c0 .326-.247.634-.669.634h-.87V31.75h.87c.422 0 .668.307.668.632zm1.869 4.244l-1.352-2.61c.491-.245 1.018-.78 1.018-1.634 0-1.028-.746-2.012-2.134-2.012h-2.476v6.256h1.537v-2.328h.518l1.106 2.328h1.783zM94.9 33.499c0 1.142-.089 1.345-.228 1.53a.777.777 0 0 1-.615.28.774.774 0 0 1-.615-.28c-.14-.185-.228-.388-.228-1.53s.088-1.353.228-1.537c.114-.15.333-.273.615-.273.281 0 .5.123.615.273.14.184.227.395.227 1.537zm1.537 0c0-.94.026-1.818-.633-2.477-.456-.457-.983-.703-1.747-.703-.764 0-1.291.246-1.748.703-.658.659-.632 1.538-.632 2.477 0 .94-.026 1.819.632 2.478.457.457.984.703 1.748.703s1.29-.246 1.747-.703c.659-.66.633-1.538.633-2.478zM77.05 32.383c0 .326-.246.634-.667.634h-.87V31.75h.87c.421 0 .667.307.667.632zm1.537 0c0-1.028-.747-2.012-2.134-2.012h-2.476v6.256h1.537v-2.232h.94c1.386 0 2.133-.983 2.133-2.012zm-18.018 2.329c0-.58-.131-1.046-.465-1.37-.264-.264-.667-.44-1.23-.52l-.754-.105c-.22-.026-.352-.105-.43-.184a.414.414 0 0 1-.124-.29c0-.273.22-.58.755-.58.273 0 .79-.026 1.186.369l.966-.966c-.536-.536-1.212-.747-2.108-.747-1.422 0-2.283.835-2.283 1.977 0 .536.14.957.43 1.256.282.29.703.475 1.256.553l.755.107c.202.026.334.087.413.166.087.096.123.22.123.369 0 .36-.29.563-.896.563-.5 0-1.07-.115-1.396-.44l-.983.985c.632.649 1.414.825 2.37.825 1.318 0 2.415-.694 2.415-1.968zm-13.084 4.136h126.513v-10.65H47.485v10.65zM177.413 4.25c.268 0 .525.041.772.125.247.083.475.205.683.366.29.225.513.501.672.83.16.327.24.676.24 1.047 0 .321-.059.626-.176.913-.118.285-.29.535-.514.752a2.529 2.529 0 0 1-.783.523 2.31 2.31 0 0 1-1.797-.003 2.382 2.382 0 0 1-.773-.527 2.348 2.348 0 0 1-.514-.761 2.343 2.343 0 0 1-.049-1.665c.088-.251.216-.484.383-.7a2.296 2.296 0 0 1 1.856-.9zm2.053 2.387c0-.287-.05-.556-.152-.807a2.016 2.016 0 0 0-.44-.674 2.02 2.02 0 0 0-.667-.441 2.049 2.049 0 0 0-.794-.157c-.278 0-.54.05-.786.151-.247.1-.463.245-.65.434-.197.199-.349.426-.456.681-.107.255-.16.52-.16.794a2.028 2.028 0 0 0 .598 1.44c.194.195.417.346.668.453.25.107.505.16.767.16a2.105 2.105 0 0 0 1.48-.604 2.011 2.011 0 0 0 .592-1.43zm-1.488.052l.608 1.224h-.576l-.545-1.144h-.499v1.144h-.507V5.23h1.012c.375 0 .656.062.845.186.188.122.283.305.283.55 0 .19-.055.35-.165.478a.741.741 0 0 1-.456.245zm-.584-.242c.246 0 .422-.033.526-.1.106-.067.158-.177.159-.327 0-.16-.056-.277-.167-.35-.11-.075-.286-.112-.53-.113h-.416v.89h.428zM106.203 24.373h8.494V4.399h-8.494zM101.265 8.915H89.107v3.346h11.415v4.25H89.107v3.56h12.212v4.302H80.4V4.399h20.864v4.516M56.033 12.208h10.565V4.4h8.6v19.974h-8.6v-7.915H56.033v7.915H47.54V4.399h8.494v7.81M145.771 11.837l-9.147-.001c-.792-1.944-2.023-4.197-4.457-4.197-3.209 0-4.779 4.198-4.779 6.85 0 2.653 1.566 6.852 4.775 6.852 2.364 0 4.117-2.53 4.548-4.62l9.216.002c-2.11 5.728-7.913 8.39-13.765 8.39-6.007 0-14.01-3.66-14.01-10.625s8.011-10.62 14.016-10.62c5.434 0 11.6 2.55 13.603 7.969M161.686 3.872c-6.004 0-14.016 3.655-14.016 10.62 0 6.966 8.004 10.625 14.011 10.625 6.014 0 14.069-3.628 14.069-10.62 0-6.992-8.048-10.625-14.064-10.625zm0 3.77c-3.21 0-4.78 4.2-4.78 6.851 0 2.652 1.566 6.853 4.776 6.853 3.246 0 4.831-4.156 4.831-6.851 0-2.694-1.581-6.852-4.828-6.852z"></path>
    </g>
</svg>
