<svg id="Layer_1" style="enable-background:new 0 0 249.31 249.3;" version="1.1" viewBox="0 0 249.31 249.3" x="0px" xml:space="preserve" xmlns="http://www.w3.org/2000/svg" xmlns:xlink="http://www.w3.org/1999/xlink" y="0px">
<style type="text/css">
				.st0 {
					fill: #231F20;
				}

				.st1 {
					fill: none;
					stroke: #00B5E2;
					stroke-width: 1.1899;
					stroke-miterlimit: 10;
				}

				.st2 {
					fill: #FFFFFF;
				}

				.st3 {
					fill: #00B5E2;
				}

				.st4 {
					fill: #FFFFFF;
				}
			</style>
<g>
<rect class="st0" height="249.3" width="249.31"></rect>
<rect class="st1" height="224.34" width="222.42" x="13.44" y="12.48"></rect>
<polygon class="st2" points="88.99,155.95 88.99,153.33 100.6,153.33 100.6,113.05 58.65,113.05 58.65,153.33 70.25,153.33 
					70.25,155.95 35.3,155.95 35.3,153.33 46.96,153.33 46.96,70.34 35.3,70.34 35.3,67.72 70.25,67.72 70.25,70.34 58.65,70.34 
					58.65,110.43 100.6,110.43 100.6,70.34 88.99,70.34 88.99,67.72 123.95,67.72 123.95,70.34 112.29,70.34 112.29,153.33 
					123.95,153.33 123.95,155.95 	"></polygon>
<path class="st3" d="M131.16,155.95v-2.62h11.67V70.34h-11.67v-2.62h35.29c28.01,0,47.57,18.42,47.57,44.79
					c0,11.33-3.79,21.86-10.68,29.66c-7.95,9.01-19.53,13.77-33.49,13.77H131.16z M169.9,153.33c21.15,0,31.44-13.21,31.44-40.39
					c0-28.27-11.55-42.61-34.34-42.61h-12.49v82.99H169.9z"></path>
<g>
<path class="st4" d="M62.79,183.39v12.49H59.9v-5.12h-5.68v5.12h-2.89v-12.49h2.89v4.93h5.68v-4.93H62.79z"></path>
<path class="st4" d="M79.89,193.57v2.32h-9.67v-12.49h9.44v2.32h-6.57v2.71h5.8v2.25h-5.8v2.89H79.89z"></path>
<path class="st4" d="M98.11,183.39v12.49h-2.37l-6.23-7.59v7.59h-2.86v-12.49h2.39l6.21,7.59v-7.59H98.11z"></path>
<path class="st4" d="M117,183.39v12.49h-2.37l-6.23-7.59v7.59h-2.86v-12.49h2.39l6.21,7.59v-7.59H117z"></path>
<path class="st4" d="M134.1,193.57v2.32h-9.67v-12.49h9.44v2.32h-6.57v2.71h5.8v2.25h-5.8v2.89H134.1z"></path>
<path class="st4" d="M142.1,195.7c-0.92-0.27-1.66-0.61-2.22-1.04l0.98-2.18c0.54,0.39,1.17,0.71,1.91,0.95
						c0.74,0.24,1.48,0.36,2.21,0.36c0.82,0,1.43-0.12,1.82-0.37c0.39-0.24,0.59-0.57,0.59-0.97c0-0.3-0.12-0.54-0.35-0.74
						c-0.23-0.2-0.53-0.35-0.89-0.47c-0.36-0.12-0.85-0.25-1.47-0.39c-0.95-0.23-1.73-0.45-2.34-0.68c-0.61-0.23-1.13-0.59-1.56-1.09
						c-0.43-0.5-0.65-1.17-0.65-2c0-0.73,0.2-1.38,0.59-1.97c0.39-0.59,0.98-1.06,1.78-1.4c0.79-0.35,1.76-0.52,2.9-0.52
						c0.8,0,1.58,0.1,2.34,0.29c0.76,0.19,1.43,0.46,2,0.82l-0.89,2.2c-1.15-0.65-2.31-0.98-3.46-0.98c-0.81,0-1.41,0.13-1.79,0.39
						c-0.39,0.26-0.58,0.61-0.58,1.04s0.22,0.75,0.67,0.95c0.45,0.21,1.13,0.41,2.04,0.61c0.95,0.23,1.73,0.45,2.34,0.68
						c0.61,0.23,1.13,0.58,1.56,1.07c0.43,0.49,0.65,1.15,0.65,1.98c0,0.71-0.2,1.37-0.6,1.95c-0.4,0.59-1,1.06-1.79,1.4
						c-0.8,0.35-1.77,0.52-2.91,0.52C143.98,196.1,143.02,195.97,142.1,195.7z"></path>
<path class="st4" d="M157.95,195.7c-0.92-0.27-1.66-0.61-2.22-1.04l0.98-2.18c0.54,0.39,1.17,0.71,1.91,0.95
						c0.74,0.24,1.48,0.36,2.21,0.36c0.82,0,1.43-0.12,1.82-0.37c0.39-0.24,0.59-0.57,0.59-0.97c0-0.3-0.12-0.54-0.35-0.74
						c-0.23-0.2-0.53-0.35-0.89-0.47c-0.36-0.12-0.85-0.25-1.47-0.39c-0.95-0.23-1.73-0.45-2.34-0.68c-0.61-0.23-1.13-0.59-1.56-1.09
						c-0.43-0.5-0.65-1.17-0.65-2c0-0.73,0.2-1.38,0.59-1.97c0.39-0.59,0.98-1.06,1.78-1.4c0.79-0.35,1.76-0.52,2.9-0.52
						c0.8,0,1.58,0.1,2.34,0.29c0.76,0.19,1.43,0.46,2,0.82l-0.89,2.2c-1.15-0.65-2.31-0.98-3.46-0.98c-0.81,0-1.41,0.13-1.79,0.39
						c-0.39,0.26-0.58,0.61-0.58,1.04s0.22,0.75,0.67,0.95c0.45,0.21,1.13,0.41,2.04,0.61c0.95,0.23,1.73,0.45,2.34,0.68
						c0.61,0.23,1.13,0.58,1.56,1.07c0.43,0.49,0.65,1.15,0.65,1.98c0,0.71-0.2,1.37-0.6,1.95c-0.4,0.59-1,1.06-1.79,1.4
						c-0.8,0.35-1.77,0.52-2.91,0.52C159.83,196.1,158.87,195.97,157.95,195.7z"></path>
<path class="st4" d="M182.24,193.57v2.32h-9.67v-12.49H182v2.32h-6.57v2.71h5.8v2.25h-5.8v2.89H182.24z"></path>
<path class="st4" d="M194.87,191.46v4.43h-2.89v-4.46l-4.84-8.03h3.07l3.34,5.55l3.34-5.55h2.84L194.87,191.46z"></path>
<path class="st4" d="M94.99,206.03h3.4c0.81,0,1.53,0.15,2.16,0.47c0.62,0.31,1.11,0.75,1.46,1.31c0.35,0.57,0.52,1.22,0.52,1.97
						c0,0.75-0.17,1.41-0.52,1.97c-0.35,0.57-0.83,1-1.46,1.31c-0.63,0.31-1.34,0.47-2.16,0.47h-3.4V206.03z M98.31,212.1
						c0.75,0,1.35-0.21,1.79-0.63c0.45-0.42,0.67-0.98,0.67-1.7c0-0.71-0.22-1.28-0.67-1.7c-0.45-0.42-1.04-0.63-1.79-0.63h-1.58v4.65
						H98.31z"></path>
<path class="st4" d="M106.51,206.03h1.73v7.5h-1.73V206.03z"></path>
<path class="st4" d="M117.77,209.66h1.58v3.04c-0.41,0.31-0.88,0.54-1.41,0.71c-0.54,0.16-1.08,0.25-1.62,0.25
						c-0.78,0-1.48-0.17-2.1-0.5c-0.62-0.33-1.11-0.79-1.46-1.38c-0.35-0.59-0.53-1.25-0.53-2c0-0.74,0.18-1.41,0.53-2
						c0.35-0.59,0.84-1.05,1.47-1.38c0.63-0.33,1.33-0.5,2.12-0.5c0.66,0,1.25,0.11,1.79,0.33c0.54,0.22,0.99,0.54,1.35,0.96
						l-1.11,1.03c-0.54-0.56-1.18-0.85-1.94-0.85c-0.48,0-0.9,0.1-1.27,0.3c-0.37,0.2-0.66,0.48-0.87,0.85
						c-0.21,0.36-0.31,0.78-0.31,1.25c0,0.46,0.1,0.88,0.31,1.24c0.21,0.36,0.49,0.65,0.86,0.85c0.37,0.2,0.79,0.3,1.26,0.3
						c0.5,0,0.95-0.11,1.35-0.32V209.66z"></path>
<path class="st4" d="M123.64,206.03h1.74v7.5h-1.74V206.03z"></path>
<path class="st4" d="M131.38,207.44h-2.4v-1.41h6.53v1.41h-2.4v6.08h-1.74V207.44z"></path>
<path class="st4" d="M143.69,211.92h-3.48l-0.66,1.61h-1.78l3.34-7.5h1.71l3.35,7.5h-1.82L143.69,211.92z M143.14,210.6
						l-1.19-2.87l-1.19,2.87H143.14z"></path>
<path class="st4" d="M149.63,206.03h1.74v6.08h3.76v1.41h-5.49V206.03z"></path>
</g>
</g>
</svg>