<?xml version="1.0" encoding="UTF-8"?> <svg xmlns="http://www.w3.org/2000/svg" xmlns:xlink="http://www.w3.org/1999/xlink" width="202" height="87.41" viewBox="0 0 202 87.41"><defs><clipPath id="clip-path"><rect id="Rectangle_3051" data-name="Rectangle 3051" width="202" height="87.41" fill="#0a304a"></rect></clipPath><clipPath id="clip-path-2"><path id="Path_31259" data-name="Path 31259" d="M311.686,0l4.694,9.287h71.349a25.965,25.965,0,0,1,25.965,25.965h9.143s.555-1.3-1.975-2.23a21.073,21.073,0,0,1-3.039-1.331.623.623,0,0,1-.111-1,43.706,43.706,0,0,0,3.726-3.659c.444-.71.71-1.642-1.065-2.042s-3.329-.488-4.217-.755-1.11-.888-.488-1.642a18.315,18.315,0,0,0,2.574-4.172c.133-.8.266-1.465-1.465-1.42s-3.995.533-4.838.4-.843-.976-.4-2a19.364,19.364,0,0,0,1.42-4.083c.133-1.11-.311-1.465-1.509-1.243a38.282,38.282,0,0,0-4.35,1.465c-.888.311-1.731.266-1.465-1.2a20.643,20.643,0,0,0,.4-4.394c-.089-1.021-.355-1.6-1.6-1.11a18.557,18.557,0,0,0-3.906,2.486c-.666.577-1.731.8-1.908-.4s-.444-3.773-.71-4.7-1.065-1.554-2.13-.577a21.971,21.971,0,0,0-2.841,3.2c-.577.843-1.42,1.465-1.909.266A27.009,27.009,0,0,0,389.126.888C388.549.133,388.016,0,386.374,0Z" transform="translate(-311.686 0)" fill="#0a304a"></path></clipPath><clipPath id="clip-path-3"><path id="Path_31260" data-name="Path 31260" d="M460.632,98.546l4.461,9.321h54.293a14.281,14.281,0,0,1,14.281,14.281h9.188v-.2a23.4,23.4,0,0,0-23.4-23.4Z" transform="translate(-460.632 -98.546)" fill="#0a304a"></path></clipPath><clipPath id="clip-path-4"><path id="Path_31261" data-name="Path 31261" d="M604.227,195.4l4.66,9.387h37.246a2.567,2.567,0,0,1,2.567,2.567v.2h9.254v-.087A12.063,12.063,0,0,0,645.891,195.4Z" transform="translate(-604.227 -195.402)" fill="#0a304a"></path></clipPath></defs><g id="Group_11084" data-name="Group 11084" transform="translate(-106 -706)"><g id="Group_11083" data-name="Group 11083" transform="translate(106 706)"><path id="Path_31233" data-name="Path 31233" d="M1431.738,656.808h-2.58l-3.373,9.542h1.918l.629-1.753h4.266l.662,1.753h1.951Zm-3.01,6.459,1.77-5.1,1.7,5.1Z" transform="translate(-1257.216 -579.155)" fill="#0a304a"></path><path id="Path_31234" data-name="Path 31234" d="M4.713,658.171l1.7,5.1H2.944Zm-1.34-1.363L0,666.35H1.918l.628-1.753H6.813l.661,1.753H9.426l-3.473-9.542Z" transform="translate(0 -579.155)" fill="#0a304a"></path><g id="Group_11076" data-name="Group 11076" transform="translate(0 0)"><g id="Group_11075" data-name="Group 11075" clip-path="url(#clip-path)"><path id="Path_31235" data-name="Path 31235" d="M114.137,667.463v-6.615a2.778,2.778,0,0,1,2.778-2.778v3.8h3.671a1.984,1.984,0,0,1-1.984,1.984h-1.687v3.605Z" transform="translate(-100.643 -580.267)" fill="#0a304a"></path><path id="Path_31236" data-name="Path 31236" d="M170.646,667.463v-6.615a2.778,2.778,0,0,1,2.778-2.778v9.393Z" transform="translate(-150.471 -580.267)" fill="#0a304a"></path><path id="Path_31237" data-name="Path 31237" d="M202.817,667.463V658.07h4.857a3.184,3.184,0,0,1,3.081,2.381h-5.027v1.273h5.027v2.034h-5.126v1.455h5.126v2.249Z" transform="translate(-178.838 -580.267)" fill="#0a304a"></path><path id="Path_31238" data-name="Path 31238" d="M285.446,664.585l.191-.082a3.287,3.287,0,0,0,2.19-3.11c0-3.326-3.721-3.324-4.945-3.324H278.07v9.393h2.811v-2.58H282.3l2.183,2.646h3.9Zm-1.637-1.984h-2.927v-2.15h2.927a1.075,1.075,0,1,1,0,2.15" transform="translate(-245.194 -580.266)" fill="#0a304a"></path><path id="Path_31239" data-name="Path 31239" d="M892.826,664.585l.192-.082a3.287,3.287,0,0,0,2.19-3.11c0-3.326-3.721-3.324-4.945-3.324H885.45v9.393h2.811v-2.58h1.422l2.183,2.646h3.9Zm-1.637-1.984h-2.927v-2.15h2.927a1.075,1.075,0,0,1,0,2.15" transform="translate(-780.765 -580.266)" fill="#0a304a"></path><path id="Path_31240" data-name="Path 31240" d="M500.189,666.294V656.67a3.59,3.59,0,0,1,2.348,1.356c1.356,1.389,2.745,2.778,2.745,2.778l2.613-2.315V656.67a3.2,3.2,0,0,1,2.877,3.181v6.443h-2.91v-4.366l-2.381,2.315-2.547-2.315v4.366Z" transform="translate(-441.052 -579.032)" fill="#0a304a"></path><path id="Path_31241" data-name="Path 31241" d="M699.453,667.528v-7.074h-3.44v-2.385h7.24a2.385,2.385,0,0,1,2.385,2.385H702.3v7.074Z" transform="translate(-613.724 -580.266)" fill="#0a304a"></path><path id="Path_31242" data-name="Path 31242" d="M372.982,656.67v.016c-3.646,0-5.672,1.455-5.672,4.7s1.114,5.06,5.672,5.06v-.016c4.558,0,5.672-1.819,5.672-5.06s-2.026-4.7-5.672-4.7m0,7.416v.009c-2.368,0-2.946-.945-2.946-2.629s1.052-2.44,2.946-2.44v-.008c1.894,0,2.946.756,2.946,2.44s-.579,2.628-2.946,2.628" transform="translate(-323.883 -579.033)" fill="#0a304a"></path><path id="Path_31243" data-name="Path 31243" d="M603.537,656.67v.016c-3.646,0-5.672,1.455-5.672,4.7s1.114,5.06,5.672,5.06v-.016c4.558,0,5.672-1.819,5.672-5.06s-2.026-4.7-5.672-4.7m0,7.416v.009c-2.368,0-2.946-.945-2.946-2.629s1.052-2.44,2.946-2.44v-.008c1.894,0,2.946.756,2.946,2.44s-.579,2.628-2.946,2.628" transform="translate(-527.18 -579.033)" fill="#0a304a"></path><path id="Path_31244" data-name="Path 31244" d="M786.67,656.67v.016c-3.646,0-5.672,1.455-5.672,4.7s1.114,5.06,5.672,5.06v-.016c4.558,0,5.672-1.819,5.672-5.06s-2.026-4.7-5.672-4.7m0,7.416v.009c-2.367,0-2.946-.945-2.946-2.629s1.052-2.44,2.946-2.44v-.008c1.894,0,2.946.756,2.946,2.44s-.579,2.628-2.946,2.628" transform="translate(-688.662 -579.033)" fill="#0a304a"></path><path id="Path_31245" data-name="Path 31245" d="M987.556,659.148h0a2.5,2.5,0,0,0-2.494-2.341h-4.4a3.034,3.034,0,0,0-3.033,2.957,2.8,2.8,0,0,0,2.8,2.873h3.985a.682.682,0,1,1,0,1.364h-6.387v2.414h7.158a2.987,2.987,0,0,0,2.987-2.987v-.206a2.52,2.52,0,0,0-2.52-2.52h-4.169a.777.777,0,1,1,0-1.554Z" transform="translate(-862.048 -579.154)" fill="#0a304a"></path><path id="Path_31246" data-name="Path 31246" d="M1262.782,666.416v-9.608h2.9l2.654,7.169,2.753-7.169h2.977v9.608h-1.737V658.37l-3.026,8.045h-1.737l-3.15-8.02v8.02Z" transform="translate(-1113.485 -579.154)" fill="#0a304a"></path><path id="Path_31247" data-name="Path 31247" d="M1509.979,656.808H1507v9.608h1.662v-8h.2l3.994,8h3.026v-9.608H1514.2v8.137h-.081Z" transform="translate(-1328.832 -579.154)" fill="#0a304a"></path><path id="Path_31248" data-name="Path 31248" d="M1588.409,656.808l3.423,5.83v3.779h1.811v-3.754l3.572-5.854h-2.108l-2.323,4.019-2.39-4.019Z" transform="translate(-1400.613 -579.154)" fill="#0a304a"></path><path id="Path_31249" data-name="Path 31249" d="M1373.573,656.808h-4.836v9.608h1.637v-3.134h3.2a2.754,2.754,0,0,0,2.754-2.754v-.967a2.754,2.754,0,0,0-2.754-2.754m1.241,3.6a1.5,1.5,0,0,1-1.546,1.46h-2.894v-3.6h2.894a1.5,1.5,0,0,1,1.546,1.46Z" transform="translate(-1206.912 -579.155)" fill="#0a304a"></path><path id="Path_31250" data-name="Path 31250" d="M1189.368,661.373c0-3.1-.317-4.565-4.316-4.565s-4.316,1.464-4.316,4.565c0,3.274-.195,5.16,4.316,5.16s4.316-1.885,4.316-5.16m-4.316,3.7c-2.644,0-2.53-1.318-2.53-3.606,0-2.167.186-3.19,2.53-3.19s2.53,1.023,2.53,3.19c0,2.288.114,3.606-2.53,3.606" transform="translate(-1041.139 -579.155)" fill="#0a304a"></path><path id="Path_31251" data-name="Path 31251" d="M1109.726,658.271c1.546,0,2.052.547,2.212,1.687h1.814c-.156-2.134-.886-3.151-4.026-3.151-3.767,0-4.065,1.464-4.065,4.565,0,3.274-.184,5.16,4.065,5.16,3.412,0,3.966-1.216,4.052-3.39l-1.8.009c-.1,1.235-.52,1.917-2.237,1.917h-.013c-2.386,0-2.283-1.318-2.283-3.606,0-2.167.168-3.19,2.283-3.19" transform="translate(-974.939 -579.154)" fill="#0a304a"></path><path id="Path_31252" data-name="Path 31252" d="M11.024,351.949,5.631,381.776h7.057l2.2-11.718h9.987l-1.931,11.718h6.991l5.459-29.826H28.134L26.2,363.068H15.95l2.2-11.118Z" transform="translate(-4.965 -310.339)" fill="#0a304a"></path><path id="Path_31253" data-name="Path 31253" d="M271.722,351.949H254.049a5.474,5.474,0,0,0-5.384,4.488l-3.71,20.267a4.3,4.3,0,0,0,4.227,5.071h17.347l1.2-6.857-15.246-.067.865-4.86h14.713l1.2-6.857H254.612l.8-4.261h15.046Z" transform="translate(-215.931 -310.339)" fill="#0a304a"></path><path id="Path_31254" data-name="Path 31254" d="M489.351,351.949l1.822,26.325a3.761,3.761,0,0,0,3.752,3.5h1.359a4.924,4.924,0,0,0,4.529-2.993l6.047-14.184,1.078,13.9a3.547,3.547,0,0,0,3.536,3.273h1.692a4.48,4.48,0,0,0,4.115-2.707l11.683-27.119h-7.456l-7.457,17.576-.98-13.617a4.266,4.266,0,0,0-4.255-3.96h-.456a4.672,4.672,0,0,0-4.266,2.767l-6.554,14.676-.932-17.443Z" transform="translate(-431.496 -310.339)" fill="#0a304a"></path><path id="Path_31255" data-name="Path 31255" d="M807.548,351.949l-4.681,24.963a4.107,4.107,0,0,0,4.037,4.864h9.5l4.128-6.924H810.344l4.261-22.9Z" transform="translate(-707.882 -310.339)" fill="#0a304a"></path><path id="Path_31256" data-name="Path 31256" d="M967.714,355.694a4.764,4.764,0,0,0-4.654-3.745,5.155,5.155,0,0,0-4.449,2.552l-15.95,27.274h6.266a3.056,3.056,0,0,0,2.712-1.648l2.74-5.276H964.5l.879,4.354a3.2,3.2,0,0,0,3.141,2.57h4.9Zm-9.674,12.233L961.9,361.2l1.6,6.724Z" transform="translate(-831.212 -310.339)" fill="#0a304a"></path><path id="Path_31257" data-name="Path 31257" d="M1221.406,381.776l4.767-25.422a5.4,5.4,0,0,1,5.307-4.4h.48a3.979,3.979,0,0,1,3.659,2.417l6.558,15.359,3.2-17.776h7.19l-4.719,25.47a5.327,5.327,0,0,1-5.238,4.357h-.5a4.347,4.347,0,0,1-4.025-2.7l-6.286-15.4-3.129,18.109Z" transform="translate(-1077.001 -310.339)" fill="#0a304a"></path><path id="Path_31258" data-name="Path 31258" d="M1501.439,361.2c-.133-7.323-5.193-9.254-9.321-9.254H1482.6a5.179,5.179,0,0,0-5.1,4.257L1473.742,377a4.056,4.056,0,0,0,3.991,4.778h7.661c4.394,0,7.19.266,10.652-3.262s5.526-9.987,5.393-17.31m-9.054,10.453c-1.531,3.4-3.995,3.329-5.992,3.329h-5.326L1484,358.807h5.393c2.264,0,4.527-.133,4.927,2.4s-.4,7.057-1.931,10.453" transform="translate(-1299.445 -310.339)" fill="#0a304a"></path></g></g><g id="Group_11078" data-name="Group 11078" transform="translate(36.85 0)"><g id="Group_11077" data-name="Group 11077" clip-path="url(#clip-path-2)"><rect id="Rectangle_3052" data-name="Rectangle 3052" width="36.135" height="111.98" transform="matrix(0.008, -1, 1, 0.008, -0.279, 35.25)" fill="#0a304a"></rect></g></g><g id="Group_11080" data-name="Group 11080" transform="translate(54.46 11.651)"><g id="Group_11079" data-name="Group 11079" clip-path="url(#clip-path-3)"><rect id="Rectangle_3053" data-name="Rectangle 3053" width="82.222" height="23.601" transform="translate(0 0)" fill="#0a304a"></rect></g></g><g id="Group_11082" data-name="Group 11082" transform="translate(71.437 23.102)"><g id="Group_11081" data-name="Group 11081" clip-path="url(#clip-path-4)"><rect id="Rectangle_3054" data-name="Rectangle 3054" width="53.728" height="12.15" transform="translate(0 0)" fill="#0a304a"></rect></g></g></g></g></svg> 