<svg xmlns="http://www.w3.org/2000/svg" width="146" height="81" viewBox="0 0 146 81">
  <g fill="none" fill-rule="evenodd">
    <path fill="#242121" d="M26.1482763,52.7281794 L45.0540718,21.9332654 L59.367995,21.9332654 L51.5360589,35.1694107 L65.5803641,35.1694107 L73.9529307,21.631979 L89.4369028,21.631979 L69.631606,52.7281794 L55.317218,52.7281794 L63.0296855,39.2218992 L49.1053137,39.2218992 L40.4626643,52.7281794 L26.1482763,52.7281794 Z M76.383397,52.7281794 L95.0195746,21.9332654 L127.695409,22.1373777 C136.424522,23.4517863 132.185477,29.5416778 132.185477,29.5416778 C130.519889,34.538941 119.326096,38.1413596 119.326096,38.1413596 L123.647421,58.4010124 L137.692656,50.0268304 L145.524592,50.0268304 L124.608284,62.7301451 L128.779459,80.8226743 L112.633528,80.8212795 L110.143746,70.557083 L92.0477342,80.8226743 L84.4863456,80.8226743 L109.063415,65.9647897 L104.008544,39.8798009 C103.591566,36.2783122 112.845039,34.0888711 112.845039,34.0888711 C119.326096,30.5473607 116.565766,26.945407 116.565766,26.945407 C115.726232,25.0242411 107.442453,26.2549589 107.442453,26.2549589 L90.697785,52.7281794 L76.383397,52.7281794 Z"/>
    <path fill="#E82C2A" d="M31.58602,57.1831885 L31.2392356,58.7802855 L27.8127635,58.7802855 L27.5217621,60.1160817 L30.8719974,60.1160817 L30.5405532,61.630418 L27.1754425,61.630418 L26.5632238,64.6600204 L24.2538068,64.6600204 L25.8492012,57.1831885 L31.58602,57.1831885 Z M35.0842663,61.84992 L34.8546261,59.1267184 L34.8346372,59.1267184 L33.5493035,61.84992 L35.0842663,61.84992 Z M37.5982211,64.6605319 L35.3343601,64.6605319 L35.2320913,63.4363233 L32.7948381,63.4363233 L32.2133001,64.6605319 L29.7249125,64.6605319 L33.9467575,57.183235 L36.4100427,57.183235 L37.5982211,64.6605319 Z M45.8586638,59.2591357 L43.6970717,59.3763026 C43.6491913,58.72677 43.2870665,58.4017712 42.6102325,58.4017712 C42.3350363,58.4017712 42.1235257,58.4608196 41.9757007,58.5779866 C41.8278757,58.6951535 41.7539632,58.8360328 41.7539632,58.9987647 C41.7539632,59.1177914 41.8134651,59.2307738 41.9324688,59.3377119 C42.0519375,59.44465 42.3336417,59.5822747 42.7789762,59.7491911 C43.3428496,59.9663219 43.8021298,60.1727589 44.1554222,60.3657124 C44.5091796,60.5595958 44.7983215,60.8111328 45.0223833,61.1203233 C45.2473749,61.4299788 45.3589409,61.8158858 45.3589409,62.2780443 C45.3589409,62.7141657 45.2376128,63.1196006 44.9949567,63.4948138 C44.7513708,63.8704919 44.4013324,64.1796825 43.9439116,64.4228504 C43.4864908,64.6660183 42.8366186,64.7878347 41.9938302,64.7878347 C40.8070464,64.7878347 39.9656525,64.5595451 39.4696485,64.1038959 C38.9731796,63.6487116 38.7249451,63.0642717 38.7249451,62.3496464 L38.7249451,62.1762207 L40.8972289,62.0279022 C40.8972289,62.4942452 40.9999627,62.8229636 41.205895,63.0154522 C41.4118273,63.2074758 41.6958559,63.3032551 42.0598401,63.3032551 C42.4270783,63.3032551 42.7064583,63.223284 42.8989097,63.0642717 C43.0904314,62.9043296 43.1866571,62.7220699 43.1866571,62.5184226 C43.1866571,62.3659195 43.1257606,62.2241103 43.003038,62.0948547 C42.8807802,61.9655991 42.5800167,61.814026 42.1007476,61.6406004 C41.002287,61.2463243 40.3087181,60.8822698 40.0181815,60.5493669 C39.7271801,60.216929 39.5816794,59.8147488 39.5816794,59.346081 C39.5816794,58.9173988 39.7016129,58.5268423 39.9414798,58.1725517 C40.180882,57.8191911 40.5295259,57.5444067 40.9869466,57.3491285 C41.4434377,57.1543152 41.9919707,57.0562111 42.6311512,57.0562111 C44.6537505,57.0562111 45.7294331,57.7903643 45.8586638,59.2591357 Z M54.1298448,57.1831885 L53.7472662,59.0192689 L51.3202399,59.0192689 L50.1013809,64.6600204 L47.7812721,64.6600204 L48.9950177,59.0192689 L46.6749089,59.0192689 L47.062136,57.1831885 L54.1298448,57.1831885 Z M61.2230278,57.1831885 L60.8808919,58.7891196 L57.0871816,58.7891196 L56.8370878,59.978922 L60.4936648,59.978922 L60.1566424,61.4927933 L56.5065734,61.4927933 L56.1900047,62.9569152 L60.3044674,62.9569152 L59.9372292,64.6600204 L53.517998,64.6600204 L55.1138573,57.1831885 L61.2230278,57.1831885 Z M68.4837458,59.2591357 L66.3216889,59.3763026 C66.2742733,58.72677 65.9121485,58.4017712 65.2353145,58.4017712 C64.9601183,58.4017712 64.7486077,58.4608196 64.6007827,58.5779866 C64.4529577,58.6951535 64.3790452,58.8360328 64.3790452,58.9987647 C64.3790452,59.1177914 64.4385471,59.2307738 64.5575508,59.3377119 C64.6770195,59.44465 64.9582589,59.5822747 65.4040582,59.7491911 C65.9679316,59.9663219 66.4272118,60.1727589 66.7805042,60.3657124 C67.1347264,60.5595958 67.4229387,60.8111328 67.6479302,61.1203233 C67.8724569,61.4299788 67.9840229,61.8158858 67.9840229,62.2780443 C67.9840229,62.7141657 67.8626948,63.1196006 67.6200387,63.4948138 C67.3769177,63.8704919 67.0264144,64.1796825 66.5694585,64.4228504 C66.1120377,64.6660183 65.4617006,64.7878347 64.619377,64.7878347 C63.4321284,64.7878347 62.5911994,64.5595451 62.0947305,64.1038959 C61.5982616,63.6487116 61.3500271,63.0642717 61.3500271,62.3496464 L61.3500271,62.1762207 L63.5223109,62.0279022 C63.5223109,62.4942452 63.6250447,62.8229636 63.830977,63.0154522 C64.0364445,63.2074758 64.3214027,63.3032551 64.6844572,63.3032551 C65.0521603,63.3032551 65.3320051,63.223284 65.5239917,63.0642717 C65.7159782,62.9043296 65.812204,62.7220699 65.812204,62.5184226 C65.812204,62.3659195 65.7503778,62.2241103 65.6285848,62.0948547 C65.5058622,61.9655991 65.2050987,61.814026 64.7258296,61.6406004 C63.6278338,61.2463243 62.9338001,60.8822698 62.6432635,60.5493669 C62.3527269,60.216929 62.2067614,59.8147488 62.2067614,59.346081 C62.2067614,58.9173988 62.3266949,58.5268423 62.5665618,58.1725517 C62.805964,57.8191911 63.154143,57.5444067 63.6120286,57.3491285 C64.0689846,57.1543152 64.6170527,57.0562111 65.2562332,57.0562111 C67.2783677,57.0562111 68.3545151,57.7903643 68.4837458,59.2591357 Z M76.7553916,57.1831885 L76.3723482,59.0192689 L73.9453219,59.0192689 L72.7264629,64.6600204 L70.406819,64.6600204 L71.6200997,59.0192689 L69.2999909,59.0192689 L69.6876829,57.1831885 L76.7553916,57.1831885 Z M90.9921483,57.1831885 L87.4736343,64.6600204 L85.2097733,64.6600204 L85.0312677,60.0756312 L85.0108139,60.0756312 L82.8789728,64.6600204 L80.5690908,64.6600204 L80.3701314,57.1831885 L82.4508381,57.1831885 L82.3439206,61.7480499 L82.369023,61.7685076 L84.4348542,57.1831885 L86.6782614,57.1831885 L86.7851788,61.7991942 L86.8056326,61.7991942 L88.7278225,57.1831885 L90.9921483,57.1831885 Z M94.8367606,61.84992 L94.6071205,59.1267184 L94.5866668,59.1267184 L93.3022627,61.84992 L94.8367606,61.84992 Z M97.3507154,64.6605319 L95.0868545,64.6605319 L94.9845856,63.4363233 L92.5473325,63.4363233 L91.9657945,64.6605319 L89.4774069,64.6605319 L93.7001816,57.183235 L96.163002,57.183235 L97.3507154,64.6605319 Z M105.851258,57.1831885 L102.251393,61.8401096 L101.65498,64.6600204 L99.3241793,64.6600204 L99.9410465,61.7792014 L97.6976394,57.1831885 L100.119552,57.1831885 L101.267288,59.9473055 L103.199705,57.1831885 L105.851258,57.1831885 Z M83.9725059,2.48689958e-14 C64.9402689,3.34762703 27.3136914,13.5704431 7.81597009e-14,43.9138924 L7.81597009e-14,10.5585086 C7.81597009e-14,4.72759328 4.35990796,2.48689958e-14 9.73832091,2.48689958e-14 L83.9725059,2.48689958e-14 Z" transform="translate(.161 .137)"/>
  </g>
</svg>
