<svg xmlns="http://www.w3.org/2000/svg" baseProfile="tiny-ps" height="823.5" width="823.5" xml:space="preserve" viewBox="0 0 823.5 823.5" version="1.2">
  <title>bimi-svg-tiny-12-ps</title>
  <defs id="defs19"></defs>
  <path fill="#00AA85" id="path1" d="M 823.5,12 H 141.8 C 63.5,12 0,75.5 0,153.8 v 664.4 h 681.7 c 78.3,0 141.8,-63.5 141.8,-141.8 z" class="st0"></path>
  <g transform="translate(-223.2,-184.8)" id="g19">
    <path fill="#FFFFFF" id="path15" d="M 519.9,534.2 V 667.7 H 835.4 V 560.2 c 0,-14.3 -11.6,-26 -26,-26 z" class="st1"></path>
    <path fill="#FFFFFF" id="path16" d="m 887.4,867.4 c 14.3,0 26,-11.6 26,-26 V 733.9 H 519.2 v 133.5 z" class="st1"></path>
    <path fill="#FFFFFF" id="path17" d="M 486.1,443.6 352.6,545.4 V 834 c 0,18.4 14.9,33.4 33.4,33.4 h 100.1 z" class="st1"></path>
    <path fill="#FFFFFF" id="path18" d="m 913.4,359.3 c 0,-14.3 -11.6,-26 -26,-26 h -257 l -111.2,84.8 v 48.7 H 913.3 V 359.3 Z" class="st1"></path>
    <path fill="#FF4612" id="path19" d="M 486.1,333.3 H 378.5 c -14.3,0 -26,11.6 -26,26 V 503.5 L 486,401.7 v -68.4 z" class="st2"></path>
  </g>
</svg>