<svg xmlns="http://www.w3.org/2000/svg" fill="none" viewBox="0 0 43 40" height="40" width="43">
<g clip-path="url(#clip0_345_1487)">
<path fill="#F1EFEE" d="M40.3062 0H21.0594L12.7313 6.34844V10H42.25V1.94375C42.25 0.870312 41.3797 0 40.3062 0ZM34.4719 15.0453H12.7844V25.0453H36.4156V16.9891C36.4156 15.9156 35.5453 15.0453 34.4719 15.0453ZM0.25 37.5C0.25 38.8812 1.36875 40 2.75 40H10.2484V8.25625L0.25 15.8844V37.5ZM12.7313 40H40.3062C41.3797 40 42.25 39.1297 42.25 38.0563V30H12.7313V40Z"></path>
<path fill="#F1EFEE" d="M10.2484 0H2.19375C1.12031 0 0.25 0.870312 0.25 1.94375V12.7422L10.2484 5.11875V0Z"></path>
</g>
<defs>
<clipPath id="clip0_345_1487">
<rect fill="white" height="40" width="42.5"></rect>
</clipPath>
</defs>
</svg>
