<svg class="svg-logo" data-name="Layer 1" id="Layer_1" viewbox="0 0 1451 312" xmlns="http://www.w3.org/2000/svg"><title>logo_itarp</title>
<g id="path17187"><path d="M389.77,57q-12.91,0-21.24,5.5T355.09,79.14l-42.81,95.08c-.47.95-.89,1.83-1.24,2.66s-.47,1.71-.71,2.66h37a15.06,15.06,0,0,1,.53-2.13l.7-2.12,6.2-14.37,7.87-17.82A30,30,0,0,1,360,131a30.33,30.33,0,0,1,8.75-21.17,30,30,0,0,1,11.08-7l4.8-11.31a5.22,5.22,0,0,1,2.3-2.84,5.55,5.55,0,0,1,3-.88,5.88,5.88,0,0,1,3.18.88,6.25,6.25,0,0,1,2.3,2.84L400.35,103A30,30,0,0,1,411,109.84a29.84,29.84,0,0,1,6.4,32.72l8.11,18.36,6.37,14.54c.24.59.47,1.24.7,1.95a21.81,21.81,0,0,1,.72,2.13h36.09a18.44,18.44,0,0,0-.89-2.66,16.14,16.14,0,0,0-1.06-2.66L424.27,79.14Q419.14,68,410.65,62.47,402.33,57,389.77,57Zm.11,47.54A26.47,26.47,0,0,0,363.44,131h0a26.48,26.48,0,0,0,26.44,26.51h0a26.51,26.51,0,0,0,0-53Zm0,8.59c9.35,0,17.86,8.53,17.86,17.91s-8.51,17.91-17.86,17.91S372,140.39,372,131s8.52-17.91,17.87-17.91Z" fill="#fff"></path></g><g id="path17185"><path d="M879.37,55.73a37.46,37.46,0,0,0-11.15,1.59,21.51,21.51,0,0,0-8.85,4.79,23,23,0,0,0-5.84,8.69,37.86,37.86,0,0,0-1.94,13V178.3h31.49V97.06a3.37,3.37,0,0,1,.89-2.49,2.89,2.89,0,0,1,2.12-.88,3.91,3.91,0,0,1,2.83,1.59l65.64,76.1a24.09,24.09,0,0,0,9.91,7.1,36.59,36.59,0,0,0,13.45,2.31,23.06,23.06,0,0,0,8.48-1.6,18.53,18.53,0,0,0,7.09-4.44,21.88,21.88,0,0,0,5-8,32,32,0,0,0,1.95-11.71V58.39H969.07v77.52c0,2.13-.83,3.19-2.48,3.19a6.44,6.44,0,0,1-1.59-.18,4.41,4.41,0,0,1-1.42-1.25L905.2,67.61q-5.67-6.55-11.5-9.22a34.36,34.36,0,0,0-14.33-2.67Z" fill="#fff"></path></g><g id="path17183"><path d="M136.22,58.3V178.21h32.2V58.3Z" fill="#fff"></path></g><g id="path17181"><path d="M186.75,58.3V90.05H239.3v88.16h32.2V90.05h52.37V58.3Z" fill="#fff"></path></g><g id="path17179"><path d="M479.64,58.3v80.88a68.86,68.86,0,0,0,1.94,17.22A29.58,29.58,0,0,0,488,168.63a29.15,29.15,0,0,0,12,7.28,65.1,65.1,0,0,0,18.58,2.3h86.87V147.53h-83c-4.13,0-7-.78-8.49-2.32s-2.12-4.67-2.12-9V58.3Z" fill="#fff"></path></g><g id="path17177"><path d="M624,58.3V178.21h32.2V58.3Z" fill="#fff"></path></g><g id="path17175"><path d="M1033.92,58.3c-5.3,0-8,2.48-8,7.44V178.21h32V135.64h55.73q7.08,0,10.09,2.48c2,1.65,3,4.37,3,8.16v23.95a58.13,58.13,0,0,0,.53,8h32.37c-.23-1.66-.4-3.31-.52-5V142.91q0-10.29-2.84-15.78a21.27,21.27,0,0,0-8.67-9.06,24.43,24.43,0,0,0,8.85-11A38.88,38.88,0,0,0,1159,93.24a31.36,31.36,0,0,0-2.66-12.77,33.13,33.13,0,0,0-6.89-10.82,35.66,35.66,0,0,0-12.21-8.16q-7.26-3.19-18.4-3.19Zm26.72,30h54c3.89,0,6.78,1.07,8.67,3.19a9.16,9.16,0,0,1,2.65,6.75,9.64,9.64,0,0,1-2.29,6.2,10.61,10.61,0,0,1-3.54,2.84,12.43,12.43,0,0,1-5.49,1.06H1058V90.94a2.35,2.35,0,0,1,2.66-2.66Z" fill="#fff"></path></g><g id="path17173"><path d="M1186.33,58.3c-5.19,0-8.11,2.49-7.78,7.44V178.21h32V148.06h55q13.8,0,23.17-4.27a44.74,44.74,0,0,0,15.57-11.88,45.3,45.3,0,0,0,7.61-13.3,43,43,0,0,0,2.83-15.43,44.08,44.08,0,0,0-3.54-17.39,45.39,45.39,0,0,0-9.73-14.54,42,42,0,0,0-14.68-9.41q-8.5-3.54-21.23-3.54Zm26.54,31.75h53.44a20.64,20.64,0,0,1,8.3,1.42,13.14,13.14,0,0,1,5.32,3.9,14.39,14.39,0,0,1,3,9,14,14,0,0,1-8.13,12.78,21.32,21.32,0,0,1-8.49,1.41h-55.74V92.53C1210.57,90.88,1211.33,90.05,1212.87,90.05Z" fill="#fff"></path></g><g id="path13311"><path d="M754.14,55.41q-12.92,0-21.23,5.5T719.47,77.58l-42.81,95.09c-.48.94-.89,1.82-1.25,2.65s-.47,1.71-.7,2.66h37a13,13,0,0,1,.53-2.13l.7-2.12L749,90a5.25,5.25,0,0,1,2.29-2.84,5.6,5.6,0,0,1,3-.88,5.91,5.91,0,0,1,3.19.88,6.36,6.36,0,0,1,2.3,2.84l36.45,83.9c.23.59.46,1.24.7,1.95s.48,1.3.72,2.13h36.08a17.28,17.28,0,0,0-.88-2.66,15.72,15.72,0,0,0-1.06-2.65L788.64,77.58Q783.51,66.42,775,60.91,766.71,55.42,754.14,55.41Z" fill="#fff"></path></g><path d="M1344,268.44H107V43.56H1344ZM109.56,265.88H1341.44V46.12H109.56Z" fill="#fff"></path><path d="M295.7,232.65H290v8.84h-5.69V219.38h28.46v13.27h-10l10,8.84h-7ZM290,223.8v4.43h17.08V223.8Z" fill="#fff"></path><path d="M341.24,241.49V219.38h28.47v22.11ZM364,237.07V223.8H346.94v13.27Z" fill="#fff"></path><path d="M398.17,241.49V219.38h22.77l5.7,4.42v13.27l-5.7,4.42Zm5.69-4.42H418.1l2.84-2.21v-8.64l-2.84-2.42H403.86Z" fill="#fff"></path><path d="M483.56,223.8H460.79v4.43h22.77v13.26H455.1v-4.42h22.77v-4.42H455.1V219.38h28.46Z" fill="#fff"></path><path d="M583.18,241.49v-4.42h5.52L583.18,226l-7.73,15.48H569l11.39-22.11H586l11.39,22.11Z" fill="#fff"></path><path d="M625.88,241.49V219.38h5.69l17.08,15.69V219.38h5.69v22.11h-5.69l-17.08-15.2v15.2Z" fill="#fff"></path><path d="M682.81,241.49V219.38h22.77l5.69,4.42v13.27l-5.69,4.42Zm5.69-4.42h14.23l2.85-2.21v-8.64l-2.85-2.42H688.5Z" fill="#fff"></path><path d="M802.36,241.49h-5.7V219.38h28.47v13.27H802.36Zm17.07-13.26V223.8H802.36v4.43Z" fill="#fff"></path><path d="M870.67,219.38v22.11H865V219.38Z" fill="#fff"></path><path d="M939,223.8H916.21v4.43H939v13.26H910.52v-4.42h22.77v-4.42H910.52V219.38H939Z" fill="#fff"></path><path d="M967.44,219.38h28.47v4.42H984.52v17.69h-5.69V223.8H967.44Z" fill="#fff"></path><path d="M1024.37,241.49V219.38h28.46v22.11Zm22.77-4.42V223.8h-17.08v13.27Z" fill="#fff"></path><path d="M1081.29,241.49V219.38h5.7l17.07,15.69V219.38h5.7v22.11h-5.7L1087,226.29v15.2Z" fill="#fff"></path><path d="M1166.68,223.8h-22.77v4.43h22.77v13.26h-28.46v-4.42H1161v-4.42h-22.77V219.38h28.46Z" fill="#fff"></path><rect fill="#fff" height="2.56" width="1234.44" x="108.28" y="192.93"></rect></svg>