<?xml version="1.0" encoding="UTF-8"?>
<svg id="Layer_1" xmlns="http://www.w3.org/2000/svg" version="1.1" viewBox="0 0 736.12 166.47">
  <!-- Generator: Adobe Illustrator 29.4.0, SVG Export Plug-In . SVG Version: 2.1.0 Build 152)  -->
  <defs>
    <style>
      .st0 {
        fill: #0082ae;
      }

      .st1 {
        fill: #b2d6e7;
      }

      .st2 {
        fill: #70b5d3;
      }

      .st3 {
        fill-rule: evenodd;
      }
    </style>
  </defs>
  <polygon points="208.52 96.67 277.78 167.41 232.16 167.41 182.54 115.5 169.07 128.83 131.65 128.83 131.65 128.82 155.81 36.8 189.83 36.8 180.21 75.63 180.18 75.77 257.23 -.41 299.95 -.41 205.13 93.21 208.52 96.67"/>
  <g>
    <path class="st3" d="M340.33,128.84h-68.73c-6.69,0-11.78-.23-15.25-.69-6.02-.92-10.03-2.88-12-5.88-1.98-3-1.55-10.73-.15-16.97h0c1.43-6.35,3.74-10.68,6.91-12.99,2.87-1.96,7.57-3.12,14.11-3.46,1.99-.11,7.13-.17,15.44-.17h36.01c.73-3.23.14-5.25-1.75-6.06-.93-.46-3.08-.69-6.42-.69h-55.05l4.38-19.39h64.58c6.58,0,11.65.29,15.21.86,6.05.81,10.06,2.72,12.04,5.71,2.09,3,2.43,7.62,1.03,13.85l-10.36,45.87ZM312.03,109.28l1.76-7.79h-33.93c-1.96,0-3.24,1.32-3.84,3.98-.57,2.54.12,3.81,2.08,3.81h33.93Z"/>
    <path class="st3" d="M405.59,128.84h-23.89c-6.58,0-11.77-.29-15.56-.86-5.91-.93-9.85-2.9-11.82-5.91-1.86-3.01-2.1-7.59-.72-13.74l14.7-65.35h32.72l-4.34,19.29h16.28l-4.93,21.9h-16.28l-4.18,18.6c-.39,1.74-.35,2.84.12,3.3.59.46,1.85.75,3.79.87h19.04l-4.93,21.9Z"/>
    <path class="st3" d="M497.26,62.54c6.11,0,11.19.29,15.21.86,4.02.58,7.12,1.67,9.3,3.29,2.31,1.5,3.75,3.58,4.3,6.23.58,2.54.4,5.89-.53,10.04h0c-.89,3.92-2.78,10.27-4.2,12.46-1.39,2.08-3.42,3.63-6.08,4.68-2.66,1.04-6.15,1.67-10.47,1.9-4.3.12-9.79.18-16.49.18h-35.84c-.68,3-.52,4.85.48,5.54,1,.69,3.52,1.04,7.56,1.04h55.05l-4.54,20.08h-64.57c-6.23,0-11.36-.29-15.39-.86-4.02-.58-7.14-1.62-9.34-3.12-2.2-1.5-3.58-3.58-4.14-6.23-.44-2.66-.17-6.12.79-10.39l5.75-25.45c.81-3.58,2.19-6.63,4.15-9.17,1.96-2.54,4.62-4.62,7.99-6.24,3.51-1.73,7.76-2.94,12.77-3.63,5.15-.81,41.19-1.21,48.23-1.21h0ZM489.15,89.19c1.96,0,3.19-1.1,3.69-3.29.47-2.08-.28-3.12-2.24-3.12h-32.2c-2.31,0-3.7,1.04-4.16,3.12-.5,2.19.41,3.29,2.72,3.29h32.2Z"/>
    <path class="st3" d="M609.69,128.84h-55.92c-6.81,0-12.11-.29-15.9-.86-5.79-.92-9.62-2.88-11.48-5.89-1.86-3-2.1-7.56-.72-13.68l5.75-25.45c1.35-6,3.64-10.5,6.86-13.5,3.22-3,7.93-4.96,14.14-5.89,4.08-.69,9.53-1.04,16.34-1.04h55.92l-4.93,21.81h-52.8c-2.18.46-3.54,1.91-4.09,4.33l-3.21,14.2c-.55,2.42.12,3.81,2.01,4.15h52.98l-4.93,21.81Z"/>
    <path class="st3" d="M723.06,128.84h-32.55l9.07-40.16c.55-2.42-.17-3.86-2.14-4.33h-32.72c-2.18.46-3.55,1.91-4.09,4.33l-9.07,40.16h-32.72l19.4-85.86h32.72l-5.75,25.44c3.08-3.92,7.68-5.88,13.8-5.88h26.14c7.62,0,13.14.35,16.56,1.04,10.34,1.73,14.25,8.19,11.72,19.39l-10.36,45.87Z"/>
  </g>
  <polygon class="st0" points="315.55 143.09 314.25 149.96 329.55 149.96 328.53 155.35 313.23 155.35 311.98 162.02 330.12 162.02 329.1 167.41 303.86 167.41 309.48 137.7 334.71 137.7 333.7 143.09 315.55 143.09"/>
  <polygon class="st0" points="379.91 137.7 374.31 167.41 365.57 167.41 356.27 145.99 352.22 167.41 345.43 167.41 351.04 137.7 359.72 137.7 369.01 159.46 373.12 137.7 379.91 137.7"/>
  <path class="st0" d="M406.54,150.83h13.06l-1.1,5.69c-.42,2.19-1.36,4.1-2.82,5.74-1.46,1.64-3.29,2.9-5.51,3.8s-4.71,1.35-7.48,1.35-5.13-.42-7.05-1.27c-1.92-.85-3.3-2.04-4.15-3.58-.85-1.54-1.08-3.34-.68-5.4l1.66-8.59c.42-2.19,1.36-4.1,2.81-5.73,1.45-1.63,3.29-2.89,5.51-3.79s4.71-1.35,7.48-1.35c2.28,0,4.29.36,6.02,1.08,1.73.72,3.12,1.73,4.15,3.02,1.03,1.29,1.6,2.81,1.72,4.54h-7.67c-.2-.95-.81-1.68-1.84-2.19-1.03-.51-2.19-.77-3.47-.77-1.92,0-3.55.47-4.89,1.42-1.34.95-2.16,2.2-2.46,3.76l-1.66,8.59c-.27,1.37.12,2.48,1.15,3.31,1.03.83,2.52,1.25,4.47,1.25s3.54-.45,4.87-1.35c1.33-.9,2.15-2.16,2.46-3.77l.09-.48h-5.7l1.02-5.29Z"/>
  <path class="st0" d="M443.85,137.7l-5.61,29.71h-7.36l5.61-29.71h7.36Z"/>
  <polygon class="st0" points="489.04 137.7 483.43 167.41 474.7 167.41 465.4 145.97 461.35 167.41 454.57 167.41 460.17 137.7 468.86 137.7 478.15 159.48 482.25 137.7 489.04 137.7"/>
  <polygon class="st0" points="511.45 143.09 510.15 149.96 525.44 149.96 524.42 155.35 509.13 155.35 507.88 162.02 526.01 162.02 524.99 167.41 499.76 167.41 505.37 137.7 530.6 137.7 529.59 143.09 511.45 143.09"/>
  <polygon class="st0" points="553.01 143.09 551.72 149.96 567 149.96 565.99 155.35 550.7 155.35 549.43 162.02 567.58 162.02 566.56 167.41 541.32 167.41 546.93 137.7 572.17 137.7 571.15 143.09 553.01 143.09"/>
  <path class="st0" d="M613.33,141.91c-.61-1.33-1.62-2.37-3.05-3.11-1.42-.74-3.18-1.1-5.27-1.1h-16.5l-5.62,29.71h7.1l2.26-11.94h4.3l6.24,11.94h8.61l-6.69-12.23c.92-.19,1.8-.47,2.63-.82,1.69-.74,3.1-1.77,4.22-3.11,1.13-1.33,1.85-2.89,2.19-4.67.35-1.79.21-3.34-.41-4.67ZM606.45,146.58c-.22,1.05-.73,1.89-1.5,2.53-.79.64-1.73.96-2.84.96h-8.83l1.32-6.99h8.83c1.12,0,1.95.32,2.5.96.54.64.71,1.48.52,2.53Z"/>
  <path class="st0" d="M637.62,137.7l-5.61,29.71h-7.36l5.61-29.71h7.36Z"/>
  <polygon class="st0" points="682.81 137.7 677.2 167.41 668.47 167.41 659.17 145.97 655.13 167.41 648.34 167.41 653.94 137.7 662.63 137.7 671.92 159.48 676.02 137.7 682.81 137.7"/>
  <path class="st0" d="M709.45,150.83h13.06l-1.1,5.69c-.42,2.19-1.36,4.1-2.82,5.74-1.46,1.64-3.29,2.9-5.51,3.8s-4.71,1.35-7.48,1.35-5.13-.42-7.05-1.27c-1.92-.85-3.3-2.04-4.15-3.58-.85-1.54-1.08-3.34-.68-5.4l1.66-8.59c.42-2.19,1.36-4.1,2.81-5.73,1.45-1.63,3.29-2.89,5.51-3.79s4.71-1.35,7.48-1.35c2.28,0,4.29.36,6.02,1.08,1.73.72,3.12,1.73,4.15,3.02,1.03,1.29,1.6,2.81,1.72,4.54h-7.67c-.2-.95-.81-1.68-1.84-2.19-1.03-.51-2.19-.77-3.47-.77-1.92,0-3.55.47-4.89,1.42-1.34.95-2.16,2.2-2.46,3.76l-1.66,8.59c-.27,1.37.12,2.48,1.15,3.31,1.03.83,2.52,1.25,4.47,1.25s3.54-.45,4.87-1.35c1.33-.9,2.15-2.16,2.46-3.77l.09-.48h-5.7l1.02-5.29Z"/>
  <g>
    <polygon class="st0" points="187.47 62.49 194.79 32.93 176.65 32.93 210.4 -.41 251.16 -.41 187.47 62.49"/>
    <polygon class="st1" points="169.66 -.41 38.8 128.84 -1.95 128.84 128.92 -.41 169.66 -.41"/>
    <polygon class="st0" points="127.55 128.84 79.54 128.84 144.48 64.72 127.55 128.84"/>
    <polygon class="st2" points="79.54 128.84 38.8 128.84 169.65 -.41 210.4 -.41 176.65 32.93 152.83 32.93 144.5 64.68 144.5 64.7 144.48 64.7 144.48 64.72 79.54 128.84"/>
  </g>
</svg>