<?xml version="1.0" encoding="utf-8"?>
<!-- Generator: Adobe Illustrator 27.3.1, SVG Export Plug-In . SVG Version: 6.00 Build 0)  -->
<svg version="1.1" id="Warstwa_1" xmlns="http://www.w3.org/2000/svg" xmlns:xlink="http://www.w3.org/1999/xlink" x="0px" y="0px"
	 viewBox="0 0 254 30" style="enable-background:new 0 0 254 30;" xml:space="preserve"
	 fill="#fff">
<g>
	<rect x="7.8" y="7" width="11.7" height="0.8"/>
	<g>
		<path d="M162.2,26.6l-8.5-19.1h-0.9l-1.4,3.2l-7.1,16c-0.7,1.5-2.2,2.6-3.9,2.6V30h2.5h0.4h0.2h0.3h3.2v-0.8
			c-1.3,0-2.2-1.3-1.7-2.6l2.2-4.9h9l2.2,4.9c0.6,1.2-0.4,2.6-1.7,2.6V30h3.2h0.5h2.8h0.4h2.5v-0.8
			C164.4,29.1,162.9,28.1,162.2,26.6z M147.7,20.9l4.2-9.3l4.2,9.3H147.7z"/>
		<path d="M191.5,7.4h-2.8v0.8c1.5,0,2.8,1.3,2.8,2.8v13.4l-13.3-17h-0.8h-1.8H175h-0.2h-0.6h-0.3H172v0.8c0.9,0,1.7,0.4,2.2,1.1
			v2.6v14.4c0,1.5-1.3,2.8-2.8,2.8l0,0v0.8h2.8h0.6h0.2h0.6h2.2v-0.8c-0.9,0-1.7-0.4-2.2-1.1v-2.6V9.6l15.9,20.3l0,0h0.8v-4.5V11
			c0-1.5,1.3-2.8,2.8-2.8V7.4h-2.8L191.5,7.4L191.5,7.4z"/>
		<path d="M107.9,7.4h-0.2h-0.2h-3.4v0.8c1.2,0,1.8,1.3,1.1,2.2l-5.8,7.5l-5.8-7.5c-0.7-0.9-0.1-2.2,1.1-2.2V7.4h-3.4h-2.1h-1.6
			h-0.6H85v0.8c1.6,0,3.1,0.8,4.1,2l6.5,8.3c0.6,0.8,0.9,1.7,0.9,2.6v5.2c0,1.5-1.3,2.8-2.8,2.8v0.8h2.8h3.4h2.8v-0.8
			c-1.5,0-2.8-1.3-2.8-2.8v-6.4c0-0.9,0.3-1.7,0.8-2.5l5.5-7c1.1-1.4,2.8-2.2,4.5-2.2V7.4h-2.2H107.9z"/>
		<path d="M223.8,7.4h-0.2h-0.2H220v0.8c1.2,0,1.8,1.3,1.1,2.2l-5.8,7.5l-5.8-7.5c-0.7-0.9-0.1-2.2,1.1-2.2V7.4h-3.4H205h-1.6h-0.6
			h-1.9v0.8l0,0c1.6,0,3.1,0.8,4.1,2l6.5,8.3c0.6,0.8,0.9,1.7,0.9,2.6v5.2c0,1.5-1.3,2.8-2.8,2.8v0.8h2.8h3.4h2.8v-0.8
			c-1.5,0-2.8-1.3-2.8-2.8v-6.4c0-0.9,0.3-1.7,0.8-2.5l5.5-7c1.1-1.4,2.8-2.2,4.5-2.2V7.4h-2.2H223.8z"/>
		<path d="M48.6,26.9l-8.5-10.8l0.8-1.1l3.6-4.6c0.1-0.2,0.3-0.4,0.4-0.5c0.9-1,2.1-1.5,3.5-1.7c0.2,0,0.4,0,0.7,0V7.4h-2.2h-0.6
			h-0.2H46h-3.4v0.8c0.3,0,0.6,0.1,0.8,0.2c0.1,0.1,0.2,0.2,0.3,0.2s0.2,0.2,0.2,0.3c0.1,0.2,0.1,0.4,0.1,0.5c0,0.2,0,0.4-0.1,0.6
			c0,0.1-0.1,0.2-0.2,0.4l-4,5l-2.1,2.7l-3.9,5V11c0-1.5,1.3-2.8,2.8-2.8V7.4h-2.8h-3.4h-2.8v0.8c1.5,0,2.8,1.3,2.8,2.8v15.3
			c0,1.5-1.3,2.8-2.8,2.8v0.8h2.8h3.4h2.8v-0.8c-1.5,0-2.8-1.3-2.8-2.8v-1.8l1.4-1.8l0,0l3-3.8l8.7,11.1h3.7h0.6h2.2v-0.8
			C51.3,29.1,49.7,28.3,48.6,26.9z"/>
		<path d="M65.1,7.4h-3.4l0,0h-2.8v0.8l0,0c1.5,0,2.8,1.3,2.8,2.8v15.3c0,1.5-1.3,2.8-2.8,2.8l0,0v0.8h2.8l0,0h3.4h2.8h11.3v-0.8
			v-4.3h-0.8c0,2.4-1.9,4.3-4.3,4.3h-6.2h-2.8V19h2.2h1.9c1.5,0,2.8,1.3,2.8,2.8h0.8V19v-0.8l0,0v-2.8H72c0,1.5-1.3,2.8-2.8,2.8
			h-4.1V8.2h2.8h6.2c2.4,0,4.3,1.9,4.3,4.3h0.8V8.2V7.4H67.9L65.1,7.4L65.1,7.4z"/>
		<path d="M143.1,0h-1h-1.4h-0.4h-0.2h-0.3h-3.2v0.8c1.3,0,2.2,1.3,1.7,2.6l-9.9,22.4l-9.9-22.4c-0.6-1.2,0.4-2.6,1.7-2.6V0H117
			h-0.5h-2.8h-0.4h-0.2h-2.3H0v0.8h110.8c1.7,0,3.3,1,4,2.6L126.6,30h0.9l1.4-3.2l10.4-23.4c0.7-1.5,2.2-2.6,3.9-2.6H254V0H143.1z"
			/>
	</g>
	<rect x="234.4" y="7.4" width="11.7" height="0.8"/>
</g>
</svg>
