<?xml version="1.0" encoding="utf-8"?>
<!-- Generator: Adobe Illustrator 24.0.0, SVG Export Plug-In . SVG Version: 6.00 Build 0)  -->
<svg version="1.1" id="Layer_1" xmlns="http://www.w3.org/2000/svg" xmlns:xlink="http://www.w3.org/1999/xlink" x="0px" y="0px"
	 viewBox="0 0 103.3 50.4" style="enable-background:new 0 0 103.3 50.4;" xml:space="preserve">
<style type="text/css">
	.st0{fill:#F32735;}
	.st1{fill:#FF671D;}
	.st2{fill:#FFF;}
</style>
<g>
	<polygon class="st2" points="85.9,26.1 75.8,26.1 71.3,38.7 67.9,26.1 63.1,26.1 63.1,26.1 52.3,26.1 42.7,50.2 54.5,50.2 60.2,34.2 64.7,50.2 
		74.5,50.2 74.5,50.2 76.4,50.2 	"/>
	<polygon class="st2" points="74.8,0.2 64.7,0.2 54.9,12 59.3,0.2 48,0.2 38.5,24.3 50.1,24.3 54.1,14.1 57.1,24.3 67.4,24.3 64.3,12.8 	"/>
	<path class="st2" d="M98.3,13.5c-1.7,0-2.8,1.3-3.1,2.1c0.2-0.1,0.8-0.3,1.5-0.3c0.9,0,1.5,0.6,1.5,1.1s-0.3,1.1-1.1,1.1
		c-2.1,0-4.6-5.5-10.8-5.5c-3.8,0-5.1,1.3-5.1,2.9c0,1.3,1.1,2.1,2.7,2.1c1.3,0,2.3-0.8,2.4-1.7c0.3,0.1,0.6,0.5,0.6,1.1
		c0,1.1-1.5,2.4-4.4,2.4c-2.6,0-4.4-1.5-4.4-3.4c0-1.6,1.4-3,4.3-3.7c1.3-0.3,2.3-0.8,2.7-1.3c-1.4-0.3-2.9-1.2-2.9-2.9
		c0-1.5,1.3-2.8,3.1-2.8c1.4,0,2.6,0.6,2.9,1c-1.2,0-2.2,0.8-2.2,1.8c0,1.1,0.7,2.1,2.8,2.1c1.9,0,3.2-1.4,3.2-3.3
		c0-3.3-3.5-6-9.2-6c-5.7,0-8.5,2.4-8.5,6c0,0.7,0.3,1.6,0.8,2.4c-4.1,1.3-7,4.1-7,8.1c0,5.7,4.4,7.6,11.6,7.6
		c4.5,0,8.5-1.9,10.4-4.6c1.6,2.5,3.5,4.8,7.2,4.8c4.1,0,5.8-2.9,5.8-6.1C103,14.6,100.2,13.5,98.3,13.5z"/>
	<g>
		<polygon class="st0" points="50.2,26.1 9.9,26.1 0.4,50.2 40.7,50.2 		"/>
		<polygon class="st1" points="45.9,0.2 9.9,0.2 0.4,24.3 36.4,24.3 		"/>
	</g>
	<path class="st2" d="M79.7,48.9h-0.5l0.1-0.3h1.4l-0.1,0.3H80l-0.5,1.4h-0.3L79.7,48.9z"/>
	<path class="st2" d="M82.6,48.6L82,50.2h-0.3l0.4-1.1l-0.8,0.9h-0.1l-0.2-0.9l-0.4,1.1h-0.3l0.6-1.6h0.2l0.3,1.1l1-1.1H82.6z"/>
</g>
</svg>
