<?xml version="1.0" encoding="utf-8"?>
<!-- Generator: Adobe Illustrator 19.2.1, SVG Export Plug-In . SVG Version: 6.00 Build 0)  -->
<svg version="1.1" id="layer" xmlns="http://www.w3.org/2000/svg" xmlns:xlink="http://www.w3.org/1999/xlink" x="0px" y="0px"
	 viewBox="-120 60 820 490" style="enable-background:new -120 60 820 490;" xml:space="preserve">
<style type="text/css">
	.st0{fill:#FFFFFF;}
	.st1{fill:#FDB913;}
	.st2{fill:#6F2C91;}
	.st3{fill:none;stroke:#FDB913;stroke-width:3.4139;}
</style>
<g>
	<path d="M74.2,200.2c-5.1-1-10-1.8-14.9-2.5c-4,3.9-8.1,8.1-12.4,12.4c-7.4,7.7-14.2,15.2-20.3,22.8c5.4,0.6,10.7,1.3,16,2.3
		c14.1,2.5,25.6,5.9,35.7,9.8c12.8-12,26.4-22,39.3-31.6C105.4,208,91.5,203.4,74.2,200.2"/>
	<path d="M175.6,117.2c-1.9-14.2-7.2-26.7-13.4-37.7c-26-3.6-50.6-5.8-73.6-6.9c6.6,9.7,12.6,20.7,15.7,32.2
		C128.3,107.4,150.7,111.4,175.6,117.2"/>
	<path d="M172.3,153.4c-21.8-6.8-44.8-12.7-67.9-17c-3.1,11.7-8.8,21.5-16.3,30.9c25.6,5,45.2,10.1,64.1,17.4
		C161.2,175.5,168.3,165.4,172.3,153.4"/>
	<path d="M290.3,146.9c0.3-17.1-3.5-33.8-8.2-48.4c-17.5-2.2-35.9-5.2-55.1-8.4c5.4,13.4,9.8,28.1,10.3,43.8
		C253.4,138.5,271.3,143.2,290.3,146.9"/>
	<path d="M221.8,188.7c-5,8-11.2,15-18.2,21.5c12.4,6.8,27.5,14.6,45.8,21.3c15.5-15.7,23.8-28.9,29-39.9
		c-16.9-5.1-33.1-11.4-48.9-17.6C227.4,178.8,224.9,183.7,221.8,188.7"/>
	<path d="M-4.8,192.5c-29.5,0-52.6,3.5-70.3,6.9c-5.3,14-10.9,28-15.4,41.1c15.4-3.2,35.7-6.6,58-8.3
		C-23.9,216.7-14.4,205.7-4.8,192.5"/>
	<path d="M15.9,158.8c1.4-2.9,2.9-6,4.3-9.3c3.2-7.3,5.1-14.1,6.1-20.4c-30.4,0.2-61.4,3.2-82.4,5.7c-0.1,2.1-0.4,4.4-0.8,6.7
		c-1.4,7.3-3.4,15-5.8,22.9C-42.8,161.7-13.9,158.5,15.9,158.8"/>
	<path d="M5,73.2c-41.1,2.6-71.2,8-86.7,11.2c2.9,4.3,13.1,12,19.8,24.3c19.9-3.7,48.2-7.6,85.4-7.9C19.4,90.1,12.5,81.1,5,73.2"/>
	<path d="M162.8,239.6c-11.7,7.5-23.8,15.2-35.3,24.1c-1.8,1.4-3.6,2.9-5.3,4.4c14.6,8.8,30.3,17.8,53,25.5
		c8.5-8.8,19.7-18.4,34.6-29.2c-10.6-4-19.2-8.1-25.8-11.8C176.5,248.4,169.6,244.1,162.8,239.6"/>
	<path class="st0" d="M229.5,174c15.9,6.2,32.1,12.5,49,17.6c2.3-4.8,4.1-9.2,5.6-13.1c4.1-10.4,5.9-21.1,6.2-31.5
		c-18.9-3.7-36.9-8.4-53.1-13C237.6,146.6,235.5,160,229.5,174"/>
	<path class="st0" d="M105.7,130.7c-0.4,2-0.8,3.9-1.3,5.8c23.1,4.3,46.1,10.2,67.9,17c0.6-1.9,1.2-3.9,1.7-5.9
		c2.5-10.9,2.8-21,1.6-30.3c-24.8-5.8-47.3-9.8-71.3-12.4C106.6,113.2,107.3,121.9,105.7,130.7"/>
	<path class="st0" d="M23.4,100.8c-37.2,0.3-65.5,4.3-85.4,7.9c3.9,7.1,6.5,15.8,5.9,26.2c21-2.5,52-5.5,82.4-5.7
		C27.9,118.5,26.5,109.1,23.4,100.8"/>
	<path class="st0" d="M162.8,239.6c6.8,4.4,13.7,8.8,21.2,13c6.6,3.6,15.2,7.7,25.8,11.8c1-0.7,2-1.5,3.1-2.3
		c15.4-11.1,27.3-21.3,36.6-30.6c-18.3-6.7-33.4-14.5-45.8-21.3C191.8,221,177.6,230.2,162.8,239.6"/>
	<path class="st0" d="M117.5,213.3c12.8-9.5,24.9-18.6,34.7-28.6c-18.8-7.3-38.4-12.4-64.1-17.4c-8,10.1-18,19.6-28.9,30.3
		c4.9,0.8,9.8,1.6,14.9,2.5C91.5,203.4,105.4,208,117.5,213.3"/>
	<path class="st0" d="M-4.8,192.5c6.9-9.4,13.9-19.8,20.7-33.7c-29.8-0.3-58.7,2.9-78.7,5.6c-3.5,11.4-7.8,23.2-12.3,35
		C-57.4,196.1-34.3,192.6-4.8,192.5"/>
	<path class="st0" d="M-43.5,256.3c3.4-9.3,7.1-17.1,11-24c-22.3,1.7-42.5,5-58,8.3c-0.8,2.4-1.6,4.7-2.4,6.9
		c-4.6,13.9-7.4,27.3-8.9,40.2c12.7-5,28.8-9.5,51.4-11.2C-48.4,269.9-46.1,263.2-43.5,256.3"/>
	<path d="M357,247.1c10.8-18,16.6-31,20.5-45.8c-6.7,0.7-13.3,1.3-19.7,1.6c-10.8,0.5-21.2,0-31.4-1.1
		c-6.5,14.4-14.7,28.2-25.9,42.7C317.4,247,336.2,248.1,357,247.1"/>
	<path class="st0" d="M357,247.1c18.6-0.9,38.8-3.5,60.8-8.4c5.6-16.1,9-31.8,10.7-46.8c-15.9,4.1-33.6,7.5-51,9.4
		C373.7,216,367.8,229.1,357,247.1"/>
	<path d="M384.1,151.7c-0.2-21.1-5.2-39.2-10.6-54.2c-4.3,0.8-9.1,1.6-14.7,2.4c-9.1,1.3-18.5,1.9-28.3,1.9
		c4.8,16.1,8.8,33.7,8.5,51.5C354.1,154.1,369.2,153.8,384.1,151.7"/>
	<path class="st0" d="M427.6,139.9c-3.2-21-9.6-39.5-17.7-54.4c-14.5,6.3-23.1,9.4-36.4,12c5.4,15.1,10.5,33.1,10.6,54.2
		C399,149.7,413.6,145.9,427.6,139.9"/>
	<path d="M332.4,285.2c-23.5,0.2-45-1.8-64.1-5.1c-5,4.9-10.3,10-16,15.2c-5.3,4.9-10,9.9-13.9,14.9c22.9,4.6,47.2,7.6,73.2,8
		C316.7,309.1,323.6,298.5,332.4,285.2"/>
	<path class="st0" d="M311.5,318.3c23.9,0.4,49.2-1.4,76.2-6.3c3.5-11.7,8.2-23.1,12.8-33.3c-24.1,4.4-46.9,6.3-68,6.5
		C323.6,298.5,316.7,309.1,311.5,318.3"/>
	<path class="st0" d="M357.8,202.8c6.4-0.3,13-0.8,19.7-1.6c2.4-9.4,4.1-19.5,5.6-32c0.7-6.1,1-11.9,1-17.6
		c-14.9,2.1-30,2.4-45.1,1.6c-0.2,9.4-1.5,18.8-4.7,28.1c-2.4,7-5,13.8-8,20.4C336.5,202.9,347,203.3,357.8,202.8"/>
	<path d="M383.1,169.3c-1.5,12.5-3.2,22.6-5.6,32c17.4-2,35.1-5.3,51-9.4c2.1-18.4,1.5-35.9-0.9-51.9c-14,6-28.6,9.8-43.5,11.8
		C384.2,157.4,383.8,163.2,383.1,169.3"/>
	<path class="st0" d="M332.4,285.2c2.3-3.4,4.7-7.1,7.2-10.9c6.9-10.4,12.6-19.3,17.3-27.2c-20.8,1-39.6-0.1-56.6-2.6
		c-8.7,11.2-19.2,22.9-32.2,35.6C287.4,283.4,309,285.4,332.4,285.2"/>
	<path d="M339.7,274.3c-2.5,3.8-4.9,7.5-7.2,10.9c21.2-0.2,43.9-2.1,68-6.5c5.2-11.6,10.2-21.5,12.9-28.1c1.6-4,3.1-7.9,4.5-11.9
		c-22,4.9-42.2,7.5-60.8,8.4C352.3,255,346.6,263.9,339.7,274.3"/>
	<path class="st0" d="M311.5,318.3c-26-0.4-50.3-3.5-73.2-8c-8,10.2-13.2,20.8-15.7,31.4c24,4.2,49.5,7.1,77.3,7.5
		C301.1,339.5,304.9,330.1,311.5,318.3"/>
	<path d="M311.5,318.3c-6.6,11.8-10.4,21.2-11.6,31c25.4,0.4,52.7-1.2,82.5-5.8c0-10.1,2.1-20.9,5.3-31.5
		C360.7,316.9,335.4,318.7,311.5,318.3"/>
	<path class="st0" d="M78.2,244.9c-10.1-3.9-21.6-7.3-35.7-9.8c-5.3-0.9-10.6-1.7-16-2.3C15.2,246.9,6,261.2-0.8,276.9
		c4,0.3,8,0.7,12.2,1.1c12.6,1.3,24.5,4,36.2,7.6c5.2-11.5,12.6-22.4,22.2-32.5C72.6,250.3,75.4,247.5,78.2,244.9"/>
	<path class="st0" d="M122.2,268.1c-10.5,9.4-19.5,21.7-25.3,36.2c17.4,7.2,35.9,14.8,56.9,21.3c3.6-9.9,9.9-20.1,21.3-31.9
		C152.5,285.9,136.7,276.9,122.2,268.1"/>
	<path class="st0" d="M88.1,167.3c7.4-9.4,13.2-19.2,16.3-30.9c-14.6-2.7-29.3-4.8-43.7-6.1c-11-0.9-22.6-1.3-34.4-1.2
		c-0.9,6.3-2.9,13.1-6.1,20.4c-1.4,3.3-2.9,6.3-4.3,9.3c15.7,0.1,31.6,1.2,46.6,3.8C71.8,164.2,80.2,165.8,88.1,167.3"/>
	<path class="st0" d="M26.6,232.8c6.1-7.6,12.9-15.1,20.3-22.8c4.2-4.4,8.4-8.5,12.4-12.4c-24.1-3.7-45.4-5.1-64.1-5.1
		c-9.6,13.1-19.1,24.2-27.7,39.7C-13.6,230.8,6.7,230.7,26.6,232.8"/>
	<path class="st0" d="M44.4,101c22.1,0.6,41.4,1.8,59.9,3.8c-3.1-11.5-9.1-22.5-15.7-32.2C57.4,71.1,29.3,71.7,5,73.2
		c7.5,7.9,14.4,16.8,18.4,27.6C30.1,100.7,37.1,100.8,44.4,101"/>
	<path d="M60.7,130.4c14.4,1.2,29.1,3.3,43.7,6.1c0.5-1.9,0.9-3.8,1.3-5.8c1.6-8.8,0.8-17.5-1.4-25.9c-18.5-2-37.8-3.2-59.9-3.8
		c-7.3-0.2-14.3-0.3-21-0.2c3.1,8.3,4.4,17.7,2.9,28.4C38,129.1,49.7,129.4,60.7,130.4"/>
	<path d="M88.1,167.3c-7.9-1.5-16.4-3.1-25.6-4.7c-15-2.6-31-3.7-46.6-3.8c-6.9,13.9-13.8,24.4-20.7,33.7c18.7,0,40,1.4,64.1,5.1
		C70.2,186.9,80.2,177.4,88.1,167.3"/>
	<path d="M-32.5,232.3c-3.8,6.9-7.5,14.7-11,24c-2.6,7-4.9,13.7-6.9,20.2c13.8-1.1,30.1-1.1,49.5,0.4c6.8-15.7,16-30,27.4-44.1
		C6.7,230.7-13.6,230.8-32.5,232.3"/>
	<path class="st0" d="M162.8,239.6c-14.1-9.2-27.7-18.6-45.3-26.3c-12.9,9.6-26.5,19.6-39.3,31.6c17,6.6,30,14.8,43.9,23.2
		c1.7-1.6,3.5-3,5.3-4.4C139,254.8,151.1,247.1,162.8,239.6"/>
	<path class="st0" d="M188.8,202c4.5,2.4,9.4,5.2,14.8,8.2c7-6.4,13.2-13.5,18.2-21.5c3.1-5,5.6-9.9,7.7-14.7c-6-2.4-12-4.7-18-7
		c-12.4-4.7-25.6-9.3-39.3-13.6c-4,12-11.1,22.1-20.1,31.3C164.2,189.4,176,194.9,188.8,202"/>
	<path class="st0" d="M195.4,122.1c11.6,3,25.8,7.3,41.8,11.8c-0.5-15.7-4.9-30.4-10.3-43.8c-16-2.7-32.5-5.6-49.5-8.3
		c-5.1-0.8-10.2-1.6-15.2-2.3c6.2,11,11.5,23.5,13.4,37.7C182,118.7,188.6,120.3,195.4,122.1"/>
	<path d="M174,147.5c-0.5,2-1.1,4-1.7,5.9c13.7,4.3,26.9,8.8,39.3,13.6c6,2.3,11.9,4.6,18,7c6-14,8.1-27.4,7.7-40.1
		c-16-4.5-30.2-8.9-41.8-11.8c-6.8-1.8-13.4-3.4-19.8-4.9C176.8,126.6,176.5,136.7,174,147.5"/>
	<path d="M152.2,184.7c-9.8,10-21.9,19.1-34.7,28.6c17.6,7.8,31.2,17.1,45.3,26.3c14.7-9.5,28.9-18.6,40.8-29.4
		c-5.4-3-10.4-5.8-14.8-8.2C176,194.9,164.2,189.4,152.2,184.7"/>
	<path d="M122.2,268.1c-14-8.4-26.9-16.6-43.9-23.2c-2.8,2.6-5.6,5.4-8.4,8.2c-9.7,10.1-17,21-22.2,32.5c16.3,5,32.3,11.6,49.2,18.7
		C102.7,289.8,111.6,277.5,122.2,268.1"/>
	<path d="M-50.4,276.5c-22.6,1.7-38.7,6.2-51.4,11.2c-2.1,18.2-1.4,35.3,1.2,51.2c11.7-4.8,26-9.5,42.9-12.3
		C-58.3,309.5-55.5,293.5-50.4,276.5"/>
	<path class="st0" d="M-45.5,380.4c-7.9-20.1-11.6-37.4-12.2-53.8c-16.9,2.8-31.1,7.5-42.9,12.3c3.2,19.9,9.5,37.9,17.1,53.3
		C-69.3,386.8-57,382.9-45.5,380.4"/>
	<path d="M-11.1,324.1c7.6,0.4,15.4,1.3,23.7,2.6c8.6,1.4,16.9,3,25,4.7c0.3-15.9,3.5-31.4,10.1-45.8c-11.7-3.6-23.6-6.3-36.2-7.6
		c-4.2-0.4-8.3-0.8-12.2-1.1c-3.4,7.8-6.2,16-8.4,24.6C-10.9,308.1-11.4,315.8-11.1,324.1"/>
	<path class="st0" d="M37.5,331.5c-8.1-1.7-16.4-3.3-25-4.7c-8.2-1.3-16.1-2.2-23.7-2.6c0.5,16.9,4.2,36.1,7.8,52.1
		c4.3,0.1,8.7,0.3,13.3,0.6c12.5,0.9,24.2,2,35.3,3.2C39.9,363.6,37.2,347.3,37.5,331.5"/>
	<path d="M89.8,344.7c19.6,5.4,39.3,11,60.6,16c-0.7-4.3-1-8.7-0.8-13.1c0.4-7.4,1.4-14.5,4.1-21.9c-21.1-6.5-39.5-14.1-56.9-21.3
		C92,316.3,89.4,329.9,89.8,344.7"/>
	<path class="st0" d="M89.8,344.7c0.4,13.4,3.3,27.7,9.5,42.8c22.5,3.6,43,7.2,63.3,10c0.4,0.1,5.9,0.7,6.3,0.8
		c-5.9-11.6-16.4-24.6-18.5-37.6C129.1,355.7,109.4,350.1,89.8,344.7"/>
	<path d="M222.9,372.8c26.1,2.7,53.2,4,79.6,3.8c-1-3-1.9-6.1-2.3-9.2c-0.9-6.6-1.1-12.5-0.3-18.2c-27.8-0.4-53.3-3.3-77.3-7.6
		C220.2,352,220.3,362.4,222.9,372.8"/>
	<path class="st0" d="M222.9,372.8c2.7,10.6,7.9,21.2,15.6,31.6c26.4,1.3,53.5,1.2,81.5-0.5c-6.7-7.2-13.7-16.7-17.5-27.3
		C276.1,376.8,249,375.6,222.9,372.8"/>
	<path class="st0" d="M300.3,367.5c0.4,3.2,1.3,6.2,2.3,9.2c30.8-0.1,60.6-2.2,86.9-5.8c-2-3.5-3.7-7.4-5-11.6
		c-1.5-5-2.1-10.3-2.1-15.8c-29.8,4.5-57.1,6.2-82.5,5.8C299.2,355,299.3,360.9,300.3,367.5"/>
	<path d="M320.1,404c28.4-1.7,57.6-5.1,88.1-10.7c-5.4-5.2-13.1-12.6-18.7-22.4c-26.3,3.6-56.1,5.6-86.9,5.8
		C306.3,387.3,313.3,396.8,320.1,404"/>
	<path class="st0" d="M-57.7,326.6c13.8-2.3,29.3-3.4,46.6-2.4c-0.3-8.3,0.2-16.1,1.9-22.6c2.2-8.7,5-16.8,8.4-24.6
		c-19.4-1.5-35.7-1.5-49.5-0.4C-55.5,293.5-58.3,309.5-57.7,326.6"/>
	<path d="M-57.7,326.6c0.6,16.4,4.3,33.7,12.2,53.8c14.7-3.3,28.1-4.4,42.1-4.2c-3.6-15.9-7.2-35.2-7.8-52.1
		C-28.4,323.1-43.9,324.2-57.7,326.6"/>
	<path class="st0" d="M89.8,344.7c-0.5-14.8,2.2-28.4,7-40.4c-17-7-32.9-13.7-49.2-18.7c-6.6,14.5-9.9,29.9-10.1,45.9
		C55.6,335.3,72.7,339.9,89.8,344.7"/>
	<path d="M37.5,331.5c-0.3,15.8,2.4,32.1,7.7,48.6c19.7,2.2,37.5,4.8,54.2,7.4c-6.1-15.1-9.1-29.4-9.5-42.8
		C72.7,339.9,55.6,335.3,37.5,331.5"/>
	<path class="st0" d="M150.5,360.6c18.3,4.3,37.9,8,59.6,10.8c4.3,0.5,8.6,1,12.9,1.5c-2.6-10.4-2.7-20.9-0.3-31.1
		c-17.2-3-33.6-6.7-49.6-10.8c-6.6-1.7-13-3.5-19.2-5.4c-2.7,7.4-3.7,14.6-4.1,21.9C149.5,351.9,149.8,356.3,150.5,360.6"/>
	<path d="M210,371.4c-21.7-2.7-41.2-6.5-59.6-10.8c2,12.9,12.6,26,18.5,37.6c24.3,3.3,44.1,5.1,69.7,6.3c-7.8-10.4-13-21-15.6-31.6
		C218.6,372.4,214.3,371.9,210,371.4"/>
	<path class="st0" d="M278.5,191.6c-5.3,11-13.5,24.2-29,39.9c14.8,5.4,31.7,10.1,51,13c11.2-14.5,19.5-28.2,25.9-42.7
		C309.7,199.9,293.8,196.2,278.5,191.6"/>
	<path class="st0" d="M290.3,146.9c15.8,3.1,32.2,5.4,48.8,6.4c0.3-17.8-3.8-35.4-8.5-51.5c-15.4,0.1-31.5-1.2-48.5-3.3
		C286.7,113.1,290.6,129.8,290.3,146.9"/>
	<path class="st0" d="M175.1,293.6c2.5,0.9,5.1,1.7,7.9,2.5c17.6,5.3,36,10.3,55.3,14.1c4-5.1,8.6-10,13.9-14.9
		c5.7-5.3,11.1-10.3,16-15.2c-23.2-4-42.9-9.8-58.5-15.7C194.9,275.2,183.6,284.8,175.1,293.6"/>
	<path d="M278.5,191.6c15.3,4.7,31.2,8.4,47.9,10.2c3-6.6,5.6-13.4,8-20.4c3.1-9.3,4.5-18.7,4.7-28.1c-16.6-0.9-33-3.3-48.8-6.4
		c-0.2,10.5-2,21.1-6.1,31.5C282.5,182.4,280.8,186.8,278.5,191.6"/>
	<path d="M212.9,262.1c-1.1,0.8-2.1,1.5-3.1,2.3c15.6,6,35.3,11.8,58.5,15.7c12.9-12.7,23.4-24.4,32.2-35.6
		c-19.3-2.9-36.2-7.6-51-13C240.2,240.8,228.3,251,212.9,262.1"/>
	<path d="M175.1,293.6c-11.4,11.8-17.8,22.1-21.3,31.9c6.2,1.9,12.5,3.7,19.2,5.4c16,4,32.4,7.7,49.6,10.8
		c2.5-10.7,7.7-21.2,15.7-31.4c-19.4-3.9-37.8-8.8-55.3-14.1C180.3,295.3,177.7,294.5,175.1,293.6"/>
	<path class="st1" d="M169.1,330.1l85.1-87.9c2.6-6.6,2.6-12.4,1.7-18.7h79.8c-6.5,7.1-20.1,14-24.6,20.1L256.7,296l71.4,152.3
		c4,8.9,8.1,13.8,13.5,18.8H230.2l-42.7-100.2l-24.1,22.3l-5.9,60c0.2,8.1,3.3,13.4,6.3,17.8h-108c3.3-4,6.7-8.5,7.6-12.6
		l24.9-210.2c0.3-8-3-14.4-5.8-20.7h107.2c-3.4,5.4-10.3,16.3-11.5,27.9L169.1,330.1z"/>
	<path class="st1" d="M353.9,223.5c6.2,6.1,10.8,14.7,12.2,25.5l30.4,218.1h85.6l58.8-161.2l19.8,161.2h89.6l76.5-218.7
		c3.4-9.7,9.2-16.7,17.3-24.9h-57.1c1.6,8.4,1.7,15.7-1,22.7L641.5,379l-20.4-155.5l-93.9,0l-54.8,155.9l-14.8-123.4
		c0.3-12.8,1.7-23.1,4.6-32.5H353.9z"/>
	<path class="st2" d="M151.5,318.1l85.1-87.9c2.6-6.6,2.6-12.4,1.7-18.7H318c-6.5,7.1-20.1,14-24.6,20.1l-54.3,52.3l71.4,152.3
		c4,8.9,8.1,13.8,13.5,18.8H212.5l-42.7-100.2l-24.1,22.3l-5.8,60c0.2,8.1,3.3,13.4,6.3,17.8h-108c3.3-4,6.7-8.5,7.6-12.6
		l24.9-210.2c0.3-8-3-14.4-5.8-20.7h107.2c-3.4,5.4-10.3,16.3-11.5,27.9L151.5,318.1z"/>
	<path class="st3" d="M151.5,318.1l85.1-87.9c2.6-6.6,2.6-12.4,1.7-18.7H318c-6.5,7.1-20.1,14-24.6,20.1l-54.3,52.3l71.4,152.3
		c4,8.9,8.1,13.8,13.5,18.8H212.5l-42.7-100.2l-24.1,22.3l-5.8,60c0.2,8.1,3.3,13.4,6.3,17.8h-108c3.3-4,6.7-8.5,7.6-12.6
		l24.9-210.2c0.3-8-3-14.4-5.8-20.7h107.2c-3.4,5.4-10.3,16.3-11.5,27.9L151.5,318.1z"/>
	<path class="st2" d="M336.3,211.4c6.2,6.1,10.8,14.7,12.2,25.5L378.9,455h85.6l58.8-161.2L543,455h89.6l76.5-218.7
		c3.4-9.7,9.2-16.7,17.3-24.9h-57.1c1.6,8.4,1.7,15.7-1,22.7l-44.6,132.8l-20.4-155.5l-93.9,0l-54.8,155.9l-14.8-123.4
		c0.3-12.8,1.7-23.1,4.6-32.5H336.3z"/>
	<path class="st3" d="M336.3,211.4c6.2,6.1,10.8,14.7,12.2,25.5L378.9,455h85.6l58.8-161.2L543,455h89.6l76.5-218.7
		c3.4-9.7,9.2-16.7,17.3-24.9h-57.1c1.6,8.4,1.7,15.7-1,22.7l-44.6,132.8l-20.4-155.5l-93.9,0l-54.8,155.9l-14.8-123.4
		c0.3-12.8,1.7-23.1,4.6-32.5H336.3z"/>
	<path d="M511.1,503.3c-9.4,2.7-17.1,10.1-21.4,17.2c-4.9,8-0.2,19.6,10.5,21.8c9.1,1.8,24.6,0.8,38.4-9.8
		c13.7-10.6,11.6-19.6,9.4-26.7c-2.2-7.1-7.4-6.5-10-6c-2.6,0.5-4.6,5.7-4.6,5.7C528.5,500.8,520.5,500.5,511.1,503.3 M534.6,517.4
		c0,0-11.8,15.4-28.4,13.1c-3.9-0.5-6.1-3-2.2-7.1c3.9-4.1,9.6-9.5,19.6-9.8C525.9,516.3,527.4,519.1,534.6,517.4"/>
	<path d="M137,536.5c-0.8-9.1-0.3-12.7,0.6-17.7c0.8-5,1.7-5.3-1.4-7.8c-3-2.5-8-7.5-12.2-2.8c-4.1,4.7-8.9,9.7-20.2,16.9
		c5.8-9.4,7.8-13.3,10.8-17.4c3-4.1,0.8-5.8-1.4-7.2c-2.2-1.4-7.2-6.1-11.1-1.1c-3.8,4.9-10.7,15.4-14.1,24
		c-4.9-3.7-14.6-6.5-20.6-6.8C56,516,48.9,515,46.7,515c5.5-7.7,16.4-12.3,39.9-14.2c6.6-0.5,1.6-3.8-0.6-4.9
		c-2.2-1.1-9.8-3.8-9.8-3.8c-14.2,1.6-30.6,7.7-38.8,13.1c-8.2,5.5-4.4,8.7-2.7,11.5c1.6,2.7,4.9,8.2,11.5,9.3
		c6.6,1.1,14.2,1.1,17.5,1.6c3.3,0.5-1.1,1.6-10.4,3.8c-9.3,2.2-23,5.5-29.5,4.4c-6.6-1.1-8.2-5.5-11.5-4.9
		c-3.3,0.5-7.7,3.3-4.4,7.1c3.3,3.8,4.4,8.2,16.9,7.7c12.6-0.5,35-2.2,57.4-10.4c1.6-0.6,2.9-1.2,4-1.8c1.3,7.7,9.5,13.6,18.6,7.8
		c9.7-6.1,13.6-8.9,16.9-12.2c1.9,7.2,4.2,11.6,7.2,15.2C132,547.8,144.2,545.4,137,536.5"/>
	<path d="M680.9,523.4c-4.9-3.7-14.6-6.5-20.6-6.8c-11.5-0.5-18.6-1.6-20.8-1.6c5.5-7.7,16.4-12.2,39.9-14.2
		c6.6-0.5,1.6-3.8-0.5-4.9c-2.2-1.1-9.8-3.8-9.8-3.8c-14.2,1.6-30.6,7.7-38.8,13.1s-4.4,8.7-2.7,11.5c1.6,2.7,4.9,8.2,11.5,9.3
		c6.6,1.1,14.2,1.1,17.5,1.6c3.3,0.5-1.1,1.6-10.4,3.8c-8.9,2.1-21.8,5.2-28.7,4.5c-0.5-1.3-1.4-2.5-2.2-3.8
		c-2.3-3.5-0.3-13.9-0.4-19.6c-0.1-5.6-5.7-9.6-12.2-9.7c-6.6-0.1-7.5,0.5-14.8,4.8c-7.3,4.3-17,11-20.1,13.5
		c3.6-9.5,4.3-11.5,4.5-14.7c0.1-3.2-4.1-6-7.7-5.6c-3.6,0.4-11.4,2.1-8.9,9.8c0,0-6.5,15.8-10,22.1c-3.4,6.3-2.7,13.5,4.1,13.5
		c6.8,0.1,14.4-3.5,21.9-10.2c7.5-6.7,19.8-18.8,27.6-20.5c0.2,8.3,0,11,0,15.1c0,1.4,0.1,2.8,0.4,4.1c-0.2,1,0,2.1,1.1,3.3
		c0.1,0.1,0.2,0.3,0.4,0.4c0.6,1.1,1.4,2.2,2.5,3.2c0,0,0.1,0.1,0.1,0.1c2.2,2.4,5.5,4.2,13.9,3.9c12.6-0.6,35-2.2,57.4-10.4
		c1.6-0.6,2.9-1.2,4-1.8C687.5,529.2,682.9,525.4,680.9,523.4"/>
	<path d="M485.8,507.8c-1.9-2.2-7.2-9.5-11.4-3.1c-2.3,3.4-4.7,10-5.2,19.7c-4.3-4.3-15.3-7.6-21.8-7.9c-11.5-0.5-18.6-1.6-20.8-1.6
		c5.5-7.7,16.4-12.2,39.9-14.2c6.6-0.5,1.6-3.8-0.6-4.9c-2.2-1.1-9.8-3.8-9.8-3.8c-14.2,1.6-30.6,7.7-38.8,13.1
		c-8.2,5.5-4.4,8.7-2.7,11.5c1.6,2.7,4.9,8.2,11.5,9.3c6.6,1.1,14.2,1.1,17.5,1.6c3.3,0.5-1.1,1.6-10.4,3.8
		c-9.3,2.2-21.3,4.1-29.5,4.4c-0.3,0-0.6,0.1-0.9,0.2c-0.5-1.3-1.4-2.6-2.3-4c-2.3-3.5-0.3-13.9-0.4-19.6c-0.1-5.6-5.7-9.6-12.2-9.7
		c-6.6-0.1-7.5,0.5-14.8,4.8c-7.3,4.3-17,11-20.1,13.5c3.6-9.5,4.3-11.5,4.5-14.7c0.1-3.2-4-6-7.6-5.6c-3.6,0.4-11.4,2.1-8.9,9.8
		c0,0-3.9,9.3-7.2,16.5c-0.8-0.1-1.8-0.1-2.7-0.1c-4.1,0-11.5,4-24.8,6.1c-13.4,2.2-16.7-0.9-19.1-5.2c14.8,0.2,23.7-3.8,31.6-7
		c5.5-2.3,18.5-9.6,14.4-15.9c-4-6.1-12.2-6.1-22.9-5.2c-10.6,0.9-21.6,5.4-27.9,8.7c-4.1-5.8-13.3-8.1-23.5-8.1
		c-8.9,0-20.7,2.1-27.8,3.9c-3.3-3.8-5.9-5.7-9.5-6c-3.8-0.3-4.7,1.5-5.4,5.9c0,0-3.5,8.2-8.2,19c-5-3.6-14.5-6.3-20.3-6.6
		c-11.5-0.5-18.6-1.6-20.8-1.6c5.5-7.7,16.4-12.2,39.9-14.2c6.6-0.5,1.6-3.8-0.5-4.9c-2.2-1.1-9.8-3.8-9.8-3.8
		c-14.2,1.6-30.6,7.7-38.8,13.1s-4.4,8.7-2.7,11.5c1.6,2.7,4.9,8.2,11.5,9.3c6.6,1.1,14.2,1.1,17.5,1.6c3.3,0.5-1.1,1.6-10.4,3.8
		c-9.3,2.2-21.3,4.1-29.5,4.4c-1.8,0.1-2.9,1.9-1.8,4.9c1.1,3,6.1,4.3,8.4,4.5c12.5,1.1,29.4-1.7,51.8-9.9c0.2-0.1,0.3-0.1,0.4-0.2
		c-3.5,7.9-7.1,16.1-10.2,22.8c-3.8,7.7,0,9.8,1.1,10.9c1.1,1.1,7.7,7.1,10.4-1.6c0.9-3,4.4-11.2,8.6-20.8
		c14.1-7.4,56.1-23.2,56.1-23.2s0.9-0.1,2.1-0.2c-1.6,17.3,19.9,22.5,28.4,22.1c15.6-0.7,22.4-3.5,29.7-6.4
		c-0.4,4.1,1.5,7.4,6.1,7.4c6.8,0.1,14.4-3.5,21.9-10.2c7.5-6.7,19.8-18.8,27.6-20.5c0.2,8.3,0,11,0,15.1c0,4,0.8,7.7,4.4,11.1
		c3.5,3.4,8.9,3.9,12.4,0.5c0.3-0.3,0.6-0.6,0.8-1c1.5,2.6,6,3.8,8.1,3.9c12.5,1.1,29.4-1.7,51.8-9.9c3.3-1.2,5.6-2.5,7-3.7
		c0.2,7.4,1.3,11,2.7,12.6c1.6,2,4.8,1.4,7.2,0.6c2.4-0.8,4.2-1.7,4.2-7.2c0-5.6,2.1-17.3,4-21.2C489,512.3,487.7,510.1,485.8,507.8
		 M313.7,509.1c8.7-0.4,8,0.7,3.4,2.1c-5,1.5-21.9,7.5-29.9,8.1C293.7,512.1,303.4,509.6,313.7,509.1 M250.9,517.9
		c-2.9,1.2-14.3,6.7-19.2,8.5c-5,1.8-7,2.3-8.7,2c-1.8-0.3,0.9-4.7,5.5-6.7c4.8-2.1,16.7-6.5,23.6-7.9
		C260.8,512.1,253.8,516.7,250.9,517.9"/>
	<path d="M476.7,483.1c-1.6,1.1-2.6,7,1.9,11.1c4.6,4.1,7.5,2.6,10.1-0.2c2.7-2.9,0.2-7.2-2.9-9.1
		C482.7,482.8,480.1,480.9,476.7,483.1"/>
</g>
</svg>
