<?xml version="1.0" encoding="UTF-8" standalone="no"?>
<!-- Created with Inkscape (http://www.inkscape.org/) -->

<svg
   version="1.1"
   id="svg2"
   width="293.33334"
   height="140"
   viewBox="0 0 293.33334 140"
   sodipodi:docname="KW_Suspensions.eps"
   xmlns:inkscape="http://www.inkscape.org/namespaces/inkscape"
   xmlns:sodipodi="http://sodipodi.sourceforge.net/DTD/sodipodi-0.dtd"
   xmlns="http://www.w3.org/2000/svg"
   xmlns:svg="http://www.w3.org/2000/svg">
  <defs
     id="defs6" />
  <sodipodi:namedview
     id="namedview4"
     pagecolor="#ffffff"
     bordercolor="#000000"
     borderopacity="0.25"
     inkscape:showpageshadow="2"
     inkscape:pageopacity="0.0"
     inkscape:pagecheckerboard="0"
     inkscape:deskcolor="#d1d1d1" />
  <g
     id="g8"
     inkscape:groupmode="layer"
     inkscape:label="ink_ext_XXXXXX"
     transform="matrix(1.3333333,0,0,-1.3333333,0,140)">
    <g
       id="g10"
       transform="scale(0.1)">
      <path
         d="m 1239.25,717.965 v 0 28.082 c 6.48,29.519 9.36,61.918 7.2,96.48 38.88,5.039 79.2,14.399 122.4,28.801 7.2,-46.082 6.48,-87.844 -0.72,-125.281 -46.08,-14.399 -88.56,-23.762 -128.88,-28.082 z m 0,123.121 v 0 c 2.16,0.719 5.04,0.719 7.2,1.441 -0.72,18 -3.6,37.438 -7.2,56.879 z m 0,58.32 v 0 -58.32 c -36,-4.32 -70.56,-5.039 -104.4,-3.598 0.72,28.797 -2.88,59.758 -11.52,93.598 v 41.039 c 30.24,0 61.2,0.723 94.32,2.883 9.36,-26.641 16.56,-51.84 21.6,-75.602 z m 0,-153.359 v 0 -28.082 c -2.88,-0.719 -5.04,-0.719 -7.92,-1.438 2.88,10.078 5.76,19.438 7.92,29.52 z M 1123.33,93.0078 v 0 44.6402 c 12.24,-12.96 25.2,-25.918 39.6,-38.8785 -13.68,-2.1601 -26.64,-3.6015 -39.6,-5.7617 z m 0,101.5192 v 0 74.161 c 18.49,1.425 37.69,2.851 56.89,5.664 l 9.39,-50.586 c 0.91,-22.891 -13.12,-22.594 -66.28,-29.239 z m 0,146.883 v 0 71.278 c 9.99,0.714 20.69,1.429 30.69,2.847 l 12.7,-68.437 c -14.92,-2.133 -29.16,-4.266 -43.39,-5.688 z m 0,156.957 v 0 20.883 c 3.46,4.148 6.26,8.301 9.02,13.086 l 6.06,-32.613 c -5.45,-0.688 -10.27,-1.356 -15.08,-1.356 z m 90.15,169.528 c 7.13,15.742 12.84,32.183 17.85,48.632 -37.44,-3.601 -73.44,-4.32 -108,-2.16 v -46.472 z m -90.15,96.152 v 0 c 6.48,23.039 10.8,46.801 11.52,73.441 -3.6,0 -7.92,0 -11.52,0 z m 0,208.078 v 0 -41.039 c -2.88,12.961 -7.2,26.641 -12.24,41.039 4.32,0 8.64,0 12.24,0 z m 0,-134.637 v 0 -73.441 c -4.32,-16.559 -10.8,-32.399 -18,-48.238 -44.64,5.039 -87.12,13.679 -128.881,25.918 v 0 0 c 18.723,33.121 30.241,69.839 30.961,112.32 38.88,-7.922 77.04,-13.68 115.92,-16.559 z m 0,-123.121 v 0 c -5.76,0.719 -11.52,1.442 -18,1.442 -7.87,-16.45 -16.44,-32.18 -26.43,-47.914 h 44.43 z m 0,-195.117 v 0 -20.883 c -5.04,-0.719 -10.08,-0.719 -15.12,-1.437 5.04,7.918 10.08,15.121 15.12,22.32 z m 0,-106.562 v 0 -71.278 c -30.24,-2.879 -59.76,-5.039 -87.84,-5.762 2.88,25.922 10.8,51.122 22.32,76.321 20.88,-0.719 43.2,-0.719 65.52,0.719 z m 0,-144 v 0 -74.161 c -14.4,-1.437 -28.8,-2.879 -42.48,-3.597 -18,25.918 -30.24,50.398 -37.44,74.16 26.64,0 53.28,1.437 79.92,3.598 z m 0,-131.04 v 0 c -16.56,18.723 -30.96,36 -42.48,53.282 -10.07,-0.84 -19.89,-1.422 -29.75,-1.914 l 20.18,-40.164 c 10.11,-19.629 20.95,-38.93 32.38,-57.7973 6.62,0.6016 13.22,1.2773 19.67,1.9531 z m -110.53,127.59 c 10.06,-0.14 20.21,-0.148 30.61,-0.148 -7.2,24.48 -9.36,47.519 -7.92,70.558 -19.82,-0.707 -38.935,-0.71 -58.049,-0.027 z M 976.449,417.73 v 0 c 25.921,-2.882 52.561,-5.761 81.361,-5.761 12.96,28.082 30.96,56.16 50.4,84.961 -47.87,-2.86 -91.48,-0.039 -130.847,7.039 L 976.449,503 Z m 0,163.641 v 0.004 l -0.051,-0.059 z m -44.14,-155.918 c 14.308,-2.859 29.074,-5.441 44.14,-7.723 V 503 l -54.207,-57.508 z m 55.566,166.781 c 2.602,2.364 5.254,4.692 7.945,6.985 -2.691,-2.293 -5.34,-4.621 -7.945,-6.985 z m 11.191,9.719 c 9.514,7.922 19.484,15.406 29.754,22.418 h 0.02 c -10.26,-7.016 -20.25,-14.5 -29.774,-22.418 z m 59.384,37.215 c 1.45,2.008 2.86,4.047 4.23,6.137 4.18,2.34 8.4,4.609 12.61,6.793 l 16.2,7.476 c 5.35,-8.5 9.64,-16.355 13.18,-23.859 -0.54,1.144 -1.1,2.293 -1.68,3.453 z m 53.17,-20.184 c 1.02,-2.828 1.96,-5.629 2.84,-8.429 -6.06,-0.489 -12.02,-0.879 -17.93,-1.192 5.09,3.063 10.22,5.996 15.36,8.828 z M 976.449,860.527 v 0 c 10.801,-2.16 20.883,-4.32 30.961,-6.48 0.72,36.719 -5.76,77.039 -23.039,123.84 -2.16,0 -5.039,0 -7.922,0.718 z m 0,118.078 v 0 -118.078 c -34.558,8.641 -69.84,18 -106.558,28.078 -1.442,20.883 -6.481,43.2 -14.399,67.68 v 36.723 c 38.879,-5.762 78.481,-10.801 120.957,-14.403 z m 0,-236.878 v 0 c -14.332,-26.516 -33.652,-50.887 -55.84,-73.832 h -65.117 v 114.871 c 41.039,-15.121 80.637,-29.52 120.957,-41.039 z m -120.957,48.238 v 0 c 12.238,28.801 18,61.203 14.399,98.64 -4.321,1.442 -9.36,2.883 -14.399,3.602 z m 0,203.043 v 0 -36.723 c -4.32,12.242 -9.363,25.922 -15.121,39.602 5.039,-1.442 10.078,-2.16 15.121,-2.879 z m 0,-100.801 v 0 -102.242 c -0.722,-2.16 -1.441,-4.32 -2.883,-6.481 -19.437,7.204 -38.879,14.403 -59.039,21.602 v 104.402 c 20.879,-5.761 41.762,-11.523 61.922,-17.281 z m 0,-109.441 v 0 c -0.722,0 -1.441,0.718 -2.883,0.718 -13.679,-30.238 -34.558,-56.879 -59.039,-81.359 v -15.117 c 14.121,-7.063 28.938,-14.121 43.766,-20.5 l -0.258,1.387 h 18.414 z M 793.57,561.699 v 6.512 c 1.477,-0.59 2.84,-1.293 4.172,-2.027 z m 0,347.789 v 0 -104.402 c -25.918,10.082 -52.558,19.441 -79.918,28.082 v 20.879 c 7.922,23.758 9.36,48.238 3.602,74.879 25.918,-5.758 51.117,-12.961 76.316,-19.438 z m 0,-207.363 v 0 -15.117 c -3.597,2.16 -7.199,3.597 -10.8,5.758 3.601,2.879 7.203,6.48 10.8,9.359 z m 0,-133.914 v 0 -6.512 c -20.066,-21.574 -40.136,-43.117 -60.203,-64.672 -5.722,-0.156 -11.976,1.032 -18.879,3.879 l 2.555,34.586 c 1.684,24.672 7.832,44.774 17.98,63.602 19.485,-10.465 39.45,-21.336 58.547,-30.883 z m -79.918,70.957 v 24.078 l 3.602,4.32 h -0.688 l 0.278,0.329 h -3.192 v 58.71 c 24.481,-11.519 46.797,-23.039 69.118,-33.839 -19.891,-19.207 -42.387,-36.446 -65.641,-53.598 z m 0,290.48 v 0 c 1.442,0 2.161,0 3.602,-0.722 -0.719,4.32 -2.16,8.64 -3.602,12.961 z m 0,12.239 v 0 -12.239 c -2.16,0.719 -4.32,1.438 -7.199,2.157 v 30.242 c 2.879,-7.199 5.762,-13.68 7.199,-20.16 z m 0,-87.84 v 0 -20.879 c -2.16,0.719 -4.32,1.437 -7.199,2.879 v -0.719 c 0,0.719 0,0.719 0,0.719 v 0 c 2.879,5.758 5.039,12.238 7.199,18 z m 0,-127.442 v 0 -58.71 h -7.199 v 62.312 c 2.879,-1.441 5.039,-2.16 7.199,-3.602 z m 0,-63.359 v 0 -24.078 h -7.199 v 15.758 c -7.617,-10.031 -14.109,-19.953 -19.398,-30.317 h 0.015 c 2.52,4.934 5.305,9.766 8.364,14.559 h 11.019 v 15.758 l 2.004,2.605 z m -7.199,298.801 v 0 -30.242 c -44.64,10.082 -91.441,18.722 -142.558,25.922 v 80.643 c 36.718,-3.6 71.277,-8.64 105.839,-14.41 16.559,-21.59 28.801,-42.472 36.719,-61.913 z m 0,-126 v 0 c -43.918,13.68 -91.441,27.359 -142.558,37.437 v -87.117 c 29.519,-9.359 57.597,-19.441 83.519,-30.242 25.199,25.203 46.078,51.84 59.039,79.203 v 0.719 0 z m 0,-105.84 v 0 -62.312 H 596.316 c -10.566,4.902 -21.152,9.125 -32.421,13.351 29.519,25.199 59.039,49.68 83.519,74.879 20.879,-8.637 40.32,-17.277 59.039,-25.918 z M 563.895,681.246 v 0 0 z m -47.52,282.238 v 0 c 5.758,-0.718 11.52,-1.437 17.277,-2.156 9.36,-28.801 7.922,-55.441 0,-82.082 -5.757,1.442 -11.519,2.16 -17.277,2.879 z m 47.52,74.886 v 0 c -15.84,1.43 -31.68,2.88 -47.52,4.32 v -43.202 c 7.918,-12.961 13.68,-25.922 17.277,-38.16 10.082,-0.723 20.161,-2.16 30.243,-3.601 z m 0,-164.886 v 0 c -10.082,2.161 -20.161,4.321 -30.243,5.762 -4.32,-12.961 -10.078,-25.918 -17.277,-38.879 v -41.039 c 16.559,-4.32 32.398,-8.64 47.52,-12.961 z m 0,-192.238 v 0 0 z m 0,0 c -15.122,5.762 -30.961,11.52 -47.52,16.559 v -29.91 h 32.012 c 4.965,4.902 10.574,9.125 15.508,13.351 z M 393.973,970.688 v 0 c 43.199,-0.723 83.519,-3.602 122.402,-7.204 v -81.359 c -38.16,6.48 -79.203,10.801 -122.402,12.961 z m 122.402,72.002 v 0 -43.202 c -9.363,14.402 -20.883,29.522 -35.281,45.362 12.238,-0.72 23.761,-1.44 35.281,-2.16 z m 0,-202.323 v 0 -41.039 c -7.922,1.438 -15.84,3.598 -24.48,5.039 9.359,12.238 17.277,24.481 24.48,36 z m 0,-142.562 v 0 -29.91 H 393.973 v 26.312 c 7.922,9.359 16.562,18 24.48,26.641 35.281,-5.762 67.68,-13.68 97.922,-23.043 z M 393.973,269.391 V 379.57 l 8,-2 z m 0,231.136 v 0 c 5.578,-1.394 11.16,-2.785 16.738,-4.832 l 2.676,36.18 c -6.949,-9.777 -13.856,-20.23 -19.414,-31.348 v 0 z m 0,123.121 v 0 33.633 c -2.203,3.535 -4.516,7.051 -6.891,10.614 h 6.891 v 26.312 0 c -6.481,-6.48 -12.961,-13.68 -19.438,-20.16 V 627.25 c 6.477,-0.719 12.957,-2.16 19.438,-3.602 v 33.633 c 7.218,-11.562 13.371,-23.34 17.39,-37.652 -6.031,1.34 -12.027,2.68 -17.39,4.019 z m 0,100.797 v 0 95.043 c 34.562,-2.883 67.679,-8.64 97.922,-15.121 -20.883,-27.359 -46.082,-54.719 -73.442,-83.519 -7.918,1.437 -16.558,2.879 -24.48,3.597 z m -19.438,246.243 v 0 c 6.477,0 12.957,0 19.438,0 v -75.602 c -6.481,0.723 -12.961,0.723 -19.438,0.723 z m 19.438,-151.2 v 0 -95.043 c -6.481,0.723 -12.961,2.16 -19.438,2.883 v 94.32 c 6.477,-0.722 12.957,-1.441 19.438,-2.16 z m 0,-318.961 v 0 c -6.481,2.161 -12.961,3.602 -19.438,5.762 v -46.801 c 5.039,14.403 11.52,28.082 19.438,41.039 v 0 z m 0,-120.957 v 0 -110.179 l -0.473,-6.407 -18.965,2.106 v 118.078 c 6.477,-1.438 12.957,-2.879 19.438,-3.598 z m -19.438,-216 v 0 c 4.074,0 7.512,-0.64 11.516,-1.32 l 4.414,59.691 c -6.223,14.622 -11.754,29.223 -15.93,43.149 z m -43.203,733.676 v 0 c 3.602,20.879 2.883,41.762 -2.879,63.359 v 10.083 c 15.84,0 30.961,0 46.082,0 v -74.879 c -13.68,0.718 -28.082,1.437 -43.203,1.437 z m 43.203,-75.598 v 0 -94.32 c -15.121,1.438 -30.242,2.879 -46.082,3.598 v 92.883 c 15.84,-0.723 30.961,-1.442 46.082,-2.161 z m 0,-147.601 v 0 -46.797 c -11.523,2.16 -23.762,4.32 -36,5.758 11.52,14.402 23.758,27.363 36,41.039 z m 0,-167.758 v 0 -46.801 c -8.64,-23.039 -13.68,-47.519 -15.84,-73.437 -10.082,1.437 -20.16,2.879 -30.242,4.316 v 125.281 c 15.84,-2.878 30.961,-5.757 46.082,-9.359 z m 0,-123.121 v 0 c -5.043,0.723 -10.801,1.441 -15.84,2.883 -2.882,-36.723 2.16,-77.043 15.84,-120.961 v 0 z m 0,-118.078 v 0 -101.52 c -15.121,1.438 -30.961,2.879 -46.082,3.598 v 101.52 c 15.121,-0.719 30.961,-2.161 46.082,-3.598 z m -46.082,355.68 v 0 13.679 c 3.602,0 7.199,-0.719 10.082,-1.441 -2.883,-4.317 -6.48,-7.918 -10.082,-12.238 z m 0,261.355 v 0 c 1.442,5.043 2.16,10.082 2.879,15.121 -0.719,0 -1.437,0 -2.879,0 z m 0,78.48 v 0 c -0.719,2.879 -1.441,6.481 -2.879,9.36 v 0.723 c 0.719,0 2.16,0 2.879,0 z m 0,-63.359 v 0 -15.121 c -0.719,-3.598 -1.441,-7.199 -2.879,-10.797 v 25.918 c 0.719,0 2.16,0 2.879,0 z m 0,-73.437 v 0 -92.883 c -0.719,0 -2.16,0 -2.879,0 v 92.883 c 0.719,0 2.16,0 2.879,0 z m 0,-189.36 v 0 -13.679 c -0.719,-1.442 -2.16,-2.879 -2.879,-4.321 v 18.719 c 0.719,-0.719 2.16,-0.719 2.879,-0.719 z m 0,-118.801 v 0 -125.281 c -0.719,0 -2.16,0.723 -2.879,0.723 v 125.281 c 0.719,0 2.16,0 2.879,-0.723 z m 0,-246.96 v 0 -101.52 c -0.719,0 -2.16,0 -2.879,0 v 101.52 c 0.719,0 2.16,0 2.879,0 z m -2.879,702 v 0 0 z m 0,-0.723 v 0 c 0,0 0,0 0,0.723 v 0 z m 0,0.723 v 0 c -7.199,20.16 -19.441,41.762 -38.16,64.082 v -66.243 c 12.961,0.719 25.918,1.438 38.16,2.161 z m 0,-73.442 v 0 -25.918 c -5.039,-15.84 -11.519,-30.961 -19.441,-46.801 -6.481,0 -12.961,0 -18.719,0 v 72 c 12.961,0 25.918,0.719 38.16,0.719 z m 0,-73.437 v 0 c -6.48,0 -12.961,0.718 -19.441,0.718 -5.758,-10.8 -12.238,-22.32 -18.719,-33.121 v -59.039 c 12.961,-0.719 25.918,-0.719 38.16,-1.441 z m 0,-188.641 v 0 -18.719 c -13.679,-18 -26.64,-36 -38.16,-55.441 v 77.043 c 12.961,-0.723 25.918,-1.442 38.16,-2.883 z m 0,-118.797 v 0 -125.281 c -12.961,1.437 -25.922,3.598 -38.16,5.039 v 126 c 12.961,-1.441 25.918,-3.598 38.16,-5.758 z m 0,-247.683 v 0 -101.52 c -10.082,0.723 -19.441,0.723 -29.519,0.723 -2.883,6.48 -5.762,12.238 -8.641,18 v 84.238 c 12.238,-0.719 25.199,-0.719 38.16,-1.441 z m -38.16,766.082 v 0 -66.243 c -12.961,0 -25.922,-0.722 -38.879,-2.16 v 72.003 c 10.797,1.43 21.598,2.16 32.399,2.88 2.16,-2.16 4.32,-4.32 6.48,-6.48 z m 0,-138.243 v 0 -72 c -12.961,0 -25.922,-0.718 -38.879,-0.718 v 70.558 c 12.957,1.442 25.918,1.442 38.879,2.16 z m 0,-105.121 v 0 -59.039 c -12.961,0 -25.922,0 -38.879,-0.719 13.68,20.879 26.637,40.317 38.879,59.758 z m 0,-153.355 v 0 -77.043 c -7.199,-12.238 -13.68,-24.477 -19.441,-36.719 -6.481,0.719 -12.961,0.719 -19.438,1.441 v 114.481 c 12.957,-0.723 25.918,-0.723 38.879,-2.16 z m 0,-115.922 v 0 -126 c -12.961,1.441 -25.922,2.16 -38.879,3.601 v 74.161 c 5.039,17.277 11.52,33.839 19.438,50.398 6.48,-0.719 12.961,-1.441 19.441,-2.16 z m 0,-252 v 0 -84.238 c -15.121,28.797 -25.922,56.879 -34.559,83.519 11.52,0.719 23.04,0.719 34.559,0.719 z m -38.879,-0.719 v 0 15.84 c 1.438,-5.039 2.879,-10.082 4.32,-15.84 -1.441,0 -2.882,0 -4.32,0 z m 0,768.96 v 0 -72.003 c -1.441,0 -2.883,0 -4.32,0 v 72.003 c 1.437,0 2.879,0 4.32,0 z m 0,-144.003 v 0 -70.558 c -1.441,-0.723 -2.883,-0.723 -4.32,-0.723 v 71.281 c 1.437,0 2.879,0 4.32,0 z m 0,-162.719 v 0 0 z m 0,-91.437 v 0 -114.481 c -1.441,0 -2.883,0 -4.32,0 v 114.481 c 1.437,0 2.879,0 4.32,0 z m 0,-166.32 v 0 -74.161 c -1.441,0 -2.883,0 -4.32,0 v 59.04 c 1.437,5.039 2.879,10.078 4.32,15.121 z m 0,-188.641 v 0 -15.84 c -1.441,0 -2.883,0 -4.32,0 v 32.399 c 1.437,-5.039 2.879,-10.801 4.32,-16.559 z m -4.32,440.637 v 0 c 1.437,2.16 2.879,4.32 4.32,5.761 -1.441,0 -2.883,0 -4.32,0 z m 0,312.483 v 0 -72.003 c -38.16,-2.883 -77.762,-7.199 -119.52,-12.961 v 69.124 c 42.477,7.2 82.078,12.24 119.52,15.84 z m 0,-144.003 v 0 -71.281 c -37.442,-1.438 -77.043,-5.039 -119.52,-10.078 v 69.84 c 41.758,5.757 82.078,9.359 119.52,11.519 z m 0,-162.719 v 0 -5.761 c -18.723,-28.082 -38.16,-56.879 -56.883,-87.117 -20.16,-1.442 -41.039,-3.602 -62.637,-5.762 v 89.277 c 42.477,5.043 82.797,8.641 119.52,9.363 z m 0,-91.437 v 0 c -18,0 -37.442,-0.723 -56.883,-1.441 -20.879,-36 -40.32,-74.879 -53.277,-117.36 38.879,5.039 75.597,5.758 110.16,4.32 z m 0,-181.441 v 0 -59.04 c -2.883,0 -5.762,0.719 -8.641,0.719 1.438,20.16 4.321,39.602 8.641,58.321 z m 0,-156.961 v 0 c -7.922,35.281 -10.082,67.679 -8.641,98.64 -36.722,2.16 -74.16,1.442 -110.879,-2.16 V 316.93 c 4.317,-19.442 9.36,-38.879 16.559,-59.039 34.559,6.48 69.121,10.078 102.961,11.519 z M 124.695,152.77 v 0 101.519 c 5.758,1.441 10.797,2.16 16.559,3.602 10.078,-30.243 24.48,-61.922 41.758,-95.043 -19.438,-2.879 -38.879,-5.758 -58.317,-10.078 z m 0,334.078 v 0 33.84 c 2.879,0 6.477,0.722 9.36,0.722 -3.602,-11.519 -6.481,-23.043 -9.36,-34.562 z m 0,535.682 v 0 -69.124 c -7.203,-0.718 -14.402,-2.16 -22.32,-2.879 -9.3633,19.438 -23.7617,39.598 -43.9219,60.483 23.0391,4.32 44.6409,7.92 66.2419,11.52 z m 0,-139.682 v 0 -69.84 c -7.203,-1.442 -14.402,-2.16 -21.601,-2.883 7.918,25.203 12.961,48.961 13.679,71.281 2.879,0.719 5.762,0.719 7.922,1.442 z m 0,-160.563 v 0 -89.277 c -28.0817,-3.598 -56.8825,-8.637 -87.1208,-15.117 9.3594,36 20.1602,66.957 30.961,95.757 19.4375,3.598 38.1598,6.477 56.1598,8.637 z m 0,-201.597 v 0 -33.84 c -6.48,-28.078 -9.363,-57.598 -9.363,-89.278 -36,-4.32 -72,-11.519 -108.71872,-22.32 0,44.641 2.16016,84.961 7.19922,122.398 39.6016,10.801 76.3203,18 110.8825,23.04 z m 0,-122.399 v 0 c -2.882,0 -5.761,-0.719 -9.363,-0.719 0.723,-25.922 3.602,-52.562 9.363,-80.64 z m 0,-144 v 0 -101.519 c -29.5231,-6.481 -58.32,-14.403 -88.5622,-25.2 -7.1992,33.118 -12.9609,64.797 -17.2812,95.039 36,13.68 71.2812,24.481 105.8434,31.68"
         style="fill:#231f20;fill-opacity:1;fill-rule:evenodd;stroke:none"
         id="path12" />
      <path
         d="M 1609,287.789 1515.52,3.41016 h -244.08 l -5.33,28.72654 h 203.13 l 119.52,363.6013 c 6.77,-35.98 13.52,-71.957 20.24,-107.949 z m -497.11,330.402 c -39.77,-21.843 -78.37,-50.687 -106.85,-84.859 l -82.798,-87.84 149.038,-296.64 C 1097.75,97.4531 1129.14,48.2617 1163.44,3.41016 H 850.961 L 838.047,32.1367 H 1117.16 C 1082.86,76.9883 1051.47,126.18 1025,177.578 l -149.039,296.641 82.797,87.84 c 25.23,30.273 58.402,56.359 93.292,77.109 h 50.94 c 3.6,-7.281 6.49,-14.191 8.9,-20.977 z M 716.445,227.188 691.844,200.691 684.656,107.91 c 0,-56.3905 5.028,-65.4373 30.227,-104.49984 H 385.125 c 6.805,8.98824 13.594,18.41404 19.789,28.72654 h 263.688 c -25.2,39.0625 -30.227,48.1094 -30.227,104.5003 l 7.188,92.781 46.8,50.398 c 8.043,-17.539 16.075,-35.078 24.082,-52.628 z m -21.011,411.98 h 67.691 c -27.07,-32.27 -43.18,-61.184 -46.082,-103.676 l -4.496,-60.847 c -17.539,-18.848 -35.078,-37.696 -52.586,-56.586 l 10.801,146.16 c 2.027,29.687 10.515,52.742 24.672,74.949 z m 696.516,0 H 1450 c -19.88,-46.391 -21.38,-49.813 -14.4,-108.715 l 24.26,-134.832 -26.62,-80.523 -43.92,244.082 c -5.2,43.89 -5.69,56.976 2.63,79.988 z m 418.19,0 h 40.9 L 1896.93,394.281 1871,314.379 Z m 308.2,0 h 72.54 c -44.59,-45.98 -49.38,-58.438 -66.24,-112.316 L 1952.56,3.41016 h -249.84 l -5.32,28.72654 h 208.88 l 172.08,523.4413 c 12.75,40.75 18.6,57.805 39.98,83.59"
         style="fill:#f3c212;fill-opacity:1;fill-rule:evenodd;stroke:none"
         id="path14" />
      <path
         d="M 1588.76,395.738 1469.24,32.1367 h -244.08 l -97.92,527.7613 c -9.22,36.895 -12.04,62.137 -36,100.079 -48.42,-22.782 -97.904,-56.426 -132.482,-97.918 L 875.961,474.219 1025,177.578 c 26.47,-51.398 57.86,-100.5897 92.16,-145.4413 H 804.68 C 767.496,114.863 730.164,197.406 692.363,279.816 l -46.8,-50.398 -7.188,-92.781 c 0,-56.3909 5.027,-65.4378 30.227,-104.5003 H 338.844 c 20.426,26.9688 40.613,57.8125 45.359,105.1213 l 31.68,428.398 c 3.301,50.789 -10.754,75.172 -28.801,102.239 h 329.762 c -27.071,-32.27 -43.18,-61.184 -46.082,-103.676 l -10.801,-146.16 c 51.031,55.058 102.246,109.863 153.359,164.879 32.789,39.031 31.672,41.429 23.758,84.957 188.882,0 377.762,0 566.642,0 -19.88,-46.391 -21.38,-49.813 -14.4,-108.715 l 43.92,-244.082 116.64,352.797 c 84.96,0 169.92,0 254.88,0 l 66.24,-353.516 79.2,244.078 c 15.38,57.379 14.33,66.914 2.88,109.438 H 2144.6 C 2100,621.914 2095.22,609.457 2078.36,555.578 L 1906.28,32.1367 h -249.84 c -22.43,121.2263 -44.88,242.4453 -67.68,363.6013"
         style="fill:#833184;fill-opacity:1;fill-rule:evenodd;stroke:none"
         id="path16" />
    </g>
  </g>
</svg>
