<svg xmlns="http://www.w3.org/2000/svg" viewBox="0 0 560 180" role="img" aria-labelledby="title desc">
  <title id="title">KW Suspension</title>
  <desc id="desc">KW Suspension logotype in white for dark backgrounds.</desc>
  <rect width="560" height="180" fill="none"/>
  <g fill="#FFFFFF" fill-rule="evenodd">
    <path d="M35 40h74c16 0 28 12 28 28v8c0 15-12 28-28 28H35z"/>
    <path d="M114 124H35v20h105c9 0 17-7 17-17v-3h-43z"/>
    <path d="M175 40h48l25 50 25-50h48l-42 80h-62z"/>
    <path d="M288 120h-48l-15 24h49z"/>
    <path d="M332 40h52l21 47 21-47h52l-36 104h-46l-17-43-17 43h-46z"/>
  </g>
  <text x="35" y="168" font-family="Arial, Helvetica, sans-serif" font-size="22" letter-spacing="5" fill="#FFFFFF" opacity="0.92">SUSPENSIONS</text>
</svg>
