<svg fill="none" height="60" viewBox="0 0 44 60" width="44" xmlns="http://www.w3.org/2000/svg">
<g>
<path d="M42.9842 4.54349C42.9447 4.00878 42.7277 3.50258 42.3678 3.10522C42.0086 2.71086 41.5269 2.44914 41.0006 2.36238C28.3637 0.355119 15.4892 0.355119 2.85227 2.36238C2.32545 2.4485 1.84345 2.71086 1.48512 3.10653C1.125 3.50327 0.90801 4.00912 0.868724 4.54349C0.517059 9.18757 -0.0269035 21.0954 2.63231 31.3978C5.36924 41.9846 10.365 49.1364 14.0726 53.2694C18.1056 57.7673 21.4562 59.7298 21.5985 59.8115L21.9238 59.9998L22.2505 59.8115C22.3927 59.7298 25.7434 57.77 29.7763 53.2694C33.4853 49.1364 38.4837 41.9846 41.2166 31.3978C43.8837 21.0994 43.3398 9.18757 42.9842 4.54349ZM22.581 2.1793C28.6805 2.21062 34.7687 2.70729 40.7925 3.66499C41.029 3.70306 41.2455 3.82059 41.4063 3.99821C41.4847 4.08367 41.5484 4.18159 41.5946 4.28797C41.6437 4.40122 41.6735 4.52185 41.6829 4.64491C41.7263 5.20204 41.7777 5.97517 41.8264 6.92216C41.8449 7.29095 41.8633 7.68739 41.8804 8.10755H22.581V2.1793ZM2.04621 6.6324H21.2758V8.10623H1.9764C2.00011 7.57413 2.02118 7.08153 2.04621 6.6324ZM21.2758 5.97386H2.08309C2.1147 5.44702 2.14631 4.9992 2.17397 4.64491C2.18018 4.57213 2.19386 4.50019 2.2148 4.43022H21.2732L21.2758 5.97386ZM3.06301 3.66499C9.08643 2.70726 15.1742 2.21059 21.2732 2.1793V3.77167H2.74427C2.84406 3.71916 2.9517 3.68313 3.06301 3.66499ZM21.2784 37.5143H21.2705V39.9286H21.2784V42.3441H21.2705V44.7584H21.2784V47.1726H21.2705V49.5829H21.2784V51.9971H21.2705V54.4114H21.2784V58.0228H21.2705C20.5119 57.4811 19.7756 56.9103 19.0618 56.3106C18.6412 55.9594 18.1934 55.5621 17.7183 55.1186L17.5168 54.9277C17.4207 54.8381 17.3232 54.7446 17.2244 54.6484C16.5211 53.9741 15.7756 53.2075 15.0051 52.3475C11.4108 48.3224 6.56121 41.3655 3.89804 31.0658C3.7356 30.4407 3.58545 29.808 3.4476 29.1679H21.2705V30.265V32.6806V35.0948H21.2784V37.5143ZM22.5837 31.4399H39.8587C39.7007 32.0326 39.536 32.6147 39.3648 33.1864H22.5837V31.4399ZM22.5837 33.8449H39.1646C38.9776 34.4394 38.784 35.0215 38.5838 35.5914H22.5837V33.8449ZM22.5837 36.2499H38.3519C38.1342 36.8453 37.9103 37.4274 37.6802 37.9964H22.5837V36.2499ZM22.5837 38.6549H37.4023C37.1503 39.2529 36.893 39.8351 36.6305 40.4014H22.5837V38.6549ZM22.5837 41.06H36.3197C36.0299 41.6606 35.7362 42.2427 35.4385 42.8064H22.5837V41.06ZM22.5837 43.465H35.0842C34.7532 44.07 34.4191 44.6521 34.0819 45.2115H22.5837V43.465ZM22.5837 45.87H33.6802C33.3009 46.4794 32.9216 47.062 32.5422 47.6178H22.5837V45.87ZM22.5837 48.2763H32.0852C31.6462 48.891 31.2142 49.4731 30.7892 50.0228H22.5837V48.2763ZM22.5837 55.4914H25.7263C24.7303 56.3989 23.6809 57.246 22.5837 58.0281V55.4914ZM26.4375 54.8328H22.5837V53.0877H28.1695C27.5702 53.7212 26.9894 54.3034 26.4375 54.8276V54.8328ZM28.8531 52.3462L28.778 52.4278H22.5876V50.6761H30.2716C29.7803 51.278 29.3061 51.8325 28.8531 52.3409V52.3462ZM40.0299 30.7761H22.5837V29.1679H40.4066C40.2907 29.7092 40.163 30.244 40.0299 30.7761ZM40.67 27.8508H3.18549C1.91713 21.2061 1.79991 14.1807 1.93425 9.42333H41.9239C42.0556 14.1807 41.9384 21.2061 40.67 27.8508Z" fill="white"></path>
<path d="M25.9716 19.324V16.6621H24.7138C24.4534 16.6649 24.1975 16.7294 23.967 16.8505C22.6499 17.5419 21.3486 18.2571 20.0434 18.967C19.9182 19.0355 19.801 19.1159 19.6812 19.187C19.7101 19.2449 19.7233 19.2897 19.7365 19.2963C20.6914 19.3068 21.6463 19.349 22.5972 19.3042C22.8712 19.291 23.1412 19.0302 23.4019 18.8761C23.6627 18.722 23.9459 18.5469 24.2884 18.3361V19.324H25.9716Z" fill="white"></path>
<path d="M38.2795 16.6573H34.6826V17.6926L34.5192 17.8572H33.2021V19.3205H37.2483C37.5494 19.0939 37.8462 18.856 38.1386 18.6066H36.163V18.2773H38.5153C38.5877 18.2141 38.6576 18.1456 38.7247 18.0864C38.8485 17.9705 38.9684 17.8519 39.0856 17.7281H36.1603V17.3949H39.3899C39.5795 17.1868 39.7652 16.9774 39.9562 16.7732L39.8851 16.6494C39.3503 16.6573 38.8143 16.6665 38.2795 16.6573Z" fill="white"></path>
<path d="M32.8741 19.3246V17.694L33.0374 17.5294H34.3545V16.6509H29.6775C29.7933 16.7262 29.8888 16.8289 29.9554 16.9499C30.0221 17.0711 30.0587 17.2066 30.0621 17.345C30.0621 17.8587 29.4536 18.1616 29.0532 18.3038L30.4586 19.3167L32.8741 19.3246Z" fill="white"></path>
<path d="M30.8446 19.6828C29.0665 20.8366 27.0948 21.4398 25.0164 21.6834C21.9502 22.0496 18.9236 21.7322 15.8771 21.0605C15.9272 21.0105 15.9809 20.9643 16.0378 20.9222C18.402 19.5445 20.7649 18.1563 23.1356 16.797C24.6595 15.9185 26.2045 15.0729 27.9443 14.7516C30.8103 14.2247 33.5618 14.5422 36.0906 16.1266C36.2007 16.1984 36.3071 16.2758 36.4093 16.3584H37.4248C36.545 15.4431 35.4663 14.8451 34.2875 14.4263C32.6884 13.8734 31.0196 13.5479 29.3299 13.4595C27.9154 13.3739 26.4771 13.3041 25.0665 13.4279C22.6562 13.6386 20.4567 14.6014 18.3901 15.8092C16.2683 17.0473 14.2018 18.3815 12.1208 19.6907C11.9981 19.7763 11.8568 19.8314 11.7085 19.8514C11.5599 19.8702 11.4089 19.8526 11.2686 19.8C9.56691 19.2626 7.84415 18.8003 6.03973 18.9702C5.51543 19.0238 5.00528 19.1724 4.53428 19.4088C3.84808 19.7539 3.70715 20.4823 4.17603 21.0987C4.4091 21.4207 4.71159 21.6863 5.06112 21.8757C5.6597 22.1854 6.29219 22.4245 6.94589 22.5883C9.30085 23.1323 11.5834 22.7819 13.8132 21.9218C14.0662 21.8202 14.3404 21.7826 14.6114 21.8125C15.6861 21.9785 16.7503 22.2077 17.8225 22.3762C21.1824 22.9255 24.5489 23.2455 27.9641 22.8794C31.2568 22.5264 34.2269 21.478 36.8479 19.6196H30.9355L30.8446 19.6828ZM4.73448 20.5824C5.53396 19.8342 8.12074 20.1438 9.63013 20.7588C7.99693 21.7546 5.25605 21.6545 4.73448 20.5824Z" fill="white"></path>
<path d="M29.737 17.3525C29.737 16.8638 28.9876 16.6597 28.6833 16.6597H26.2954V19.3202H29.899L28.5937 18.3811C28.5675 18.3631 28.5477 18.3373 28.5371 18.3074C28.5255 18.2781 28.5223 18.2461 28.5279 18.2152C28.5343 18.1843 28.5494 18.156 28.5713 18.1335C28.5924 18.1098 28.6206 18.0937 28.6517 18.0874C28.9309 18.0215 29.737 17.7436 29.737 17.3525Z" fill="white"></path>
<path d="M17.1472 43.5231L17.188 43.5363V43.4955C17.1195 42.883 16.785 42.7329 15.8801 42.6156H15.8459V42.5814C15.8602 42.446 15.8839 42.3118 15.917 42.1797C16.0145 41.7437 16.1146 41.2946 15.5219 41.0391L15.4823 41.022L15.5074 40.9877C15.5416 40.939 15.5772 40.8902 15.6141 40.8428C15.7247 40.7111 15.8485 40.5504 15.8485 40.3924C15.859 39.9275 16.1909 39.8142 16.4847 39.7141C16.6611 39.6522 16.9917 39.6258 17.0852 39.7233C17.2341 39.884 17.2999 40.1316 17.3645 40.37L17.3961 40.4859C17.4044 40.5665 17.3926 40.648 17.3618 40.723C17.3482 40.7662 17.3372 40.8102 17.3289 40.8547L17.3223 40.8902H17.3592C17.6226 40.8731 17.7543 40.8204 17.8097 40.719C17.865 40.6176 17.8465 40.5215 17.7543 40.3423C17.703 40.2422 17.6437 40.1435 17.5897 40.0513C17.5092 39.921 17.4358 39.7864 17.3697 39.6482C17.3276 39.5331 17.2472 39.4359 17.1419 39.373C17.0383 39.3108 16.9164 39.2862 16.7968 39.3031C16.5808 39.3111 16.3753 39.3031 16.2015 39.3031H15.9618L15.9776 39.257C16.0579 39.0042 16.133 38.8369 16.241 38.7882C16.349 38.7394 16.5044 38.7882 16.7441 38.9107C16.9825 39.0173 17.2101 39.1465 17.4237 39.2966C17.467 39.3369 17.5188 39.3671 17.5752 39.3848C17.6282 39.4001 17.684 39.4037 17.7385 39.3953C17.7843 39.3736 17.8247 39.3421 17.8571 39.3031C17.8895 39.2617 17.9125 39.2136 17.9242 39.1622L17.9374 39.1267L17.2933 38.7789C17.055 38.6472 16.8284 38.5274 16.5887 38.4036C16.1488 38.1783 15.9394 38.2271 15.6167 38.638C15.5708 38.6932 15.5138 38.7381 15.4494 38.7697C15.3856 38.8024 15.3155 38.8208 15.2439 38.8237H15.2347C15.0031 38.7592 14.7767 38.6769 14.5577 38.5774L14.3088 38.4773L14.3352 38.3087L15.3757 38.1889L15.3638 38.1573C15.3533 38.127 15.3441 38.0941 15.3335 38.0598L15.3256 38.0322C15.2914 37.911 15.2637 37.8069 15.1939 37.7885C14.9656 37.7201 14.7496 37.6161 14.5538 37.4803C14.1876 37.2511 13.8057 37.014 13.3118 37.2393L13.2828 37.2524L13.267 37.2235C13.0523 36.8283 12.8323 36.6084 12.5953 36.5649C12.3885 36.5307 12.1725 36.6255 11.9367 36.8547L11.8906 36.8994H12.4478L12.7441 37.641L12.6835 37.6331C12.4056 37.5962 12.1975 37.5922 12.0829 37.6989C11.9683 37.8056 11.9604 37.99 11.9736 38.2416V38.3048L12.0144 38.2574C12.208 38.0335 12.3319 37.8965 12.4333 37.8965C12.5057 37.8965 12.5808 37.965 12.6967 38.1006L12.7309 38.1388L12.5795 38.1968C12.3635 38.2758 12.2607 38.3193 12.2634 38.3825C12.2779 38.7434 12.5413 38.8303 12.8745 38.9409L13.159 39.041L12.7718 38.6143L12.7968 38.5313L12.8982 38.5458C12.9763 38.549 13.0526 38.5707 13.1208 38.609C13.3289 38.7631 13.5278 38.9291 13.7214 39.0871L13.919 39.2584C14.0098 39.3321 14.1033 39.4085 14.1955 39.481C14.2756 39.5333 14.3445 39.6009 14.3984 39.6798C14.452 39.7596 14.4896 39.8491 14.509 39.9433C14.5133 40.0168 14.502 40.0904 14.4761 40.1593C14.4512 40.227 14.4126 40.2888 14.3628 40.341C14.1354 40.5912 13.8931 40.8274 13.6371 41.0483L13.5818 41.0957L13.3789 41.2788L13.3289 41.3262L13.321 41.2564C13.2775 40.9047 13.3355 40.8797 13.7043 40.7124C14.023 40.5689 14.1995 40.3818 14.2232 40.1711C14.2403 40.0289 14.1942 39.8089 13.8742 39.56C13.6133 39.3387 13.2991 39.1893 12.9627 39.1267C12.6427 39.0871 12.2765 39.3084 12.1343 39.4059C11.992 39.5033 11.9512 39.8379 12.0237 39.9775C12.075 40.0763 12.2133 40.1171 12.3595 40.1619C12.4262 40.1792 12.4918 40.2008 12.5558 40.2264L12.6137 40.2488L12.5887 40.1909C12.5542 40.109 12.5146 40.0294 12.4701 39.9525C12.4328 39.8871 12.4027 39.8177 12.3806 39.7457V39.7286L12.3911 39.7141C12.4288 39.6607 12.4772 39.6158 12.5334 39.5824C12.5896 39.5521 12.6515 39.5338 12.7151 39.5284C12.7834 39.5255 12.8516 39.5367 12.9153 39.5613C12.9791 39.5852 13.0371 39.6225 13.0852 39.6706C13.1708 39.7536 13.1998 39.9498 13.1735 40.2567C13.1735 40.3041 13.1155 40.3516 13.0273 40.4174L13.0049 40.4345C12.9707 40.4578 12.9382 40.4833 12.9074 40.5109C12.7033 40.69 12.615 40.8257 12.6137 40.964C12.6124 41.1023 12.698 41.2274 12.8969 41.4118C13.1761 41.6673 13.3078 41.9387 13.292 42.2126C13.2762 42.4866 13.0958 42.7395 12.7823 42.9515L12.7217 42.9818C12.7144 42.985 12.7078 42.9895 12.702 42.995C12.7006 43.0006 12.7006 43.0065 12.702 43.0121V43.0266L12.7257 43.0411V43.0529L13.5041 44.9996L13.8992 44.9706L13.2512 43.2887L13.292 43.2795C13.6621 43.2031 13.9308 42.9555 14.1903 42.7157C14.5209 42.4089 14.8343 42.1191 15.3506 42.1494H15.3836V42.1836C15.3851 42.2151 15.382 42.2466 15.3743 42.2771V42.3127C15.3664 42.3917 15.3585 42.4655 15.3467 42.5366C15.3348 42.6077 15.3111 42.6947 15.2848 42.8L15.269 42.854C15.2598 42.8922 15.2479 42.9317 15.2374 42.9739L15.2295 43.0068H15.4534C15.5639 43.0134 15.6747 43.0134 15.7853 43.0068C16.1659 42.9726 16.4636 43.0187 16.6769 43.3624C16.7244 43.4401 16.8429 43.4691 16.9707 43.4941C17.03 43.5007 17.0889 43.5104 17.1472 43.5231Z" fill="white"></path>
<path d="M17.4604 33.8149C15.3662 32.6295 13.2457 32.6691 11.3267 33.9466C9.45904 35.1873 8.6003 37.1511 8.84923 39.6154C8.98094 40.9444 9.49592 42.2707 10.4297 43.6681C10.4936 43.7578 10.5384 43.8595 10.5615 43.9671C10.5832 44.074 10.5832 44.1842 10.5615 44.2911C10.4179 44.7771 10.489 44.9641 10.8868 45.1591C11.197 45.2973 11.5205 45.4036 11.8522 45.4765C11.9107 45.4693 11.9647 45.4418 12.005 45.3988C12.4146 44.7639 12.4001 44.5466 11.9141 43.9012C10.6089 42.1969 10.1268 40.7073 10.3481 39.0662C10.6431 36.8666 12.0866 35.5206 14.3073 35.3704C16.3 35.2387 18.2019 36.6401 18.6405 38.5644C18.9197 39.7959 18.738 41.084 18.0992 42.3919C17.816 42.9714 17.5039 43.518 17.1706 44.1041C17.0389 44.3385 16.9072 44.5716 16.7755 44.81L16.8519 44.9194C16.9652 45.0814 17.0824 45.25 17.2141 45.4067C17.2484 45.4501 17.294 45.4834 17.3458 45.5028L17.4999 45.4607C17.8183 45.3843 18.1275 45.2735 18.4219 45.1301C18.5371 45.0695 18.6237 44.9658 18.6629 44.8417C18.6799 44.7854 18.6853 44.7262 18.6787 44.6678C18.6724 44.6093 18.654 44.5528 18.6247 44.5018C18.4377 44.1515 18.5615 43.9091 18.7182 43.6708C19.5093 42.4654 20.0085 41.0922 20.1762 39.6602C20.4647 37.4909 19.2187 34.8133 17.4604 33.8149ZM10.705 42.6724C10.7221 42.7065 10.7266 42.7456 10.7176 42.7827C10.7087 42.8198 10.687 42.8526 10.6563 42.8752C10.6228 42.9002 10.5809 42.9113 10.5394 42.9062C10.4979 42.901 10.4601 42.88 10.4337 42.8476C10.0649 42.3905 8.82815 40.6507 9.28123 38.2496H10.0241C9.52885 40.1554 10.4482 42.1653 10.705 42.6724ZM12.4462 35.3217C11.5476 35.7565 10.8155 36.4729 10.3613 37.3619H9.517C10.1334 35.5443 11.1844 34.6473 11.8693 34.2364C11.9469 34.1901 12.0338 34.1617 12.1237 34.1532C12.2136 34.1447 12.3043 34.1563 12.3892 34.1872C12.474 34.2181 12.551 34.2675 12.6144 34.3318C12.6778 34.3962 12.7261 34.4738 12.7557 34.5591V34.5696C12.8054 34.7111 12.8013 34.8659 12.7442 35.0046C12.6872 35.1433 12.5811 35.2561 12.4462 35.3217ZM18.5957 42.8476C18.569 42.8798 18.5309 42.9006 18.4893 42.9058C18.4477 42.9109 18.4057 42.9 18.3718 42.8752C18.3411 42.8526 18.3194 42.8198 18.3105 42.7827C18.3016 42.7456 18.306 42.7065 18.3231 42.6724C18.5865 42.1653 19.5006 40.1554 19.004 38.2496H19.7469C20.1973 40.6507 18.9619 42.3905 18.5957 42.8476ZM18.6669 37.3619C18.213 36.4726 17.4808 35.7561 16.5819 35.3217C16.4463 35.2568 16.3394 35.1443 16.2815 35.0055C16.2237 34.8668 16.219 34.7116 16.2684 34.5696V34.5591C16.2981 34.4738 16.3464 34.3962 16.4098 34.3318C16.4732 34.2675 16.5501 34.2181 16.635 34.1872C16.7199 34.1563 16.8105 34.1447 16.9005 34.1532C16.9904 34.1617 17.0773 34.1901 17.1548 34.2364C17.8397 34.6473 18.8908 35.5443 19.5072 37.3619H18.6669Z" fill="white"></path>
<path d="M27.7271 3.93879C27.0778 3.57001 26.4206 3.58449 25.8279 3.97962C25.2352 4.37475 24.9823 4.9714 25.0587 5.73531C25.1149 6.18776 25.2829 6.61911 25.5473 6.9905C25.5663 7.01842 25.5797 7.04972 25.5868 7.0827C25.5941 7.11567 25.5941 7.14983 25.5868 7.1828C25.5434 7.33295 25.5644 7.3909 25.6883 7.44622C25.7842 7.48953 25.8844 7.52264 25.9872 7.545C26.0054 7.54233 26.0222 7.5335 26.0347 7.51997C26.1664 7.32373 26.1571 7.25655 26.0057 7.05767C25.6026 6.53084 25.4538 6.06854 25.5223 5.56014C25.6145 4.87788 26.061 4.46168 26.7485 4.41558C27.0531 4.39869 27.354 4.48868 27.5992 4.66999C27.8445 4.8513 28.0188 5.11256 28.092 5.40867C28.1759 5.81122 28.1167 6.23045 27.9247 6.59406C27.8364 6.77318 27.7403 6.94177 27.6362 7.1209L27.5124 7.34085L27.5361 7.37378C27.5717 7.42383 27.6073 7.47651 27.6481 7.52524C27.659 7.53856 27.673 7.54897 27.6889 7.55554L27.7377 7.54237C27.8363 7.51839 27.9321 7.48395 28.0235 7.43963C28.0594 7.42091 28.0864 7.38869 28.0985 7.35007C28.1018 7.33221 28.1018 7.31392 28.0985 7.29607C28.0962 7.27799 28.0904 7.26054 28.0814 7.2447C28.0589 7.2042 28.0496 7.15769 28.0548 7.11165C28.06 7.06561 28.0794 7.02234 28.1104 6.98787C28.3549 6.6147 28.51 6.1901 28.5635 5.74717C28.657 5.07676 28.2711 4.24831 27.7271 3.93879ZM25.6343 6.68099C25.64 6.69147 25.6417 6.7037 25.6391 6.71536C25.6364 6.72701 25.6295 6.73728 25.6198 6.74421C25.6093 6.752 25.5963 6.75552 25.5833 6.75406C25.5703 6.75259 25.5584 6.74624 25.55 6.7363C25.3931 6.53775 25.2803 6.30812 25.219 6.06266C25.1577 5.81719 25.1493 5.56149 25.1943 5.31252H25.4235C25.2707 5.90258 25.5552 6.52425 25.6343 6.68099ZM26.173 4.40505C25.895 4.54021 25.6684 4.7621 25.5276 5.03725H25.2642C25.3831 4.63773 25.6416 4.2942 25.9925 4.06918C26.0165 4.05494 26.0434 4.04622 26.0712 4.04364C26.099 4.04107 26.127 4.0447 26.1532 4.05428C26.1794 4.06386 26.2032 4.07915 26.2228 4.09904C26.2424 4.11893 26.2573 4.14292 26.2665 4.16928C26.2833 4.21314 26.2831 4.26175 26.2658 4.30544C26.2484 4.34912 26.2153 4.38468 26.173 4.40505ZM28.0788 6.7363C28.0703 6.74624 28.0584 6.75259 28.0454 6.75406C28.0325 6.75552 28.0194 6.752 28.009 6.74421C27.9992 6.73728 27.9924 6.72701 27.9897 6.71536C27.987 6.7037 27.9887 6.69147 27.9945 6.68099C28.0735 6.52425 28.358 5.90258 28.2052 5.31252H28.4344C28.4794 5.56149 28.471 5.81719 28.4097 6.06266C28.3484 6.30812 28.2356 6.53775 28.0788 6.7363ZM28.0999 5.03725C27.9594 4.76181 27.7328 4.53981 27.4545 4.40505C27.4127 4.38498 27.3798 4.35032 27.3618 4.30761C27.3439 4.26491 27.3422 4.21711 27.357 4.17324C27.3664 4.14683 27.3814 4.12282 27.4011 4.10293C27.4208 4.08304 27.4447 4.06777 27.471 4.0582C27.4973 4.04863 27.5254 4.045 27.5533 4.04759C27.5812 4.05017 27.6082 4.05889 27.6323 4.07313C27.9832 4.29815 28.2417 4.64168 28.3606 5.0412L28.0999 5.03725Z" fill="white"></path>
<path d="M32.6375 3.93879C31.9895 3.57001 31.3323 3.58449 30.7383 3.97962C30.1443 4.37475 29.894 4.9714 29.9704 5.73531C30.027 6.18746 30.1944 6.61864 30.4577 6.9905C30.4772 7.01832 30.491 7.04962 30.4986 7.0827C30.5052 7.11574 30.5052 7.14976 30.4986 7.1828C30.4538 7.33295 30.4762 7.3909 30.5987 7.44622C30.6946 7.48953 30.7948 7.52264 30.8976 7.545C30.916 7.5429 30.933 7.53397 30.9451 7.51997C31.0768 7.32373 31.0689 7.25655 30.9174 7.05767C30.5144 6.53084 30.3655 6.06854 30.434 5.56014C30.5249 4.87788 30.9727 4.46168 31.6602 4.41558C31.9646 4.39875 32.2653 4.48878 32.5104 4.67011C32.7554 4.85144 32.9295 5.11267 33.0024 5.40867C33.087 5.8112 33.0278 6.23066 32.8351 6.59406C32.7482 6.77318 32.6507 6.94177 32.548 7.1209L32.4242 7.34085L32.4479 7.37378C32.4821 7.42383 32.519 7.47651 32.5598 7.52524C32.5707 7.53856 32.5847 7.54897 32.6006 7.55554L32.6481 7.54237C32.7472 7.51861 32.8435 7.48416 32.9352 7.43963C32.9528 7.43029 32.9683 7.41756 32.981 7.40219C32.9936 7.38683 33.0031 7.36911 33.0089 7.35007C33.0127 7.33226 33.0127 7.31387 33.0089 7.29607C33.0073 7.27785 33.0014 7.26027 32.9918 7.2447C32.9695 7.20407 32.9604 7.15748 32.9658 7.11143C32.9713 7.06539 32.991 7.02219 33.0221 6.98787C33.2664 6.61471 33.4211 6.19006 33.4739 5.74717C33.5674 5.07676 33.1815 4.24831 32.6375 3.93879ZM30.546 6.68099C30.5511 6.69173 30.5523 6.7039 30.5494 6.71542C30.5465 6.72695 30.5397 6.73712 30.5302 6.74421C30.5199 6.75192 30.5071 6.7554 30.4943 6.75393C30.4816 6.75246 30.4699 6.74615 30.4617 6.7363C30.3043 6.53802 30.1911 6.30846 30.1296 6.06293C30.068 5.81741 30.0596 5.56158 30.1047 5.31252H30.3352C30.1864 5.90258 30.4656 6.52425 30.546 6.68099ZM31.0847 4.40505C30.8067 4.54021 30.5802 4.7621 30.4393 5.03725H30.1759C30.2939 4.63724 30.5526 4.29341 30.9042 4.06918C30.9282 4.05494 30.9551 4.04622 30.9829 4.04364C31.0107 4.04107 31.0387 4.0447 31.0649 4.05428C31.0912 4.06386 31.1149 4.07915 31.1345 4.09904C31.1541 4.11893 31.169 4.14292 31.1782 4.16928C31.1948 4.21317 31.1944 4.26166 31.1771 4.30527C31.1598 4.34887 31.1268 4.38445 31.0847 4.40505ZM32.9879 6.7363C32.9796 6.74615 32.9679 6.75246 32.9552 6.75393C32.9425 6.7554 32.9296 6.75192 32.9194 6.74421C32.9098 6.73712 32.9031 6.72695 32.9002 6.71542C32.8973 6.7039 32.8985 6.69173 32.9036 6.68099C32.9839 6.52425 33.2684 5.90258 33.1143 5.31252H33.3474C33.3923 5.56176 33.3834 5.8177 33.3214 6.06324C33.2594 6.30877 33.1457 6.53823 32.9879 6.7363ZM33.0103 5.03725C32.8694 4.7621 32.6429 4.54021 32.3649 4.40505C32.3229 4.3852 32.2898 4.35057 32.2718 4.30779C32.2538 4.26501 32.2523 4.21709 32.2674 4.17324C32.2766 4.14687 32.2915 4.12288 32.3111 4.10299C32.3307 4.0831 32.3544 4.06781 32.3807 4.05823C32.4069 4.04865 32.4349 4.04502 32.4627 4.04759C32.4905 4.05017 32.5174 4.0589 32.5414 4.07313C32.893 4.29736 33.1517 4.64119 33.2697 5.0412L33.0103 5.03725Z" fill="white"></path>
<path d="M37.5485 3.93879C36.8992 3.57001 36.242 3.58449 35.6493 3.97962C35.0566 4.37475 34.805 4.9714 34.8801 5.73531C34.9371 6.18758 35.1049 6.61877 35.3687 6.9905C35.3883 7.01811 35.4017 7.04952 35.4083 7.0827C35.4147 7.11576 35.4147 7.14974 35.4083 7.1828C35.3635 7.33295 35.3845 7.3909 35.5084 7.44622C35.6043 7.48953 35.7045 7.52264 35.8073 7.545C35.8256 7.54266 35.8425 7.53377 35.8548 7.51997C35.9865 7.32373 35.9772 7.25655 35.8258 7.05767C35.4241 6.53084 35.2739 6.06854 35.3437 5.56014C35.4346 4.87788 35.8811 4.46168 36.5686 4.41558C36.8734 4.39838 37.1746 4.48821 37.4201 4.66955C37.6657 4.85089 37.8402 5.11233 37.9134 5.40867C37.9973 5.81122 37.9382 6.23045 37.7461 6.59406C37.6579 6.77318 37.5617 6.94177 37.4577 7.1209L37.3339 7.34085L37.3576 7.37378C37.3931 7.42383 37.43 7.47651 37.4695 7.52524C37.4812 7.53833 37.4955 7.54868 37.5117 7.55554L37.5591 7.54237C37.6579 7.51881 37.7537 7.48436 37.8449 7.43963C37.8808 7.42091 37.9078 7.38869 37.92 7.35007C37.9232 7.33221 37.9232 7.31392 37.92 7.29607C37.9177 7.27799 37.9118 7.26054 37.9028 7.2447C37.8803 7.2042 37.871 7.15769 37.8762 7.11165C37.8814 7.06561 37.9009 7.02234 37.9318 6.98787C38.1771 6.61506 38.3322 6.19029 38.3849 5.74717C38.4837 5.07676 38.0886 4.24831 37.5485 3.93879ZM35.4544 6.68099C35.4601 6.69147 35.4618 6.7037 35.4592 6.71536C35.4565 6.72701 35.4496 6.73728 35.4399 6.74421C35.4349 6.74819 35.4291 6.75114 35.423 6.7529C35.4168 6.75466 35.4103 6.75518 35.404 6.75445C35.3976 6.75371 35.3915 6.75173 35.3859 6.74862C35.3803 6.74551 35.3754 6.74132 35.3714 6.7363C35.214 6.53802 35.1008 6.30846 35.0393 6.06293C34.9777 5.81741 34.9692 5.56158 35.0144 5.31252H35.2436C35.0922 5.90258 35.3767 6.52425 35.4544 6.68099ZM35.9944 4.40505C35.7161 4.53981 35.4895 4.76181 35.349 5.03725H35.0856C35.2045 4.63773 35.463 4.2942 35.8139 4.06918C35.838 4.05494 35.865 4.04622 35.8929 4.04364C35.9208 4.04105 35.9489 4.04468 35.9752 4.05425C36.0015 4.06382 36.0254 4.07909 36.0451 4.09898C36.0648 4.11887 36.0799 4.14288 36.0892 4.16928C36.1058 4.21317 36.1054 4.26166 36.0881 4.30527C36.0708 4.34887 36.0378 4.38445 35.9957 4.40505H35.9944ZM37.8976 6.7363C37.8891 6.74624 37.8772 6.75259 37.8642 6.75406C37.8513 6.75552 37.8382 6.752 37.8278 6.74421C37.818 6.73728 37.8111 6.72701 37.8085 6.71536C37.8058 6.7037 37.8075 6.69147 37.8133 6.68099C37.8923 6.52425 38.1781 5.90258 38.024 5.31252H38.2545C38.2995 5.56149 38.2911 5.81719 38.2298 6.06266C38.1685 6.30812 38.0557 6.53775 37.8989 6.7363H37.8976ZM37.92 5.03725C37.7791 4.7621 37.5526 4.54021 37.2746 4.40505C37.2324 4.38543 37.1991 4.35082 37.1811 4.30796C37.1631 4.26511 37.1617 4.21708 37.1771 4.17324C37.1863 4.14687 37.2012 4.12288 37.2208 4.10299C37.2404 4.0831 37.2641 4.06781 37.2904 4.05823C37.3166 4.04865 37.3446 4.04502 37.3724 4.04759C37.4002 4.05017 37.4271 4.0589 37.4511 4.07313C37.802 4.29815 38.0605 4.64168 38.1794 5.0412L37.92 5.03725Z" fill="white"></path>
<path d="M21.6555 6.53662H1.16943V8.51226H21.6555V6.53662Z" fill="white" opacity="0.3"></path>
<path d="M40.8137 28.9839H21.8896V30.9595H40.4185L40.8137 28.9839Z" fill="white" opacity="0.3"></path>
<path d="M39.4966 33.7251H21.8896V35.7007H39.1015L39.4966 33.7251Z" fill="white" opacity="0.3"></path>
<path d="M38.1795 38.5356H21.8896V40.5113H37.2575L38.1795 38.5356Z" fill="white" opacity="0.3"></path>
<path d="M35.5453 43.3462H21.8896V45.3218H34.6233L35.5453 43.3462Z" fill="white" opacity="0.3"></path>
<path d="M33.0428 48.1567H21.8896V50.1324H31.4623L33.0428 48.1567Z" fill="white" opacity="0.3"></path>
<path d="M29.2232 52.9673H21.8896V54.9429H26.9842L29.2232 52.9673Z" fill="white" opacity="0.3"></path>
<path d="M21.6555 1.92822H7.75491L1.16943 3.90387H21.6555V1.92822Z" fill="white" opacity="0.3"></path>
</g>
</svg>