<svg xmlns="http://www.w3.org/2000/svg" viewBox="0 0 657.8 237.1"><style type="text/css"> .st0{fill-rule:evenodd;clip-rule:evenodd;fill:#FFFFFF;} .st1{fill:#00A453;} .st2{fill:#FFFFFF;} .st3{fill:#EB212E;} </style><path class="st0" d="M43.5 5.7c5.9 0 7.2 4.2 6.6 8.3 -5.9 37.1-14.1 67.4-21.3 110.9 -2.3 13.7-2.4 15.9-5.5 35.3 -0.7 4.3 1.3 8.4 7.3 8.4 12.5 0 39.3-11.3 42.4-14.4 -2.4-34.5 18-64.5 48.7-65.7 12.1-0.5 17.7 9.6 17.7 17 0 15.4-12.1 31.7-29.9 41.2 -2.4 1.3-11.4 0.1-11.6 1.6 -1.4 8.2 7 13.7 12.8 14 9.5 0.4 34.5-14.2 36.2-17.3 8.9-16.4 17.4-25.7 25.3-33.3 5.8-5.6 19.3-15.8 30.7-16.8 17.5-1.4 20.5 13.6 20.3 21.8 -0.7 27.4-26.5 68.5-57.9 68.5 -8.7 0-21.3-3.1-21.5-20.8 -8.4 7.6-31.1 18.7-42.6 18.7 -10.2 0-17-3.5-22.9-13 -22.9 14.8-35.5 21.4-55.5 21.7 -13 0.2-24.3-1.6-22.2-16.3 0.4-2.8 2.5-31 5-45.4 5.9-34.4 7.7-62.1 16.3-98.1C26.2 13 37.1 5.7 43.5 5.7zM118.6 110.3c0.2 1.5 1.2 0.9 1.3 3.8 0.2 9.8-20.4 25.7-23.4 25.2v-5.1C96.3 128.2 108.7 109.4 118.6 110.3zM202.3 113.9c6 0 6.4 6.1 5.9 9.9 -1.4 9.7-15.3 40.4-28.8 40.4 -7.1 0-7.3-11.9-7.3-13.5C172 144.8 185.9 113.9 202.3 113.9z"/><path class="st0" d="M252.5 0h3.2c2.8 0 2.8 4 2.8 5.9 -1 22.7-1.9 29.1-1.6 40.8 0.7 36.5 6 78.8 17.4 106.1 8.5-17.7 18.1-37.1 25.8-55.2 7.6-17.8 13.5-43.5 17-60.8 0.6-2.7 2.9-3.5 8.5-5.4l9.9-2.6 0.2 5.7c0.1 2.8-1.5 11.3-2.3 15.6 -4.4 20.1-8.1 37.5-17.3 60.2 -4.1 10.1-32.1 85.8-53.9 84.4 -6.6-0.4-10.6-5.1-10.6-9.2 0-2.8 5.2-8.3 5.2-9.7 0-2.8-10.9-27.8-14.3-42.5 -5.5-24.4-10.4-50.6-12.6-76.4 -1-12.2-1.1-15.8-1.1-18.6C228.8 25.7 227.8 2.6 252.5 0z"/><path class="st0" d="M369.8 42.9c5.3 0.1 8.5 4 9 8.4 1.5 14.4-15.1 27.4-28.8 27.4 -1.2 0-3.1 0.2-4.3-1.4 -1.3-2.5-1.2-5.5-0.9-8.3C346 56.7 361.3 42.8 369.8 42.9z"/><path class="st0" d="M657.2 156c-9.9 17.1-33.9 31-48.8 31.7 -10.2 0.5-23.5-8.5-25.5-20.1 -21.4 14.9-36.7 22-55.9 20.7 -6.5-0.4-27.2-0.9-27.2-19.1 -1.2-0.9 0.5-1.7-0.5-2.4 -2.1-1.6-12.1 19.6-25.3 19.4 -16.4-0.3-17.7-19.8-17.7-27.9 0-2.8-0.2-13.4 0.9-21 0.7-3.5-0.5-3.8-1.2-4.7 -13.4 14.3-34.8 60.6-52.7 61.9 -6.4 0.5-6.6-10.2-6.6-13.9 0-2.8 3.4-26.5 5.6-38.6l-1.8-1.9c-18.3 15.6-38.1 37-57.2 37 -14 0.1-22.3-6.3-23-26.4 0-6.6 0-10.1 0-11.3 1.9-7.4-0.9-26.8 11.6-25.8 7.6 0.6 15.1-0.5 14.2 8.5 -0.3 2.8-2.2 15.2-2.2 18 0 3.8 1.3 15.4 9 15.7 13.8 0.6 45.1-39.9 49-44.8 6.9-8.3 11.9-9.1 17.8-9.1 9.4 0 9.1 5.4 9.1 12.9 0 2.8-1.5 14.3-2.6 22 0 0-1.4 3.5-0.7 4.5 8.3-12.4 23.6-37.1 39.1-36 6.3 0.5 9.8 7.2 9.8 11.9l0.7 32.6c0 4.8 2.3 9.7 5.7 9.7 4.4 0 32.7-27.1 39.1-33.9 8.1-8.4 13.4-12.1 22.1-17.7 6.9-4.4 21.5-11.4 24.3-11.3l10.6-1.2c0.2 2.7 1.9 5.7 1.9 8.5 0 2.8 1.1 5.4-0.9 6.8 -7.1 5-49.2 26.5-49.2 47.1 0 6.2 6.6 10.9 11.3 10.9l11.9-0.5c7.9-1.9 10.8-3 15.8-6.1 2.8-1.9 10.6-7.8 11.4-8.5 -2.3-32.9 19.1-59.1 49.8-60.4 12.1-0.5 17.7 9.6 17.7 17 0 15.4-12.1 31.7-29.9 41.2 -2.4 1.3-11.4 0.1-11.6 1.6 -1.4 8.2 7 13.7 12.7 14 9.5 0.4 30.6-12.1 32.2-15.1 0.1-0.2 3-3.2 5.7-1.4C659.1 152.4 657.2 156 657.2 156zM625.9 115c0.2 1.5 1.2 0.9 1.3 3.8 0.2 9.8-20.4 25.7-23.4 25.2v-5.1C603.6 132.9 616 114.2 625.9 115z"/><rect y="224.4" class="st1" width="217.3" height="12.8"/><rect x="217.3" y="224.4" class="st2" width="217.3" height="12.8"/><rect x="434.6" y="224.4" class="st3" width="217.1" height="12.8"/></svg>