<svg viewBox="0 0 417.95 84.11" xmlns="http://www.w3.org/2000/svg" width="2500" height="503"><g fill="#231f20"><path d="M83.02.16L57.28 26.71H26.17v12.01h18.26L0 83.98V.13zM170.68.13l-30.71 31.14v52.71l25.61-25.48V25.41h30.65L221.48.15zM92.51 84.11c19.15 0 29.06-9.98 34.1-18.96 3.37-6.01 4.98-12.84 4.98-19.72V0h-25.73v45.8c0 14.16-23.71 14.16-23.71 0V11.22L56.36 36.99v7.28c0 7.47 1.69 14.88 5.23 21.45 4.83 8.96 13.94 18.39 30.92 18.39zM230.71 84.03c19.15 0 29.06-9.98 34.1-18.96 3.37-6.01 4.98-12.84 4.98-19.72L270.83.07H245.1l-1.04 45.66c0 14.16-23.71 14.16-23.71 0V11.15l-25.79 25.77v7.28c0 7.47 1.69 14.88 5.23 21.45 4.83 8.96 13.94 18.39 30.92 18.39zM315.09.63L290.43 25.5h28.63c5.07.15 5.6 8.88 0 9.91h-39.74v24.9h20.04l23.26 23.26h30.19l-25.46-25.46c25.23-11.97 24.32-43.88 0-55.38-4.28-1.64-8.4-2.47-12.28-2.1zM389.02.51l-34.95 34.98v48.1h40.62l23.26-23.26H377.7v-8.81h21.99V33.33h-21.97v-8.79h35.3V.52z"/></g></svg>