<?xml version="1.0" encoding="utf-8"?>
<!-- Generator: Adobe Illustrator 18.1.1, SVG Export Plug-In . SVG Version: 6.00 Build 0)  -->
<svg version="1.1" id="Ebene_1" xmlns="http://www.w3.org/2000/svg" xmlns:xlink="http://www.w3.org/1999/xlink" x="0px" y="0px"
	 viewBox="0 0 141.7 70.9" enable-background="new 0 0 141.7 70.9" xml:space="preserve">
<g>
	<g>
		<g>
			<g>
				<g>
					<path fill="#FFFFFF" d="M51.8,15c2.5-0.1,5.1,0,7.6,0c2.5,0.1,5.2,0,7.4,1.4c1.8,1.1,2.7,3.2,3.2,5.1c0.9,3.3,0.5,6.8-0.3,10
						c-0.9,3.2-2.1,6.5-3.9,9.3c-1.6,2.5-3.4,4.8-5.7,6.6c-2.6,2.2-5.9,3.8-9.4,3.8l-11,0c-2.1,0-4.4-0.1-6.2-1.3
						c-1.9-1.1-2.9-3.3-3.4-5.4c-0.5-2.1-0.5-4.4-0.1-6.5c0.6-4.1,2.1-8,4.2-11.6c2.5-4.3,6-8.1,10.5-10.2
						C46.8,15.2,49.3,15,51.8,15z M48.9,22.7c-1.4,0.1-2.8,0.6-3.9,1.6c-1.8,1.6-3.2,3.6-4.2,5.8c-1.2,2.5-2,5.2-2,7.9
						c0,1.5,0.1,3.2,1.1,4.4c0.5,0.7,1.4,1,2.3,0.9c3.1,0,6.2,0,9.4,0c1.8,0,3.3-1,4.5-2.2c2.9-3.1,4.7-7,5.5-11.1
						c0.3-1.9,0.4-4.1-0.6-5.8c-0.7-1.1-2-1.5-3.2-1.5C54.7,22.5,51.8,22.6,48.9,22.7z"/>
				</g>
			</g>
		</g>
	</g>
	<g>
		<g>
			<g>
				<path fill="#FFFFFF" d="M78.3,15h18.1c2.4,0,4.6-0.2,6.5,1.1c1.9,1.2,2.8,3.6,2.7,5.8c0.1,4.3-2,8.4-5.1,11.4
					c0.9,2.5,0.5,5.3-0.5,7.8c-1.2,3.1-3.3,5.9-5.9,7.9c-1.9,1.4-4.2,2.3-6.6,2.4l-20.8,0l2.4-7.7l18.2,0c0.8,0,1.7,0.1,2.4-0.4
					c1.1-0.7,2.1-1.8,2.4-3.1c0.2-0.7,0.3-1.6-0.2-2.3c-0.4-0.6-1.2-0.6-1.8-0.6l-18.9,0l2.6-8.2c6.5,0,13,0,19.5,0
					c1.2,0,2.2-0.9,2.8-1.8c0.7-1,1.1-2.4,0.7-3.6c-0.3-0.7-1.1-1-1.8-1l-19,0L78.3,15z"/>
			</g>
		</g>
	</g>
	<g>
		<g>
			<g>
				<path fill="#FFFFFF" d="M134.5,51.3V23.1c0,0,0-3.4-0.4-4.9c-0.3-1.3-1.6-2.1-2.8-2.5c-2.3-0.8-4.8-0.8-7.2-0.3
					c-2.6,0.6-5.2,1.9-6.6,4.3c-7.1,10.4-13.8,21-20.5,31.7h10.1c5.1-8.1,10.2-16,15.5-24c0.8-1.2,3-4.9,3-3.4c0,0.2,0,8.7,0,8.7
					v15.9v2.8C131.1,51.3,134.5,51.3,134.5,51.3z"/>
			</g>
		</g>
	</g>
	<g>
		<g>
			<g>
				<path fill="#FFFFFF" stroke="#000000" stroke-width="3" stroke-miterlimit="10" d="M125.6,24.5"/>
			</g>
		</g>
	</g>
	<g>
		<g>
			<g>
				<g>
					<path fill="#FFFFFF" d="M109.2,66C109.2,66,109.2,66,109.2,66l0-4.8c0,0,0,0,0,0h-3.7c0,0,0,0,0,0V66c0,0,0,0,0,0H109.2z"/>
				</g>
			</g>
		</g>
		<g>
			<g>
				<g>
					<path fill="#FFFFFF" d="M99.6,61.2C99.6,61.2,99.6,61.2,99.6,61.2l-4,0v2.5h4c0,0,0,0,0,0V61.2z"/>
				</g>
			</g>
		</g>
		<g>
			<g>
				<g>
					<path fill="#FFFFFF" d="M79.3,63.5v-2.3c0,0,0,0,0,0h-4v2.3L79.3,63.5C79.3,63.5,79.3,63.5,79.3,63.5z"/>
				</g>
			</g>
		</g>
		<g>
			<g>
				<g>
					<path fill="#FFFFFF" d="M50.1,66C50.1,66,50.1,66,50.1,66l0-4.8c0,0,0,0,0,0h-3.7c0,0,0,0,0,0V66c0,0,0,0,0,0H50.1z"/>
				</g>
			</g>
		</g>
		<g>
			<g>
				<g>
					<path fill="#FFFFFF" d="M68.8,66v-4.8c0,0,0,0,0,0h-3.7c0,0,0,0,0,0V66c0,0,0,0,0,0L68.8,66C68.8,66,68.8,66,68.8,66z"/>
				</g>
			</g>
		</g>
		<g>
			<g>
				<g>
					<path fill="#FFFFFF" d="M119.8,63.5v-2.3c0,0,0,0,0,0h-4v2.3L119.8,63.5C119.7,63.5,119.8,63.5,119.8,63.5z"/>
				</g>
			</g>
		</g>
		<g>
			<g>
				<g>
					<path fill="#FFFFFF" d="M33.3,56.3c0,0-14.2,0.3-7-23.4L36.7,0H21.2L9.5,35.9c0,0-12.9,35,23.9,35h1.2h29.8h70.2V56.3H33.3z
						 M42,67.5h-2v-4.9L37.4,66h-1.6l-2.4-3.3v4.8h-2v-7.8h2l3.2,4.3l3.3-4.3h2V67.5z M52.2,66.2c0,0.4-0.2,1.3-1.6,1.3h-4.8
						c-1.4,0-1.6-0.9-1.6-1.3V61c0-0.4,0.2-1.3,1.6-1.3h4.8c1.4,0,1.6,0.9,1.6,1.3V66.2z M62,61.2h-3.3v6.3h-2.1v-6.3h-3.3v-1.5H62
						V61.2z M70.9,66.2c0,0.4-0.2,1.3-1.6,1.3h-4.8c-1.4,0-1.6-0.9-1.6-1.3V61c0-0.4,0.2-1.3,1.6-1.3h4.8c1.4,0,1.6,0.9,1.6,1.3
						V66.2z M79.5,67.5l-2-2.5h-2.2v2.5h-2.1v-7.8h6.7c1.4,0,1.6,0.9,1.6,1.3v2.7c0,0.4-0.2,1.3-1.5,1.3l2,2.5H79.5z M91.3,66.2
						c0,0.4-0.2,1.3-1.6,1.3h-4.8c-1.4,0-1.6-0.9-1.6-1.3l0-1.1h2.1l0,0.9c0,0,0,0,0,0h3.6c0,0,0,0,0,0v-1.7c0,0,0,0,0,0h-4.3
						c-1.4,0-1.6-0.9-1.6-1.3v-2c0-0.4,0.2-1.3,1.6-1.3h4.8c1.4,0,1.6,0.9,1.6,1.3v1.1l-2.1,0v-0.9c0,0,0,0,0,0h-3.6c0,0,0,0,0,0
						v1.6c0,0,0,0,0,0h4.2c1.4,0,1.6,0.9,1.6,1.3V66.2z M101.7,64c0,0.4-0.2,1.3-1.6,1.3h-4.5v2.3h-2.1v-7.8h6.7
						c1.4,0,1.6,0.9,1.6,1.3V64z M111.3,66.2c0,0.4-0.2,1.3-1.6,1.3H105c-1.4,0-1.6-0.9-1.6-1.3V61c0-0.4,0.2-1.3,1.6-1.3h4.8
						c1.4,0,1.6,0.9,1.6,1.3V66.2z M120,67.5l-2-2.5h-2.2v2.5h-2.1v-7.8h6.7c1.4,0,1.6,0.9,1.6,1.3v2.7c0,0.4-0.2,1.3-1.5,1.3l2,2.5
						H120z M131.5,61.2h-3.3v6.3H126v-6.3h-3.3v-1.5h8.8V61.2z"/>
				</g>
			</g>
		</g>
	</g>
</g>
</svg>
