<svg width="150" height="28" viewBox="0 0 150 28" fill="none" xmlns="http://www.w3.org/2000/svg">
<path d="M55.3893 27.7689C37.009 27.0061 24.7519 25.7611 15.7133 23.7382C6.90186 21.7657 2.0515 18.395 0.417568 13.1075C-0.352789 10.6143 -0.0581453 8.61177 1.309 7.05927C4.26935 3.69606 10.3036 2.6557 35.6236 1.1407C67.0497 -0.738586 101.651 -0.281087 132.233 2.41891C146.153 3.64784 150.84 6.1507 149.88 11.8443C149.203 15.8568 146.433 19.0818 141.746 21.3157C135.034 24.515 120.751 26.5528 97.1408 27.6789C89.4544 28.0453 63.4176 28.1021 55.3893 27.7689Z" fill="#FFD500"/>
<path d="M136.569 21.2904C134.501 21.8882 132.116 22.4132 129.378 22.8847C118.98 24.6739 106.559 25.65 87.5211 26.1814C65.514 26.7943 39.9583 25.7164 24.7879 23.5329C10.3922 21.4596 4.44256 18.6857 2.30078 13.0479C2.07149 12.4436 1.87435 11.415 1.86471 10.7625C1.83792 8.835 2.52471 7.89001 4.75863 6.79179C8.43471 4.98536 15.9036 4.08215 37.5251 2.82858C48.6979 2.18036 61.2475 1.85358 73.9515 1.84393C90.2865 1.83322 106.879 2.3475 121.133 3.36322C133.151 4.22036 137.703 4.71107 141.507 5.57036C147.085 6.83036 148.986 8.88107 147.895 12.4736C146.629 16.6468 143.261 19.3554 136.569 21.2914V21.2904ZM75.0154 2.25723e-06C61.6826 -0.00106917 48.3893 0.379286 35.6222 1.14321C10.3022 2.65714 4.27006 3.69858 1.30971 7.06179C-0.0563651 8.61429 -0.35208 10.6136 0.418277 13.1068C2.05221 18.3943 6.90685 21.7639 15.7183 23.7364C24.7568 25.7593 37.0086 27.0043 55.389 27.7661C63.4172 28.0993 89.454 28.0468 97.1404 27.6804C120.75 26.5532 135.034 24.5175 141.746 21.3182C146.433 19.0843 149.202 15.8571 149.878 11.8446C150.838 6.15214 146.153 3.64715 132.233 2.41822C114.074 0.814289 94.5025 0.00214511 75.0165 2.25723e-06H75.0154Z" fill="#0033A0"/>
<path fill-rule="evenodd" clip-rule="evenodd" d="M100.399 18.9255L109.513 7.9873L125.266 7.98945L134.463 18.9255H122.742L121.473 16.9048H113.262L114.86 14.9859H120.269L117.057 9.8741L109.513 18.9266L100.399 18.9255Z" fill="#0033A0"/>
<path fill-rule="evenodd" clip-rule="evenodd" d="M79.091 7.9873L75.3785 18.9266H99.34L101.024 16.9048H88.9868L92.0135 7.9873H79.091Z" fill="#0033A0"/>
<path fill-rule="evenodd" clip-rule="evenodd" d="M57.8421 17.013C53.7504 17.013 54.0043 15.1604 54.6643 13.3519C55.3254 11.5444 56.3196 9.69616 60.1746 9.69616C64.0296 9.69616 63.9964 11.299 63.3471 13.3519C62.6968 15.4058 61.9339 17.013 57.8421 17.013ZM60.9 7.92188C69.8089 7.92188 76.3178 10.4022 75.4254 13.4569C74.5339 16.5126 66.5764 18.993 57.6675 18.993C48.7586 18.993 42.2497 16.5126 43.1422 13.4569C44.0346 10.4022 51.9921 7.92188 60.9011 7.92188H60.9Z" fill="#0033A0"/>
<path fill-rule="evenodd" clip-rule="evenodd" d="M20.1048 7.9873L16.3923 18.9266H40.3537L42.038 16.9048H30.0005L33.0284 7.9873H20.1048Z" fill="#0033A0"/>
</svg>
