<?xml version="1.0" encoding="UTF-8" standalone="no"?>
<!-- Created with Inkscape (http://www.inkscape.org/) by Marsupilami -->
<svg
   xmlns:svg="http://www.w3.org/2000/svg"
   xmlns="http://www.w3.org/2000/svg"
   version="1.0"
   width="1024"
   height="225"
   viewBox="0 0 202.21841 44.537464"
   id="svg2488">
  <defs
     id="defs2490" />
  <g
     transform="translate(-227.46194,-598.66082)"
     id="layer1">
    <path
       d="M 43.1875,0 C 42.028125,0.042031248 40.403126,0.21687499 37.875,0.71875 C 32.81875,1.7225 32.156249,1.9924999 29.125,4.4375 C 26.095,6.8825 20.75,12.53125 20.75,12.53125 C 20.75,12.53125 10.24625,24.20125 4.34375,31.75 C 2.94125,33.54375 1.8037499,35.102501 1.125,36.21875 C 1.07375,36.3025 1.01625,36.387499 0.96875,36.46875 C -0.34,38.74375 -0.15125002,40.226251 0.53125,41.1875 C 1.52375,42.58625 3.5625,42.875002 3.5625,42.875 L 5.59375,42.96875 C 8.1225,43.13625 17.156251,42.96875 17.15625,42.96875 C 22.97375,42.52625 27.83125,41.788751 31.1875,41.1875 C 34.305,40.63 36.124999,40.187501 36.125,40.1875 C 38.39125,39.45375 38.656249,40.28125 38.65625,40.28125 C 38.65625,40.28125 38.993752,40.663751 39.625,41.1875 C 40.59875,41.99625 42.235001,43.12375 44.34375,43.5625 C 44.90875,43.68 45.530001,43.749998 46.15625,43.75 C 46.86375,43.75125 47.538751,43.68 48.21875,43.5625 C 50.695,43.13 52.92,42.012501 54.3125,41.1875 C 55.26875,40.62 55.843751,40.187501 55.84375,40.1875 C 57.26125,38.83625 58.391249,37.582499 59.3125,36.46875 C 61.23,34.14875 62.16125,32.44 62.5,31.75 C 62.6075,31.53125 62.656251,31.406251 62.65625,31.40625 C 63.228268,30.144737 63.962956,29.819924 64.1875,29.75 L 67.65625,28.96875 C 70.26875,28.365 69.15625,30 69.15625,30 L 68.1875,31.75 L 66.375,35.0625 C 66.07375,35.56125 65.817503,36.021249 65.5625,36.46875 C 64.3575,38.58625 63.63125,40.133751 63.21875,41.1875 C 62.7425,42.40375 62.656251,42.96875 62.65625,42.96875 L 69.40625,42.96875 C 69.73625,42.405 70.13625,41.800001 70.5625,41.1875 C 71.69,39.56875 73.073747,37.863749 74.25,36.46875 C 75.69625,34.7575 76.843753,33.531248 76.84375,33.53125 C 78.28375,31.6725 78.781248,33.093749 78.78125,33.09375 C 78.78125,33.09375 79.278751,34.625001 80.71875,34.625 C 82.16,34.625 83.49,33.687499 83.40625,33.6875 C 83.36,33.6875 84.59875,32.6675 85.71875,31.75 C 86.6275,31.005 87.468752,30.343751 87.46875,30.34375 C 90.26625,28.40125 88.968754,30.90625 88.96875,30.90625 C 88.77125,31.18875 88.5825,31.475 88.40625,31.75 C 87.22125,33.6 86.501247,35.238749 86.0625,36.46875 C 85.55875,37.88375 85.437497,38.750001 85.4375,38.75 C 85.4375,38.75 85.086253,39.942501 85.25,41.1875 L 85.21875,41.1875 C 85.34,42.10625 85.771248,43.06 86.84375,43.5625 C 87.255,43.75375 87.747496,43.871249 88.375,43.90625 C 89.615,43.97625 90.76875,43.8275 91.78125,43.5625 C 94.4175,42.87625 96.156251,41.468748 96.15625,41.46875 C 96.15625,41.46875 96.266253,41.360001 96.46875,41.1875 C 97.405,40.4 100.1775,38.056249 101.96875,36.46875 C 102.24375,36.225 102.5,36.011248 102.71875,35.8125 C 104.66125,34.0375 103.90625,36.062501 103.90625,36.0625 L 103.75,36.46875 L 101.9375,41.1875 L 101.125,43.3125 L 107.4375,43.3125 L 109.21875,41.1875 L 113.15625,36.46875 L 116.8125,32.09375 C 116.9575,31.95875 117.09875,31.85 117.21875,31.75 C 118.36125,30.785 118.4,31.2575 118.28125,31.75 C 118.21,32.04875 118.09375,32.343752 118.09375,32.34375 C 117.515,33.40125 117.025,35.001249 116.65625,36.46875 C 116.17375,38.39625 115.875,40.093749 115.875,40.09375 C 115.835,40.505 115.87125,40.872501 115.9375,41.1875 C 116.425,43.51125 119.40625,43.374999 119.40625,43.375 C 122.14875,43.17 124.475,42.075001 125.9375,41.1875 C 126.99375,40.54625 127.59375,40.031251 127.59375,40.03125 C 127.59375,40.03125 129.51125,38.451249 131.875,36.46875 C 133.675,34.96125 135.72625,33.22 137.4375,31.75 C 139.08875,30.33125 140.42501,29.166251 140.84375,28.71875 C 142.26625,27.19375 142.365,28.539999 142.28125,29.125 C 142.2375,29.42625 141.97624,30.54875 141.65625,31.75 C 141.35375,32.88375 140.99375,34.112498 140.75,34.8125 C 140.24875,36.2525 139.40626,36.218751 139.40625,36.21875 C 138.95875,36.29625 138.55125,36.381249 138.1875,36.46875 C 136.225,36.94375 135.33375,37.558749 133.90625,38.40625 C 133.045,38.91625 132.255,40.045001 132.0625,41.1875 C 131.915,42.055 132.12624,42.9425 132.90625,43.5625 C 133.11625,43.72875 133.3575,43.876251 133.65625,44 C 136.04875,44.99375 138.27499,44.0925 139.4375,43.5625 C 139.66625,43.45875 139.86,43.371251 140,43.3125 C 140.52625,43.09625 141.895,42.371251 143.40625,41.1875 C 144.35125,40.44625 145.35,39.514999 146.21875,38.40625 C 146.995,37.41625 147.545,36.826249 147.9375,36.46875 C 148.6875,35.78125 148.84375,35.968749 148.84375,35.96875 L 151.71875,35.71875 C 152.955,35.5225 153.28,36.021249 153.34375,36.46875 C 153.38875,36.785 153.3125,37.062502 153.3125,37.0625 C 153.42,38.86625 153.81251,40.228751 154.21875,41.1875 C 154.76375,42.47125 155.34375,43.062498 155.34375,43.0625 C 155.34375,43.0625 155.59625,43.28625 156.125,43.5625 C 157.47625,44.26625 160.53,45.28 165.1875,43.65625 C 165.28125,43.62375 165.37375,43.5975 165.46875,43.5625 C 167.1675,42.9425 168.8225,42.087501 170.3125,41.1875 C 173.2,39.44 175.51,37.473749 176.625,36.46875 C 177.0875,36.0525 177.34375,35.812498 177.34375,35.8125 C 180.3325,33.17 179.4125,36.339999 179.375,36.46875 L 177.09375,41.1875 L 175.96875,43.5625 L 175.90625,43.65625 L 182.5,43.65625 L 182.5625,43.5625 L 184.4375,41.1875 L 188.1875,36.46875 L 189.65625,34.625 C 191.0125,32.26375 192.53125,34.218748 192.53125,34.21875 C 194.47375,35.57625 196.90625,34.875 196.90625,34.875 C 199.83,33.85875 201.1575,32.61 201.75,31.75 C 202.16125,31.1525 202.21874,30.75 202.21875,30.75 C 200.46625,31.72625 199.43751,30.343751 199.4375,30.34375 C 198,28.24875 199.34375,24.093751 199.34375,24.09375 C 196.9825,24.5125 192.09375,29.656251 192.09375,29.65625 C 190.0675,31.93375 190.65625,30.15625 190.65625,30.15625 L 193.1875,25.1875 L 187.8125,25.09375 C 185.7975,25.075 184.93749,26.28125 184.9375,26.28125 C 183.5975,27.72125 181.32625,29.77625 179.0625,31.75 C 176.95375,33.59 174.85375,35.351249 173.5,36.46875 C 172.66,37.16125 172.1125,37.598749 172.03125,37.65625 C 171.67875,37.9075 167.57875,40.7 164.78125,40.28125 C 161.98375,39.8625 161.84376,36.906251 161.84375,36.90625 C 161.8275,36.75125 161.81,36.606249 161.8125,36.46875 C 161.85125,34.46 163.78125,34.468751 163.78125,34.46875 C 167.555,34.01375 170.38375,33.00625 172.5625,31.75 C 173.5925,31.15625 174.4925,30.489999 175.25,29.8125 C 177.61125,27.7025 176.24,25.76125 175.90625,25.59375 C 175.57125,25.4275 174.73751,23.747499 167.90625,24.25 C 161.07375,24.75125 156.03125,31 156.03125,31 C 155.84125,31.27125 155.6675,31.52 155.5,31.75 C 154.39125,33.275 153.75,33.937501 153.75,33.9375 L 151.3125,34.3125 C 148.18125,35.15 149.34375,33.187501 149.34375,33.1875 C 149.54625,32.6825 149.745,32.205 149.90625,31.75 C 151.6275,26.8675 151.125,24.75 151.125,24.75 L 144.375,24.75 C 142.59625,24.77625 141.84375,25.781251 141.84375,25.78125 C 140.25125,27.29625 137.47376,29.64875 134.9375,31.75 C 131.98,34.2025 129.37501,36.3125 129.375,36.3125 C 129.375,36.3125 129.2725,36.366249 129.125,36.46875 C 128.40375,36.965 126.1975,38.375001 125.15625,37.75 C 124.7675,37.5175 124.70125,37.027499 124.78125,36.46875 C 124.96,35.22125 125.90625,33.625001 125.90625,33.625 L 126.96875,31.75 L 130.71875,25.09375 L 125.65625,25.09375 C 122.615,25.00625 121.78125,26.28125 121.78125,26.28125 L 116.625,30.40625 C 113.34375,33.26875 114.375,30.593749 114.375,30.59375 L 116.46875,25.4375 L 109.0625,25.4375 C 109.0625,25.4375 106.2175,28.605 103.40625,31.75 C 101.82125,33.5225 100.24125,35.282499 99.1875,36.46875 C 98.45,37.2975 97.9575,37.838751 97.90625,37.90625 C 97.655,38.24125 95.481247,40.023751 94.125,39.4375 C 92.7675,38.8525 93.687501,37 93.6875,37 L 93.96875,36.46875 L 96.3125,31.75 L 99.6875,24.9375 L 92.6875,25.4375 C 87.715,29.65625 86.874997,29.3125 86.875,29.3125 C 84.5975,28.96 84.843749,24.843751 84.84375,24.84375 C 85.09375,22.91875 84.093753,24.093751 84.09375,24.09375 C 82.90375,24.93 81.656253,26.437501 81.65625,26.4375 C 76.935,31.66125 78.937502,25.937499 78.9375,25.9375 C 79.3975,24.6725 78.187498,24.843751 78.1875,24.84375 L 72.78125,25.09375 C 71.08875,25.01 70.843746,25.843749 70.84375,25.84375 C 69.58875,27.7025 65.775002,28.228749 64.6875,28.3125 C 63.6,28.39625 63.271249,27.98 63.1875,27.125 C 63.10375,26.27 62.25125,24.337499 61.75,23.5 C 61.34375,22.82375 60.548749,21.078749 57.4375,20.96875 C 55.07625,20.885 52.562502,24.249999 52.5625,24.25 L 49.34375,24.15625 C 46.1275,23.98875 45.125001,25.1875 45.125,25.1875 C 42.41375,27.51375 40.587501,29.875 39.40625,31.75 C 38.02,33.9475 37.531248,35.468751 37.53125,35.46875 C 36.89375,35.8375 35.9475,36.171249 34.875,36.46875 C 32.5375,37.11625 29.61375,37.577501 27.9375,37.75 C 25.4925,38.00125 19.75375,37.991249 18.0625,37.65625 C 16.965,37.44 16.61875,37.042499 16.71875,36.46875 C 16.7725,36.1575 16.954999,35.787499 17.21875,35.375 C 17.64375,34.715 18.975,33.06875 20.0625,31.75 C 20.905,30.72875 21.625,29.906249 21.625,29.90625 C 21.625,29.90625 27.270001,23.741251 31.40625,19.1875 C 35.5425,14.6325 42.625001,8.3125001 42.625,8.3125 C 42.625,8.3125 46.71375,5.205 48.65625,2.84375 C 50.59875,0.4825 48.250001,0.21874999 48.25,0.21875 C 48.25,0.21875 47.410001,0.062499999 45.71875,0.0625 C 45.048125,0.0625 44.346875,-0.042031248 43.1875,0 z M 102.53125,8.65625 C 100.76611,8.7597376 98.786094,9.9535154 97.375,11.96875 C 95.32375,14.89875 95.268751,18.435 97.28125,19.84375 C 99.29375,21.2525 102.60375,20.023751 104.65625,17.09375 C 106.70875,14.1625 106.73125,10.62875 104.71875,9.21875 C 104.08984,8.7785156 103.33359,8.6092102 102.53125,8.65625 z M 168.46875,26.15625 C 169.53593,26.08374 169.61039,27.830625 169.40625,28.375 C 169.155,29.04375 167.2375,30.57125 166.8125,30.84375 C 166.32625,31.155 164.94,31.85375 164.4375,31 C 163.93625,30.145 165.375,28.625 165.375,28.625 C 165.375,28.625 165.97625,27.8825 165.96875,27.875 C 165.96875,27.875 166.68125,27.142499 167.5625,26.53125 C 167.92367,26.280703 168.22248,26.172983 168.46875,26.15625 z M 51.4375,27.78125 C 51.920118,27.701135 52.301564,28.153907 52.5625,28.625 C 52.98125,29.3775 52.818749,29.4975 53.90625,30.25 C 54.5225,30.67625 54.691251,31.29125 54.71875,31.75 C 54.74,32.1 54.656251,32.343752 54.65625,32.34375 C 54.65625,32.34375 54.271251,34.297499 52.9375,36.46875 C 52.23,37.62 51.24875,38.8225 49.9375,39.84375 C 46.15375,42.79 46.156251,38.500001 46.15625,38.5 L 46.3125,37.3125 C 46.34375,37.0725 46.3975,36.794999 46.5,36.46875 C 46.89875,35.19625 47.8,33.365 48.65625,31.75 C 49.36125,30.42 50.033749,29.2275 50.4375,28.625 C 50.820937,28.053125 51.147929,27.829319 51.4375,27.78125 z M 138.34375,39.3125 C 138.71793,39.371326 138.92813,39.8625 138.71875,40.28125 C 138.555,40.60875 138.34876,40.906251 138.09375,41.1875 C 137.8275,41.4825 137.51875,41.755 137.21875,41.96875 C 136.63375,42.3875 135.87374,42.482499 136.125,41.8125 C 136.20875,41.5875 136.30875,41.377501 136.4375,41.1875 C 136.6925,40.8125 137.05001,40.448748 137.5625,39.78125 C 137.85172,39.404844 138.11924,39.277205 138.34375,39.3125 z "
       transform="translate(227.4616,598.67078)"
       style="fill:#000000;fill-opacity:1;fill-rule:evenodd;stroke:none"
       id="path3043" />
  </g>
</svg>
