<?xml version="1.0" encoding="UTF-8"?>
<svg width="212px" height="20px" viewBox="0 0 212 20" version="1.1" xmlns="http://www.w3.org/2000/svg" xmlns:xlink="http://www.w3.org/1999/xlink">
    <!-- Generator: sketchtool 51.1 (57501) - http://www.bohemiancoding.com/sketch -->
    <title>7E876739-C2A5-4B29-ACE5-D5CC161B1E08</title>
    <desc>Created with sketchtool.</desc>
    <defs></defs>
    <g id="Navigation" stroke="none" stroke-width="1" fill="none" fill-rule="evenodd">
        <g id="MF_D_Navigaton_Parts" transform="translate(-92.000000, -54.000000)" fill="#FDE022" fill-rule="nonzero">
            <g id="Navigation-/-Desktop-/-Static" transform="translate(0.000000, 33.000000)">
                <g id="Navigation">
                    <g id="Logo-/-Full-/-Desktop-/-Black" transform="translate(92.000000, 21.000000)">
                        <g id="Logo-/-Full-/-Yellow">
                            <path d="M185.670806,16.3466667 C187.336161,13.8213333 188.263033,10.168 187.338673,7.08266667 C186.625308,4.53066667 184.537962,1.576 181.812607,0.661333333 C180.60697,0.223736309 179.341592,0.000291816015 178.067441,0 C176.793455,0.0101202906 175.528852,0.232378307 174.319763,0.658666667 C171.521564,1.72533333 169.509573,4.528 168.793697,7.08 C168.082844,9.448 168.464645,12.1466667 169.431706,14.4213333 L163.154597,14.4 L163.154597,0.170666667 L157.301991,0.170666667 L157.271848,19.2453333 L169.969242,19.2453333 L169.936588,15.4666667 C170.099858,15.768 170.273175,16.0613333 170.45654,16.336 C172.008863,18.4426667 175.028104,19.7226667 178.062417,19.8213333 C181.099242,19.7333333 184.118483,18.4533333 185.670806,16.3466667 Z M180.119621,13.3013333 C179.593339,13.9220942 178.85347,14.291275 178.067441,14.3253333 L177.886588,14.3253333 C177.099812,14.2913843 176.359125,13.9222468 175.831896,13.3013333 C175.078341,12.4453333 174.739242,11.1466667 174.726682,9.80266667 C174.714123,8.45866667 175.083365,7.16 175.831896,6.304 C176.359385,5.68382708 177.100119,5.31562741 177.886588,5.28266667 L178.067441,5.28266667 C178.853163,5.31573663 179.593079,5.6839795 180.119621,6.304 C180.873175,7.16 181.239905,8.46133333 181.227346,9.80266667 C181.214787,11.144 180.870664,12.4453333 180.119621,13.3013333 Z" id="Shape"></path>
                            <path d="M110.533886,9.65866667 L116.183033,19.272 L128.016351,19.272 L130.093649,14.4373333 L135.4891,14.4986667 L137.440806,19.2773333 L143.391374,19.2773333 L149.382133,19.2773333 L149.357014,13.5093333 L153.627156,13.5093333 L153.627156,8.61866667 L149.357014,8.61866667 L149.357014,5.11733333 L156.121422,5.11733333 L156.121422,0.170666667 L143.393886,0.170666667 L143.393886,16.824 L136.167299,0.178666667 L129.651564,0.178666667 L122.899716,16.0773333 L122.899716,0.178666667 L117.33346,0.178666667 L117.398768,9.792 L117.300806,9.88533333 L112.025924,0.178666667 L105.253981,0.178666667 L105.223839,19.2746667 L110.53891,19.2746667 L110.533886,9.65866667 Z M133.117915,5.06666667 L134.961611,10.0613333 L131.110948,10.0613333 L133.117915,5.06666667 Z" id="Shape"></path>
                            <polygon id="Shape" points="197.4991 19.28 199.084076 11.1786667 200.593697 19.2746667 207.370664 19.2773333 211.816635 0.162666667 206.242844 0.162666667 204.080142 10.52 202.25654 0.170666667 196.117583 0.170666667 194.484882 10.6453333 194.487393 10.6586667 194.48237 10.6586667 194.484882 10.6453333 192.410095 0.16 186.901611 0.16 191.013507 19.28"></polygon>
                            <path d="M103.74436,19.0186667 L103.74436,7.96266667 L95.9978199,7.96266667 L95.9978199,11.4293333 L98.1253555,11.4293333 L98.1529858,13.6 C96.5956398,14.4746667 93.2046445,14.4666667 92.5113744,11.352 C91.9160664,8.664 93.6015166,6.46133333 94.9302844,5.864 C97.0452607,4.912 100.23782,5.35466667 102.300047,6.56 L101.905687,0.824 C97.7284834,-0.466666667 91.7176303,-0.384 88.5401422,3.264 C86.1664455,5.992 85.7394313,10.9093333 87.2063507,14.3546667 C89.6629384,20.1413333 93.2172038,20.0186667 103.74436,19.0186667 Z" id="Shape"></path>
                            <path d="M51.7390521,19.2853333 L51.7390521,9.968 L54.705545,19.272 L58.8174408,19.272 L61.6884834,9.90666667 L61.7763981,9.90666667 L61.7763981,19.28 L72.2583412,19.28 L74.2854028,14.48 L79.5602844,14.4986667 L81.569763,19.2693333 L88.6632227,19.2693333 L80.3464929,0.173333333 L73.8583886,0.173333333 L67.0487678,15.7333333 L67.0085782,0.178666667 L59.5282938,0.178666667 L56.8129858,10.0453333 L53.9494787,0.178666667 L46.4817536,0.178666667 L46.4968246,19.288 L51.7390521,19.2853333 Z M77.2091943,5.24 L79.1709479,10.2346667 L75.2248341,10.2346667 L77.2091943,5.24 Z" id="Shape"></path>
                            <path d="M209.769479,16.4373333 C210.247791,16.4373333 210.68977,16.7082379 210.928927,17.148 C211.168083,17.5877621 211.168083,18.1295713 210.928927,18.5693334 C210.68977,19.0090954 210.247791,19.28 209.769479,19.28 C209.030071,19.28 208.430664,18.6436474 208.430664,17.8586667 C208.430664,17.0736859 209.030071,16.4373333 209.769479,16.4373333 Z M209.754408,16.7226667 C209.185598,16.7559504 208.741624,17.2575222 208.745649,17.8622916 C208.749675,18.4670611 209.200283,18.9619211 209.769479,18.9866667 C210.044208,18.9818493 210.305546,18.8598299 210.494568,18.6481206 C210.68359,18.4364113 210.784382,18.152836 210.774218,17.8613333 C210.7837,17.5651279 210.68033,17.2773667 210.487468,17.0630838 C210.294607,16.8488008 210.028535,16.7260838 209.749384,16.7226667 L209.754408,16.7226667 Z M209.550948,18.5893333 L209.241991,18.5893333 L209.241991,17.1706667 C209.408362,17.1445573 209.576194,17.1303032 209.74436,17.128 C209.903499,17.1093056 210.063883,17.1488156 210.199005,17.24 C210.290074,17.3104031 210.341929,17.4245073 210.337156,17.544 C210.328484,17.7099946 210.214609,17.8484721 210.060853,17.88 L210.060853,17.896 C210.191469,17.9413333 210.256777,18.0533333 210.296967,18.2426667 C210.31351,18.3626784 210.346514,18.4794725 210.394929,18.5893333 L210.068389,18.5893333 C210.01713,18.4800118 209.981571,18.3631623 209.962891,18.2426667 C209.940284,18.096 209.857393,18.0266667 209.686588,18.0266667 L209.5409,18.0266667 L209.550948,18.5893333 Z M209.550948,17.7893333 L209.696635,17.7893333 C209.867441,17.7893333 210.008104,17.728 210.008104,17.5813333 C210.008104,17.4346667 209.917678,17.3653333 209.721754,17.3653333 C209.664444,17.3641858 209.607183,17.3695496 209.550948,17.3813333 L209.550948,17.7893333 Z" id="Shape"></path>
                            <path d="M0.251184834,8.10133333 C0.251184834,6.61066667 0.273791469,5.456 1.04492891,3.79733333 C1.81606635,2.13866667 4.21488152,0.048 6.82218009,0.048 C8.35974013,0.0429906081 9.8576164,0.565885191 11.0923223,1.53866667 C14.8952607,-1.2 18.0878199,0.578666667 19.4919431,1.61066667 C20.8960664,2.64266667 22.0263981,4.76 22.0263981,6.70666667 C22.0263981,8.65333333 22.0490047,10.024 22.0490047,12.1626667 C22.0490047,14.3013333 23.2722749,14.5893333 23.6791943,14.5893333 C24.0861137,14.5893333 25.3093839,14.4693333 25.3093839,12.1893333 L25.3093839,9.01333333 L39.1245498,9.01333333 L36.2509953,14.4933333 C36.2509953,14.4933333 30.3180095,14.5173333 30.3180095,14.4933333 C30.0919431,15.888 28.1000474,19.7813333 23.7872038,19.7813333 C18.9895735,19.7813333 16.8595261,15.48 16.8595261,12.9066667 C16.8595261,10.3333333 16.8369194,8.94133333 16.8369194,7.25866667 C16.8369194,5.576 15.8321801,5.264 15.2519431,5.264 C14.6717062,5.264 13.7121801,5.576 13.7121801,7.21066667 C13.7121801,8.84533333 13.7372986,15.312 13.7372986,15.312 L8.46241706,19.7093333 L8.46241706,7.42666667 C8.46241706,5.528 7.53554502,5.264 6.99047393,5.264 C6.44540284,5.264 5.43061611,5.576 5.43061611,7.52266667 L5.43061611,15.7333333 L0.243649289,19.7333333 L0.251184834,8.10133333 Z M32.1516588,0.101333333 C31.1846094,0.08927044 30.2260216,0.29371319 29.3383886,0.701333333 C28.5190278,1.08207522 27.7827031,1.63862244 27.1756872,2.336 C26.5707169,3.0406913 26.1029205,3.86538571 25.7991943,4.76266667 C25.5105314,5.6014882 25.3486113,6.48348873 25.3194313,7.376 L30.2401422,7.376 C30.3983886,6.19466667 31.1946445,5.6 32.6414692,5.6 L40.9305687,5.6 L43.8669194,0.096 L32.1516588,0.101333333 Z" id="Shape"></path>
                        </g>
                    </g>
                </g>
            </g>
        </g>
    </g>
</svg>