<svg viewBox="0 0 249.9 34.9" xmlns="http://www.w3.org/2000/svg"><g fill="#e7ae49"><path d="m189.6 13.3h11.1c1.6 0 3.3-.1 4.8-.8 2-.9 1.8-1.7 1.8-3.7s.1-2.8-1.8-3.7c-1.5-.7-3.1-.8-4.8-.8h-11.2v9.1zm1.4-1.4h9.1c1.5 0 2.7 0 4.1-.4.5-.1 1.2-.4 1.6-.7.4-.4.3-1.4.3-2s.1-1.7-.3-2c-1.2-1.1-4.3-1.1-5.7-1.1s-8.6 0-9.1 0v6.3zm-142.6 1.4h17.8c-.1-1.3 0-3.1 0-4.5s.2-2.5-1.1-3.4c-2.2-1.4-5.2-1.2-7.7-1.2s-5.7-.2-7.8 1.2c-1.4.9-1.1 1.9-1.1 3.3v4.5zm16.4-1.4c0-1.1 0-2.3 0-3.5s.2-1.7-1.2-2.2c-2.1-.8-4.2-.6-6.3-.6s-4.3-.2-6.3.6c-1.4.6-1.2.9-1.2 2.3s0 2.7 0 3.4zm89.5 1.4h17.9c0-.7 0-3.6 0-4.5 0-1.4.3-2.5-1.1-3.4-2.2-1.4-5.2-1.2-7.8-1.2s-5.7-.2-7.7 1.2c-1.4.9-1.2 1.9-1.2 3.3v4.5zm16.4-1.4c0-.2 0-2.9 0-3.4 0-1.3.2-1.7-1.2-2.3-2-.8-4.2-.6-6.3-.6s-4.4-.2-6.3.6c-1.4.6-1.2.9-1.2 2.3s0 3.1 0 3.4zm79.2-11.9v5.6h-11.8v17.9h-8.5v-17.9h-11.8v-5.6zm-30.7 1.4h29.3s0 2.8 0 2.8h-11.8v17.8h-5.7s0-17.8 0-17.8h-11.7v-2.8zm-52.2-1.4h-7.7c-.6.1-1.4.1-2.1.2-1.8.2-3.7.6-5.3 1.3-1.9.8-4 2.1-4.6 4.3-.4 1.2-.2 3-.2 4.3v13.4h8.5v-5.9h15s0 5.9 0 5.9h8.5s0-13.3 0-13.3c0-1.2 0-3.2-.2-4.3-1.1-3.8-6.5-5.2-10-5.6-.6 0-1.5 0-2-.2zm-12.7 22.1h-5.7v-14.6c0-2.6 1.9-4 4.2-4.8 4.4-1.6 8.8-1.3 13.4-1.3 3.5 0 11.8 1.1 11.7 6v14 .7h-5.7c0-.7 0-4.9 0-5.9h-17.8v5.9zm-93.2-22.1h-7.7c-.5.1-1.4.1-2 .2-3.5.4-8.9 1.9-10 5.6-.3 1.2-.2 3-.2 4.3v13.4h8.5v-5.9h15s0 5.9 0 5.9h8.5s0-13.3 0-13.3c0-1.2.1-3.2-.2-4.3-1.1-3.8-6.5-5.2-9.9-5.6-.6 0-1.6 0-2.1-.2zm-12.7 22.1h-5.7v-14.5c0-1.4.3-2.3 1.3-3.2.8-.7 1.8-1.3 2.8-1.7 4.3-1.7 8.8-1.3 13.4-1.3 3.1 0 8.2.8 10.5 3.1 1.3 1.4 1.3 2.4 1.3 4.2v13.4c-1 0-4.7 0-5.7 0v-5.9h-17.8v5.9zm154.2-22.1h-20.1v23.4h8.5v-5.9h10.6s1 .9 1.1 1c.8.6 1.6 1.3 2.3 2 .3.3 3.1 2.9 3.5 2.9h10.7c-.2-.3-1.8-1.7-2.2-2-.8-.6-1.5-1.3-2.3-1.9-.5-.4-4.4-3.7-4.5-3.9 1.7-.7 3.5-2.2 4-3.9.4-1 .3-2.6.3-3.8s0-2.2-.7-3.3c-1.8-2.9-6.2-4.1-9.4-4.5-.5 0-1.4 0-1.8-.2zm5.2 15.2c0 .2 4.1 3.6 4.9 4.3.6.6 2.6 2.2 3 2.6-1.2 0-4.4 0-6 0-.9 0-.7 0-1.4-.6-1.6-1.6-3.6-3.1-5.3-4.6-.5-.5-.6-.7-1.3-.7-4 0-8.1 0-12.1 0v5.9h-5.7s0-20.6 0-20.6h12.1c4.5 0 11.7-.4 15.5 2.7 1.7 1.4 1.7 2.4 1.7 4.4s.2 3.1-1.4 4.6c-1.3 1.3-2.6 1.5-4 2.1zm-63.9-15.2h-8.5v8.9h-15v-8.9h-8.5v23.4h8.5s0-8.9 0-8.9h15v8.9h8.5zm-24.9 22h-5.7c0-.3 0-9.1 0-10.3v-10.3h5.7s0 8.9 0 8.9h17.7v-8.9h5.7v20.6c-.1 0-5.2 0-5.7 0v-8.9h-17.8v8.9zm-10.4-22h-8.5v13.9l-15.9-13.9h-7.7v23.4h8.5v-13.3c.9.6 3.8 3.4 5 4.3.9.7 1.6 1.5 2.4 2.2.9.7 1.7 1.4 2.5 2.2 1.6 1.4 3.4 2.8 5 4.3.4.3.4.3.8.3h8.2l-.2-23.4zm-24.9 22h-5.7s0-20.6 0-20.6h4.8c1.1 0 .9 0 1.7.7.4.4.9.8 1.3 1.1.8.8 1.7 1.5 2.6 2.3.8.7 1.8 1.6 2.6 2.3 1.8 1.4 3.5 3 5.2 4.5.9.7 1.8 1.5 2.6 2.3.8.7 1.8 1.7 2.7 2.3v-15.5h5.7l.2 20.7c-1.6.1-4.2 0-6 0-.5 0-.6.1-1-.3s-.9-.8-1.3-1.1c-.9-.8-1.8-1.5-2.6-2.2s-1.7-1.6-2.6-2.3c-1.8-1.5-3.5-3.1-5.2-4.5-1.8-1.5-3.5-3-5.2-4.5v14.9zm-45.8-22h-6.1l-12.8 11.2-12.9-11.2h-6.1v23.4h8.5v-11.9l10.5 9.1c.4-.2.9-.9 1.3-1.1l3.9-3.4c.9-.8 1.8-1.5 2.6-2.3l2.7-2.3v11.9h8.4zm-18.9 18.8-7.4-6.4c-.5-.4-1-.9-1.5-1.3-.4-.4-2.7-2.4-3-2.6v13.5h-5.7c0-.3 0-19.8 0-20.7h3.6c.9 0 .6.1 1.2.6 1 .8 2.2 2 3 2.6.6.5 1.4 1.2 1.9 1.7l3.9 3.4c.6.5 1.4 1.2 2 1.7s1.3 1.2 2 1.7c1.3-1 3.4-3.1 4.8-4.2.9-.7 2.1-1.9 3-2.6l1.9-1.7c.9-.8 2.2-1.8 2.9-2.5.5-.5.6-.6 1.3-.6h3.7v20.6c-.2 0-5.2 0-5.7 0v-13.6c-.3.1-4.3 3.7-5.2 4.5-.2.2-.6.5-.8.7l-2.9 2.6c-.6.5-2.6 2.4-3 2.6z" fill-rule="evenodd"/><path d="m50.4 29.9h-50.4v5h50.4z"/><path d="m249.9 29.9h-50.4v5h50.4z"/><path d="m66.7 34.9c.9 0 1.3-.4 1.3-1.2v-.8c0-.8-.4-1.2-1.3-1.2h-2.4c-.2 0-.3 0-.3-.3v-.3c0-.2 0-.3.3-.3h1.9c.2 0 .2 0 .2.2 0 .2 0 .2.2.2h1.1c.1 0 .2 0 .2-.2v-.3c0-.9-.3-1.2-1.2-1.2h-3c-.9 0-1.3.4-1.3 1.2v.8c0 .8.4 1.2 1.3 1.2h2.4c.2 0 .3 0 .3.3v.3c0 .2 0 .3-.3.3h-2.1c-.2 0-.2 0-.2-.2 0-.2 0-.2-.2-.2h-1.1c-.1 0-.2 0-.2.2v.3c0 .9.3 1.2 1.2 1.2h3.1zm11.1 0c.1 0 .2 0 .2-.2v-5c0-.1 0-.2-.2-.2h-1.2c-.1 0-.2 0-.2.2v5c0 .1 0 .2.2.2zm10.2 0c.1 0 .2 0 .2-.2v-3.9l2 3.9s.1.1.2.1h2c.1 0 .2 0 .2-.2v-5c0-.1 0-.2-.2-.2h-1.1c-.1 0-.2 0-.2.2v3.9l-2-4s-.1-.1-.2-.1h-2c-.1 0-.2 0-.2.2v5c0 .1 0 .2.2.2h1.1zm17.5 0c.9 0 1.2-.3 1.2-1.2v-.5c0-.1 0-.2-.2-.2h-1.1c-.1 0-.2 0-.2.2v.2c0 .2 0 .2-.2.2h-1.6c-.5 0-.6 0-.6-.5v-1.9c0-.4 0-.5.6-.5h1.6c.2 0 .2 0 .2.2v.2c0 .1 0 .2.2.2h1.1c.1 0 .2 0 .2-.2v-.5c0-.9-.3-1.2-1.2-1.2h-3c-.9 0-1.3.4-1.3 1.2v2.9c0 .8.4 1.2 1.3 1.2h3zm15 0c.1 0 .2 0 .2-.2v-.9c0-.1 0-.2-.2-.2h-3.6v-.9h3c.1 0 .2 0 .2-.2v-.8c0-.1 0-.2-.2-.2h-3v-.8h3.6c.1 0 .2 0 .2-.2v-.9c0-.1 0-.2-.2-.2h-5c-.1 0-.2 0-.2.2v5c0 .1 0 .2.2.2h5zm24 0c.1 0 .2 0 .2-.2v-.8s0-.2-.2-.2h-1.3v-4s0-.2-.2-.2h-1s-.2 0-.3 0l-1.2.2c-.1 0-.2 0-.2.2v.7s0 .2.2.2h1.3v3h-1.3c-.1 0-.2 0-.2.2v.8s0 .2.2.2h4zm12.9 0c1.3 0 1.8-.5 1.8-1.7v-2.4c0-.8-.4-1.2-1.3-1.2h-3.3c-.9 0-1.3.4-1.3 1.2v.8c0 .8.4 1.2 1.3 1.2h2.1c.5 0 .8-.1 1-.4v.8c0 .4-.1.5-.6.5h-2c-.2 0-.3 0-.3-.3 0-.1 0-.2-.2-.2h-1c-.1 0-.2 0-.2.2v.2c0 .9.3 1.2 1.3 1.2h2.7zm-.1-3.1h-2.1c-.3 0-.4 0-.4-.3v-.4c0-.2 0-.3.4-.3h2.3c.3 0 .4 0 .4.3v.3c0 .3-.2.4-.5.4zm15 3.1c.9 0 1.3-.4 1.3-1.2v-.3c0-.7-.3-1.1-.9-1.2.6-.1.8-.5.8-1.2v-.2c0-.8-.4-1.2-1.3-1.2h-3.2c-.9 0-1.3.4-1.3 1.2v.2c0 .7.2 1 .8 1.2-.6.1-.9.5-.9 1.2v.3c0 .8.4 1.2 1.3 1.2h3.3zm-.6-3.2h-2.2c-.3 0-.4 0-.4-.3v-.4c0-.2 0-.3.4-.3h2.2c.3 0 .4 0 .4.3v.4c0 .2 0 .3-.4.3zm.1 2.1h-2.3c-.3 0-.4 0-.4-.3v-.4c0-.2 0-.3.4-.3h2.3c.3 0 .4 0 .4.3v.4c0 .2 0 .3-.4.3zm14.8 1.1c.9 0 1.3-.4 1.3-1.2v-.8c0-.8-.4-1.2-1.3-1.2h-2.1c-.5 0-.8.1-1 .4v-.8c0-.4.1-.5.6-.5h2c.2 0 .3 0 .3.3 0 .1 0 .2.2.2h1c.1 0 .2 0 .2-.2v-.2c0-.9-.3-1.2-1.3-1.2h-2.7c-1.3 0-1.8.5-1.8 1.7v2.4c0 .8.4 1.2 1.3 1.2h3.3zm-.5-1.1h-2.3c-.3 0-.4 0-.4-.3v-.3c0-.3.2-.4.5-.4h2.1c.3 0 .4 0 .4.3v.4c0 .2 0 .3-.4.3z"/></g></svg>