<svg height="2500" viewBox="1.403 54.326 297.632 203.949" width="2500" xmlns="http://www.w3.org/2000/svg"><path d="m32.395 57.015-6.947 2.553-3.804 2.673-3.804 2.671-5.003 5.463-5.001 5.461-2.839 6.057-2.839 6.056-.378 84.835-.377 84.836h92.983l.37-18.636.367-18.636 9.154 11.398 9.155 11.401 6.782 4.579 6.783 4.581 5.615 1.932 5.615 1.935 7.756.864 7.757.866 7.877-1.605 7.879-1.606 6.213-3.098 6.215-3.097 5.848-5.593 5.847-5.593 6.199-7.654 6.199-7.654v35.616l13.613.104 13.612.104 32.539.222 32.537.225.359-81.888.358-81.887-2.127-6.551-2.128-6.551-4-6.203-4-6.2-6.409-4.642-6.408-4.641-7.745-2.694-7.742-2.692-10.832.609-10.83.609-7.159 3.233-7.157 3.232-5.083 4.403-5.082 4.403-29.276 35.426-29.275 35.427-1.466 1.616-1.467 1.617-11.927-14.06-11.925-14.059-21.028-24.588-21.028-24.586-4.278-3.221-4.279-3.218-6.55-2.859-6.551-2.859-11.969-.494-11.97-.494zm5.817 14.514-3.785 1.197-4.302 2.907-4.3 2.909-3.201 4.606-3.201 4.608-.362 77.071-.363 77.071h58.451l.355-33.45.354-33.449 23.037 27.835 23.035 27.835 4.854 3.473 4.854 3.473 5.09 1.623 5.091 1.625 9.517-.52 9.519-.52 4.885-2.343 4.888-2.344 4.409-4.228 4.411-4.23 20.585-25.266 20.585-25.266.355 32.876.354 32.876h59.82l-.382-75.01-.384-75.009-2.479-4.585-2.48-4.586-2.832-3.074-2.834-3.077-5.312-2.797-5.312-2.797-10.625-.025-10.624-.022-6.4 3.11-6.402 3.108-37.873 45.696-37.876 45.696h-.693l-22.002-25.877-22.001-25.876-12.212-14.411-12.212-14.413-5.347-5.633-5.348-5.634-5.463-2.763-5.461-2.762-9.296-.413-9.297-.413zm2.46 11.064-3.984 1.746-3.019 3.233-3.021 3.233-1.296 4.459-1.296 4.46v131.762l19.589-.363 19.589-.362.35-40.944.351-40.944 1.642.066 1.641.064 31.209 37.563 31.211 37.564 5.312 2.966 5.312 2.967 6.44.022 6.439.021 4.54-2.126 4.54-2.124 5.621-6.169 5.622-6.168 25.77-31.668 25.774-31.668h3.571v81.233h39.842v-133.085l-2.988-5.841-2.989-5.841-5.312-2.93-5.312-2.932-5.436-.022-5.435-.022-5.568 2.948-5.569 2.948-23.228 28.169-23.226 28.169-16.9 20.62-16.899 20.619-2.452-.31-2.452-.313-41.389-48.476-41.389-48.478-5.912-2.948-5.911-2.948-4.699.052-4.699.051zm-1.328 4.974-2.656 1.503-1.617 2.059-1.618 2.061-.043 66.492-.042 66.493h29.183l.349-46.115.349-46.114 35.001 42.182 34.998 42.182 3.853 3.198 3.854 3.198 5.731.848 5.733.847 5.465-1.45 5.465-1.453 4.626-4.884 4.626-4.886 20.878-25.549 20.877-25.548 11.436-14.173 11.434-14.173.35 45.945.349 45.945h29.184v-132.532l-3.883-3.829-3.881-3.831h-16.017l-3.281 1.476-3.281 1.474-42.753 51.487-42.755 51.487-7.569-8.742-7.568-8.743-36.05-42.141-36.049-42.143-3.005-2.077-3.007-2.078-8.005.04-8.005.04z" fill="#040404" fill-rule="evenodd"/></svg>