<svg width="203" height="40" viewBox="0 0 203 40" fill="none" xmlns="http://www.w3.org/2000/svg">
<g clip-path="url(#clip0_1_37)">
<path d="M0 0H11.8042L22.892 21.1823L33.9798 0H45.7243L27.3612 32.0977H18.3545L0 0ZM0.71644 13.4245C4.46922 15.4557 9.3052 20.5849 11.0878 23.6231V39.3092H0.71644V13.4245ZM34.5768 23.6231C36.3679 20.5849 41.1953 15.4472 44.9481 13.4245V39.3178H34.5768V23.6316V23.6231Z" fill="white"/>
<path d="M92.2332 10.0791C95.3889 10.557 99.807 11.9908 102.605 13.4757V22.3685C104.217 22.488 105.88 22.5478 107.372 22.5478C109.641 22.5478 113.215 22.2491 114.409 21.5919C115.662 20.8153 116.558 18.3659 116.558 15.3277C116.558 10.1986 114.289 8.76478 108.328 8.76478H98.6726L90.3227 7.56997V0H108.328C122.341 0 126.929 4.89019 126.929 15.3277C126.929 22.966 123.356 27.9756 121.266 29.2899C119.535 30.3652 113.931 31.2614 108.745 31.2614C106.417 31.2614 103.978 31.1419 102.605 31.0821V39.3178H92.2332V10.0791Z" fill="white"/>
<path d="M130.452 7.57851V0H161.515V8.77332H138.802L130.452 7.57851ZM132.354 9.89985C135.092 10.2583 139.928 11.8116 142.725 13.2965V15.3874H158.402V23.8621H142.725V30.425H161.506V39.3178H132.354V9.89985Z" fill="#00AEEF"/>
<path d="M54.3386 17.4272C57.0253 14.9181 61.4348 13.2539 64.9487 13.0149L62.4583 24.4595H73.9043L69.6056 8.96961L56.6585 9.01228L58.6884 0H78.2285L88.3866 39.3092H77.657L76.045 32.9256H60.6672L59.4134 39.3092H48.9824L54.3301 17.4186L54.3386 17.4272Z" fill="white"/>
<path d="M173.754 39.3092L163.596 0H174.445L182.385 30.3482L195.332 30.3055L193.302 39.3178H173.762L173.754 39.3092ZM192.569 0H203L197.652 21.8906C195.435 23.9133 190.437 26.3029 187.042 26.3029L192.569 0Z" fill="#00AEEF"/>
</g>
<defs>
<clipPath id="clip0_1_37">
<rect width="203" height="39.3092" fill="white"/>
</clipPath>
</defs>
</svg>
