<?xml version="1.0" encoding="UTF-8"?> <svg xmlns="http://www.w3.org/2000/svg" xmlns:xlink="http://www.w3.org/1999/xlink" id="Group_550" data-name="Group 550" width="100.128" height="57.433" viewBox="0 0 100.128 57.433"><defs><clipPath id="clip-path"><rect id="Rectangle_288" data-name="Rectangle 288" width="100.128" height="57.433" fill="none"></rect></clipPath></defs><g id="Group_549" data-name="Group 549" clip-path="url(#clip-path)"><path id="Path_737" data-name="Path 737" d="M308.715,13.841c-.853,1.791-1.679,3.53-2.536,5.332a33.446,33.446,0,0,0-6.107-2.27c-1.643,4.535-3.277,9.037-4.918,13.561q-.665,1.837-1.336,3.682a21.122,21.122,0,0,0-2.583-1.464q.715-1.578,1.43-3.163l5.8-12.847c-.206-.152-.338-.249-.558-.412q.1-2.112.2-4.394h2.523Q303.321,5.93,306.011,0c.051.018.1.036.152.056-1.426,3.953-2.852,7.909-4.316,11.97a37.241,37.241,0,0,1,6.868,1.816" transform="translate(-228.52)" fill="#be1622"></path><path id="Path_738" data-name="Path 738" d="M414.1,107.969h-9.084l-.059-.121a31.327,31.327,0,0,0-4.685-7.018l-.134-.151,5.469-5.482.152.141a31.468,31.468,0,0,1,8.233,12.34Zm-8.816-.431h8.193A30.988,30.988,0,0,0,405.62,95.8l-4.89,4.9a31.75,31.75,0,0,1,4.557,6.841" transform="translate(-313.975 -74.697)" fill="#fff"></path><path id="Path_739" data-name="Path 739" d="M371.126,76.082l-.152-.157a30.875,30.875,0,0,0-6.715-5.144l-.171-.1,2.8-5.87.188.076a32.524,32.524,0,0,1,9.315,5.655l.175.152Zm-6.478-5.572a31.3,31.3,0,0,1,6.484,4.96l4.8-4.755a32.075,32.075,0,0,0-8.83-5.352Z" transform="translate(-285.687 -50.855)" fill="#fff"></path><path id="Path_740" data-name="Path 740" d="M290.873,137.828c-.327.222-.651.446-.976.665-.132.092-.266.181-.4.273-.777.528-1.551,1.056-2.342,1.6-.13-.092-.26-.181-.394-.271a21.09,21.09,0,0,0-2.583-1.464c-.307-.15-.622-.3-.943-.436s-.658-.282-.994-.416c.143-.208.286-.412.425-.615.5-.721.987-1.424,1.482-2.14.488.134.963.28,1.428.434l.031.011c.313.1.622.208.924.318q.8.292,1.565.627c.112.047.222.1.331.146l.237.107,0,0a23.348,23.348,0,0,1,2.2,1.164" transform="translate(-221.465 -105.943)" fill="#be1622"></path><path id="Path_741" data-name="Path 741" d="M283.469,58.307h-8.844l-.567-3.435.183-.054a32.628,32.628,0,0,1,9.22-1.24h.227Zm-8.479-.431h8.068l.179-3.865a32.122,32.122,0,0,0-8.692,1.168Z" transform="translate(-215.043 -42.041)" fill="#fff"></path><path id="Path_742" data-name="Path 742" d="M197.759,90.037c6.2-8.373,18-11.707,25.617-9.867l-.242,1.2c-10.06-1.642-18.433,1.412-25.374,8.666" transform="translate(-155.174 -62.521)" fill="#be1622"></path><path id="Path_743" data-name="Path 743" d="M239.37,65.857l-1.119-2.278.174-.1a29.626,29.626,0,0,1,6.552-2.813l.231-.068.605,3.38Zm-.555-2.108.782,1.593,5.724-1.671-.452-2.524a29.131,29.131,0,0,0-6.054,2.6" transform="translate(-186.946 -47.547)" fill="#fff"></path><path id="Path_744" data-name="Path 744" d="M215.369,80.668l-1.116-1.643,4.444-3.194,1.175,2.288Zm-.524-1.538.657.968,3.8-2.15-.758-1.475Z" transform="translate(-168.116 -59.502)" fill="#fff"></path><path id="Path_745" data-name="Path 745" d="M200.327,94.562l.79,1.183L197.841,98.5l-.58-.763Z" transform="translate(-154.783 -74.199)" fill="none" stroke="#fff" stroke-miterlimit="10" stroke-width="2"></path><path id="Path_746" data-name="Path 746" d="M373.99,126.652l-.866-.854,2.8-2.622.852.9-2.783,2.572" transform="translate(-292.776 -96.652)" fill="#be1622"></path><path id="Path_747" data-name="Path 747" d="M329.913,93.031l-1.126-.476,1.47-3.456,1.125.48-1.469,3.452" transform="translate(-257.987 -69.913)" fill="#be1622"></path><path id="Path_748" data-name="Path 748" d="M353.641,107.29l-1-.716L354.8,103.5l1.014.7-2.17,3.092" transform="translate(-276.702 -81.215)" fill="#be1622"></path><path id="Path_749" data-name="Path 749" d="M390.609,150.392l-.66-1.036,3.23-1.929.64,1.027-3.209,1.938" transform="translate(-305.978 -115.681)" fill="#be1622"></path><path id="Path_750" data-name="Path 750" d="M175.336,119.14l.609-1.446a21.923,21.923,0,0,1,3.192-5.168l.184-.231.662,1Zm3.954-6.113a24.512,24.512,0,0,0-2.067,3.046l2.228-2.8Z" transform="translate(-137.579 -88.114)" fill="#fff"></path><path id="Path_751" data-name="Path 751" d="M25.678,175.1l-3.067,10.052a2.043,2.043,0,0,1-1.948,1.433H19.029l2.261-7.388-9.85,6.246L5.4,179.194,3.56,185.149a2,2,0,0,1-1.925,1.433H0L3.067,176.53A2.035,2.035,0,0,1,4.993,175.1H6.515l6.134,6.358,9.156-5.8a3.565,3.565,0,0,1,1.9-.56Z" transform="translate(0 -137.392)" fill="#fff"></path><path id="Path_752" data-name="Path 752" d="M115,175.1h14.865l-3.089,10.052a2,2,0,0,1-1.925,1.433h-1.634l.783-2.6H112.761l-.358,1.164a2,2,0,0,1-1.925,1.433h-1.634l2.731-8.933A3.573,3.573,0,0,1,115,175.1m.269,3.134a1.007,1.007,0,0,0-.963.716l-.582,1.9h11.238l.806-2.619Z" transform="translate(-85.405 -137.392)" fill="#fff"></path><path id="Path_753" data-name="Path 753" d="M224.927,175.1l-.515,1.724a2.015,2.015,0,0,1-1.925,1.41h-5.709l-2.552,8.351h-3.134l2.552-8.351h-7.186l.537-1.7a2,2,0,0,1,1.925-1.433Z" transform="translate(-162 -137.392)" fill="#fff"></path><path id="Path_754" data-name="Path 754" d="M309.651,175.1l-.515,1.724a2.015,2.015,0,0,1-1.925,1.41H301.5l-2.552,8.351h-3.134l2.552-8.351h-7.186l.537-1.7a2,2,0,0,1,1.925-1.433Z" transform="translate(-228.479 -137.392)" fill="#fff"></path><path id="Path_755" data-name="Path 755" d="M371.687,175.149H386.53l-.515,1.724a2.015,2.015,0,0,1-1.925,1.41H371.956a.987.987,0,0,0-.963.716l-.112.314h14.372L383.8,184.1a3.56,3.56,0,0,1-3.425,2.53H365.508l.537-1.7a1.994,1.994,0,0,1,1.925-1.433H380.1a1.008,1.008,0,0,0,.963-.716l.112-.336H366.807l1.455-4.747a3.553,3.553,0,0,1,3.425-2.552" transform="translate(-286.8 -137.433)" fill="#fff"></path><path id="Path_756" data-name="Path 756" d="M1.164,249.775v-4.648H4.971a.814.814,0,0,1,.427.116.875.875,0,0,1,.307.307.8.8,0,0,1,.113.417v1.306a.815.815,0,0,1-.113.424.847.847,0,0,1-.307.3.832.832,0,0,1-.427.113l-3.109.006v1.655Zm.86-2.366H4.952a.157.157,0,0,0,.116-.045.149.149,0,0,0,.045-.11v-1.267a.161.161,0,0,0-.045-.113.152.152,0,0,0-.116-.048H2.024a.165.165,0,0,0-.162.162v1.267a.144.144,0,0,0,.048.11.16.16,0,0,0,.113.045" transform="translate(-0.913 -192.342)" fill="#be1622"></path><path id="Path_757" data-name="Path 757" d="M30.971,249.751V245.1h4.266v.7H31.676v1.274h2.864v.711H31.676v1.273h3.562v.7Z" transform="translate(-24.302 -192.318)" fill="#be1622"></path><path id="Path_758" data-name="Path 758" d="M59.909,249.775v-4.648h3.807a.814.814,0,0,1,.426.116.871.871,0,0,1,.307.307.8.8,0,0,1,.113.417v1.306a.815.815,0,0,1-.113.424.844.844,0,0,1-.307.3.832.832,0,0,1-.426.113l-3.109.006v1.655Zm.86-2.366H63.7a.157.157,0,0,0,.117-.045.15.15,0,0,0,.045-.11v-1.267a.162.162,0,0,0-.045-.113.153.153,0,0,0-.117-.048H60.769a.165.165,0,0,0-.161.162v1.267a.145.145,0,0,0,.048.11.16.16,0,0,0,.113.045m2.954,2.366-1.454-1.739h.912l1.357,1.609v.129Z" transform="translate(-47.008 -192.342)" fill="#be1622"></path><path id="Path_759" data-name="Path 759" d="M90.737,249.751V245.1H95v.7H91.442v1.274h2.864v.711H91.442v1.971Z" transform="translate(-71.198 -192.318)" fill="#be1622"></path><path id="Path_760" data-name="Path 760" d="M119.163,249.751a.811.811,0,0,1-.423-.113.853.853,0,0,1-.3-.3.815.815,0,0,1-.113-.423v-2.973a.815.815,0,0,1,.113-.424.856.856,0,0,1,.3-.3.814.814,0,0,1,.423-.113h2.974a.82.82,0,0,1,.42.113.85.85,0,0,1,.307.3.815.815,0,0,1,.113.424v2.973a.815.815,0,0,1-.113.423.848.848,0,0,1-.307.3.818.818,0,0,1-.42.113Zm.02-.7h2.928a.153.153,0,0,0,.117-.048.161.161,0,0,0,.045-.113v-2.935a.16.16,0,0,0-.045-.113.152.152,0,0,0-.117-.049h-2.928a.166.166,0,0,0-.161.161v2.935a.165.165,0,0,0,.161.161" transform="translate(-92.844 -192.318)" fill="#be1622"></path><path id="Path_761" data-name="Path 761" d="M149.242,249.775v-4.648h3.807a.814.814,0,0,1,.426.116.872.872,0,0,1,.307.307.8.8,0,0,1,.113.417v1.306a.815.815,0,0,1-.113.424.844.844,0,0,1-.307.3.832.832,0,0,1-.426.113l-3.109.006v1.655Zm.86-2.366h2.928a.157.157,0,0,0,.116-.045.15.15,0,0,0,.045-.11v-1.267a.162.162,0,0,0-.045-.113.153.153,0,0,0-.116-.048H150.1a.165.165,0,0,0-.161.162v1.267a.145.145,0,0,0,.048.11.16.16,0,0,0,.113.045m2.954,2.366-1.454-1.739h.912l1.357,1.609v.129Z" transform="translate(-117.104 -192.342)" fill="#be1622"></path><path id="Path_762" data-name="Path 762" d="M180.01,249.751V245.1h.834l1.8,2.146,1.8-2.146h.84v4.654h-.7v-3.717l-1.932,2.3-1.939-2.3v3.717Z" transform="translate(-141.247 -192.318)" fill="#be1622"></path><path id="Path_763" data-name="Path 763" d="M213.929,245.936a.815.815,0,0,1,.113-.424.859.859,0,0,1,.3-.3.814.814,0,0,1,.423-.113h2.967a.832.832,0,0,1,.427.113.851.851,0,0,1,.307.3.815.815,0,0,1,.113.424v3.814h-.7v-1.629h-3.251v1.629h-.7Zm3.95,1.487v-1.467a.161.161,0,0,0-.045-.113.152.152,0,0,0-.116-.049h-2.928a.166.166,0,0,0-.161.162v1.467Z" transform="translate(-167.862 -192.317)" fill="#be1622"></path><path id="Path_764" data-name="Path 764" d="M244.967,249.751V245.1h.834l3.116,3.71V245.1h.7v4.654h-.834l-3.122-3.717v3.717Z" transform="translate(-192.217 -192.318)" fill="#be1622"></path><path id="Path_765" data-name="Path 765" d="M276.785,249.751a.813.813,0,0,1-.423-.113.856.856,0,0,1-.3-.3.815.815,0,0,1-.113-.423v-2.973a.814.814,0,0,1,.113-.424.857.857,0,0,1,.3-.3.812.812,0,0,1,.423-.113h3.8v.7h-3.7a.232.232,0,0,0-.239.239v2.779a.232.232,0,0,0,.239.239h3.7v.7Z" transform="translate(-216.524 -192.318)" fill="#be1622"></path><path id="Path_766" data-name="Path 766" d="M306.683,249.751V245.1h4.266v.7h-3.562v1.274h2.864v.711h-2.864v1.273h3.562v.7Z" transform="translate(-240.642 -192.318)" fill="#be1622"></path></g></svg> 