<svg xmlns="http://www.w3.org/2000/svg" fill="none" viewBox="0 0 195 58" height="58" width="195">
<g clip-path="url(#clip0_25524_1229)">
<g clip-path="url(#clip1_25524_1229)">
<g clip-path="url(#clip2_25524_1229)">
<mask height="58" width="302" y="0" x="0" maskUnits="userSpaceOnUse" style="mask-type:luminance" id="mask0_25524_1229">
<path fill="white" d="M302 0H0V58H302V0Z"></path>
</mask>
<g mask="url(#mask0_25524_1229)">
<path fill="black" d="M121.558 26.7944L125.335 22.4739H125.545L129.224 26.7944H134.323L128.028 19.77L130.86 16.6829H137.596V26.7944H141.548V16.6829H147.318V13.5192H129.056L125.818 17.2474H125.622L122.502 13.5192H117.404L123.139 19.9443L118.516 24.9617L112.872 13.5192H108.472L102.646 25.338V13.5192H96.6591L94.372 19.2892C94.2671 19.5749 94.1482 19.8955 94.0153 20.2648C93.8824 20.6341 93.7496 20.9965 93.6307 21.3589C93.5118 21.7213 93.4068 22.0348 93.3299 22.3066H93.197C93.0921 22.0139 92.9802 21.6725 92.8613 21.2962C92.7354 20.9129 92.6165 20.5436 92.4906 20.1882C92.3647 19.8258 92.2528 19.5331 92.1479 19.3031L89.8608 13.5331H83.699V26.8153H87.4199V19.9652C87.4199 19.6167 87.4199 19.2683 87.4129 18.9199C87.4129 18.5714 87.3989 18.2509 87.3919 17.9582C87.3919 17.6655 87.3779 17.4216 87.3639 17.2404H87.5178C87.5807 17.4216 87.6647 17.6585 87.7626 17.9652C87.8605 18.2648 87.9654 18.5923 88.0913 18.9408C88.2172 19.2892 88.3431 19.6307 88.469 19.9652L91.2806 26.8153H94.8826L97.6733 19.9652C97.7782 19.7213 97.8831 19.4355 97.995 19.108C98.1069 18.7805 98.2188 18.446 98.3377 18.1115C98.4566 17.777 98.5475 17.4843 98.6315 17.2404H98.7853C98.7853 17.4704 98.7853 17.7491 98.7644 18.0697C98.7504 18.3902 98.7434 18.7178 98.7364 19.0523C98.7364 19.3868 98.7294 19.6864 98.7294 19.9582V26.8084H106.01L107.017 24.6829H114.144L115.152 26.8084H121.558V26.7944ZM108.332 21.7909L109.535 19.0871C109.626 18.9059 109.724 18.676 109.836 18.3902C109.948 18.1045 110.067 17.8118 110.193 17.5052C110.319 17.1986 110.431 16.9268 110.522 16.6969H110.654C110.703 16.8014 110.773 16.9617 110.85 17.1707C110.927 17.3868 111.018 17.6167 111.123 17.8676C111.228 18.1185 111.326 18.3554 111.41 18.5784C111.501 18.8014 111.571 18.9756 111.627 19.0871L112.83 21.7909H108.332Z"></path>
<path fill="black" d="M163.746 23.8467C164.453 22.8223 164.81 21.5888 164.81 20.1533C164.81 18.7177 164.453 17.4773 163.746 16.4529C163.033 15.4285 162.026 14.6481 160.725 14.0975C159.424 13.554 157.864 13.2752 156.06 13.2752C154.255 13.2752 152.731 13.547 151.423 14.0975C150.115 14.6411 149.101 15.4285 148.387 16.4529C147.674 17.4773 147.324 18.7108 147.324 20.1533C147.324 21.5958 147.681 22.8292 148.387 23.8467C149.094 24.8711 150.108 25.6515 151.423 26.2021C152.731 26.7456 154.283 27.0244 156.06 27.0244C157.836 27.0244 159.424 26.7526 160.725 26.2021C162.033 25.6585 163.04 24.8711 163.746 23.8467ZM159.445 23.1219C159.032 23.4425 158.536 23.6864 157.962 23.8536C157.389 24.0209 156.752 24.1045 156.053 24.1045C155.353 24.1045 154.724 24.0209 154.157 23.8536C153.591 23.6864 153.094 23.4425 152.675 23.1219C152.255 22.8014 151.933 22.4042 151.717 21.9373C151.5 21.4704 151.388 20.9407 151.388 20.3623V19.9024C151.388 19.338 151.5 18.8223 151.717 18.3554C151.933 17.8954 152.255 17.4982 152.675 17.1777C153.094 16.8571 153.591 16.6132 154.157 16.446C154.724 16.2787 155.36 16.1951 156.053 16.1951C156.745 16.1951 157.389 16.2787 157.962 16.446C158.536 16.6132 159.032 16.8571 159.445 17.1777C159.858 17.4982 160.179 17.8954 160.403 18.3554C160.627 18.8223 160.746 19.331 160.746 19.9024V20.3623C160.746 20.9407 160.634 21.4634 160.403 21.9373C160.179 22.4042 159.858 22.8014 159.445 23.1219Z"></path>
<path fill="black" d="M178.441 13.5122V19.4355C178.441 19.7073 178.441 20.0139 178.448 20.3624C178.448 20.7108 178.455 20.9965 178.455 21.2334H178.28C178.14 21.0662 177.965 20.885 177.77 20.6899C177.567 20.4948 177.378 20.3136 177.189 20.1324C177 19.9512 176.853 19.8118 176.735 19.7073L169.838 13.5122H166.313V26.7944H170.034V21.0453C170.034 20.6202 170.034 20.223 170.027 19.8467C170.02 19.4773 170.02 19.2056 170.02 19.0383H170.174C170.377 19.2334 170.65 19.4913 170.985 19.8327C171.321 20.1672 171.643 20.4669 171.951 20.7387L178.693 26.8014H182.162V13.5191H178.441V13.5122Z"></path>
<path fill="black" d="M94.4769 31.9512C93.3368 31.4564 91.959 31.2056 90.3573 31.2056H83.7129V44.446H90.3573C91.959 44.446 93.3298 44.1951 94.4769 43.6934C95.6169 43.1916 96.5052 42.453 97.1207 41.4773C97.7431 40.5017 98.0509 39.2822 98.0509 37.8258C98.0509 36.3693 97.7431 35.1498 97.1207 34.1672C96.4982 33.1847 95.6169 32.446 94.4769 31.9442M96.2884 38.0348C96.2884 38.9268 96.1345 39.6794 95.8337 40.3066C95.533 40.9338 95.1063 41.4425 94.5538 41.8397C94.0013 42.2369 93.3648 42.5296 92.6444 42.7108C91.924 42.892 91.1407 42.9826 90.3014 42.9826H85.4195V32.655H90.3014C91.1407 32.655 91.924 32.7456 92.6444 32.9338C93.3648 33.1219 94.0013 33.4146 94.5538 33.8118C95.0994 34.2091 95.526 34.7247 95.8337 35.3449C96.1345 35.9721 96.2884 36.7247 96.2884 37.6097V38.0348Z"></path>
<path fill="black" d="M102.478 38.3833H112.627V36.9199H102.478V32.655H113.718V31.2056H100.772V44.446H113.872V42.9826H102.478V38.3833Z"></path>
<path fill="black" d="M128.531 37.9512C127.979 37.6725 127.356 37.4564 126.671 37.2892C125.986 37.1219 125.279 36.9826 124.559 36.8641C123.831 36.7456 123.132 36.6341 122.447 36.5157C121.761 36.3972 121.139 36.2648 120.586 36.1045C120.034 35.9442 119.593 35.7352 119.278 35.4704C118.963 35.2056 118.803 34.8711 118.803 34.4599C118.803 34.0209 118.984 33.6516 119.355 33.3519C119.726 33.0522 120.271 32.8223 120.999 32.669C121.726 32.5157 122.635 32.439 123.719 32.439C124.664 32.439 125.454 32.5366 126.104 32.7317C126.748 32.9268 127.238 33.1777 127.566 33.4913C127.895 33.8049 128.063 34.1463 128.063 34.5017V34.9059H129.748V34.5226C129.748 34.1115 129.658 33.6934 129.469 33.2752C129.28 32.8571 128.958 32.4739 128.489 32.1254C128.021 31.777 127.391 31.4982 126.594 31.2962C125.79 31.0871 124.783 30.9895 123.573 30.9895C122.363 30.9895 121.376 31.0801 120.537 31.2613C119.705 31.4425 119.033 31.6934 118.516 32.0209C117.998 32.3484 117.628 32.7247 117.39 33.1498C117.159 33.5749 117.04 34.0348 117.04 34.5226C117.04 35.1777 117.201 35.7212 117.523 36.1533C117.844 36.5854 118.278 36.9338 118.831 37.1916C119.383 37.4564 119.999 37.6725 120.684 37.8397C121.369 38.007 122.076 38.1463 122.796 38.2578C123.517 38.3693 124.223 38.4808 124.915 38.5923C125.608 38.7108 126.223 38.8571 126.776 39.0383C127.321 39.2195 127.762 39.4564 128.084 39.7561C128.406 40.0488 128.566 40.439 128.566 40.9129C128.566 41.2613 128.475 41.5679 128.287 41.8327C128.098 42.0975 127.846 42.3205 127.531 42.4948C127.217 42.6759 126.846 42.8223 126.419 42.9268C125.993 43.0383 125.538 43.115 125.041 43.1707C124.552 43.2195 124.048 43.2474 123.531 43.2474C122.447 43.2474 121.509 43.1637 120.719 42.9895C119.929 42.8153 119.327 42.5575 118.907 42.209C118.488 41.8606 118.278 41.4355 118.278 40.9338C118.278 40.7944 118.278 40.6759 118.285 40.5854C118.285 40.4948 118.299 40.4181 118.313 40.3554H116.606C116.606 40.3554 116.585 40.4251 116.585 40.4878V40.6968C116.585 41.5191 116.774 42.1951 117.145 42.7247C117.516 43.2543 118.033 43.6585 118.684 43.9373C119.334 44.223 120.083 44.4181 120.922 44.5296C121.761 44.6411 122.642 44.6968 123.559 44.6968C124.887 44.6968 126.063 44.5714 127.077 44.3205C128.091 44.0697 128.881 43.6446 129.448 43.0522C130.014 42.4599 130.301 41.6725 130.301 40.6759C130.301 40.0348 130.14 39.4913 129.825 39.0453C129.511 38.5993 129.07 38.2439 128.517 37.9651"></path>
<path fill="black" d="M134.742 31.2056H133.036V44.446H134.742V31.2056Z"></path>
<path fill="black" d="M145.562 38.8502H151.857V39.1568C151.857 39.9651 151.654 40.6759 151.248 41.2892C150.843 41.9024 150.171 42.3763 149.241 42.7038C148.311 43.0383 147.052 43.2056 145.464 43.2056C144.247 43.2056 143.177 43.0383 142.24 42.7038C141.303 42.3693 140.568 41.8258 140.03 41.0662C139.491 40.3066 139.225 39.2892 139.225 38.0139V37.554C139.225 36.6132 139.4 35.8118 139.75 35.1498C140.1 34.4878 140.589 33.9582 141.212 33.561C141.834 33.1638 142.547 32.8711 143.352 32.6899C144.156 32.5087 144.995 32.4181 145.891 32.4181C146.653 32.4181 147.387 32.4669 148.101 32.5644C148.814 32.662 149.451 32.8293 150.017 33.0662C150.584 33.3031 151.031 33.6446 151.367 34.0766C151.696 34.5157 151.864 35.0801 151.864 35.777H153.528C153.528 34.9408 153.353 34.223 153.004 33.6167C152.654 33.0104 152.15 32.5157 151.486 32.1185C150.822 31.7282 150.017 31.4355 149.066 31.2474C148.115 31.0592 147.038 30.9686 145.842 30.9686C144.114 30.9686 142.617 31.2265 141.365 31.7421C140.114 32.2578 139.148 33.0244 138.477 34.0488C137.805 35.0732 137.47 36.3275 137.47 37.8258C137.47 40.1185 138.141 41.8327 139.477 42.9686C140.813 44.1045 142.827 44.6759 145.513 44.6759C146.394 44.6759 147.248 44.6063 148.08 44.4599C148.912 44.3205 149.681 44.0836 150.374 43.7421C151.073 43.4077 151.647 42.9547 152.101 42.3902L152.311 44.439H153.549V37.4146H145.569V38.8432L145.562 38.8502Z"></path>
<path fill="black" d="M168.377 40.0279C168.377 40.3136 168.377 40.6272 168.384 40.9826C168.384 41.338 168.391 41.6237 168.391 41.8397H168.258C168.125 41.7003 167.978 41.5401 167.803 41.3589C167.628 41.1777 167.453 40.9895 167.278 40.8014C167.104 40.6063 166.943 40.439 166.803 40.2996L157.969 31.2056H156.263V44.446H157.927V35.7003C157.927 35.3519 157.927 34.9826 157.92 34.5784C157.92 34.1812 157.913 33.8606 157.913 33.6167H158.046C158.214 33.7979 158.438 34.0418 158.725 34.3624C159.011 34.676 159.284 34.9756 159.557 35.2613L168.467 44.446H170.034V31.2056H168.37V40.0279H168.377Z"></path>
<path fill="black" d="M54.666 13.4913H41.552L43.6153 19.5749H38.5515L47.0074 44.4739H54.666C65.7098 44.4739 72.641 38.432 72.641 28.9826C72.641 19.5331 65.7098 13.4913 54.666 13.4913ZM54.666 38.3833H52.4349L45.9163 19.5749H54.6241C61.4224 19.5749 65.3601 23.2822 65.3601 28.9826C65.3601 34.6829 61.4224 38.3902 54.666 38.3902"></path>
<path fill="black" d="M38.5447 19.5749L36.4395 13.4913H28.9487L31.012 19.5749H25.9482L34.4042 44.4669H41.9368L33.3061 19.5749H38.5447Z"></path>
<path fill="black" d="M25.9482 19.5749L23.836 13.4913H16.3453L18.4086 19.5749H13.3308L21.7867 44.4669H29.3194L20.6886 19.5749H25.9482Z"></path>
</g>
</g>
</g>
</g>
<defs>
<clipPath id="clip0_25524_1229">
<rect fill="white" height="58" width="195"></rect>
</clipPath>
<clipPath id="clip1_25524_1229">
<rect fill="white" height="58" width="302"></rect>
</clipPath>
<clipPath id="clip2_25524_1229">
<rect fill="white" height="58" width="302"></rect>
</clipPath>
</defs>
</svg>
