<?xml version="1.0" encoding="UTF-8"?>
<svg width="364px" height="59px" viewBox="0 0 364 59" version="1.1" xmlns="http://www.w3.org/2000/svg" xmlns:xlink="http://www.w3.org/1999/xlink">
    <title>E7FC626C-2ADF-4B52-B2E8-17CCDD699513</title>
    <g id="Designs" stroke="none" stroke-width="1" fill="none" fill-rule="evenodd">
        <g id="0.0-Mish-Styleguide-V1" transform="translate(-100.000000, -60.000000)">
            <g id="Logo/V1" transform="translate(100.000000, 60.000000)">
                <path d="M138.365586,51.9138464 L138.365586,28.9610691 L133.563198,44.0557508 L129.067085,44.0557508 L124.387207,29.0287582 L124.387207,51.92 L115.64,51.92 L115.64,7.86666667 L123.339747,7.86666667 L131.345769,29.4595074 L139.35179,7.86666667 L147.106667,7.86666667 L147.106667,51.9138464 C147.106667,51.9138464 138.365586,51.9138464 138.365586,51.9138464 Z" id="Path" fill="#000000" fill-rule="nonzero"></path>
                <polygon id="Path" fill="#000000" fill-rule="nonzero" points="153.4 51.92 153.4 7.86666667 162.053333 7.86666667 162.053333 51.92 153.4 51.92"></polygon>
                <path d="M189.063844,48.6456172 C187.065169,50.5623291 183.678008,51.92 179.363113,51.92 C174.979728,51.92 171.723321,50.6851952 169.71842,48.7070503 C167.532954,46.5507494 166.773333,43.4606658 166.773333,38.9514783 L175.664632,38.9514783 C175.664632,40.745324 175.795386,42.0415619 176.611045,42.9692013 C177.109157,43.5220989 177.980853,44.0197068 179.363113,44.0197068 C180.739147,44.0197068 181.61707,43.6449651 182.183672,42.9077682 C182.806312,42.164428 183.055368,40.9910563 183.055368,39.2033539 C183.055368,35.0013317 182.364238,34.2641348 179.176321,32.967897 L173.547656,30.6764433 C169.033516,28.8273079 167.15937,26.4805645 167.15937,19.6246335 C167.15937,15.5454775 168.47314,12.1543718 171.162945,9.86291821 C173.292374,8.06907248 175.982178,7.08 179.363113,7.08 C183.304424,7.08 186.187247,8.06907248 188.129884,9.86291821 C190.570632,12.0867955 191.573083,15.6069105 191.573083,20.0485217 L182.681784,20.0485217 C182.681784,18.5065516 182.681784,17.0874476 181.92839,16.0983751 C181.430278,15.416468 180.676884,14.9864365 179.363113,14.9864365 C178.111607,14.9864365 177.302175,15.4779011 176.79161,16.1598082 C176.231234,16.8970051 176.038216,17.8246445 176.038216,19.3051815 C176.038216,22.0819564 176.542554,22.8867297 179.114057,23.9372352 L184.686685,26.1611125 C190.31535,28.4464228 191.946667,30.9160323 191.946667,38.8839019 C191.946667,43.343943 191.373838,46.4278833 189.063844,48.6456172 Z" id="Path" fill="#000000" fill-rule="nonzero"></path>
                <polygon id="Path" fill="#000000" fill-rule="nonzero" points="213.733168 51.92 213.733168 33.4813598 206.340604 33.4813598 206.340604 51.92 197.453333 51.92 197.453333 7.86666667 206.340604 7.86666667 206.340604 25.5606221 213.733168 25.5606221 213.733168 7.86666667 222.626667 7.86666667 222.626667 51.92 213.733168 51.92"></polygon>
                <polygon id="Path" fill="#000000" fill-rule="nonzero" points="228.92 51.92 228.92 7.86666667 237.573333 7.86666667 237.573333 51.92 228.92 51.92"></polygon>
                <path d="M266.587829,51.9138464 L266.587829,28.9610691 L261.786376,44.0557508 L257.291138,44.0557508 L252.612171,29.0287582 L252.612171,51.92 L243.866667,51.92 L243.866667,7.86666667 L251.571039,7.86666667 L259.575503,29.4595074 L267.579966,7.86666667 L275.333333,7.86666667 L275.333333,51.9138464 C275.333333,51.9138464 266.587829,51.9138464 266.587829,51.9138464 Z" id="Path" fill="#000000" fill-rule="nonzero"></path>
                <path d="M303.505169,48.2549804 C301.455162,50.6990435 298.725937,52.7066667 293.75529,52.7066667 C288.790817,52.7066667 286.185086,50.7052783 284.13508,48.2549804 C280.596967,43.9965747 280.843956,35.9099681 280.843956,29.8933333 C280.843956,23.8766986 280.590792,15.790092 284.13508,11.5316863 C286.185086,9.08762321 288.790817,7.08 293.75529,7.08 C298.725937,7.08 301.455162,9.08762321 303.505169,11.5316863 C307.043282,15.790092 306.796293,23.8766986 306.796293,29.8933333 C306.796293,35.9099681 307.043282,43.9965747 303.505169,48.2549804 Z M296.799425,16.8562522 C296.305448,15.8524406 295.366891,15.0980231 293.75529,15.0980231 C292.143689,15.0980231 291.334801,15.8524406 290.840823,16.8562522 C289.784946,18.9262239 289.661452,24.5064189 289.661452,29.8933333 C289.661452,35.2864826 289.784946,40.8604427 290.840823,42.9304145 C291.334801,43.9342261 292.143689,44.6886435 293.75529,44.6886435 C295.373066,44.6886435 296.305448,43.9342261 296.799425,42.9304145 C297.855302,40.8604427 297.978796,35.2802478 297.978796,29.8933333 C297.978796,24.500184 297.855302,18.9262239 296.799425,16.8562522 Z" id="Shape" fill="#000000" fill-rule="nonzero"></path>
                <path d="M326.134792,15.7874043 L326.134792,51.92 L317.358542,51.92 L317.358542,15.7874043 L309.946667,15.7874043 L309.946667,7.86666667 L333.546667,7.86666667 L333.546667,15.7874043 C333.546667,15.7874043 326.134792,15.7874043 326.134792,15.7874043 Z" id="Path" fill="#000000" fill-rule="nonzero"></path>
                <path d="M360.144353,48.2549804 C358.09384,50.6990435 355.363939,52.7066667 350.398238,52.7066667 C345.42636,52.7066667 342.819984,50.7052783 340.775647,48.2549804 C337.236658,43.9965747 337.483708,35.9099681 337.483708,29.8933333 C337.483708,23.8766986 337.236658,15.790092 340.775647,11.5316863 C342.82616,9.08762321 345.432536,7.08 350.398238,7.08 C355.363939,7.08 358.09384,9.08762321 360.144353,11.5316863 C363.683342,15.790092 363.436292,23.8766986 363.436292,29.8933333 C363.436292,35.9099681 363.683342,43.9965747 360.144353,48.2549804 Z M353.43695,16.8562522 C352.942851,15.8524406 352.010238,15.0980231 350.398238,15.0980231 C348.786237,15.0980231 347.977149,15.8524406 347.476873,16.8562522 C346.420735,18.9262239 346.303387,24.5064189 346.303387,29.8933333 C346.303387,35.2864826 346.420735,40.8604427 347.476873,42.9304145 C347.970973,43.9342261 348.786237,44.6886435 350.398238,44.6886435 C352.010238,44.6886435 352.942851,43.9342261 353.43695,42.9304145 C354.493088,40.8604427 354.616613,35.2802478 354.616613,29.8933333 C354.616613,24.500184 354.493088,18.9262239 353.43695,16.8562522 Z" id="Shape" fill="#000000" fill-rule="nonzero"></path>
                <polygon id="Path" fill="#F58426" fill-rule="nonzero" points="30.6957617 15.8375774 26.3574438 7.08 51.4912596 7.08 35.1020589 39.031133 63.2146056 14.210725 59.6426004 7.08 85.7466667 7.08 47.7523959 52.7066667 36.1773684 52.7066667 48.8153456 35.9644226 30.1642868 52.7066667 19.349392 52.7066667 28.1743462 34.6492277 13.6329475 52.7066667 0 52.7066667"></polygon>
                <g id="Group" transform="translate(99.906667, 0.000000)">
                    <line x1="0.790291859" y1="0" x2="0.790291859" y2="59" id="Path"></line>
                    <rect id="Rectangle" fill="#000000" fill-rule="nonzero" x="0" y="0" width="1.57333333" height="58.9938116"></rect>
                </g>
                <rect id="Rectangle" fill="#000000" fill-rule="nonzero" x="99.12" y="0" width="2.36" height="59"></rect>
            </g>
        </g>
    </g>
</svg>