<svg width="1792" height="382" viewBox="0 0 1792 382" fill="none" xmlns="http://www.w3.org/2000/svg">
<g clip-path="url(#clip0_70_35647)">
<path d="M232.946 149.146H74.3627V307.631H232.946V149.146ZM307.21 335.529L260.68 381.994H46.4315L0 335.529V121.281L46.6944 74.8164H260.746L307.21 121.281V335.529Z" fill="#FBB801"/>
<path d="M664.171 381.993H589.808V265.504H431.323V381.993H356.961V74.7832H431.323V191.141H589.808V74.7832H664.171V381.993Z" fill="#FBB801"/>
<path d="M956.167 381.993H713.231V74.7832H787.594V307.631H956.167V381.993Z" fill="#FBB801"/>
<path d="M1079.46 381.993H1005.23V74.7832H1079.46V381.993Z" fill="#FBB801"/>
<path d="M1435.73 381.862H1352.89L1202.88 191.667V381.862H1128.55V74.7832H1210.34L1361.37 266.654V74.7832H1435.73V381.862Z" fill="#FBB801"/>
<path d="M1778 149.146H1559.15V191.207H1746.46L1792 237.671V335.496L1746.82 381.961H1498.79V307.598H1717.64V265.537H1531.25L1484.79 219.072V121.248L1531.25 74.7832H1778.07L1777.97 149.146H1778Z" fill="#FBB801"/>
<path d="M128.845 0.519531H46.6616V37.6516H128.845V0.519531Z" fill="#FBB801"/>
<path d="M260.549 0.519531H178.3V37.6516H260.549V0.519531Z" fill="#FBB801"/>
</g>
<defs>
<clipPath id="clip0_70_35647">
<rect width="1792" height="381.474" fill="white" transform="translate(0 0.519531)"/>
</clipPath>
</defs>
</svg>
