<svg xmlns="http://www.w3.org/2000/svg" id="Ebene_1" viewBox="0 0 774.3 110"><defs><style>      .st0 {        fill: #1c0300;      }    </style></defs><path class="st0" d="M401.6,27.6h10.1v15.5h.3c1.9-5.2,4.5-9,7.8-11.6s7.9-3.9,14.1-3.9h7.3v9.1h-9c-6.7,0-11.8,2.1-15.2,6.2-3.4,4.1-5.1,10.3-5.1,18.4v46.8h-10.2V27.6h0Z"></path><path class="st0" d="M449.3,27.6h10.2v80.4h-10.2V27.6Z"></path><path class="st0" d="M486.2,104.7c-5.9-3.5-10.5-8.4-13.8-14.8-3.3-6.3-4.9-13.7-4.9-22.1s1.6-15.7,4.7-22.1c3.1-6.3,7.6-11.3,13.6-14.8,5.9-3.5,13-5.3,21.1-5.3s13.3,1.5,18.6,4.4,9.5,6.8,12.5,11.7c3,4.9,4.8,10.4,5.4,16.5h-10.8c-.3-4.3-1.5-8.2-3.6-11.8s-5-6.5-8.9-8.6c-3.8-2.1-8.2-3.2-13.2-3.2s-10.9,1.4-15.2,4.2c-4.3,2.8-7.6,6.7-10,11.8-2.3,5-3.5,10.7-3.5,17.2s1.3,12.6,3.8,17.5c2.5,5,5.9,8.8,10.3,11.6,4.3,2.7,9.2,4.1,14.6,4.1s9.2-1.1,12.9-3.4c3.7-2.2,6.7-5,8.8-8.4s3.4-6.8,3.9-10.3h10.8c-.8,5.6-2.7,10.7-5.8,15.4-3.1,4.7-7.2,8.5-12.4,11.3s-11.3,4.2-18.3,4.2-14.8-1.8-20.7-5.3h0v.2Z"></path><path class="st0" d="M378,13c-2.4,2.5-3.6,6.8-3.6,12.7h0v1.9h19.4v9.1h-19.4v71.4h-10.3V36.7h-11.1v-9.1h11.1v-1.9h0v-.6c0-8.1,2-14.3,6.1-18.6,4.1-4.3,10.1-6.5,18-6.5h13.4v9.2h-12.9c-4.8,0-8.3,1.3-10.7,3.8Z"></path><path class="st0" d="M459.8,0h-10.6v11.3h10.6V0Z"></path><path class="st0" d="M596.4,99v9.1h-17.2c-6.2,0-10.9-1.6-14.1-4.8-3.2-3.2-4.7-7.9-4.7-14v-52.5h-17.1v-9.1h17.1V0h10.1v27.6h25.9v9.1h-25.9v52.1c0,3.5.8,6.1,2.5,7.8,1.7,1.7,4.2,2.5,7.7,2.5h15.7Z"></path><path class="st0" d="M604.6,27.6h10.2v80.4h-10.2V27.6Z"></path><path class="st0" d="M642,104.9c-5.9-3.4-10.6-8.2-14.1-14.6s-5.2-13.9-5.2-22.4,1.7-16.1,5.2-22.4c3.4-6.4,8.1-11.3,14.1-14.6,5.9-3.4,12.6-5,20.1-5s13.9,1.7,19.8,5c5.9,3.4,10.6,8.2,14.1,14.6s5.3,13.9,5.3,22.4-1.7,16.1-5.3,22.4c-3.5,6.4-8.2,11.3-14.1,14.6-5.9,3.4-12.5,5-19.8,5s-14.2-1.7-20.1-5ZM676.6,97.1c4.3-2.6,7.7-6.4,10.2-11.4s3.7-10.9,3.7-17.8-1.2-12.9-3.7-17.8c-2.5-5-5.9-8.8-10.2-11.4s-9.2-3.9-14.5-3.9-10.3,1.3-14.6,3.9c-4.3,2.6-7.7,6.4-10.3,11.4-2.5,5-3.8,10.9-3.8,17.8s1.3,12.9,3.8,17.8c2.5,5,6,8.8,10.3,11.4s9.2,3.9,14.6,3.9,10.2-1.3,14.5-3.9Z"></path><path class="st0" d="M709.4,27.6h10.1v17.7h.3c2.3-6.1,5.9-10.9,10.8-14.4,4.9-3.5,10.5-5.2,17.1-5.2s10.3,1.3,14.3,3.9,7,6.4,9.2,11.4c2.1,5,3.2,11,3.2,17.9v49.1h-10.2v-47.8c0-8.8-1.8-15.2-5.3-19.2-3.6-4-8.3-6.1-14.4-6.1s-8.4,1-12.2,3.1c-3.7,2.1-6.8,5.3-9.1,9.7s-3.5,9.7-3.5,16.1v44.2h-10.2V27.6h0Z"></path><path class="st0" d="M615.1,0h-10.6v11.3h10.6V0Z"></path><path class="st0" d="M34.1,18.7H0V0h92.4v18.7h-34.3v89.4h-24.1V18.7h0Z"></path><path class="st0" d="M104.5,0h37.8l20.2,77.9h.3L183,0h37.3v108h-23.8v-45.8c0-11.9,0-21,.3-34.9h-.3l-22.4,80.7h-23.5l-22.5-80.7h-.3c.3,13.9.3,23,.3,34.9v45.8h-23.8V0h.2Z"></path><path class="st0" d="M232.4,0h43.7c30.3,0,52.8,19.4,52.8,54s-22.5,54-52.8,54h-43.7V0h0ZM273.3,89.4c19,0,29.8-11.9,29.8-35.3s-10.8-35.3-29.8-35.3h-16.8v70.7h16.8Z"></path></svg>