<svg width="691" height="231" viewBox="0 0 691 231" fill="none" xmlns="http://www.w3.org/2000/svg">
<g clip-path="url(#clip0_3201_19)">
<mask id="mask0_3201_19" style="mask-type:luminance" maskUnits="userSpaceOnUse" x="0" y="-4" width="691" height="235">
<path d="M691 -4H0V230.237H691V-4Z" fill="white"/>
</mask>
<g mask="url(#mask0_3201_19)">
<mask id="mask1_3201_19" style="mask-type:luminance" maskUnits="userSpaceOnUse" x="0" y="-4" width="691" height="235">
<path d="M691 -4H0V230.237H691V-4Z" fill="white"/>
</mask>
<g mask="url(#mask1_3201_19)">
<mask id="mask2_3201_19" style="mask-type:luminance" maskUnits="userSpaceOnUse" x="0" y="-4" width="691" height="370">
<path d="M690.59 -4H0V365.174H690.59V-4Z" fill="white"/>
</mask>
<g mask="url(#mask2_3201_19)">
<path d="M0.0449219 -0.238525V140.537H140.821V-0.238525H0.0449219Z" fill="white"/>
<path d="M2.69922 2.37915V137.881H25.678C25.678 137.881 23.4701 91.5553 58.3062 58.3135C93.1421 25.1126 138.201 32.0635 138.201 32.0635V2.37915H2.69922Z" fill="#0061AB"/>
<path d="M76.7471 137.88C76.7471 137.88 75.5618 112.448 94.5743 94.2937C113.546 76.1397 138.12 79.9009 138.201 79.9419V50.9527C138.201 50.9527 101.198 45.2285 72.5771 72.5412C43.9555 99.813 45.7954 137.92 45.7954 137.92H76.7881L76.7471 137.88Z" fill="#1A171B"/>
<path d="M89.7481 137.879C89.7481 137.879 88.8077 117.926 103.773 103.616C118.779 89.3048 138.16 92.2896 138.16 92.2896V137.838H89.7481V137.879Z" fill="#CFD1D2"/>
<path d="M204.76 140.538H177.324V-0.278564H214.696C244.176 -0.278564 263.434 11.497 263.434 43.4301C263.434 73.3188 247.201 87.8749 218.416 87.8749H204.801V140.538H204.76ZM204.76 65.1006H210.362C226.594 65.1006 235.385 61.5431 235.385 43.2257C235.385 24.9082 224.918 22.4958 209.626 22.4958H204.76V65.1006Z" fill="white"/>
<path d="M292.999 110.853L281.141 140.537H252.193L307.105 -4H328.407L381.806 140.537H352.49L341.655 110.853H292.999ZM316.427 37.2556H316.059L300.563 88.447H334.009L316.468 37.2556H316.427Z" fill="white"/>
<path d="M513.306 65.6317V69.2296C513.306 109.013 492.944 144.299 449.235 144.299C408.143 144.299 382.18 109.545 382.18 70.7018C382.18 31.8584 408.879 -4 450.911 -4C474.83 -4 495.724 8.1436 506.56 29.6096L482.272 42.6527C476.67 29.9367 464.731 20.2463 450.175 20.2463C423.64 20.2463 410.596 47.3139 410.596 70.6608C410.596 94.0072 423.844 119.971 450.339 119.971C467.512 119.971 481.904 105.047 482.477 88.0377H452.588V65.5907H513.306V65.6317Z" fill="white"/>
<path d="M557.545 140.538H530.109V-0.278564H557.545V140.538Z" fill="white"/>
<path d="M583.346 -0.278564H622.555C663.283 -0.278564 690.513 30.1827 690.513 70.334C690.513 110.486 662.504 140.538 622.35 140.538H583.305V-0.278564H583.346ZM610.778 116.66H615.276C649.053 116.66 662.135 97.974 662.135 70.1297C662.135 39.5049 646.435 23.6406 615.276 23.6406H610.778V116.66Z" fill="white"/>
<path d="M55.9316 231.35H47.4678V219.738C47.4678 213.359 44.851 212.664 39.2493 212.664H9.19697V231.391H0.365234V181.548H39.4947C53.8463 181.548 56.5449 186.7 56.5449 196.186V200.03C56.5449 205.591 54.0098 208.085 51.1068 209.27C54.4187 210.947 55.9724 213.809 55.9724 218.02V231.35H55.9316ZM9.19697 204.936H38.7178C46.1594 204.936 47.6314 202.851 47.6314 199.294V194.96C47.6314 190.953 46.6501 189.194 37.1232 189.194H9.19697V204.936Z" fill="white"/>
<path d="M196.009 231.349H185.869L179.981 221.331H143.428L137.54 231.349H127.4L157.002 181.507H166.365L195.968 231.349H196.009ZM147.966 213.644H175.484L161.745 190.379L148.007 213.644H147.966Z" fill="white"/>
<path d="M309.311 231.88H285.105C272.226 231.88 266.992 226.401 266.992 212.909V199.947C266.992 186.495 272.226 180.975 285.105 180.975H309.637C322.926 180.975 325.707 188.049 325.707 193.978V199.252H317.611V195.859C317.611 189.357 314.544 188.662 307.961 188.662H285.718C278.686 188.662 275.823 191.238 275.823 197.494V215.28C275.823 221.577 278.686 224.153 285.718 224.153H308.166C316.629 224.153 318.061 222.395 318.061 217.12V212.95H326.524V217.365C326.524 226.279 323.621 231.799 309.27 231.799L309.311 231.88Z" fill="white"/>
<path d="M411.855 231.349H402.982V181.507H411.855V231.349Z" fill="white"/>
<path d="M551.936 231.349H540.651L498.986 191.361V231.349H490.113V181.507H501.398L543.063 221.495V181.507H551.936V231.349Z" fill="white"/>
<path d="M673.339 231.88H646.882C634.005 231.88 628.77 226.401 628.77 212.909V199.947C628.77 186.495 634.005 180.975 646.882 180.975H671.09C683.599 180.975 689.9 185.759 689.9 195.245V198.189H681.432V196.962C681.432 189.644 680.453 188.703 664.138 188.703H647.538C640.505 188.703 637.641 191.279 637.641 197.535V215.321C637.641 221.618 640.505 224.194 647.538 224.194H672.601C678.978 224.194 681.719 221.945 681.719 216.67V213.113H657.434V205.426H690.591V213.195C690.591 226.81 685.929 231.88 673.339 231.88Z" fill="white"/>
</g>
</g>
</g>
</g>
<defs>
<clipPath id="clip0_3201_19">
<rect width="691" height="231" fill="white"/>
</clipPath>
</defs>
</svg>
