<?xml version="1.0" encoding="UTF-8"?>
<svg id="Layer_1" xmlns="http://www.w3.org/2000/svg" version="1.1" viewBox="0 0 500.18 77.76">
  <!-- Generator: Adobe Illustrator 29.7.1, SVG Export Plug-In . SVG Version: 2.1.1 Build 8)  -->
  <defs>
    <style>
      .st0 {
        fill: #fff;
      }

      .st1 {
        fill: #f47b20;
      }

      .st2 {
        fill: #e4e5e6;
      }
    </style>
  </defs>
  <g>
    <path class="st0" d="M144.79,65.67h2.36l3.19,9.84h-1.84l-.75-2.4h-3.64l-.75,2.4h-1.77l3.19-9.84h0ZM147.28,71.56l-1.35-4.37-1.35,4.37h2.7Z"/>
    <path class="st0" d="M151.61,67.92h1.62v1.08c.59-.67,1.11-1.15,2.49-1.15,1.49,0,2.08.59,2.08,1.9v5.76h-1.6v-5.64c0-.42-.15-.58-.74-.58-1.03,0-1.56.21-2.22.6v5.61h-1.62v-7.59h0Z"/>
    <path class="st0" d="M163.01,73.54v-5.9c0-1.33.63-1.97,1.97-1.97h3.44c1.33,0,1.97.63,1.97,1.97v5.9c0,1.33-.63,1.97-1.97,1.97h-3.44c-1.33,0-1.97-.63-1.97-1.97ZM165.23,73.96h2.95c.38,0,.52-.14.52-.52v-5.71c0-.38-.14-.52-.52-.52h-2.95c-.39,0-.53.14-.53.52v5.71c0,.38.14.52.53.52Z"/>
    <path class="st0" d="M171.99,73.56v-.49h1.59v.52c0,.48.14.62.53.62h1.8c.38,0,.53-.14.53-.87s-.14-.81-.58-.88l-2.14-.35c-1.17-.18-1.64-.59-1.64-1.98,0-1.6.59-2.19,1.85-2.19h2.07c1.26,0,1.85.59,1.85,1.9v.42h-1.59v-.44c0-.44-.15-.58-.53-.58h-1.53c-.38,0-.53.14-.53.77s.14.73.58.8l2.14.35c1.17.18,1.64.59,1.64,2.07,0,1.7-.59,2.29-1.86,2.29h-2.33c-1.27,0-1.86-.59-1.86-1.95h0Z"/>
    <path class="st0" d="M179.65,65.25h1.62v3.75c.59-.67,1.11-1.15,2.49-1.15,1.49,0,2.08.59,2.08,1.9v5.76h-1.6v-5.64c0-.42-.15-.58-.74-.58-1.03,0-1.56.21-2.22.6v5.61h-1.62v-10.26h0Z"/>
    <path class="st0" d="M187.71,65.25h1.6v6.27l2.74-3.6h1.91l-2.39,2.91,2.56,4.68h-1.74l-1.84-3.43-1.24,1.5v1.93h-1.6v-10.26Z"/>
    <path class="st0" d="M194.82,73.65v-3.88c0-1.27.59-1.86,1.85-1.86h2.5c1.26,0,1.85.59,1.85,1.86v3.88c0,1.27-.59,1.86-1.85,1.86h-2.5c-1.26,0-1.85-.59-1.85-1.86ZM196.97,74.09h1.93c.38,0,.53-.14.53-.53v-3.68c0-.39-.16-.53-.53-.53h-1.93c-.39,0-.53.14-.53.53v3.68c0,.39.14.53.53.53Z"/>
    <path class="st0" d="M202.49,73.56v-.49h1.59v.52c0,.48.14.62.53.62h1.8c.38,0,.53-.14.53-.87s-.14-.81-.58-.88l-2.14-.35c-1.17-.18-1.64-.59-1.64-1.98,0-1.6.59-2.19,1.85-2.19h2.07c1.26,0,1.85.59,1.85,1.9v.42h-1.59v-.44c0-.44-.15-.58-.53-.58h-1.53c-.38,0-.53.14-.53.77s.14.73.58.8l2.14.35c1.17.18,1.64.59,1.64,2.07,0,1.7-.59,2.29-1.86,2.29h-2.33c-1.27,0-1.86-.59-1.86-1.95h0Z"/>
    <path class="st0" d="M210.14,65.25h1.62v3.75c.59-.67,1.11-1.15,2.49-1.15,1.49,0,2.08.59,2.08,1.9v5.76h-1.6v-5.64c0-.42-.15-.58-.74-.58-1.03,0-1.56.21-2.22.6v5.61h-1.62v-10.26h0Z"/>
    <path class="st0" d="M221.55,73.54v-5.9c0-1.33.63-1.97,1.97-1.97h3.15c1.33,0,1.97.63,1.97,1.97v1.42h-1.69v-1.32c0-.38-.14-.52-.52-.52h-2.66c-.39,0-.53.14-.53.52v5.71c0,.38.14.52.53.52h2.66c.38,0,.52-.14.52-.52v-1.32h1.69v1.42c0,1.32-.63,1.97-1.97,1.97h-3.15c-1.33,0-1.97-.65-1.97-1.97h0Z"/>
    <path class="st0" d="M230.22,73.65v-3.88c0-1.27.59-1.86,1.85-1.86h2.5c1.26,0,1.85.59,1.85,1.86v3.88c0,1.27-.59,1.86-1.85,1.86h-2.5c-1.26,0-1.85-.59-1.85-1.86ZM232.37,74.09h1.93c.38,0,.53-.14.53-.53v-3.68c0-.39-.16-.53-.53-.53h-1.93c-.39,0-.53.14-.53.53v3.68c0,.39.14.53.53.53Z"/>
    <path class="st0" d="M238.21,67.92h1.62v1.15c.56-.66,1.11-1.15,2.25-1.15h.58v1.53h-.81c-.82,0-1.38.22-2.01.59v5.47h-1.62v-7.59h-.01Z"/>
    <path class="st0" d="M243.96,67.92h1.62v1.1c.59-.67,1.11-1.15,2.56-1.15,1.57,0,2.16.59,2.16,1.95v3.79c0,1.36-.59,1.95-2.16,1.95-1.45,0-1.97-.48-2.56-1.15v3.34h-1.62v-9.84h0ZM247.86,74.12c.67,0,.81-.15.81-.63v-3.54c0-.48-.14-.63-.81-.63-1.1,0-1.63.21-2.29.6v3.6c.66.39,1.19.6,2.29.6Z"/>
    <path class="st0" d="M251.92,73.65v-3.88c0-1.27.59-1.86,1.85-1.86h2.5c1.26,0,1.85.59,1.85,1.86v3.88c0,1.27-.59,1.86-1.85,1.86h-2.5c-1.26,0-1.85-.59-1.85-1.86h0ZM254.07,74.09h1.93c.38,0,.53-.14.53-.53v-3.68c0-.39-.16-.53-.53-.53h-1.93c-.39,0-.53.14-.53.53v3.68c0,.39.14.53.53.53Z"/>
    <path class="st0" d="M259.91,67.92h1.62v1.15c.56-.66,1.11-1.15,2.25-1.15h.58v1.53h-.81c-.82,0-1.38.22-2.01.59v5.47h-1.62v-7.59h0Z"/>
    <path class="st0" d="M265.15,73.36c0-1.57.7-2.11,1.95-2.26.63-.08,1.59-.17,2.63-.22v-1.08c0-.38-.16-.53-.53-.53h-1.67c-.38,0-.53.15-.53.53v.38h-1.59v-.39c0-1.27.59-1.86,1.86-1.86h2.23c1.26,0,1.86.59,1.86,1.86v5.73h-1.62v-1.14c-.55.72-1.11,1.2-2.49,1.2-1.5,0-2.09-.63-2.09-2.21h-.01ZM267.5,74.18c1.04,0,1.57-.29,2.23-.69v-1.56l-2.33.37c-.48.07-.66.2-.66.94s.15.94.76.94h0Z"/>
    <path class="st0" d="M273.58,73.65v-4.4h-1.12v-1.33h1.14v-1.83h1.57v1.83h1.74v1.33h-1.73v4.36c0,.39.15.53.53.53h1.19v1.36h-1.48c-1.26,0-1.86-.59-1.86-1.86h.02Z"/>
    <path class="st0" d="M278.3,65.35h1.73v1.63h-1.73v-1.63ZM278.36,67.92h1.62v7.59h-1.62v-7.59Z"/>
    <path class="st0" d="M281.79,73.65v-3.88c0-1.27.59-1.86,1.85-1.86h2.5c1.26,0,1.85.59,1.85,1.86v3.88c0,1.27-.59,1.86-1.85,1.86h-2.5c-1.26,0-1.85-.59-1.85-1.86ZM283.94,74.09h1.93c.38,0,.53-.14.53-.53v-3.68c0-.39-.16-.53-.53-.53h-1.93c-.39,0-.53.14-.53.53v3.68c0,.39.14.53.53.53Z"/>
    <path class="st0" d="M289.78,67.92h1.62v1.08c.59-.67,1.11-1.15,2.49-1.15,1.49,0,2.08.59,2.08,1.9v5.76h-1.6v-5.64c0-.42-.15-.58-.74-.58-1.03,0-1.56.21-2.22.6v5.61h-1.62v-7.59h0Z"/>
    <path class="st0" d="M301.44,65.67h5c1.33,0,1.97.63,1.97,1.97v1.33c0,.72-.28,1.2-.9,1.5.7.27,1.01.79,1.01,1.5v1.56c0,1.33-.63,1.97-1.97,1.97h-5.12v-9.84h0ZM306.2,69.75c.38,0,.52-.14.52-.53v-1.49c0-.38-.14-.52-.52-.52h-3.08v2.54s3.08,0,3.08,0ZM306.32,73.98c.38,0,.52-.14.52-.52v-1.73c0-.38-.14-.52-.52-.52h-3.19v2.77h3.19Z"/>
    <path class="st0" d="M310.2,73.68v-5.76h1.62v5.64c0,.42.14.58.73.58,1.04,0,1.57-.21,2.23-.6v-5.61h1.6v7.59h-1.6v-1.08c-.59.67-1.11,1.15-2.49,1.15-1.5,0-2.09-.59-2.09-1.9h0Z"/>
    <path class="st0" d="M318.02,73.56v-.49h1.59v.52c0,.48.14.62.53.62h1.8c.38,0,.53-.14.53-.87s-.14-.81-.58-.88l-2.14-.35c-1.17-.18-1.64-.59-1.64-1.98,0-1.6.59-2.19,1.85-2.19h2.07c1.26,0,1.85.59,1.85,1.9v.42h-1.59v-.44c0-.44-.15-.58-.53-.58h-1.53c-.38,0-.53.14-.53.77s.14.73.58.8l2.14.35c1.17.18,1.64.59,1.64,2.07,0,1.7-.59,2.29-1.86,2.29h-2.33c-1.27,0-1.86-.59-1.86-1.95h0Z"/>
    <path class="st0" d="M325.64,65.35h1.73v1.63h-1.73v-1.63ZM325.7,67.92h1.62v7.59h-1.62v-7.59Z"/>
    <path class="st0" d="M329.28,67.92h1.62v1.08c.59-.67,1.11-1.15,2.49-1.15,1.49,0,2.08.59,2.08,1.9v5.76h-1.6v-5.64c0-.42-.15-.58-.74-.58-1.03,0-1.56.21-2.22.6v5.61h-1.62v-7.59h0Z"/>
    <path class="st0" d="M337.19,73.65v-3.88c0-1.27.59-1.86,1.85-1.86h2.42c1.27,0,1.86.59,1.86,1.86v2.38h-4.51v1.49c0,.39.14.53.53.53h1.83c.39,0,.53-.14.53-.53v-.58h1.62v.59c0,1.27-.59,1.86-1.86,1.86h-2.42c-1.26,0-1.85-.59-1.85-1.86h0ZM341.7,71.01v-1.22c0-.39-.14-.53-.53-.53h-1.83c-.39,0-.53.14-.53.53v1.22h2.89,0Z"/>
    <path class="st0" d="M344.72,73.56v-.49h1.59v.52c0,.48.14.62.53.62h1.8c.38,0,.53-.14.53-.87s-.14-.81-.58-.88l-2.14-.35c-1.17-.18-1.64-.59-1.64-1.98,0-1.6.59-2.19,1.85-2.19h2.07c1.26,0,1.85.59,1.85,1.9v.42h-1.59v-.44c0-.44-.15-.58-.53-.58h-1.53c-.38,0-.53.14-.53.77s.14.73.58.8l2.14.35c1.17.18,1.64.59,1.64,2.07,0,1.7-.59,2.29-1.86,2.29h-2.33c-1.27,0-1.86-.59-1.86-1.95h0Z"/>
    <path class="st0" d="M352.05,73.56v-.49h1.59v.52c0,.48.14.62.53.62h1.8c.38,0,.53-.14.53-.87s-.14-.81-.58-.88l-2.14-.35c-1.17-.18-1.64-.59-1.64-1.98,0-1.6.59-2.19,1.85-2.19h2.07c1.26,0,1.85.59,1.85,1.9v.42h-1.59v-.44c0-.44-.15-.58-.53-.58h-1.53c-.38,0-.53.14-.53.77s.14.73.58.8l2.14.35c1.17.18,1.64.59,1.64,2.07,0,1.7-.59,2.29-1.86,2.29h-2.33c-1.27,0-1.86-.59-1.86-1.95h0Z"/>
  </g>
  <g>
    <path class="st0" d="M21.88,31.73H7.83v-8.45h13.86c4.41-.03,6.71-.04,6.71,4.23s-2.28,4.27-6.51,4.23M28.58,19.67H0v23.28h7.83v-7.63h13.86c.49,0,5.87,0,6.88,0,5.25,0,7.5-1.82,7.5-7.83s-2.4-7.83-7.5-7.83"/>
    <path class="st0" d="M115.21,19.67h-28.58v23.29h7.83v-19.68h13.86c4.41-.03,6.71-.04,6.71,4.23v4.22h-17.75v3.6h17.76v7.63h7.67v-15.45c0-6.23-2.41-7.83-7.5-7.83"/>
    <path class="st0" d="M78.95,27.5c0-6.23-2.4-7.83-7.5-7.83h-28.58v23.28h7.83v-19.68h13.86c4.41-.03,6.71-.05,6.71,4.23s-2.28,4.27-6.51,4.22h-10.11v1.06c0,.3.15.57.4.73l14.44,9.44h9.46s-6.47-4.34-11.5-7.62h4c5.25,0,7.5-1.81,7.5-7.83"/>
    <polygon class="st0" points="350.39 42.95 358.22 42.95 358.22 19.67 350.39 19.67 350.39 42.95 350.39 42.95"/>
    <path class="st0" d="M379.78,39.35c-3.31-.05-5.02-.54-5.02-4.23v-15.45h-7.67v15.45c0,6.22,2.4,7.83,7.5,7.83h16.25v-3.61h-11.06Z"/>
    <path class="st0" d="M410.1,39.35c-3.31-.05-5.03-.54-5.03-4.23v-15.45h-7.68v15.45c0,6.22,2.4,7.83,7.5,7.83h16.25v-3.61h-11.04Z"/>
    <path class="st0" d="M334.04,19.67h-33.54v23.29h7.83v-19.68h8.73v19.68h7.25v-19.68h5.56c3.75,0,3.99-.04,3.99,4.23v15.45h7.68v-15.45c0-6.23-2.4-7.83-7.49-7.83"/>
    <polygon class="st0" points="128.72 19.67 128.72 23.28 141.35 23.28 141.35 42.96 149.18 42.96 149.18 23.28 161.82 23.28 161.82 19.67 128.72 19.67 128.72 19.67"/>
    <polygon class="st0" points="167.63 19.67 167.63 23.28 180.26 23.28 180.26 42.96 188.09 42.96 188.09 23.28 200.73 23.28 200.73 19.67 167.63 19.67 167.63 19.67"/>
    <polygon class="st0" points="427.72 19.67 427.72 42.96 456.06 42.96 456.06 39.35 435.54 39.35 435.54 33.12 456.06 33.12 456.06 29.51 435.54 29.51 435.54 23.28 456.06 23.28 456.06 19.67 427.72 19.67 427.72 19.67"/>
    <path class="st0" d="M492.69,35.34c5.25,0,7.49-1.81,7.49-7.83s-2.41-7.84-7.49-7.84h-28.58v23.28h7.83v-19.68h13.86c4.41-.02,6.71-.04,6.71,4.23s-2.28,4.27-6.52,4.22h-10.11v1.06c0,.3.15.57.4.73l14.44,9.44h9.46s-6.47-4.34-11.5-7.62h4.01"/>
    <polygon class="st1" points="241.49 37.05 249.6 23.01 257.71 37.05 241.49 37.05 241.49 37.05"/>
    <polygon class="st0" points="259.67 33.6 259.67 6.56 251.09 0 251.09 18.74 259.67 33.6 259.67 33.6"/>
    <polygon class="st2" points="239.53 6.57 239.53 23.19 248.11 18.24 248.11 0 239.53 6.57 239.53 6.57"/>
    <polygon class="st2" points="278.48 47.42 277.08 36.71 262.68 28.4 262.68 38.3 278.48 47.42 278.48 47.42"/>
    <polygon class="st2" points="222.21 50 232.19 54.15 246.59 45.84 238.01 40.88 222.21 50 222.21 50"/>
    <polygon class="st0" points="236.95 38.06 245.53 23.2 222.11 36.72 220.72 47.43 236.95 38.06 236.95 38.06"/>
    <polygon class="st0" points="243.6 40.63 267.02 54.15 276.99 50 260.76 40.63 243.6 40.63 243.6 40.63"/>
  </g>
</svg>