<?xml version="1.0" encoding="UTF-8" standalone="no"?>
<!DOCTYPE svg PUBLIC "-//W3C//DTD SVG 1.1//EN" "http://www.w3.org/Graphics/SVG/1.1/DTD/svg11.dtd">
<svg width="100%" height="100%" viewBox="0 0 1182 212" version="1.1" xmlns="http://www.w3.org/2000/svg" xmlns:xlink="http://www.w3.org/1999/xlink" xml:space="preserve" xmlns:serif="http://www.serif.com/" style="fill-rule:evenodd;clip-rule:evenodd;stroke-linejoin:round;stroke-miterlimit:2;">
    <g transform="matrix(4.16667,0,0,4.16667,0,-0.674995)">
        <path d="M187.323,18.805C186.383,18.908 185.436,19.198 184.62,19.764C182.639,21.147 181.988,23.367 181.99,24.785L181.99,38.401L173.268,38.401L173.268,24.785C173.268,9.891 188.817,10.922 190.819,11.383L187.323,18.805ZM262.577,25.847L253.54,33.232L253.54,4.946L262.314,4.946L262.314,16.237L267.605,11.915L279.632,11.915L268.938,20.651L283.465,38.401L272.851,38.401L262.577,25.847ZM161.536,18.458L161.536,28.561C161.536,29.801 161.776,30.733 162.254,31.353C163.394,32.831 166.603,32.207 167.386,31.859L167.492,38.241C164.899,39.156 158.772,39.819 155.684,37.071C154.088,35.651 153.027,33.302 153.027,29.624L152.973,4.946L161.536,4.946L161.536,11.915L170.84,11.915L167.759,18.458L161.536,18.458ZM249.779,35.937C247.285,38.016 243.907,39.251 239.854,39.251C231.148,39.251 225.174,33.508 225.174,25.051C225.174,16.889 231.285,11.063 239.854,11.063C243.728,11.063 247.111,12.321 249.654,14.434L244.486,20.191C243.494,19.09 242.04,18.367 240.062,18.367C236.437,18.367 233.992,21.755 233.992,25.051C233.992,28.347 236.123,31.912 240.062,31.912C241.685,31.912 243.554,31.42 244.671,30.246L249.779,35.937ZM212.698,25.051C212.698,21.789 210.524,18.297 206.369,18.297C202.213,18.297 200.146,21.755 200.146,25.051C200.146,28.347 202.218,31.061 206.422,31.061L212.698,31.061L212.698,25.051ZM221.1,25.051L221.1,38.401L206.369,38.401C198.206,38.401 191.689,33.508 191.689,25.051C191.689,16.889 197.8,11.063 206.369,11.063C214.938,11.063 221.1,16.82 221.1,25.051ZM140.697,25.051C140.697,21.789 138.524,18.297 134.368,18.297C130.212,18.297 128.145,21.755 128.145,25.051C128.145,28.347 130.216,31.912 134.421,31.912C138.626,31.912 140.697,28.313 140.697,25.051ZM149.099,25.051C149.099,33.489 142.597,39.251 134.368,39.251C126.206,39.251 119.689,33.508 119.689,25.051C119.689,16.889 125.799,11.063 134.368,11.063C142.937,11.063 149.099,16.82 149.099,25.051ZM115.692,18.805C114.751,18.908 113.805,19.198 112.99,19.764C111.008,21.147 110.357,23.367 110.359,24.785L110.359,38.401L101.637,38.401L101.637,24.785C101.637,9.891 117.186,10.922 119.187,11.383L115.692,18.805ZM76.634,19.041L76.634,31.168L82.696,31.168C86.632,31.168 88.919,28.678 88.919,25.051C88.919,21.423 86.559,19.041 82.696,19.041L76.634,19.041ZM84.824,11.915C92.19,11.915 97.376,17.165 97.376,25.051C97.376,32.733 92.452,38.401 84.77,38.401L76.634,38.401L76.634,46.112L68.07,46.112L68.07,11.915L84.824,11.915Z" style="fill:white;"/>
        <path d="M9.071,11.412L11.056,0.162L33.077,0.168C42.174,0.423 49.484,7.889 49.484,17.049C49.484,26.208 42.176,33.675 33.079,33.929L11.356,33.941L17.417,39.971C17.381,40.425 15.495,51 15.495,51L2.091,51L6.028,28.676L0,22.679L32.596,22.678C35.702,22.678 38.225,20.157 38.225,17.049C38.225,13.943 35.702,11.421 32.596,11.421L9.071,11.412Z" style="fill:rgb(233,77,9);"/>
        <g>
            <path d="M6.028,28.676L17.417,39.971L4.913,34.992L6.028,28.676Z" style="fill:rgb(178,62,1);"/>
        </g>
    </g>
</svg>
