<?xml version="1.0" encoding="utf-8"?>
<!-- Generator: Adobe Illustrator 16.0.0, SVG Export Plug-In . SVG Version: 6.00 Build 0)  -->
<!DOCTYPE svg PUBLIC "-//W3C//DTD SVG 1.1//EN" "http://www.w3.org/Graphics/SVG/1.1/DTD/svg11.dtd">
<svg xmlns="http://www.w3.org/2000/svg" xmlns:xlink="http://www.w3.org/1999/xlink" version="1.1" id="Layer_1" x="0px" y="0px" width="256px" height="102.121px" viewBox="0 0 256 102.121" xml:space="preserve">
<g>
	<path fill="#FFFFFF" d="M158.331,33.247c-2.157-1.058-5.336-1.802-9.534-2.232c-4.203-0.43-9.61-0.645-16.218-0.645h-16.151   c-6.423,0-11.974,0.215-16.647,0.645c-4.679,0.431-8.621,1.158-11.83,2.183c-3.214,1.026-5.924,2.431-8.135,4.217   c-2.217,1.786-4.088,4.068-5.621,6.846l-6.025,10.914c-1.534,2.777-2.264,5.126-2.188,7.044c0.072,1.92,1.11,3.458,3.119,4.614   c2.004,1.158,5.081,2.001,9.228,2.53c4.144,0.53,9.523,0.794,16.137,0.794h16.15c2.643,0,5.07-0.033,7.279-0.099   c2.206-0.065,4.292-0.165,6.256-0.297l-24.828-6.351l25.913-11.013l26.08,6.647c0.704-0.595,1.241-1.224,1.607-1.885   c0.401-0.727,0.803-1.454,1.204-2.183l5.807-10.517c1.533-2.778,2.187-5.076,1.964-6.896   C161.671,35.744,160.482,34.306,158.331,33.247z"/>
	<path fill="#FFFFFF" d="M216.71,59.875l4.598-8.33c4.875-8.83,6.77-16.602,5.795-23.768c-0.725-5.298-3.927-15.051-17.253-20.843   c-6.494-2.816-15.355-4.662-27.092-5.641C172.437,0.436,159.175,0,143.344,0h-24.367c-15.072,0-28.112,0.435-38.762,1.291   C68.712,2.217,59.142,3.882,50.957,6.38c-8.967,2.738-16.583,6.654-22.632,11.635c-5.996,4.933-11.103,11.178-15.178,18.562   L6.683,48.286c-4.903,8.88-7.069,16.555-6.626,23.44c0.354,5.625,2.968,15.972,16.47,22.065c6.38,2.885,15.022,4.73,26.418,5.643   c9.855,0.789,22.69,1.19,38.15,1.19h26.916c14.404,0,26.802-0.311,36.851-0.922c9.014-0.549,16.762-1.479,23.546-2.829   l20.828,5.247L256,70.024L216.71,59.875z M211.108,74.423l-23.527,11.31l-18.904-4.762c-6.732,1.588-14.985,2.679-24.756,3.274   c-9.776,0.595-21.743,0.893-35.91,0.893H81.094c-15.115,0-27.415-0.38-36.912-1.142c-9.497-0.76-16.591-2.198-21.275-4.316   c-4.688-2.115-7.153-5.092-7.396-8.929c-0.247-3.835,1.333-8.83,4.729-14.982l6.462-11.708c3.14-5.688,6.959-10.384,11.46-14.089   c4.498-3.703,10.271-6.631,17.314-8.78c7.039-2.149,15.701-3.638,25.981-4.465c10.275-0.826,22.786-1.241,37.518-1.241h24.367   c15.485,0,28.197,0.415,38.131,1.241c9.928,0.828,17.333,2.299,22.212,4.415c4.873,2.118,7.565,5.028,8.071,8.731   c0.505,3.705-0.83,8.434-4.007,14.188l-6.463,11.708c-1.498,2.713-3,5.177-4.506,7.392c-1.507,2.217-3.263,4.284-5.265,6.201   L211.108,74.423z"/>
</g>
</svg>
