<?xml version="1.0" encoding="UTF-8"?><svg id="Layer_1" xmlns="http://www.w3.org/2000/svg" viewBox="0 0 1987.45 497.01"><defs><style>.cls-1{fill:#fff;}</style></defs><path class="cls-1" d="M53.53,192.07c-11.53,16.01-24.59,27.81-46.46,25.27,3.09-4.41,6.17-8.97,9.42-13.41,5.48-7.48,11.72-14.48,16.41-22.42,4.14-7.01,9.66-11.38,17.14-13.3,15.84-4.06,31.76-7.79,47.67-11.57,5.8-1.38,11.11-.42,15.98,3.37,11.48,8.94,23.09,17.7,34.66,26.52,1.25.95,2.58,1.79,5,3.45-.23-4.31-.34-7.59-.59-10.86-1.28-16.7-2.19-33.45-4.05-50.09-1.37-12.21-4.65-24.21-5.9-36.42-1.33-12.98-4.54-25.06-9.48-37.22-3.83-9.41-4.19-20.36-5.24-30.72-.56-5.49,1.82-10.38,8.29-11.69V.4c.51-.13,1.02-.26,1.53-.4,9.35,17.78,12.7,37.86,20.3,56.32,7.66,18.61,14.55,37.54,21.91,56.69.18-1.46.29-2.86.52-4.25,3.06-18.52,5.84-37.1,9.39-55.54,1.12-5.83,3.98-11.42,6.68-16.81,2.21-4.42,5.65-7.81,11.29-7.99,1.56-.05,3.08-1.28,5.64-2.42-2.17,7.59-5.09,14.57-6.04,21.8-1.74,13.23-2.51,26.61-3.31,39.95-.41,6.84-.09,13.73.11,20.59.03,1.05,1.22,2.07,1.88,3.1.98-.73,2.78-1.43,2.81-2.2.34-9.18,6.84-12.11,14.12-14.31,2.83-.86,5.69-1.61,10.4-2.94-3,5.13-5.33,8.55-7.1,12.24-17.59,36.72-26.88,74.94-18.02,115.59,1.81,8.32,1.02,15.21-1.67,22.72-6.53,18.25-12.73,36.62-19.08,54.93-5.2,15.01-4.59,29.74,1.79,44.32,3.13,7.16,5.91,14.47,9.08,22.26h-90.56c-.27-.47-.65-.81-.63-1.11,1.38-16.49-1.79-21.43-17.36-27.36-19.98-7.61-39.86-15.5-59.93-22.87-10.64-3.91-13.93-12.31-15.99-22.27-2.28-11.01-5.26-21.88-8.01-32.8-1.08-4.29-2.56-8.49-3.52-12.8-1.38-6.2-2.44-12.47-2.6-19.57,1.84,2.52,3.44,5.27,5.58,7.5,2.06,2.14,4.43,4.56,7.12,5.42,13.49,4.29,20.64,15.2,23.68,27.14,3.02,11.88,9.76,15.76,20.16,18.06,8.63,1.9,17.17,4.63,25.38,7.91,4.83,1.93,8.73,1.48,12.35-1.46,10.95-8.92,21.82-17.95,32.43-27.27,1.6-1.41,2.44-4.58,2.34-6.88-.37-8.65-1.24-17.28-2.02-25.91-.12-1.33-.37-3.01-1.23-3.86-11.98-11.88-22.26-24.99-29.19-40.32-14.12,6.68-28,10.89-43.08,6.46Z"/><path class="cls-1" d="M1260.32,442.26l-5.54,19.66c-2.83,9.94-8.49,14.19-19.08,14.19h-22.03c-4.18,0-5.42-.22-7.39-1.12-1.72-.78-2.46-1.68-3.2-3.91l-1.48,5.03h-31.88c1.23-1.68,1.72-2.35,2.22-3.13,1.35-2.35,2.58-5.25,3.82-9.61l14.77-51.95c.12-.45.25-1.23.49-2.23.12-1.56.25-2.68.25-3.58,0-1.45-.12-2.23-.74-4.02h32.37l-6.52,22.68c2.34-2.46,3.69-2.9,8.86-2.9h17.23c5.54,0,6.65.11,9.85,1.56,5.66,2.46,8.99,6.93,8.99,12.18,0,1.9-.49,5.36-.98,7.15ZM1226.47,431.99h-7.02c-1.85,0-3.82.45-4.55.89-.99.78-1.35,1.34-2.22,4.47l-6.28,22.12-.37,1.23c-.12.78-.25,1.34-.25,1.68,0,2.12,1.85,3.13,5.54,3.13h6.4c3.94,0,4.55-.11,5.66-1.23,1.11-1.01,1.85-2.79,2.83-6.03l5.54-19.33.37-1.34c.37-1.45.37-1.68.37-2.01,0-2.46-1.72-3.58-6.03-3.58Z"/><path class="cls-1" d="M1338.36,480.25l-.98,3.69c-1.23,4.8-3.32,7.93-6.28,9.94-1.6,1.12-3.57,1.9-5.79,2.35-2.95.67-4.18.78-9.6.78h-59.21l1.23-11.95c1.72.56,2.34.67,4.06.89,2.34.33,3.45.45,6.52.45h32.25c5.42,0,6.77-.89,8-5.25l2.46-8.49c-2.71,3.02-4.06,3.46-10.83,3.46h-14.89c-.74,0-1.48,0-2.34-.11-4.06-.34-6.4-.56-7.14-.78-5.91-1.45-10.71-7.37-10.71-13.52,0-2.24.25-3.24,1.6-7.82l6.4-22.68c.12-.45.25-1.23.49-2.23.12-1.56.25-2.79.25-3.58,0-1.56-.12-2.24-.74-4.02h32.37l-10.83,37.99-.49,1.79c-.25.56-.25,1-.25,1.45,0,1.9,1.97,2.9,5.66,2.9h7.51c4.8,0,6.28-1.12,7.63-6.03l8.12-28.27c.12-.45.25-1.23.37-2.23.25-1.56.37-2.79.37-3.58,0-1.56-.12-2.24-.74-4.02h32.37l-16.86,58.88Z"/><path class="cls-1" d="M1491.98,415.34c-2.46-1.12-3.82-1.45-7.26-1.45h-16.74l-14.89,52.4c-.12.56-.37,1.34-.49,2.23-.25,1.56-.37,2.79-.37,3.58,0,1.56.25,2.23.86,4.02h-36.8c1.23-1.68,1.72-2.35,2.22-3.13,1.35-2.35,2.58-5.25,3.82-9.61l14.03-49.49h-17.6c-3.2,0-4.8.33-7.75,1.23l6.28-13.52h76.19l-1.48,13.74Z"/><path class="cls-1" d="M1583.81,423.27l-10.46,36.65c-1.85,6.37-3.57,9.16-7.26,11.96-4.19,3.02-9.48,4.25-18.34,4.25h-41.97c-6.52,0-8.86-.22-11.45-1.01-5.66-1.79-9.72-7.26-9.72-13.52,0-1.56.12-2.9.62-4.25l.98-2.79,10.34-36.65c1.97-6.93,4.8-10.73,9.48-13.07,4.43-2.23,9.72-3.24,17.36-3.24h40c9.85,0,14.03,1.34,17.85,5.47,2.34,2.68,3.69,6.14,3.69,9.61,0,1.9-.37,3.91-1.11,6.59ZM1547.75,413.89h-11.45c-5.91,0-7.26,1.12-8.99,7.15l-10.34,35.98-.49,1.9c-.25.89-.25,1.23-.25,1.56,0,2.46,1.85,3.35,7.02,3.35h11.82c3.32,0,4.19-.11,5.05-.89.98-.89,1.23-1.45,2.46-5.59l10.22-36.09.62-2.01c.25-.89.37-1.68.37-2.12,0-2.23-1.85-3.24-6.03-3.24Z"/><path class="cls-1" d="M1685.36,417.68c-.12,1.12-.25,1.9-.37,2.35l-3.57,12.62-.74,2.35c-1.48,4.58-2.34,5.7-5.17,7.15-2.58,1.34-5.79,2.01-9.23,2.01-.49,0-1.23-.11-2.22-.11l5.29,23.57c.86,4.02,1.85,5.59,5.05,8.49h-34.71l-6.77-32.07h-8l-6.4,22.23c-.12.56-.25,1.34-.37,2.23-.25,1.56-.37,2.79-.37,3.69,0,1.45.12,2.12.86,3.91h-36.8c1.23-1.68,1.72-2.35,2.22-3.13,1.35-2.35,2.46-5.25,3.69-9.61l14.89-51.95c.12-.45.25-1.23.37-2.23.25-1.56.37-2.68.37-3.58,0-1.45-.12-2.23-.86-4.02h65.12c6.16,0,9.85,1.12,13.17,4.02,2.96,2.57,4.92,6.37,4.92,9.5,0,.56-.12,1.34-.37,2.57ZM1649.3,413.89h-15.76l-5.05,17.54h15.39c2.96,0,3.57-.11,4.8-.67,1.6-.78,2.09-1.34,2.83-4.02l2.09-7.49c.25-1,.37-1.79.37-2.46,0-2.12-1.23-2.9-4.68-2.9Z"/><path class="cls-1" d="M1787.16,421.93l-10.46,36.87c-1.97,7.04-3.45,9.72-6.89,12.51-1.97,1.56-4.43,2.79-7.26,3.58-3.32,1-5.17,1.23-11.57,1.23h-7.88l1.48,9.27h-11.82l-1.6-9.27h-22.53c-3.69,0-7.88-.45-10.34-1.01-6.28-1.56-10.96-6.81-10.96-12.62,0-1.68.37-3.69,1.11-6.26l11.08-38.99c3.32-11.84,9.6-15.64,25.73-15.64h43.33c5.29,0,7.63.33,10.34,1.45,5.54,2.23,9.35,7.49,9.35,12.62,0,1.56-.37,3.8-1.11,6.26ZM1752.2,414l-1.85-.11h-11.69c-2.95,0-4.43.33-5.54,1-1.48,1.01-1.6,1.23-2.83,5.47l-10.83,37.76c-.25.89-.37,1.79-.37,2.46,0,2.35,1.48,3.24,5.42,3.24h4.8l-1.72-10.61h11.57l1.72,10.61c1.85-.45,2.58-.89,3.2-2.12.37-.67.62-1.34.86-2.12.12-.56.25-1.12.49-1.9l10.71-37.54c.37-1.12.49-1.9.49-2.57,0-2.46-1.23-3.35-4.43-3.58Z"/><path class="cls-1" d="M1876.53,415.79c-2.09-1.01-2.95-1.34-4.31-1.56-1.35-.11-3.69-.33-5.54-.33h-30.16l-5.17,18.21h30.53c2.83,0,5.42-.33,8.12-1.12l-4.18,14.97c-2.71-1.23-4.55-1.56-9.72-1.56h-28.31l-5.54,19.44h32.25c3.45,0,5.54-.33,8.74-1.68l-6.03,13.97h-72.38c1.23-1.68,1.72-2.35,2.22-3.13,1.35-2.35,2.46-5.25,3.69-9.61l14.89-51.95c.12-.45.25-1.23.37-2.23.25-1.56.37-2.68.37-3.58,0-1.45-.12-2.23-.86-4.02h72.87l-1.85,14.19Z"/><path class="cls-1" d="M1976.23,404.84c-1.35,2.23-2.58,5.14-3.82,9.5l-17.6,61.78h-34.71l-21.3-56.31-13.17,46.48c-.12.56-.37,1.34-.49,2.23-.25,1.56-.37,2.79-.37,3.58,0,1.56.25,2.23.86,4.02h-18.71c1.23-1.68,1.72-2.35,2.22-3.13,1.35-2.35,2.46-5.25,3.69-9.61l14.89-51.95c.12-.45.25-1.23.37-2.23.25-1.56.37-2.68.37-3.58,0-1.45-.12-2.23-.86-4.02h36.8l21.79,57.43,13.54-47.59c.12-.45.37-1.23.49-2.23.25-1.56.37-2.68.37-3.58,0-1.45-.25-2.23-.86-4.02h18.71c-1.23,1.79-1.72,2.46-2.22,3.24Z"/><path class="cls-1" d="M234.45,309.23V119.25h97.83c18.13,0,32.02,1.55,41.56,4.68,9.6,3.11,17.34,8.89,23.23,17.29,5.87,8.46,8.8,18.76,8.8,30.87,0,10.53-2.25,19.64-6.76,27.29-4.47,7.69-10.66,13.88-18.57,18.67-5,3-11.9,5.52-20.61,7.51,6.99,2.35,12.07,4.64,15.26,6.99,2.12,1.55,5.26,4.92,9.37,10,4.06,5.08,6.8,9.02,8.18,11.8l28.52,54.89h-66.34l-31.36-57.93c-3.97-7.52-7.51-12.39-10.6-14.64-4.25-2.92-9.07-4.38-14.42-4.38h-5.18v76.95h-58.91ZM1197.7,119.25h109.98c18.31,0,32.38,4.55,42.19,13.62,9.82,9.06,14.72,20.29,14.72,33.7,0,11.23-3.49,20.87-10.53,28.88-4.64,5.39-11.5,9.6-20.48,12.73,13.67,3.28,23.66,8.89,30.12,16.9,6.41,8.01,9.63,18.04,9.63,30.12,0,9.86-2.3,18.7-6.86,26.57-4.59,7.88-10.87,14.07-18.79,18.67-4.95,2.83-12.39,4.9-22.34,6.18-13.22,1.73-21.98,2.61-26.31,2.61h-101.37V119.25ZM1256.87,193.81h25.6c9.16,0,15.57-1.6,19.15-4.73,3.59-3.18,5.4-7.75,5.4-13.71,0-5.53-1.81-9.86-5.4-12.96-3.58-3.13-9.86-4.68-18.74-4.68h-26.01v36.09ZM1256.87,268.37h29.94c10.13,0,17.25-1.81,21.41-5.4,4.15-3.58,6.24-8.35,6.24-14.42,0-5.61-2.04-10.12-6.15-13.53-4.11-3.41-11.33-5.12-21.63-5.12h-29.81v38.47ZM1522.54,309.23h-49.31v-22.19c-7.34,9.15-14.72,15.65-22.15,19.55-7.47,3.89-16.63,5.83-27.51,5.83-14.5,0-25.82-4.34-34.09-13.04-8.22-8.66-12.34-22.07-12.34-40.15v-87.7h53.06v75.9c0,8.62,1.6,14.77,4.79,18.44,3.18,3.62,7.64,5.44,13.4,5.44,6.24,0,11.37-2.44,15.39-7.26,3.99-4.86,5.97-13.58,5.97-26.14v-66.38h52.81v137.71ZM1531.92,171.52h49.17v22.43c7.34-9.2,14.74-15.74,22.25-19.67,7.52-3.95,16.63-5.93,27.42-5.93,14.59,0,25.95,4.33,34.22,13.04,8.23,8.66,12.35,22.11,12.35,40.28v87.56h-53.08v-75.75c0-8.66-1.58-14.77-4.77-18.35-3.19-3.58-7.66-5.4-13.4-5.4-6.33,0-11.51,2.44-15.44,7.26-3.93,4.87-5.93,13.53-5.93,26.09v66.16h-52.8v-137.71ZM1686.18,171.52h49.18v22.43c7.34-9.2,14.72-15.74,22.24-19.67,7.51-3.95,16.62-5.93,27.41-5.93,14.6,0,25.97,4.33,34.24,13.04,8.22,8.66,12.34,22.11,12.34,40.28v87.56h-53.06v-75.75c0-8.66-1.6-14.77-4.79-18.35-3.18-3.58-7.65-5.4-13.4-5.4-6.33,0-11.5,2.44-15.44,7.26-3.93,4.87-5.93,13.53-5.93,26.09v66.16h-52.8v-137.71ZM1825.32,171.52h55.63l28.34,91.68,26.19-91.68h51.96l-54.49,147.22c-6.19,16.72-12.56,28-19.01,33.83-9.16,8.27-23.08,12.39-41.84,12.39-7.6,0-19.32-1.06-35.19-3.09l-4.16-36.83c7.6,2.39,16.05,3.58,25.38,3.58,6.24,0,11.27-1.42,15.13-4.25,3.84-2.8,7.08-7.83,9.76-15.08l-57.7-137.76ZM1077.82,119.25v52.26h28.92v38.75h-28.92v48.73c0,5.83.56,9.72,1.68,11.63,1.71,2.92,4.77,4.38,9.11,4.38,3.9,0,9.34-1.1,16.36-3.37l3.9,36.49c-13.04,2.87-25.21,4.29-36.53,4.29-13.13,0-22.82-1.68-29.05-5.05-6.2-3.36-10.79-8.48-13.81-15.34-2.96-6.86-4.47-18-4.47-33.35v-48.42h-19.36v-38.75h19.36v-25.25l52.82-27.02ZM1009.03,253.51h-105.88c.98,8.46,3.24,14.78,6.91,18.93,5.09,5.98,11.76,8.94,19.99,8.94,5.22,0,10.17-1.29,14.82-3.86,2.87-1.64,5.96-4.51,9.24-8.62l52,4.79c-7.96,13.79-17.55,23.74-28.79,29.71-11.23,6.02-27.37,9.02-48.38,9.02-18.26,0-32.58-2.57-43.07-7.73-10.43-5.14-19.1-13.32-25.99-24.5-6.86-11.23-10.32-24.42-10.32-39.53,0-21.54,6.91-39.01,20.7-52.33,13.77-13.3,32.82-19.98,57.1-19.98,19.71,0,35.25,3,46.65,8.97,11.41,5.98,20.12,14.6,26.09,25.97,5.98,11.32,8.94,26.09,8.94,44.27v5.96ZM955.43,228.3c-1.01-10.25-3.8-17.59-8.27-22.02-4.47-4.42-10.3-6.63-17.6-6.63-8.39,0-15.11,3.37-20.16,10.04-3.18,4.15-5.21,10.34-6.09,18.61h52.13ZM711,119.25h53.86v97.82l39.4-45.55h64.87l-49.35,48.21,52.28,89.5h-59.39l-27.95-55.19-19.86,19.42v35.77h-53.86v-34.68c-2.37,4.94-5.26,9.49-8.65,13.63-6.28,7.66-14.38,13.62-24.2,17.87-9.77,4.25-22.25,6.37-37.37,6.37s-26.79-1.38-36.52-4.06c-9.69-2.75-18.05-7.17-25.08-13.27-6.99-6.07-12.48-13.23-16.45-21.46-2.01-4.14-3.51-8.97-4.51-14.47-3.04,12.76-9.32,23.72-18.85,32.97-14.03,13.53-33.44,20.29-58.2,20.29-22.07,0-39.94-5.61-53.56-16.9-16.75-13.92-25.11-32.19-25.11-54.74,0-21.05,7.08-38.39,21.22-52.01,14.15-13.62,33.25-20.42,57.32-20.42,27.54,0,48.33,8,62.4,24,7.5,8.58,12.5,18.49,15.03,29.69,1.2-6.12,3.05-11.6,5.54-16.46,3.54-6.95,8.4-13.13,14.55-18.61,6.13-5.48,12.43-9.59,18.93-12.26,10.3-4.25,23.48-6.36,39.53-6.36,22.51,0,39.61,4.03,51.42,12.02,10.09,6.88,17.59,16.43,22.55,28.69v-89.81ZM711,260.39v-44.52l-47.31,6.33c-1.54-5.89-4.38-10.3-8.49-13.32-4.11-2.96-9.63-4.47-16.58-4.47-8.72,0-15.78,3.15-21.22,9.39-5.4,6.28-8.1,15.74-8.1,28.47,0,11.33,2.7,19.91,8.05,25.78,5.36,5.89,12.16,8.81,20.48,8.81,6.91,0,12.74-1.77,17.43-5.27,4.73-3.54,8.22-8.93,10.56-16.23l45.18,5.02ZM455.29,240.69c0,12.34,2.48,21.45,7.43,27.33,4.95,5.89,11.14,8.85,18.66,8.85s13.75-2.92,18.61-8.71c4.86-5.8,7.3-15.13,7.3-27.95,0-11.98-2.44-20.88-7.34-26.75-4.91-5.85-10.97-8.76-18.22-8.76-7.66,0-13.97,2.96-18.98,8.89-4.99,5.96-7.47,15-7.47,27.11h0ZM293.36,196.46h24.82c2.65,0,7.86-.88,15.56-2.61,3.9-.75,7.08-2.74,9.52-5.96,2.48-3.24,3.71-6.91,3.71-11.06,0-6.15-1.94-10.88-5.84-14.14-3.89-3.32-11.19-4.96-21.94-4.96h-25.82v38.73ZM293.36,196.46"/></svg>