<?xml version="1.0" encoding="UTF-8"?> <svg xmlns="http://www.w3.org/2000/svg" xmlns:xlink="http://www.w3.org/1999/xlink" width="114px" height="30px" viewBox="0 0 114 30"> <!-- Generator: Sketch 49.3 (51167) - http://www.bohemiancoding.com/sketch --> <title>Group</title> <desc>Created with Sketch.</desc> <defs></defs> <g id="Symbols" stroke="none" stroke-width="1" fill="none" fill-rule="evenodd"> <g id="top-768" transform="translate(-30.000000, -20.000000)" fill="#FFFFFF"> <g id="Group" transform="translate(30.000000, 20.000000)"> <path d="M112.6908,23.93055 L112.7343,25.08105 L110.4363,22.55055 L110.2098,22.55055 L110.2098,26.32155 L110.8308,26.32155 L110.8308,24.95805 L110.7873,23.76555 L113.1018,26.32755 L113.3193,26.32755 L113.3193,22.56105 L112.6908,22.56105 L112.6908,23.93055 Z M97.9398,24.82305 L99.1188,24.82305 C99.0168,25.54155 98.5443,25.79955 97.8963,25.79955 C97.1178,25.79955 96.6258,25.23105 96.6258,24.43605 C96.6258,23.68455 97.1013,23.07705 97.8963,23.07705 C98.4003,23.07705 98.7678,23.25405 98.9778,23.69055 L99.5988,23.69055 C99.3678,22.85655 98.6538,22.51455 97.9023,22.51455 C96.8853,22.51455 95.9868,23.23305 95.9868,24.43605 C95.9868,25.64505 96.8628,26.36955 97.8963,26.36955 C98.6433,26.36955 99.2913,26.02455 99.5778,25.31205 C99.7038,24.98355 99.7293,24.65055 99.7143,24.29055 L97.9398,24.29055 L97.9398,24.82305 Z M85.1673,26.32155 L85.7943,26.32155 L85.7943,22.56105 L85.1673,22.56105 L85.1673,26.32155 Z M73.4268,24.15105 C72.9888,24.09105 72.5628,24.03855 72.5628,23.61405 C72.5628,23.19105 73.0113,23.05005 73.3563,23.05005 C73.7298,23.05005 74.1588,23.17905 74.1843,23.58255 L74.7798,23.58255 C74.7633,22.81455 74.0823,22.49205 73.3623,22.49205 C72.6273,22.49205 71.9403,22.85655 71.9403,23.63055 C71.9403,24.38355 72.6273,24.60255 73.3203,24.66105 C73.7583,24.70605 74.2713,24.75255 74.2713,25.24755 C74.2713,25.71255 73.7943,25.83255 73.3953,25.83255 C72.9843,25.83255 72.5193,25.67655 72.4923,25.25205 L71.8758,25.25205 C71.8923,26.04105 72.6648,26.40555 73.4058,26.39055 C74.1138,26.39055 74.8998,26.08005 74.8998,25.25205 C74.8998,24.38805 74.1963,24.23655 73.4268,24.15105 Z M59.8743,24.65505 L61.4538,24.65505 L61.4538,24.10305 L59.8743,24.10305 L59.8743,23.10855 L61.5453,23.10855 L61.5453,22.56105 L59.2413,22.56105 L59.2413,26.32155 L61.5783,26.32155 L61.5783,25.75155 L59.8743,25.75155 L59.8743,24.65505 Z M46.8618,25.75155 L46.1328,25.75155 L46.1328,23.13105 L46.8678,23.13105 C47.6418,23.13105 48.0963,23.73255 48.0963,24.44205 C48.0963,25.15005 47.6478,25.75155 46.8618,25.75155 Z M46.8738,22.56705 L45.5058,22.56705 L45.5058,26.32155 L46.8738,26.32155 C48.0633,26.32155 48.7218,25.42455 48.7218,24.43605 C48.7218,23.44755 48.0528,22.56705 46.8738,22.56705 Z M111.1473,3.49905 L111.1473,8.68005 L111.3108,13.02705 L102.6153,3.46005 L101.7573,3.46005 L101.7573,17.71905 L104.1093,17.71905 L104.1093,12.55905 L103.9458,8.05005 L112.7013,17.74005 L113.5203,17.74005 L113.5203,3.49905 L111.1473,3.49905 Z M94.5273,17.71905 L96.9003,17.71905 L96.9003,3.37455 L94.5273,3.37455 L94.5273,17.71905 Z M87.2778,8.68005 L87.4398,13.02705 L78.7458,3.46005 L77.8878,3.46005 L77.8878,17.71905 L80.2398,17.71905 L80.2398,12.55905 L80.0763,8.05005 L88.8318,17.74005 L89.6508,17.74005 L89.6508,3.49905 L87.2778,3.49905 L87.2778,8.68005 Z M66.6873,15.72855 C63.9873,15.72855 61.7988,13.92105 61.7988,10.61055 C61.7988,7.31955 64.0083,5.47005 66.7083,5.47005 C69.3888,5.47005 71.5968,7.36005 71.5968,10.61055 C71.5968,13.92105 69.3678,15.72855 66.6873,15.72855 Z M73.9713,10.61055 C73.9713,5.97855 70.5963,3.25605 66.6873,3.25605 C62.8008,3.25605 59.3853,5.97855 59.3853,10.61055 C59.3853,15.24255 62.7198,17.96205 66.6468,17.96205 C70.9638,17.96205 73.9713,14.93655 73.9713,10.61055 Z M51.2073,10.81305 L47.6673,10.81305 L47.6673,5.55255 L51.2073,5.55255 C52.7823,5.55255 53.8878,6.66855 53.8878,8.15205 C53.8878,9.69555 52.7628,10.81305 51.2073,10.81305 Z M56.1993,8.13105 C56.1993,5.59155 54.3378,3.49905 51.2268,3.49905 L45.3153,3.49905 L45.3153,17.71905 L47.7093,17.71905 L47.7093,12.76305 L50.8593,12.76305 L54.4188,17.71905 L56.8338,17.71905 L56.8338,17.37405 L53.1918,12.39705 C55.0128,11.74755 56.1993,10.10205 56.1993,8.13105 Z" id="Fill-1"></path> <path d="M26.3865,4.32 C23.703,1.65 19.968,0 15.8925,0 L0,0 L0,3.2805 L15.8775,3.2805 L15.885,3.2805 L15.8925,3.2805 C19.074,3.2805 21.9855,4.5705 24.075,6.6495 C26.172,8.7255 27.48,11.6325 27.48,14.811 C27.48,17.8905 26.2455,20.7105 24.2595,22.7715 L26.5785,25.092 C29.1615,22.437 30.759,18.7905 30.7605,14.811 C30.759,10.7265 29.0835,6.99 26.3865,4.32 Z M21.78,20.6595 C23.286,19.1685 24.2205,17.0895 24.2205,14.811 C24.2205,12.5325 23.286,10.4535 21.78,8.9625 C20.2785,7.467 18.1845,6.5385 15.8895,6.5385 L0,6.5385 L0,9.798 L15.8925,9.798 C17.298,9.7965 18.567,10.365 19.482,11.2725 L19.485,11.277 C20.4,12.1845 20.9625,13.431 20.9625,14.811 C20.9625,16.191 20.3985,17.439 19.4865,18.345 L19.4805,18.3495 C18.567,19.257 17.2995,19.824 15.8955,19.824 L15.8895,19.824 L3.1725,19.824 L3.1725,13.083 L0,13.083 L0,23.082 L15.2865,23.082 L21.852,29.6475 L26.493,29.6475 L19.23,22.3845 C20.1885,21.9675 21.054,21.3825 21.78,20.6595 Z M26.3835,4.317 C26.385,4.3185 26.385,4.32 26.3865,4.32 C26.388,4.3215 26.3895,4.3215 26.3895,4.323 L26.3835,4.317 Z M0,29.6475 L3.1725,29.6475 L3.1725,26.3655 L0,26.3655 L0,29.6475 Z" id="Fill-4"></path> </g> </g> </g> </svg> 