<?xml version="1.0" encoding="utf-8"?>
<!-- Generator: Adobe Illustrator 28.0.0, SVG Export Plug-In . SVG Version: 6.00 Build 0)  -->
<svg version="1.1" id="レイヤー_1" xmlns="http://www.w3.org/2000/svg" xmlns:xlink="http://www.w3.org/1999/xlink" x="0px"
	 y="0px" viewBox="0 0 530 80" style="enable-background:new 0 0 530 80;" xml:space="preserve">
<style type="text/css">
	.st0{clip-path:url(#SVGID_00000068662079019883602750000014039109844264771985_);}
	.st1{fill:#FFFFFF;}
</style>
<g>
	<defs>
		<rect id="SVGID_1_" x="0.9" width="528.2" height="80"/>
	</defs>
	<clipPath id="SVGID_00000023261179532237664490000000937085560415235515_">
		<use xlink:href="#SVGID_1_"  style="overflow:visible;"/>
	</clipPath>
	
		<g id="グループ_16" transform="translate(0 0)" style="clip-path:url(#SVGID_00000023261179532237664490000000937085560415235515_);">
		<path id="パス_279" class="st1" d="M257.9,59.6c-3.4,2.7-6.9,6.4-9.7,8.5c-14.8,10.8-40.1,17.5-56.2,5.6
			c-4-2.9-5.2-7.6-7.1-12.3c-7.3-18.4-13.5-37.2-18.6-56.4c-0.7-2.7,0.5-4.1,3.5-4.2c15.1-0.8,28.9-0.9,41.4-0.5
			c1.2,0.1,2.4,0.4,3.5,1c0.3,0.2,0.6,0.4,0.7,0.8c3.9,9.8,7.5,19.6,10.9,29.5c1.5,4.4,3.4,8.8,5.5,12.9c0.3,0.5,0.9,0.7,1.4,0.4
			c0,0,0,0,0,0c0.1,0,0.1-0.1,0.2-0.1c5.6-4.6,10.6-9.8,15-15.4c0.4-0.5,0.5-1.3,0.3-1.9c-2.3-6.4-4.3-13-6.1-19.8
			c-0.5-2.2-0.4-4.4,0.3-6.5c0.1-0.3,0.4-0.6,0.7-0.5c13.9-0.6,27.7-0.7,41.5-0.3c3.9-0.5,7.4,2.2,8.1,6
			c3.7,10.4,7.5,20.9,11.3,31.3c0.8,2.1,2,4.1,3.5,5.8c0.2,0.3,0.6,0.3,0.9,0.1c1.3-0.8,2.5-1.7,3.6-2.7
			c8.8-7.9,19.6-17.7,32.3-29.6c3.2-3,10.9-10.2,16.7-10.8c8.6-0.9,17.3-0.7,25.8,0.6c1.3,0.2,2.2,1.4,2,2.7c0,0.3-0.2,0.6-0.3,0.9
			c-1.3,2.2-2.9,4.2-4.8,5.9c-21.9,21.2-41.9,40.1-60.1,56.5c-4.6,4.2-10,7.5-15.8,9.7c-5.4,1.9-11.1,2.8-16.8,2.5
			c-14.4-0.3-29.1-3-32.6-19.5C258.7,59.3,258.4,59.2,257.9,59.6"/>
		<path id="パス_280" class="st1" d="M529.1,20.7V23c-3,8.5-9.9,12.8-17.4,17c-0.5,0.3-0.7,0.9-0.4,1.5c0,0,0,0,0,0
			c0,0,0.1,0.1,0.1,0.1c4.4,5.7,11,11.1,4.6,18.8c-3.5,4.2-7.9,7.5-12.9,9.6C492,75.4,480,78.4,467.7,79
			c-28.9,0.9-57.7,1.2-86.6,0.9c-3.9,0-7.6-0.2-11.1-0.6c-1.4-0.1-2.5-1.4-2.3-2.8c0,0,0,0,0,0c0,0,0-0.1,0-0.1
			c0.6-4.4,1.6-8.6,3-12.8c7.5-21.6,14.8-41,22-58.1c2.6-6.2,9.3-5.1,14.7-5.2c26.9-0.4,53.7-0.3,80.5,0.4c5.4,0,10.8,0.5,16.2,1.6
			C514.1,4.7,526,9.9,529.1,20.7 M450.1,14.3c-5.5,0.4-9.6,9.8-10.3,14.4c-0.1,0.4,0.1,0.8,0.3,1.1c5,5.9,18.7,3.3,24.5,1.5
			c4.6-1.4,10.4-3.2,11.9-7.9C480,12.8,454.2,14,450.1,14.3 M435.9,48.2c-2.8,4.4-6.2,9.5-5.9,14.7c0,0.4,0.2,0.8,0.5,1.1
			c5.2,5.2,21.2,1.5,26.2,0c11.6-3.5,14.3-14.2-0.5-15.7c-6.4-0.7-12.9-0.9-19.4-0.6C436.4,47.7,436.1,47.9,435.9,48.2"/>
		<path id="パス_281" class="st1" d="M0.9,76.4v-4C8,49.2,16.4,26.4,26.1,4.1c1.5-3.5,9.7-3.4,15.2-3.4
			c29.3-0.3,58.5-0.1,87.8,0.6c8.1,0.1,16,2,23.3,5.4c8.6,4.1,13.9,11.4,8.7,21c-2.1,4.1-5.8,7.2-10.3,8.4
			c-7.6,2.1-15.2,4.1-22.8,6.1c-3.1,0.8-6.1,1.9-8.9,3.4c-0.8,0.4-1.1,1.4-0.7,2.2c0.1,0.2,0.3,0.4,0.4,0.5
			c9.1,7.1,17.6,13.8,25.4,20.4c3,2.5,5.8,5.2,8.4,8.1c0.3,0.4,0.3,0.9-0.1,1.2c-0.1,0.1-0.3,0.2-0.5,0.2
			c-18.2,0.8-36.4,0.7-54.6-0.4c-2.6-0.3-5-1.3-6.9-3.1C82.5,68,73.9,61.7,65,56c-0.9-0.6-2.1-0.4-2.8,0.5c-0.7,1-1.2,2.1-1.6,3.2
			c-2.4,6.4-5.5,12.6-9,18.5c-0.2,0.3-0.5,0.5-0.8,0.5c-17.1,0.3-32.2,0.2-45.5-0.2C3.5,78.5,1.9,77.8,0.9,76.4 M77.7,32.8
			c7.6,0.7,24.9-0.2,29.7-7.7c8.1-12.7-24.1-11.1-28.5-10.9c-0.3,0-0.6,0.2-0.8,0.5C75.2,19.1,66.1,31.8,77.7,32.8"/>
	</g>
</g>
</svg>
