<?xml version="1.0" encoding="utf-8"?>
<!-- Generator: Adobe Illustrator 25.0.1, SVG Export Plug-In . SVG Version: 6.00 Build 0)  -->
<svg version="1.1" id="Livello_9" xmlns="http://www.w3.org/2000/svg" xmlns:xlink="http://www.w3.org/1999/xlink" x="0px" y="0px"
	 viewBox="0 0 618.1 286.1" style="enable-background:new 0 0 618.1 286.1;" xml:space="preserve">
<style type="text/css">
	.st0{fill:#010202;}
	.st1{fill:#079539;}
	.st2{fill:#E52421;}
	.st3{fill:#FFFFFF;}
	.st4{fill:#E30613;}
	.st5{fill:#E6E6E6;}
	.st6{fill:url(#SVGID_1_);}
	.st7{fill:url(#SVGID_2_);}
	.st8{fill:url(#SVGID_3_);}
	.st9{fill:url(#SVGID_4_);}
	.st10{fill:url(#SVGID_5_);}
	.st11{fill:url(#SVGID_6_);}
	.st12{fill:url(#SVGID_7_);}
</style>
<path class="st0" d="M591.1,36.1c-3.2-3.3-4.3-4.6-13-4.6s-440.9,0-440.9,0c-21.5-0.7-28.9,7.3-35.4,22.6L28.9,221.6l-1.7,3.9
	c0,0-1.3,3.1-1.3,6.8c-0.4,2.5-0.4,5.8,1.2,8.7c3.1,5.6,10.2,5.9,13.7,5.7c8.7-0.4,446.8,0,446.8,0s10.8,0.4,16.1-3.9
	c5.4-4.2,11.3-17.9,11.3-17.9l77-174.6c0,0,0.6-2.5,0.6-5.3C593,42.3,593.1,38.2,591.1,36.1z"/>
<g>
	<path class="st1" d="M190.6,230.1c-1,0-2,0-3,0c-48.4,0-96.8,0-145.2,0c-0.5,0-1.1,0-1.8,0c1.1-2.2,2.1-4.3,3.2-6.4
		c0.2-0.3,0.4-0.4,0.8-0.4c0.3,0,0.5,0,0.8,0c49.3,0,98,0,147.2,0c0.4,0,0.7,0,1.1,0C192.7,225.6,191.6,227.9,190.6,230.1z"/>
	<path class="st2" d="M343.2,223.3c0.5,0,1.1,0,1.6,0c49,0,97.4,0,146.4,0c1.8,0,1.8,0,1.1,1.6c-0.7,1.5-1.4,3-2,4.5
		c-0.2,0.6-0.6,0.9-1.2,0.8c-0.3,0-0.6,0-1,0c-48.7,0-97.4,0-146.1,0c-0.6,0-1.2,0-1.8-0.1C341.2,227.8,342.2,225.6,343.2,223.3z"/>
	<path class="st3" d="M343.2,223.3c-1,2.3-2,4.5-3,6.8c-0.4,0-0.8,0.1-1.2,0.1c-49.2,0-98.4,0-147.6,0c-0.3,0-0.5,0-0.8,0
		c1-2.3,2.1-4.6,3.1-6.8c0.5,0,0.9,0,1.4,0c49.1,0,97.6,0,146.8,0C342.3,223.3,342.7,223.3,343.2,223.3z"/>
</g>
<path class="st4" d="M58.8,206.9L58.8,206.9l0.8,4.5H55L58.8,206.9 M53.3,213.3H60l0.4,2.3h4.1L62,204.3h-4.4l-10.4,11.3h4
	L53.3,213.3z"/>
<path class="st4" d="M73.9,206.3h3.6c1.6,0,4.1,0.3,2.9,3.6c-0.6,1.9-2.3,3.8-5.4,3.8h-3.7L73.9,206.3 M66.9,215.6h7.9
	c6,0,8.7-3.5,9.6-5.9c0.7-2.1,0.6-5.4-5.6-5.4h-8L66.9,215.6z"/>
<polyline class="st4" points="92.8,212.9 92.7,212.9 91.7,204.3 87.7,204.3 89.9,215.6 93.6,215.6 103.6,204.3 99.7,204.3 
	92.8,212.9 "/>
<path class="st4" d="M110.5,206.9L110.5,206.9l0.8,4.5h-4.6L110.5,206.9 M104.9,213.3h6.7l0.4,2.3h4.1l-2.5-11.3h-4.4l-10.4,11.3h4
	L104.9,213.3z"/>
<polyline class="st4" points="130.8,212.2 130.8,212.2 126.3,204.3 122.3,204.3 118.4,215.6 121.9,215.6 124.7,207.6 124.7,207.6 
	129.4,215.6 133.2,215.6 137.1,204.3 133.5,204.3 130.8,212.2 "/>
<path class="st4" d="M154.9,208c0.4-1.7-1-4-6.5-4c-4.7,0-9.1,2-10.4,5.9c-1.3,3.9,1.4,5.9,6.3,5.9c4.6,0,7.7-1.7,9.3-4.2h-3.8
	c-0.9,1.4-2.7,2.1-4.8,2.1c-3.2,0-3.9-1.8-3.2-3.8c1.1-3.2,4-3.9,5.9-3.9c3.1,0,3.3,1.3,3.4,1.9h3.8"/>
<polyline class="st4" points="172.4,204.3 159,204.3 155.2,215.6 169,215.6 169.7,213.6 159.6,213.6 160.6,210.7 169.4,210.7 
	170.1,208.7 161.3,208.7 162.1,206.3 171.7,206.3 172.4,204.3 "/>
<path class="st4" d="M179,206.3h3.6c1.6,0,4.1,0.3,2.9,3.6c-0.6,1.9-2.3,3.8-5.4,3.8h-3.7L179,206.3 M172.1,215.6h7.9
	c6,0,8.7-3.5,9.6-5.9c0.7-2.1,0.6-5.4-5.6-5.4h-8L172.1,215.6z"/>
<polyline class="st4" points="214.7,204.3 201.3,204.3 197.4,215.6 211.2,215.6 211.9,213.6 201.8,213.6 202.8,210.7 211.7,210.7 
	212.4,208.7 203.5,208.7 204.3,206.3 214,206.3 214.7,204.3 "/>
<polyline class="st4" points="225,209.7 232.4,204.3 228,204.3 223.5,208 221.5,204.3 216.9,204.3 220.6,209.8 212.7,215.6 
	217.2,215.6 222.2,211.7 224.3,215.6 228.9,215.6 225,209.7 "/>
<polyline class="st4" points="243.7,210.5 242,215.6 245.8,215.6 249.6,204.3 245.8,204.3 244.4,208.6 237.3,208.6 238.8,204.3 
	234.9,204.3 231.1,215.6 234.9,215.6 236.6,210.5 243.7,210.5 "/>
<path class="st4" d="M259.7,206.9L259.7,206.9l0.8,4.5h-4.6L259.7,206.9 M254.2,213.3h6.7l0.4,2.3h4.1l-2.5-11.3h-4.4l-10.4,11.3h4
	L254.2,213.3z"/>
<path class="st4" d="M286.2,204.3h-3.9l-2.5,7.4c-0.5,1.4-1.8,2.1-4.4,2.1c-1.8,0-3-0.7-2.5-2.3l2.5-7.3h-3.9l-2.6,7.5
	c-0.3,1.1-0.3,2,0.5,2.7c1.2,1.1,3.6,1.4,5.3,1.4c4.6,0,7.9-1.3,8.9-4.2L286.2,204.3"/>
<path class="st4" d="M286.4,212.1c-0.5,1.4-0.2,3.8,6.5,3.8c1.6,0,7.3-0.3,8.4-3.7c0.7-2-1.4-2.6-3.7-3l-4.2-0.7
	c-0.7-0.1-1.8-0.3-1.5-1.2c0.3-1,2.2-1.3,3.6-1.3c3.3,0,3.2,1.2,3.1,1.7h3.6c0.4-1.4-0.3-3.6-5.8-3.6c-5.9,0-7.8,2.2-8.2,3.5
	c-0.9,2.5,1.8,2.9,4.6,3.3l1.9,0.3c1.8,0.3,3.1,0.5,2.8,1.4c-0.4,1.2-2.5,1.5-4.3,1.5c-3.3,0-3.4-1.2-3.2-1.8h-3.6"/>
<polyline class="st4" points="313.9,206.3 319.4,206.3 320.1,204.3 305.3,204.3 304.6,206.3 310.1,206.3 306.9,215.6 310.7,215.6 
	313.9,206.3 "/>
<polyline class="st4" points="336.4,206.3 341.9,206.3 342.6,204.3 327.8,204.3 327.1,206.3 332.6,206.3 329.5,215.6 333.3,215.6 
	336.4,206.3 "/>
<polyline class="st4" points="358.2,204.3 344.9,204.3 341,215.6 354.8,215.6 355.5,213.6 345.4,213.6 346.4,210.7 355.3,210.7 
	356,208.7 347.1,208.7 347.9,206.3 357.6,206.3 358.2,204.3 "/>
<path class="st4" d="M375.9,208c0.4-1.7-1-4-6.5-4c-4.7,0-9.1,2-10.4,5.9s1.4,5.9,6.3,5.9c4.6,0,7.7-1.7,9.3-4.2h-3.8
	c-0.9,1.4-2.7,2.1-4.8,2.1c-3.2,0-3.9-1.8-3.2-3.8c1.1-3.2,4-3.9,5.9-3.9c3.1,0,3.3,1.3,3.4,1.9h3.8"/>
<polyline class="st4" points="388.7,210.5 387,215.6 390.8,215.6 394.6,204.3 390.8,204.3 389.4,208.6 382.3,208.6 383.7,204.3 
	379.9,204.3 376.1,215.6 379.9,215.6 381.6,210.5 388.7,210.5 "/>
<polyline class="st4" points="406.8,212.2 406.7,212.2 402.2,204.3 398.2,204.3 394.3,215.6 397.9,215.6 400.6,207.6 400.7,207.6 
	405.3,215.6 409.1,215.6 413,204.3 409.5,204.3 406.8,212.2 "/>
<path class="st4" d="M417.7,210c1.1-3.2,4.2-3.9,6.3-3.9c2.1,0,4.7,0.8,3.6,3.9c-1.1,3.2-4.2,3.9-6.3,3.9
	C419.3,213.9,416.6,213.1,417.7,210 M413.9,210c-1.8,5.3,4.3,5.9,6.7,5.9c2.4,0,9-0.6,10.8-5.9c1.8-5.3-4.3-5.9-6.7-5.9
	C422.3,204,415.7,204.7,413.9,210z"/>
<polyline class="st4" points="440.2,204.3 436.4,204.3 432.5,215.6 445.4,215.6 446.1,213.6 437,213.6 440.2,204.3 "/>
<path class="st4" d="M452.9,210c1.1-3.2,4.2-3.9,6.3-3.9c2.1,0,4.7,0.8,3.6,3.9c-1.1,3.2-4.2,3.9-6.3,3.9
	C454.4,213.9,451.8,213.1,452.9,210 M449.1,210c-1.8,5.3,4.3,5.9,6.7,5.9c2.4,0,9-0.6,10.8-5.9c1.8-5.3-4.3-5.9-6.7-5.9
	C457.5,204,450.9,204.7,449.1,210z"/>
<path class="st4" d="M477.7,211.4h4.2c-1.6,2.3-4.4,2.5-5.3,2.5c-2.6,0-5-0.8-4-3.9c1-2.9,3.9-4,6.6-4s3.5,1.4,3.3,1.9h3.8
	c0.3-1.6-1.1-3.8-6.7-3.8c-6.1,0-9.9,2.9-10.9,6c-1.4,4,2,5.9,6.3,5.9c3.3,0,5.1-1,6.3-1.7l-0.1,1.4h2.5l2.1-6.1h-7.6L477.7,211.4"
	/>
<polyline class="st4" points="497.4,211.4 505.9,204.3 501.6,204.3 496.3,209.2 494.2,204.3 489.7,204.3 493.6,211.3 492.1,215.6 
	495.9,215.6 497.4,211.4 "/>
<g>
	<path class="st4" d="M337.6,47.9c-0.6-0.8-1.6-1.3-2.5-1.3l-174.3-0.1c-28.3,0-43,6.9-50.9,23.9c-0.7,1.4-8.6,18.6-9.5,26.2
		c-0.4,3.7,0.7,7.1,3.4,10.1c6.1,6.8,19.4,11,34.9,11c0.1,0,0.1,0,0.2,0l105-0.1c0.3,0,0.8,0.2,1.1,0.6s0.4,0.8,0.2,1.3l-1.9,4.7
		c-0.5,0.9-1.4,1.2-1.8,1.2H88.2c-0.9,0-2.2,0.6-2.9,1.8l-11.6,26c-0.4,0.9-0.3,2,0.3,2.9c0.6,0.9,1.5,1.5,2.7,1.6h190
		c20.2-0.2,37.6-7.2,43.9-17.6h0.1l0.9-1.8l0,0l12.1-27c0-0.1,0.1-0.2,0.1-0.2c1.7-5.1,1.4-9.4-1.1-12.9c-4.7-6.4-16.4-9.5-35.8-9.4
		H179.8c-0.6-0.1-1-0.3-1.3-0.7c-0.3-0.5-0.3-1-0.2-1.1c0.6-1.7,1.3-3.2,2.2-5.1c0.6-1.3,1.8-1.7,2.6-1.7l0,0
		c1.3,0,127.8,0.2,140,0.1c1.4,0,2.5-0.9,3.1-2.3l11.9-27l0.1-0.1C338.5,49.8,338.2,48.8,337.6,47.9z"/>
	<path class="st3" d="M175.4,86.3c-0.4,1-0.3,5.3,4.3,5.7h106.4c27.5,0,39.6,5.4,34.8,18.7l-0.1,0.3l-12.2,27l0,0
		c-5.4,10-22.2,16.8-42.4,17H77c-0.3,0-0.4-0.4-0.3-0.5l11.4-25.7c0-0.1,0.1-0.2,0.4-0.2h153.1c1.7-0.1,3.3-0.7,4.6-3l2-4.9l0.1-0.5
		c0.7-4.1-3.1-5.5-4.4-5.4L140,114.9c-20.6,0-37.7-7-36.7-17.7c0.6-6.4,8.4-23.1,9.3-25c8-17.4,23.2-22.6,49.1-22.6L335,49.7
		c0.2,0,0.4,0.2,0.3,0.5l-12.1,27.2c0,0-0.1,0.2-0.3,0.2c-11,0-120.3,0-140-0.1c-1.7,0-3.4,0.9-4.6,2.4
		C177.7,80.5,176,84.5,175.4,86.3z"/>
</g>
<g>
	<path class="st4" d="M573.3,48.3c-0.7-1.1-1.9-1.7-3.1-1.7h-151c-28,0-52.1,2.1-64.1,28.3c-3,6-23.2,53.1-23.4,53.6l-0.1,0.1
		c-1.4,3.9-1.4,8.3-1,10.9c2.1,13.2,8,19.3,52.7,19.3c6,0,12.7-0.1,20.2-0.3l0,0c0.1,0,0.3,0,0.4,0l118.1,0.1l0,0
		c2.1,0,4-1.2,4.8-3.1l11.4-25.1c0.6-1.2,0.5-2.7-0.3-3.8c-0.7-1.1-2-1.8-3.3-1.8H411.4c-0.7,0-1.4-0.4-1.8-1s-0.5-1.4-0.1-2.1
		c3.2-7.5,8.4-19.2,12.5-28.6c2.1-4.8,3.9-8.9,5-11.4c0.3-0.6,1-1.3,2-1.3l128.6,0.1l0,0c2.1,0,3.9-1.2,4.8-3.1l11.3-25.5
		C574.1,50.7,574,49.4,573.3,48.3z"/>
	<path class="st3" d="M333.8,138.6c-0.2-1.3-0.3-3-0.1-4.7c0.2-1.7,0.5-3.5,1.1-5.2l0,0l0,0c0,0,5-11.5,10.4-23.7
		s11.1-25.1,12.4-28.1c6.1-13.3,15.3-20,26.1-23.5c10.8-3.5,23-3.7,35.2-3.9H494h75.1c0.5,0,1,0.3,1.2,0.7c0.3,0.4,0.3,0.9,0.1,1.4
		c-1.2,2.8-3.5,7.8-5.7,12.8c-2.2,4.9-4.3,9.7-5.3,11.9c-0.2,0.4-0.4,0.7-0.7,0.9c-0.3,0.2-0.7,0.3-1.1,0.3l-64.3-0.1l-64.3,0
		c-0.7,0-1.6,0.2-2.5,0.6s-1.7,1.1-2.2,2.2c-1.5,3.4-4.8,10.9-8.3,18.8s-7.2,16.4-9.6,21.9c-0.5,1.2-0.4,2.9,0.4,4.3
		s2.3,2.6,4.4,2.7h61.7h61.7c0.3,0,0.6,0.2,0.8,0.4c0.2,0.3,0.2,0.6,0.1,0.9c-1.3,2.7-4.1,9.1-6.8,14.9c-1.9,4.3-3.7,8.3-4.6,10.3
		c-0.3,0.8-1.1,1.3-2,1.3c-6.3,0-33.4,0-60.1,0c-30.5,0-60.4,0-58.3-0.1c-30.1,0.8-47.1,0-56.7-2.7
		C337.3,150.1,334.9,145.5,333.8,138.6z"/>
</g>
<g>
	<path class="st5" d="M123.3,167.9c-1.2-0.2-53.9-0.1-53.9-0.1L59,190.9h18.4l3.5-8.3c0,0,31,0,34.4,0s5.6-0.1,5.6-0.1
		c4.1-0.4,5.1-2.8,5.1-2.8c2.6-4.3,3.2-6.6,3.2-6.6C129.9,167.9,123.3,167.9,123.3,167.9z M108.7,174.4c-0.4,1.3-1.2,2.4-1.2,2.4
		s-0.4,0.6-1.9,0.6s-22.3,0-22.3,0l2-4.2h22.6C107.9,173.2,109.2,173.1,108.7,174.4z"/>
	<path class="st5" d="M193.3,167.9c-2.3-0.2-54.2-0.1-54.2-0.1L128.8,191h18.4l4.5-9.9l24.7,0.1l-4.1,9.7h18.4l2.7-6.7
		c0.4-3.1-2.8-3.5-2.8-3.5c5.3-0.4,6.1-2.7,6.1-2.7c2.3-3.9,2.4-5.5,2.4-5.5C199.3,168.9,195.6,168.1,193.3,167.9z M178.6,174.3
		c-0.4,1.3-1.2,2.4-1.2,2.4s-0.4,0.6-1.9,0.6s-22.3,0-22.3,0l2-4.2h22.6C177.7,173.1,179,173,178.6,174.3z"/>
	<path class="st5" d="M268.8,170.2c-1.7-2.8-10.2-2.7-10.2-2.7l-39,0.2c-5.2,0-7.8,1.2-7.8,1.2c-4.8,1.6-5.9,4.8-5.9,4.8l-4.9,11.1
		c-1,2.4,0.3,4,0.3,4c2,2.7,10.2,2.6,10.2,2.6s39.2-0.2,41.5-0.3s4.8-0.9,4.8-0.9c5.5-1.6,6.7-5.4,6.7-5.4l4.8-11
		C270,171.7,268.8,170.2,268.8,170.2z M245.4,184.7H220l4.6-10.4h25.3L245.4,184.7z"/>
	<path class="st5" d="M273.3,180.7h18.4l-1.9,4.2h16l7.5-17.1h18.4l-7.1,17.5c0,0-1.8,5.9-13.7,5.9l-29.4,0.3c0,0-12.5,0.5-10.2-6.4
		L273.3,180.7z"/>
	<polygon class="st5" points="339,167.8 394.5,167.8 392.2,173.3 355.3,173.3 353.7,176.8 390.7,176.8 388.8,181.5 351.9,181.5 
		350.3,185.3 387.1,185.4 384.8,190.9 329.3,190.9 	"/>
	<path class="st5" d="M458.5,167.8l-2.9,6.5H418l-4.6,10.5h37.5l-2.7,6.3l-43.3,0.1c0,0-12.8,0.8-10.6-6l5-11.4c0,0,2-5.9,13.7-5.9
		C424.6,167.8,458.5,167.8,458.5,167.8z"/>
	<polygon class="st5" points="464.7,167.8 520.1,167.8 517.8,173.3 501.2,173.3 493.6,190.9 475.1,190.9 482.5,173.3 462.3,173.3 	
		"/>
</g>
<g>
	
		<linearGradient id="SVGID_1_" gradientUnits="userSpaceOnUse" x1="94.126" y1="96.2411" x2="94.126" y2="119.3984" gradientTransform="matrix(1 0 0 -1 0 287.2756)">
		<stop  offset="0" style="stop-color:#E6E6E6"/>
		<stop  offset="1" style="stop-color:#CDCCCC"/>
	</linearGradient>
	<path class="st6" d="M123.3,168c-1.2-0.2-53.9-0.1-53.9-0.1L59,191h18.4l3.5-8.3c0,0,31,0,34.4,0s5.6-0.1,5.6-0.1
		c4.1-0.4,5.1-2.8,5.1-2.8c2.6-4.3,3.2-6.6,3.2-6.6C129.9,168,123.3,168,123.3,168z M108.7,174.5c-0.4,1.3-1.2,2.4-1.2,2.4
		s-0.4,0.6-1.9,0.6s-22.3,0-22.3,0l2-4.2h22.6C107.9,173.3,109.2,173.2,108.7,174.5z"/>
	
		<linearGradient id="SVGID_2_" gradientUnits="userSpaceOnUse" x1="163.9539" y1="96.2411" x2="163.9539" y2="119.3961" gradientTransform="matrix(1 0 0 -1 0 287.2756)">
		<stop  offset="0" style="stop-color:#E6E6E6"/>
		<stop  offset="1" style="stop-color:#CDCCCC"/>
	</linearGradient>
	<path class="st7" d="M193.3,168c-2.3-0.2-54.2-0.1-54.2-0.1L128.8,191h18.4l4.5-9.9l24.7,0.1l-4.1,9.7h18.4l2.7-6.7
		c0.4-3.1-2.8-3.5-2.8-3.5c5.3-0.4,6.1-2.7,6.1-2.7c2.3-3.9,2.4-5.5,2.4-5.5C199.3,169,195.6,168.2,193.3,168z M178.6,174.4
		c-0.4,1.3-1.2,2.4-1.2,2.4s-0.4,0.6-1.9,0.6s-22.3,0-22.3,0l2-4.2h22.6C177.7,173.2,179,173.2,178.6,174.4z"/>
	
		<linearGradient id="SVGID_3_" gradientUnits="userSpaceOnUse" x1="235.0706" y1="95.7642" x2="235.0706" y2="119.5818" gradientTransform="matrix(1 0 0 -1 0 287.2756)">
		<stop  offset="0" style="stop-color:#E6E6E6"/>
		<stop  offset="1" style="stop-color:#CDCCCC"/>
	</linearGradient>
	<path class="st8" d="M268.8,170.4c-1.7-2.8-10.2-2.7-10.2-2.7l-39,0.2c-5.2,0-7.8,1.2-7.8,1.2c-4.8,1.6-5.9,4.8-5.9,4.8L201,185
		c-1,2.4,0.3,4,0.3,4c2,2.7,10.2,2.6,10.2,2.6s39.2-0.2,41.5-0.3s4.8-0.9,4.8-0.9c5.5-1.6,6.7-5.4,6.7-5.4l4.8-11
		C270,171.8,268.8,170.4,268.8,170.4z M245.4,184.8H220l4.6-10.4h25.3L245.4,184.8z"/>
	
		<linearGradient id="SVGID_4_" gradientUnits="userSpaceOnUse" x1="301.3587" y1="95.6404" x2="301.3587" y2="119.3484" gradientTransform="matrix(1 0 0 -1 0 287.2756)">
		<stop  offset="0" style="stop-color:#E6E6E6"/>
		<stop  offset="1" style="stop-color:#CDCCCC"/>
	</linearGradient>
	<path class="st9" d="M273.3,180.8h18.4l-1.9,4.2h16l7.5-17.1h18.4l-7.1,17.5c0,0-1.8,5.9-13.7,5.9l-29.4,0.3c0,0-12.5,0.5-10.2-6.4
		L273.3,180.8z"/>
	
		<linearGradient id="SVGID_5_" gradientUnits="userSpaceOnUse" x1="361.9" y1="96.2421" x2="361.9" y2="119.4073" gradientTransform="matrix(1 0 0 -1 0 287.2756)">
		<stop  offset="0" style="stop-color:#E6E6E6"/>
		<stop  offset="1" style="stop-color:#CDCCCC"/>
	</linearGradient>
	<polygon class="st10" points="339,167.9 394.5,167.9 392.2,173.4 355.3,173.4 353.7,177 390.7,177 388.8,181.6 351.9,181.6 
		350.3,185.4 387.1,185.5 384.8,191 329.3,191 	"/>
	
		<linearGradient id="SVGID_6_" gradientUnits="userSpaceOnUse" x1="426.2729" y1="95.9466" x2="426.2729" y2="119.419" gradientTransform="matrix(1 0 0 -1 0 287.2756)">
		<stop  offset="0" style="stop-color:#E6E6E6"/>
		<stop  offset="1" style="stop-color:#CDCCCC"/>
	</linearGradient>
	<path class="st11" d="M458.5,167.9l-2.9,6.5H418l-4.6,10.5h37.5l-2.7,6.3l-43.3,0.1c0,0-12.8,0.8-10.6-6l5-11.4c0,0,2-5.9,13.7-5.9
		C424.6,167.9,458.5,167.9,458.5,167.9z"/>
	
		<linearGradient id="SVGID_7_" gradientUnits="userSpaceOnUse" x1="491.2" y1="96.2411" x2="491.2" y2="119.3953" gradientTransform="matrix(1 0 0 -1 0 287.2756)">
		<stop  offset="0" style="stop-color:#E6E6E6"/>
		<stop  offset="1" style="stop-color:#CDCCCC"/>
	</linearGradient>
	<polygon class="st12" points="464.7,167.9 520.1,167.9 517.8,173.4 501.2,173.4 493.6,191 475.1,191 482.5,173.4 462.3,173.4 	"/>
</g>
<g>
	<path class="st3" d="M582.1,47.8c-3.3,0-5.9-2.7-5.9-5.9c0-3.3,2.7-5.9,5.9-5.9s5.9,2.7,5.9,5.9C588.1,45.1,585.4,47.8,582.1,47.8z
		 M582.1,36.4c-3,0-5.4,2.4-5.4,5.4s2.4,5.4,5.4,5.4s5.4-2.4,5.4-5.4C587.6,38.9,585.1,36.4,582.1,36.4z"/>
	<g>
		<path class="st3" d="M581.1,42.4v2.9h-1.5v-7.2h3.2c1.6,0,2.4,0.9,2.4,2c0,1-0.5,1.5-1.1,1.7c0.4,0.1,0.9,0.5,0.9,1.8V44
			c0,0.5,0,1,0.1,1.4h-1.5c-0.1-0.3-0.2-0.9-0.2-1.6v-0.1c0-0.8-0.2-1.2-1.4-1.2h-0.9V42.4z M581.1,41.2h1.3c0.9,0,1.2-0.3,1.2-0.9
			c0-0.6-0.4-0.9-1.2-0.9H581v1.8H581.1z"/>
	</g>
</g>
</svg>
