<svg width="121" height="49" viewBox="0 0 121 49" fill="none" xmlns="http://www.w3.org/2000/svg">
<path opacity="0.818" d="M45.2679 33.1119L37.239 32.6789L32.7415 47.2707L27.9109 33.0786L14.1518 40.7077L23.2135 27.1153L0.0930176 22.751L22.8804 20.0858L14.9181 8.69221L29.1103 13.0562L32.2418 1.82933L35.8732 13.3563L44.9348 12.1569L40.0708 19.4196L57.0278 22.4179L45.3012 7.5595C44.9014 6.8932 44.8015 6.12698 44.968 5.26077C45.1676 4.22799 45.7343 3.32852 46.6005 2.5623C47.4033 1.86366 48.4348 1.48426 49.4989 1.49618H114.529C118.227 1.72942 120.093 3.42844 120.093 6.52672C120.089 7.13168 120.022 7.73458 119.893 8.32573L118.927 12.8899C118.328 15.7217 116.762 17.7205 114.23 18.8532C113.197 19.3196 111.998 19.6194 110.632 19.7194H90.4428L88.9103 26.8484H75.0513L77.5167 15.2216H104.568L106.534 5.92674H59.46L71.0536 20.552C71.5533 21.2183 71.7199 22.0511 71.4867 23.0839C71.2871 24.1166 70.7204 25.0161 69.8542 25.7823C68.9548 26.5152 67.9886 26.915 66.9558 26.915H41.2368L45.2679 33.1119Z" stroke="#E02424"/>
</svg>
