<svg xmlns="http://www.w3.org/2000/svg" viewBox="0 0 1340.75 277.21"><defs><style>.cls-1{fill:#fff;}.cls-2{fill:#ffe100;}</style></defs><g id="Ebene_2" data-name="Ebene 2"><g id="Ebene_1-2" data-name="Ebene 1"><path class="cls-1" d="M1311.2,50.87H1210.11a29.55,29.55,0,0,0-27.6,19,26.89,26.89,0,0,1,4.78-.44h118.13A16.43,16.43,0,0,1,1321.81,87l-8.27,118.24a25.68,25.68,0,0,1-.76,4.68,29.58,29.58,0,0,0,20.82-26.19l7.08-101.24A29.55,29.55,0,0,0,1311.2,50.87Z"/><path class="cls-1" d="M1138.24,277.21h101.09a29.56,29.56,0,0,0,27.6-19,26,26,0,0,1-4.78.44H1144a16.42,16.42,0,0,1-16.38-17.57l8.26-118.23a27.53,27.53,0,0,1,.76-4.68,29.56,29.56,0,0,0-20.81,26.19l-7.08,101.23A29.56,29.56,0,0,0,1138.24,277.21Z"/><path class="cls-1" d="M1248.2,182c-3,15.35-18,27.9-33.62,27.9s-25.85-12.09-23-27l7.78-.15c-2.14,11,5.47,19.68,16.63,19.68,11.46,0,22.41-9.3,24.64-20.76s-5.29-19.84-16.75-19.84h-20.15L1242,123.13h-38.73l1.44-7.43h53.61l-38.51,38.73h5.26C1240.86,154.43,1251.24,166.36,1248.2,182Z"/><path class="cls-1" d="M5.23,206.54l28.46-16.16c3.46,11.17,12.51,18.53,25.58,18.53,10.93,0,18.41-5.22,19.65-13.06,4-24.95-63.7-13.31-56-61.78C27.41,105.56,52.6,92,75.17,92c17.59,0,32.23,8.08,40.76,20.2l-24.07,20c-5.88-7.84-13.25-12.36-21.33-12.36-7.6,0-14.38,3.8-15.66,11.88C51,156.4,118.6,143.34,110.25,196.08,106,222.7,81,238.38,54.37,238.38,29.42,238.38,11.68,224.36,5.23,206.54Z"/><path class="cls-1" d="M226.44,121.71H190.55L172.38,236.48H141.25l18.18-114.77H123.31l4.41-27.8H230.84Z"/><path class="cls-1" d="M341.48,236.48l-22.61-47.76-37.74,47.76H245l61.05-73.42L270.44,93.91h35.88L327,137.16l34.42-43.25h35.88l-57.49,68.91,37.52,73.66Z"/><path class="cls-1" d="M489.63,121.71H453.75L435.57,236.48H404.44l18.18-114.77H386.5l4.41-27.8H494Z"/><path class="cls-1" d="M561.15,209.63H507.92l-13,26.85h-33.5l73.9-142.57h35.16l28.75,142.57h-33.5ZM557,183.49l-9.34-56.55-27.25,56.55Z"/><path class="cls-1" d="M760.75,132.88c-3.43,21.62-23.48,38.73-45.1,38.73H678.34l-10.27,64.87H656.66L679.24,93.91H728C749.58,93.91,764.17,111.26,760.75,132.88Zm-11.4,0c2.55-16.16-8.2-27.8-24.12-27.8H688.88l-8.8,55.6h36.35C732.35,160.68,746.67,149.75,749.35,132.88Z"/><path class="cls-1" d="M831.73,225.07l-1.8,11.41H764.11L786.69,93.91h11.4L777.32,225.07Z"/><path class="cls-1" d="M850.82,189.43l15.12-95.52h11.41l-14.87,93.86C858.94,210.1,873.86,227,896.9,227c23.29,0,43.55-16.87,47.08-39.2l14.87-93.86h11.4l-15.13,95.52c-4.4,27.8-30.08,48.95-60,48.95C865.4,238.38,846.41,217.23,850.82,189.43Z"/><path class="cls-1" d="M972,210.1l11.4-5.94c2.88,13.31,14.2,22.81,31.55,22.81s33.34-9.5,36-26.37c6-37.78-66.83-26.61-59.57-72.47,3.65-23,24-36.12,44.45-36.12,15.92,0,28,7.61,33.84,17.35l-10.19,7.36c-4.22-7.84-13.34-13.3-25.22-13.3-14.25,0-28.8,7.84-31.36,24-5.84,36.82,67,25.42,59.53,72.7-4,24.95-26.5,38.26-49.54,38.26C991.75,238.38,976.25,226.73,972,210.1Z"/></g></g></svg>