<svg width="1000" height="1000" viewBox="0 0 1000 1000" fill="none" xmlns="http://www.w3.org/2000/svg">
<g clip-path="url(#clip0_8530_20513)">
<path d="M790.787 634H106.36C94.8253 634 89.0642 624.647 93.4919 613.11L180.31 386.89C184.738 375.353 197.677 366 209.212 366H893.639C905.173 366 910.934 375.353 906.507 386.89L819.689 613.11C815.261 624.647 802.321 634 790.786 634H790.787Z" fill="#0F0915"/>
<path d="M680.646 545.603L678.214 551.94C673.786 563.477 660.846 572.83 649.311 572.83H641.225C629.69 572.83 623.929 563.477 628.357 551.94L638.806 524.712L653.575 486.231L653.662 486.005C658.089 474.468 671.029 465.115 682.565 465.115H690.651C691.694 465.115 842.984 465.341 842.984 465.341L854.189 436.146H693.682C682.148 436.146 676.387 426.793 680.814 415.256L686.909 399.376H576.079C564.545 399.376 551.604 408.729 547.176 420.266L485.976 579.734C481.549 591.272 487.31 600.625 498.844 600.625H770.181C781.715 600.625 794.656 591.272 799.083 579.734L812.183 545.603H680.647H680.646Z" fill="#FADC18"/>
<path d="M340.51 487.855H322.175C313.47 487.855 309.123 480.797 312.465 472.09L323.906 442.277C327.248 433.57 337.013 426.512 345.717 426.512H364.052C372.757 426.512 377.105 433.571 373.763 442.277L366.356 461.578H498.17L514.024 420.267C518.452 408.73 512.691 399.377 501.157 399.377H229.819C218.285 399.377 205.344 408.73 200.917 420.267L173.673 491.257C169.245 502.794 175.006 512.147 186.541 512.147H331.566C340.271 512.147 344.618 519.205 341.276 527.911L329.835 557.726C326.493 566.433 316.728 573.49 308.024 573.49H289.689C280.984 573.49 276.636 566.432 279.978 557.726L287.385 538.424H155.571L139.717 579.736C135.289 591.273 141.05 600.626 152.584 600.626H423.921C435.455 600.626 448.396 591.273 452.824 579.736L480.068 508.747C484.496 497.209 478.735 487.857 467.2 487.857H340.51V487.855Z" fill="#FADC18"/>
</g>
<defs>
<clipPath id="clip0_8530_20513">
<rect width="816" height="268" fill="white" transform="translate(92 366)"/>
</clipPath>
</defs>
</svg>
