<?xml version="1.0" encoding="utf-8"?>
<!-- Generator: Adobe Illustrator 23.0.1, SVG Export Plug-In . SVG Version: 6.00 Build 0)  -->
<svg version="1.1" id="Livello_1" xmlns="http://www.w3.org/2000/svg" xmlns:xlink="http://www.w3.org/1999/xlink" x="0px" y="0px"
	 viewBox="0 0 198 90" style="enable-background:new 0 0 198 90;" xml:space="preserve">
<style type="text/css">
	.st0{fill:#FFFFFF;}
	.st1{fill:#141F35;}
</style>
<g>
	<path class="st0" d="M62.29,50.21h-1.98v8.47h-4.14v-2.99h1.15V39.1c0-0.71,0.18-1.37,0.53-1.98c0.36-0.61,0.84-1.09,1.45-1.45
		c0.61-0.36,1.28-0.53,2-0.53c0.74,0,1.41,0.17,2.01,0.52c0.6,0.35,1.08,0.84,1.44,1.46c0.36,0.62,0.53,1.28,0.53,1.98v16.59h1.15
		v2.99h-4.14V50.21z M60.31,47.22h1.98V39.1c0-0.28-0.1-0.52-0.29-0.71s-0.43-0.28-0.7-0.28c-0.27,0-0.51,0.1-0.7,0.29
		c-0.19,0.19-0.29,0.43-0.29,0.7V47.22z"/>
	<path class="st0" d="M76.41,50.41v5.28h1.15v2.99h-4.14v-8.27c0-0.28-0.09-0.52-0.27-0.71c-0.18-0.19-0.42-0.28-0.72-0.28h-0.99
		v9.26h-4.14v-2.99h1.15V38.48h-1.15v-2.99h5.13c1.13,0,2.07,0.38,2.84,1.15c0.76,0.76,1.15,1.71,1.15,2.84v5.96
		c0,0.95-0.29,1.77-0.87,2.47c0.14,0.13,0.32,0.4,0.54,0.8C76.3,49.1,76.41,49.67,76.41,50.41z M71.44,46.43h0.99
		c0.27,0,0.5-0.09,0.7-0.27c0.19-0.18,0.29-0.42,0.29-0.72v-5.96c0-0.28-0.09-0.52-0.27-0.71c-0.18-0.19-0.42-0.28-0.72-0.28h-0.99
		V46.43z"/>
	<path class="st0" d="M84.88,38.48v17.21h1.17v2.99h-5.3v-2.99h1.15V38.48h-1.3v3.13H77.6v-6.12h11.59v6.12H86.2v-3.13H84.88z"/>
	<path class="st0" d="M91.19,38.48h-1.15v-2.99h8.62v4.97h-2.99v-1.98h-1.5v6.27h2.98v2.99h-2.98v7.94h1.5v-1.98h2.99v4.97h-8.62
		v-2.99h1.15V38.48z"/>
	<path class="st0" d="M106.23,38.48h-1.15v-2.99h4.14v19.44l1.86,1.88l-2.06,2.1l-0.99-0.99c-0.8,0.71-1.74,1.07-2.8,1.07
		c-0.7,0-1.36-0.17-1.97-0.51s-1.1-0.82-1.47-1.44c-0.36-0.61-0.54-1.28-0.54-2.01v-8.95c0-0.73,0.18-1.4,0.54-2.01
		c0.36-0.61,0.85-1.1,1.46-1.45c0.61-0.35,1.27-0.52,1.98-0.52h0.99V38.48z M106.23,45.09h-0.99c-0.29,0-0.52,0.1-0.71,0.29
		c-0.19,0.19-0.28,0.43-0.28,0.7v8.95c0,0.27,0.1,0.51,0.29,0.7c0.19,0.19,0.43,0.29,0.7,0.29c0.27,0,0.51-0.09,0.7-0.27
		c0.19-0.18,0.29-0.42,0.29-0.72V45.09z"/>
	<path class="st0" d="M117.01,46.08c0-0.22-0.1-0.44-0.29-0.66c-0.19-0.22-0.43-0.33-0.7-0.33h-1.84v-2.99h1.85
		c0.71,0,1.37,0.18,1.98,0.53c0.61,0.36,1.09,0.84,1.45,1.45c0.36,0.61,0.54,1.28,0.54,2v8.86l1.88,1.88l-2.12,2.1l-1-0.99
		c-0.8,0.71-1.72,1.07-2.74,1.07c-1.1,0-2.04-0.39-2.82-1.16s-1.17-1.71-1.17-2.8v-2.99c0-1.09,0.38-2.02,1.15-2.81
		c0.77-0.78,1.71-1.17,2.83-1.17h0.99V46.08z M117.01,51.05h-0.98c-0.28,0-0.52,0.1-0.71,0.29c-0.19,0.19-0.29,0.43-0.29,0.7v2.99
		c0,0.27,0.1,0.51,0.31,0.7c0.2,0.19,0.44,0.29,0.69,0.29c0.27,0,0.5-0.1,0.69-0.29c0.19-0.19,0.29-0.43,0.29-0.7V51.05z"/>
	<path class="st0" d="M129.06,40.46v-1.98h-0.99c-0.29,0-0.52,0.1-0.71,0.29c-0.19,0.19-0.28,0.43-0.28,0.7v15.56
		c0,0.27,0.1,0.51,0.29,0.7c0.19,0.19,0.43,0.29,0.7,0.29c0.27,0,0.51-0.09,0.7-0.27c0.19-0.18,0.29-0.42,0.29-0.72v-1.32h2.99v1.32
		c0,1.11-0.39,2.05-1.16,2.82c-0.78,0.76-1.72,1.15-2.82,1.15c-0.7,0-1.36-0.17-1.97-0.51s-1.1-0.82-1.47-1.44
		c-0.36-0.61-0.54-1.28-0.54-2.01V39.47c0-1.11,0.39-2.06,1.17-2.83c0.78-0.77,1.72-1.16,2.81-1.16h3.98v4.97H129.06z"/>
	<path class="st0" d="M137.22,35.14c0.74,0,1.41,0.17,2.01,0.52c0.6,0.35,1.08,0.84,1.44,1.46c0.36,0.62,0.53,1.28,0.53,1.98v15.93
		c0,1.11-0.39,2.05-1.16,2.82c-0.78,0.76-1.72,1.15-2.82,1.15c-0.7,0-1.36-0.17-1.97-0.51c-0.61-0.34-1.1-0.82-1.47-1.44
		c-0.36-0.61-0.54-1.28-0.54-2.01V39.1c0-0.71,0.18-1.38,0.54-1.99c0.36-0.61,0.85-1.1,1.46-1.45
		C135.85,35.32,136.51,35.14,137.22,35.14z M136.23,55.03c0,0.27,0.1,0.51,0.29,0.7c0.19,0.19,0.43,0.29,0.7,0.29
		c0.27,0,0.51-0.09,0.7-0.27c0.19-0.18,0.29-0.42,0.29-0.72V39.1c0-0.28-0.1-0.52-0.29-0.71s-0.43-0.28-0.7-0.28
		c-0.27,0-0.51,0.1-0.7,0.29c-0.19,0.19-0.29,0.43-0.29,0.7V55.03z"/>
	<path class="st0" d="M151.5,50.41v5.28h1.15v2.99h-4.14v-8.27c0-0.28-0.09-0.52-0.27-0.71c-0.18-0.19-0.42-0.28-0.72-0.28h-0.99
		v9.26h-4.14v-2.99h1.15V38.48h-1.15v-2.99h5.13c1.13,0,2.07,0.38,2.84,1.15c0.76,0.76,1.15,1.71,1.15,2.84v5.96
		c0,0.95-0.29,1.77-0.87,2.47c0.14,0.13,0.32,0.4,0.54,0.8C151.39,49.1,151.5,49.67,151.5,50.41z M146.53,46.43h0.99
		c0.27,0,0.51-0.09,0.7-0.27c0.19-0.18,0.29-0.42,0.29-0.72v-5.96c0-0.28-0.09-0.52-0.27-0.71c-0.18-0.19-0.42-0.28-0.72-0.28h-0.99
		V46.43z"/>
	<path class="st0" d="M156.67,52.54v2.47c0,0.27,0.1,0.51,0.29,0.7c0.19,0.19,0.43,0.29,0.7,0.29s0.51-0.09,0.7-0.27
		c0.19-0.18,0.29-0.42,0.29-0.72v-3.75l-4.97-8.24v-3.91c0-0.7,0.18-1.36,0.53-1.98s0.84-1.11,1.44-1.46
		c0.6-0.35,1.27-0.53,2.01-0.53s1.41,0.18,2.01,0.53c0.6,0.35,1.08,0.84,1.44,1.46c0.36,0.62,0.53,1.29,0.53,1.99v2.51h-2.99v-2.51
		c0-0.29-0.1-0.52-0.29-0.71c-0.19-0.19-0.43-0.28-0.7-0.28s-0.51,0.1-0.7,0.29c-0.19,0.19-0.29,0.43-0.29,0.7v3.11l4.97,8.24v4.55
		c0,1.12-0.39,2.06-1.17,2.82c-0.78,0.76-1.72,1.15-2.82,1.15c-1.1,0-2.04-0.39-2.82-1.17c-0.78-0.78-1.17-1.71-1.17-2.81v-2.47
		H156.67z"/>
	<path class="st0" d="M168.78,50.21h-1.98v8.47h-4.14v-2.99h1.15V39.1c0-0.71,0.18-1.37,0.53-1.98c0.36-0.61,0.84-1.09,1.45-1.45
		c0.61-0.36,1.28-0.53,2-0.53c0.74,0,1.41,0.17,2.01,0.52c0.6,0.35,1.08,0.84,1.44,1.46c0.36,0.62,0.53,1.28,0.53,1.98v16.59h1.15
		v2.99h-4.14V50.21z M166.8,47.22h1.98V39.1c0-0.28-0.1-0.52-0.29-0.71c-0.19-0.19-0.43-0.28-0.7-0.28c-0.27,0-0.5,0.1-0.7,0.29
		c-0.19,0.19-0.29,0.43-0.29,0.7V47.22z"/>
</g>
<g>
	<g>
		<path class="st0" d="M15.03,52.54v2.76c0,0.7,0.7,1.44,1.44,1.44c0.74,0,1.44-0.74,1.44-1.44v-4.6l-5.47-9.11v-4.55
			c0-2.19,1.84-4.03,4.03-4.03c2.19,0,4.03,1.84,4.03,4.03v2.71h-2.58v-2.71c0-0.74-0.7-1.44-1.44-1.44c-0.74,0-1.44,0.7-1.44,1.44
			v3.81L20.5,50v5.3c0,2.19-1.84,3.98-4.03,3.98c-2.19,0-4.03-1.79-4.03-3.98v-2.76H15.03z"/>
	</g>
	<g>
		<g>
			<ellipse class="st1" cx="29.01" cy="45" rx="20.89" ry="35.71"/>
		</g>
	</g>
	<g>
		<path class="st0" d="M15.03,52.54v2.76c0,0.7,0.7,1.44,1.44,1.44c0.74,0,1.44-0.74,1.44-1.44v-4.6l-5.47-9.11v-4.55
			c0-2.19,1.84-4.03,4.03-4.03c2.19,0,4.03,1.84,4.03,4.03v2.71h-2.58v-2.71c0-0.74-0.7-1.44-1.44-1.44c-0.74,0-1.44,0.7-1.44,1.44
			v3.81L20.5,50v5.3c0,2.19-1.84,3.98-4.03,3.98c-2.19,0-4.03-1.79-4.03-3.98v-2.76H15.03z"/>
	</g>
	<g>
		<path class="st0" d="M25.93,56.39V35.95h-1.44v3.81H21.9v-6.35H32.5v6.35h-2.54v-3.81h-1.49v20.44h1.09v2.54h-4.73v-2.54H25.93z"
			/>
	</g>
	<g>
		<path class="st0" d="M37.37,35.95l2.36,5.95l2.41-5.95v-2.54h3.63v2.54h-1.09v20.44h1.09v2.54h-3.63V42.69l-2.41,5.91l-2.36-5.91
			v16.24h-3.63v-2.54h1.09V35.95h-1.09v-2.54h3.63V35.95z"/>
	</g>
	<g>
		<path class="st0" d="M22.26,66.74v3.78h0.25v0.66h-1.16v-0.66h0.25v-3.78h-0.25v-0.66h1.16v0.66H22.26z"/>
	</g>
	<g>
		<path class="st0" d="M25.49,66.74v3.78h0.26v0.66h-1.17v-0.66h0.25v-3.78h-0.29v0.69h-0.66v-1.35h2.55v1.35h-0.66v-0.69H25.49z"/>
	</g>
	<g>
		<path class="st0" d="M29.08,69.32h-0.44v1.86h-0.91v-0.66h0.25v-3.64c0-0.48,0.38-0.87,0.87-0.87s0.87,0.39,0.87,0.87v3.64h0.25
			v0.66h-0.91V69.32z M28.64,68.67h0.44v-1.78c0-0.12-0.1-0.22-0.22-0.22s-0.22,0.1-0.22,0.22V68.67z"/>
	</g>
	<g>
		<path class="st0" d="M32.37,66.74v3.78h0.33v-0.69h0.66v1.35h-1.9v-0.66h0.25v-3.78h-0.25v-0.66h1.16v0.66H32.37z"/>
	</g>
	<g>
		<path class="st0" d="M35.85,68.53v1.99h0.25v0.66h-1.16v-0.66h0.25v-1.99l-0.54-0.91v-0.88h-0.26v-0.66h0.92v1.37l0.22,0.36
			l0.22-0.36v-1.37h0.91v0.66H36.4v0.88L35.85,68.53z"/>
	</g>
	<g>
		<path class="st0" d="M12.61,30.01c2.73-0.27,5.47-0.4,8.2-0.5c2.73-0.1,5.47-0.14,8.2-0.14c2.73,0,5.47,0.04,8.2,0.14
			c2.73,0.09,5.47,0.23,8.2,0.5c-2.73,0.27-5.47,0.41-8.2,0.5c-2.73,0.1-5.47,0.14-8.2,0.14c-2.73,0-5.47-0.04-8.2-0.14
			C18.08,30.42,15.34,30.28,12.61,30.01z"/>
	</g>
	<g>
		<path class="st0" d="M12.61,62.47c2.73-0.27,5.47-0.4,8.2-0.5c2.73-0.1,5.47-0.14,8.2-0.14c2.73,0,5.47,0.04,8.2,0.14
			c2.73,0.09,5.47,0.23,8.2,0.5c-2.73,0.27-5.47,0.41-8.2,0.5c-2.73,0.1-5.47,0.14-8.2,0.14c-2.73,0-5.47-0.04-8.2-0.14
			C18.08,62.88,15.34,62.74,12.61,62.47z"/>
	</g>
	<g>
		<path class="st0" d="M29.01,81.47c-2.93,0-5.77-0.98-8.44-2.91c-2.56-1.85-4.85-4.49-6.82-7.85c-4.02-6.87-6.24-16-6.24-25.71
			s2.21-18.84,6.24-25.71c1.97-3.36,4.26-6,6.82-7.85c2.67-1.93,5.51-2.91,8.44-2.91s5.77,0.98,8.44,2.91
			c2.56,1.85,4.85,4.49,6.82,7.85c4.02,6.87,6.24,16,6.24,25.71s-2.21,18.84-6.24,25.71c-1.97,3.36-4.26,6-6.82,7.85
			C34.79,80.49,31.95,81.47,29.01,81.47z M29.01,9.68C17.71,9.68,8.51,25.52,8.51,45s9.2,35.32,20.5,35.32S49.52,64.48,49.52,45
			S40.32,9.68,29.01,9.68z"/>
	</g>
</g>
</svg>
