<svg xmlns="http://www.w3.org/2000/svg" viewBox="0 0 487.22 34.76"><defs><style>.cls-1{fill:#fff;}</style></defs><g id="Ebene_2" data-name="Ebene 2"><g id="Layer_1" data-name="Layer 1"><path class="cls-1" d="M196.38,22.68v1.47A2.49,2.49,0,0,1,193.57,27H152a2.49,2.49,0,0,1-2.81-2.81V10.61A2.48,2.48,0,0,1,152,7.81h41.59a2.48,2.48,0,0,1,2.81,2.8v1.47a1.4,1.4,0,0,0,1.39,1.4h5a1.4,1.4,0,0,0,1.4-1.4V10.61Q204.18,0,193.57,0H152q-10.62,0-10.62,10.61V24.15q0,10.62,10.62,10.61h41.59q10.6,0,10.61-10.61V22.68a1.39,1.39,0,0,0-1.39-1.39h-5a1.39,1.39,0,0,0-1.39,1.39"/><path class="cls-1" d="M339.24,34.76h5a1.4,1.4,0,0,0,1.4-1.39V10.61Q345.65,0,335,0h-41.6q-10.6,0-10.61,10.61V33.37a1.4,1.4,0,0,0,1.4,1.39h5a1.4,1.4,0,0,0,1.4-1.39V10.61a2.47,2.47,0,0,1,2.8-2.8H335a2.47,2.47,0,0,1,2.8,2.8v2.17a.69.69,0,0,1-.69.7H297.71a1.4,1.4,0,0,0-1.4,1.39v5a1.4,1.4,0,0,0,1.4,1.4h39.44a.69.69,0,0,1,.69.69V33.37a1.4,1.4,0,0,0,1.4,1.39"/><path class="cls-1" d="M453.31,34.76h5a1.4,1.4,0,0,0,1.4-1.39V8.51a.7.7,0,0,1,.7-.7h25.41a1.4,1.4,0,0,0,1.39-1.4v-5A1.4,1.4,0,0,0,485.83,0h-60a1.4,1.4,0,0,0-1.39,1.4v5a1.4,1.4,0,0,0,1.39,1.4h25.41a.7.7,0,0,1,.7.7V33.37a1.4,1.4,0,0,0,1.4,1.39"/><path class="cls-1" d="M268.51,34.76h5a1.4,1.4,0,0,0,1.4-1.39V1.4a1.4,1.4,0,0,0-1.4-1.4h-5a1.4,1.4,0,0,0-1.4,1.4V12.78a.7.7,0,0,1-.7.7H227a1.39,1.39,0,0,0-1.39,1.39v5a1.4,1.4,0,0,0,1.39,1.4h39.44a.69.69,0,0,1,.7.69V33.37a1.4,1.4,0,0,0,1.4,1.39"/><path class="cls-1" d="M219.91,33.37V1.4a1.4,1.4,0,0,0-1.4-1.4h-5a1.39,1.39,0,0,0-1.39,1.4v32a1.39,1.39,0,0,0,1.39,1.39h5a1.4,1.4,0,0,0,1.4-1.39"/><path class="cls-1" d="M126.79,19.89v-5a1.4,1.4,0,0,0-1.4-1.39H84.52a1.4,1.4,0,0,0-1.4,1.39v5a1.4,1.4,0,0,0,1.4,1.4h40.87a1.4,1.4,0,0,0,1.4-1.4"/><path class="cls-1" d="M79.15,7.81h52.92a1.4,1.4,0,0,0,1.39-1.4v-5A1.39,1.39,0,0,0,132.07,0H72a1.39,1.39,0,0,0-1.39,1.4v32A1.39,1.39,0,0,0,72,34.76h60a1.39,1.39,0,0,0,1.39-1.39v-5A1.39,1.39,0,0,0,132.07,27H79.15a.7.7,0,0,1-.7-.7V8.5a.69.69,0,0,1,.7-.69"/><path class="cls-1" d="M62.82,6.41v-5A1.4,1.4,0,0,0,61.42,0H1.4A1.39,1.39,0,0,0,0,1.4v5a1.4,1.4,0,0,0,1.4,1.4H26.81a.69.69,0,0,1,.69.7V33.37a1.4,1.4,0,0,0,1.4,1.39h5a1.39,1.39,0,0,0,1.39-1.39V8.51a.7.7,0,0,1,.7-.7H61.42a1.4,1.4,0,0,0,1.4-1.4"/><path class="cls-1" d="M355,0a1.4,1.4,0,0,0-1.39,1.4v32A1.39,1.39,0,0,0,355,34.76h5a1.39,1.39,0,0,0,1.39-1.39V8.5a.7.7,0,0,1,.7-.69h43.67a2.51,2.51,0,0,1,2.84,2.83,2.51,2.51,0,0,1-2.84,2.84h-37.3a1.4,1.4,0,0,0-1.4,1.39v5a1.4,1.4,0,0,0,1.4,1.4H395.1q12.27,0,13.42,12.21a1.39,1.39,0,0,0,1.39,1.26h5a1.39,1.39,0,0,0,1.39-1.39v-.1a20.72,20.72,0,0,0-5.19-12.5l-.07-.09a.7.7,0,0,1,.23-1q6.84-4.18,4.7-11.92T405.74,0Z"/></g></g></svg>