<svg aria-label="Logo" class="w-auto h-full" width="173" height="56" viewBox="0 0 173 56" fill="none" xmlns="http://www.w3.org/2000/svg">
<path fill-rule="evenodd" clip-rule="evenodd" d="M92.1616 47.8223C92.1616 48.1972 92.2528 48.5721 92.6634 48.8198C92.7904 48.9046 93.1186 49.0676 93.7393 49.0676C94.2223 49.0676 95.2991 48.9331 95.2991 47.8721C95.2991 47.2992 95.0612 47.0441 94.5326 46.6056L93.7214 45.948C93.2653 45.5722 93.0918 45.4239 93.0918 45.0491C93.0918 44.9072 93.0918 44.455 93.767 44.455C94.3323 44.455 94.4136 44.7663 94.4324 44.8584C94.4503 44.9496 94.4503 44.9993 94.4691 45.4737H95.1712C95.1712 44.7377 95.1712 44.5683 94.9887 44.3343C94.6963 43.9659 94.1409 43.9245 93.8126 43.9245C92.3163 43.9245 92.3163 44.816 92.3163 45.0914C92.3163 45.5446 92.4442 45.8485 93.0551 46.3367L93.9307 47.0302C94.2956 47.3204 94.5237 47.5184 94.5237 47.9145C94.5237 48.4588 93.9674 48.5371 93.7116 48.5371C93.0005 48.5371 92.946 48.0701 92.937 47.943C92.9272 47.8509 92.9272 47.7938 92.9272 47.2706H92.1616V47.8223Z" fill="white"></path>
<path fill-rule="evenodd" clip-rule="evenodd" d="M109.361 47.8223C109.361 48.1972 109.453 48.5721 109.863 48.8198C109.99 48.9046 110.318 49.0676 110.939 49.0676C111.422 49.0676 112.499 48.9331 112.499 47.8721C112.499 47.2992 112.261 47.0441 111.732 46.6056L110.921 45.948C110.465 45.5722 110.291 45.4239 110.291 45.0491C110.291 44.9072 110.291 44.455 110.967 44.455C111.532 44.455 111.613 44.7663 111.632 44.8584C111.65 44.9496 111.65 44.9993 111.669 45.4737H112.371C112.371 44.7377 112.371 44.5683 112.188 44.3343C111.896 43.9659 111.341 43.9245 111.012 43.9245C109.516 43.9245 109.516 44.816 109.516 45.0914C109.516 45.5446 109.644 45.8485 110.255 46.3367L111.13 47.0302C111.495 47.3204 111.723 47.5184 111.723 47.9145C111.723 48.4588 111.167 48.5371 110.911 48.5371C110.2 48.5371 110.146 48.0701 110.137 47.943C110.127 47.8509 110.127 47.7938 110.127 47.2706H109.361V47.8223Z" fill="white"></path>
<path fill-rule="evenodd" clip-rule="evenodd" d="M90.3869 47.0371L91.8 44.0023H90.9522L89.9952 46.4992L89.0463 44.0023H88.1895L89.5569 47.0371V48.9971H90.3869V47.0371Z" fill="white"></path>
<path fill-rule="evenodd" clip-rule="evenodd" d="M84.7056 47.8223C84.7056 48.1972 84.7968 48.5721 85.2073 48.8198C85.3343 48.9046 85.6625 49.0676 86.2832 49.0676C86.7662 49.0676 87.8421 48.9331 87.8421 47.8721C87.8421 47.2992 87.6051 47.0441 87.0765 46.6056L86.2645 45.948C85.8092 45.5722 85.6357 45.4239 85.6357 45.0491C85.6357 44.9072 85.6357 44.455 86.3101 44.455C86.8753 44.455 86.9576 44.7663 86.9764 44.8584C86.9943 44.9496 86.9943 44.9993 87.013 45.4737H87.7151C87.7151 44.7377 87.7151 44.5683 87.5327 44.3343C87.2402 43.9659 86.6848 43.9245 86.3566 43.9245C84.8603 43.9245 84.8603 44.816 84.8603 45.0914C84.8603 45.5446 84.9882 45.8485 85.599 46.3367L86.4746 47.0302C86.8395 47.3204 87.0676 47.5184 87.0676 47.9145C87.0676 48.4588 86.5113 48.5371 86.2555 48.5371C85.5445 48.5371 85.4899 48.0701 85.481 47.943C85.4711 47.8509 85.4711 47.7938 85.4711 47.2706H84.7056V47.8223Z" fill="white"></path>
<path fill-rule="evenodd" clip-rule="evenodd" d="M80.4662 44.5604H81.6879V44.0014H78.4512V44.5604H79.6729V48.9962H80.4662V44.5604Z" fill="white"></path>
<path fill-rule="evenodd" clip-rule="evenodd" d="M74.5513 47.8223C74.5513 48.1972 74.6425 48.5721 75.053 48.8198C75.18 48.9046 75.5082 49.0676 76.1289 49.0676C76.6119 49.0676 77.6878 48.9331 77.6878 47.8721C77.6878 47.2992 77.4508 47.0441 76.9222 46.6056L76.1111 45.948C75.6549 45.5722 75.4814 45.4239 75.4814 45.0491C75.4814 44.9072 75.4814 44.455 76.1567 44.455C76.7219 44.455 76.8033 44.7663 76.8221 44.8584C76.84 44.9496 76.84 44.9993 76.8587 45.4737H77.5608C77.5608 44.7377 77.5608 44.5683 77.3784 44.3343C77.0859 43.9659 76.5305 43.9245 76.2023 43.9245C74.706 43.9245 74.706 44.816 74.706 45.0914C74.706 45.5446 74.8339 45.8485 75.4447 46.3367L76.3203 47.0302C76.6852 47.3204 76.9133 47.5184 76.9133 47.9145C76.9133 48.4588 76.357 48.5371 76.1012 48.5371C75.3902 48.5371 75.3356 48.0701 75.3267 47.943C75.3169 47.8509 75.3169 47.7938 75.3169 47.2706H74.5513V47.8223Z" fill="white"></path>
<path fill-rule="evenodd" clip-rule="evenodd" d="M72.2769 44.0019V47.3131C72.2769 47.6806 72.2769 47.723 72.2679 47.921C72.2581 48.1549 72.2402 48.5298 71.5471 48.5298C70.7725 48.5298 70.7725 48.0776 70.7725 47.6456V44.0019H69.9604V47.4126C69.9604 48.1623 69.9783 48.3032 70.1062 48.5234C70.3343 48.9047 70.836 49.0677 71.5292 49.0677C71.8664 49.0677 72.6418 49.018 72.9333 48.4874C73.0791 48.2332 73.0881 47.9855 73.0881 47.3693V44.0019H72.2769Z" fill="white"></path>
<path fill-rule="evenodd" clip-rule="evenodd" d="M66.6066 47.4968L67.1996 44.9289L67.8283 47.4968H66.6066ZM67.6092 44.0014H66.8069L65.4207 48.9971H66.2506L66.4698 48.0346H67.9651L68.1932 48.9971H69.0321L67.6092 44.0014Z" fill="white"></path>
<path fill-rule="evenodd" clip-rule="evenodd" d="M64.2991 44.0019H63.4969V46.124H62.0283V44.0019H61.2261V48.9968H62.0283V46.6693H63.4969V48.9968H64.2991V44.0019Z" fill="white"></path>
<path fill-rule="evenodd" clip-rule="evenodd" d="M58.7683 46.273L59.8263 44.0017H58.9686L58.2487 45.9194L57.4732 44.0017H56.5887L57.738 46.273L56.5073 48.9966H57.3462L58.2666 46.8321L59.2521 48.9966H60.1179L58.7683 46.273Z" fill="white"></path>
<path fill-rule="evenodd" clip-rule="evenodd" d="M55.6566 48.4381H53.5593V46.6125H55.3373V46.047H53.5593V44.5604H55.5833V44.0023H52.7571V48.9971H55.6566V48.4381Z" fill="white"></path>
<mask id="mask0_647_3627" style="mask-type:luminance" maskUnits="userSpaceOnUse" x="0" y="0" width="130" height="56">
<path fill-rule="evenodd" clip-rule="evenodd" d="M0 0H129.243V56H0V0Z" fill="white"></path>
</mask>
<g mask="url(#mask0_647_3627)">
<path fill-rule="evenodd" clip-rule="evenodd" d="M129.243 4.91474C115.756 1.78316 99.4872 0 82.334 0C38.2952 0 0 11.7084 0 28.0009C0 44.2925 38.2952 56 82.334 56C85.0538 56 87.7521 55.9549 90.4209 55.8674C49.1242 54.8754 18.6378 42.4614 18.6378 29.0712C18.6378 15.1099 51.7671 2.20408 95.7451 2.20408C107.898 2.20408 119.217 3.19329 129.243 4.91474Z" fill="white"></path>
</g>
<mask id="mask1_647_3627" style="mask-type:luminance" maskUnits="userSpaceOnUse" x="90" y="4" width="83" height="52">
<path fill-rule="evenodd" clip-rule="evenodd" d="M90.5676 4.94595H173V55.9437H90.5676V4.94595Z" fill="white"></path>
</mask>
<g mask="url(#mask1_647_3627)">
<path fill-rule="evenodd" clip-rule="evenodd" d="M173 29.0757C173 18.9736 155.637 9.45266 129.382 4.94595C150.522 9.85424 164.817 18.059 164.817 28.0045C164.817 43.2903 131.106 54.5364 90.5676 55.8673C92.326 55.9096 94.0977 55.9437 95.8927 55.9437C139.871 55.9437 173 43.0361 173 29.0757Z" fill="#FFF100"></path>
</g>
<path fill-rule="evenodd" clip-rule="evenodd" d="M38.3763 21.4725V15.1071H46.5973V21.4725H50.5978V26.2601H46.4971V33.9795C46.4971 34.6491 46.6769 35.1391 47.0347 35.4495C47.3933 35.7599 48.0167 35.9146 48.9057 35.9146H50.5182V41.4207C49.0577 41.5818 47.506 41.661 45.8604 41.6629C43.4983 41.6629 41.833 41.452 40.8653 41.0292C39.8958 40.5963 39.2125 39.9884 38.8145 39.2064C38.429 38.4254 38.2376 37.0061 38.2376 34.9475V26.2601H35.271V21.4725H38.3763Z" fill="white"></path>
<path fill-rule="evenodd" clip-rule="evenodd" d="M52.8125 21.4725H61.1722V32.9203C61.1722 33.974 61.4378 34.7605 61.9691 35.2818C62.4994 35.7903 63.2167 36.0445 64.1191 36.0445C64.7819 36.0445 65.3793 35.8897 65.9106 35.5793C66.4543 35.257 66.8327 34.8232 67.0455 34.2779C67.27 33.7197 67.3827 32.8825 67.3836 31.7662V21.4725H75.7039V41.5128H67.9605V38.6115C67.4158 39.3308 66.9051 39.8825 66.4275 40.2675C65.7907 40.8008 65.001 41.2401 64.0592 41.5874C63.13 41.9355 62.0218 42.1078 60.7348 42.1087C59.0892 42.1087 57.6358 41.8103 56.3757 41.2153C55.1146 40.6083 54.2059 39.784 53.6487 38.7413C53.0915 37.6876 52.8125 36.1992 52.8125 34.2779V21.4725Z" fill="white"></path>
<path fill-rule="evenodd" clip-rule="evenodd" d="M78.4666 41.513V15.1065H86.8262V23.8795C87.6088 23.0367 88.4647 22.404 89.394 21.9821C90.3358 21.5612 91.4376 21.3503 92.6978 21.3494C95.312 21.3494 97.514 22.2861 99.3072 24.1586C101.111 26.032 102.013 28.6036 102.014 31.8779C102.014 33.9365 101.636 35.7528 100.879 37.3287C100.123 38.9028 99.0085 40.1001 97.5354 40.918C96.0749 41.723 94.4355 42.1265 92.6182 42.1274C91.0003 42.1274 89.6659 41.8354 88.6177 41.2524C87.5695 40.6583 86.6867 39.8201 85.9712 38.7416V41.513H78.4666ZM90.1712 27.3574C89.148 27.3574 88.2993 27.7295 87.6231 28.4737C86.9586 29.2059 86.6268 30.3038 86.6268 31.7655C86.6268 32.7584 86.7869 33.627 87.1053 34.3703C87.4237 35.1025 87.8548 35.6294 88.3994 35.9517C88.9557 36.2741 89.5398 36.4344 90.1506 36.4344C91.1317 36.4344 91.9608 36.0632 92.6388 35.319C93.3158 34.5748 93.6539 33.4345 93.6539 31.8963C93.6539 30.3591 93.3221 29.2179 92.6584 28.4737C92.0082 27.7295 91.1791 27.3574 90.1712 27.3574Z" fill="white"></path>
<mask id="mask2_647_3627" style="mask-type:luminance" maskUnits="userSpaceOnUse" x="0" y="0" width="173" height="56">
<path fill-rule="evenodd" clip-rule="evenodd" d="M0 56H173V0H0V56Z" fill="white"></path>
</mask>
<g mask="url(#mask2_647_3627)">
<path fill-rule="evenodd" clip-rule="evenodd" d="M104.12 41.5128H112.48V21.4725H104.12V41.5128Z" fill="white"></path>
<path fill-rule="evenodd" clip-rule="evenodd" d="M104.12 19.7612H112.48V15.1071H104.12V19.7612Z" fill="white"></path>
<path fill-rule="evenodd" clip-rule="evenodd" d="M118.824 32.0898C119.748 32.9151 120.124 33.3259 120.124 34.3298C120.124 35.3596 119.474 35.9002 118.699 35.9002C117.998 35.9002 117.499 35.5143 117.299 34.9994C117.149 34.5868 117.149 33.7118 117.149 32.8626H115.224C115.249 34.3298 115.274 35.179 115.574 35.8744C116.224 37.4706 117.874 37.548 118.549 37.548C119.449 37.548 120.173 37.4191 120.824 36.9558C121.748 36.3119 122.174 35.1791 122.174 34.0471C122.174 32.2446 121.199 31.3944 120.399 30.7267L118.999 29.4897C117.998 28.6396 117.449 28.1505 117.449 27.2755C117.449 26.3222 118.023 25.8589 118.774 25.8589C118.999 25.8589 119.574 25.8847 119.874 26.5027C120.074 26.8896 120.099 27.2497 120.099 28.2279H121.874C121.874 27.1466 121.874 25.8589 121.149 25.0613C120.673 24.5473 119.799 24.2121 118.774 24.2121C117.299 24.2121 115.574 24.8559 115.574 27.5067C115.574 29.1038 116.374 29.8498 117.299 30.7L118.824 32.0898ZM127.898 24.4175H126.073V21.4719H124.074V24.4175H122.524V25.9879H124.024V33.1196C124.024 35.4885 124.024 35.7455 124.273 36.3377C124.524 36.93 125.074 37.548 126.823 37.548C127.349 37.548 127.648 37.4706 127.923 37.3933V35.7197C127.724 35.7713 127.548 35.8229 127.224 35.8229C126.149 35.8229 126.073 34.9994 126.073 34.1751V25.9879H127.898V24.4175ZM134.248 24.4175L132.648 34.7941L130.673 24.4175H128.523L131.348 36.673C131.373 36.7752 131.598 37.7027 131.598 38.2434C131.598 39.788 130.523 39.7622 128.873 39.7364V41.5131H130.173C131.273 41.5131 132.423 41.3326 133.173 39.8138C133.523 39.1184 133.648 38.6035 134.223 35.6433L136.373 24.4175H134.248ZM137.523 37.3168H139.548V19.7616H137.523V37.3168ZM146.472 33.3259C146.472 34.6384 146.348 35.9002 144.897 35.9002C143.473 35.9002 143.372 34.561 143.322 34.0719C143.273 33.6087 143.298 32.2962 143.298 31.2913H148.323C148.323 28.0473 148.323 27.6872 148.223 27.0434C147.823 24.2379 145.522 24.2379 144.723 24.2379C141.498 24.2379 141.272 26.7606 141.272 29.5155C141.272 34.69 141.373 34.9488 141.598 35.5659C142.322 37.4448 144.048 37.548 144.798 37.548C145.423 37.548 147.373 37.548 148.097 35.5143C148.323 34.8447 148.323 34.2009 148.323 33.3259H146.472ZM143.298 29.6187C143.298 27.7904 143.298 27.3787 143.448 26.8896C143.573 26.4769 143.872 25.8083 144.897 25.8083C146.397 25.8083 146.422 27.3271 146.447 28.0225V29.6187H143.298Z" fill="white"></path>
<path fill-rule="evenodd" clip-rule="evenodd" d="M108.247 43.9947H107.025L106.141 48.4591L105.237 43.9947H104.033V48.997H104.693V44.4755L105.648 48.997H106.66L107.627 44.4755V48.997H108.247V43.9947Z" fill="white"></path>
<path fill-rule="evenodd" clip-rule="evenodd" d="M102.833 48.4381H100.736V46.6125H102.514V46.047H100.736V44.5604H102.76V44.0023H99.9338V48.997H102.833V48.4381Z" fill="white"></path>
<path fill-rule="evenodd" clip-rule="evenodd" d="M97.7804 44.5604H99.0021V44.0014H95.7654V44.5604H96.9871V48.9962H97.7804V44.5604Z" fill="white"></path>
</g>
</svg>