<svg id="Layer_1" xmlns="http://www.w3.org/2000/svg" width="643.6" height="101.8" viewBox="0 0 643.6 101.8"><style>.st0{fill:#fff}</style><path class="st0" d="M110.3 31.9h11.1v19.4c0 12.4-7.6 18.7-21 18.7H80.9c-13.4 0-21-6.3-21-18.7V31.9H71v19.4c0 6.1 3.8 8.9 9.9 8.9h19.5c6 0 9.9-2.9 9.9-8.9V31.9zm115.8 37.9l-6.9-10.9h-29.7v10.9h-10.7v-38h40.5c13.7 0 17.8 6.1 17.8 13.7v.1c0 5.1-1.9 9.4-7.5 11.7l8.4 12.5h-11.9zm-36.5-28.5v8.5h29.8c5.3 0 7.2-1.2 7.2-4.2v-.1c0-3-1.9-4.2-7.2-4.2h-29.8zm166.9 18c0 7.2-5.8 10.5-15 10.5h-45.7v-38h43.9c9.7 0 15 3.2 15 10.4 0 5.3-2.6 7.4-6.7 8.3 4.6.7 8.5 2.7 8.5 8.8zm-50.1-18.9v6.3h33.2c2.5 0 4.3-.4 4.3-3 0-2.4-1.9-3.2-4.4-3.2h-33.1zm0 20.9h35c2.7 0 4.4-.8 4.4-3.2 0-2.1-1.5-3.2-4.3-3.2h-35.1v6.4zm167.2 8.5h-12l-4.9-6.7H423l-4.9 6.7h-12l28.4-38h10.6l28.5 38zm-33.7-29.2l-10.4 13.9h20.8l-10.4-13.9zm132.7-8.7h11v38h-10.4l-39-24.6v24.6h-11v-38h10.4l39 24.6V31.9z"/><path class="st0" d="M0 0v101.8h643.6V0H0zm640.6 98.9H3V3h637.7v95.9z"/></svg>