<?xml version="1.0" encoding="utf-8"?>
<!-- Generator: Adobe Illustrator 26.0.2, SVG Export Plug-In . SVG Version: 6.00 Build 0)  -->
<svg version="1.1" id="Layer_1" xmlns="http://www.w3.org/2000/svg" xmlns:xlink="http://www.w3.org/1999/xlink" x="0px" y="0px"
	 viewBox="0 0 181 36" style="enable-background:new 0 0 181 36;" xml:space="preserve">
<style type="text/css">
	.st0{fill:url(#SVGID_1_);}
	.st1{fill:url(#SVGID_00000116208629834228685200000014107347100358737574_);}
	.st2{fill:url(#SVGID_00000119801008247220255550000016151231762522884744_);}
	.st3{fill:#ffffff;}
	.st4{fill:#F70000;}
</style>
<g>
	<g>
		<linearGradient id="SVGID_1_" gradientUnits="userSpaceOnUse" x1="3.6257" y1="1.7489" x2="20.7603" y2="12.1989">
			<stop  offset="0" style="stop-color:#FA0000"/>
			<stop  offset="8.401848e-02" style="stop-color:#F10000"/>
			<stop  offset="0.2237" style="stop-color:#D70000"/>
			<stop  offset="0.4007" style="stop-color:#AE0001"/>
			<stop  offset="0.5674" style="stop-color:#810001"/>
			<stop  offset="1" style="stop-color:#5B0004"/>
		</linearGradient>
		<polygon class="st0" points="20.7,13.7 21.5,11.1 3.3,1 		"/>
		
			<linearGradient id="SVGID_00000171694367226224338420000015461189593347805849_" gradientUnits="userSpaceOnUse" x1="5.8574" y1="0.1922" x2="32.897" y2="15.2439">
			<stop  offset="0" style="stop-color:#FA0000"/>
			<stop  offset="0.1759" style="stop-color:#F10002"/>
			<stop  offset="0.4674" style="stop-color:#D70008"/>
			<stop  offset="0.5674" style="stop-color:#CD000A"/>
			<stop  offset="0.8667" style="stop-color:#9E0000"/>
			<stop  offset="0.9944" style="stop-color:#9B0000"/>
		</linearGradient>
		<polygon style="fill:url(#SVGID_00000171694367226224338420000015461189593347805849_);" points="3.3,1 21.5,11.1 20.7,13.7 
			18,22.3 23.6,28.1 39.7,1 		"/>
		
			<linearGradient id="SVGID_00000124120601913312819560000000021354363305849237_" gradientUnits="userSpaceOnUse" x1="5.1073" y1="24.6036" x2="16.1832" y2="12.0714">
			<stop  offset="0.3954" style="stop-color:#1A1A1A"/>
			<stop  offset="0.989" style="stop-color:#4D4D4D"/>
		</linearGradient>
		<polygon style="fill:url(#SVGID_00000124120601913312819560000000021354363305849237_);" points="13.8,21.9 17.3,12.4 0.5,3.2 
			19.5,35 22,30.8 		"/>
	</g>
	<g>
		<path class="st3" d="M71.3,1L61,19.8h-3L47.1,1h5l7.6,13.6L66.9,1H71.3z"/>
		<path class="st3" d="M95.8,19.8H76.4V1h19.2v3.2H80.8v4.2h8.7v3.2h-8.7v4.7h15V19.8z"/>
		<path class="st3" d="M122.4,19.8h-18.5V1h4.4v15.3h14.1V19.8z"/>
		<path class="st3" d="M150.9,15.4c0,1.7-0.3,2.9-1,3.5c-0.7,0.6-1.9,0.9-3.7,0.9h-13.8c-1.8,0-3-0.3-3.7-0.9c-0.7-0.6-1-1.8-1-3.5
			V5.4c0-1.7,0.3-2.9,1-3.5c0.7-0.6,1.9-0.9,3.7-0.9h13.8c1.8,0,3,0.3,3.7,0.9c0.7,0.6,1,1.8,1,3.5V15.4z M146.5,16.3V4.4h-14.4
			v11.9H146.5z"/>
		<path class="st3" d="M180.5,15.4c0,1.7-0.3,2.9-1,3.5c-0.7,0.6-1.9,0.9-3.7,0.9h-11.6c-1.9,0-3.2-0.3-3.8-1
			c-0.6-0.7-0.9-2-0.9-3.9l3.9-0.8v2.2h13.3V12h-11.7c-1.8,0-3-0.3-3.7-0.9c-0.7-0.6-1-1.8-1-3.5V5.4c0-1.7,0.3-2.9,1-3.5
			c0.7-0.6,1.9-0.9,3.7-0.9h10.7c1.8,0,3,0.3,3.7,0.9c0.7,0.6,1,1.8,1,3.6l-3.9,0.9V4.3h-12.3v4h11.7c1.8,0,3,0.3,3.7,0.9
			c0.7,0.6,1,1.8,1,3.5V15.4z"/>
	</g>
	<g>
		<path class="st4" d="M47.1,34.7v-9.8c0-0.2,0.1-0.3,0.3-0.3h4c0.8,0,1.4,0.2,1.9,0.7c0.4,0.4,0.7,1.1,0.7,1.8v5.4
			c0,0.8-0.2,1.4-0.7,1.8c-0.4,0.4-1.1,0.7-1.9,0.7h-4C47.2,35,47.1,34.9,47.1,34.7z M48.8,33.6h2.3c0.8,0,1.2-0.4,1.2-1.2v-5.3
			c0-0.8-0.4-1.2-1.2-1.2h-2.3c-0.1,0-0.2,0.1-0.2,0.2v7.3C48.6,33.6,48.7,33.6,48.8,33.6z"/>
		<path class="st4" d="M65.5,35h-5.2c-0.2,0-0.3-0.1-0.3-0.3v-9.8c0-0.2,0.1-0.3,0.3-0.3h5.2c0.2,0,0.3,0.1,0.3,0.3v0.8
			c0,0.2-0.1,0.3-0.3,0.3h-3.7c-0.1,0-0.2,0.1-0.2,0.2v2.7c0,0.1,0.1,0.2,0.2,0.2H65c0.2,0,0.3,0.1,0.3,0.3v0.8
			c0,0.2-0.1,0.3-0.3,0.3h-3.1c-0.1,0-0.2,0.1-0.2,0.2v2.9c0,0.1,0.1,0.2,0.2,0.2h3.7c0.2,0,0.3,0.1,0.3,0.3v0.8
			C65.8,34.9,65.7,35,65.5,35z"/>
		<path class="st4" d="M71.7,32.5v-0.4c0-0.2,0.1-0.3,0.3-0.3h1c0.2,0,0.3,0.1,0.3,0.3v0.3c0,0.5,0.1,0.8,0.3,1
			c0.2,0.2,0.5,0.3,1,0.3h1.1c0.5,0,0.8-0.1,1-0.3c0.2-0.2,0.3-0.6,0.3-1v-0.4c0-0.3-0.1-0.6-0.4-0.8c-0.3-0.2-0.6-0.3-1-0.4
			c-0.4-0.1-0.8-0.1-1.3-0.3c-0.5-0.1-0.9-0.2-1.3-0.4c-0.4-0.1-0.7-0.4-1-0.8c-0.3-0.4-0.4-0.9-0.4-1.5v-0.7c0-0.8,0.2-1.4,0.7-1.9
			c0.4-0.4,1.1-0.7,1.9-0.7h1.7c0.8,0,1.4,0.2,1.9,0.7c0.4,0.4,0.7,1.1,0.7,1.9v0.4c0,0.2-0.1,0.3-0.3,0.3h-1
			c-0.2,0-0.3-0.1-0.3-0.3v-0.2c0-0.5-0.1-0.8-0.3-1c-0.2-0.2-0.5-0.3-1-0.3h-1c-0.5,0-0.8,0.1-1,0.3c-0.2,0.2-0.3,0.6-0.3,1.1v0.5
			c0,0.5,0.3,0.8,1.1,1c0.3,0.1,0.7,0.1,1,0.2c0.4,0.1,0.7,0.1,1.1,0.2c0.4,0.1,0.7,0.3,1,0.4c0.3,0.2,0.6,0.4,0.8,0.8
			c0.2,0.4,0.3,0.8,0.3,1.3v0.6c0,0.8-0.2,1.4-0.7,1.9C77.4,34.8,76.8,35,76,35h-1.8c-0.8,0-1.4-0.2-1.9-0.7
			C71.9,33.9,71.7,33.3,71.7,32.5z"/>
		<path class="st4" d="M86.4,24.9v9.8c0,0.2-0.1,0.3-0.3,0.3h-1c-0.2,0-0.3-0.1-0.3-0.3v-9.8c0-0.2,0.1-0.3,0.3-0.3h1
			C86.3,24.6,86.4,24.7,86.4,24.9z"/>
		<path class="st4" d="M97,35h-1.7c-0.8,0-1.4-0.2-1.8-0.7c-0.4-0.4-0.7-1.1-0.7-1.8v-5.4c0-0.8,0.2-1.4,0.7-1.8
			c0.4-0.4,1.1-0.7,1.8-0.7H97c0.8,0,1.4,0.2,1.8,0.7c0.4,0.4,0.7,1.1,0.7,1.8v0.6c0,0.2-0.1,0.3-0.3,0.3h-1c-0.2,0-0.3-0.1-0.3-0.3
			v-0.5c0-0.8-0.4-1.2-1.2-1.2h-1.3c-0.8,0-1.2,0.4-1.2,1.2v5.3c0,0.8,0.4,1.2,1.2,1.2h1.3c0.8,0,1.2-0.4,1.2-1.2V31
			c0-0.1-0.1-0.2-0.2-0.2h-1.3c-0.2,0-0.3-0.1-0.3-0.3v-0.8c0-0.2,0.1-0.3,0.3-0.3h2.7c0.2,0,0.3,0.1,0.3,0.3v2.7
			c0,0.8-0.2,1.4-0.7,1.8C98.4,34.8,97.8,35,97,35z"/>
		<path class="st4" d="M107,35h-1c-0.2,0-0.3-0.1-0.3-0.3v-9.8c0-0.2,0.1-0.3,0.3-0.3h0.9c0.2,0,0.3,0.1,0.4,0.2l3.9,7h0.1v-6.9
			c0-0.2,0.1-0.3,0.3-0.3h1c0.2,0,0.3,0.1,0.3,0.3v9.8c0,0.2-0.1,0.3-0.3,0.3h-0.9c-0.2,0-0.3-0.1-0.4-0.3l-3.9-6.9h-0.1v6.9
			C107.3,34.9,107.2,35,107,35z"/>
		<path class="st4" d="M122.3,35h-1.7c-0.2,0-0.3-0.1-0.3-0.3l-1.9-9.8c0-0.2,0.1-0.3,0.3-0.3h1.2c0.2,0,0.3,0.1,0.3,0.3l1.3,8.5
			h0.1l1.9-8.5c0-0.2,0.1-0.2,0.3-0.2h1.4c0.2,0,0.3,0.1,0.3,0.2l1.9,8.5h0.1l1.3-8.5c0-0.2,0.1-0.3,0.3-0.3h1.2
			c0.2,0,0.3,0.1,0.3,0.3l-1.9,9.8c0,0.2-0.1,0.3-0.3,0.3h-1.7c-0.2,0-0.3-0.1-0.3-0.3l-1.8-8.2h-0.1l-1.8,8.2
			C122.6,34.9,122.5,35,122.3,35z"/>
		<path class="st4" d="M141.6,35h-5.2c-0.2,0-0.3-0.1-0.3-0.3v-9.8c0-0.2,0.1-0.3,0.3-0.3h5.2c0.2,0,0.3,0.1,0.3,0.3v0.8
			c0,0.2-0.1,0.3-0.3,0.3h-3.7c-0.1,0-0.2,0.1-0.2,0.2v2.7c0,0.1,0.1,0.2,0.2,0.2h3.1c0.2,0,0.3,0.1,0.3,0.3v0.8
			c0,0.2-0.1,0.3-0.3,0.3h-3.1c-0.1,0-0.2,0.1-0.2,0.2v2.9c0,0.1,0.1,0.2,0.2,0.2h3.7c0.2,0,0.3,0.1,0.3,0.3v0.8
			C141.9,34.9,141.8,35,141.6,35z"/>
		<path class="st4" d="M149.2,35h-1c-0.2,0-0.3-0.1-0.3-0.3v-9.8c0-0.2,0.1-0.3,0.3-0.3h3.8c0.8,0,1.4,0.2,1.9,0.7
			c0.4,0.4,0.7,1.1,0.7,1.9v1.4c0,1.2-0.5,2-1.5,2.3v0.1l1.8,3.8c0.1,0.2,0,0.3-0.2,0.3h-1c-0.3,0-0.4-0.1-0.5-0.3l-1.7-3.7h-1.6
			c-0.1,0-0.2,0.1-0.2,0.2v3.6C149.5,34.9,149.4,35,149.2,35z M149.7,29.7h2.1c0.8,0,1.2-0.4,1.2-1.2v-1.4c0-0.8-0.4-1.2-1.2-1.2
			h-2.1c-0.1,0-0.2,0.1-0.2,0.2v3.4C149.5,29.7,149.6,29.7,149.7,29.7z"/>
		<path class="st4" d="M162,35h-1c-0.2,0-0.3-0.1-0.3-0.3v-9.8c0-0.2,0.1-0.3,0.3-0.3h1c0.2,0,0.3,0.1,0.3,0.3V30h0
			c0.1-0.3,0.2-0.6,0.4-0.8l3.1-4.3c0.1-0.2,0.3-0.3,0.5-0.3h1.2c0.2,0,0.3,0.1,0.1,0.3l-3.2,4.3l3.6,5.5c0.1,0.2,0.1,0.3-0.2,0.3
			H167c-0.3,0-0.5-0.1-0.6-0.3l-2.8-4.4l-1.3,1.5v2.9C162.3,34.9,162.2,35,162,35z"/>
		<path class="st4" d="M173.5,32.5v-0.4c0-0.2,0.1-0.3,0.3-0.3h1c0.2,0,0.3,0.1,0.3,0.3v0.3c0,0.5,0.1,0.8,0.3,1
			c0.2,0.2,0.5,0.3,1,0.3h1.1c0.5,0,0.8-0.1,1-0.3c0.2-0.2,0.3-0.6,0.3-1v-0.4c0-0.3-0.1-0.6-0.4-0.8c-0.3-0.2-0.6-0.3-1-0.4
			c-0.4-0.1-0.8-0.1-1.3-0.3c-0.5-0.1-0.9-0.2-1.3-0.4c-0.4-0.1-0.7-0.4-1-0.8c-0.3-0.4-0.4-0.9-0.4-1.5v-0.7c0-0.8,0.2-1.4,0.7-1.9
			c0.4-0.4,1.1-0.7,1.9-0.7h1.7c0.8,0,1.4,0.2,1.9,0.7c0.4,0.4,0.7,1.1,0.7,1.9v0.4c0,0.2-0.1,0.3-0.3,0.3h-1
			c-0.2,0-0.3-0.1-0.3-0.3v-0.2c0-0.5-0.1-0.8-0.3-1c-0.2-0.2-0.5-0.3-1-0.3h-1c-0.5,0-0.8,0.1-1,0.3c-0.2,0.2-0.3,0.6-0.3,1.1v0.5
			c0,0.5,0.3,0.8,1.1,1c0.3,0.1,0.7,0.1,1,0.2c0.4,0.1,0.7,0.1,1.1,0.2c0.4,0.1,0.7,0.3,1,0.4c0.3,0.2,0.6,0.4,0.8,0.8
			c0.2,0.4,0.3,0.8,0.3,1.3v0.6c0,0.8-0.2,1.4-0.7,1.9c-0.4,0.4-1.1,0.7-1.9,0.7H176c-0.8,0-1.4-0.2-1.9-0.7
			C173.7,33.9,173.5,33.3,173.5,32.5z"/>
	</g>
</g>
</svg>
