<?xml version="1.0" encoding="UTF-8"?>
<svg width="161px" height="14px" viewBox="0 0 161 14" version="1.1" xmlns="http://www.w3.org/2000/svg" xmlns:xlink="http://www.w3.org/1999/xlink">
    <title>Vossen_Logo_Wordmark</title>
    <defs>
        <polygon id="path-1" points="0 0 161 0 161 14 0 14"></polygon>
    </defs>
    <g id="Round-2" stroke="none" stroke-width="1" fill="none" fill-rule="evenodd">
        <g id="HF---New-Page-Design---Alternative" transform="translate(-724.000000, -71.000000)">
            <g id="Vossen_Logo_Wordmark" transform="translate(724.000000, 71.000000)">
                <mask id="mask-2" fill="white">
                    <use xlink:href="#path-1"></use>
                </mask>
                <g id="Clip-2"></g>
                <polyline id="Fill-1" fill="#D52331" mask="url(#mask-2)" points="0 0 3.54798522 0 3.54798522 4.68034272 12.0001408 9.84419073 20.4517332 4.68034272 20.4517332 0 24 0 24 6.73773328 12.0001408 14 0 6.73773328 0 0"></polyline>
                <path d="M28,14 L52,14 L52,0 L28,0 L28,14 Z M31.5882456,10.4898142 L48.5716699,10.4898142 L48.5716699,3.4697275 L31.5882456,3.4697275 L31.5882456,10.4898142 Z" id="Fill-3" fill="#D52331" mask="url(#mask-2)"></path>
                <polyline id="Fill-4" fill="#D52331" mask="url(#mask-2)" points="55 0 79 0 79 3.52071682 58.4457505 3.52071682 58.4457505 5.26035841 79 5.26035841 79 14 55 14 55 10.5204311 75.5944283 10.5204311 75.5944283 8.78078948 55 8.78078948 55 0"></polyline>
                <polyline id="Fill-5" fill="#D52331" mask="url(#mask-2)" points="82 0 106 0 106 3.52071682 85.440274 3.52071682 85.440274 5.26035841 106 5.26035841 106 14 82 14 82 10.5204311 102.559726 10.5204311 102.559726 8.78078948 82 8.78078948 82 0"></polyline>
                <path d="M110,0 L134,0 L134,3.52071682 L113.445468,3.52071682 L113.445468,5.26035841 L134,5.26035841 L134,8.78078948 L113.445468,8.78078948 L113.445468,10.5204311 L134,10.5204311 L134,14 L110,14 C110,9.3468588 110,4.6537127 110,0" id="Fill-6" fill="#D52331" mask="url(#mask-2)"></path>
                <polyline id="Fill-7" fill="#D52331" mask="url(#mask-2)" points="137 14 140.601615 14 140.601615 5.58382659 161 14 161 0 157.397813 0 157.397813 8.37645426 137 0 137 14"></polyline>
            </g>
        </g>
    </g>
</svg>