<?xml version="1.0" encoding="UTF-8" standalone="no"?><!DOCTYPE svg PUBLIC "-//W3C//DTD SVG 1.1//EN" "http://www.w3.org/Graphics/SVG/1.1/DTD/svg11.dtd"><svg width="100%" height="100%" viewBox="0 0 3987 2156" version="1.1" xmlns="http://www.w3.org/2000/svg" xmlns:xlink="http://www.w3.org/1999/xlink" xml:space="preserve" xmlns:serif="http://www.serif.com/" style="fill-rule:evenodd;clip-rule:evenodd;stroke-linejoin:round;stroke-miterlimit:2;"><path d="M595.327,2155.18c188.363,-716.859 376.513,-1432.86 565.431,-2151.81l313.65,0c10.832,40.722 22.294,83.491 33.563,126.313c38.112,144.862 76.19,289.738 114.212,434.625c45.41,172.984 90.728,345.987 136.122,518.988c16.184,61.675 32.756,123.271 48.356,185.087c2.382,9.45 2.657,20.547 0.238,29.922c-43.056,166.534 -86.681,332.903 -130.206,499.291c-1.272,4.853 -2.885,9.631 -7.435,14.812c-118.412,-443.078 -236.818,-886.156 -355.24,-1329.23c-1.632,-0.203 -3.269,-0.4 -4.91,-0.6c-150.75,557.313 -301.509,1114.62 -452.453,1672.6"/><path d="M1834.37,2154.88c187.74,-718.706 374.965,-1435.5 562.612,-2153.85l324.9,0c-192.206,718.991 -383.897,1436.02 -575.809,2153.85"/><path d="M125.505,0l115.566,0c7.472,27.925 14.759,54.712 21.809,81.562c72.091,274.254 144.138,548.516 216.184,822.782c29.654,112.903 59.097,225.859 89.129,338.672c3.962,14.887 3.753,28.637 -0.147,43.487c-48.816,185.56 -97.232,371.228 -145.791,556.86c-1.106,4.25 -2.625,8.368 -6.5,12.634c-4.65,-16.113 -9.409,-32.206 -13.937,-48.375c-29.275,-104.738 -58.497,-209.509 -87.732,-314.263c-46.856,-167.837 -93.759,-335.653 -140.562,-503.509c-33.344,-119.591 -66.556,-239.209 -99.828,-358.822c-24.106,-86.669 -48.338,-173.309 -72.05,-260.087c-1.956,-7.216 -2.378,-15.988 -0.113,-23.079c32.428,-101.065 67.788,-195.715 101.947,-295.24c7.031,-16.763 14.031,-33.534 22.025,-52.622Z"/><path d="M2911.96,323.956c26.388,-108.425 52.425,-215.403 78.61,-322.937l886.025,-0c42.344,105.372 80.875,211.512 109.625,322.937l-1074.26,0Z"/><path d="M3640.53,950.303l0,319.869l-960.859,-0c26.406,-107.888 52.297,-213.722 78.278,-319.869l882.581,0Z"/></svg>