<?xml version="1.0" encoding="UTF-8"?>
<svg xmlns="http://www.w3.org/2000/svg" viewBox="0 0 145.85 83.39">
    <g >
        <path id="Pfad_1110" fill="none" stroke="#fff" stroke-miterlimit="10" stroke-width="5"
              d="m111.78,40.33c10.22-5.72,23.14-2.08,28.86,8.13,5.72,10.22,2.08,23.14-8.13,28.86-10.22,5.72-23.14,2.08-28.86-8.13-3.38-6.03-3.61-13.33-.61-19.55"/>
        <path id="Pfad_1113" stroke-miterlimit="10" stroke-width="5" fill="none" stroke="#fff"
              d="m43.33,54.92c2.88,11.09-3.77,22.41-14.86,25.3-11.09,2.88-22.41-3.77-25.3-14.86-2.88-11.09,3.77-22.41,14.86-25.3,9.57-2.49,19.57,2.13,23.89,11.03"/>
        <path id="Pfad_1115" stroke-miterlimit="10" stroke-width="5" fill="none" stroke="#fff" d="m122.16,58.81L90.99,2.5h-7.21"/>
        <path id="Pfad_1116" stroke-miterlimit="10" stroke-width="5" fill="none" stroke="#fff" d="m93.34,8.04l-28.1,12.42-56.76-2.11"/>
        <path id="Pfad_1117" stroke-miterlimit="10" stroke-width="5" fill="none" stroke="#fff"
              d="m128.92,22.69l-9.19-4.04h-19.28l-11.21,19.81-2.66.94,1.97,6.06-9.45,10.91h-19.54l-6.56-19.33L15.85,18.65"/>
        <path id="Pfad_1118" stroke-miterlimit="10" stroke-width="5" fill="none" stroke="#fff" d="m56.66,47.81l12.68-17.75h10.93"/>
        <path id="Pfad_1119" stroke-miterlimit="10" stroke-width="5" fill="none" stroke="#fff" d="m82.6,12.7c.24.16,16.3,8.69,16.3,8.69"/>
        <path id="Pfad_1121" stroke-miterlimit="10" stroke-width="5" fill="none" stroke="#fff"
              d="m23.74,62.15c-1.11.26-2.21-.43-2.47-1.53-.25-1.08.39-2.16,1.45-2.45"/>
        <line id="Linie_704" stroke-miterlimit="10" stroke-width="5" fill="none" stroke="#fff" x1="23.74" y1="62.16" x2="58.74" y2="53.21"/>
        <line id="Linie_705" stroke-miterlimit="10" stroke-width="5" fill="none" stroke="#fff" x1="62.38" y1="39.79" x2="86.14" y2="39.79"/>
    </g>
</svg>
