<?xml version="1.0" encoding="utf-8"?>
<!-- Generator: Adobe Illustrator 22.1.0, SVG Export Plug-In . SVG Version: 6.00 Build 0)  -->
<svg version="1.1" id="Vrstva_1" xmlns="http://www.w3.org/2000/svg" xmlns:xlink="http://www.w3.org/1999/xlink" x="0px" y="0px"
	 viewBox="0 0 171 64.2" style="enable-background:new 0 0 171 64.2;" xml:space="preserve">
<g>
	<g>
		<path style="fill:#333333;" d="M14,63.3h-0.8l-0.1-2l0,0c-0.7,1.6-2.2,2.2-3.8,2.2c-3.4,0-5.1-2.7-5.1-5.7s1.7-5.7,5.1-5.7
			c2.3,0,4.2,1.2,4.6,3.6h-1c-0.1-1.3-1.4-2.7-3.5-2.7c-2.9,0-4.1,2.4-4.1,4.8c0,2.4,1.2,4.8,4.1,4.8c2.4,0,3.8-1.7,3.8-4H9.4v-0.9
			H14V63.3z"/>
		<path style="fill:#333333;" d="M25.6,52.3h7.5v0.9h-6.5v3.9h6.1V58h-6.1v4.3h6.6v0.9h-7.6C25.6,63.2,25.6,52.3,25.6,52.3z"/>
		<path style="fill:#333333;" d="M47.5,52.3h1.2L53,63.2h-1.1l-1.3-3.4h-5l-1.3,3.4h-1.1L47.5,52.3z M45.9,59h4.3L48,53.4L45.9,59z"
			/>
		<path style="fill:#333333;" d="M63.6,52.3h5c1.8,0,3.3,0.9,3.3,2.8c0,1.4-0.7,2.5-2.1,2.8l0,0c1.4,0.2,1.8,1.2,1.9,2.5
			c0,0.7,0,2.2,0.5,2.8H71c-0.3-0.4-0.3-1.2-0.3-1.7c-0.1-1.5-0.2-3.2-2.2-3.1h-3.9v4.8h-1V52.3z M64.6,57.5h3.9
			c1.3,0,2.4-0.8,2.4-2.1s-0.8-2.2-2.4-2.2h-3.9V57.5z"/>
		<path style="fill:#333333;" d="M83.4,52.3H88c1.8,0,3.5,0.6,3.5,2.7c0,1.1-0.8,2.2-1.9,2.4l0,0c1.4,0.2,2.3,1.2,2.3,2.7
			c0,1-0.4,3.1-3.9,3.1h-4.6V52.3z M84.4,57.1H88c1.7,0,2.5-0.8,2.5-1.8c0-1.4-0.8-2-2.5-2h-3.6V57.1z M84.4,62.4H88
			c1.5,0,2.9-0.5,2.9-2.2c0-1.4-1.1-2.1-2.9-2.1h-3.6V62.4z"/>
		<path style="fill:#333333;" d="M107.8,52.1c3.4,0,5.1,2.7,5.1,5.7s-1.7,5.7-5.1,5.7s-5.1-2.7-5.1-5.7
			C102.6,54.8,104.3,52.1,107.8,52.1z M107.8,62.6c2.9,0,4.1-2.4,4.1-4.8c0-2.4-1.2-4.8-4.1-4.8s-4.1,2.4-4.1,4.8
			C103.7,60.2,104.9,62.6,107.8,62.6z"/>
		<path style="fill:#333333;" d="M123.1,52.3h1.2l3.1,4.6l3.2-4.6h1.2l-3.7,5.3l3.9,5.6h-1.3l-3.3-4.8l-3.4,4.8h-1.2l3.9-5.6
			L123.1,52.3z"/>
		<path style="fill:#333333;" d="M142.5,52.3h7.5v0.9h-6.5v3.9h6.1V58h-6.1v4.3h6.6v0.9h-7.6V52.3z"/>
		<path style="fill:#333333;" d="M161.7,59.7c0,2.2,1.6,2.9,3.6,2.9c1.1,0,2.9-0.6,2.9-2.2c0-1.2-1.2-1.7-2.2-2l-2.4-0.6
			c-1.3-0.3-2.5-0.9-2.5-2.6c0-1.1,0.7-3.1,3.8-3.1c2.2,0,4,1.2,4,3.4h-1c-0.1-1.7-1.4-2.5-3-2.5c-1.4,0-2.7,0.5-2.7,2.2
			c0,1,0.8,1.5,1.7,1.7l2.7,0.7c1.5,0.4,2.8,1.1,2.8,2.9c0,0.7-0.3,3.1-4.2,3.1c-2.6,0-4.5-1.2-4.4-3.8h0.9V59.7z"/>
	</g>
</g>
<g>
	<g>
		<path style="fill:#333333;" d="M56.6,29.4c0,0.9,0.2,1.8,0.4,2.4c0.8,2.2,3.3,2.7,5.4,2.7c1.9,0,4.7-0.6,4.7-3.3
			c0-1.9-1.6-2.4-7.9-4.2c-5.8-1.6-12.5-3.2-12.5-10.7c0-8.5,7.3-12.2,14.8-12.2c8,0,15.1,3,15.4,12H66.1c0.2-1.4-0.4-2.3-1.3-2.9
			c-0.9-0.7-2.2-0.9-3.4-0.9c-1.5,0-4.1,0.4-4.1,2.5c0.2,2.6,5.5,3.2,10.7,4.6S78.4,23.3,78.4,30c0,9.6-8.8,12.7-17,12.7
			c-4.2,0-16.1-1.5-16.2-13.2h11.4V29.4z"/>
		<path style="fill:#333333;" d="M81.8,5H92v12.9h0.1c1.8-2.1,4-3.6,8.3-3.6c4.8,0,9.2,2.9,9.2,9.1v18.3H99.4v-14
			c0-3.1-0.4-5.3-3.4-5.3c-1.8,0-4.1,0.9-4.1,5.2v14.1H81.8V5z"/>
		<path style="fill:#333333;" d="M125.6,12.1h-10.2V5h10.2V12.1z M115.4,15h10.2v26.7h-10.2V15z"/>
		<path style="fill:#333333;" d="M133.1,21.3h-3.7V15h3.7c-0.1-2.6,0.2-5.6,2.1-7.5c2.2-2.2,4.8-2.5,8.9-2.5c1.5,0,3,0.2,4.6,0.2v7
			c-0.8-0.1-1.6-0.4-2.5-0.4c-2.5,0-3.3,0.7-3.1,3.2h4.9v6.3h-4.7v20.5h-10.2V21.3z"/>
		<path style="fill:#333333;" d="M163.7,15h5v6.3h-5v9.3c0,2.5,0.6,3.6,3.1,3.6c0.8,0,1.5,0,2.3-0.2v7.7c-2.1,0-4.4,0.3-6.5,0.3
			c-4.3,0-9.1-0.7-9.1-8V21.3h-3.8V15h3.8V6.9h10.2V15z"/>
	</g>
</g>
<g>
	<g>
		<g>
			<polygon style="fill:#D10019;" points="13.9,9 17,15.5 20,11.5 32.2,17 24.7,26.6 32.5,45.2 39.9,41.7 29.8,22.6 38.6,13.5 
				28.2,8.6 23.8,10.8 21.5,5.5 11.2,0.7 3.4,4.4 			"/>
		</g>
		<g>
			<polygon style="fill:#D10019;" points="22.7,26.3 29.1,17.6 20.5,13.5 16.7,18.4 13.1,9.7 3.3,4.8 11.9,21.8 1.8,31.5 12.6,36.5 
				17,29.7 21.1,40.5 31.9,45.5 32.1,45.4 			"/>
		</g>
		<g>
			<polygon style="fill:#D10019;" points="13.2,36.4 17.4,34.3 16.6,33 			"/>
		</g>
	</g>
</g>
</svg>
