<?xml version="1.0" encoding="utf-8"?>
<!-- Generator: Adobe Illustrator 23.0.3, SVG Export Plug-In . SVG Version: 6.00 Build 0)  -->
<svg version="1.1" id="圖層_1" xmlns="http://www.w3.org/2000/svg" xmlns:xlink="http://www.w3.org/1999/xlink" x="0px" y="0px"
	 viewBox="0 0 888 1045" style="enable-background:new 0 0 888 1045;" xml:space="preserve">
<style type="text/css">
	.st0{fill:#FFFFFF;}
</style>
<g>
	<g>
		<g>
			<path class="st0" d="M226.36,918.4h-53.04c-5.74,0.06-10.7,2.06-15.42,5.34L0.22,1044.96h53.5H53.7h67.66l43.09-33.11H104.8
				L226.36,918.4z"/>
			<path class="st0" d="M146.04,918.4h-73.5c-5.71,0.06-10.68,2.06-15.4,5.34l-36.13,27.77h81.96L146.04,918.4z"/>
		</g>
		<path class="st0" d="M441.84,1011.83l-16.8-22.68v-16.21l15.82-21.45h59.78l22.97-33.11h-57.1h-36.77h-7.44
			c-5.71,0.04-10.68,2.06-15.4,5.32l-28.41,39.47v35.48l29.5,40.99c4.7,3.26,9.69,5.26,15.4,5.32h100.23l-22.97-33.13H441.84z"/>
		<path class="st0" d="M680.56,923.7c-4.72-3.26-9.69-5.28-15.42-5.32h-5.82h-1.6h-35.56h-11.93h-35.54h-1.62h-5.82
			c-5.74,0.04-10.68,2.06-15.4,5.32l-28.44,39.47v35.48l29.52,40.99c4.72,3.26,9.67,5.26,15.4,5.32h22.07h51.59h22.07
			c5.74-0.06,10.71-2.06,15.42-5.32l29.5-40.99v-35.48L680.56,923.7z M662.41,989.15l-16.8,22.68h-2.91h-53.02h-2.91l-16.82-22.68
			v-16.21l15.84-21.45h60.8l15.82,21.45V989.15z"/>
		<g>
			<path class="st0" d="M838.19,996.61l17.92-25.86h-67.3l-37.73-52.38h-28.29c-4.24,0-7.67,3.41-7.67,7.63
				c0,1.18,0.31,2.29,0.81,3.3l35.58,52.36l-35.58,52.38c-0.5,1-0.81,2.1-0.81,3.31c0,4.2,3.45,7.65,7.67,7.65h28.29l34.84-48.39
				H838.19z"/>
			<polygon class="st0" points="865.54,952.8 887.78,920.75 766.98,920.75 788.99,952.8 			"/>
			<polygon class="st0" points="788.99,1012.45 766.98,1044.5 887.78,1044.5 865.54,1012.45 			"/>
		</g>
		<path class="st0" d="M374.06,918.38h-53.06c-5.74,0.04-10.68,2.06-15.4,5.32l-157.72,121.26h55.27h6.26h68.34l43.09-33.13h-68.34
			l68.11-52.36l10.5,85.49h37.02l-13.72-111.49L374.06,918.38z"/>
	</g>
	<g>
		<path class="st0" d="M412.25,741.92L297.4,669.26c-116.42-75.2-123.46-174.01-123.46-174.01L159.8,191.86
			c97-70.06,206.24-94.87,252.44-102.69V0C358.06,8.61,213.75,38.78,86.19,130.88l17.77,384.03c0,0,8.93,124.96,156.31,220.22
			l151.97,96.12V741.92z"/>
		<path class="st0" d="M475.67,741.92l114.85-72.67c116.43-75.2,123.46-174.01,123.46-174.01l14.22-303.38
			C631.2,121.8,521.96,96.99,475.67,89.17V0c54.18,8.61,198.58,38.78,326.14,130.88l-17.85,384.03c0,0-8.92,124.96-156.23,220.22
			l-152.05,96.12V741.92z"/>
		<polygon class="st0" points="437.76,702.19 628.67,394.39 628.04,393.75 628.59,392.88 529.23,276.06 536.34,371 475.59,468.94 
			450.16,128.83 296.06,377.4 257.51,439.57 363.83,564.6 356.48,466.26 413.27,374.71 		"/>
	</g>
</g>
</svg>
