<svg width="147" height="71" viewBox="0 0 147 71" fill="none" xmlns="http://www.w3.org/2000/svg">
<g clip-path="url(#clip0_22_94)">
<path d="M73.9993 62.6831C74.4646 62.6831 74.9356 62.6831 75.4009 62.6831C75.4009 60.5556 75.4009 58.4338 75.4009 56.3064C74.9356 56.3064 74.4646 56.3064 73.9993 56.3064C73.9993 58.4338 73.9993 60.5556 73.9993 62.6831Z" fill="black"/>
<path d="M81.359 57.4864C81.359 57.095 81.359 56.7035 81.359 56.3064C79.617 56.3064 77.8749 56.3064 76.1329 56.3064C76.1329 56.6978 76.1329 57.0893 76.1329 57.4864C76.7684 57.4864 77.4096 57.4864 78.0452 57.4864C78.0452 59.2167 78.0452 60.9527 78.0452 62.6831C78.5105 62.6831 78.9814 62.6831 79.4467 62.6831C79.4467 60.9527 79.4467 59.2167 79.4467 57.4864C80.0823 57.4864 80.7235 57.4864 81.359 57.4864Z" fill="black"/>
<path d="M80.7462 62.6831C81.2171 62.6831 81.6938 62.6831 82.1647 62.6831C82.3293 62.2122 82.4995 61.7356 82.6641 61.2648C83.4585 61.2648 84.2529 61.2648 85.0473 61.2648C85.2062 61.7356 85.3708 62.2122 85.5296 62.6831C86.0176 62.6831 86.5 62.6831 86.988 62.6831C86.1935 60.5556 85.3991 58.4338 84.6047 56.3064C84.1281 56.3064 83.6458 56.3064 83.1691 56.3064C82.3634 58.4338 81.5576 60.5556 80.7518 62.6831H80.7462ZM83.8784 57.8779C84.1451 58.6551 84.4118 59.438 84.6842 60.2152C84.1338 60.2152 83.5833 60.2152 83.0329 60.2152C83.311 59.438 83.5833 58.6551 83.8614 57.8779H83.8784Z" fill="black"/>
<path d="M88.94 56.3064C88.4747 56.3064 88.0037 56.3064 87.5384 56.3064C87.5384 58.4338 87.5384 60.5556 87.5384 62.6831C89.0421 62.6831 90.5458 62.6831 92.0495 62.6831C92.0495 62.2916 92.0495 61.8945 92.0495 61.503C91.0111 61.503 89.9784 61.503 88.94 61.503C88.94 59.7727 88.94 58.0367 88.94 56.3064Z" fill="black"/>
<path d="M92.8326 62.6775C93.2978 62.6775 93.7688 62.6775 94.2341 62.6775C94.2341 60.55 94.2341 58.4282 94.2341 56.3008C93.7688 56.3008 93.2978 56.3008 92.8326 56.3008C92.8326 58.4282 92.8326 60.55 92.8326 62.6775Z" fill="black"/>
<path d="M94.7902 62.6775C95.2612 62.6775 95.7378 62.6775 96.2088 62.6775C96.3733 62.2066 96.5436 61.73 96.7081 61.2592C97.5025 61.2592 98.2969 61.2592 99.0914 61.2592C99.2502 61.73 99.4148 62.2066 99.5737 62.6775C100.056 62.6775 100.544 62.6775 101.026 62.6775C100.232 60.55 99.4375 58.4282 98.6431 56.3008C98.1664 56.3008 97.6841 56.3008 97.2075 56.3008C96.4017 58.4282 95.596 60.55 94.7902 62.6775ZM97.9224 57.8723C98.1891 58.6495 98.4615 59.4324 98.7282 60.2096C98.1778 60.2096 97.6274 60.2096 97.077 60.2096C97.355 59.4324 97.633 58.6495 97.9054 57.8723H97.9224Z" fill="black"/>
<path d="M105.566 62.6775C106.031 62.6775 106.502 62.6775 106.967 62.6775C106.967 60.55 106.967 58.4282 106.967 56.3008C106.53 56.3008 106.094 56.3008 105.657 56.3008C105.657 57.7248 105.657 59.1544 105.657 60.5784C105.651 60.5784 105.645 60.5784 105.64 60.5784C104.754 59.1544 103.864 57.7248 102.978 56.3008C102.513 56.3008 102.048 56.3008 101.582 56.3008C101.582 58.4282 101.582 60.55 101.582 62.6775C102.019 62.6775 102.456 62.6775 102.893 62.6775C102.893 61.2535 102.893 59.8295 102.893 58.4112H102.91C103.795 59.8352 104.681 61.2535 105.566 62.6775Z" fill="black"/>
<path d="M78.7261 64.4758C76.9841 64.4758 75.242 64.4758 73.5 64.4758V65.6559C74.1355 65.6559 74.7767 65.6559 75.4123 65.6559C75.4123 67.3862 75.4123 69.1222 75.4123 70.8525C75.8776 70.8525 76.3485 70.8525 76.8138 70.8525C76.8138 69.1222 76.8138 67.3862 76.8138 65.6559C77.4494 65.6559 78.0906 65.6559 78.7261 65.6559C78.7261 65.2644 78.7261 64.873 78.7261 64.4758Z" fill="black"/>
<path d="M80.8596 69.6669C80.8596 69.1449 80.8596 68.623 80.8596 68.1067C81.8924 68.1067 82.9194 68.1067 83.9522 68.1067C83.9522 67.7436 83.9522 67.3806 83.9522 67.0175C82.9194 67.0175 81.8924 67.0175 80.8596 67.0175C80.8596 66.5636 80.8596 66.1041 80.8596 65.6502C81.9832 65.6502 83.1067 65.6502 84.2302 65.6502C84.2302 65.2588 84.2302 64.8673 84.2302 64.4702C82.6414 64.4702 81.0526 64.4702 79.4581 64.4702C79.4581 66.5977 79.4581 68.7194 79.4581 70.8469C81.0696 70.8469 82.6868 70.8469 84.2983 70.8469C84.2983 70.4554 84.2983 70.0583 84.2983 69.6669C83.1521 69.6669 82.0059 69.6669 80.8596 69.6669Z" fill="black"/>
<path d="M90.8465 68.3903H90.7501C90.7501 68.3903 90.7104 68.3903 90.6877 68.3903H90.6196C90.6196 68.3903 90.5685 68.3903 90.5458 68.3903H90.4663C90.4663 68.3903 90.4096 68.3903 90.3869 68.3903C90.3642 68.3903 90.3302 68.3903 90.3018 68.3903H90.2167C90.2167 68.3903 90.1599 68.3903 90.1316 68.3903H90.0465C90.0465 68.3903 89.9897 68.3903 89.967 68.3903H89.8876C89.8876 68.3903 89.8365 68.3903 89.8138 68.3903H89.7457C89.7457 68.3903 89.706 68.3903 89.6833 68.3903H89.6322C89.6322 68.3903 89.6039 68.3903 89.5925 68.3903H89.5358C89.5244 68.4244 89.5244 68.4584 89.5187 68.4924C89.5131 68.5265 89.5074 68.5605 89.5017 68.5946C89.496 68.6286 89.4847 68.6626 89.479 68.691C89.4677 68.725 89.462 68.7534 89.4506 68.7874C89.4393 68.8158 89.4279 68.8499 89.4223 68.8782C89.4109 68.9066 89.3996 68.935 89.3882 68.969C89.3769 68.9974 89.3599 69.0257 89.3485 69.0541C89.3315 69.0825 89.3201 69.1108 89.3031 69.1335C89.2861 69.1619 89.2747 69.1846 89.2577 69.2129C89.2407 69.2356 89.2237 69.264 89.2066 69.2867C89.1896 69.3094 89.1726 69.3321 89.1499 69.3548C89.1329 69.3775 89.1102 69.4002 89.0932 69.4172C89.0705 69.4399 89.0534 69.4569 89.0307 69.4796C89.008 69.4966 88.9853 69.5193 88.9626 69.5363C88.9399 69.5533 88.9173 69.5703 88.8946 69.5874C88.8719 69.6044 88.8435 69.6214 88.8208 69.6328C88.7924 69.6441 88.7697 69.6611 88.7413 69.6725C88.713 69.6838 88.6846 69.6952 88.6619 69.7065C88.6335 69.7179 88.6052 69.7292 88.5768 69.7405C88.5484 69.7519 88.5144 69.7576 88.486 69.7689C88.4576 69.7746 88.4236 69.7803 88.3952 69.7916C88.3612 69.7916 88.3328 69.803 88.2987 69.8086L88.1966 69.82C88.1626 69.82 88.1285 69.82 88.0888 69.82C88.0377 69.82 87.9867 69.82 87.9356 69.82C87.8845 69.82 87.8391 69.8086 87.7881 69.8029L87.6519 69.7746C87.6065 69.7632 87.5668 69.7519 87.5214 69.7405C87.4816 69.7235 87.4419 69.7122 87.4022 69.6952C87.3625 69.6781 87.3284 69.6611 87.2887 69.6384C87.2547 69.6157 87.2149 69.5987 87.1809 69.576C87.1469 69.5533 87.1128 69.5306 87.0788 69.5079C87.0504 69.4796 87.0163 69.4569 86.988 69.4285C86.9596 69.4002 86.9312 69.3718 86.9029 69.3434C86.8745 69.3151 86.8518 69.281 86.8234 69.2526C86.8007 69.2186 86.778 69.1902 86.7496 69.1562L86.6816 69.0541C86.6645 69.02 86.6418 68.9803 86.6248 68.9463C86.6078 68.9066 86.5908 68.8725 86.5737 68.8328C86.5567 68.7931 86.5454 68.7534 86.5283 68.7137C86.517 68.674 86.5 68.6343 86.4886 68.5946C86.4773 68.5548 86.4659 68.5095 86.4546 68.4698C86.4432 68.43 86.4376 68.3847 86.4262 68.3449C86.4205 68.2996 86.4092 68.2598 86.4035 68.2145C86.3978 68.1691 86.3922 68.1294 86.3865 68.084L86.3751 67.9535V67.823C86.3695 67.7776 86.3638 67.7322 86.3638 67.6925C86.3638 67.6471 86.3638 67.6018 86.3638 67.5507C86.3638 67.5053 86.3638 67.4599 86.3695 67.4145C86.3695 67.3692 86.3751 67.3238 86.3808 67.2784C86.3865 67.233 86.3922 67.1876 86.3978 67.1422C86.4035 67.0968 86.4149 67.0515 86.4205 67.0117C86.4319 66.9664 86.4376 66.9266 86.4489 66.8813C86.4603 66.8415 86.4716 66.7962 86.483 66.7564L86.5227 66.6316C86.5397 66.5919 86.551 66.5522 86.5681 66.5125L86.6191 66.399C86.6362 66.365 86.6589 66.3253 86.6759 66.2912C86.6986 66.2572 86.7213 66.2232 86.744 66.1891C86.7667 66.1551 86.7894 66.121 86.8177 66.0927L86.8972 66.0019C86.9256 65.9735 86.9539 65.9452 86.9823 65.9168C87.0107 65.8884 87.0447 65.8658 87.0731 65.8374C87.1071 65.8147 87.1412 65.792 87.1752 65.7636L87.283 65.7012C87.3228 65.6842 87.3568 65.6672 87.3965 65.6445C87.4362 65.6275 87.476 65.6161 87.5157 65.5991L87.6462 65.5651C87.6916 65.5537 87.737 65.5481 87.7824 65.5367C87.8334 65.5367 87.8788 65.5254 87.9299 65.5197C87.981 65.5197 88.0321 65.5197 88.0831 65.5197C88.1115 65.5197 88.1399 65.5197 88.1682 65.5197C88.1966 65.5197 88.225 65.5197 88.2534 65.5254C88.2817 65.5254 88.3101 65.531 88.3385 65.5367C88.3668 65.5367 88.3952 65.5481 88.4236 65.5537C88.452 65.5594 88.4803 65.5651 88.503 65.5764C88.5314 65.5821 88.5541 65.5934 88.5825 65.5991C88.6108 65.6105 88.6335 65.6161 88.6619 65.6275C88.6846 65.6388 88.713 65.6502 88.7357 65.6615C88.7584 65.6729 88.7867 65.6842 88.8094 65.7012C88.8321 65.7126 88.8548 65.7296 88.8775 65.7409C88.9002 65.758 88.9229 65.7693 88.9456 65.7863C88.9683 65.8033 88.991 65.8204 89.008 65.8374C89.0307 65.8544 89.0478 65.8714 89.0705 65.8884C89.0875 65.9055 89.1102 65.9225 89.1272 65.9452C89.1442 65.9622 89.1612 65.9849 89.1839 66.0019C89.201 66.0246 89.218 66.0416 89.235 66.0643C89.252 66.087 89.2634 66.104 89.2804 66.1267C89.2918 66.1494 89.3088 66.1721 89.3201 66.1948C89.3315 66.2175 89.3428 66.2402 89.3599 66.2629C89.3712 66.2856 89.3825 66.3083 89.3939 66.331C89.4052 66.3536 89.4109 66.382 89.4223 66.4047C89.4279 66.4274 89.4393 66.4558 89.445 66.4785L89.462 66.5579C89.462 66.5579 89.4733 66.6089 89.479 66.6373H89.5358C89.5358 66.6373 89.5641 66.6373 89.5755 66.6373H89.6265C89.6265 66.6373 89.6663 66.6373 89.689 66.6373H89.7571C89.7571 66.6373 89.8081 66.6373 89.8308 66.6373H89.9103C89.9103 66.6373 89.967 66.6373 89.9897 66.6373H90.0748C90.0748 66.6373 90.1316 66.6373 90.1599 66.6373H90.245C90.245 66.6373 90.3018 66.6373 90.3302 66.6373C90.3585 66.6373 90.3869 66.6373 90.4096 66.6373H90.4891C90.4891 66.6373 90.5401 66.6373 90.5628 66.6373H90.6309C90.6309 66.6373 90.6706 66.6373 90.6933 66.6373H90.8182C90.8182 66.6373 90.8295 66.6373 90.8409 66.6373C90.8409 66.5749 90.8238 66.5182 90.8182 66.4558C90.8068 66.399 90.7955 66.3423 90.7841 66.2799C90.7671 66.2232 90.7557 66.1664 90.7387 66.1154C90.7217 66.0643 90.699 66.0076 90.682 65.9565C90.6593 65.9055 90.6366 65.8544 90.6196 65.8033C90.5969 65.7523 90.5685 65.7069 90.5458 65.6558C90.5174 65.6105 90.4891 65.5651 90.4607 65.5197C90.4323 65.4743 90.3983 65.4346 90.3699 65.3892C90.3358 65.3495 90.3018 65.3041 90.2734 65.2644C90.2394 65.2247 90.2053 65.185 90.1656 65.1453C90.1259 65.1112 90.0918 65.0715 90.0521 65.0375C90.0124 65.0034 89.9727 64.9694 89.933 64.9353C89.8932 64.907 89.8479 64.8729 89.8081 64.8446C89.7627 64.8162 89.7173 64.7878 89.6776 64.7595C89.6322 64.7311 89.5868 64.7084 89.5414 64.6801C89.496 64.6574 89.445 64.6347 89.3996 64.612C89.3485 64.5893 89.3031 64.5723 89.252 64.5496C89.201 64.5326 89.1499 64.5155 89.0988 64.4928C89.0478 64.4758 88.9967 64.4645 88.94 64.4475C88.8889 64.4361 88.8321 64.4248 88.7811 64.4077C88.7243 64.3964 88.6733 64.3907 88.6165 64.3794C88.5598 64.3737 88.503 64.368 88.4463 64.3567C88.3895 64.3567 88.3328 64.351 88.2761 64.3453C88.2193 64.3453 88.1626 64.3453 88.1001 64.3453C88.0207 64.3453 87.9413 64.3453 87.8561 64.351C87.7767 64.3567 87.7029 64.368 87.6235 64.3737C87.5497 64.3851 87.476 64.3964 87.3965 64.4134C87.3228 64.4304 87.2547 64.4475 87.1809 64.4645C87.1128 64.4872 87.0447 64.5099 86.9766 64.5269L86.778 64.6063C86.7156 64.6347 86.6532 64.6687 86.5908 64.6971C86.5284 64.7311 86.4716 64.7652 86.4092 64.7992C86.3524 64.8389 86.2957 64.8729 86.239 64.9127C86.1879 64.9524 86.1311 64.9978 86.0801 65.0375C86.029 65.0829 85.9779 65.1282 85.9325 65.1736L85.7907 65.3211C85.7453 65.3722 85.7056 65.4232 85.6602 65.48C85.6205 65.5367 85.5807 65.5878 85.541 65.6445C85.507 65.7012 85.4672 65.7636 85.4332 65.8204C85.3991 65.8828 85.3708 65.9395 85.3367 66.0019C85.3084 66.0643 85.28 66.1267 85.2516 66.1948C85.2289 66.2629 85.2005 66.3253 85.1778 66.3934C85.1552 66.4614 85.1325 66.5295 85.1154 66.5976C85.0984 66.6657 85.0814 66.7394 85.0644 66.8075C85.053 66.8813 85.036 66.955 85.0246 67.0288L84.9963 67.2557C84.9906 67.3294 84.9849 67.4089 84.9792 67.4826C84.9792 67.562 84.9792 67.6415 84.9736 67.7152C84.9736 67.789 84.9736 67.8684 84.9792 67.9421C84.9849 68.0159 84.9906 68.0896 84.9963 68.1634L85.0246 68.3847C85.036 68.4584 85.053 68.5265 85.0644 68.6002C85.0814 68.6683 85.0984 68.7364 85.1154 68.8101C85.1381 68.8782 85.1608 68.9463 85.1778 69.0144C85.2005 69.0768 85.2289 69.1449 85.2516 69.2073C85.28 69.2697 85.3084 69.3321 85.3367 69.3945C85.3708 69.4569 85.3991 69.5136 85.4332 69.576C85.4672 69.6328 85.507 69.6895 85.541 69.7462C85.5807 69.803 85.6205 69.854 85.6602 69.9107C85.7056 69.9618 85.7453 70.0129 85.7907 70.0639C85.8361 70.115 85.8815 70.1604 85.9325 70.2114C85.9836 70.2568 86.0347 70.3022 86.0801 70.3476C86.1311 70.3873 86.1879 70.4327 86.239 70.4724C86.2957 70.5121 86.3524 70.5461 86.4092 70.5858C86.4716 70.6199 86.5284 70.6539 86.5908 70.688C86.6532 70.7163 86.7156 70.7504 86.778 70.7787C86.8461 70.8071 86.9085 70.8298 86.9766 70.8582C87.0447 70.8809 87.1128 70.9035 87.1809 70.9206C87.2547 70.9376 87.3228 70.9546 87.3965 70.9716C87.4703 70.983 87.5441 70.9943 87.6235 71.0057C87.7029 71.0113 87.7767 71.0227 87.8561 71.0284C87.9356 71.0284 88.015 71.0284 88.1001 71.034C88.1626 71.034 88.2307 71.034 88.2931 71.034C88.3555 71.034 88.4179 71.0227 88.4803 71.017C88.5427 71.0057 88.5995 71 88.6619 70.9886L88.8378 70.9546L89.008 70.9092C89.0648 70.8922 89.1159 70.8695 89.1726 70.8525C89.2237 70.8298 89.2804 70.8071 89.3315 70.7901C89.3825 70.7674 89.4336 70.739 89.4847 70.7163C89.5358 70.688 89.5812 70.6596 89.6322 70.6312C89.6776 70.6029 89.723 70.5688 89.7741 70.5405C89.8195 70.5064 89.8649 70.4724 89.9046 70.4383C89.9443 70.4043 89.9897 70.3646 90.0294 70.3306C90.0692 70.2908 90.1089 70.2511 90.1486 70.2114C90.1883 70.1717 90.2224 70.1263 90.2621 70.0866C90.2961 70.0412 90.3302 69.9958 90.3642 69.9505C90.3983 69.9051 90.4266 69.854 90.4607 69.8086C90.4891 69.7576 90.5174 69.7122 90.5458 69.6611C90.5742 69.6101 90.5969 69.559 90.6252 69.5079C90.6479 69.4512 90.6706 69.4002 90.6933 69.3434L90.7557 69.1732C90.7728 69.1165 90.7898 69.0541 90.8068 68.9974C90.8182 68.935 90.8352 68.8725 90.8465 68.8158C90.8579 68.7534 90.8692 68.691 90.8806 68.6286C90.8863 68.5662 90.8976 68.4981 90.8976 68.4357C90.8863 68.4357 90.8806 68.4357 90.8749 68.4357H90.8409L90.8465 68.3903Z" fill="black"/>
<path d="M95.8343 64.4702C95.8343 65.2872 95.8343 66.0984 95.8343 66.9154H93.2525C93.2525 66.0984 93.2525 65.2872 93.2525 64.4702C92.7872 64.4702 92.3162 64.4702 91.8509 64.4702C91.8509 66.5977 91.8509 68.7194 91.8509 70.8469C92.3162 70.8469 92.7872 70.8469 93.2525 70.8469C93.2525 69.9278 93.2525 69.0144 93.2525 68.0954C94.115 68.0954 94.9718 68.0954 95.8343 68.0954C95.8343 69.0144 95.8343 69.9278 95.8343 70.8469C96.2996 70.8469 96.7706 70.8469 97.2359 70.8469C97.2359 68.7194 97.2359 66.5977 97.2359 64.4702C96.7706 64.4702 96.2996 64.4702 95.8343 64.4702Z" fill="black"/>
<path d="M102.541 64.4702C102.541 65.8942 102.541 67.3238 102.541 68.7478H102.524C101.639 67.3238 100.748 65.8942 99.8631 64.4702C99.3978 64.4702 98.9325 64.4702 98.4672 64.4702C98.4672 66.5977 98.4672 68.7194 98.4672 70.8469H99.778C99.778 69.4229 99.778 67.9989 99.778 66.5806H99.795C100.68 68.0046 101.565 69.4229 102.451 70.8469C102.916 70.8469 103.387 70.8469 103.852 70.8469C103.852 68.7194 103.852 66.5977 103.852 64.4702C103.415 64.4702 102.978 64.4702 102.541 64.4702Z" fill="black"/>
<path d="M111.047 67.216C111.036 67.1422 111.03 67.0685 111.019 66.989C111.008 66.9153 110.991 66.8415 110.979 66.7678C110.962 66.6997 110.945 66.6259 110.928 66.5579C110.905 66.4898 110.883 66.4217 110.866 66.3536L110.792 66.1551L110.707 65.9622C110.673 65.8998 110.644 65.843 110.61 65.7806C110.576 65.7239 110.537 65.6672 110.503 65.6048C110.463 65.548 110.423 65.497 110.383 65.4402C110.338 65.3892 110.298 65.3381 110.253 65.2814C110.207 65.2303 110.162 65.1849 110.111 65.1339L109.963 64.9977L109.805 64.8729C109.748 64.8332 109.691 64.7992 109.634 64.7595C109.572 64.7254 109.515 64.6914 109.453 64.6573C109.39 64.629 109.328 64.5949 109.265 64.5666C109.197 64.5382 109.135 64.5155 109.067 64.4871C108.999 64.4645 108.931 64.4418 108.857 64.4247C108.783 64.4077 108.715 64.3907 108.641 64.3737C108.568 64.3623 108.494 64.351 108.414 64.3396C108.335 64.334 108.261 64.3226 108.182 64.317C108.102 64.317 108.023 64.317 107.938 64.3113C107.858 64.3113 107.779 64.3113 107.694 64.317C107.614 64.3226 107.54 64.334 107.461 64.3396L107.234 64.3794C107.16 64.3964 107.092 64.4134 107.018 64.4304C106.95 64.4531 106.882 64.4758 106.814 64.4928C106.746 64.5212 106.684 64.5439 106.616 64.5722C106.553 64.6006 106.491 64.6347 106.428 64.663C106.366 64.6971 106.309 64.7311 106.247 64.7651C106.19 64.8048 106.133 64.8389 106.077 64.8786C106.025 64.9183 105.969 64.9637 105.918 65.0034C105.867 65.0488 105.815 65.0942 105.77 65.1396C105.725 65.1906 105.679 65.236 105.628 65.2871C105.583 65.3381 105.543 65.3892 105.498 65.4459C105.458 65.5026 105.418 65.5537 105.379 65.6104C105.345 65.6672 105.305 65.7296 105.271 65.7863C105.237 65.8487 105.208 65.9054 105.174 65.9679C105.146 66.0303 105.118 66.0927 105.089 66.1607C105.066 66.2288 105.038 66.2912 105.015 66.3593C104.993 66.4274 104.97 66.4955 104.953 66.5635C104.936 66.6316 104.919 66.7054 104.902 66.7734C104.891 66.8472 104.874 66.9209 104.862 66.9947L104.834 67.2216C104.828 67.2954 104.822 67.3748 104.817 67.4486C104.817 67.528 104.817 67.6074 104.811 67.6812C104.811 67.7549 104.811 67.8343 104.817 67.9081C104.822 67.9818 104.828 68.0556 104.834 68.1293L104.862 68.3506C104.874 68.4243 104.891 68.4924 104.902 68.5662C104.919 68.6343 104.936 68.7023 104.953 68.7761C104.976 68.8442 104.998 68.9122 105.015 68.9803C105.038 69.0427 105.066 69.1108 105.089 69.1732C105.118 69.2356 105.146 69.298 105.174 69.3604C105.208 69.4228 105.237 69.4796 105.271 69.542C105.305 69.5987 105.345 69.6554 105.379 69.7122C105.418 69.7689 105.458 69.8199 105.498 69.8767L105.628 70.0299C105.674 70.0809 105.719 70.1263 105.77 70.1774L105.918 70.3135C105.969 70.3532 106.025 70.3986 106.077 70.4383C106.133 70.478 106.19 70.5121 106.247 70.5518C106.309 70.5858 106.366 70.6199 106.428 70.6539C106.491 70.6823 106.553 70.7163 106.616 70.7447C106.684 70.773 106.746 70.7957 106.814 70.8241C106.882 70.8468 106.95 70.8695 107.018 70.8865C107.092 70.9035 107.16 70.9205 107.234 70.9376C107.308 70.9489 107.382 70.9603 107.461 70.9716C107.54 70.9773 107.614 70.9886 107.694 70.9943C107.773 70.9943 107.853 70.9943 107.938 71C108.017 71 108.097 71 108.182 70.9943C108.261 70.9886 108.335 70.9773 108.414 70.9716C108.488 70.9603 108.562 70.9489 108.641 70.9319C108.715 70.9149 108.783 70.8979 108.857 70.8808C108.925 70.8581 108.993 70.8355 109.061 70.8184C109.129 70.7901 109.192 70.7674 109.26 70.739C109.322 70.7106 109.385 70.6766 109.447 70.6482C109.509 70.6142 109.566 70.5802 109.629 70.5461C109.685 70.5064 109.742 70.4724 109.799 70.4327C109.85 70.3929 109.907 70.3476 109.958 70.3078C110.009 70.2625 110.06 70.2171 110.105 70.1717C110.151 70.1206 110.196 70.0752 110.247 70.0242C110.293 69.9731 110.332 69.9221 110.378 69.871C110.417 69.8143 110.457 69.7632 110.497 69.7065C110.531 69.6498 110.571 69.593 110.605 69.5363C110.639 69.4739 110.667 69.4172 110.701 69.3547C110.729 69.2923 110.758 69.2299 110.786 69.1675L110.86 68.9746C110.883 68.9066 110.905 68.8385 110.922 68.7704C110.939 68.7023 110.956 68.6343 110.973 68.5605C110.985 68.4867 111.002 68.4187 111.013 68.3449C111.025 68.2712 111.03 68.1974 111.042 68.1237L111.059 67.9024C111.059 67.8287 111.059 67.7492 111.064 67.6755C111.064 67.5961 111.064 67.5166 111.059 67.4429C111.053 67.3691 111.047 67.2897 111.042 67.216H111.047ZM109.668 67.8116C109.668 67.857 109.668 67.9024 109.663 67.9421C109.663 67.9875 109.657 68.0272 109.651 68.0726C109.646 68.118 109.64 68.1577 109.634 68.2031C109.629 68.2485 109.617 68.2882 109.612 68.3336C109.6 68.3733 109.595 68.4187 109.583 68.4584C109.572 68.4981 109.561 68.5435 109.549 68.5832C109.538 68.6229 109.521 68.6626 109.509 68.7023C109.492 68.742 109.481 68.7818 109.464 68.8215C109.447 68.8612 109.43 68.8952 109.413 68.9349C109.396 68.969 109.373 69.0087 109.356 69.0427C109.334 69.0768 109.311 69.1108 109.288 69.1448L109.214 69.2413C109.186 69.2697 109.163 69.3037 109.135 69.3321C109.107 69.3604 109.078 69.3888 109.05 69.4172C109.021 69.4455 108.987 69.4682 108.959 69.4966C108.925 69.5193 108.891 69.542 108.857 69.5647C108.823 69.5873 108.783 69.6044 108.749 69.6271C108.709 69.6441 108.675 69.6611 108.636 69.6838C108.596 69.7008 108.556 69.7122 108.516 69.7292C108.471 69.7405 108.431 69.7519 108.386 69.7632C108.341 69.7746 108.295 69.7802 108.25 69.7916C108.199 69.7916 108.153 69.8029 108.102 69.8086C108.051 69.8086 108 69.8086 107.949 69.8086C107.898 69.8086 107.847 69.8086 107.796 69.8086C107.745 69.8086 107.699 69.7973 107.648 69.7916C107.603 69.7802 107.558 69.7746 107.512 69.7632L107.382 69.7292C107.342 69.7122 107.302 69.7008 107.262 69.6838C107.223 69.6668 107.189 69.6498 107.149 69.6271C107.115 69.6044 107.075 69.5873 107.041 69.5647C107.007 69.542 106.973 69.5193 106.939 69.4966C106.911 69.4682 106.877 69.4455 106.848 69.4172C106.82 69.3888 106.791 69.3604 106.763 69.3321C106.735 69.3037 106.712 69.2697 106.684 69.2413C106.661 69.2072 106.638 69.1789 106.61 69.1448C106.587 69.1108 106.564 69.0768 106.542 69.0427L106.485 68.9349C106.468 68.8952 106.451 68.8612 106.434 68.8215C106.417 68.7818 106.406 68.742 106.389 68.7023C106.377 68.6626 106.36 68.6229 106.349 68.5832L106.315 68.4584C106.303 68.4187 106.298 68.3733 106.286 68.3336L106.264 68.2031C106.258 68.1577 106.252 68.118 106.247 68.0726C106.247 68.0272 106.235 67.9875 106.235 67.9421C106.235 67.8967 106.235 67.8514 106.23 67.8116C106.23 67.7663 106.23 67.7209 106.23 67.6812C106.23 67.6358 106.23 67.5904 106.23 67.5393C106.23 67.4939 106.23 67.4486 106.235 67.4032C106.235 67.3578 106.241 67.3124 106.247 67.267C106.252 67.2216 106.258 67.1762 106.264 67.1309C106.269 67.0855 106.281 67.0401 106.286 67.0004C106.298 66.955 106.303 66.9153 106.315 66.8699C106.326 66.8302 106.338 66.7848 106.349 66.7451L106.389 66.6203C106.406 66.5806 106.417 66.5408 106.434 66.5011C106.451 66.4614 106.468 66.4217 106.485 66.3877C106.502 66.3536 106.525 66.3139 106.542 66.2799C106.564 66.2458 106.587 66.2118 106.61 66.1778C106.633 66.1437 106.655 66.1097 106.684 66.0813L106.763 65.9905C106.791 65.9622 106.82 65.9338 106.848 65.9054C106.877 65.8771 106.911 65.8544 106.939 65.826C106.973 65.8033 107.007 65.7806 107.041 65.7523C107.075 65.7296 107.115 65.7126 107.149 65.6899C107.189 65.6728 107.223 65.6558 107.262 65.6331C107.302 65.6161 107.342 65.6048 107.382 65.5877C107.427 65.5764 107.467 65.5651 107.512 65.5537C107.558 65.5424 107.603 65.5367 107.648 65.5253C107.699 65.5253 107.745 65.514 107.796 65.5083C107.847 65.5083 107.898 65.5083 107.949 65.5083C108 65.5083 108.051 65.5083 108.102 65.5083C108.153 65.5083 108.199 65.5197 108.25 65.5253C108.295 65.5367 108.341 65.5424 108.386 65.5537C108.431 65.5651 108.471 65.5764 108.516 65.5877C108.556 65.6048 108.596 65.6161 108.641 65.6331L108.755 65.6899C108.789 65.7126 108.829 65.7296 108.863 65.7523C108.897 65.775 108.931 65.7977 108.965 65.826C108.993 65.8544 109.027 65.8771 109.056 65.9054C109.084 65.9338 109.112 65.9622 109.141 65.9905C109.169 66.0189 109.192 66.053 109.22 66.0813C109.243 66.1154 109.265 66.1494 109.294 66.1778C109.317 66.2118 109.339 66.2458 109.362 66.2799C109.379 66.3139 109.402 66.3536 109.419 66.3877C109.436 66.4274 109.453 66.4671 109.47 66.5011C109.487 66.5408 109.498 66.5806 109.515 66.6203C109.527 66.66 109.544 66.7054 109.555 66.7451C109.566 66.7848 109.578 66.8302 109.589 66.8699C109.6 66.9153 109.606 66.955 109.617 67.0004C109.623 67.0458 109.634 67.0911 109.64 67.1309C109.646 67.1762 109.651 67.2216 109.657 67.267C109.657 67.3124 109.668 67.3578 109.668 67.4032C109.668 67.4486 109.668 67.4939 109.674 67.5393C109.674 67.5847 109.674 67.6301 109.674 67.6812C109.674 67.7265 109.674 67.7719 109.674 67.8116H109.668Z" fill="black"/>
<path d="M113.43 69.6611C113.43 67.9308 113.43 66.1948 113.43 64.4645C112.965 64.4645 112.494 64.4645 112.029 64.4645C112.029 66.5919 112.029 68.7137 112.029 70.8411C113.533 70.8411 115.036 70.8411 116.54 70.8411C116.54 70.4497 116.54 70.0526 116.54 69.6611C115.502 69.6611 114.469 69.6611 113.43 69.6611Z" fill="black"/>
<path d="M123.287 67.2103C123.275 67.1366 123.27 67.0628 123.258 66.9834C123.247 66.9097 123.23 66.8359 123.219 66.7622C123.202 66.6941 123.185 66.6203 123.168 66.5522C123.145 66.4842 123.122 66.4161 123.105 66.348L123.032 66.1495L122.946 65.9566C122.912 65.8942 122.884 65.8374 122.85 65.775C122.816 65.7183 122.776 65.6616 122.742 65.5992C122.702 65.5424 122.663 65.4914 122.623 65.4346C122.578 65.3836 122.538 65.3325 122.492 65.2758C122.447 65.2247 122.402 65.1793 122.351 65.1283L122.203 64.9921L122.044 64.8673C121.987 64.8276 121.931 64.7936 121.874 64.7538C121.812 64.7198 121.755 64.6858 121.692 64.6517C121.63 64.6234 121.568 64.5893 121.505 64.561C121.437 64.5326 121.375 64.5099 121.306 64.4815C121.238 64.4588 121.17 64.4362 121.097 64.4191C121.023 64.4021 120.955 64.3851 120.881 64.3681C120.807 64.3567 120.733 64.3454 120.654 64.334C120.575 64.3284 120.501 64.317 120.421 64.3113C120.342 64.3113 120.262 64.3113 120.177 64.3057C120.098 64.3057 120.018 64.3057 119.933 64.3113C119.854 64.317 119.78 64.3284 119.701 64.334L119.474 64.3737C119.4 64.3908 119.332 64.4078 119.258 64.4248C119.19 64.4475 119.122 64.4702 119.054 64.4872C118.986 64.5156 118.923 64.5383 118.855 64.5666C118.793 64.595 118.73 64.629 118.668 64.6574C118.605 64.6914 118.549 64.7255 118.486 64.7595C118.43 64.7992 118.373 64.8333 118.316 64.873C118.265 64.9127 118.208 64.9581 118.157 64.9978C118.106 65.0432 118.055 65.0886 118.01 65.1339C117.964 65.185 117.919 65.2304 117.868 65.2815C117.822 65.3325 117.783 65.3836 117.737 65.4403C117.698 65.497 117.658 65.5481 117.618 65.6048C117.584 65.6616 117.544 65.724 117.51 65.7807C117.476 65.8431 117.448 65.8998 117.414 65.9622C117.386 66.0246 117.357 66.087 117.329 66.1551C117.306 66.2232 117.278 66.2856 117.255 66.3537C117.232 66.4218 117.21 66.4898 117.193 66.5579C117.176 66.626 117.159 66.6998 117.142 66.7678C117.13 66.8416 117.113 66.9153 117.102 66.9891C117.09 67.0628 117.085 67.1366 117.073 67.216C117.068 67.2898 117.062 67.3692 117.056 67.4429C117.056 67.5224 117.056 67.6018 117.051 67.6755C117.051 67.7493 117.051 67.8287 117.056 67.9025C117.062 67.9762 117.068 68.05 117.073 68.1237L117.102 68.345C117.113 68.4187 117.13 68.4868 117.142 68.5606C117.159 68.6286 117.176 68.6967 117.193 68.7705C117.215 68.8385 117.238 68.9066 117.255 68.9747C117.278 69.0371 117.306 69.1052 117.329 69.1676C117.357 69.23 117.386 69.2924 117.414 69.3548C117.448 69.4172 117.476 69.4739 117.51 69.5363C117.544 69.5931 117.584 69.6498 117.618 69.7065C117.658 69.7633 117.698 69.8143 117.737 69.8711L117.868 70.0242C117.913 70.0753 117.959 70.1207 118.01 70.1717L118.157 70.3079C118.208 70.3476 118.265 70.393 118.316 70.4327C118.373 70.4724 118.43 70.5065 118.486 70.5462C118.549 70.5802 118.605 70.6143 118.668 70.6483C118.73 70.6767 118.793 70.7107 118.855 70.7391C118.923 70.7674 118.986 70.7901 119.054 70.8185C119.122 70.8412 119.19 70.8639 119.258 70.8809C119.332 70.8979 119.4 70.9149 119.474 70.932C119.547 70.9433 119.621 70.9546 119.701 70.966C119.78 70.9717 119.854 70.983 119.933 70.9887C120.013 70.9887 120.092 70.9887 120.177 70.9944C120.257 70.9944 120.336 70.9944 120.421 70.9887C120.501 70.983 120.575 70.9717 120.654 70.966C120.728 70.9546 120.801 70.9433 120.881 70.9263C120.955 70.9093 121.023 70.8922 121.097 70.8752C121.165 70.8525 121.233 70.8298 121.301 70.8128C121.369 70.7845 121.431 70.7618 121.499 70.7334C121.562 70.705 121.624 70.671 121.687 70.6426C121.749 70.6086 121.806 70.5745 121.868 70.5405C121.925 70.5008 121.982 70.4668 122.038 70.427C122.09 70.3873 122.146 70.3419 122.197 70.3022C122.248 70.2568 122.3 70.2115 122.345 70.1661C122.39 70.115 122.436 70.0696 122.487 70.0186C122.532 69.9675 122.572 69.9165 122.617 69.8654C122.657 69.8087 122.697 69.7576 122.736 69.7009C122.77 69.6441 122.81 69.5874 122.844 69.5307C122.878 69.4683 122.907 69.4115 122.941 69.3491C122.969 69.2867 122.997 69.2243 123.026 69.1619L123.1 68.969C123.122 68.901 123.145 68.8329 123.162 68.7648C123.179 68.6967 123.196 68.6286 123.213 68.5549C123.224 68.4811 123.241 68.4131 123.253 68.3393C123.264 68.2656 123.27 68.1918 123.281 68.118L123.298 67.8968C123.298 67.823 123.298 67.7436 123.304 67.6699C123.304 67.5904 123.304 67.511 123.298 67.4373C123.293 67.3635 123.287 67.2841 123.281 67.2103H123.287ZM121.908 67.806C121.908 67.8514 121.908 67.8968 121.902 67.9365C121.902 67.9819 121.897 68.0216 121.891 68.067C121.885 68.1124 121.88 68.1521 121.874 68.1975C121.868 68.2429 121.857 68.2826 121.851 68.328C121.84 68.3677 121.834 68.4131 121.823 68.4528C121.812 68.4925 121.8 68.5379 121.789 68.5776L121.749 68.6967C121.732 68.7364 121.721 68.7761 121.704 68.8159C121.687 68.8556 121.67 68.8896 121.653 68.9293L121.596 69.0371C121.573 69.0711 121.55 69.1052 121.528 69.1392L121.454 69.2357C121.426 69.264 121.403 69.2981 121.375 69.3264C121.346 69.3548 121.318 69.3832 121.289 69.4115C121.261 69.4399 121.227 69.4626 121.199 69.491C121.165 69.5137 121.131 69.5363 121.097 69.559C121.062 69.5817 121.023 69.5988 120.989 69.6214C120.949 69.6385 120.915 69.6555 120.875 69.6782C120.836 69.6952 120.796 69.7065 120.756 69.7236C120.711 69.7349 120.671 69.7463 120.626 69.7576C120.58 69.7689 120.535 69.7746 120.489 69.786C120.438 69.786 120.393 69.7973 120.342 69.803C120.291 69.803 120.24 69.803 120.189 69.803C120.138 69.803 120.087 69.803 120.035 69.803C119.984 69.803 119.939 69.7916 119.888 69.786L119.752 69.7576L119.621 69.7236C119.581 69.7065 119.542 69.6952 119.502 69.6782C119.462 69.6612 119.428 69.6441 119.389 69.6214C119.355 69.5988 119.315 69.5817 119.281 69.559C119.247 69.5363 119.213 69.5137 119.179 69.491C119.15 69.4626 119.116 69.4399 119.088 69.4115C119.059 69.3832 119.031 69.3548 119.003 69.3264C118.974 69.2981 118.952 69.264 118.923 69.2357C118.901 69.2016 118.878 69.1733 118.849 69.1392C118.827 69.1052 118.804 69.0711 118.781 69.0371L118.725 68.9293C118.708 68.8896 118.691 68.8556 118.674 68.8159C118.657 68.7761 118.645 68.7364 118.628 68.6967C118.617 68.657 118.6 68.6173 118.588 68.5776L118.554 68.4528C118.543 68.4131 118.537 68.3677 118.526 68.328L118.503 68.1975C118.498 68.1521 118.492 68.1124 118.486 68.067C118.486 68.0216 118.475 67.9819 118.475 67.9365C118.475 67.8911 118.475 67.8457 118.469 67.806C118.469 67.7606 118.469 67.7153 118.469 67.6755C118.469 67.6302 118.469 67.5848 118.469 67.5337C118.469 67.4883 118.469 67.4429 118.475 67.3976C118.475 67.3522 118.481 67.3068 118.486 67.2614C118.492 67.216 118.498 67.1706 118.503 67.1252C118.509 67.0799 118.52 67.0345 118.526 66.9948C118.537 66.9494 118.543 66.9097 118.554 66.8643C118.566 66.8246 118.577 66.7792 118.588 66.7395L118.628 66.6147C118.645 66.5749 118.657 66.5352 118.674 66.4955C118.691 66.4558 118.708 66.4161 118.725 66.3821C118.742 66.348 118.764 66.3083 118.781 66.2743C118.804 66.2402 118.827 66.2062 118.849 66.1721C118.872 66.1381 118.895 66.1041 118.923 66.0757L119.003 65.9849C119.031 65.9566 119.059 65.9282 119.088 65.8998C119.116 65.8715 119.15 65.8488 119.179 65.8204C119.213 65.7977 119.247 65.775 119.281 65.7467C119.315 65.724 119.355 65.7069 119.389 65.6842C119.428 65.6672 119.462 65.6502 119.502 65.6275C119.542 65.6105 119.581 65.5992 119.621 65.5821C119.667 65.5708 119.706 65.5594 119.752 65.5481C119.797 65.5367 119.843 65.5311 119.888 65.5197C119.939 65.5197 119.984 65.5084 120.035 65.5027C120.087 65.5027 120.138 65.5027 120.189 65.5027C120.24 65.5027 120.291 65.5027 120.342 65.5027C120.393 65.5027 120.438 65.5141 120.489 65.5197C120.535 65.5311 120.58 65.5367 120.626 65.5481C120.671 65.5594 120.711 65.5708 120.756 65.5821C120.796 65.5992 120.836 65.6105 120.881 65.6275L120.994 65.6842C121.028 65.7069 121.068 65.724 121.102 65.7467C121.136 65.7693 121.17 65.792 121.204 65.8204C121.233 65.8488 121.267 65.8715 121.295 65.8998C121.324 65.9282 121.352 65.9566 121.38 65.9849C121.409 66.0133 121.431 66.0473 121.46 66.0757C121.482 66.1097 121.505 66.1438 121.533 66.1721C121.556 66.2062 121.579 66.2402 121.602 66.2743C121.619 66.3083 121.641 66.348 121.658 66.3821C121.675 66.4218 121.692 66.4615 121.709 66.4955C121.726 66.5352 121.738 66.5749 121.755 66.6147C121.766 66.6544 121.783 66.6998 121.794 66.7395C121.806 66.7792 121.817 66.8246 121.829 66.8643C121.84 66.9097 121.846 66.9494 121.857 66.9948C121.863 67.0401 121.874 67.0855 121.88 67.1252C121.885 67.1706 121.891 67.216 121.897 67.2614L121.908 67.3976C121.908 67.4429 121.908 67.4883 121.914 67.5337C121.914 67.5791 121.914 67.6245 121.914 67.6755C121.914 67.7209 121.914 67.7663 121.914 67.806H121.908Z" fill="black"/>
<path d="M129.909 70.688C129.909 70.6539 129.909 70.6142 129.909 70.5802C129.909 70.5348 129.909 70.4951 129.909 70.4497C129.909 70.3986 129.909 70.3476 129.909 70.2965C129.909 70.2398 129.909 70.183 129.909 70.1263C129.909 70.0639 129.909 70.0015 129.909 69.9391C129.909 69.871 129.909 69.8086 129.909 69.7405C129.909 69.6725 129.909 69.6044 129.909 69.5363C129.909 69.4682 129.909 69.3945 129.909 69.3264C129.909 69.2526 129.909 69.1846 129.909 69.1108C129.909 69.0371 129.909 68.969 129.909 68.8952C129.909 68.8271 129.909 68.7534 129.909 68.6853C129.909 68.6172 129.909 68.5492 129.909 68.4811C129.909 68.413 129.909 68.3506 129.909 68.2825C129.909 68.2201 129.909 68.1577 129.909 68.0953C129.909 68.0386 129.909 67.9818 129.909 67.9251C129.909 67.8741 129.909 67.823 129.909 67.7719C129.909 67.7265 129.909 67.6868 129.909 67.6415V67.5337C129.909 67.5337 129.909 67.4826 129.909 67.4542V67.4032C129.909 67.4032 129.909 67.3918 129.903 67.3862H129.858C129.858 67.3862 129.818 67.3862 129.795 67.3862H129.71C129.676 67.3862 129.642 67.3862 129.608 67.3862C129.568 67.3862 129.529 67.3862 129.489 67.3862C129.444 67.3862 129.398 67.3862 129.358 67.3862C129.313 67.3862 129.262 67.3862 129.217 67.3862C129.165 67.3862 129.114 67.3862 129.063 67.3862C129.012 67.3862 128.956 67.3862 128.904 67.3862C128.848 67.3862 128.797 67.3862 128.74 67.3862C128.683 67.3862 128.626 67.3862 128.575 67.3862C128.519 67.3862 128.462 67.3862 128.411 67.3862C128.354 67.3862 128.303 67.3862 128.246 67.3862C128.195 67.3862 128.138 67.3862 128.087 67.3862C128.036 67.3862 127.985 67.3862 127.934 67.3862C127.889 67.3862 127.838 67.3862 127.792 67.3862C127.747 67.3862 127.701 67.3862 127.662 67.3862H127.543C127.509 67.3862 127.475 67.3862 127.44 67.3862C127.412 67.3862 127.384 67.3862 127.355 67.3862H127.293C127.293 67.3862 127.265 67.3862 127.248 67.3862C127.242 67.3918 127.242 67.3975 127.242 67.4032V67.4996C127.242 67.4996 127.242 67.528 127.242 67.545V67.6528C127.242 67.6528 127.242 67.6925 127.242 67.7152V67.7776C127.242 67.7776 127.242 67.823 127.242 67.84V67.9024C127.242 67.9024 127.242 67.9478 127.242 67.9648V68.0896C127.242 68.0896 127.242 68.1293 127.242 68.152V68.2088C127.242 68.2088 127.242 68.2428 127.242 68.2598V68.379C127.242 68.379 127.242 68.396 127.242 68.413C127.242 68.4243 127.242 68.4244 127.242 68.4244H127.344C127.344 68.4244 127.378 68.4244 127.395 68.4244H127.457C127.457 68.4244 127.503 68.4244 127.526 68.4244H127.599C127.599 68.4244 127.65 68.4244 127.679 68.4244H127.764C127.792 68.4244 127.821 68.4244 127.849 68.4244C127.877 68.4244 127.906 68.4244 127.94 68.4244H128.031C128.059 68.4244 128.087 68.4244 128.116 68.4244H128.201C128.201 68.4244 128.252 68.4244 128.28 68.4244H128.354C128.354 68.4244 128.399 68.4244 128.422 68.4244H128.485C128.485 68.4244 128.519 68.4244 128.536 68.4244H128.638C128.638 68.4584 128.638 68.4981 128.626 68.5321C128.621 68.5662 128.615 68.6002 128.609 68.6343C128.604 68.6683 128.592 68.7023 128.587 68.7364C128.575 68.7704 128.57 68.7988 128.558 68.8328C128.547 68.8612 128.536 68.8952 128.53 68.9236C128.519 68.952 128.507 68.9803 128.496 69.0087C128.485 69.0371 128.468 69.0654 128.456 69.0938C128.439 69.1222 128.428 69.1448 128.411 69.1732L128.36 69.247C128.36 69.247 128.326 69.2923 128.309 69.315C128.292 69.3377 128.269 69.3604 128.252 69.3774C128.229 69.4001 128.212 69.4172 128.189 69.4399L128.121 69.4966C128.121 69.4966 128.076 69.5306 128.053 69.5476C128.031 69.5647 128.002 69.576 127.98 69.593C127.951 69.6044 127.928 69.6214 127.9 69.6327C127.872 69.6441 127.843 69.6554 127.815 69.6725C127.787 69.6838 127.758 69.6951 127.73 69.7065C127.701 69.7178 127.667 69.7235 127.639 69.7349C127.605 69.7405 127.577 69.7519 127.543 69.7576L127.44 69.7746C127.406 69.7746 127.372 69.7802 127.338 69.7859C127.304 69.7859 127.265 69.7859 127.231 69.7916C127.191 69.7916 127.157 69.7916 127.117 69.7916C127.066 69.7916 127.015 69.7916 126.964 69.7916C126.913 69.7916 126.867 69.7802 126.816 69.7746L126.68 69.7462C126.635 69.7349 126.595 69.7235 126.55 69.7122C126.51 69.6951 126.47 69.6838 126.43 69.6668L126.317 69.61C126.283 69.5874 126.243 69.5703 126.209 69.5476C126.175 69.5249 126.141 69.5023 126.107 69.4796C126.079 69.4512 126.045 69.4285 126.016 69.4001C125.988 69.3718 125.959 69.3434 125.931 69.315C125.903 69.2867 125.88 69.2526 125.852 69.2243C125.829 69.1902 125.806 69.1619 125.778 69.1278L125.71 69.0257L125.653 68.9179C125.636 68.8782 125.619 68.8442 125.602 68.8045C125.585 68.7647 125.574 68.725 125.557 68.6853C125.545 68.6456 125.528 68.6059 125.517 68.5662C125.506 68.5265 125.494 68.4811 125.483 68.4414C125.471 68.4017 125.466 68.3563 125.454 68.3166L125.432 68.1861C125.426 68.1407 125.42 68.101 125.415 68.0556C125.415 68.0102 125.409 67.9705 125.403 67.9251C125.403 67.8797 125.403 67.8343 125.398 67.7946C125.398 67.7492 125.398 67.7039 125.398 67.6641C125.398 67.6188 125.398 67.5734 125.398 67.5223C125.398 67.4769 125.398 67.4315 125.403 67.3862C125.403 67.3408 125.409 67.2954 125.415 67.25C125.42 67.2046 125.426 67.1592 125.432 67.1138C125.437 67.0685 125.449 67.0231 125.454 66.9834C125.466 66.938 125.471 66.8983 125.483 66.8529C125.494 66.8132 125.506 66.7678 125.517 66.7281L125.557 66.6033C125.574 66.5635 125.585 66.5238 125.602 66.4841L125.653 66.3707C125.67 66.3366 125.693 66.2969 125.71 66.2629C125.732 66.2288 125.755 66.1948 125.778 66.1607C125.801 66.1267 125.823 66.0927 125.852 66.0643L125.931 65.9735C125.959 65.9452 125.988 65.9168 126.016 65.8884C126.045 65.8601 126.079 65.8374 126.107 65.809C126.141 65.7863 126.175 65.7636 126.209 65.7353L126.317 65.6729C126.357 65.6558 126.391 65.6388 126.43 65.6161C126.47 65.5991 126.51 65.5878 126.55 65.5707L126.68 65.5367C126.725 65.5253 126.771 65.5197 126.816 65.5083C126.867 65.5083 126.913 65.497 126.964 65.4913C127.015 65.4913 127.066 65.4913 127.117 65.4913C127.145 65.4913 127.174 65.4913 127.196 65.4913C127.225 65.4913 127.248 65.4913 127.276 65.497C127.304 65.497 127.327 65.5027 127.355 65.5083C127.384 65.5083 127.406 65.5197 127.435 65.5197C127.457 65.5253 127.486 65.531 127.509 65.5367C127.531 65.5424 127.56 65.548 127.582 65.5594C127.605 65.5651 127.628 65.5764 127.656 65.5821C127.679 65.5934 127.701 65.5991 127.724 65.6104L127.792 65.6445L127.855 65.6785C127.855 65.6785 127.894 65.7069 127.917 65.7182C127.94 65.7353 127.957 65.7466 127.98 65.7636C127.997 65.7806 128.019 65.792 128.036 65.809C128.053 65.826 128.07 65.843 128.093 65.8601C128.11 65.8771 128.127 65.8941 128.144 65.9168C128.161 65.9338 128.178 65.9565 128.195 65.9735C128.212 65.9962 128.224 66.0132 128.241 66.0359C128.258 66.0586 128.269 66.0813 128.286 66.0983C128.297 66.121 128.314 66.1437 128.326 66.1664C128.337 66.1891 128.348 66.2118 128.36 66.2402L128.394 66.3139C128.394 66.3139 128.411 66.365 128.422 66.3933C128.433 66.4217 128.439 66.4501 128.45 66.4784C128.456 66.5068 128.468 66.5352 128.473 66.5635H128.496C128.496 66.5635 128.519 66.5635 128.53 66.5635H128.621C128.621 66.5635 128.66 66.5635 128.677 66.5635H128.746C128.746 66.5635 128.791 66.5635 128.819 66.5635H128.893C128.893 66.5635 128.944 66.5635 128.973 66.5635H129.058C129.058 66.5635 129.114 66.5635 129.143 66.5635C129.171 66.5635 129.2 66.5635 129.228 66.5635H129.313C129.313 66.5635 129.364 66.5635 129.392 66.5635H129.466C129.466 66.5635 129.512 66.5635 129.54 66.5635H129.608C129.608 66.5635 129.648 66.5635 129.665 66.5635H129.756C129.756 66.5635 129.778 66.5635 129.79 66.5635H129.812C129.812 66.5068 129.801 66.4444 129.79 66.3877C129.778 66.3309 129.767 66.2742 129.756 66.2175C129.739 66.1607 129.727 66.1097 129.71 66.053C129.693 66.0019 129.67 65.9508 129.653 65.8941C129.631 65.843 129.608 65.792 129.591 65.7466C129.568 65.7012 129.54 65.6502 129.517 65.6048C129.489 65.5594 129.461 65.514 129.432 65.4686C129.404 65.4232 129.37 65.3835 129.341 65.3381L129.245 65.219C129.211 65.1793 129.177 65.1452 129.137 65.1055C129.097 65.0715 129.063 65.0318 129.024 64.9977C128.984 64.9637 128.944 64.9297 128.904 64.9013C128.865 64.8729 128.819 64.8389 128.78 64.8105C128.734 64.7822 128.694 64.7538 128.649 64.7254C128.604 64.7027 128.558 64.6744 128.513 64.6517C128.468 64.629 128.416 64.6063 128.371 64.5836C128.32 64.5609 128.275 64.5439 128.224 64.5212C128.172 64.5042 128.127 64.4872 128.076 64.4701C128.025 64.4531 127.974 64.4418 127.923 64.4247C127.872 64.4134 127.821 64.4021 127.77 64.385C127.719 64.3737 127.662 64.368 127.611 64.3567C127.56 64.351 127.503 64.3453 127.452 64.334C127.401 64.334 127.344 64.3283 127.293 64.3226C127.236 64.3226 127.185 64.3226 127.128 64.3226C127.049 64.3226 126.969 64.3226 126.884 64.3283C126.805 64.334 126.731 64.3453 126.652 64.351C126.578 64.3623 126.504 64.3737 126.425 64.3907C126.351 64.4077 126.283 64.4247 126.209 64.4418C126.141 64.4645 126.073 64.4872 126.005 64.5042C125.937 64.5325 125.874 64.5552 125.806 64.5836C125.744 64.612 125.681 64.646 125.619 64.6744L125.437 64.7765C125.381 64.8162 125.324 64.8502 125.267 64.89C125.216 64.9297 125.159 64.975 125.108 65.0148C125.057 65.0601 125.006 65.1055 124.961 65.1509L124.819 65.2984C124.774 65.3495 124.734 65.4005 124.688 65.4573C124.649 65.514 124.609 65.5651 124.569 65.6218C124.535 65.6785 124.495 65.7409 124.461 65.7977C124.427 65.8601 124.399 65.9168 124.365 65.9792C124.337 66.0416 124.308 66.104 124.28 66.1721C124.257 66.2402 124.229 66.3026 124.206 66.3707C124.183 66.4387 124.161 66.5068 124.144 66.5749C124.127 66.643 124.11 66.7167 124.093 66.7848C124.081 66.8586 124.064 66.9323 124.053 67.0061L124.025 67.233C124.019 67.3067 124.013 67.3862 124.007 67.4599C124.007 67.5393 124.007 67.6188 124.002 67.6925C124.002 67.7663 124.002 67.8457 124.007 67.9194C124.013 67.9932 124.019 68.0669 124.025 68.1407L124.053 68.3619C124.064 68.4357 124.081 68.5038 124.093 68.5775C124.11 68.6456 124.127 68.7137 124.144 68.7874C124.166 68.8555 124.189 68.9236 124.206 68.9917C124.229 69.0541 124.257 69.1222 124.28 69.1846C124.308 69.247 124.337 69.3094 124.365 69.3718L124.461 69.5533C124.495 69.61 124.535 69.6668 124.569 69.7235C124.609 69.7802 124.649 69.8313 124.688 69.888C124.734 69.9391 124.774 69.9902 124.819 70.0412C124.864 70.0923 124.91 70.1377 124.961 70.1887C125.012 70.2341 125.063 70.2795 125.108 70.3249C125.159 70.3646 125.216 70.41 125.267 70.4497C125.324 70.4894 125.381 70.5234 125.437 70.5631C125.5 70.5972 125.557 70.6312 125.619 70.6653C125.681 70.6936 125.744 70.7277 125.806 70.756C125.874 70.7844 125.937 70.8071 126.005 70.8355C126.073 70.8582 126.141 70.8808 126.209 70.8979C126.283 70.9149 126.351 70.9319 126.425 70.9489C126.499 70.9603 126.572 70.9716 126.652 70.983C126.731 70.9886 126.805 71 126.884 71.0057C126.964 71.0057 127.043 71.0057 127.128 71.0113C127.157 71.0113 127.179 71.0113 127.208 71.0113C127.236 71.0113 127.259 71.0113 127.287 71.0113C127.316 71.0113 127.338 71.0113 127.367 71.0057C127.395 71.0057 127.418 71 127.446 70.9943C127.475 70.9943 127.497 70.9886 127.526 70.983C127.554 70.983 127.577 70.9716 127.605 70.9659C127.633 70.9603 127.656 70.9546 127.684 70.9489C127.713 70.9432 127.736 70.9376 127.764 70.9262C127.792 70.9206 127.815 70.9092 127.843 70.9035C127.866 70.8922 127.894 70.8865 127.917 70.8752C127.94 70.8638 127.968 70.8525 127.991 70.8468L128.065 70.8128C128.065 70.8128 128.116 70.7901 128.138 70.7787C128.161 70.7674 128.189 70.7504 128.212 70.739C128.235 70.722 128.263 70.7106 128.286 70.6936C128.309 70.6766 128.331 70.6596 128.36 70.6482C128.382 70.6312 128.405 70.6142 128.433 70.5972C128.456 70.5802 128.479 70.5631 128.502 70.5404C128.524 70.5234 128.547 70.5007 128.57 70.4837C128.592 70.461 128.615 70.444 128.638 70.4213C128.66 70.3986 128.683 70.3759 128.706 70.3532C128.729 70.3305 128.751 70.3079 128.768 70.2852C128.791 70.2625 128.808 70.2341 128.831 70.2114C128.853 70.183 128.87 70.1603 128.893 70.1433C128.893 70.1547 128.893 70.1603 128.893 70.166C128.893 70.1717 128.893 70.183 128.893 70.1887C128.893 70.2001 128.893 70.2057 128.893 70.2171C128.893 70.2284 128.893 70.2398 128.899 70.2511C128.899 70.2625 128.899 70.2738 128.904 70.2852C128.904 70.2965 128.904 70.3135 128.91 70.3249C128.91 70.3362 128.91 70.3532 128.916 70.3646L128.927 70.41C128.927 70.41 128.933 70.4383 128.938 70.4554C128.938 70.4724 128.944 70.4837 128.95 70.5007C128.95 70.5178 128.956 70.5291 128.961 70.5461C128.961 70.5631 128.967 70.5745 128.973 70.5915C128.973 70.6085 128.978 70.6199 128.984 70.6369C128.984 70.6482 128.984 70.6653 128.99 70.6766C128.99 70.688 128.99 70.705 128.995 70.7163C128.995 70.7277 128.995 70.739 129.001 70.7504C129.001 70.7617 129.001 70.7731 129.007 70.7844C129.007 70.7957 129.007 70.8014 129.007 70.8128C129.007 70.8184 129.007 70.8298 129.007 70.8355C129.007 70.8355 129.007 70.8468 129.012 70.8582C129.018 70.8638 129.024 70.8638 129.029 70.8638H129.114C129.114 70.8638 129.143 70.8638 129.154 70.8638H129.245C129.245 70.8638 129.279 70.8638 129.296 70.8638H129.347C129.347 70.8638 129.381 70.8638 129.404 70.8638H129.517C129.517 70.8638 129.551 70.8638 129.574 70.8638H129.676C129.676 70.8638 129.71 70.8638 129.722 70.8638H129.807C129.807 70.8638 129.829 70.8638 129.841 70.8638H129.909V70.8468C129.909 70.8468 129.909 70.8128 129.909 70.7957V70.7163V70.688Z" fill="black"/>
<path d="M134.897 64.4589C134.403 65.2985 133.909 66.1381 133.416 66.9778C132.916 66.1381 132.423 65.2985 131.923 64.4589C131.396 64.4589 130.868 64.4589 130.34 64.4589C131.123 65.758 131.906 67.0515 132.689 68.3507C132.689 69.179 132.689 70.0072 132.689 70.8355C133.155 70.8355 133.626 70.8355 134.091 70.8355C134.091 70.0186 134.091 69.2017 134.091 68.3904C134.88 67.0799 135.668 65.7694 136.457 64.4589C135.935 64.4589 135.413 64.4589 134.897 64.4589V64.4589Z" fill="black"/>
<path d="M109.929 36.9893C111.598 36.6375 113.272 36.2858 114.934 35.9397C111.172 36.2461 107.404 36.5524 103.637 36.8588C82.386 38.6061 61.1356 40.3535 39.8851 42.1008C50.3997 28.1618 60.9199 14.2227 71.4345 0.283706C51.7899 0.25534 32.1453 0.226974 12.5006 0.198608C21.3186 2.07643 30.1309 3.95426 38.9488 5.83209C25.9659 23.1297 12.9829 40.4272 0 57.7248C36.645 50.8148 73.29 43.8992 109.929 36.9893Z" fill="#E20613"/>
<path d="M53.8894 38.47C55.9946 35.1115 58.0998 31.7586 60.205 28.4001C62.8776 28.4114 65.5559 28.4171 68.2285 28.4285C66.9461 31.492 65.6694 34.5555 64.387 37.619C67.5079 37.3637 70.6288 37.1141 73.7497 36.8588C77.7898 24.6331 81.8356 12.4074 85.8758 0.181641C82.3747 0.204333 78.8793 0.221353 75.3782 0.244046C65.8226 13.1789 56.267 26.1195 46.7057 39.0544C49.1002 38.8558 51.4891 38.6572 53.8837 38.4643L53.8894 38.47ZM75.7868 7.15399C73.5908 12.9804 71.3891 18.8067 69.1932 24.6388H62.9627C67.2355 18.8124 71.514 12.986 75.7868 7.15399Z" fill="black"/>
<path d="M84.4912 18.3528C84.2529 19.1074 84.0146 19.8562 83.7706 20.6108C83.5323 21.354 83.2996 22.0971 83.0613 22.8347C82.8343 23.5552 82.6017 24.2756 82.3747 24.9961C82.1534 25.6883 81.9378 26.3747 81.7165 27.0669C81.5122 27.7136 81.3022 28.3603 81.098 29.0128C80.9107 29.6084 80.7178 30.2041 80.5305 30.7998C80.3603 31.3331 80.1901 31.8664 80.0198 32.3997C79.8723 32.8592 79.7304 33.3187 79.5829 33.7782C79.4637 34.1527 79.3446 34.5271 79.2254 34.9072C79.1346 35.1909 79.0438 35.4689 78.9587 35.7525C78.902 35.9284 78.8452 36.1043 78.7885 36.2801C78.7715 36.3425 78.7488 36.4049 78.7318 36.456C78.7318 36.456 78.7318 36.456 78.7318 36.4617C78.7431 36.4617 78.7545 36.4617 78.7715 36.4617C78.8112 36.4617 78.8509 36.456 78.885 36.4503C78.9474 36.4503 79.0098 36.439 79.0665 36.4333C79.146 36.4276 79.2311 36.4163 79.3105 36.4106C79.4127 36.3993 79.5091 36.3936 79.6113 36.3822C79.7248 36.3709 79.8439 36.3595 79.9574 36.3539C80.0879 36.3425 80.2184 36.3312 80.3489 36.3198C80.4908 36.3085 80.6327 36.2971 80.7745 36.2801C80.9221 36.2688 81.0753 36.2518 81.2228 36.2404C81.3817 36.2291 81.5349 36.212 81.6938 36.2007C81.8526 36.1837 82.0172 36.1723 82.1761 36.1553C82.3406 36.1383 82.5052 36.1269 82.6698 36.1099C82.8343 36.0929 82.9989 36.0816 83.1634 36.0645C83.3223 36.0475 83.4869 36.0362 83.6457 36.0192C83.8046 36.0078 83.9578 35.9908 84.1167 35.9794C84.2643 35.9681 84.4175 35.9511 84.565 35.9397C84.7069 35.9284 84.8487 35.917 84.9906 35.9C85.1211 35.8887 85.2516 35.8773 85.3821 35.866C85.4956 35.8546 85.6148 35.8433 85.7282 35.8319C85.8304 35.8206 85.9268 35.8149 86.029 35.8036C86.1084 35.7979 86.1935 35.7866 86.273 35.7809C86.3354 35.7809 86.3978 35.7695 86.4546 35.7639C86.4943 35.7639 86.534 35.7582 86.568 35.7525C86.5794 35.7525 86.5964 35.7525 86.6078 35.7525C86.6134 35.7298 86.6191 35.7071 86.6248 35.6901C86.6418 35.6277 86.6588 35.5653 86.6815 35.5029C86.7099 35.4065 86.7383 35.3043 86.7723 35.2079C86.812 35.0774 86.8518 34.9469 86.8915 34.8108C86.9369 34.6519 86.9879 34.4874 87.0333 34.3285C87.0901 34.1413 87.1468 33.9541 87.1979 33.7669C87.2603 33.557 87.3227 33.3471 87.3852 33.1428C87.4532 32.9159 87.5213 32.689 87.5894 32.4621C87.6632 32.2181 87.7313 31.9798 87.8051 31.7359C87.8788 31.4806 87.9583 31.231 88.032 30.9757C88.1115 30.7147 88.1852 30.4538 88.2647 30.1928C88.3441 29.9261 88.4236 29.6652 88.503 29.3985C88.5824 29.1319 88.6619 28.8709 88.7413 28.6043C88.8208 28.3433 88.8945 28.0824 88.974 27.8214C89.0477 27.5661 89.1272 27.3165 89.2009 27.0612C89.2747 26.8172 89.3428 26.579 89.4166 26.335C89.4847 26.1081 89.5528 25.8812 89.6209 25.6542C89.6833 25.4443 89.7457 25.2344 89.8081 25.0302C89.8648 24.843 89.9216 24.6558 89.9727 24.4685C90.0181 24.3097 90.0691 24.1452 90.1145 23.9863C90.1542 23.8558 90.194 23.7253 90.2337 23.5892C90.2621 23.4927 90.2904 23.3906 90.3245 23.2942C90.3415 23.2318 90.3585 23.1694 90.3812 23.107C90.3869 23.0843 90.3926 23.0616 90.4039 23.0389C90.4153 23.0389 90.4266 23.0332 90.4323 23.0332L90.472 23.0219C90.472 23.0219 90.506 23.0105 90.5231 23.0049C90.5458 22.9992 90.5685 22.9935 90.5855 22.9878C90.6082 22.9822 90.6366 22.9708 90.6593 22.9651C90.6876 22.9595 90.716 22.9481 90.7444 22.9424C90.7727 22.9311 90.8068 22.9254 90.8352 22.9141L90.9316 22.8857C90.9657 22.8744 90.9997 22.8687 91.0338 22.8574C91.0678 22.846 91.1019 22.8403 91.1359 22.829C91.17 22.8176 91.204 22.8063 91.2437 22.8006C91.2778 22.7893 91.3118 22.7779 91.3515 22.7723C91.3856 22.7609 91.4196 22.7552 91.4537 22.7439C91.4877 22.7325 91.5218 22.7269 91.5558 22.7155C91.5899 22.7042 91.6182 22.6985 91.6523 22.6872L91.7431 22.6588C91.7431 22.6588 91.7998 22.6418 91.8282 22.6361C91.8509 22.6304 91.8792 22.6191 91.9019 22.6134C91.9246 22.6077 91.9473 22.6021 91.9644 22.5964C91.9814 22.5964 91.9984 22.585 92.0154 22.5794C92.0268 22.5794 92.0438 22.5737 92.0551 22.568C92.0608 22.568 92.0722 22.568 92.0835 22.5623C92.0892 22.585 92.0949 22.6021 92.0949 22.6248L92.1176 22.812C92.1289 22.9084 92.1403 23.0105 92.1573 23.107C92.1743 23.2375 92.1913 23.3679 92.2084 23.4984C92.2311 23.6573 92.2481 23.8218 92.2708 23.9806C92.2935 24.1679 92.3162 24.3551 92.3445 24.5423C92.3729 24.7522 92.3956 24.9564 92.424 25.1663L92.5091 25.8471C92.5375 26.0911 92.5715 26.3293 92.5999 26.5733C92.6339 26.8229 92.6623 27.0782 92.6964 27.3278L92.7985 28.1051C92.8325 28.366 92.8666 28.6327 92.9006 28.8936C92.9347 29.1546 92.9687 29.4212 93.0028 29.6822L93.1049 30.4594C93.139 30.709 93.1673 30.9643 93.2014 31.214C93.2297 31.4579 93.2638 31.6962 93.2922 31.9401L93.3773 32.6209C93.4056 32.8308 93.4283 33.0351 93.4567 33.245C93.4794 33.4322 93.5021 33.6194 93.5305 33.8066C93.5532 33.9655 93.5702 34.13 93.5929 34.2888C93.6099 34.4193 93.6269 34.5498 93.644 34.6803C93.6553 34.7767 93.6667 34.8788 93.6837 34.9753C93.6894 35.0377 93.7007 35.1001 93.7064 35.1625C93.7064 35.1852 93.7064 35.2079 93.7121 35.2249C93.7234 35.2249 93.7404 35.2249 93.7518 35.2249C93.7915 35.2249 93.8255 35.2192 93.8653 35.2136C93.9277 35.2136 93.9844 35.2022 94.0469 35.1965C94.1263 35.1909 94.2057 35.1852 94.2852 35.1795C94.3816 35.1738 94.4781 35.1625 94.5802 35.1568C94.6937 35.1455 94.8072 35.1398 94.9207 35.1285L95.3009 35.1001C95.4371 35.0888 95.5789 35.0774 95.7151 35.0661C95.8626 35.0547 96.0102 35.0434 96.152 35.032C96.3052 35.0207 96.4585 35.0093 96.6117 34.9923C96.7705 34.981 96.9294 34.9639 97.0826 34.9526L97.565 34.9129L98.0473 34.8732C98.2062 34.8618 98.365 34.8448 98.5182 34.8335C98.6715 34.8221 98.8247 34.8108 98.9779 34.7937C99.1254 34.7824 99.2729 34.7711 99.4148 34.7597C99.551 34.7484 99.6928 34.737 99.829 34.7257L100.209 34.6973C100.323 34.686 100.436 34.6803 100.55 34.6689C100.646 34.6633 100.743 34.6519 100.845 34.6462C100.924 34.6406 101.004 34.6349 101.083 34.6292C101.145 34.6292 101.202 34.6179 101.265 34.6122C101.304 34.6122 101.338 34.6065 101.378 34.6009C101.389 34.6009 101.406 34.6009 101.418 34.6009L101.407 34.5271C101.395 34.4534 101.389 34.3853 101.378 34.3115C101.361 34.1981 101.35 34.0846 101.333 33.9655L101.276 33.5059C101.253 33.3187 101.231 33.1315 101.208 32.9443C101.18 32.7287 101.151 32.5074 101.128 32.2919C101.1 32.0479 101.066 31.804 101.038 31.56C101.004 31.2934 100.97 31.0324 100.941 30.7658C100.907 30.4821 100.873 30.2041 100.833 29.9205C100.799 29.6255 100.76 29.3305 100.726 29.0355C100.686 28.7348 100.652 28.4284 100.612 28.1277C100.572 27.8214 100.533 27.515 100.499 27.203L100.385 26.2783C100.345 25.9776 100.311 25.6713 100.272 25.3706C100.238 25.0756 100.198 24.7806 100.164 24.4856C100.13 24.2019 100.096 23.9239 100.056 23.6402C100.022 23.3736 99.9879 23.1126 99.9595 22.846C99.9312 22.6021 99.8971 22.3581 99.8687 22.1142L99.7893 21.4617C99.7666 21.2745 99.7439 21.0873 99.7212 20.9001L99.6645 20.4406C99.6474 20.3271 99.6361 20.2136 99.6191 20.0945C99.6077 20.0208 99.602 19.9527 99.5907 19.8789C99.5907 19.8562 99.585 19.8279 99.5794 19.8052C99.5907 19.8052 99.602 19.7938 99.6077 19.7882C99.6361 19.7711 99.6701 19.7598 99.6985 19.7428C99.7496 19.7201 99.795 19.6917 99.8461 19.669C99.9141 19.635 99.9766 19.6009 100.045 19.5669C100.124 19.5215 100.209 19.4761 100.289 19.4307L100.578 19.2662L100.901 19.0733C101.021 18.9996 101.14 18.9258 101.265 18.8521C101.395 18.767 101.526 18.6876 101.656 18.6025C101.798 18.5117 101.934 18.4152 102.076 18.3245C102.224 18.2224 102.371 18.1202 102.519 18.0181L102.978 17.6834C103.137 17.5643 103.296 17.4395 103.449 17.3203C103.608 17.1898 103.773 17.0593 103.932 16.9289C104.096 16.787 104.255 16.6509 104.42 16.509C104.584 16.3615 104.749 16.214 104.908 16.0665C105.072 15.9077 105.231 15.7545 105.396 15.5957C105.554 15.4311 105.719 15.2609 105.878 15.0964C106.037 14.9206 106.19 14.7447 106.349 14.5745C106.502 14.3929 106.655 14.2057 106.808 14.0242C106.956 13.8313 107.098 13.6384 107.245 13.4455C107.382 13.247 107.523 13.0427 107.66 12.8442C107.79 12.6343 107.921 12.4244 108.046 12.2144C108.165 11.9989 108.284 11.7776 108.403 11.562C108.403 11.5564 108.409 11.5507 108.414 11.5393L108.448 11.4769C108.465 11.4429 108.482 11.4088 108.499 11.3748C108.522 11.3294 108.539 11.284 108.562 11.2387C108.585 11.1819 108.613 11.1252 108.636 11.0628C108.664 10.9947 108.692 10.9266 108.715 10.8585C108.743 10.7791 108.772 10.6997 108.8 10.6203C108.829 10.5295 108.857 10.4444 108.885 10.3536C108.914 10.2572 108.942 10.1551 108.97 10.0586C108.999 9.95084 109.021 9.84305 109.05 9.74093C109.073 9.62747 109.095 9.514 109.118 9.40054C109.135 9.2814 109.158 9.15659 109.175 9.03745C109.192 8.90697 109.203 8.78216 109.22 8.65168C109.226 8.51552 109.237 8.38504 109.243 8.24888C109.243 8.11272 109.243 7.97089 109.243 7.83474C109.237 7.69291 109.226 7.55108 109.22 7.40357C109.203 7.25607 109.186 7.10857 109.169 6.96107C109.141 6.81356 109.112 6.66039 109.09 6.51288C109.05 6.35971 109.01 6.20653 108.97 6.05335C108.919 5.90018 108.868 5.747 108.817 5.58815C108.749 5.43498 108.687 5.27613 108.619 5.12295C108.539 4.96977 108.46 4.81093 108.375 4.65775C108.278 4.50457 108.182 4.34572 108.085 4.19255C107.972 4.03937 107.858 3.88052 107.745 3.72735C107.745 3.72167 107.739 3.716 107.733 3.71033C107.722 3.69331 107.711 3.67629 107.699 3.65927C107.677 3.6309 107.66 3.60254 107.637 3.57984C107.609 3.5458 107.58 3.50609 107.552 3.47205C107.512 3.42667 107.478 3.38128 107.438 3.3359C107.393 3.28484 107.348 3.23378 107.296 3.18272C107.24 3.12599 107.183 3.06926 107.132 3.00685C107.07 2.94445 107.001 2.88204 106.939 2.81964C106.865 2.75156 106.791 2.68348 106.718 2.62107C106.633 2.553 106.547 2.47924 106.462 2.41117C106.366 2.33741 106.275 2.26934 106.179 2.19558C106.076 2.12183 105.969 2.04808 105.867 1.97433C105.753 1.90058 105.634 1.82683 105.52 1.75308C105.396 1.67932 105.271 1.61125 105.14 1.53749C105.004 1.46942 104.868 1.39566 104.732 1.32759C104.584 1.25951 104.437 1.19143 104.289 1.12902C104.13 1.06662 103.971 1.00421 103.812 0.941809C103.642 0.885077 103.472 0.828345 103.302 0.76594C103.12 0.714881 102.939 0.663822 102.757 0.612764C102.564 0.567378 102.371 0.521993 102.173 0.476607C101.968 0.442568 101.758 0.402856 101.554 0.368816C101.333 0.340451 101.117 0.312085 100.896 0.289392C100.663 0.272372 100.431 0.255353 100.204 0.238333C99.9595 0.23266 99.7155 0.226987 99.4715 0.221313H99.4545C99.4545 0.221313 99.4432 0.221313 99.4318 0.221313C99.4205 0.221313 99.4205 0.221313 99.4091 0.221313C99.3978 0.221313 99.3978 0.221313 99.3864 0.221313C99.3751 0.221313 99.3751 0.221313 99.3637 0.221313C99.3524 0.221313 99.3524 0.221313 99.341 0.221313H99.3183C99.3183 0.221313 99.307 0.221313 99.2956 0.221313C99.2729 0.221313 99.2559 0.221313 99.2446 0.221313C99.1992 0.221313 99.1538 0.221313 99.1141 0.221313H98.9041C98.8076 0.221313 98.7169 0.221313 98.6204 0.221313C98.5069 0.221313 98.3934 0.221313 98.2743 0.221313H97.877C97.7295 0.221313 97.582 0.221313 97.4288 0.221313C97.2642 0.221313 97.1053 0.221313 96.9408 0.221313C96.7705 0.221313 96.5946 0.221313 96.4244 0.221313C96.2428 0.221313 96.0612 0.221313 95.8853 0.221313C95.6981 0.221313 95.5165 0.221313 95.3293 0.221313C95.142 0.221313 94.9547 0.221313 94.7675 0.221313C94.5802 0.221313 94.393 0.221313 94.2057 0.221313C94.0185 0.221313 93.8369 0.221313 93.6496 0.221313H93.1106C92.9403 0.221313 92.7644 0.221313 92.5942 0.221313C92.4297 0.221313 92.2708 0.221313 92.1062 0.221313C91.9587 0.221313 91.8112 0.221313 91.6579 0.221313C91.5274 0.221313 91.3913 0.221313 91.2607 0.221313C91.1473 0.221313 91.0338 0.221313 90.9146 0.221313C90.8181 0.221313 90.7274 0.221313 90.6309 0.221313C90.5628 0.221313 90.489 0.221313 90.4209 0.221313H90.2904C90.2904 0.221313 90.262 0.221313 90.245 0.221313C90.228 0.283719 90.2053 0.346124 90.1883 0.402856C90.1315 0.578725 90.0748 0.754594 90.0181 0.930462L89.7514 1.77577C89.6322 2.1502 89.513 2.52463 89.3939 2.90473C89.2463 3.36426 89.1045 3.82379 88.957 4.28332C88.7867 4.8166 88.6165 5.34988 88.4463 5.88316L87.8788 7.67021C87.6745 8.31696 87.4646 8.9637 87.2603 9.61612C87.039 10.3082 86.8234 10.9947 86.6021 11.6868C86.3751 12.4073 86.1425 13.1278 85.9155 13.8483C85.6772 14.5915 85.4445 15.3347 85.2062 16.0722L84.4856 18.3301L84.4912 18.3528ZM91.8168 18.0862C91.8338 18.0181 91.8565 17.95 91.8736 17.882C91.9076 17.7742 91.936 17.6664 91.97 17.5529C92.0098 17.4054 92.0552 17.2636 92.0949 17.1161L92.2481 16.5828C92.3105 16.3786 92.3672 16.1687 92.4297 15.9644C92.4977 15.7318 92.5658 15.5049 92.6283 15.2723C92.702 15.0227 92.7758 14.7731 92.8439 14.5178C92.9233 14.2511 92.9971 13.9845 93.0765 13.7178L93.3205 12.8782C93.4057 12.5889 93.4851 12.3052 93.5702 12.0159C93.6553 11.7265 93.7404 11.4315 93.8256 11.1422C93.9107 10.8529 93.9958 10.5579 94.0809 10.2685C94.166 9.9792 94.2455 9.69554 94.3306 9.40621L94.5746 8.56658C94.654 8.29994 94.7278 8.0333 94.8072 7.76666C94.881 7.51704 94.9548 7.26742 95.0228 7.01212C95.0909 6.77952 95.159 6.5526 95.2214 6.32C95.2839 6.11576 95.3406 5.90585 95.403 5.70162L95.5562 5.16834C95.5959 5.02083 95.6413 4.879 95.6811 4.7315C95.7151 4.62371 95.7435 4.51592 95.7775 4.40246C95.7946 4.33438 95.8173 4.2663 95.8343 4.19822C95.8399 4.17553 95.8456 4.15284 95.857 4.12447C95.9761 4.12447 96.0953 4.13014 96.2145 4.13582C96.3279 4.14149 96.4414 4.14716 96.5549 4.15284C96.6627 4.16418 96.7705 4.16986 96.8784 4.1812C96.9805 4.19255 97.0826 4.20389 97.1848 4.21524C97.2812 4.23226 97.3777 4.24361 97.4742 4.26063C97.565 4.27765 97.6557 4.29467 97.7522 4.31169C97.8373 4.3287 97.9281 4.34572 98.0132 4.36842C98.0927 4.38544 98.1778 4.40813 98.2572 4.42515C98.331 4.44784 98.4104 4.46486 98.4842 4.48755C98.5523 4.51025 98.6261 4.53294 98.6998 4.54996C98.7679 4.57265 98.8303 4.59534 98.8984 4.61804C98.9608 4.64073 99.0176 4.66342 99.08 4.68612C99.1368 4.70881 99.1935 4.7315 99.2446 4.75419L99.3978 4.82227C99.4432 4.84496 99.4886 4.86766 99.534 4.88468C99.5737 4.90737 99.6134 4.92439 99.6531 4.94708C99.6872 4.9641 99.7269 4.98679 99.7609 5.00381C99.7893 5.02083 99.8234 5.03785 99.8517 5.05487C99.8801 5.07189 99.9028 5.08891 99.9312 5.10026C99.9539 5.1116 99.9709 5.12862 99.9936 5.13997L100.045 5.17401C100.045 5.17401 100.067 5.19103 100.079 5.1967C100.084 5.1967 100.09 5.20805 100.101 5.21372C100.215 5.31584 100.323 5.41796 100.431 5.5144C100.521 5.61652 100.612 5.72431 100.709 5.82643L100.941 6.1498C101.004 6.26326 101.066 6.37105 101.128 6.48452C101.18 6.59798 101.225 6.71144 101.276 6.82491C101.316 6.93837 101.35 7.05751 101.389 7.17097C101.418 7.29011 101.441 7.40357 101.469 7.52271L101.514 7.87445C101.52 7.98791 101.526 8.10705 101.531 8.22051C101.531 8.33398 101.531 8.44744 101.531 8.56658C101.526 8.68004 101.514 8.79351 101.509 8.9013C101.492 9.00909 101.48 9.11688 101.463 9.23034C101.446 9.33246 101.424 9.44025 101.407 9.54237C101.384 9.64449 101.361 9.74093 101.338 9.84305C101.31 9.93949 101.287 10.0303 101.259 10.1267C101.231 10.2118 101.202 10.3026 101.174 10.3877C101.145 10.4671 101.117 10.5465 101.089 10.6316C101.06 10.7054 101.032 10.7791 101.004 10.8472C100.975 10.9096 100.953 10.972 100.924 11.0401C100.901 11.0911 100.879 11.1479 100.85 11.1989C100.828 11.2443 100.811 11.284 100.788 11.3294C100.771 11.3635 100.754 11.3918 100.743 11.4259C100.731 11.4429 100.72 11.4656 100.714 11.4826C100.714 11.4883 100.709 11.4939 100.703 11.5053C100.584 11.7152 100.465 11.9251 100.351 12.135L99.9652 12.725C99.829 12.9066 99.6872 13.0938 99.551 13.2753C99.4034 13.4455 99.2559 13.6214 99.1141 13.7916C98.9608 13.9504 98.8076 14.115 98.6544 14.2738C98.4956 14.4213 98.3367 14.5745 98.1835 14.722L97.7011 15.1361C97.5366 15.2666 97.372 15.3914 97.2075 15.5219L96.7138 15.8737C96.5492 15.9814 96.3847 16.0892 96.2201 16.197C96.0556 16.2935 95.8967 16.3956 95.7321 16.492C95.5733 16.5828 95.4144 16.6679 95.2555 16.7587L94.7902 16.9969C94.6427 17.0707 94.4951 17.1388 94.3419 17.2125C94.2001 17.2749 94.0582 17.3373 93.9163 17.3997C93.7858 17.4565 93.6496 17.5075 93.5191 17.5643C93.3943 17.6096 93.2751 17.6607 93.1503 17.7061C93.0425 17.7458 92.929 17.7855 92.8212 17.8252C92.7247 17.8593 92.6283 17.8933 92.5318 17.9217C92.4467 17.95 92.3672 17.9727 92.2821 18.0011C92.214 18.0181 92.1459 18.0408 92.0835 18.0578C92.0325 18.0692 91.9871 18.0862 91.936 18.0975C91.9076 18.1032 91.8736 18.1146 91.8452 18.1202C91.8339 18.1202 91.8225 18.1202 91.8112 18.1259C91.8168 18.1032 91.8225 18.0805 91.8338 18.0522L91.8168 18.0862Z" fill="black"/>
<path d="M147 1.27652C146.977 1.03825 146.955 0.794299 146.932 0.556025C146.932 0.556025 146.926 0.561698 146.921 0.567371C146.909 0.578717 146.904 0.590064 146.892 0.60141L146.847 0.652469C146.847 0.652469 146.807 0.697854 146.784 0.72622C146.756 0.754586 146.733 0.788626 146.705 0.816991L146.614 0.924782C146.58 0.964494 146.54 1.00421 146.506 1.04392C146.467 1.0893 146.427 1.13469 146.387 1.1744C146.342 1.21979 146.296 1.27085 146.251 1.31623C146.2 1.36729 146.155 1.41835 146.103 1.46941C146.052 1.52614 145.996 1.5772 145.945 1.63393C145.888 1.69066 145.831 1.7474 145.774 1.80413C145.712 1.86086 145.655 1.92326 145.593 1.98C145.53 2.0424 145.468 2.09913 145.4 2.16154C145.332 2.22394 145.264 2.28068 145.201 2.34308C145.133 2.40549 145.059 2.46789 144.991 2.52462C144.918 2.58703 144.849 2.64943 144.776 2.70616C144.702 2.76857 144.628 2.8253 144.554 2.88771C144.475 2.94444 144.401 3.00684 144.322 3.06358C144.242 3.12031 144.163 3.17704 144.083 3.23944C144.004 3.29618 143.924 3.35291 143.839 3.40964C143.76 3.4607 143.675 3.51743 143.595 3.56849C143.51 3.61955 143.431 3.67061 143.346 3.72167C143.261 3.76705 143.175 3.81811 143.09 3.8635H143.085C143.085 3.8635 143.068 3.87484 143.062 3.88052C143.051 3.88619 143.034 3.89753 143.022 3.90321L142.966 3.93157L142.897 3.96561L142.818 4.00533C142.79 4.02235 142.756 4.03936 142.727 4.05071C142.693 4.06773 142.659 4.08475 142.625 4.10177C142.585 4.11879 142.551 4.14148 142.512 4.1585C142.472 4.17552 142.432 4.19821 142.392 4.21523C142.347 4.23793 142.307 4.25495 142.262 4.27764C142.217 4.30033 142.171 4.32302 142.126 4.34004C142.08 4.36274 142.029 4.38543 141.984 4.40245L141.836 4.47053C141.785 4.49322 141.734 4.51591 141.683 4.53861C141.632 4.5613 141.581 4.58399 141.524 4.60668C141.473 4.62938 141.416 4.65207 141.365 4.66909C141.314 4.69178 141.258 4.7088 141.206 4.73149C141.15 4.74851 141.099 4.77121 141.042 4.78823C140.985 4.80525 140.934 4.82794 140.877 4.84496C140.826 4.86198 140.77 4.879 140.718 4.89602C140.667 4.91304 140.611 4.93006 140.56 4.9414C140.509 4.95275 140.457 4.96977 140.401 4.98111C140.35 4.99246 140.299 5.00381 140.248 5.01515C140.248 5.01515 140.242 5.00381 140.236 5.00381C140.225 4.99246 140.213 4.97544 140.202 4.96409C140.185 4.9414 140.168 4.91871 140.145 4.90169C140.123 4.87332 140.094 4.84496 140.072 4.81659C140.038 4.78255 140.009 4.74284 139.975 4.7088C139.935 4.66909 139.896 4.6237 139.856 4.58399C139.811 4.53861 139.76 4.48755 139.714 4.44216C139.657 4.3911 139.606 4.34004 139.55 4.28331C139.487 4.22658 139.425 4.16985 139.362 4.11312C139.294 4.05071 139.226 3.99398 139.152 3.93157C139.073 3.86917 138.999 3.80109 138.92 3.73869C138.835 3.67061 138.749 3.6082 138.67 3.54012C138.579 3.47205 138.488 3.40397 138.398 3.33589C138.301 3.26781 138.199 3.19406 138.103 3.12598C137.995 3.0579 137.887 2.98415 137.785 2.91607C137.671 2.84799 137.558 2.77424 137.444 2.70616L137.081 2.49626C136.951 2.42818 136.82 2.3601 136.695 2.29202C136.559 2.22394 136.423 2.15586 136.287 2.08779C136.145 2.02538 135.997 1.9573 135.856 1.8949C135.702 1.83249 135.549 1.77009 135.396 1.70768C135.237 1.65095 135.078 1.58855 134.914 1.53181C134.743 1.47508 134.579 1.42402 134.409 1.36729C134.233 1.31623 134.057 1.27085 133.881 1.21979C133.881 1.21979 133.87 1.21979 133.864 1.21411C133.847 1.20844 133.83 1.20277 133.813 1.1971C133.784 1.18575 133.756 1.18008 133.728 1.16873L133.609 1.12902C133.557 1.112 133.506 1.10065 133.455 1.08363L133.268 1.0269C133.194 1.00421 133.121 0.987187 133.047 0.964494L132.791 0.896416C132.695 0.873723 132.598 0.851031 132.502 0.828338L132.179 0.754586C132.059 0.731894 131.94 0.703528 131.821 0.680835C131.691 0.652469 131.56 0.629776 131.424 0.60141C131.282 0.578717 131.134 0.550351 130.993 0.521985C130.839 0.499293 130.681 0.470927 130.527 0.448234C130.363 0.425541 130.193 0.397175 130.028 0.374482C129.846 0.35179 129.67 0.329097 129.489 0.306404L128.916 0.238326L128.309 0.175921C128.093 0.158901 127.877 0.141882 127.662 0.119189C127.435 0.102169 127.208 0.0908229 126.981 0.0738033C126.743 0.0624569 126.504 0.0511105 126.266 0.034091C126.016 0.0227446 125.761 0.0170714 125.511 0.00572499L124.722 -0.0112946C124.444 -0.0112946 124.172 -0.0112946 123.894 -0.0169678C123.866 -0.0169678 123.832 -0.0169678 123.803 -0.0169678C123.775 -0.0169678 123.741 -0.0169678 123.712 -0.0169678C123.684 -0.0169678 123.65 -0.0169678 123.622 -0.0169678C123.593 -0.0169678 123.559 -0.0169678 123.531 -0.0169678C123.502 -0.0169678 123.468 -0.0169678 123.44 -0.0169678C123.412 -0.0169678 123.378 -0.0169678 123.349 -0.0169678C123.321 -0.0169678 123.287 -0.0169678 123.258 -0.0169678C123.23 -0.0169678 123.196 -0.0169678 123.168 -0.0169678C123.134 -0.0169678 123.105 -0.0169678 123.071 -0.0169678C123.037 -0.0169678 123.009 -0.0169678 122.975 -0.0169678C122.941 -0.0169678 122.912 -0.0169678 122.878 -0.0169678C122.844 -0.0169678 122.816 -0.0169678 122.782 -0.0169678C122.748 -0.0169678 122.719 -0.0169678 122.685 -0.0169678C122.651 -0.0169678 122.623 -0.0169678 122.589 -0.0169678C122.555 -0.0169678 122.526 -0.0169678 122.492 -0.0169678C122.458 -0.0169678 122.43 -0.0169678 122.396 -0.0169678C122.362 -0.0169678 122.334 -0.0169678 122.299 -0.0169678C122.265 -0.0169678 122.237 -0.0169678 122.203 -0.0169678C122.169 -0.0169678 122.135 -0.0169678 122.107 -0.0169678H122.01C121.976 -0.0169678 121.942 -0.0169678 121.914 -0.0112946C121.88 -0.0112946 121.846 -0.0112946 121.817 -0.0112946C121.783 -0.0112946 121.749 -0.0112946 121.715 -0.0112946C121.681 -0.0112946 121.647 -0.0112946 121.613 -0.0112946C121.602 -0.0112946 121.596 -0.0112946 121.585 -0.0112946C121.556 -0.0112946 121.533 -0.0112946 121.505 -0.0112946C121.465 -0.0112946 121.426 -0.0112946 121.38 -0.0112946H121.216C121.148 -0.0112946 121.08 -0.0112946 121.011 -0.0112946C120.932 -0.0112946 120.858 -0.0112946 120.779 -0.0112946C120.694 -0.0112946 120.603 -0.0112946 120.518 -0.0112946C120.421 -0.0112946 120.33 -0.0112946 120.234 -0.0112946C120.132 -0.0112946 120.03 -0.0112946 119.933 -0.0112946C119.825 -0.0112946 119.723 -0.0112946 119.616 -0.0112946C119.508 -0.0112946 119.4 -0.0112946 119.292 -0.0112946C119.184 -0.0112946 119.071 -0.0112946 118.963 -0.0112946C118.855 -0.0112946 118.742 -0.0112946 118.634 -0.0112946C118.526 -0.0112946 118.418 -0.0112946 118.31 -0.0112946C118.203 -0.0112946 118.1 -0.0112946 117.993 -0.0112946C117.891 -0.0112946 117.788 -0.0112946 117.692 -0.0112946C117.595 -0.0112946 117.505 -0.0112946 117.408 -0.0112946C117.323 -0.0112946 117.232 -0.0112946 117.147 -0.0112946C117.068 -0.0112946 116.994 -0.0112946 116.915 -0.0112946C116.846 -0.0112946 116.778 -0.0112946 116.71 -0.0112946H116.546C116.506 -0.0112946 116.466 -0.0112946 116.421 -0.0112946C116.392 -0.0112946 116.37 -0.0112946 116.341 -0.0112946C116.33 -0.0112946 116.324 -0.0112946 116.313 -0.0112946C116.29 0.0454373 116.273 0.102169 116.251 0.164574C116.194 0.329097 116.137 0.499293 116.08 0.663815C115.99 0.930455 115.899 1.1971 115.808 1.46374C115.683 1.82115 115.564 2.17288 115.439 2.5303C115.292 2.96713 115.138 3.40397 114.991 3.83513C114.815 4.34004 114.645 4.84496 114.469 5.34987C114.276 5.91719 114.083 6.47884 113.884 7.04616C113.674 7.65886 113.459 8.27724 113.249 8.88994C113.022 9.54236 112.801 10.2005 112.574 10.8529C112.341 11.5393 112.103 12.2201 111.87 12.9066C111.626 13.61 111.388 14.3135 111.144 15.017C110.9 15.7318 110.65 16.4466 110.406 17.1558C110.162 17.8706 109.912 18.5854 109.668 19.2946C109.424 19.9981 109.186 20.7015 108.942 21.405C108.709 22.0915 108.471 22.7722 108.238 23.4587C108.011 24.1111 107.79 24.7692 107.563 25.4216C107.353 26.0343 107.143 26.6527 106.928 27.2654C106.735 27.8327 106.542 28.3944 106.343 28.9617C106.167 29.4666 105.997 29.9715 105.821 30.4764C105.674 30.9133 105.52 31.3501 105.373 31.7813C105.248 32.1387 105.129 32.4904 105.004 32.8478C104.913 33.1145 104.822 33.3811 104.732 33.6478C104.675 33.8123 104.618 33.9825 104.561 34.147C104.539 34.2037 104.522 34.2605 104.499 34.3229C104.51 34.3229 104.522 34.3229 104.533 34.3229C104.567 34.3229 104.595 34.3229 104.63 34.3172C104.681 34.3172 104.732 34.3115 104.783 34.3058C104.851 34.3058 104.919 34.2945 104.987 34.2888C105.072 34.2832 105.152 34.2775 105.237 34.2661C105.333 34.2605 105.43 34.2491 105.526 34.2434C105.634 34.2321 105.742 34.2264 105.85 34.2151C105.969 34.2037 106.082 34.1981 106.201 34.1867C106.326 34.1754 106.451 34.164 106.576 34.1583C106.706 34.147 106.837 34.1356 106.967 34.1243C107.104 34.113 107.234 34.1016 107.37 34.0903L107.779 34.0562L108.187 34.0222C108.324 34.0108 108.454 33.9995 108.59 33.9881C108.721 33.9768 108.851 33.9655 108.982 33.9541C109.107 33.9428 109.231 33.9314 109.356 33.9257C109.475 33.9144 109.589 33.9087 109.708 33.8974C109.816 33.886 109.924 33.8804 110.032 33.869C110.128 33.8633 110.224 33.852 110.321 33.8463C110.406 33.8406 110.485 33.835 110.571 33.8236C110.639 33.8236 110.707 33.8123 110.775 33.8066C110.826 33.8066 110.877 33.8009 110.928 33.7953C110.962 33.7953 110.99 33.7953 111.025 33.7896C111.036 33.7896 111.047 33.7896 111.059 33.7896C111.076 33.7385 111.093 33.6931 111.11 33.6421L111.263 33.2166C111.342 32.9897 111.427 32.7684 111.507 32.5415C111.615 32.2408 111.722 31.9401 111.83 31.6394C111.961 31.2707 112.097 30.9019 112.228 30.5332C112.381 30.1077 112.534 29.6822 112.687 29.251C112.857 28.7745 113.028 28.2979 113.203 27.8214C113.391 27.3051 113.578 26.7832 113.765 26.2669C113.964 25.7166 114.162 25.1607 114.361 24.6104C114.571 24.0317 114.775 23.453 114.985 22.8744C115.201 22.2787 115.411 21.683 115.626 21.093C115.842 20.4916 116.058 19.8846 116.273 19.2832C116.489 18.6819 116.705 18.0748 116.92 17.4735C117.136 16.8778 117.346 16.2821 117.561 15.6921C117.771 15.1134 117.976 14.5348 118.186 13.9561C118.384 13.4058 118.583 12.8498 118.781 12.2995L119.343 10.7451C119.513 10.2685 119.684 9.79198 119.86 9.31543C120.013 8.88994 120.166 8.46445 120.319 8.03329C120.45 7.66453 120.586 7.29578 120.716 6.92702C120.824 6.62634 120.932 6.32566 121.04 6.02498C121.119 5.79805 121.204 5.5768 121.284 5.34987C121.335 5.20804 121.386 5.06621 121.437 4.92438C121.454 4.87332 121.471 4.82794 121.488 4.77688C121.499 4.77688 121.516 4.77688 121.528 4.77121L121.641 4.74851C121.704 4.73717 121.766 4.73149 121.829 4.72015C121.914 4.7088 121.999 4.69745 122.084 4.68611C122.192 4.67476 122.294 4.66342 122.402 4.6464C122.526 4.63505 122.651 4.6237 122.776 4.61236C122.918 4.60101 123.06 4.58966 123.202 4.58399C123.361 4.57832 123.519 4.56697 123.678 4.5613C123.849 4.5613 124.024 4.55563 124.195 4.54995H124.751C124.949 4.56697 125.148 4.57264 125.347 4.58399L125.971 4.63505C126.186 4.65774 126.402 4.68611 126.623 4.7088C126.845 4.74284 127.072 4.78255 127.293 4.81659L127.98 4.95842C128.212 5.01515 128.445 5.07756 128.683 5.13429C128.921 5.20804 129.154 5.28179 129.392 5.35554C129.631 5.44632 129.869 5.53141 130.107 5.62218C130.346 5.7243 130.584 5.83209 130.817 5.93421C131.049 6.05335 131.288 6.17816 131.52 6.2973C131.753 6.43912 131.986 6.57528 132.218 6.71711C132.445 6.87596 132.672 7.03481 132.899 7.19933C133.121 7.38087 133.342 7.56242 133.563 7.74396C133.773 7.94819 133.989 8.15243 134.199 8.35666H134.187H134.148C134.148 8.35666 134.108 8.37368 134.085 8.37936C134.057 8.38503 134.028 8.3907 134 8.40205C133.966 8.4134 133.932 8.41907 133.892 8.43041C133.852 8.44176 133.807 8.45311 133.767 8.46445C133.722 8.4758 133.671 8.49282 133.626 8.50417C133.574 8.52119 133.518 8.53821 133.467 8.55523C133.41 8.57224 133.347 8.59494 133.291 8.61196C133.228 8.63465 133.166 8.65734 133.098 8.67436C133.03 8.69706 132.962 8.72542 132.894 8.74811C132.82 8.77648 132.752 8.80485 132.678 8.82754C132.604 8.8559 132.53 8.88994 132.457 8.91831C132.377 8.95235 132.303 8.98639 132.224 9.01475C132.145 9.04879 132.065 9.08851 131.986 9.12255C131.906 9.16226 131.821 9.20197 131.742 9.24168C131.657 9.28707 131.577 9.32678 131.492 9.37217C131.407 9.41755 131.327 9.46294 131.242 9.50832C131.157 9.55938 131.072 9.61044 130.993 9.65583C130.908 9.70688 130.822 9.76362 130.743 9.81467C130.658 9.87141 130.578 9.92814 130.493 9.98487C130.414 10.0473 130.329 10.104 130.249 10.1664C130.17 10.2288 130.09 10.2969 130.005 10.3593C129.926 10.4274 129.846 10.4955 129.767 10.5635C129.767 10.5635 129.756 10.5692 129.756 10.5749C129.744 10.5862 129.733 10.5976 129.716 10.6032C129.699 10.6203 129.676 10.6373 129.659 10.6543L129.58 10.7224C129.546 10.7508 129.517 10.7848 129.483 10.8132L129.375 10.9209L129.256 11.0458C129.211 11.0911 129.171 11.1422 129.126 11.1876C129.08 11.2386 129.035 11.2954 128.99 11.3464C128.944 11.4032 128.899 11.4656 128.848 11.5223L128.706 11.7152C128.66 11.7833 128.615 11.8514 128.564 11.9194C128.519 11.9932 128.473 12.0669 128.428 12.1407C128.382 12.2201 128.343 12.2995 128.297 12.3733C128.258 12.4584 128.218 12.5378 128.178 12.6229C128.144 12.708 128.104 12.7988 128.07 12.8839C128.036 12.9746 128.008 13.0654 127.974 13.1562C127.945 13.2526 127.923 13.3434 127.894 13.4398C127.877 13.5363 127.855 13.6384 127.838 13.7348C127.826 13.837 127.815 13.9391 127.798 14.0412C127.798 14.1433 127.787 14.2511 127.787 14.3532C127.787 14.461 127.798 14.5688 127.798 14.6766C127.815 14.7844 127.826 14.8979 127.843 15.0056C127.866 15.1191 127.894 15.2326 127.917 15.346V15.3574C127.917 15.3687 127.917 15.3857 127.923 15.3971C127.923 15.4198 127.928 15.4368 127.934 15.4595C127.94 15.4879 127.945 15.5162 127.957 15.5446C127.968 15.5786 127.974 15.6127 127.985 15.6467C127.997 15.6864 128.014 15.7261 128.025 15.7602C128.042 15.8056 128.059 15.8453 128.076 15.8907C128.099 15.936 128.121 15.9814 128.144 16.0268C128.172 16.0779 128.201 16.1233 128.229 16.1743C128.263 16.2254 128.297 16.2764 128.331 16.3275C128.371 16.3786 128.411 16.4296 128.45 16.4807L128.592 16.6339C128.649 16.6849 128.7 16.736 128.757 16.787C128.819 16.8381 128.882 16.8835 128.944 16.9345C129.012 16.9799 129.086 17.0253 129.154 17.0707C129.234 17.1104 129.313 17.1558 129.392 17.1955C129.483 17.2352 129.568 17.2692 129.659 17.309C129.756 17.343 129.858 17.377 129.954 17.4054C130.062 17.4338 130.176 17.4565 130.283 17.4848C130.402 17.5075 130.527 17.5245 130.646 17.5472C130.777 17.5586 130.913 17.5699 131.044 17.5813C131.191 17.5813 131.333 17.5869 131.481 17.5926C131.639 17.5869 131.798 17.5813 131.952 17.5756C132.122 17.5586 132.292 17.5416 132.462 17.5245C132.462 17.5245 132.474 17.5245 132.479 17.5245C132.496 17.5245 132.508 17.5245 132.525 17.5245C132.547 17.5245 132.57 17.5245 132.593 17.5189C132.621 17.5189 132.655 17.5132 132.684 17.5075C132.723 17.5075 132.763 17.4962 132.797 17.4905C132.842 17.4848 132.888 17.4792 132.933 17.4678C132.984 17.4621 133.035 17.4508 133.086 17.4451L133.257 17.4168C133.319 17.4054 133.382 17.3941 133.444 17.3827C133.512 17.3714 133.58 17.3543 133.643 17.343C133.711 17.326 133.784 17.3146 133.852 17.2976C133.926 17.2806 134 17.2636 134.074 17.2466C134.148 17.2295 134.227 17.2068 134.301 17.1898C134.38 17.1671 134.46 17.1444 134.533 17.1217C134.613 17.0991 134.692 17.0764 134.772 17.048C134.851 17.0196 134.931 16.9969 135.016 16.9686C135.095 16.9402 135.175 16.9118 135.26 16.8835C135.339 16.8494 135.419 16.8211 135.498 16.787C135.577 16.753 135.657 16.7189 135.736 16.6849C135.816 16.6452 135.89 16.6112 135.969 16.5714C136.043 16.5317 136.122 16.492 136.196 16.4523C136.27 16.4069 136.338 16.3672 136.412 16.3218C136.48 16.2764 136.548 16.2311 136.616 16.18C136.678 16.1289 136.746 16.0779 136.809 16.0325C136.809 16.0552 136.797 16.0722 136.797 16.0949L136.758 16.2708C136.735 16.3672 136.707 16.458 136.684 16.5544C136.644 16.6849 136.605 16.8097 136.571 16.9402C136.519 17.0991 136.463 17.2579 136.412 17.4168C136.344 17.604 136.27 17.7912 136.202 17.9784L135.941 18.6195C135.833 18.8577 135.725 19.096 135.617 19.3343C135.487 19.5953 135.356 19.8562 135.231 20.1115C135.078 20.3895 134.925 20.6675 134.772 20.9455C134.596 21.2405 134.414 21.5355 134.238 21.8305C134.034 22.1425 133.83 22.4489 133.626 22.7609C133.393 23.0843 133.16 23.402 132.928 23.7253C132.667 24.0544 132.4 24.3891 132.139 24.7181C131.844 25.0585 131.549 25.3933 131.254 25.7337C130.925 26.074 130.595 26.4201 130.266 26.7605C129.903 27.1066 129.54 27.4526 129.177 27.793C128.774 28.1391 128.377 28.4851 127.974 28.8255C127.537 29.1659 127.094 29.512 126.657 29.8524C126.175 30.1871 125.698 30.5275 125.216 30.8622C124.694 31.1913 124.172 31.5203 123.65 31.8494C123.083 32.1671 122.521 32.4904 121.953 32.8081L120.121 33.7329C119.462 34.0279 118.804 34.3172 118.146 34.6122C118.174 34.6122 118.203 34.6008 118.231 34.5952C118.31 34.5782 118.396 34.5611 118.475 34.5441C118.605 34.5158 118.736 34.4874 118.867 34.4533C119.042 34.408 119.218 34.3682 119.394 34.3229C119.61 34.2661 119.831 34.2037 120.047 34.147C120.302 34.0732 120.557 33.9938 120.813 33.9201C121.102 33.8293 121.392 33.7329 121.681 33.6421C121.999 33.5286 122.317 33.4208 122.634 33.3074C122.98 33.1769 123.321 33.0407 123.667 32.9102L124.768 32.4507C125.154 32.2748 125.54 32.099 125.925 31.9231C126.323 31.7245 126.725 31.526 127.123 31.3217C127.531 31.0948 127.945 30.8736 128.354 30.6466L129.608 29.8921C130.028 29.6141 130.448 29.3361 130.868 29.0581C131.288 28.7518 131.708 28.4454 132.127 28.1334C132.542 27.7987 132.956 27.4583 133.37 27.1236C133.773 26.7548 134.182 26.3861 134.584 26.0173C134.976 25.6145 135.373 25.2174 135.765 24.8146C136.139 24.3778 136.519 23.9466 136.894 23.5098C137.251 23.0389 137.609 22.568 137.961 22.1028C138.296 21.5979 138.625 21.093 138.959 20.5881C139.266 20.0434 139.567 19.5045 139.873 18.9599C140.145 18.3755 140.418 17.7969 140.69 17.2125C140.69 17.2125 140.69 17.2068 140.696 17.2012C140.701 17.1898 140.707 17.1785 140.713 17.1671C140.724 17.1501 140.73 17.1274 140.741 17.1104C140.753 17.082 140.764 17.0593 140.781 17.031C140.798 16.9969 140.809 16.9629 140.826 16.9345C140.843 16.8948 140.86 16.8551 140.877 16.8154C140.894 16.77 140.917 16.7246 140.934 16.6792C140.957 16.6282 140.979 16.5771 140.997 16.5261C141.019 16.4693 141.042 16.4126 141.065 16.3559C141.087 16.2935 141.116 16.2311 141.138 16.1686C141.161 16.1006 141.189 16.0325 141.212 15.9644C141.235 15.8907 141.263 15.8226 141.292 15.7488C141.32 15.6751 141.343 15.5957 141.371 15.5219C141.399 15.4425 141.422 15.3631 141.45 15.278C141.473 15.1929 141.502 15.1078 141.524 15.0227C141.547 14.9319 141.575 14.8468 141.598 14.756C141.621 14.6653 141.643 14.5745 141.666 14.4837C141.689 14.3873 141.711 14.2965 141.729 14.2001C141.751 14.1036 141.768 14.0072 141.791 13.905C141.808 13.8029 141.825 13.7065 141.842 13.6044C141.859 13.5022 141.87 13.4001 141.887 13.298C141.899 13.1959 141.91 13.0881 141.927 12.986C141.938 12.8782 141.944 12.7761 141.955 12.6683C141.961 12.5605 141.967 12.4527 141.973 12.3449C141.984 12.3336 141.99 12.3222 142.001 12.3109C142.029 12.2825 142.058 12.2485 142.086 12.2201C142.131 12.169 142.177 12.118 142.217 12.0726C142.273 12.0045 142.336 11.9364 142.392 11.8684C142.466 11.7833 142.534 11.6982 142.608 11.6131C142.693 11.511 142.773 11.4088 142.858 11.3067C142.948 11.1876 143.045 11.0684 143.136 10.955L143.436 10.5579L143.754 10.121C143.862 9.96218 143.976 9.80333 144.083 9.64448C144.197 9.47428 144.305 9.30409 144.418 9.13389C144.532 8.95235 144.645 8.77081 144.753 8.58926C144.866 8.39638 144.974 8.20349 145.088 8.01627C145.196 7.81771 145.303 7.61348 145.411 7.41491L145.718 6.79086L146.007 6.14412C146.092 5.92286 146.183 5.70161 146.268 5.47468C146.347 5.24775 146.421 5.02083 146.501 4.7939C146.563 4.5613 146.631 4.3287 146.694 4.0961C146.745 3.85782 146.796 3.62522 146.847 3.38695L146.955 2.67213C146.972 2.43385 146.989 2.1899 147.011 1.95163C147.011 1.71336 147.011 1.46941 147.011 1.23113L147 1.27652ZM144.407 4.93573C144.361 5.06054 144.322 5.18535 144.276 5.31016C144.231 5.4293 144.186 5.55411 144.14 5.67324C144.089 5.79238 144.044 5.91152 143.993 6.03065C143.942 6.14412 143.89 6.26326 143.839 6.37672C143.788 6.49018 143.732 6.59797 143.68 6.71144C143.624 6.81923 143.573 6.92702 143.516 7.03481C143.459 7.13693 143.408 7.24472 143.351 7.34684C143.295 7.44895 143.244 7.5454 143.187 7.64751C143.13 7.74396 143.079 7.83473 143.022 7.93117C142.966 8.02195 142.914 8.11272 142.858 8.20349C142.807 8.28859 142.75 8.37368 142.699 8.45878C142.648 8.53821 142.597 8.61763 142.546 8.69706C142.495 8.77081 142.443 8.84456 142.398 8.91831C142.353 8.98639 142.302 9.05447 142.256 9.12255C142.211 9.18495 142.165 9.24736 142.126 9.30976C142.086 9.36649 142.046 9.42322 142.001 9.47428C141.961 9.52534 141.927 9.57073 141.887 9.62179C141.853 9.6615 141.825 9.70688 141.791 9.7466C141.763 9.78064 141.734 9.81468 141.706 9.85439L141.638 9.93949L141.587 10.0019C141.587 10.0019 141.564 10.0246 141.558 10.0359C141.558 10.0359 141.553 10.0416 141.547 10.0473C141.377 10.2402 141.201 10.4331 141.031 10.6259C140.86 10.8018 140.69 10.9834 140.52 11.1592L140.009 11.6528C139.839 11.806 139.674 11.9535 139.504 12.1066C139.34 12.2428 139.175 12.3846 139.005 12.5208C138.84 12.6456 138.681 12.7704 138.517 12.8952C138.358 13.0087 138.199 13.1221 138.04 13.2356C137.887 13.3377 137.728 13.4398 137.575 13.542C137.427 13.6327 137.274 13.7292 137.127 13.8199C136.979 13.8994 136.837 13.9845 136.69 14.0639C136.553 14.1376 136.412 14.2114 136.275 14.2795L135.878 14.4724L135.504 14.6369C135.385 14.6823 135.271 14.7333 135.152 14.7787C135.044 14.8184 134.936 14.8581 134.823 14.8979L134.522 15C134.431 15.0283 134.34 15.0567 134.25 15.0851C134.17 15.1078 134.091 15.1305 134.011 15.1531C133.943 15.1702 133.87 15.1872 133.801 15.2042C133.745 15.2156 133.682 15.2326 133.626 15.2439C133.58 15.2553 133.535 15.2609 133.484 15.2723L133.382 15.2893C133.382 15.2893 133.342 15.295 133.319 15.3007C133.313 15.3007 133.308 15.3007 133.296 15.3007C133.279 15.3007 133.262 15.3063 133.245 15.312C133.228 15.312 133.211 15.3177 133.194 15.3233L133.143 15.3347C133.143 15.3347 133.109 15.3404 133.092 15.346C133.075 15.346 133.058 15.3517 133.047 15.3574C133.03 15.3574 133.013 15.3631 133.001 15.3687C132.984 15.3687 132.973 15.3744 132.956 15.3744C132.939 15.3744 132.928 15.3744 132.911 15.3801C132.894 15.3801 132.882 15.3801 132.865 15.3857C132.848 15.3857 132.837 15.3857 132.82 15.3914C132.803 15.3914 132.791 15.3914 132.774 15.3971C132.757 15.3971 132.746 15.3971 132.729 15.4028C132.712 15.4028 132.701 15.4028 132.684 15.4028C132.667 15.4028 132.655 15.4028 132.638 15.4028C132.627 15.4028 132.61 15.4028 132.598 15.4028C132.587 15.4028 132.57 15.4028 132.559 15.4028C132.547 15.4028 132.53 15.4028 132.519 15.4028C132.508 15.4028 132.491 15.4028 132.479 15.4028C132.468 15.4028 132.451 15.4028 132.44 15.4028C132.428 15.4028 132.411 15.4028 132.4 15.4028C132.389 15.4028 132.371 15.4028 132.36 15.4028C132.349 15.4028 132.337 15.4028 132.32 15.4028C132.309 15.4028 132.298 15.4028 132.281 15.4028C132.269 15.4028 132.258 15.4028 132.241 15.4028C132.184 15.4028 132.133 15.4028 132.076 15.4028C132.025 15.4028 131.974 15.3971 131.923 15.3914C131.878 15.3857 131.827 15.3801 131.781 15.3744C131.736 15.3631 131.691 15.3574 131.651 15.346C131.611 15.3347 131.571 15.3233 131.526 15.312C131.486 15.3007 131.452 15.2893 131.413 15.278C131.378 15.2666 131.344 15.2496 131.31 15.2382C131.276 15.2212 131.248 15.2099 131.214 15.1929L131.129 15.1475C131.129 15.1475 131.078 15.1134 131.049 15.0964C131.027 15.0794 131.004 15.0624 130.976 15.0454C130.953 15.0283 130.93 15.0113 130.913 14.9943C130.896 14.9773 130.873 14.9603 130.856 14.9432C130.839 14.9262 130.822 14.9092 130.805 14.8922C130.788 14.8752 130.777 14.8581 130.76 14.8411C130.749 14.8241 130.732 14.8071 130.72 14.7957C130.709 14.7787 130.698 14.7674 130.686 14.7504C130.675 14.739 130.669 14.722 130.658 14.7106C130.652 14.6993 130.641 14.6879 130.635 14.6766C130.629 14.6653 130.624 14.6539 130.618 14.6426C130.618 14.6312 130.607 14.6255 130.607 14.6142C130.607 14.6085 130.601 14.6028 130.595 14.5972C130.595 14.5972 130.595 14.5915 130.59 14.5802C130.567 14.5178 130.544 14.461 130.522 14.3986C130.505 14.3419 130.493 14.2795 130.476 14.2227C130.465 14.166 130.459 14.1093 130.448 14.0525C130.448 13.9958 130.448 13.9391 130.442 13.8824C130.442 13.8256 130.442 13.7746 130.448 13.7178C130.454 13.6668 130.465 13.61 130.471 13.559C130.482 13.5079 130.493 13.4569 130.505 13.4058C130.522 13.3547 130.533 13.3037 130.55 13.2583C130.567 13.2129 130.584 13.1619 130.607 13.1165C130.629 13.0711 130.646 13.0257 130.669 12.9803C130.692 12.9349 130.715 12.8952 130.737 12.8498C130.76 12.8101 130.788 12.7704 130.811 12.725L130.89 12.6116C130.919 12.5775 130.942 12.5378 130.97 12.5038C130.998 12.4697 131.021 12.4357 131.049 12.4017C131.078 12.3733 131.1 12.3392 131.129 12.3109C131.151 12.2825 131.18 12.2541 131.203 12.2315C131.225 12.2088 131.248 12.1861 131.271 12.1577C131.293 12.135 131.31 12.118 131.333 12.0953C131.35 12.0783 131.367 12.0613 131.39 12.0442C131.407 12.0329 131.418 12.0159 131.435 12.0045C131.447 11.9932 131.458 11.9875 131.469 11.9762C131.475 11.9705 131.486 11.9648 131.498 11.9535C131.537 11.9194 131.571 11.8911 131.605 11.8627C131.651 11.8287 131.696 11.7946 131.747 11.7606C131.804 11.7209 131.861 11.6868 131.918 11.6471L132.116 11.528C132.19 11.4826 132.264 11.4429 132.337 11.3975C132.417 11.3521 132.496 11.3067 132.581 11.2613C132.667 11.216 132.752 11.1649 132.842 11.1195C132.933 11.0741 133.024 11.0231 133.115 10.9777C133.211 10.9266 133.302 10.8812 133.399 10.8302C133.495 10.7791 133.591 10.7337 133.688 10.6827C133.784 10.6316 133.881 10.5862 133.977 10.5352C134.074 10.4898 134.17 10.4387 134.267 10.3933L134.556 10.2515C134.647 10.2061 134.743 10.1607 134.834 10.1154C134.925 10.07 135.016 10.0303 135.107 9.98487C135.192 9.94516 135.277 9.90545 135.362 9.86006C135.441 9.82035 135.521 9.78631 135.6 9.7466C135.674 9.71256 135.748 9.67852 135.816 9.64448C135.878 9.61611 135.946 9.58207 136.009 9.55371L136.173 9.47428C136.219 9.45159 136.264 9.43457 136.309 9.41188C136.344 9.39486 136.378 9.38351 136.412 9.36649C136.434 9.35515 136.451 9.34947 136.474 9.33813C136.48 9.33813 136.491 9.33245 136.497 9.32678C136.695 9.24168 136.894 9.15091 137.093 9.06581C137.285 8.97504 137.478 8.88427 137.671 8.79917C137.859 8.7084 138.046 8.61763 138.227 8.52686C138.409 8.43609 138.585 8.34532 138.766 8.25455C138.942 8.16378 139.113 8.073 139.289 7.98223C139.453 7.89146 139.623 7.80069 139.788 7.70992C139.947 7.61915 140.106 7.52838 140.265 7.43761C140.418 7.34684 140.571 7.25606 140.718 7.17097C140.866 7.0802 141.008 6.9951 141.155 6.90433C141.292 6.81923 141.428 6.73413 141.564 6.64903C141.694 6.56394 141.825 6.48451 141.95 6.39941C142.069 6.31999 142.194 6.24056 142.313 6.16114C142.426 6.08739 142.54 6.00796 142.653 5.93421C142.756 5.86046 142.863 5.78671 142.966 5.71863C143.062 5.65055 143.158 5.58247 143.249 5.51439C143.334 5.45199 143.419 5.38958 143.51 5.32718C143.59 5.27045 143.663 5.21372 143.743 5.15698C143.811 5.10592 143.879 5.05487 143.947 5.00381C144.004 4.95842 144.061 4.91304 144.117 4.86765C144.163 4.82794 144.214 4.7939 144.259 4.75419C144.299 4.72582 144.333 4.69178 144.373 4.66342L144.452 4.59534C144.452 4.59534 144.486 4.56697 144.503 4.55562C144.503 4.55562 144.515 4.54428 144.52 4.54428C144.481 4.66909 144.441 4.79957 144.401 4.92438L144.407 4.93573Z" fill="black"/>
</g>
<defs>
<clipPath id="clip0_22_94">
<rect width="147" height="71" fill="white"/>
</clipPath>
</defs>
</svg>
