<svg xmlns="http://www.w3.org/2000/svg" viewBox="0 0 64 64">
  <circle cx="32" cy="32" r="32" fill="#f7931a"/>
  <path fill="#fff" d="M46.103 28.272c.624-4.171-2.554-6.413-6.897-7.91l1.41-5.65-3.44-.857-1.372 5.502c-.904-.225-1.833-.438-2.756-.648l1.382-5.539-3.438-.858-1.41 5.65c-.749-.17-1.484-.339-2.197-.516l.004-.018-4.744-1.184-.915 3.673s2.553.585 2.499.62c1.394.349 1.646 1.27 1.604 2.001l-1.606 6.437c.097.024.222.06.358.115-.114-.028-.236-.059-.363-.09l-2.251 9.014c-.17.422-.602 1.057-1.575.817.034.05-2.501-.624-2.501-.624l-1.708 3.937 4.476 1.116c.832.208 1.65.426 2.453.632l-1.424 5.715 3.436.858 1.41-5.654c.939.255 1.85.49 2.742.711l-1.405 5.628 3.44.858 1.425-5.704c5.866 1.11 10.275.662 12.131-4.642 1.495-4.27-.075-6.733-3.16-8.339 2.247-.518 3.94-1.997 4.391-5.05zM38.84 39.683c-1.063 4.27-8.255 1.962-10.585 1.383l1.89-7.572c2.33.582 9.808 1.738 8.695 6.189zm1.064-11.473c-.97 3.884-6.957 1.911-8.897 1.428l1.713-6.866c1.94.483 8.196 1.387 7.184 5.438z"/>
</svg>
