<svg width="33" height="25" viewBox="0 0 33 25" fill="none" xmlns="http://www.w3.org/2000/svg">
<path d="M19.2359 6.93555H12.9776V18.1044H19.2359V6.93555Z" fill="#FF5F00"/>
<path d="M13.3749 12.5204C13.3749 10.2511 14.4477 8.23833 16.0967 6.93595C14.8848 5.98876 13.355 5.4165 11.6861 5.4165C7.73248 5.4165 4.53381 8.59352 4.53381 12.5204C4.53381 16.4473 7.73248 19.6243 11.6861 19.6243C13.355 19.6243 14.8848 19.052 16.0967 18.1049C14.4477 16.8222 13.3749 14.7897 13.3749 12.5204Z" fill="#EC001B"/>
<path d="M27.6797 12.5199C27.6797 16.4468 24.481 19.6238 20.5274 19.6238C18.8585 19.6238 17.3287 19.0516 16.1168 18.1044C17.7857 16.802 18.8387 14.7892 18.8387 12.5199C18.8387 10.2506 17.7658 8.23784 16.1168 6.93546C17.3287 5.98828 18.8585 5.41602 20.5274 5.41602C24.481 5.41602 27.6797 8.61277 27.6797 12.5199Z" fill="#F89E1B"/>
</svg>
