<svg width="33" height="25" viewBox="0 0 33 25" fill="none" xmlns="http://www.w3.org/2000/svg">
<path d="M16.2778 10.8645C16.2613 12.1878 17.4556 12.9262 18.3561 13.3652C19.2808 13.8159 19.5918 14.1048 19.5882 14.5077C19.5812 15.1245 18.8506 15.3962 18.1667 15.4068C16.9735 15.4251 16.2802 15.0843 15.7284 14.8267L15.2989 16.84C15.8524 17.0952 16.8768 17.3179 17.9389 17.3274C20.4327 17.3274 22.0643 16.0951 22.0731 14.184C22.0826 11.7589 18.7226 11.6248 18.7456 10.5407C18.7533 10.2123 19.0666 9.86138 19.7535 9.77217C20.0934 9.72727 21.031 9.69242 22.0944 10.1827L22.5116 8.23502C21.9398 8.02707 21.2045 7.82739 20.2893 7.82739C17.9425 7.82739 16.2914 9.07685 16.2778 10.8645ZM26.5224 7.99517C26.0669 7.99517 25.6833 8.26101 25.5122 8.66922L21.9498 17.1844H24.4418L24.9374 15.8127H27.9829L28.2709 17.1844H30.4666L28.55 7.99517H26.5224ZM26.8706 10.4775L27.5899 13.9282H25.6202L26.8706 10.4775ZM13.2565 7.99517L11.2921 17.1844H13.6667L15.6305 7.99517H13.2565ZM9.74371 7.99517L7.27181 14.2495L6.27219 8.93152C6.15476 8.33781 5.69154 7.99517 5.17698 7.99517H1.13661L1.07996 8.26219C1.90963 8.44237 2.85201 8.73303 3.42263 9.04377C3.77196 9.23399 3.87169 9.39999 3.98676 9.85133L5.88037 17.1844H8.39004L12.2374 7.99517H9.74371Z" fill="#1A1F71"/>
</svg>
