<svg width="94" height="20" xmlns="http://www.w3.org/2000/svg" fill="#ffffff">
<path d="M40.206 13.459h2.33v1.907h-3.004a2.264 2.303 0 0 1-2.28-2.307V1.652h2.255v2.815h2.468v1.907h-2.468v6.385a.7.7 0 0 0 .7.7zm-25.05-2.127c0 1.44-.888 2.415-2.255 2.415-1.369 0-2.28-.976-2.28-2.414V4.467H8.364v6.866c0 1.438-.906 2.414-2.28 2.414-1.375 0-2.255-.976-2.255-2.414V4.467H0v1.907h1.55v4.896c0 2.595 1.661 4.296 4.204 4.296 1.724 0 3.074-.775 3.742-2.057.662 1.282 2.011 2.057 3.742 2.057 2.543 0 4.204-1.7 4.204-4.296V4.467h-2.28v6.866h-.006zM33.516.19c-.862 0-1.437.53-1.437 1.332 0 .775.575 1.326 1.437 1.326.843 0 1.436-.557 1.436-1.326 0-.801-.593-1.333-1.436-1.333zm-7.997 4.077c-1.506 0-2.724.662-3.43 1.838V.033h-2.255V15.36h2.255V8.982c0-1.75 1.08-2.902 2.767-2.902 1.637 0 2.7 1.15 2.7 2.902v6.378h2.28V8.674c0-2.631-1.813-4.407-4.317-4.407zm6.865 11.099h2.255V4.468h-2.255ZM81.76 9.92v5.446h-2.255V13.86c-.887 1.038-2.349 1.7-4.005 1.7-3.054 0-5.291-2.37-5.291-5.646 0-3.277 2.412-5.648 5.773-5.648 3.36 0 5.778 2.371 5.778 5.654zm-2.26 0c0-2.127-1.463-3.678-3.5-3.678-2.011 0-3.472 1.551-3.472 3.678 0 2.151 1.46 3.676 3.473 3.676 2.036-.006 3.498-1.531 3.498-3.676zM56.81 2.059l.968 1.226C60.67.953 65.08.96 67.973 3.31l.969-1.232C65.519-.686 60.239-.692 56.81 2.06zm11.85 7.942c0 3.214-2.28 5.584-5.484 5.584-1.594 0-2.943-.663-3.805-1.707v5.935H57.11V9.932c0-3.277 2.41-5.647 5.772-5.647 3.367 0 5.778 2.37 5.778 5.716zm-2.323-.069c0-2.145-1.463-3.677-3.474-3.677-2.037 0-3.498 1.532-3.498 3.677 0 2.127 1.461 3.678 3.498 3.678 2.011 0 3.474-1.551 3.474-3.678zm25.387-5.464v5.915c0 1.75-1.087 2.9-2.768 2.9-1.636 0-2.698-1.149-2.698-2.9V4.467h-3.802v1.907h1.549v4.314c0 2.64 1.81 4.41 4.266 4.41 1.525 0 2.743-.663 3.45-1.814v2.038c0 1.751-1.063 2.859-2.7 2.859-1.337 0-2.267-.801-2.555-2.064h-2.124C84.754 18.449 86.572 20 89.11 20 92.032 20 94 18.074 94 15.19V4.468h-2.274Zm-36.37 5.47c0 .226-.025.463-.069.688H45.99c.288 1.813 1.705 3.077 3.586 3.077 1.33 0 2.46-.745 3.024-1.783h2.391c-.793 2.145-2.947 3.64-5.434 3.64-3.361 0-5.822-2.37-5.822-5.647s2.455-5.646 5.822-5.646c3.36 0 5.771 2.37 5.797 5.671zm-2.192-1.062c-.375-1.62-1.794-2.746-3.586-2.746-1.768 0-3.124 1.132-3.517 2.746h7.102z" />
</svg>