<?xml version="1.0" encoding="UTF-8"?>
<svg id="Layer_2" data-name="Layer 2" xmlns="http://www.w3.org/2000/svg" viewBox="0 0 64.38 89.18">
  <defs>
    <style>
      .cls-1 {
        fill: #fff;
      }
    </style>
  </defs>
  <g id="Layer_1-2" data-name="Layer 1">
    <path class="cls-1" d="M32.3,89.18L3.83,71.09c-2.4-1.52-3.83-4.13-3.83-6.97V25.03c0-2.83,1.42-5.43,3.81-6.96L32.07,0l28.49,18.12c2.4,1.52,3.83,4.13,3.83,6.97v39.06c0,2.83-1.42,5.43-3.81,6.96l-28.27,18.07ZM32.07,1.53L4.5,19.16c-2.01,1.29-3.21,3.48-3.21,5.87v39.09c0,2.4,1.21,4.6,3.23,5.88l27.78,17.65,27.58-17.63c2.01-1.29,3.22-3.48,3.22-5.87V25.09c0-2.4-1.21-4.59-3.23-5.88L32.07,1.53ZM53.12,23.34c-2.13-1.36-3.56-2.27-3.56-2.27l-7.32-4.67-.06-.05-7.32-4.67v31.84h-5.32V11.69l-7.32,4.67v47.84s-4.81-3.07-5.37-3.43-2.04-1.18-2.04-4.45.03-35.25.03-35.25l-7.32,4.67v33.27c0,3.04,1.63,5.5,3.76,6.86,2.13,1.36,3.56,2.27,3.56,2.27l7.32,4.67.06.05,7.32,4.67v-26.49h5.32v26.49l7.32-4.67v-21.82h7.4c0,8.66-.02,17.11-.02,17.11l7.32-4.67V30.21c0-3.04-1.63-5.5-3.76-6.86ZM42.17,43.54v-18.52s4.81,3.07,5.37,3.43,2.04,1.18,2.04,4.45c0,1.09,0,5.4,0,10.65h-7.41Z"/>
  </g>
</svg>